<svg xmlns="http://www.w3.org/2000/svg" width="64" height="55.973"><path d="M60 21.973H4a4 4 0 00-4 4v26a4 4 0 004 4h56a4 4 0 004-4v-26a4 4 0 00-4-4z" fill="#48a0dc"/><path d="M57 30.252a1.967 1.967 0 00-1-.262v-.018h-8a2 2 0 100 3.999h4.556l-6.289 10.97a2.023 2.023 0 00.732 2.752c.957.556 2.18.226 2.732-.737l8-13.954a2.02 2.02 0 00-.731-2.75zm-41 13.72h-3.334l3.576-3.756A6 6 0 106 35.972a2 2 0 004 0 2 2 0 113.414 1.414l-.001.001a1.995 1.995 0 01-1.413.585v.899l-5.414 5.686A2 2 0 008 47.972h8a2 2 0 000-4zm24-6h-4a2 2 0 000 4h4a2 2 0 000-4zm-10 2v-7.999c0-1.013-.755-1.84-1.731-1.973a1.991 1.991 0 00-1.907.72l-7.878 9.759c-.314.39-.462.861-.468 1.333-.004.053-.016.105-.016.161 0 1.047.809 1.897 1.835 1.982h.001c.055.005.108.017.164.017h6v2.001a2 2 0 004 0v-2.001a2 2 0 000-4zm-4 0h-1.774L26 37.774v2.198z" fill-rule="evenodd" clip-rule="evenodd" fill="#fff"/><circle cx="32" cy="7.973" r="4" fill="#666"/><path d="M37.657 2.315A7.906 7.906 0 0032 0a7.906 7.906 0 00-5.657 2.315L6.686 21.973h5.657L29.171 5.144S30 3.973 32 3.973s2.828 1.171 2.828 1.171l16.829 16.829h5.657L37.657 2.315z" fill="#a67c52"/></svg>