<svg xmlns="http://www.w3.org/2000/svg" width="64" height="64"><path d="M60 0H3.999A4 4 0 000 4v56a4 4 0 003.999 4H60a4 4 0 004-4V4a4 4 0 00-4-4z" fill="#a67c52"/><path d="M57.999 4H6a2 2 0 00-2.001 2v52A2 2 0 006 60h51.999A2 2 0 0060 58V6a2 2 0 00-2.001-2z" fill="#fff"/><path d="M3.999 14v4H60v-4H3.999zm0 20H60v-4H3.999v4zm0 16.001H60V46H3.999v4.001z" fill-rule="evenodd" clip-rule="evenodd" fill="#999"/><path d="M7.999 12a4 4 0 100 8 4 4 0 000-8zM16 12a4 4 0 100 8 4 4 0 000-8zm8 0a4 4 0 10-.001 8A4 4 0 0024 12zm28 0a4 4 0 100 8 4 4 0 000-8z" fill-rule="evenodd" clip-rule="evenodd" fill="#48a0dc"/><path d="M7.999 44a4 4 0 100 8 4 4 0 000-8zM16 44a4 4 0 100 8 4 4 0 000-8zm8 0a4 4 0 10-.001 8A4 4 0 0024 44zm8 0a4 4 0 100 8 4 4 0 000-8z" fill-rule="evenodd" clip-rule="evenodd" fill="#ed7161"/><path d="M7.999 28a4 4 0 100 8 4 4 0 000-8zM16 28a4 4 0 100 8 4 4 0 000-8zm20 0a4 4 0 100 8 4 4 0 000-8zm19.999 0a4 4 0 000 8 4 4 0 100-8z" fill-rule="evenodd" clip-rule="evenodd" fill="#88c057"/></svg>