<svg xmlns="http://www.w3.org/2000/svg" width="64" height="64"><path d="M0 40v20a4 4 0 004 4h56a4 4 0 004-4V40H0z" fill="#ccc"/><path d="M60 0H4a4 4 0 00-4 4v36.001h64V4a4 4 0 00-4-4z" fill="#e6e6e6"/><path d="M42 8H10a2 2 0 00-2 2.001v24A2 2 0 0010 36h32a2 2 0 002-1.999v-24A2 2 0 0042 8z" fill="#48a0dc"/><path d="M50 12h4a2 2 0 000-4h-4a2 2 0 000 4zm4 4h-4a2 2 0 000 4h4a2 2 0 100-4zm0 8.001h-4A2 2 0 0050 28h4a2 2 0 100-3.999zm0 8h-4A2 2 0 0050 36h4a2 2 0 100-3.999z" fill-rule="evenodd" clip-rule="evenodd" fill="#999"/><path d="M54 44H10a2 2 0 00-2 2.001v8a2 2 0 002 2h44a2 2 0 002-2v-8A2 2 0 0054 44z" fill="#999"/><path d="M50 48.001H14A2 2 0 0014 52h36a2 2 0 000-3.999z" fill="#666"/><path d="M48 48.001H16l-2 10A2 2 0 0016 60h32a2 2 0 002-1.999l-2-10z" fill="#88c057"/><path d="M44.399 50.001H32c2.209 0 4 1.343 4 2.999 0 1.657-1.791 3.001-4 3.001h13.6l-1.201-6zM28 53c0-1.656 1.791-2.999 4-2.999H19.6l-1.199 6H32c-2.209 0-4-1.344-4-3.001z" fill-rule="evenodd" clip-rule="evenodd" fill="#aee67e"/></svg>