<svg xmlns="http://www.w3.org/2000/svg" width="64" height="63.999"><path d="M58 51.999A2 2 0 0056 50V24a2 2 0 000-4.001h-6A2 2 0 0050 24v26a2 2 0 00-2 1.999h-4A2 2 0 0042 50V24a2 2 0 000-4.001h-6A2 2 0 0036 24v26a2 2 0 00-2 1.999h-4A2 2 0 0028 50V24a2 2 0 000-4.001h-6A2 2 0 0022 24v26a2 2 0 00-2 1.999h-4A2 2 0 0014 50V24a2 2 0 000-4.001H8A2 2 0 008 24v26a2 2 0 00-2 1.999A2 2 0 004 54v1.999h56V54a2 2 0 00-2-2.001z" fill-rule="evenodd" clip-rule="evenodd" fill="#b3b3b3"/><path d="M4 22h56a4 4 0 001.576-7.677l-28.001-14a4.006 4.006 0 00-3.15-.001l-28 14A4.001 4.001 0 004 22zm58 34H2a2 2 0 00-2 2v4a2 2 0 002 1.999h60A2 2 0 0064 62v-4a2 2 0 00-2-2z" fill-rule="evenodd" clip-rule="evenodd" fill="#ccc"/><path d="M32 3.999L4 18h56L32 3.999zM32 16a4 4 0 110-8 4 4 0 010 8z" fill-rule="evenodd" clip-rule="evenodd" fill="#e6e6e6"/></svg>