<svg xmlns="http://www.w3.org/2000/svg" width="64" height="64"><path d="M62.838 17.982L46.017 1.161a3.965 3.965 0 00-5.607 0L1.162 40.412a3.964 3.964 0 000 5.607l16.82 16.821a3.967 3.967 0 005.607 0l39.25-39.25a3.966 3.966 0 00-.001-5.608z" fill="#9b7cab"/><path d="M25.983 25.988c-2.905 2.906-2.554 7.968.786 11.306 1.653 1.653 3.729 2.571 5.757 2.727-.36-1.049-.528-2.608-.494-4.036a4.62 4.62 0 01-2.631-1.321c-1.67-1.67-1.845-4.2-.392-5.653 1.452-1.453 3.984-1.277 5.654.392a4.62 4.62 0 011.322 2.632c1.428-.034 2.987.133 4.036.494-.156-2.027-1.074-4.103-2.728-5.755-3.341-3.339-8.403-3.692-11.31-.786zm-5.941 3.687l-9.371 9.372a3.97 3.97 0 011.362 2.984 3.98 3.98 0 01-1.987 3.438l8.548 8.548a3.98 3.98 0 013.437-1.987c1.162 0 2.198.503 2.928 1.293l9.291-9.291c-3.488.165-7.228-1.22-10.113-4.097-2.933-2.926-4.317-6.732-4.095-10.26zm33.974-11.081l-8.548-8.548c-.695 1.183-1.966 1.987-3.438 1.987a3.97 3.97 0 01-2.984-1.362l-9.442 9.442c3.546-.231 7.377 1.148 10.319 4.082 2.876 2.868 4.267 6.584 4.111 10.054l9.289-9.289a3.976 3.976 0 01-1.292-2.929c-.002-1.47.802-2.742 1.985-3.437z" fill-rule="evenodd" clip-rule="evenodd" fill="#caa2de"/></svg>