<svg xmlns="http://www.w3.org/2000/svg" width="64" height="64"><path d="M62.839 17.982L46.018 1.161a3.965 3.965 0 00-5.607 0L1.162 40.412a3.964 3.964 0 000 5.607l16.82 16.821a3.967 3.967 0 005.607 0l39.25-39.25a3.967 3.967 0 000-5.608z" fill="#75a64b"/><path d="M25.983 25.988c-2.906 2.906-2.554 7.968.786 11.306 1.653 1.653 3.729 2.571 5.757 2.727-.361-1.049-.528-2.608-.494-4.036a4.62 4.62 0 01-2.631-1.321c-1.67-1.67-1.846-4.2-.392-5.653 1.452-1.453 3.984-1.277 5.654.392a4.62 4.62 0 011.322 2.632c1.428-.034 2.988.134 4.037.494-.156-2.027-1.074-4.103-2.728-5.755-3.341-3.339-8.404-3.692-11.311-.786zm-5.941 3.687l-9.371 9.371a3.97 3.97 0 011.362 2.984 3.98 3.98 0 01-1.987 3.438l8.547 8.548a3.98 3.98 0 013.438-1.987c1.161 0 2.198.503 2.928 1.293l9.292-9.291c-3.488.165-7.229-1.22-10.114-4.097-2.933-2.925-4.317-6.731-4.095-10.259zm33.975-11.081l-8.549-8.547a3.98 3.98 0 01-3.438 1.987 3.97 3.97 0 01-2.984-1.362l-9.442 9.442c3.546-.231 7.377 1.148 10.32 4.082 2.876 2.868 4.267 6.584 4.111 10.054l9.289-9.289a3.972 3.972 0 01-1.293-2.929c-.002-1.471.802-2.743 1.986-3.438z" fill-rule="evenodd" clip-rule="evenodd" fill="#99d962"/></svg>