<svg xmlns="http://www.w3.org/2000/svg" width="64" height="64"><path d="M62.838 17.982L46.017 1.161a3.964 3.964 0 00-5.606 0l-39.25 39.25a3.965 3.965 0 000 5.607L17.982 62.84a3.967 3.967 0 005.607 0l39.249-39.25a3.965 3.965 0 000-5.608z" fill="#cca352"/><path d="M20.042 29.675l-9.371 9.372a3.97 3.97 0 011.362 2.984 3.982 3.982 0 01-1.986 3.438l8.548 8.547a3.982 3.982 0 013.438-1.986c1.161 0 2.197.503 2.928 1.293l9.291-9.291c-3.488.165-7.229-1.22-10.114-4.097-2.935-2.926-4.318-6.732-4.096-10.26zm5.941-3.687c-2.906 2.906-2.555 7.968.785 11.306 1.653 1.653 3.729 2.571 5.757 2.727-.36-1.049-.528-2.608-.494-4.036a4.613 4.613 0 01-2.631-1.321c-1.67-1.67-1.846-4.2-.393-5.653 1.453-1.453 3.984-1.277 5.654.392a4.62 4.62 0 011.322 2.632c1.427-.034 2.987.133 4.036.494-.156-2.027-1.074-4.103-2.727-5.755-3.34-3.339-8.403-3.692-11.309-.786zm28.033-7.394l-8.548-8.548a3.98 3.98 0 01-3.438 1.987 3.973 3.973 0 01-2.985-1.362l-9.442 9.442c3.546-.231 7.377 1.148 10.319 4.082 2.876 2.868 4.267 6.584 4.111 10.054l9.289-9.289a3.972 3.972 0 01-1.293-2.929c-.001-1.47.803-2.742 1.987-3.437z" fill-rule="evenodd" clip-rule="evenodd" fill="#fc6"/></svg>