<svg xmlns="http://www.w3.org/2000/svg" width="64" height="64"><path d="M12 51.999a6 6 0 00-12 0 2 2 0 104 0 2 2 0 113.414 1.415A1.994 1.994 0 016 54v.899L.586 60.585A2 2 0 002 64h8a2 2 0 000-4.001H6.665l3.573-3.752A5.987 5.987 0 0012 51.999zM36 48a2 2 0 00-2-2h-8a2 2 0 000 4h4.309l-1.724 2.586A2 2 0 0030 55.999 2 2 0 1128 58a2 2 0 00-4 0 6 6 0 0012 0 5.993 5.993 0 00-2.893-5.126l2.307-3.46c.362-.362.586-.862.586-1.414zm10 11.999l-.001-11.989L46 48c0-.553-.225-1.053-.587-1.415a1.99 1.99 0 00-1.414-.586l-.01.001H42a2 2 0 00-.001 4v9.999A2 2 0 0042 64h4a2 2 0 000-4.001zm16 0h-3.335l3.573-3.752A6 6 0 1052 51.999a2 2 0 104 0 2 2 0 113.414 1.415A1.994 1.994 0 0158 54v.899l-5.411 5.683A2 2 0 0054 64h8a2 2 0 000-4.001zM24 0h-2a2 2 0 00-2 2v38a2 2 0 002 2.001h2A2 2 0 0026 40V2a2 2 0 00-2-2zM4 0a2 2 0 00-2 2v38a2 2 0 104 0V2a2 2 0 00-2-2zm10 0a2 2 0 00-2 2v38a2 2 0 104 0V2a2 2 0 00-2-2zm28 0h-2a2 2 0 00-2 2v38a2 2 0 002 2.001h2A2 2 0 0044 40V2a2 2 0 00-2-2zM32 0a2 2 0 00-2 2v38a2 2 0 104 0V2a2 2 0 00-2-2zm20 0h-2a2 2 0 00-2 2v38a2 2 0 002 2.001h2A2 2 0 0054 40V2a2 2 0 00-2-2zm8 0a2 2 0 00-2 2v38a2 2 0 104 0V2a2 2 0 00-2-2z" fill-rule="evenodd" clip-rule="evenodd" fill="#666"/><path d="M62 28.001H2A2 2 0 102 32h60a2 2 0 100-3.999z" fill="#ed7161"/></svg>