<svg xmlns="http://www.w3.org/2000/svg" width="64" height="52.037"><path d="M4 24.037l4 24a4 4 0 004 4h40a4 4 0 004-4l4-24H4zm14 20a2 2 0 01-4 0v-14a2 2 0 014 0v14zm8 0a2 2 0 01-4 0v-14a2 2 0 014 0v14zm8 0a2 2 0 01-4 0v-14a2 2 0 014 0v14zm8 0a2 2 0 01-4 0v-14a2 2 0 014 0v14zm8 0a2 2 0 01-4 0v-14a2 2 0 114 0v14z" fill-rule="evenodd" clip-rule="evenodd" fill="#d46557"/><path d="M60 16.037H4a4 4 0 000 8h56a4 4 0 000-8z" fill="#ed7161"/><path d="M43.731 18.967l-10-17.932c-.019-.034-.044-.061-.064-.093a2.262 2.262 0 00-.128-.185 2.003 2.003 0 00-.13-.145 2.047 2.047 0 00-.143-.136 1.967 1.967 0 00-.174-.13C33.061.325 33.034.298 33 .277c-.02-.012-.041-.018-.062-.029a1.845 1.845 0 00-.192-.089c-.059-.024-.116-.05-.176-.068-.062-.019-.124-.031-.188-.044-.063-.013-.127-.027-.192-.034-.063-.005-.127-.004-.19-.004-.064 0-.128-.001-.191.005-.064.007-.128.021-.191.034-.063.013-.127.025-.188.044-.059.018-.115.043-.173.067-.066.028-.133.056-.196.091-.021.01-.041.016-.061.027-.033.02-.059.046-.091.067-.061.042-.12.084-.178.133a1.945 1.945 0 00-.139.133 2.095 2.095 0 00-.134.149 2.177 2.177 0 00-.124.178c-.021.035-.047.063-.066.098l-10 17.932c-.552.99-.225 2.258.732 2.829.956.571 2.18.232 2.731-.758L32 6.212l8.268 14.826c.553.99 1.775 1.329 2.732.758.956-.571 1.284-1.839.731-2.829z" fill-rule="evenodd" clip-rule="evenodd" fill="#999"/></svg>