<svg xmlns="http://www.w3.org/2000/svg" width="64" height="64"><path d="M62 59.999H4v-58a2 2 0 00-4 0V62a2 2 0 002 2h60a2 2 0 000-4.001zm-52-44a2 2 0 10-.001-4.001A2 2 0 0010 15.999zm8 0a2 2 0 10-.001-4.001A2 2 0 0018 15.999zm8 0a2 2 0 10-.001-4.001A2 2 0 0026 15.999zm8 0a2 2 0 10-.001-4.001A2 2 0 0034 15.999zm8 0a2 2 0 10-.001-4.001A2 2 0 0042 15.999zm8 0a2 2 0 10-.001-4.001A2 2 0 0050 15.999zm-40 8a2 2 0 10-.001-4.001A2 2 0 0010 23.999zm8 0a2 2 0 10-.001-4.001A2 2 0 0018 23.999zm8 0a2 2 0 10-.001-4.001A2 2 0 0026 23.999zm8 0a2 2 0 10-.001-4.001A2 2 0 0034 23.999zm8 0a2 2 0 10-.001-4.001A2 2 0 0042 23.999zm8 0a2 2 0 10-.001-4.001A2 2 0 0050 23.999zm-40 8a2 2 0 10-.001-4.001A2 2 0 0010 31.999zm8 0a2 2 0 10-.001-4.001A2 2 0 0018 31.999zm8 0a2 2 0 10-.001-4.001A2 2 0 0026 31.999zm8 0a2 2 0 10-.001-4.001A2 2 0 0034 31.999zm8 0a2 2 0 10-.001-4.001A2 2 0 0042 31.999zm8 0a2 2 0 10-.001-4.001A2 2 0 0050 31.999zm-40 8a2 2 0 10-.001-4.001A2 2 0 0010 39.999zm8 0a2 2 0 10-.001-4.001A2 2 0 0018 39.999zm8 0a2 2 0 10-.001-4.001A2 2 0 0026 39.999zm8 0a2 2 0 10-.001-4.001A2 2 0 0034 39.999zm8 0a2 2 0 10-.001-4.001A2 2 0 0042 39.999zm8 0a2 2 0 10-.001-4.001A2 2 0 0050 39.999zM10 48a2 2 0 10-.002-4.002A2 2 0 0010 48zm8 0a2 2 0 10-.002-4.002A2 2 0 0018 48zm8 0a2 2 0 10-.002-4.002A2 2 0 0026 48zm8 0a2 2 0 10-.002-4.002A2 2 0 0034 48zm8 0a2 2 0 10-.002-4.002A2 2 0 0042 48zm8 0a2 2 0 10-.002-4.002A2 2 0 0050 48zm-40 7.999a2 2 0 100-4 2 2 0 000 4zm8 0a2 2 0 100-4 2 2 0 000 4zm8 0a2 2 0 100-4 2 2 0 000 4zm8 0a2 2 0 100-4 2 2 0 000 4zm8 0a2 2 0 100-4 2 2 0 000 4zm8 0a2 2 0 100-4 2 2 0 000 4zm-40-48a2 2 0 10-.001-4.001A2 2 0 0010 7.999zm8 0a2 2 0 10-.001-4.001A2 2 0 0018 7.999zm8 0a2 2 0 10-.001-4.001A2 2 0 0026 7.999zm8 0a2 2 0 10-.001-4.001A2 2 0 0034 7.999zm8 0a2 2 0 10-.001-4.001A2 2 0 0042 7.999zm8 0a2 2 0 10-.001-4.001A2 2 0 0050 7.999zm8 8a2 2 0 10-.001-4.001A2 2 0 0058 15.999zm0 8a2 2 0 10-.001-4.001A2 2 0 0058 23.999zm0 8a2 2 0 10-.001-4.001A2 2 0 0058 31.999zm0 8a2 2 0 10-.001-4.001A2 2 0 0058 39.999zM58 48a2 2 0 10-.002-4.002A2 2 0 0058 48zm0 7.999a2 2 0 100-4 2 2 0 000 4zm0-48a2 2 0 10-.001-4.001A2 2 0 0058 7.999z" fill-rule="evenodd" clip-rule="evenodd" fill="#ccc"/><path d="M58 36a2 2 0 00-2 2v3l-8.336-8.335a2.155 2.155 0 00-1.665-.623 2.156 2.156 0 00-1.665.623L40 37 27.664 24.665a2.155 2.155 0 00-1.665-.623 2.156 2.156 0 00-1.665.623L20 29l-8.335-8.335a2.167 2.167 0 00-3.067 0 2.167 2.167 0 000 3.067l9.67 9.672a2.156 2.156 0 001.733.615 2.158 2.158 0 001.733-.615L26 29.137l12.267 12.267A2.157 2.157 0 0040 42.02a2.159 2.159 0 001.733-.616L46 37.137 52.863 44H50a2 2 0 000 4h7.4c.305.057.617.042.919-.032A1.996 1.996 0 0060 46v-8a2 2 0 00-2-2z" fill-rule="evenodd" clip-rule="evenodd" fill="#ed7161"/></svg>