<svg xmlns="http://www.w3.org/2000/svg" width="56" height="63.999"><path d="M52.001 0h-48A4 4 0 000 4v55.999a4 4 0 004.001 4H38l18-18V4c0-2.21-1.79-4-3.999-4z" fill="#ccc"/><path d="M50 4H6.001a2 2 0 00-2 2v52a2 2 0 002 1.999h30l16-15.999V6c0-1.104-.897-2-2.001-2z" fill="#fff"/><path d="M42 45.999c-2.209 0-4 1.792-4 4.001v13.999l18-18H42z" fill="#999"/><path d="M14 27.999h16a2 2 0 100-4H14a2 2 0 000 4zM22.001 48H14a2 2 0 100 3.999h8.001a2 2 0 000-3.999zM30 31.999H14a2 2 0 000 4h16a2 2 0 100-4z" fill-rule="evenodd" clip-rule="evenodd" fill="#ccc"/><path d="M38 27.999h4a2 2 0 100-4h-4a2 2 0 000 4zM42 32h-4a2 2 0 100 3.999h4A2 2 0 1042 32z" fill-rule="evenodd" clip-rule="evenodd" fill="#ed7161"/><path d="M42.001 12h-28a2 2 0 00-2 2.001v4a2 2 0 002 2h28a2 2 0 002-2v-4a2 2 0 00-2-2.001z" fill="#ed7161"/></svg>