<svg xmlns="http://www.w3.org/2000/svg" width="64" height="64.001"><path d="M60 .001H4a4 4 0 00-4 4v56a4 4 0 004 4h56a4 4 0 004-4v-56a4 4 0 00-4-4z" fill="#d9a16a"/><path d="M26 0v22.001A2 2 0 0028 24h8a2 2 0 002-1.999V0H26z" fill="#f2b477"/><path d="M55.414 44.585l-6-6A1.997 1.997 0 0048 38c-.553 0-1.053.224-1.414.585l-6.001 6a2 2 0 002.829 2.829l2.604-2.604V54c0 1.104.887 2 1.981 2s1.982-.896 1.982-2v-9.19l2.604 2.604a2 2 0 002.829-2.829z" fill-rule="evenodd" clip-rule="evenodd" fill="#a67c52"/></svg>