<svg xmlns="http://www.w3.org/2000/svg" width="64" height="56"><path d="M40 0H24a4 4 0 00-4 4.001v2h4a2 2 0 012-2h12a2 2 0 012 2h4v-2A4 4 0 0040 0zm20 8H4c-2.209 0-4 1.792-4 4.001v40A4 4 0 004 56h56a4 4 0 004-3.999v-40A4.001 4.001 0 0060 8z" fill="#a67c52"/><path d="M60 6.001H4A4 4 0 000 10l2 18.001a4 4 0 004 4l20 4h12l20-4a4 4 0 004-4L64 10a4 4 0 00-4-3.999z" fill="#bf8e5e"/><path d="M26 36.001v2a2 2 0 002 2h8a2 2 0 002-2v-2H26z" fill="#cca75c"/><path d="M36 28.001h-8a2 2 0 00-2 2v6h12v-6a2 2 0 00-2-2z" fill="#ffd073"/></svg>