<svg xmlns="http://www.w3.org/2000/svg" width="64" height="64"><path d="M62 59.999H4v-58a2 2 0 00-4 0V62a2 2 0 002 2h60a2 2 0 000-4.001zm-52-44a2 2 0 10-.001-4.001A2 2 0 0010 15.999zm8 0a2 2 0 10-.001-4.001A2 2 0 0018 15.999zm8 0a2 2 0 10-.001-4.001A2 2 0 0026 15.999zm8 0a2 2 0 10-.001-4.001A2 2 0 0034 15.999zm8 0a2 2 0 10-.001-4.001A2 2 0 0042 15.999zm8 0a2 2 0 10-.001-4.001A2 2 0 0050 15.999zm-40 8a2 2 0 10-.001-4.001A2 2 0 0010 23.999zm8 0a2 2 0 10-.001-4.001A2 2 0 0018 23.999zm8 0a2 2 0 10-.001-4.001A2 2 0 0026 23.999zm8 0a2 2 0 10-.001-4.001A2 2 0 0034 23.999zm8 0a2 2 0 10-.001-4.001A2 2 0 0042 23.999zm8 0a2 2 0 10-.001-4.001A2 2 0 0050 23.999zm-40 8a2 2 0 10-.001-4.001A2 2 0 0010 31.999zm8 0a2 2 0 10-.001-4.001A2 2 0 0018 31.999zm8 0a2 2 0 10-.001-4.001A2 2 0 0026 31.999zm8 0a2 2 0 10-.001-4.001A2 2 0 0034 31.999zm8 0a2 2 0 10-.001-4.001A2 2 0 0042 31.999zm8 0a2 2 0 10-.001-4.001A2 2 0 0050 31.999zm-40 8a2 2 0 10-.001-4.001A2 2 0 0010 39.999zm8 0a2 2 0 10-.001-4.001A2 2 0 0018 39.999zm8 0a2 2 0 10-.001-4.001A2 2 0 0026 39.999zm8 0a2 2 0 10-.001-4.001A2 2 0 0034 39.999zm8 0a2 2 0 10-.001-4.001A2 2 0 0042 39.999zm8 0a2 2 0 10-.001-4.001A2 2 0 0050 39.999zM10 48a2 2 0 10-.002-4.002A2 2 0 0010 48zm8 0a2 2 0 10-.002-4.002A2 2 0 0018 48zm8 0a2 2 0 10-.002-4.002A2 2 0 0026 48zm8 0a2 2 0 10-.002-4.002A2 2 0 0034 48zm8 0a2 2 0 10-.002-4.002A2 2 0 0042 48zm8 0a2 2 0 10-.002-4.002A2 2 0 0050 48zm-40 7.999a2 2 0 100-4 2 2 0 000 4zm8 0a2 2 0 100-4 2 2 0 000 4zm8 0a2 2 0 100-4 2 2 0 000 4zm8 0a2 2 0 100-4 2 2 0 000 4zm8 0a2 2 0 100-4 2 2 0 000 4zm8 0a2 2 0 100-4 2 2 0 000 4zm-40-48a2 2 0 10-.001-4.001A2 2 0 0010 7.999zm8 0a2 2 0 10-.001-4.001A2 2 0 0018 7.999zm8 0a2 2 0 10-.001-4.001A2 2 0 0026 7.999zm8 0a2 2 0 10-.001-4.001A2 2 0 0034 7.999zm8 0a2 2 0 10-.001-4.001A2 2 0 0042 7.999zm8 0a2 2 0 10-.001-4.001A2 2 0 0050 7.999zm8 8a2 2 0 10-.001-4.001A2 2 0 0058 15.999zm0 8a2 2 0 10-.001-4.001A2 2 0 0058 23.999zm0 8a2 2 0 10-.001-4.001A2 2 0 0058 31.999zm0 8a2 2 0 10-.001-4.001A2 2 0 0058 39.999zM58 48a2 2 0 10-.002-4.002A2 2 0 0058 48zm0 7.999a2 2 0 100-4 2 2 0 000 4zm0-48a2 2 0 10-.001-4.001A2 2 0 0058 7.999z" fill-rule="evenodd" clip-rule="evenodd" fill="#ccc"/><path d="M58.323 20.031a2.174 2.174 0 00-.929-.032H50a2 2 0 100 4h2.863L46 30.862l-4.268-4.267A2.152 2.152 0 0040 25.978a2.156 2.156 0 00-1.733.617L26 38.862l-4.268-4.267a2.149 2.149 0 00-1.733-.616 2.153 2.153 0 00-1.733.616l-9.67 9.67a2.168 2.168 0 000 3.068 2.167 2.167 0 003.067 0L20 38.999l4.335 4.335a2.155 2.155 0 001.665.623 2.156 2.156 0 001.665-.623L40 30.999l4.335 4.335a2.156 2.156 0 001.665.623 2.153 2.153 0 001.664-.623L56 26.999v3a2 2 0 004 0v-8c0-.995-.727-1.812-1.677-1.968z" fill-rule="evenodd" clip-rule="evenodd" fill="#48a0dc"/></svg>