<svg xmlns="http://www.w3.org/2000/svg" width="64" height="55.999"><path d="M60 0H4a4 4 0 00-4 4v28a4 4 0 004 4h56a4 4 0 004-4V4a4 4 0 00-4-4z" fill="#88c057"/><path d="M38 8a2 2 0 00-2 2v10a4 4 0 01-8 .005l.001-.005V10A2 2 0 0024 10v10a8 8 0 0016 0V10a2 2 0 00-2-2zm-6 3.999l-.02.001h.039L32 11.999zm-12.776 4.945c.492-.87.776-1.874.776-2.945a6 6 0 00-6-6L13.99 8H8a2 2 0 00-2 2v16a2 2 0 002 2h6v-.35a5.97 5.97 0 002 .349 6 6 0 006-6 5.99 5.99 0 00-2.776-5.055zM10 12h3.99l.01-.001a2 2 0 010 4V16h-4v-4zm6 11.999L10 24v-4h5.99l.01-.001a2 2 0 010 4zM57.051 8.254a2.001 2.001 0 00-2.725.685L50 16.131l-4.326-7.192c-.562-.933-1.781-1.239-2.725-.685s-1.254 1.761-.692 2.693L48 20.496V26a2 2 0 004.001 0v-5.506l5.742-9.547a1.952 1.952 0 00-.692-2.693z" fill-rule="evenodd" clip-rule="evenodd" fill="#fff"/><path d="M63.414 50.585L53.202 40.374l7.431-2.478a1.998 1.998 0 00.213-3.709l-30-14.001a1.999 1.999 0 10-2.658 2.658l14 30.001A2 2 0 0043.999 54c.039 0 .077-.003.116-.005a1.998 1.998 0 001.782-1.363l2.478-7.43 10.211 10.211c.391.391.902.586 1.414.586s1.023-.195 1.414-.586l2-2a2 2 0 000-2.828z" fill-rule="evenodd" clip-rule="evenodd" fill="#666"/></svg>