<svg xmlns="http://www.w3.org/2000/svg" width="56" height="64"><path d="M0 22v38a4 4 0 004 4h48a4 4 0 004-4V22H0z" fill="#e6e6e6"/><path d="M52 0H4a4 4 0 00-4 4v18h56V4a4 4 0 00-4-4z" fill="#ccc"/><path d="M48 6H8a2 2 0 00-2 2v8a2 2 0 002 2h40a2 2 0 002-2V8a2 2 0 00-2-2z" fill="#999"/><path d="M12 26H8a2 2 0 00-2 2v4a2 2 0 002 2h4a2 2 0 002-2v-4a2 2 0 00-2-2zm0 12H8a2 2 0 00-2 1.999V44a2 2 0 002 2.001h4A2 2 0 0014 44v-4.001A2 2 0 0012 38zm0 12H8a2 2 0 00-2 2v4a2 2 0 002 2.001h4A2 2 0 0014 56v-4a2 2 0 00-2-2zm12-24h-4a2 2 0 00-2 2v4a2 2 0 002 2h4a2 2 0 002-2v-4a2 2 0 00-2-2zm0 12h-4a2 2 0 00-2 1.999V44c0 1.104.896 2.001 2 2.001h4A2 2 0 0026 44v-4.001A2 2 0 0024 38zm0 12h-4a2 2 0 00-2 2v4c0 1.104.896 2.001 2 2.001h4A2 2 0 0026 56v-4a2 2 0 00-2-2zm12-24h-4a2 2 0 00-2 2v4a2 2 0 002 2h4a2 2 0 002-2v-4a2 2 0 00-2-2zm0 12h-4a2 2 0 00-2 1.999V44c0 1.104.896 2.001 2 2.001h4A2 2 0 0038 44v-4.001A2 2 0 0036 38zm0 12h-4a2 2 0 00-2 2v4c0 1.104.896 2.001 2 2.001h4A2 2 0 0038 56v-4a2 2 0 00-2-2zm12-24h-4a2 2 0 00-2 2v4a2 2 0 002 2h4a2 2 0 002-2v-4a2 2 0 00-2-2z" fill-rule="evenodd" clip-rule="evenodd" fill="#999"/><path d="M48 38h-4a2 2 0 00-2 1.999V56a2 2 0 002 2.001h4A2 2 0 0050 56V39.999A2 2 0 0048 38z" fill="#f83"/></svg>