<svg xmlns="http://www.w3.org/2000/svg" width="64" height="64"><path d="M60 0H4a4 4 0 00-4 4v56a4 4 0 004 4h56a4 4 0 004-4V4a4 4 0 00-4-4z" fill="#ccc"/><path d="M28 6H8a2 2 0 00-2 2v20a2 2 0 002 2h20a2 2 0 002-2V8a2 2 0 00-2-2zm28 0H36a2 2 0 00-2 2v20a2 2 0 002 2h20a2 2 0 002-2V8a2 2 0 00-2-2zM28 34H8a2 2 0 00-2 2v20a2 2 0 002 2h20a2 2 0 002-2V36a2 2 0 00-2-2z" fill-rule="evenodd" clip-rule="evenodd" fill="#fff"/><path d="M14 20h2v2a2 2 0 004 0v-2h2a2 2 0 000-4h-2v-2a2 2 0 00-4 0v2h-2a2 2 0 000 4zm9.408 20.592a2.077 2.077 0 00-2.939 0L18 43.062l-2.47-2.47a2.077 2.077 0 10-2.938 2.938l2.47 2.47-2.47 2.47a2.078 2.078 0 002.938 2.938l2.47-2.47 2.469 2.47a2.078 2.078 0 002.939-2.938L20.938 46l2.47-2.47a2.078 2.078 0 000-2.938zM50 16h-8a2 2 0 000 4h8a2 2 0 000-4z" fill-rule="evenodd" clip-rule="evenodd" fill="#999"/><path d="M56 34H36a2 2 0 00-2 2v20a2 2 0 002 2h20a2 2 0 002-2V36a2 2 0 00-2-2z" fill="#f83"/><path d="M42 44h8a2 2 0 000-4h-8a2 2 0 000 4zm8 4h-8a2 2 0 000 4h8a2 2 0 000-4z" fill-rule="evenodd" clip-rule="evenodd" fill="#fff"/></svg>