<svg xmlns="http://www.w3.org/2000/svg" width="64" height="44.001"><path d="M60 0H4a4 4 0 00-4 4v36.001a4 4 0 004 4h56a4 4 0 004-4V4a4 4 0 00-4-4z" fill="#e6e6e6"/><path d="M10.805 29.12c-1.515 1.104-.956 3.012 2.362 3.925a22.634 22.634 0 0010.577.837c.221-.038.037.152.256.118v-4l-2.726 1.276c-1.251.447-3.095.538-4.111.209-1.015-.329-.827-.947.428-1.389L24 28v-4.001l-9.416 3.337s-2.379.768-3.779 1.784zM36 15.999v8c4.552 2.032 8-.625 8-5.998 0-5.508-1.978-7.488-8.175-9.453-2.437-.759-6.719-2.019-9.825-2.549V36l8 1.999v-24c0-1.178.048-1.879.953-1.608 1.201.306 1.047 2.435 1.047 3.608zm13.049 11.687c-2.694-1.042-5.51-1.399-8.53-1.085C37.502 26.917 36 28 36 28v4l5.781-2.629c1.17-.433 2.901-.53 3.855-.208.953.322.771.934-.402 1.357L36 34v3.999l12.992-5.176s1.891-.711 2.667-1.705c.771-1 .427-2.445-2.61-3.432z" fill="#666"/></svg>