<svg xmlns="http://www.w3.org/2000/svg" width="64" height="44"><path d="M60 0H4a4 4 0 00-4 4v36.001A4 4 0 004 44h56a4 4 0 004-3.999V4a4 4 0 00-4-4z" fill="#e6e6e6"/><path d="M26 44h34a4 4 0 004-3.999v-8L26 44z" fill="#fc6"/><path d="M10 8.001l-6.008-.002v20.032l6.008-.03c2.941 0 4.606-.688 6.473-2.281C18.688 23.827 20 20.949 20 18.001c0-5.915-3.854-10-10-10zm3.999 15.044c-1.198 1.114-3.999.956-3.999.956H8v-12h2s2.741-.158 3.999 1.012C15.311 14.214 16 16.079 16 18.001c0 1.925-.689 3.847-2.001 5.044zm7.98 4.986h3.993V7.999h-3.993v20.032zm14.185-12.347c-2.366-.833-3.063-1.384-3.063-2.417 0-1.211 1.24-2.131 2.939-2.131 1.182 0 2.151.46 3.185 1.551l2.057-2.559c-1.696-1.415-3.726-2.135-5.939-2.135-3.571 0-6.3 2.363-6.3 5.501 0 2.652 1.271 4.005 4.969 5.276 1.546.516 2.332.86 2.727 1.096.787.489 1.183 1.178 1.183 1.984 0 1.558-1.304 2.708-3.063 2.708-1.878 0-3.392-.892-4.301-2.563l-2.542 2.337c1.814 2.531 3.996 3.658 6.998 3.658 4.09 0 6.967-2.596 6.967-6.312-.002-3.052-1.332-4.437-5.817-5.994zM54 12.001c3.938 0 6 2 6 2v-4s-1.938-2-6-2-10 3.188-10 10 6.087 10 10 10c3.93 0 6-2 6-2v-4s-2.038 2-6 2c-2.014 0-6-2.122-6-6 0-3.674 3.875-6 6-6z" fill-rule="evenodd" clip-rule="evenodd" fill="#999"/></svg>