<svg xmlns="http://www.w3.org/2000/svg" width="64" height="44.001"><path d="M60 0H4a4 4 0 00-4 4v36.001a4 4 0 004 4h56a4 4 0 004-4V4a4 4 0 00-4-4z" fill="#e6e6e6"/><path d="M20.803 13.853a3.231 3.231 0 00-4.403 1.284 3.227 3.227 0 001.297 4.387c.074.041 7.513 4.123 7.466 11.341-.012 1.803 1.432 3.131 3.224 3.131h.022c1.782 0 3.233-1.303 3.245-3.097.073-11.078-10.405-16.802-10.851-17.046z" fill="#48a0dc"/><path d="M31.592 11.744a3.238 3.238 0 00-4.344-1.489 3.269 3.269 0 00-1.484 4.364c.042.085 4.063 8.715-.012 14.545a3.27 3.27 0 00.79 4.543 3.238 3.238 0 004.522-.794c6.325-9.047.767-20.677.528-21.169z" fill="#ed7161"/><path d="M30.479 10.129a3.338 3.338 0 00-4.557 1.344c-.892 1.643-.296 3.704 1.33 4.606.099.055 9.892 5.629 9.247 18.087-.098 1.87 1.325 3.467 3.177 3.564.06.004.118.005.178.005 1.773 0 3.256-1.404 3.349-3.215.862-16.666-12.169-24.084-12.724-24.391z" fill="#fc6"/><path d="M42.951 7.801a3.39 3.39 0 00-4.586-1.452 3.423 3.423 0 00-1.445 4.608c.053.102 5.222 10.333-.203 22.188a3.423 3.423 0 001.67 4.531c.46.212.942.313 1.418.313a3.402 3.402 0 003.092-1.991c6.799-14.861.332-27.659.054-28.197z" fill="#88c057"/></svg>