<svg xmlns="http://www.w3.org/2000/svg" width="64" height="44.001"><path d="M60 0H4a4 4 0 00-4 4v36.001a4 4 0 004 4h56a4 4 0 004-4V4a4 4 0 00-4-4z" fill="#e6e6e6"/><ellipse cx="21.992" cy="22.001" rx="13.992" ry="14" fill="#666"/><circle cx="41.998" cy="22.001" r="14" fill="#48a0dc"/><path d="M32 12.001a13.295 13.295 0 00-1.603 2h3.205a13.227 13.227 0 00-1.602-2zm2.689 4H29.31a14.676 14.676 0 00-.74 2h6.859a14.676 14.676 0 00-.74-2zm-4.292 14h3.205a14.53 14.53 0 001.087-2H29.31a14.53 14.53 0 001.087 2zm5.447-10h-7.688a14.294 14.294 0 00-.156 2h8c0-.675-.063-1.341-.156-2zm-7.274 6h6.859c.186-.651.319-1.321.414-2h-7.688c.096.679.23 1.349.415 2z" fill-rule="evenodd" clip-rule="evenodd" fill="#666"/></svg>