<svg xmlns="http://www.w3.org/2000/svg" width="64" height="44.001"><path d="M0 32.001v8a4 4 0 004 4h56a4 4 0 004-4v-8H0z" fill="#48a0dc"/><path d="M60 0H4a4 4 0 00-4 4v28.001h64V4a4 4 0 00-4-4z" fill="#e6e6e6"/><path d="M27.619 7.981L25.211 23.97h3.85L31.47 7.981h-3.851zm11.615 6.513c-1.346-.71-2.171-1.188-2.171-1.912.017-.659.697-1.335 2.219-1.335a6.344 6.344 0 012.868.593l.35.165.522-3.345a9.19 9.19 0 00-3.455-.659c-3.803 0-6.481 2.109-6.497 5.125-.031 2.225 1.918 3.46 3.375 4.201 1.49.758 1.997 1.253 1.997 1.928-.016 1.039-1.204 1.518-2.313 1.518-1.537 0-2.361-.248-3.613-.824l-.507-.249-.539 3.478c.903.429 2.567.807 4.295.823 4.041 0 6.671-2.075 6.703-5.289.014-1.764-1.015-3.115-3.234-4.218zm13.661-6.463h-2.979c-.92 0-1.617.279-2.014 1.284l-5.72 14.655h4.04l1.113-3.174h4.522l.577 3.187H56L52.895 8.031zm-4.438 9.565c.078.009 1.552-5.179 1.552-5.179l1.173 5.179h-2.725zM21.994 7.981l-3.772 10.863-.411-2.143c-.697-2.473-2.885-5.159-5.325-6.494l3.455 13.746h4.072L26.067 7.98h-4.073z" fill-rule="evenodd" clip-rule="evenodd" fill="#48a0dc"/><path d="M15.718 9.222c-.214-.941-.871-1.208-1.681-1.24H8.061l-.062.298c4.662 1.224 7.749 4.174 9.019 7.721l-1.3-6.779z" fill="#fc6"/></svg>