<svg xmlns="http://www.w3.org/2000/svg" width="64" height="44"><path d="M60 0H4a4 4 0 00-4 4v36a4 4 0 004 4h56a4 4 0 004-4V4a4 4 0 00-4-4z" fill="#9b7cab"/><path d="M27.003 17.704c-.096.241-.79 2.188-2.467 4.207V13.28l-4.469.878v15.645h4.469v-4.836c1.294 1.931 1.933 4.836 1.933 4.836h5.353c-.529-2.188-2.845-6.224-2.845-6.224 2.079-2.62 2.991-5.412 3.137-5.875h-5.111zm-14.43 1.723c-.547-.035-1.814-.116-1.814-1.251 0-1.369 1.824-1.369 2.509-1.369 1.203 0 2.761.354 3.874.686 0 0 .621.217 1.149.439l.05.014v-3.749l-.068-.02c-1.313-.457-2.84-.896-5.671-.896-4.882 0-6.611 2.828-6.611 5.25 0 1.396.602 4.683 6.192 5.062.474.029 1.731.102 1.731 1.273 0 .968-1.029 1.539-2.761 1.539-1.898 0-3.739-.482-4.857-.938v3.86c1.674.437 3.561.655 5.773.655 4.773 0 6.911-2.676 6.911-5.327-.001-3.007-2.393-4.961-6.407-5.228zm26.178-1.886c-4.002.128-6.034 1.914-6.034 5.463v6.799h4.366v-5.545c0-2.125.28-3.036 2.816-3.122v-3.532c-.426-.09-1.148-.063-1.148-.063zm8.607 12.262h4.328V13.28l-4.328.771v15.752zm-6.166 0h4.332V17.718h-4.332v12.085zm12.487-15.752v15.752h4.332V13.28l-4.332.771zM43.356 16.13c1.18 0 2.135-.92 2.135-2.056 0-1.135-.956-2.056-2.135-2.056-1.178 0-2.133.921-2.133 2.056 0 1.136.956 2.056 2.133 2.056z" fill-rule="evenodd" clip-rule="evenodd" fill="#fff"/></svg>