<svg xmlns="http://www.w3.org/2000/svg" width="64" height="44"><path d="M60 0H4a4 4 0 00-4 4v36a4 4 0 004 4h56a4 4 0 004-4V4a4 4 0 00-4-4z" fill="#e6e6e6"/><ellipse cx="21.992" cy="22" rx="13.992" ry="14" fill="#ed7161"/><circle cx="41.998" cy="22" r="14" fill="#fc6"/><path d="M35.844 20h-7.688A14.294 14.294 0 0028 22h8c0-.675-.063-1.341-.156-2zm-1.155-4H29.31a14.676 14.676 0 00-.74 2h6.859a14.676 14.676 0 00-.74-2zM32 12a13.295 13.295 0 00-1.603 2h3.205A13.227 13.227 0 0032 12zm-1.603 18h3.205a14.53 14.53 0 001.087-2H29.31c.315.698.672 1.371 1.087 2zm-1.827-4h6.859c.186-.651.319-1.321.414-2h-7.688c.096.679.23 1.349.415 2z" fill-rule="evenodd" clip-rule="evenodd" fill="#ed7161"/></svg>