<svg xmlns="http://www.w3.org/2000/svg" width="64" height="44"><path d="M60 0H4a4 4 0 00-4 4v35.999A4 4 0 004 44h56a4 4 0 004-4.001V4a4 4 0 00-4-4z" fill="#666"/><path d="M44.096 32.349c-13.598 6.272-22.039 1.023-27.441-2.165-.335-.201-.902.048-.411.596 1.801 2.117 7.699 7.217 15.4 7.217 7.702 0 12.288-4.077 12.86-4.787.572-.705.168-1.096-.408-.861zm3.82-2.046c-.366-.46-2.221-.547-3.388-.407-1.169.135-2.926.829-2.773 1.243.077.156.238.086 1.041.014.805-.076 3.061-.35 3.532.244.473.601-.721 3.46-.938 3.921-.211.461.08.579.476.273.39-.306 1.096-1.103 1.57-2.228.472-1.131.757-2.709.48-3.06z" fill-rule="evenodd" clip-rule="evenodd" fill="#fc6"/><path d="M40.655 22.389V11.881c0-1.805-1.801-5.882-8.276-5.882-6.471 0-9.911 3.922-9.911 7.451l5.407.471s1.206-3.531 4.002-3.531 2.605 2.196 2.605 2.67v2.284c-3.582.116-12.477 1.108-12.477 8.379 0 7.821 10.181 8.148 13.521 3.096.129.204.274.405.458.593 1.229 1.252 2.869 2.742 2.869 2.742l4.175-3.999c.001-.001-2.373-1.805-2.373-3.766zm-6.173-.861c0 5.727-6.199 4.859-6.199 1.229 0-3.358 3.709-4.038 6.199-4.119v2.89z" fill="#fff"/></svg>