<svg xmlns="http://www.w3.org/2000/svg" width="64" height="44"><path d="M60 0H4a4 4 0 00-4 4v36a4 4 0 004 4h56a4 4 0 004-4V4a4 4 0 00-4-4z" fill="#48a0dc"/><path d="M27.619 13.98l-2.408 15.99h3.851l2.408-15.99h-3.851zm11.615 6.513c-1.346-.71-2.171-1.188-2.171-1.912.017-.659.698-1.335 2.219-1.335a6.344 6.344 0 012.868.593l.35.165.522-3.345A9.182 9.182 0 0039.567 14c-3.803 0-6.48 2.109-6.497 5.125-.031 2.225 1.918 3.46 3.375 4.201 1.49.758 1.997 1.253 1.997 1.928-.016 1.039-1.204 1.518-2.313 1.518-1.537 0-2.361-.248-3.613-.824l-.507-.248-.539 3.478c.903.429 2.567.807 4.295.823 4.041 0 6.671-2.076 6.703-5.289.015-1.765-1.015-3.116-3.234-4.219zm13.661-6.463h-2.979c-.92 0-1.617.279-2.014 1.285l-5.72 14.654h4.04l1.113-3.174h4.522l.577 3.187h3.565L52.895 14.03zm-4.438 9.565c.078.009 1.552-5.179 1.552-5.179l1.173 5.179h-2.725zM21.994 13.98l-3.772 10.863-.411-2.143c-.697-2.473-2.885-5.159-5.325-6.494l3.455 13.746h4.072l6.054-15.973h-4.073z" fill-rule="evenodd" clip-rule="evenodd" fill="#fff"/><path d="M15.718 15.221c-.214-.941-.871-1.208-1.682-1.24H8.061l-.062.299c4.662 1.224 7.75 4.174 9.019 7.721l-1.3-6.78z" fill="#fc6"/></svg>