<svg xmlns="http://www.w3.org/2000/svg" width="64" height="44"><path d="M60 0H4a4 4 0 00-4 4v35.999A4 4 0 004 44h56a4 4 0 004-4.001V4a4 4 0 00-4-4z" fill="#48a0dc"/><path d="M47.244 14.793c-.494-.957-1.237-1.734-2.184-2.32-.103-.063-.214-.115-.32-.174.498.941.741 2.109.734 3.504.007 3.232-1.349 5.846-4.061 7.817-2.716 1.977-6.492 2.964-11.364 2.968H28.91c-.862 0-1.714.678-1.897 1.498l-1.373 5.418c-.193.844-1.047 1.509-1.908 1.509h-2.318l-.343 1.479c-.193.825.347 1.508 1.207 1.508h3.983c.861 0 1.715-.665 1.908-1.508l1.372-5.859c.184-.819 1.035-1.498 1.898-1.498h1.139c4.87-.005 8.649-.991 11.364-2.967 2.71-1.972 4.067-4.585 4.061-7.817.008-1.421-.241-2.61-.759-3.558zM23.145 31.652l1.372-5.858c.184-.819 1.035-1.498 1.898-1.498h1.139c4.871-.004 8.649-.991 11.364-2.968 2.711-1.972 4.067-4.585 4.061-7.817.007-1.419-.241-2.607-.76-3.557-.495-.956-1.237-1.733-2.184-2.319-.982-.601-2.125-1.015-3.458-1.264-1.339-.238-2.905-.355-4.7-.372l-8.314.007c-.864.01-1.711.681-1.91 1.504l-5.606 24.143c-.193.825.347 1.509 1.207 1.509h3.983c.861-.001 1.714-.666 1.908-1.51zm3.257-14.01l1.199-5.118c.183-.824 1.041-1.508 1.901-1.5l1.304-.008c1.522 0 2.68.258 3.46.771.771.499 1.161 1.288 1.147 2.349.023 1.598-.588 2.834-1.795 3.706-1.201.87-2.865 1.307-5.026 1.307h-.977c-.859-.001-1.402-.677-1.213-1.507z" fill-rule="evenodd" clip-rule="evenodd" fill="#fff"/></svg>