<svg xmlns="http://www.w3.org/2000/svg" width="64" height="44"><path d="M60 0H4a4 4 0 00-4 4v36a4 4 0 004 4h56a4 4 0 004-4V4a4 4 0 00-4-4z" fill="#666"/><path d="M40.466 22.699c-.354-2.908 1.009-4.651 2.827-5.863-1.119-1.53-3.076-2.758-5.743-2.549-1.515.119-2.986 1.178-4.329 1.189-1.387.012-2.575-.959-3.799-1.104-4.357-.518-7.134 3.278-7.422 7.052v1.36c.596 4.816 2.822 9.602 6.715 11.216h.707c1.667-.354 2.534-1.105 4.152-1.105 1.863 0 3.229 1.437 5.301.936 1.406-.34 2.3-1.734 3.093-2.805.899-1.215 1.576-2.396 2.032-3.823-1.511-.999-3.263-2.266-3.534-4.504zM38.434 8h-.266c-2.973.711-5.235 2.552-5.124 5.947 3.457-.046 5.334-2.347 5.39-5.947z" fill="#fff"/></svg>