<svg xmlns="http://www.w3.org/2000/svg" width="64" height="64"><path d="M60 0H4a4 4 0 00-4 4v32a4.001 4.001 0 004 4.001h56c2.209 0 4-1.792 4-4.001V4a4 4 0 00-4-4z" fill="#b3b3b3"/><path d="M58 4H6a2 2 0 00-2 2.001v28A2 2 0 006 36h52a2 2 0 002-1.999v-28A2 2 0 0058 4z" fill="#ccc"/><path d="M52 16H12a4 4 0 000 8.001h40A4 4 0 0052 16z" fill="#666"/><path d="M12 20v40a4 4 0 004 4h32a4 4 0 004-4V20H12z" fill="#e6e6e6"/><path fill="#666" d="M38 20h8v44h-8z"/><circle cx="24" cy="44.001" r="6" fill="#ed7161"/><circle cx="24" cy="52" r="6" fill="#fc6"/><path d="M18 24.001a2 2 0 004 0V20h-4v4.001zM26 20v8a2 2 0 004 0v-8h-4z" fill="#b3b3b3"/></svg>