<svg xmlns="http://www.w3.org/2000/svg" width="64" height="44"><path d="M60 0H4a4 4 0 00-4 4v36a4 4 0 004 4h56a4 4 0 004-4V4a4 4 0 00-4-4z" fill="#48a0dc"/><path d="M11.879 21.69h3.394l-1.697-4.006-1.697 4.006zm26.763-3.627v1.834h5.422v2.04h-5.422v2.004h6.085l2.829-2.948-2.711-2.93h-6.203zM60 13.999h-8.758l-2.048 2.136-1.912-2.136H28.44l-1.619 3.61-1.658-3.61h-7.549v1.645l-.839-1.645h-6.456l-6.32 13.985h7.568l.937-2.23h2.146l.936 2.23h8.329v-1.701l.741 1.701h4.311l.742-1.739v1.739H47.03l2.106-2.174 1.97 2.174 8.894.02-6.339-6.975L60 13.999zm-26.06 12.02h-2.438l-.019-7.861-3.57 7.861h-2.185l-3.589-7.861v7.861h-5.032l-.956-2.249h-5.149l-.956 2.249H7.354l4.428-10.034h3.687l4.194 9.486v-9.486H23.7l3.238 6.803 2.984-6.803h4.018v10.034zm21.417 0h-3.179l-3.043-3.326-3.16 3.326h-9.792V15.984h9.948l3.043 3.287 3.14-3.287h3.043l-4.623 5.045 4.623 4.99z" fill="#fff"/></svg>