<svg xmlns="http://www.w3.org/2000/svg" width="64" height="60"><path d="M16 48a6 6 0 100 12 6 6 0 000-12zm0 8a2 2 0 110-4 2 2 0 010 4zm26-8a6 6 0 100 12 6 6 0 000-12zm0 8a2 2 0 110-4 2 2 0 010 4z" fill-rule="evenodd" clip-rule="evenodd" fill="#666"/><path d="M54 13.999V10H2a2 2 0 00-2 2c0 .206.04.401.098.588L4 36a2 2 0 002 2h44v-4h-4.867l.35-4H52v-4h-6.167l.35-4.001H54V18h-7.468l.35-4.001H54zM18 18h-4.43l-.35-4.001H18V18zm4-4.001h4V18h-4v-4.001zM9.555 18H5l-.667-4.001h4.872L9.555 18zM7 30h3.605l.35 4H7.666L7 30zm-.667-4l-.667-4.001h4.238l.35 4.001H6.333zm7.587-4.001H18V26h-3.73l-.35-4.001zm8.08 0h4V26h-4v-4.001zm8 0h4V26h-4v-4.001zM30 18v-4.001h4V18h-4zM14.948 34c.001-.072.009-.143.003-.217L14.62 30H18v4h-3.052zM22 34v-4h4v4h-4zm8 0v-4h4v4h-4zm11.117 0H38v-4h3.468l-.351 4zm.7-8H38v-4.001h4.167L41.817 26zm.7-8H38v-4.001h4.868L42.517 18z" fill-rule="evenodd" clip-rule="evenodd" fill="#48a0dc"/><path d="M62 0h-8l-7.334 44H8a2 2 0 000 4h42l7.334-44H62a2 2 0 000-4z" fill-rule="evenodd" clip-rule="evenodd" fill="#ccc"/></svg>