<svg xmlns="http://www.w3.org/2000/svg" width="64" height="60.009"><path d="M16 48.009a6 6 0 100 12 6 6 0 000-12zm0 8a2 2 0 110-4 2 2 0 010 4zm26-8a6 6 0 100 12 6 6 0 000-12zm0 8a2 2 0 11.001-4.001A2 2 0 0142 56.009z" fill-rule="evenodd" clip-rule="evenodd" fill="#666"/><path d="M34 4.009H10a2 2 0 00-2 1.999v26.001a2 2 0 002 2h24a2 2 0 002-2V6.008a2 2 0 00-2-1.999z" fill="#9b7cab"/><path d="M45.747 23.212L32.661.987c-.556-.944-1.787-1.268-2.75-.723L8.989 12.108a1.954 1.954 0 00-.737 2.697l13.086 22.224a2.036 2.036 0 002.75.723l20.923-11.844a1.952 1.952 0 00.736-2.696z" fill="#fc6"/><path d="M42 .009h-4a2 2 0 00-2 2v30a2 2 0 002 2h4a2 2 0 002-2v-30a2 2 0 00-2-2z" fill="#ed7161"/><path d="M54 14.008v-3.999H2a2 2 0 00-2 2c0 .206.04.4.098.587L4 36.009a2 2 0 002 2h44v-4h-4.868l.35-4H52v-4h-6.167l.35-4.001H54v-3.999h-7.468l.35-4.001H54zm-36 4.001h-4.43l-.35-4.001H18v4.001zm4-4.001h4v4.001h-4v-4.001zM9.555 18.009H5l-.667-4.001h4.872l.35 4.001zM7 30.009h3.604l.35 4H7.667l-.667-4zm-.667-4l-.667-4.001h4.238l.35 4.001H6.333zm7.587-4.001H18v4.001h-3.73l-.35-4.001zm8.08 0h4v4.001h-4v-4.001zm8 0h4v4.001h-4v-4.001zm0-3.999v-4.001h4v4.001h-4zm-15.052 16c.001-.072.009-.143.003-.217l-.331-3.783H18v4h-3.052zm7.052 0v-4h4v4h-4zm8 0v-4h4v4h-4zm11.117 0H38v-4h3.467l-.35 4zm.699-8H38v-4.001h4.167l-.351 4.001zm.701-8H38v-4.001h4.867l-.35 4.001z" fill-rule="evenodd" clip-rule="evenodd" fill="#48a0dc"/><path d="M62 .009h-8l-7.333 44H8a2 2 0 000 4h42l7.333-44H62a2 2 0 000-4z" fill-rule="evenodd" clip-rule="evenodd" fill="#ccc"/></svg>