<svg xmlns="http://www.w3.org/2000/svg" width="68" height="66"><path d="M20 54a6 6 0 100 12 6 6 0 000-12zm0 8a2 2 0 110-4 2 2 0 010 4zm26-8a6 6 0 100 12 6 6 0 000-12zm0 8a2 2 0 11.001-4.001A2 2 0 0146 62z" fill-rule="evenodd" clip-rule="evenodd" fill="#666"/><path d="M58 19.999V16H32c0 2.809-.729 5.445-2 7.74V24h-.158a16.03 16.03 0 01-3.283 3.999H30V32h-4v-3.521a15.945 15.945 0 01-4 2.347V32h-3.73l-.016-.178c-.738.104-1.487.177-2.254.177-.594 0-1.178-.038-1.754-.101l.008.102h-3.921l-.187-1.121a15.97 15.97 0 01-4.439-2.639L8 42a2 2 0 002 2h44v-4h-4.868l.35-4H56v-4h-6.167l.35-4.001H58V24h-7.468l.35-4.001H58zM11.667 40L11 36h3.604l.35 4h-3.287zM22 40h-3.053c.001-.072.009-.143.003-.217L18.619 36H22v4zm8 0h-4v-4h4v4zm8 0h-4v-4h4v4zm0-8h-4v-4.001h4V32zm0-8h-4v-4.001h4V24zm7.117 16H42v-4h3.467l-.35 4zm.699-8H42v-4.001h4.167L45.816 32zm.701-8H42v-4.001h4.867L46.517 24z" fill-rule="evenodd" clip-rule="evenodd" fill="#48a0dc"/><path d="M66 6h-8l-7.333 44H12a2 2 0 000 4h42l7.333-44H66a2 2 0 000-4z" fill-rule="evenodd" clip-rule="evenodd" fill="#ccc"/><circle cx="16" cy="16" r="12" fill="#88c057"/><path d="M20 14.001h-2v-2a2 2 0 10-4 0v2h-2a2 2 0 100 3.998h2V20a2 2 0 104 0v-2.001h2a2 2 0 100-3.998z" fill="#fff"/></svg>