<svg xmlns="http://www.w3.org/2000/svg" width="64" height="64"><path d="M50 14.001V4a4 4 0 00-4-4H10a4 4 0 00-4 4v10.001c0 8-6 12-6 36 0-.022 56-.022 56 0 0-24-6-28-6-36z" fill="#e6e6e6"/><path d="M0 50.001V60a4 4 0 004 4h48a4 4 0 004-4v-9.999H0z" fill="#ccc"/><path d="M52 8h-2v4h2a2 2 0 012 2.001v10h4v-10A6.001 6.001 0 0052 8z" fill-rule="evenodd" clip-rule="evenodd" fill="#ccc"/><path d="M62 22.001h-6a2 2 0 000 4h6a2 2 0 000-4z" fill="#ed7161"/><path d="M16 20a2 2 0 100 4 2 2 0 000-4zm8 0a2 2 0 100 4 2 2 0 000-4zm8 0a2 2 0 100 4 2 2 0 000-4zm8 4.001A2 2 0 1039.999 20 2 2 0 0040 24zM16 28a2 2 0 100 4 2 2 0 000-4zm8 0a2 2 0 100 4 2 2 0 000-4zm8 0a2 2 0 100 4 2 2 0 000-4zm8 0a2 2 0 10.002 4.002A2 2 0 0040 28zm-24 8a2 2 0 100 4 2 2 0 000-4zm8 0a2 2 0 100 4 2 2 0 000-4zm8 0a2 2 0 100 4 2 2 0 000-4zm8 0a2 2 0 10.002 4.002A2 2 0 0040 36z" fill-rule="evenodd" clip-rule="evenodd" fill="#ed7161"/><path d="M40 4H16a2 2 0 00-2 2.001v4A2 2 0 0016 12h24a2 2 0 002-1.999v-4A2 2 0 0040 4z" fill="#666"/></svg>