<svg xmlns="http://www.w3.org/2000/svg" width="64" height="64"><path d="M0 48v12a4 4 0 004 4h56a4 4 0 004-4V48H0zm56-32a4 4 0 00-4-4h-6V8h2a2 2 0 002-1.999v-4A2 2 0 0048 0H36a2 2 0 00-2 2.001v4A2 2 0 0036 8h2v4H12a4 4 0 00-4 4v12h48V16z" fill-rule="evenodd" clip-rule="evenodd" fill="#ccc"/><path d="M58 52H6a2 2 0 00-2 2.001v4A2 2 0 006 60h52a2 2 0 002-1.999v-4A2 2 0 0058 52zm-2-24H8L0 48.001h64z" fill="#e6e6e6"/><path fill="#ccc" d="M52 32.001H32V44h24z"/><path d="M50 16H34a2 2 0 00-2 2.001v4a2 2 0 002 2h16a2 2 0 002-2v-4A2 2 0 0050 16z" fill="#48a0dc"/><path d="M26 18.001H14a2 2 0 100 4h12a2 2 0 000-4z" fill="#666"/><path d="M14 20v20.001a2 2 0 002 2h8a2 2 0 002-2V20H14z" fill="#fff"/></svg>