<svg xmlns="http://www.w3.org/2000/svg" width="42.018" height="64"><path d="M35.249 43.142C32.65 45.8 29.401 47.403 26 47.854v-31.71c3.401.441 6.65 2.012 9.249 4.657a3.914 3.914 0 005.607 0 4.088 4.088 0 000-5.708C36.707 10.871 31.457 8.547 26 8.096V4.001a4.001 4.001 0 00-8 0v4.764C7.646 11.438 0 20.828 0 32.001s7.646 20.562 18 23.235v4.765a4 4 0 008 0v-4.096c5.457-.453 10.707-2.787 14.856-7.029 1.548-1.583 1.548-4.15 0-5.734a3.904 3.904 0 00-5.607 0zM8.012 32.001c0-6.704 4.132-12.436 9.988-14.816v29.633c-5.856-2.381-9.988-8.114-9.988-14.817z" fill-rule="evenodd" clip-rule="evenodd" fill="#48a0dc"/></svg>