<svg xmlns="http://www.w3.org/2000/svg" width="64.001" height="64.033"><path d="M60 28.033H4.001a4 4 0 00-4.001 4v28a4 4 0 004.001 4l42-.001 18-18v-14A4 4 0 0060 28.033z" fill="#ccc"/><path d="M58.001 32.034h-52a2 2 0 00-2 2v24a2 2 0 002 2h38l16-16v-10a2 2 0 00-2-2z" fill="#fff"/><path d="M50.001 46.032a4 4 0 00-4 4.001v13.999l18-18h-14z" fill="#999"/><path d="M34 52.033H14.001a2 2 0 000 3.999H34a2 2 0 100-3.999z" fill="#ccc"/><path fill="#999" d="M40.001 14.034l-14 1.999-12 32v.001l2 2 32-12 2-14.001z"/><path fill="#333" d="M38 12.033l4-4 14 14-4 4z"/><path d="M63.385 17.584L46.386.586a2.004 2.004 0 00-2.833 0l-2.998 4.999a2.004 2.004 0 000 2.833l14.998 14.998a2.004 2.004 0 002.833 0l4.999-2.998a2.005 2.005 0 000-2.834z" fill="#48a0dc"/><path d="M34.006 26.039a3.99 3.99 0 00-3.989 3.989c0 .583.132 1.134.357 1.633L14.001 48.034l2 2 16.373-16.373a3.956 3.956 0 001.632.356 3.99 3.99 0 100-7.978z" fill-rule="evenodd" clip-rule="evenodd" fill="#fff"/></svg>