<svg xmlns="http://www.w3.org/2000/svg" width="64" height="64"><circle cx="32" cy="32" r="32" fill="#e6e6e6"/><circle cx="32" cy="32" r="28" fill="#b3b3b3"/><circle cx="32" cy="32.001" r="20" fill="#e6e6e6"/><path d="M38 34v-2a2 2 0 00-4 0v2h-4.559l6.29-10.97A2.021 2.021 0 0035 20.279a1.992 1.992 0 00-2.732.737l-8 13.953a2.016 2.016 0 00-.216.591l-.014.061a1.924 1.924 0 00-.028.283c-.002.033-.01.063-.01.096 0 .02.005.037.006.056.002.06.01.118.018.177.01.084.021.167.041.249.006.019.013.037.018.056a1.991 1.991 0 001.664 1.438l.018.001c.077.008.154.023.235.023h8v4a2 2 0 104 0v-4a2 2 0 000-4z" fill-rule="evenodd" clip-rule="evenodd" fill="#b3b3b3"/></svg>