<svg xmlns="http://www.w3.org/2000/svg" width="64" height="64"><circle cx="32" cy="32" r="32" fill="#fc6"/><circle cx="32" cy="31.999" r="28" fill="#cca352"/><circle cx="32" cy="32" r="24" fill="#fc6"/><path d="M43 42c-2 0-2.713 2-6 2-3.288 0-4.94-2-8-2-.276 0-.534.026-.792.05C29.181 40.398 30 38.327 30 36c0-.643-.075-1.317-.176-2H33a2 2 0 000-4h-4.039c-.486-1.891-.961-3.665-.961-5 0-1.93 1.029-5 6-5 4.443 0 5.344 2.718 6 4 .415.811 1.125 2 2 2 1.353 0 2-.676 2-2 0-.641-.223-1.723-1-3.001-.957-1.57-2.807-4.999-9-4.999-7.18 0-10 3.964-10 9 0 1.966.347 3.548.749 5H21a2 2 0 100 4h4.797c.117.643.203 1.298.203 2 0 3.323-2.931 6.781-4.303 8.708-.41.329-.697.744-.697 1.292 0 1.698 1 2 2 2 1.43 0 2.973-2 6-2 2.083 0 4.387 2 8 2 2.832 0 5.202-1.505 6-2 .942-.587 2.032-1.153 2-2-.061-1.567-1-2-2-2z" fill-rule="evenodd" clip-rule="evenodd" fill="#cca352"/></svg>