<svg xmlns="http://www.w3.org/2000/svg" width="64" height="64"><circle cx="32" cy="32" r="32" fill="#fc6"/><circle cx="32" cy="31.999" r="28" fill="#cca352"/><circle cx="32" cy="32" r="24" fill="#fc6"/><path d="M42 38c-.875 0-1.585 1.188-2 2-.656 1.28-1.992 3.999-7.001 3.999-3.917 0-7.24-2.506-8.477-5.999h5.477a2 2 0 000-4h-6v-4h6a2 2 0 000-4h-5.477c1.237-3.493 4.56-6 8.477-6 5.009 0 6.345 2.718 7.001 4 .415.811 1.125 2 2 2 1.353 0 2-.676 2-2 0-.641-.223-1.723-1-3-.957-1.571-3.807-5-10.001-5-6.146 0-11.282 4.27-12.638 10h-2.362a2 2 0 000 4h2v4h-2a2 2 0 000 4h2.362c1.356 5.731 6.493 10 12.638 10 6.194 0 9.044-3.429 10.001-5 .777-1.277 1-2.359 1-3 0-1.325-.647-2-2-2z" fill-rule="evenodd" clip-rule="evenodd" fill="#cca352"/></svg>