<svg xmlns="http://www.w3.org/2000/svg" width="64" height="64"><circle cx="32" cy="32" r="32" fill="#fc6"/><circle cx="32" cy="31.999" r="28" fill="#cca352"/><circle cx="32" cy="32" r="24" fill="#fc6"/><path d="M40 24h-2.201a9.95 9.95 0 00-1.813-4H40a2 2 0 000-4H24a2 2 0 000 4h4a5.996 5.996 0 015.651 4H24a2 2 0 000 4h9.651A5.997 5.997 0 0128 32h-4c-.358 0-.69.102-.981.267-.009.005-.019.007-.027.012l-.016.011a1.989 1.989 0 00-.232.165c-.036.029-.073.057-.106.088-.049.045-.092.095-.136.145a1.73 1.73 0 00-.124.15c-.035.049-.065.102-.096.154-.031.054-.063.106-.088.162a1.9 1.9 0 00-.086.225c-.011.035-.022.068-.031.104A1.924 1.924 0 0022 34c0 .579.25 1.096.643 1.461l7.708 11.547c.539.922 1.733 1.237 2.667.705s1.254-1.711.715-2.633L27.672 36H28c4.838 0 8.872-3.436 9.799-8H40a2 2 0 000-4z" fill-rule="evenodd" clip-rule="evenodd" fill="#cca352"/></svg>