<svg xmlns="http://www.w3.org/2000/svg" width="64" height="64"><circle cx="32" cy="32" r="32" fill="#ccc"/><circle cx="32" cy="32" r="28" fill="#999"/><circle cx="32" cy="32.001" r="20" fill="#ccc"/><path d="M38 40h-7.11l5.91-5.6-.006-.007A7.977 7.977 0 0040 28a8 8 0 00-8-8 8 8 0 00-8 8 2 2 0 104 0 4 4 0 118 0c0 1.078-.738 2.408-1.847 3.231l.006.009-9.598 9.467a1.907 1.907 0 00-.555 1.286L24 42l.003.03a1.912 1.912 0 001.564 1.921c.14.031.284.05.434.05h12A2 2 0 0038 40z" fill-rule="evenodd" clip-rule="evenodd" fill="#999"/></svg>