<svg xmlns="http://www.w3.org/2000/svg" width="64" height="64"><circle cx="32" cy="32" r="32" fill="#fc6"/><circle cx="32" cy="31.999" r="28" fill="#cca352"/><circle cx="32" cy="32" r="24" fill="#fc6"/><path d="M44 37a6.988 6.988 0 00-3.307-5.938A6.955 6.955 0 0042 27a7 7 0 00-7-7h-1v-2a2 2 0 00-4 0v2h-2v-2a2 2 0 00-4 0v2h-2a2 2 0 000 4h2v16h-2a2 2 0 000 4h2v2a2 2 0 004 0v-2h2v2a2 2 0 004 0v-2h3a7 7 0 007-7zm-9-13a3 3 0 110 6h-7v-6h7zm2 16h-9v-6h7a6.99 6.99 0 002-.294V34a3 3 0 110 6z" fill-rule="evenodd" clip-rule="evenodd" fill="#cca352"/></svg>