<svg xmlns="http://www.w3.org/2000/svg" width="64" height="64"><circle cx="32" cy="32" r="32" fill="#f2b477"/><circle cx="32" cy="32" r="28" fill="#a67c52"/><circle cx="32" cy="32.001" r="20" fill="#f2b477"/><path d="M40 22c0-.011-.003-.021-.003-.032a1.909 1.909 0 00-1.568-1.919A2.022 2.022 0 0038 20H26a2 2 0 000 4h7.3l-4.724 4.724a1.92 1.92 0 000 2.715c.393.393.912.574 1.426.556L30 32h2a4 4 0 11-4 4 2 2 0 00-4 0 8 8 0 1010.372-7.642l4.646-4.645c.586-.349.982-.982.982-1.713z" fill-rule="evenodd" clip-rule="evenodd" fill="#a67c52"/></svg>