<svg xmlns="http://www.w3.org/2000/svg" width="64" height="64"><circle cx="32" cy="32" r="32" fill="#fc6"/><circle cx="32" cy="31.999" r="28" fill="#cca352"/><circle cx="32" cy="32" r="24" fill="#fc6"/><path d="M34 30.321v-7.168c3.756.606 4.372 2.847 6 2.847 1.156 0 2-.969 2-2 0-1.859-2.761-4.375-8-4.897V18a2 2 0 10-4 0v1.121c-4.563.569-8 3.154-8 7.879 0 4.825 3.84 6.011 8 6.696v7.127C26.547 40.187 25.757 38 24 38c-1.281 0-2 .98-2 2 0 1.565 2.639 4.325 8 4.89V46a2 2 0 004 0v-1.106c5.643-.575 8-3.647 8-7.894 0-4.484-3.081-5.812-8-6.679zM26 27c0-1.417.616-3.322 4-3.853v6.578c-2.311-.328-4-.756-4-2.725zm8 13.8v-6.452c2.818.59 4 1.393 4 2.652 0 1.817-1.416 3.295-4 3.8z" fill-rule="evenodd" clip-rule="evenodd" fill="#cca352"/></svg>