<svg xmlns="http://www.w3.org/2000/svg" width="63.981" height="51.97"><path d="M59.985 7.985c-6.383 0-19.981 8-19.981 8l-15.985 10-7.99 10 1.997 2 11.989-8 33.967-22h-3.997z" fill="#ccc"/><path d="M49.98 22.527v-8.339c3.757.809 4.371 3.796 6 3.796 1.156 0 2-.969 2-2 0-1.858-2.761-5.169-8-5.863V7.984a2 2 0 00-4 0v2.121c-4.563.569-8 3.153-8 7.879 0 4.814 3.889 6.404 8 7.496v8.269c-3.453-.849-4.243-3.765-6-3.765-1.281 0-2 .98-2 2 0 1.565 2.639 5.123 8 5.857v2.143a2 2 0 004 0v-2.105c5.644-.575 8-3.647 8-7.895 0-4.459-3.268-6.1-8-7.457zm-8-4.543c0-1.417.616-3.321 4-3.853v7.313c-2.294-.669-4-1.495-4-3.46zm8 15.8V26.54c3.418 1.079 4 2.142 4 3.445 0 1.817-1.416 3.295-4 3.799z" fill-rule="evenodd" clip-rule="evenodd" fill="#666"/><path d="M29.97 21.985l-12.004-8-2 2 8.001 10 16.006 10s13.616 8 20.007 8h4.002l-34.012-22z" fill="#ccc"/><path d="M17.63 17.655c3.525-3.53 2.954-9.826-1.276-14.063S5.836-1.216 2.312 2.314c-3.525 3.53-2.954 9.826 1.276 14.062 4.23 4.237 10.517 4.81 14.042 1.279zM5.112 5.126c1.923-1.923 5.657-1.305 8.343 1.381 2.685 2.686 3.304 6.422 1.381 8.344-1.922 1.923-5.657 1.304-8.342-1.382-2.685-2.686-3.303-6.421-1.382-8.343zM3.588 35.594c-4.23 4.236-4.802 10.531-1.276 14.062s9.812 2.959 14.042-1.278c4.23-4.236 4.802-10.532 1.276-14.062-3.525-3.532-9.812-2.959-14.042 1.278zm9.879 9.87c-2.694 2.685-6.441 3.303-8.37 1.381-1.929-1.923-1.309-5.658 1.386-8.344s6.441-3.304 8.371-1.382c1.927 1.923 1.306 5.658-1.387 8.345z" fill-rule="evenodd" clip-rule="evenodd" fill="#9b7cab"/><circle cx="30.012" cy="25.985" r="2" fill="#999"/></svg>