<svg xmlns="http://www.w3.org/2000/svg" width="64" height="52"><path d="M62 33.999L0 34v8a2 2 0 002 2h60a2 2 0 002-2v-6a2 2 0 00-2-2.001z" fill="#999"/><path d="M18 12h-8c-2.209 0-3.341.681-4 1.999L0 26v12h8c0-4 6-4 6-4h8V16a4 4 0 00-4-4z" fill="#48a0dc"/><path d="M16 16h-6c-1.104 0-1.512 1.023-2 2l-4 8h12a2 2 0 002-2v-6a2 2 0 00-2-2z" fill="#fff"/><path d="M2 32H0v5.999h2A2 2 0 004 36v-2a2 2 0 00-2-2z" fill="#fc6"/><path d="M36 35.999h-8a2 2 0 00-2 2v4a2 2 0 002 2h8a2 2 0 002-2v-4a2 2 0 00-2-2z" fill="#666"/><path d="M48 35.999A8 8 0 0040 44a8 8 0 1016 0 8 8 0 00-8-8.001zm-32 0A8 8 0 1016.001 52 8 8 0 0016 36z" fill-rule="evenodd" clip-rule="evenodd" fill="#666"/><path d="M16 40a4 4 0 100 7.999A4 4 0 0016 40zm32 0a4 4 0 100 7.999A4 4 0 0048 40z" fill-rule="evenodd" clip-rule="evenodd" fill="#e6e6e6"/><path d="M60 0H26a4 4 0 00-4 4v29.999h42V4a4 4 0 00-4-4z" fill="#ccc"/></svg>