<svg xmlns="http://www.w3.org/2000/svg" width="56" height="64.001"><path d="M52 0H4a4 4 0 00-4 4v51.999a4 4 0 004 4h34l18-18V4a4 4 0 00-4-4z" fill="#ccc"/><path d="M50 4H6a2 2 0 00-2 2v48a2 2 0 002 1.999h30L52 40V6a2 2 0 00-2-2z" fill="#fff"/><path d="M42 41.999c-2.209 0-4 1.792-4 4.001v13.999l18-18H42z" fill="#999"/><path d="M42 28H14a2 2 0 000 3.999h28A2 2 0 1042 28zm-28-4.001h16A2 2 0 1030 20H14a2 2 0 000 3.999zm0-8h28a2 2 0 100-4H14a2 2 0 000 4z" fill-rule="evenodd" clip-rule="evenodd" fill="#ccc"/><path fill="#ed7161" d="M16 50.001v14L20 60l4 4.001v-14z"/><circle cx="20" cy="44.001" r="8" fill="#ffd073"/></svg>