<svg xmlns="http://www.w3.org/2000/svg" width="40" height="64"><path d="M24 28.643V14.301C31.52 15.512 32.742 20 36 20c2.313 0 4-1.938 4-3.999 0-3.719-5.521-8.751-16-9.795V4a4 4 0 00-8 0v2.242C6.874 7.38 0 12.551 0 22c0 9.65 7.679 12.025 16 13.396v14.252c-6.906-1.273-8.486-5.646-12-5.646-2.563 0-4 1.96-4 4 0 3.13 5.277 8.649 16 9.78V60a4 4 0 008 0v-2.211c11.286-1.15 16-7.295 16-15.788 0-8.968-6.162-11.623-16-13.358zM8 22c0-2.833 1.232-6.643 8-7.705v13.156c-4.622-.656-8-1.513-8-5.451zm16 27.644V36.695c5.636 1.181 8 2.785 8 5.306 0 3.645-2.805 6.642-8 7.643z" fill-rule="evenodd" clip-rule="evenodd" fill="#88c057"/></svg>