<svg xmlns="http://www.w3.org/2000/svg" width="56.001" height="63.999"><path d="M52.001 43.999c-1.75 0-3.17 2.378-4 4-1.313 2.563-3.984 8-14.001 8-8.563 0-15.717-5.986-17.538-13.999H28a4.001 4.001 0 000-8H16v-4.001h12a4 4 0 100-8H16.461C18.283 13.986 25.436 8 34 8c10.017 0 12.688 5.438 14.001 8 .83 1.621 2.25 3.999 4 3.999 2.706 0 4-1.35 4-3.999 0-1.282-.445-3.445-2-6.001C52.088 6.856 46.389 0 34 0 21.001 0 10.231 9.539 8.307 21.999H4a4 4 0 000 8h4V34H4a4 4 0 100 8h4.307C10.231 54.46 21.001 63.999 34 63.999c12.389 0 18.088-6.856 20.001-10 1.555-2.555 2-4.719 2-6 0-2.649-1.294-4-4-4z" fill-rule="evenodd" clip-rule="evenodd" fill="#48a0dc"/></svg>