<svg xmlns="http://www.w3.org/2000/svg" width="64" height="64.001"><path d="M62.829 17.982L46.011 1.161a3.964 3.964 0 00-5.606 0L1.161 40.411a3.965 3.965 0 000 5.607L17.979 62.84a3.964 3.964 0 005.606 0l39.243-39.25a3.966 3.966 0 00.001-5.608z" fill="#cca352"/><path d="M62.976 17.97L45.998 1.043C45.43.477 44.723.189 43.993.034v7.924l12.11 12.074H64c-.148-.751-.44-1.48-1.024-2.062z" fill="#e6b85c"/><path d="M43.992.117a4.183 4.183 0 00-.64-.083h-.35c-.953.043-1.898.398-2.626 1.126L1.161 40.383c-.728.728-1.084 1.672-1.127 2.625v.351c.01.218.098.425.141.64h7.853L43.993 8.027l-.001-7.91z" fill="#f2c261"/><path d="M57.384 18.019L45.974 6.606a2.018 2.018 0 00-2.854 0L6.605 43.128a2.019 2.019 0 000 2.853l11.411 11.412a2.018 2.018 0 002.854 0l36.515-36.522a2.019 2.019 0 00-.001-2.852z" fill="#fc6"/></svg>