<svg xmlns="http://www.w3.org/2000/svg" width="64.006" height="48.02"><path d="M12.044 16.02v14c0 5.522 8.954 10 20 10 11.045 0 20-4.478 20-10v-14h-40z" fill-rule="evenodd" clip-rule="evenodd" fill="#6d5778"/><path d="M62.598 14.303L35.403.704c-1.878-.938-4.922-.938-6.799 0L1.408 14.303c-1.877.938-1.877 2.46 0 3.398L28.604 31.3c1.877.938 4.921.938 6.799 0l27.195-13.599c1.877-.938 1.877-2.461 0-3.398z" fill="#9b7cab"/><path d="M34.003 13.484c-.295-1.041-1.427-1.658-2.528-1.38l-23.38 5.92c-.018 0-.033-.005-.051-.005a1.99 1.99 0 00-1.75 1.05l-.011.021a1.903 1.903 0 00-.099.203 1.838 1.838 0 00-.141 1.024V40.02a2 2 0 004 0V21.571l22.499-5.698c1.103-.278 1.756-1.348 1.461-2.389z" fill-rule="evenodd" clip-rule="evenodd" fill="#ffd073"/><path d="M10.044 38.02h-4c0 4-2 6.895-2 8a2 2 0 002 2h4a2 2 0 002-2c0-1.106-2-4-2-8z" fill="#ffd073"/></svg>