<svg xmlns="http://www.w3.org/2000/svg" width="56" height="64"><path fill="#e6e6e6" d="M54 4H42l-2 10h16z"/><path d="M54 0H42a2 2 0 000 4h12a2 2 0 000-4z" fill="#48a0dc"/><path d="M25.8 6.857c.124-.26.2-.549.2-.857a2 2 0 00-2-2 2 2 0 00-2-2c-.366 0-.705.105-1 .277A1.977 1.977 0 0020 2a2 2 0 00-2 2c0 .366.105.705.277 1A1.977 1.977 0 0018 6a2 2 0 00-2 2 2 2 0 000 4 2 2 0 002 2c.061 0 .119-.013.178-.018A2.992 2.992 0 0021 16c.302 0 .588-.058.864-.142.366.086.743.142 1.136.142a5 5 0 002.8-9.143zM22 6c0 .034.008.066.01.1l-.021.003C21.991 6.068 22 6.035 22 6z" fill-rule="evenodd" clip-rule="evenodd" fill="#88c057"/><path d="M36 6a5.964 5.964 0 00-2.945.776A5.99 5.99 0 0028 4a6 6 0 102.945 11.224A5.99 5.99 0 0036 18a6 6 0 000-12z" fill-rule="evenodd" clip-rule="evenodd" fill="#ed7161"/><path d="M12 0H8a6 6 0 00-6 6v18a6 6 0 006 6h4a6 6 0 006-6V6a6 6 0 00-6-6z" fill="#fc6"/><path d="M52 14l-4-4-4 4-4-4-4 4-4-4-4 4-4-4-4 4-4-4-4 4-4-4-4 4-4-4v49.999A4.001 4.001 0 004 64h48c2.209 0 4-1.792 4-4.001V10l-4 4z" fill="#f2b477"/></svg>