<svg xmlns="http://www.w3.org/2000/svg" width="56.001" height="63.999"><path d="M52.001 0h-48A4 4 0 000 4v55.999a4 4 0 004.001 4h34l18-18V4a4 4 0 00-4-4z" fill="#ccc"/><path d="M50.001 4h-44a2 2 0 00-2 2v52a2 2 0 002 1.999h30l16-15.999V6a2 2 0 00-2-2z" fill="#fff"/><path d="M42.001 45.999c-2.209 0-4 1.792-4 4.001v13.999l18-18h-14z" fill="#999"/><path d="M14.001 27.999h16a1.999 1.999 0 000-4h-16a2 2 0 000 4zm8 20.001h-8a2 2 0 100 3.999h8a2 2 0 000-3.999zm8-16.001h-16a2 2 0 000 4h16a1.999 1.999 0 000-4z" fill-rule="evenodd" clip-rule="evenodd" fill="#ccc"/><path d="M38.001 27.999h4a2 2 0 000-4h-4a2 2 0 100 4zm4 4.001h-4a2 2 0 100 3.999h4a2 2 0 000-3.999z" fill-rule="evenodd" clip-rule="evenodd" fill="#88c057"/><path d="M42.001 12h-28a2 2 0 00-2 2.001v4a2 2 0 002 2h28a2 2 0 002-2v-4a2 2 0 00-2-2.001z" fill="#88c057"/></svg>