<svg xmlns="http://www.w3.org/2000/svg" width="44" height="64"><path d="M22 0C9.85 0 0 9.551 0 21.333 0 38 12 40 12 48h20c0-8 12-10 12-26.667C44 9.551 34.15 0 22 0z" fill="#ffd073"/><path d="M28 20a4 4 0 00-4 4h-4a4 4 0 10-4 4v20h4V28h4v20h4V28a4 4 0 000-8z" fill-rule="evenodd" clip-rule="evenodd" fill="#d4a548"/><ellipse cx="22" cy="58.014" rx="6" ry="5.986" fill="#949393"/><path d="M32 50v-2H12v2a2 2 0 002 2 2 2 0 000 4h2a2 2 0 000 3.999h12A2 2 0 1028 56h2a2 2 0 000-4 2 2 0 002-2z" fill-rule="evenodd" clip-rule="evenodd" fill="#b3b3b3"/></svg>