<svg xmlns="http://www.w3.org/2000/svg" width="36" height="64"><path d="M4 62a2 2 0 004 0v-2.001H4V62zm24-2.001V62a2 2 0 004 0v-2.001h-4zM32 16H4a4 4 0 00-4 4v12h36V20a4 4 0 00-4-4z" fill="#666"/><path d="M32 28H4a4 4 0 00-4 4v24a4 4 0 004 3.999h28A4 4 0 0036 56V32a4 4 0 00-4-4z" fill="#999"/><path d="M26 20H10a2 2 0 000 4h16a2 2 0 000-4z" fill="#ccc"/><path d="M10 16h4V4h-4v12zM22 4v12h4V4h-4z" fill-rule="evenodd" clip-rule="evenodd" fill="#ccc"/><path d="M26 0H10a2 2 0 000 4h16a2 2 0 000-4z" fill="#666"/></svg>