<svg xmlns="http://www.w3.org/2000/svg" width="64" height="64"><path d="M60 48c-1.88-1.88-18-9.999-18-9.999H22S5.88 46.12 4 48C.239 51.761 0 64 0 64h64s-.24-12.239-4-16z" fill="#e6e6e6"/><path fill="#fff" d="M40 36H24l-2 2 2 10.001L32 40l8 8.001L42 38z"/><path d="M36 44.001l-4-4-4 4c0 2 2 2 2 2L28 64h8l-2-17.999s2 0 2-2z" fill-rule="evenodd" clip-rule="evenodd" fill="#666"/><path d="M38 30.001H26l-2 6c0 1.104 4.896 4 6 4h4c1.104 0 6-2.896 6-4l-2-6z" fill="#dbb59a"/><path d="M32 2c-7.732 0-14 4-14 12 0 6.001 2 10 4 14.001 2 3.999 6.081 8 10 8 3.918 0 8-4.001 10-8 2-4.001 4-8 4-14.001 0-8-6.269-12-14-12z" fill="#f6cbad"/><path d="M32 0c-4.685 0-10 1.73-10 4.001-2.958 0-4 6.618-4 11.999 0 .898.08 1.843.205 2.804.515-2.646 2.105-6.803 5.795-6.803h8c3.063 0 8-1.498 8-4.001 2.596-.034 6 3.661 6 8 0-7.863-1.285-16-14-16z" fill="#666"/></svg>