<svg xmlns="http://www.w3.org/2000/svg" width="64" height="64"><path d="M60 48c-1.88-1.88-18-10-18-10l-8 26h30s-.24-12.239-4-16zM4 48C.24 51.761 0 64 0 64h30l-8-26S5.88 46.12 4 48z" fill="#b3b3b3"/><path d="M14 44.001L20 46l-4 4 12 14h2l-8-26-8 6.001zm36 0L42 38l-8 26h2l12-14-4-4 6-1.999z" fill="#999"/><path fill="#fff" d="M40 36.001H24l-2 2L32 64l10-25.999z"/><path d="M34 46.001s2 0 2-2l-4-4-4 4c0 2 2 2 2 2l-1.47 13.223L30 64h4l1.469-4.775L34 46.001z" fill-rule="evenodd" clip-rule="evenodd" fill="#d46557"/><path d="M38 30.001H26l-2 6c0 1.104 4.895 4 6 4h4c1.104 0 6-2.896 6-4l-2-6z" fill="#dbb59a"/><path d="M32 2c-7.732 0-14 4-14 12 0 6.001 2 10 4 14.001 2 3.999 6.081 8 10 8 3.918 0 8-4.001 10-8 2-4.001 4-8 4-14.001 0-8-6.268-12-14-12z" fill="#f6cbad"/><path d="M32 0c-4.685 0-10 1.73-10 4.001-2.958 0-4 6.618-4 11.999 0 .898.08 1.843.205 2.804.514-2.646 2.105-6.803 5.795-6.803h8c3.063 0 8-1.498 8-4.001 2.595-.034 6 3.661 6 8 0-7.863-1.286-16-14-16z" fill="#333"/></svg>