<svg xmlns="http://www.w3.org/2000/svg" width="64.001" height="56.009"><path d="M0 26c0 4.418 1.582 6 6 6V20c-4.418 0-6 1.582-6 6zm58.001-5.999v12c4.418 0 6-1.582 6-6s-1.582-6-6-6z" fill-rule="evenodd" clip-rule="evenodd" fill="#969696"/><path d="M32.001 16h-22A4 4 0 006 20v16.055l10.356 16.997c1.723 2.828 5.539 3.797 8.523 2.164 2.985-1.633 4.008-5.249 2.284-8.077L20.378 36h11.623V16z" fill="#ccc"/><path d="M56 0L32.001 16v20L56 52.001A2.001 2.001 0 0058.001 50V2A2 2 0 0056 0z" fill="#9b7cab"/><path d="M56 0l-3.999 2.667v46.667L56 52.001A2.001 2.001 0 0058.001 50V2A2 2 0 0056 0z" fill="#82688f"/></svg>