<svg xmlns="http://www.w3.org/2000/svg" width="56" height="63.999"><path d="M50 52c0-2.864 0-12-4-22-4-10.001-14-12-14-16 0-1.938 1.063-5.063 2-6.001.938-.937 2-3.5 2-4C36 3.5 35.375 2 34 2h-6c-2.312 0-3.813-2-6-2s-4 .875-4 2 1.813 3.813 4 5.999C24.188 10.188 24 14 24 14c0 4-10 5.999-14 16-4 10-4 19.136-4 22s-6 6.946-6 8c0 1.053 1.044 2 2 2 .955 0 3.531-2 6-2s13.014 3.999 20 3.999S45.531 60 48 60s5.044 2 6 2c.955 0 2-.947 2-2 0-1.054-6-5.136-6-8z" fill-rule="evenodd" clip-rule="evenodd" fill="#88c057"/><path d="M32 11.999h-8A2 2 0 0024 16h8a2 2 0 000-4.001z" fill="#fc6"/><path d="M30 38.321v-7.169c3.757.607 4.371 2.848 6 2.848 1.156 0 2-.969 2-2 0-1.859-2.761-4.375-8-4.897V26a2 2 0 10-4 0v1.121c-4.563.569-8 3.153-8 7.879 0 4.825 3.839 6.011 8 6.696v7.127C22.547 48.187 21.757 46 20 46c-1.281 0-2 .98-2 2 0 1.565 2.639 4.324 8 4.889v1.11a2 2 0 104 0v-1.105c5.644-.575 8-3.647 8-7.895 0-4.483-3.081-5.811-8-6.678zM22 35c0-1.417.616-3.322 4-3.854v6.579c-2.312-.329-4-.756-4-2.725zm8 13.8v-6.452c2.818.59 4 1.393 4 2.651 0 1.818-1.416 3.296-4 3.801z" fill-rule="evenodd" clip-rule="evenodd" fill="#638c3f"/></svg>