<svg xmlns="http://www.w3.org/2000/svg" width="64" height="64.024"><path d="M60 .024H4a4 4 0 00-4 4v32a4.001 4.001 0 004 4.001h56c2.209 0 4-1.792 4-4.001v-32a4 4 0 00-4-4z" fill="#ccc"/><path d="M8 28.024v2.001a2 2 0 002 1.999h44a2 2 0 002-1.999v-2.001H8z" fill="#999"/><path fill="#666" d="M8 16.024h48v12H8z"/><path d="M54 8.024H10a2 2 0 00-2 2v6h48v-6a2 2 0 00-2-2z" fill="#e6e6e6"/><path d="M16 60.024a4 4 0 004 4h24a4 4 0 004-4v-44H16v44z" fill-rule="evenodd" clip-rule="evenodd" fill="#75a64b"/><path d="M44 24.062v-8.037H20v8.1c2.94-2.504 7.232-4.096 12.026-4.103 4.773-.006 9.043 1.561 11.974 4.04zM20 39.991v16.01c2.191.015 3.973 1.813 3.983 4.023h16.042c0-.01-.003-.019-.003-.028-.009-2.216 1.767-4.005 3.965-3.996l.013.001V39.95c-2.94 2.499-7.227 4.086-12.014 4.092-4.779.006-9.054-1.566-11.986-4.051zm15.983 12.035c.009 2.216-1.767 4.005-3.965 3.996s-3.987-1.812-3.996-4.026c-.009-2.216 1.767-4.005 3.965-3.996 2.199.008 3.988 1.812 3.996 4.026zM32 36.021a3.953 3.953 0 01-2.855-1.219c-1.744 1.127-3.96 2.241-5.7 2.817 2.179 1.47 5.205 2.383 8.554 2.382 6.639 0 12.021-3.583 12.022-8.002s-5.381-8-12.02-7.999c-3.373 0-6.418.929-8.602 2.418 1.748.572 3.985 1.693 5.745 2.831a3.953 3.953 0 012.855-1.222 3.988 3.988 0 013.98 3.997c0 2.206-1.782 3.997-3.979 3.997z" fill-rule="evenodd" clip-rule="evenodd" fill="#99d962"/></svg>