<svg xmlns="http://www.w3.org/2000/svg" width="64" height="64.001"><path d="M62 60.001H2a2 2 0 000 4h60a2 2 0 000-4z" fill="#999"/><path d="M58 16H26a2 2 0 00-2 2.001v42h36v-42A2 2 0 0058 16z" fill="#ccc"/><path d="M40 20v4.001h16V20H40zm0 12.001h16V28H40v4.001zm0 8h16v-4H40v4zm0 8h16v-4H40v4zm0 8h16v-4H40v4z" fill-rule="evenodd" clip-rule="evenodd" fill="#387ba8"/><path fill="#b3b3b3" d="M40 12h12v4.001H40z"/><path d="M38 0H6a2 2 0 00-2 2v58.001h36V2a2 2 0 00-2-2z" fill="#e6e6e6"/><path d="M8 16.001h28V12H8v4.001zm0 24h28v-4H8v4zm0-8h28V28H8v4.001zm0-8h28V20H8v4.001zm0 24h28v-4H8v4zm0 8h28v-4H8v4zM8 4v4.001h28V4H8z" fill-rule="evenodd" clip-rule="evenodd" fill="#48a0dc"/></svg>