<svg xmlns="http://www.w3.org/2000/svg" width="64" height="64"><path d="M36 52h-8a4 4 0 00-4 4v4a4 4 0 004 4h8a4 4 0 004-4v-4a4 4 0 00-4-4zm-24 0H4a4 4 0 00-4 4v4a4 4 0 004 4h8a4 4 0 004-4v-4a4 4 0 00-4-4zm48 0h-8a4 4 0 00-4 4v4a4 4 0 004 4h8a4 4 0 004-4v-4a4 4 0 00-4-4z" fill-rule="evenodd" clip-rule="evenodd" fill="#48a0dc"/><path d="M24 26.001h-8A4 4 0 0012 30v4a4 4 0 004 4h8a4 4 0 004-4v-4a4 4 0 00-4-3.999zm24 0h-8A4 4 0 0036 30v4a4 4 0 004 4h8a4 4 0 004-4v-4a4 4 0 00-4-3.999z" fill-rule="evenodd" clip-rule="evenodd" fill="#ed7261"/><path d="M36 0h-8a4 4 0 00-4 4v4a4 4 0 004 4h8a4 4 0 004-4V4a4 4 0 00-4-4z" fill="#9b7cab"/><path d="M22 22a2 2 0 012-2h16a2 2 0 012 2v4.001h4V22a6 6 0 00-6-6v.001h-6V12h-4v4.001h-6V16a6 6 0 00-6 6v4.001h4V22zm30 20l-6 .001V38h-4v4.001H22V38h-4v4.001h-6V42a6 6 0 00-6 6.001V52h4v-3.999A2 2 0 0112 46v.001h18V52h4v-5.999h18V46a2 2 0 012 2.001V52h4v-3.999A6.001 6.001 0 0052 42z" fill-rule="evenodd" clip-rule="evenodd" fill="#ccc"/></svg>