<svg xmlns="http://www.w3.org/2000/svg" width="64" height="64"><path d="M50 20V4a4 4 0 00-4-4H18a4 4 0 00-4 4v16a4 4 0 004 4h28a4 4 0 004-4zM12 48.001H4A4 4 0 000 52v8a4 4 0 004 4h8a4 4 0 004-4v-8a4 4 0 00-4-3.999zm24 0h-8A4 4 0 0024 52v8a4 4 0 004 4h8a4 4 0 004-4v-8a4 4 0 00-4-3.999zm24 0h-8A4 4 0 0048 52v8a4 4 0 004 4h8a4 4 0 004-4v-8a4 4 0 00-4-3.999z" fill-rule="evenodd" clip-rule="evenodd" fill="#9b7cab"/><path d="M52 34H34V24h-4v10H12c-3.313 0-6 2.687-6 6.001v8h4v-8A2 2 0 0112 38h18v10.001h4V38h18a2 2 0 012 2.001v8h4v-8A6.001 6.001 0 0052 34z" fill-rule="evenodd" clip-rule="evenodd" fill="#ccc"/><path d="M40 8.001H24A2 2 0 0022 10v4a2 2 0 002 2.001h16A2 2 0 0042 14v-4a2 2 0 00-2-1.999z" fill="#fff"/></svg>