<svg xmlns="http://www.w3.org/2000/svg" width="64.001" height="56"><path d="M64.001 21a3 3 0 00-3-2.999c-.641 0-1.2.244-1.688.585C56.115 14.9 50.804 12 42.001 12c-10.485 0-18 6.001-18 6.001s-6.885-7.116-10-4c1.99 1.99 2.222 6.963 2.222 6.963s-3.56 1.443-6.222 5.037C7.729 29.066 0 28.339 0 32.815 0 39.186 13.251 48 24.001 48l2 6.001a2 2 0 002 1.999h6a2 2 0 002-1.999l2-6.001h8l2 6.001a2 2 0 002 1.999h6a2 2 0 002-1.999l4-12c1.135-3.405 2-6.975 2-10 0-1.941-.303-5.119-1.626-8.376.954-.501 1.626-1.472 1.626-2.625z" fill="#ffa8d1"/><circle cx="15.957" cy="28.021" r="1.996" fill="#cc5e91"/><path d="M48.394 14.687a30.03 30.03 0 00-12.78 0c-1.175.256-1.844 1.252-1.517 2.125.328.875 1.381 1.341 2.372 1.127a25.984 25.984 0 0111.069 0c.991.214 2.045-.252 2.372-1.127.327-.874-.342-1.87-1.516-2.125z" fill="#cc5e91"/><circle cx="42.001" cy="8" r="8" fill="#fc6"/><circle cx="42.001" cy="8.001" r="4" fill="#cca352"/></svg>