<svg xmlns="http://www.w3.org/2000/svg" width="48" height="64"><path d="M44 0H12a4 4 0 00-4 4v4H2a2 2 0 00-2 2.001v40A2 2 0 002 52h2V40.001h4V60a4 4 0 004 4h32a4 4 0 004-4V4a4 4 0 00-4-4z" fill-rule="evenodd" clip-rule="evenodd" fill="#ccc"/><path fill="#999" d="M4 8h4v34.001H4z"/><path d="M38 8H18a2 2 0 000 4h20a2 2 0 000-4z" fill="#666"/><path d="M34 4H22a2 2 0 00-2 2.001V12h16V6.001A2 2 0 0034 4z" fill="#fff"/><path d="M18 48.001h-4A2 2 0 0014 52h4a2 2 0 000-3.999zm0-8h-4A2 2 0 0014 44h4a2 2 0 000-3.999zm0-8h-4A2 2 0 0014 36h4a2 2 0 100-3.999zm12 24h-4A2 2 0 0026 60h4a2 2 0 000-3.999zm0-8h-4A2 2 0 0026 52h4a2 2 0 000-3.999zm0-8h-4A2 2 0 0026 44h4a2 2 0 000-3.999zm0-8h-4A2 2 0 0026 36h4a2 2 0 100-3.999zm12 16h-4A2 2 0 0038 52h4a2 2 0 000-3.999zm0-8h-4A2 2 0 0038 44h4a2 2 0 000-3.999zM38 36h4a2 2 0 100-3.999h-4A2 2 0 0038 36z" fill-rule="evenodd" clip-rule="evenodd" fill="#999"/><path d="M18 56.001h-4A2 2 0 0014 60h4a2 2 0 000-3.999z" fill="#ed7161"/><path d="M42 56.001h-4A2 2 0 0038 60h4a2 2 0 000-3.999z" fill="#88c057"/><path d="M42 16H14a2 2 0 00-2 2.001v8A2 2 0 0014 28h28a2 2 0 002-1.999v-8A2 2 0 0042 16z" fill="#48a0dc"/></svg>