<svg xmlns="http://www.w3.org/2000/svg" width="52.002" height="63.999"><path d="M48 52c-3.999 0-5.424 4-11.999 4s-9.881-4-16-4c-.539 0-1.054.032-1.559.078 1.937-3.297 3.559-7.441 3.559-12.078 0-1.287-.128-2.632-.33-4.001H28a4 4 0 100-8h-8.077c-.973-3.782-1.922-7.328-1.922-10 0-3.858 2.059-10 11.999-10 8.888 0 10.688 5.438 12.001 8.001.83 1.621 2.25 3.999 4 3.999 2.706 0 4-1.35 4-3.999 0-1.282-.445-3.445-2-6.001C46.088 6.856 42.389 0 30 0 15.641 0 10.001 7.928 10.001 17.999c0 3.926.688 7.099 1.491 10H4a4 4 0 000 8h9.625A22.28 22.28 0 0114.001 40c0 8.139-8.809 15.048-9.891 19.218-.013.047-.02.098-.03.146-.048.22-.079.433-.079.636 0 3.396 2 3.999 4 3.999 2.861 0 5.945-3.999 12-3.999 4.166 0 8.773 3.999 16 3.999 5.664 0 10.404-3.008 11.999-3.999 1.887-1.174 4.065-2.307 4.001-4-.121-3.135-2-4-4.001-4z" fill-rule="evenodd" clip-rule="evenodd" fill="#9b7cab"/></svg>