<svg xmlns="http://www.w3.org/2000/svg" width="64" height="63.993"><path d="M62 4H34V2a2 2 0 00-4 0v2H2a2 2 0 00-2 2v4a2 2 0 002 2h28v36.014a1.906 1.906 0 00-1.285.556L16.569 60.716a1.92 1.92 0 102.715 2.715L30 52.715V60a2 2 0 104 0v-7.284l10.715 10.715a1.92 1.92 0 102.715-2.715L35.284 48.569A1.908 1.908 0 0034 48.013V12h28a2 2 0 002-2V6a2 2 0 00-2-2z" fill-rule="evenodd" clip-rule="evenodd" fill="#666"/><path d="M2 12v36a4.001 4.001 0 004 4.001h52c2.209 0 4-1.792 4-4.001V12H2z" fill="#ccc"/><path d="M6 12v34a2 2 0 002 2h48a2 2 0 002-2V12H6z" fill="#fff"/><path d="M32 30l8.485-8.485A11.962 11.962 0 0032 18c-6.628 0-12 5.373-12 12 0 3.313 1.343 6.313 3.515 8.485L32 30z" fill-rule="evenodd" clip-rule="evenodd" fill="#fc6"/><path d="M44 30H32l-8.485 8.485A11.959 11.959 0 0032 42c6.627 0 12-5.372 12-12z" fill-rule="evenodd" clip-rule="evenodd" fill="#88c057"/><path d="M32 30h12c0-3.313-1.343-6.313-3.515-8.485L32 30z" fill-rule="evenodd" clip-rule="evenodd" fill="#ed7161"/></svg>