<svg xmlns="http://www.w3.org/2000/svg" width="64" height="63.993"><path d="M62 4H34V2a2 2 0 00-4 0v2H2a2 2 0 00-2 2v4a2 2 0 002 2h28v36.014a1.906 1.906 0 00-1.285.556L16.569 60.716a1.92 1.92 0 102.715 2.715L30 52.716V60a2 2 0 104 0v-7.284l10.715 10.715a1.92 1.92 0 002.716-2.715L35.284 48.569A1.908 1.908 0 0034 48.013V12h28a2 2 0 002-2V6a2 2 0 00-2-2z" fill-rule="evenodd" clip-rule="evenodd" fill="#666"/><path d="M2 12v36a4 4 0 004 4.001h52c2.209 0 4-1.792 4-4.001V12H2z" fill="#ccc"/><path d="M6 12v34a2 2 0 002 2h48a2 2 0 002-2V12H6z" fill="#fff"/><path d="M46 24h-4a2 2 0 00-2 2v14a2 2 0 002 2h4a2 2 0 002-2V26a2 2 0 00-2-2z" fill="#48a0dc"/><path d="M34 18h-4a2 2 0 00-2 2v20a2 2 0 002 2h4a2 2 0 002-2V20a2 2 0 00-2-2z" fill="#88c057"/><path d="M22 30h-4a2 2 0 00-2 2v8a2 2 0 002 2h4a2 2 0 002-2v-8a2 2 0 00-2-2z" fill="#ed7161"/></svg>