<svg xmlns="http://www.w3.org/2000/svg" width="64" height="63.993"><path d="M62 4H34V2a2 2 0 00-4 0v2H2a2 2 0 00-2 2v4a2 2 0 002 2h28v36.014a1.906 1.906 0 00-1.285.556L16.569 60.716a1.92 1.92 0 102.715 2.715L30 52.715V60a2 2 0 104 0v-7.284l10.715 10.715a1.92 1.92 0 102.715-2.715L35.284 48.569A1.908 1.908 0 0034 48.013V12h28a2 2 0 002-2V6a2 2 0 00-2-2z" fill-rule="evenodd" clip-rule="evenodd" fill="#666"/><path d="M2 12v36a4 4 0 004 4.001h52c2.209 0 4-1.792 4-4.001V12H2z" fill="#ccc"/><path d="M6 12v34a2 2 0 002 2h48a2 2 0 002-2V12H6z" fill="#fff"/><path d="M46.322 20.032a2.174 2.174 0 00-.929-.032H38a2 2 0 000 4h2.863L34 30.863l-4.268-4.267A2.15 2.15 0 0028 25.98a2.152 2.152 0 00-1.733.616l-9.67 9.67a2.168 2.168 0 000 3.068 2.167 2.167 0 003.067 0L28 31l4.335 4.335a2.155 2.155 0 001.665.623 2.154 2.154 0 001.664-.623L44 27v3a2 2 0 004 0v-8c0-.994-.728-1.812-1.678-1.968z" fill-rule="evenodd" clip-rule="evenodd" fill="#48a0dc"/></svg>