<svg xmlns="http://www.w3.org/2000/svg" width="64" height="63.993"><path d="M62 4H34V2a2 2 0 00-4 0v2H2a2 2 0 00-2 2v4a2 2 0 002 2h28v36.014a1.906 1.906 0 00-1.285.556L16.569 60.716a1.92 1.92 0 102.715 2.715L30 52.715V60a2 2 0 104 0v-7.284l10.715 10.715a1.92 1.92 0 102.715-2.715L35.284 48.569A1.908 1.908 0 0034 48.013V12h28a2 2 0 002-2V6a2 2 0 00-2-2z" fill-rule="evenodd" clip-rule="evenodd" fill="#666"/><path d="M2 12v36a4 4 0 004 4.001h52c2.209 0 4-1.792 4-4.001V12H2z" fill="#ccc"/><path d="M6 12v34a2 2 0 002 2h48a2 2 0 002-2V12H6z" fill="#fff"/><path d="M41.972 29.864c.013-.768-.315-1.523-.964-1.936l-11.984-7.607a1.948 1.948 0 00-.619-.241c-.095-.022-.184-.049-.278-.056-.044-.004-.081-.026-.126-.026-.101 0-.187.044-.282.058-.116.018-.228.028-.339.068a1.91 1.91 0 00-.541.291c-.021.016-.043.024-.063.041a1.96 1.96 0 00-.754 1.436c-.001.01-.005.02-.006.028-.001.028-.016.052-.016.079v16c0 .028.015.052.016.08.001.011.005.021.007.032.034.585.319 1.085.75 1.428.024.021.053.034.078.054.162.117.33.215.523.28.116.042.234.054.355.071.092.014.175.055.271.055.043 0 .079-.021.121-.024.099-.007.191-.034.29-.059.214-.046.409-.116.591-.226l12.006-7.619c.648-.412.977-1.168.964-1.936.006-.047.005-.09.009-.136-.004-.045-.003-.089-.009-.135z" fill="#ed7161"/></svg>