<svg xmlns="http://www.w3.org/2000/svg" width="64" height="63.993"><path d="M62 4H34V2a2 2 0 00-4 0v2H2a2 2 0 00-2 2v4a2 2 0 002 2h28v36.014a1.906 1.906 0 00-1.285.556L16.568 60.716a1.921 1.921 0 002.716 2.715L30 52.715V60a2 2 0 104 0v-7.284l10.715 10.715a1.92 1.92 0 102.715-2.715L35.284 48.569A1.913 1.913 0 0034 48.013V12h28a2 2 0 002-2V6a2 2 0 00-2-2z" fill-rule="evenodd" clip-rule="evenodd" fill="#666"/><path d="M2 12v36a4 4 0 004 4.001h52c2.209 0 4-1.792 4-4.001V12H2z" fill="#ccc"/><path d="M6 12v34a2 2 0 002 2h48a2 2 0 002-2V12H6z" fill="#fff"/><path d="M46 28.001a2 2 0 00-2 2v3l-8.336-8.335A2.153 2.153 0 0034 24.044a2.154 2.154 0 00-1.665.622L28 29.001l-8.336-8.335a2.167 2.167 0 00-3.067 0 2.168 2.168 0 000 3.068l9.67 9.671A2.156 2.156 0 0028 34.02a2.157 2.157 0 001.732-.615L34 29.138l6.863 6.863H38a2 2 0 000 4h7.4c.305.057.617.042.919-.032A1.995 1.995 0 0048 38.001v-8a2 2 0 00-2-2z" fill-rule="evenodd" clip-rule="evenodd" fill="#ed7161"/></svg>