<svg xmlns="http://www.w3.org/2000/svg" width="64" height="56"><path d="M50 10.001h-7.062l-3.686-3.686A3.965 3.965 0 0040 4.001a4 4 0 10-8 0c0 1.818 1.221 3.335 2.883 3.821l2.179 2.179H26.92l2.17-2.17C30.766 7.354 32 5.829 32 4.001a4 4 0 10-8 0c0 .869.285 1.668.755 2.324l-3.676 3.676H14c-6.628 0-12 5.372-12 12v4c0 6.627 5.372 12 12 12h36c6.627 0 12-5.373 12-12v-4c0-6.628-5.373-12-12-12z" fill-rule="evenodd" clip-rule="evenodd" fill="#666"/><path d="M54 16H10S0 32.075 0 44.001C0 54.001 4 56 12 56h40c8 0 12-1.999 12-11.999C64 32.075 54 16 54 16z" fill="#88c057"/><path d="M5.232 40.001C10.631 40.001 14 16 14 16S-.166 40.001 5.232 40.001zM50 16s3.369 24.001 8.767 24.001S50 16 50 16z" fill-rule="evenodd" clip-rule="evenodd" fill="#75a64b"/></svg>