<svg xmlns="http://www.w3.org/2000/svg" width="64" height="64"><path d="M24 32v8h4v-8h-4zM4 40h8v-3.999H4V40zm28 16h-8v6.001A2 2 0 0026 64h2v-3.999h4V64h4V52.001h-4V56zm24-16h4v-3.999h-4V40zM0 32v4.001h4V32H0zm2-8a2 2 0 00-2 2.001v2h4V24H2zm54 28.001h-4V56h4v-3.999zM2 20h16a2 2 0 002-1.999V2a2 2 0 00-2-2H2a2 2 0 00-2 2v16.001A2 2 0 002 20zM4 4h12v12H4V4zm14 40.001H2a2 2 0 00-2 2v16A2 2 0 002 64h16a2 2 0 002-1.999v-16a2 2 0 00-2-2zm-2 16H4V48h12v12.001zm-4-8H8V56h4v-3.999zm52-16V32h-4v4.001h4zM8 12h4V8H8v4zm54 32.001H46a2 2 0 00-2 2v16A2 2 0 0046 64h16a2 2 0 002-1.999v-16a2 2 0 00-2-2zm-2 16H48V48h12v12.001zM28 48v-3.999h-4v8h8V48h-4zM12 28.001h4V24H8v4.001H4V32h8v-3.999zm20 0h-4V32h4v-3.999zm4 0V32h4v4.001h-4V32h-4v8h-4v4.001h4V48h4v4.001h4v-8h-4V40h8v-8h4v-3.999H36zm0 0V24h4v-4h-8v8.001h4zM56 8h-4v4h4V8zm6-8H46a2 2 0 00-2 2v16.001A2 2 0 0046 20h16a2 2 0 002-1.999V2a2 2 0 00-2-2zm-2 16H48V4h12v12zm-28 0h-4v4h4v-4zm30 8h-6v4.001h-4V32h-4v4.001h8V32h4v-3.999h4v-2A2 2 0 0062 24zm-10 0h-4v4.001h4V24zm-28-4v4h-4v4.001h8V20h-4zm-8 12h-4v4.001h4V40h4V28.001h-4V32zm8-24v8h4V8h-4zm2-8a2 2 0 00-2 2v2h4V0h-2zm6 4h-4v4h4V4zm4 12v-4h4V8h-8v8h4zm4-14a2 2 0 00-2-2h-6v4h8V2z" fill-rule="evenodd" clip-rule="evenodd" fill="#666"/><path d="M62 28.001H2A2 2 0 002 32h60a2 2 0 100-3.999z" fill="#ed7161"/></svg>