<svg xmlns="http://www.w3.org/2000/svg" width="40" height="63.947"><path d="M36 16h-4.401a19.886 19.886 0 00-3.626-8H36a4 4 0 100-8H4a4 4 0 000 8h8c5.223 0 9.653 3.343 11.303 8H4a4 4 0 000 8.001h19.303c-1.649 4.657-6.081 8-11.303 8H4c-.714 0-1.375.202-1.955.53-.021.011-.042.016-.062.027-.013.008-.022.018-.036.025-.16.097-.31.206-.455.323-.075.061-.151.118-.222.184-.095.089-.18.186-.266.283-.088.1-.175.197-.251.305-.071.099-.131.204-.192.31-.062.106-.124.211-.175.322-.069.146-.122.3-.173.456-.021.066-.044.13-.062.197A4.04 4.04 0 000 36c0 1.158.5 2.193 1.287 2.925l15.414 23.094c1.078 1.844 3.467 2.476 5.334 1.411a3.83 3.83 0 001.43-5.267L11.343 40.001H12c9.676 0 17.744-6.871 19.599-16H36A4 4 0 0036 16z" fill-rule="evenodd" clip-rule="evenodd" fill="#a67c52"/></svg>