<svg xmlns="http://www.w3.org/2000/svg" width="64" height="64"><path d="M12 38c6.627 0 12 0 12-6H0c0 6 5.373 6 12 6zm28 8c0 6 5.373 6 12 6s12 0 12-6H40z" fill-rule="evenodd" clip-rule="evenodd" fill="#999"/><path d="M0 32h4l8-20 8 20h4L12 4 0 32zm52-14L40 46h4l8-20 8 20h4L52 18z" fill-rule="evenodd" clip-rule="evenodd" fill="#ccc"/><path d="M52 14a3.978 3.978 0 00-3.145 1.555l-13.177-5.124A3.991 3.991 0 0034 8.555V6s0-6-2-6-2 6-2 6v2.222L15.761 2.685A3.987 3.987 0 0012 0a4 4 0 000 8 3.978 3.978 0 003.145-1.555l12.909 5.02c-.024.177-.054.352-.054.535 0 1.477.81 2.752 2 3.445V54h-2a4 4 0 00-4 4h-4a4 4 0 00-4 4v2h32v-2a4 4 0 00-4-4h-4a4 4 0 00-4-4h-2V15.445a4 4 0 001.283-1.168l12.956 5.039C48.786 20.875 50.254 22 52 22a4 4 0 000-8z" fill-rule="evenodd" clip-rule="evenodd" fill="#fc6"/></svg>