<svg xmlns="http://www.w3.org/2000/svg" width="64" height="63.999"><path d="M60 0H4a4 4 0 00-4 3.999V60a4 4 0 004 3.999h56A4 4 0 0064 60V3.999A4 4 0 0060 0z" fill="#ccc"/><path d="M58 3.999H6c-1.104 0-2 .897-2 2.001v52a2 2 0 002 2h52a2 2 0 002-2V6a2.002 2.002 0 00-2-2.001z" fill="#999"/><path d="M58 11.999v8h4v-8h-4zM58 52h4v-8h-4v8zM28 16c-8.837 0-16 7.163-16 16 0 8.836 7.163 16 16 16 8.836 0 16-7.164 16-16 0-8.837-7.164-16-16-16zm0 28c-5.945 0-10.866-4.327-11.82-10h6.169c.825 2.328 3.04 4 5.651 4 .374 0 .739-.039 1.095-.104l3.083 5.342A11.963 11.963 0 0128 44zm-2-12a2 2 0 113.999-.001A2 2 0 0126 32zm3.094-5.896A6.074 6.074 0 0028 26a5.995 5.995 0 00-5.651 4H16.18c.954-5.674 5.875-10.001 11.82-10.001 1.472 0 2.875.278 4.178.763l-3.084 5.342zm6.553 15.143l-3.09-5.352A5.965 5.965 0 0034 32a5.972 5.972 0 00-1.442-3.896l3.09-5.351A11.976 11.976 0 0140 32c0 3.721-1.694 7.045-4.353 9.247z" fill-rule="evenodd" clip-rule="evenodd" fill="#e6e6e6"/></svg>