<svg xmlns="http://www.w3.org/2000/svg" width="64" height="63.999"><path d="M60 0H4a4 4 0 00-4 3.999V60a4 4 0 004 3.999h56A4 4 0 0064 60V3.999A4 4 0 0060 0z" fill="#999"/><path d="M58 3.999H6c-1.104 0-2 .897-2 2.001v52a2 2 0 002 2h52a2 2 0 002-2V6a2.002 2.002 0 00-2-2.001z" fill="#ccc"/><path d="M58 11.999v8h4v-8h-4zM58 52h4v-8h-4v8z" fill-rule="evenodd" clip-rule="evenodd" fill="#e6e6e6"/><circle cx="40" cy="32" r="14" fill="#999"/><path d="M42.965 22.447L40 18l-2.965 4.447C32.96 23.71 30 27.509 30 32c0 5.522 4.477 10 10 10 5.522 0 10-4.478 10-10 0-4.491-2.96-8.29-7.035-9.553z" fill-rule="evenodd" clip-rule="evenodd" fill="#fff"/><circle cx="40" cy="32" r="6" fill="#666"/><path d="M20 26a4 4 0 00-8 0c0 .351.06.684.145 1.008L14 40a2 2 0 004 0l1.855-12.992c.085-.323.145-.657.145-1.008z" fill-rule="evenodd" clip-rule="evenodd" fill="#fff"/></svg>