<svg xmlns="http://www.w3.org/2000/svg" width="64" height="60.001"><path d="M62 56.001H2a2 2 0 000 4h60a2 2 0 000-4z" fill="#999"/><path fill="#ccc" d="M4 20.001h56v36H4z"/><path d="M52 22H12a2 2 0 00-2 2.001v32h24V46h18a2 2 0 002-1.999v-20A2 2 0 0052 22z" fill="#e6e6e6"/><path d="M14 52.001h16V26H14v26.001zM34 26v16.001h16V26H34z" fill-rule="evenodd" clip-rule="evenodd" fill="#48a0dc"/><path d="M0 28.001a4 4 0 008 0v-8H0v8zm16 0a4 4 0 008 0v-8h-8v8zm16 0a4 4 0 008 0v-8h-8v8zm16-8v8a4 4 0 008 0v-8h-8z" fill-rule="evenodd" clip-rule="evenodd" fill="#ed7261"/><path d="M0 20.001h8l6-12H8l-8 12zm16 0h8l2-12h-6l-4 12zm16-12v12h8l-2-12h-6zm18 0h-6l4 12h8l-6-12z" fill-rule="evenodd" clip-rule="evenodd" fill="#ba594c"/><path d="M8 28.001a4 4 0 008 0v-8H8v8zm16 0a4 4 0 008 0v-8h-8v8zm16 0a4 4 0 008 0v-8h-8v8zm16-8v8a4 4 0 008 0v-8h-8z" fill-rule="evenodd" clip-rule="evenodd" fill="#e6e6e6"/><path d="M56 8.001h-6l6 12h8l-8-12zm-18 0l2 12h8l-4-12h-6zm-14 12h8v-12h-6l-2 12zm-16 0h8l4-12h-6l-6 12z" fill-rule="evenodd" clip-rule="evenodd" fill="#ccc"/><path d="M54 0H10a2 2 0 00-2 2v6.001h48V2a2 2 0 00-2-2z" fill="#e6e6e6"/></svg>