<svg xmlns="http://www.w3.org/2000/svg" width="64" height="64.001"><path d="M62 60.001H2a2 2 0 000 4h60a2 2 0 000-4z" fill="#999"/><path d="M58 10.001A2 2 0 0056 8h-6l-2-8-2 8h-6a2 2 0 00-2 2.001A2 2 0 0036 12v12.001h-8V12a2 2 0 00-2-1.999A2 2 0 0024 8h-6l-2-8-2 8H8a2 2 0 00-2 2.001A2 2 0 004 12v48.001h24v-28h8v28h24V12a2 2 0 00-2-1.999z" fill-rule="evenodd" clip-rule="evenodd" fill="#ccc"/><path d="M8 24.001h16V20H8v4.001zm0 8h16V28H8v4.001zm0 8h16v-4H8v4zm0 8h16v-4H8v4zm0 8h16v-4H8v4zm0-40h16V12H8v4.001zm32 8h16V20H40v4.001zm0 8h16V28H40v4.001zm0 8h16v-4H40v4zm0 8h16v-4H40v4zm0 8h16v-4H40v4zM40 12v4.001h16V12H40z" fill-rule="evenodd" clip-rule="evenodd" fill="#999"/></svg>