<svg xmlns="http://www.w3.org/2000/svg" width="64" height="64"><path d="M64 32c0-1.647-4.071-4.649-6.624-5.656a26.267 26.267 0 00-.566-2.14c1.707-2.151 3.727-6.778 2.903-8.204-.824-1.427-5.853-1.991-8.567-1.586a26.101 26.101 0 00-1.56-1.561c.405-2.713-.159-7.741-1.586-8.565-1.426-.824-6.053 1.196-8.204 2.902-.7-.22-1.415-.405-2.14-.566C36.65 4.071 33.648 0 32 0s-4.65 4.071-5.656 6.624c-.725.161-1.439.347-2.14.566C22.053 5.484 17.426 3.464 16 4.288c-1.428.824-1.992 5.853-1.586 8.566a26.085 26.085 0 00-1.56 1.56c-2.713-.405-7.743.159-8.567 1.586-.823 1.427 1.197 6.055 2.903 8.205-.22.7-.405 1.415-.566 2.139C4.071 27.351 0 30.353 0 32c0 1.648 4.071 4.65 6.625 5.656.161.724.346 1.439.566 2.139C5.483 41.946 3.464 46.573 4.287 48c.824 1.428 5.853 1.992 8.566 1.586a26.401 26.401 0 001.56 1.561c-.405 2.714.158 7.742 1.586 8.566 1.425.823 6.053-1.197 8.204-2.903.701.22 1.416.406 2.141.567C27.351 59.93 30.352 64 32 64s4.649-4.07 5.656-6.623c.725-.161 1.44-.347 2.14-.567 2.151 1.707 6.778 3.726 8.204 2.903 1.427-.824 1.991-5.852 1.586-8.566a26.118 26.118 0 001.561-1.561c2.714.405 7.742-.159 8.566-1.586.823-1.426-1.197-6.053-2.903-8.204.22-.7.405-1.415.566-2.14C59.929 36.65 64 33.648 64 32z" fill-rule="evenodd" clip-rule="evenodd" fill="#f83"/><path d="M34 30.543v-8.34c3.756.809 4.372 3.797 6 3.797 1.156 0 2-.969 2-2 0-1.858-2.761-5.169-8-5.863V16a2 2 0 00-4 0v2.121c-4.563.569-8 3.153-8 7.879 0 4.814 3.889 6.404 8 7.496v8.269c-3.453-.849-4.243-3.764-6-3.764-1.281 0-2 .979-2 1.999 0 1.565 2.639 5.124 8 5.858V48a2 2 0 004 0v-2.104c5.643-.576 8-3.648 8-7.895 0-4.46-3.269-6.102-8-7.458zM26 26c0-1.417.616-3.321 4-3.853v7.314c-2.295-.67-4-1.496-4-3.461zm8 15.8v-7.245c3.417 1.079 4 2.142 4 3.446 0 1.816-1.416 3.294-4 3.799z" fill-rule="evenodd" clip-rule="evenodd" fill="#fff"/></svg>