<svg xmlns="http://www.w3.org/2000/svg" width="64" height="64"><path d="M60 0H4a4 4 0 00-4 3.999v56A4 4 0 004 64h56a4 4 0 004-4.001v-56A4 4 0 0060 0z" fill="#e6e6e6"/><path d="M36 0v64h4V0h-4zM24 64h4V0h-4v64zm-12 0h4V0h-4v64z" fill-rule="evenodd" clip-rule="evenodd" fill="#ccc"/><path fill="#88c057" d="M48 0h4v64h-4z"/><path d="M64 24.862L51.732 12.596A2.153 2.153 0 0050 11.979a2.156 2.156 0 00-1.733.617L26 34.862 15.732 24.596A2.153 2.153 0 0014 23.979a2.156 2.156 0 00-1.733.617L0 36.862v6.137l14-14 10.335 10.335a2.155 2.155 0 001.665.623 2.154 2.154 0 001.664-.623L50 16.999l14 14v-6.137z" fill-rule="evenodd" clip-rule="evenodd" fill="#ed7161"/><path d="M14 21.999a4 4 0 100 8 4 4 0 000-8zM26 34a4 4 0 100 8 4 4 0 000-8zm24-24a4 4 0 10-.001 7.999A4 4 0 0050 10z" fill-rule="evenodd" clip-rule="evenodd" fill="#ed7161"/></svg>