<svg xmlns="http://www.w3.org/2000/svg" width="64" height="64"><path d="M60 0H4a4 4 0 00-4 3.999v56A4 4 0 004 64h56a4 4 0 004-4.001v-56A4 4 0 0060 0z" fill="#e6e6e6"/><path d="M36 64h4V0h-4v64zm-12 0h4V0h-4v64zm-12 0h4V0h-4v64zM48 0v64h4V0h-4z" fill-rule="evenodd" clip-rule="evenodd" fill="#ccc"/><path d="M50 42H14a2 2 0 00-2 1.999v8a2 2 0 002 2h36a2 2 0 002-2v-8A2 2 0 0050 42z" fill="#48a0dc"/><path d="M26 26H14a2 2 0 00-2 1.999V36a2 2 0 002 1.999h12A2 2 0 0028 36v-8.001A2 2 0 0026 26z" fill="#88c057"/><path d="M38 10H14a2 2 0 00-2 1.999v8a2 2 0 002 2h24a2 2 0 002-2v-8A2 2 0 0038 10z" fill="#ed7161"/></svg>