<svg xmlns="http://www.w3.org/2000/svg" width="64" height="64"><path d="M60 12c-10-2-22-6-22-6H26s-14 4-22 6c-1.94.484-4 1.791-4 4v44a4 4 0 004 4h56a4 4 0 004-4V16c0-2.209-2.039-3.608-4-4z" fill="#666"/><path fill="#fff" d="M44 6H20l-2 3.999L32 58 46 9.999z"/><path fill="#48a0dc" d="M34 30l2-4-4-4-4 4 2 4-4 14 6 10 6-10z"/><path d="M32 0c-6.526 0-12 3.513-12 8 0 4.486 8.793 14 12 14s12-9.514 12-14c0-4.487-5.474-8-12-8z" fill="#e6e6e6"/><path d="M32 0c-6.526 0-12 3.513-12 8 0 .587.157 1.263.426 1.988C21.778 6.513 26.494 4 32 4s10.222 2.513 11.574 5.988C43.843 9.263 44 8.587 44 8c0-4.487-5.474-8-12-8z" fill="#ccc"/><path fill="#4d4d4d" d="M58 16L46 8 32 52 18 8 6 16l8 2-6 6 24 36 24-36-6-6z"/><path fill="#fff" d="M54 38l-6 6h12z"/></svg>