<svg xmlns="http://www.w3.org/2000/svg" width="56" height="64"><path d="M28 0C16.91 0 12 6 12 16v28h32V16C44 6 37.457 0 28 0z" fill="#a67c52"/><path fill="#dbb59a" d="M32 30.001h-8l-2 8V64h12V38.001z"/><path d="M4 48C.239 51.76 0 64 0 64h28l-8-24S5.88 46.12 4 48zm48 0c-1.881-1.88-16-8-16-8l-8 24h28s-.24-12.24-4-16z" fill="#48a0dc"/><path d="M10 48l10 2 6 14h2l-6-25.999L10 48zm24-9.999L28 64h2l6-14 10-2-12-9.999z" fill="#fff"/><path d="M33.503 11.965C31.938 15.428 26.538 18 20 18h-3.971c.088 3.917.451 6.961 1.971 10 2 4 6.081 8 10 8 3.918 0 8-4 10-8 1.772-3.544 1.974-7.095 1.996-12.031-.039-2.28-4.34-4.004-6.493-4.004z" fill-rule="evenodd" clip-rule="evenodd" fill="#f6cbad"/><path d="M45.589 13.041C43.841 6.731 36.635 2.001 28 2.001s-15.841 4.73-17.589 11.04C9.075 13.773 8 14.826 8 16.001v4c0 2.209 3.791 4 6 4v-8c0-5.523 6.268-10 14-10 7.731 0 14 4.477 14 10v4c0 4.287-2.703 7.934-6.494 9.355A2.996 2.996 0 0033 28.001h-4a3 3 0 100 6h4c.295 0 .574-.056.843-.135 5.897-.778 10.64-5.214 11.853-10.963 1.285-.73 2.304-1.758 2.304-2.902v-4c0-1.175-1.075-2.228-2.411-2.96z" fill-rule="evenodd" clip-rule="evenodd" fill="#4d4d4d"/></svg>