<svg xmlns="http://www.w3.org/2000/svg" width="64" height="64"><path d="M60 0H40c-2 0-4 0-6 2L2 34.001s-2 2-2 4c0 1.999 2 4 2 4l20 20S24 64 26 64s4-1.999 4-1.999l32-32c1.934-1.934 2-4.051 2-6.001V4a4 4 0 00-4-4z" fill="#48a0dc"/><circle cx="50" cy="14" r="8" fill="#387ba8"/><circle cx="50" cy="14" r="4" fill="#fff"/><path d="M18 30.001a6 6 0 100 12 6 6 0 000-12zm0 8A2 2 0 1118.001 34 2 2 0 0118 38zm22-10a6 6 0 100 12 6 6 0 000-12zm0 8A2 2 0 1140.001 32 2 2 0 0140 36zM28.049 23.526a2.08 2.08 0 00-2.545-1.456 2.057 2.057 0 00-1.469 2.522l5.915 21.882a2.081 2.081 0 002.546 1.456 2.059 2.059 0 001.469-2.522l-5.916-21.882z" fill-rule="evenodd" clip-rule="evenodd" fill="#fff"/></svg>