<svg xmlns="http://www.w3.org/2000/svg" width="63.968" height="64.033"><path d="M52 8.033H36c-2 0-4 0-6 2L2 38.034s-2 1.999-2 3.999 2 4.001 2 4.001l16 16s2 1.999 4 1.999 4-1.999 4-1.999l28-28.001c1.934-1.933 2-4.05 2-6v-16a4 4 0 00-4-4z" fill="#ed7161"/><circle cx="44" cy="20.033" r="8" fill="#ba594c"/><circle cx="44" cy="20.033" r="4" fill="#fff"/><path d="M63.355.612a2.09 2.09 0 00-2.955 0L42.578 18.434a2.093 2.093 0 000 2.956c.816.815 2.14.815 2.956 0L63.355 3.567a2.088 2.088 0 000-2.955z" fill="#a67c52"/><path d="M33.383 43.144L20.827 30.588a2.016 2.016 0 00-2.854 0l-9.419 9.419a2.018 2.018 0 000 2.854L21.11 55.416a2.018 2.018 0 002.854 0l9.419-9.419a2.017 2.017 0 000-2.853z" fill="#fff"/></svg>