<svg xmlns="http://www.w3.org/2000/svg" width="43.965" height="63.968"><path d="M24 9.999L0 28v8a2 2 0 002 2h8l18-24-4-4.001z" fill="#387ba8"/><path d="M34 0h-8a4 4 0 00-4 4v3.733c-.066 1.063.269 2.146 1.082 2.958L26 14h8l2.858-3.309A3.821 3.821 0 0037.98 8H38V4a4 4 0 00-4-4z" fill="#387ba8"/><path d="M34 14c-1.525-1.525-2.438-2-4-2s-2.475.475-4 2L16 50c.008 1.049.38 2.096 1.18 2.896l9.858 9.858a4.143 4.143 0 005.858 0l9.858-9.858A4.125 4.125 0 0043.964 50L34 14z" fill="#48a0dc"/><path d="M43.187 47.186L22.522 26.521l-1.739 6.261 21.043 21.044.929-.93A4.125 4.125 0 0043.965 50l-.778-2.814zm-6.124-22.124L26 14l-1.739 6.26 15.863 15.864-3.061-11.062zM17.305 45.304l16.521 16.522 4-4-18.782-18.783-1.739 6.261z" fill="#387ba8"/></svg>