<svg xmlns="http://www.w3.org/2000/svg" width="64.034" height="56.017"><path d="M63.774 33.017c-.536-.956-1.722-1.284-2.649-.731L38.77 45.242 13.867 1.229c-.03-.071-.054-.144-.093-.213a1.938 1.938 0 00-1.216-.938 1.957 1.957 0 00-1.541.195 1.962 1.962 0 00-.383.302L.97 6.285C.042 6.837-.276 8.061.26 9.017c.535.957 1.722 1.284 2.648.732l8.364-4.941 6.376 11.269c-3.885 3.779-4.835 9.677-1.915 14.474l8.959 14.717-1.723 1.018c-.928.552-1.246 1.775-.71 2.731.535.957 1.722 1.284 2.648.732l8.838-5.222 2.425 4.286c.029.068.052.138.089.203a1.93 1.93 0 001.215.938 1.96 1.96 0 001.542-.194c.14-.082.261-.183.374-.291l23.673-13.721c.929-.551 1.246-1.774.711-2.731zM28.302 43.135l-8.888-14.6c-1.702-2.797-1.429-6.153.396-8.638l11.981 21.176-3.489 2.062z" fill-rule="evenodd" clip-rule="evenodd" fill="#ccc"/><circle cx="24.017" cy="48.017" r="8" fill="#999"/><circle cx="24.017" cy="48.018" r="4" fill="#fff"/><path d="M59.409 29.605l-10-17.32a1.999 1.999 0 00-2.731-.732l-17.32 10a1.999 1.999 0 00-.732 2.732l10 17.32a2 2 0 002.732.732l17.32-10a2 2 0 00.731-2.732z" fill="#d9a16a"/><path d="M40.481 12.821l-6-10.393a2 2 0 00-2.732-.732l-10.392 6a2 2 0 00-.732 2.732l6 10.392a1.999 1.999 0 002.732.732l10.392-6a1.998 1.998 0 00.732-2.731z" fill="#f2b477"/></svg>