<svg xmlns="http://www.w3.org/2000/svg" width="64" height="52.013"><path d="M52 .013l-48 4c-2.209.189-4 .268-4 1.999v16l56 2.001v-20c0-2.169-1.791-4.191-4-4z" fill="#735538"/><path d="M56 8.013H2a2 2 0 01-2-2.001v42.001a4 4 0 004 4h52a4 4 0 004-4v-36a4 4 0 00-4-4z" fill-rule="evenodd" clip-rule="evenodd" fill="#a67c52"/><path d="M62 20.013h-2v8h4v-6.001a2 2 0 00-2-1.999z" fill-rule="evenodd" clip-rule="evenodd" fill="#402f1f"/><path d="M62 24.013H50a6 6 0 100 12h10a4 4 0 004-4V22.012a2 2 0 01-2 2.001z" fill-rule="evenodd" clip-rule="evenodd" fill="#735538"/><circle cx="50" cy="30.013" r="2" fill="#fff"/></svg>