<svg xmlns="http://www.w3.org/2000/svg" width="64" height="48.001"><circle cx="8" cy="40.001" r="8" fill="#999"/><circle cx="8" cy="40.001" r="4" fill="#fff"/><path d="M55.596 16.874a2.029 2.029 0 00-2.822-.496l-19.919 13.91a2.008 2.008 0 00-.854 1.773v9.225L19.776 29.063a1.896 1.896 0 00-.347-.492 1.908 1.908 0 00-1.43-.556 1.903 1.903 0 00-1.43.556 1.92 1.92 0 00-.347.492l-9.653 9.653a1.92 1.92 0 002.715 2.716L18 32.715l14.268 14.268A1.99 1.99 0 0034 48.001c.059 0 .114-.012.171-.017.458-.023.909-.204 1.259-.553s.53-.801.553-1.259c.005-.057.017-.112.017-.171V33.026l19.099-13.337a2.018 2.018 0 00.497-2.815z" fill-rule="evenodd" clip-rule="evenodd" fill="#ccc"/><path d="M62 16.001h-8a2 2 0 000 4h8a2 2 0 000-4z" fill="#48a0dc"/><path d="M36 12.001h4A2 2 0 0040 8h-5.99A1.999 1.999 0 0034 4.001h-4A2 2 0 0030 0h-6a2 2 0 000 4.001h4A2 2 0 0027.99 8h-3.98A1.999 1.999 0 0024 4.001h-6A2 2 0 0017.99 8H14a2 2 0 000 4.001h-4a2 2 0 100 4h6a2 2 0 000-4h4a2 2 0 00.01-4h3.98a2 2 0 00.01 4h-4a2 2 0 100 4h6a2 2 0 000-4h4a2 2 0 00.01-4h3.98a2 2 0 00.01 4h-4a2 2 0 100 4h6a2 2 0 000-4zm10 0h-6a2 2 0 100 4h6a2 2 0 000-4z" fill-rule="evenodd" clip-rule="evenodd" fill="#fc6"/><path d="M48 14.001H6c-.97 0-2 .919-2 2 0 1.24 0 2 2 4l14 14c1.625 1.625 3.063 2 4 2s2.326-.954 4-2l20-14c1.452-1.146 2-2.563 2-4s-1.042-2-2-2z" fill="#ed7161"/></svg>