<svg xmlns="http://www.w3.org/2000/svg" width="56" height="64"><path d="M28 0C16.91 0 12 6 12 16v28h32V16C44 6 37.457 0 28 0z" fill="#8c6845"/><path d="M52 48c-1.881-1.88-16-7.999-16-7.999H20S5.88 46.12 4 48C.239 51.761 0 64 0 64h56s-.24-12.239-4-16z" fill="#f06eaa"/><path d="M34 38.001H22l-2 2s2 4 8 4 8-4 8-4l-2-2z" fill="#bd5786"/><path d="M32 30h-8l-2 8s2.023 2.001 6 2.001 6-2 6-2L32 30z" fill="#dbb59a"/><path d="M33.503 11.966C31.938 15.428 26.538 18 20 18h-3.971c.088 3.917.451 6.961 1.971 10.001 2 3.999 6.081 8 10 8 3.918 0 8-4.001 10-8 1.772-3.545 1.974-7.096 1.996-12.031-.039-2.282-4.34-4.004-6.493-4.004z" fill-rule="evenodd" clip-rule="evenodd" fill="#f6cbad"/></svg>