<svg xmlns="http://www.w3.org/2000/svg" width="56" height="64"><path d="M28 0C16.91 0 12 6 12 16v28h32V16C44 6 37.457 0 28 0z" fill="#666"/><path fill="#dbb59a" d="M32 30.001h-8l-2 8V64h12V38.001z"/><path d="M4 48C.239 51.761 0 64 0 64h28l-8-23.999S5.88 46.12 4 48zm48 0c-1.881-1.88-16-7.999-16-7.999L28 64h28s-.24-12.239-4-16z" fill="#d46557"/><path d="M10 48.001L20 50l6 14h2l-6-25.999-12 10zm24-10L28 64h2l6-14 10-1.999-12-10z" fill="#fff"/><path d="M33.503 11.966C31.938 15.428 26.538 18 20 18h-3.971c.088 3.917.451 6.961 1.971 10.001 2 3.999 6.081 8 10 8 3.918 0 8-4.001 10-8 1.772-3.545 1.974-7.096 1.996-12.031-.038-2.282-4.34-4.004-6.493-4.004z" fill-rule="evenodd" clip-rule="evenodd" fill="#f6cbad"/></svg>