<svg xmlns="http://www.w3.org/2000/svg" width="64" height="48"><path d="M60 0H4a4 4 0 00-4 4v40a4 4 0 004 4h56a4 4 0 004-4V4a4 4 0 00-4-4z" fill="#e6e6e6"/><path d="M56 38h-4a2 2 0 000 4h4a2 2 0 000-4zm-4-4h4a2 2 0 000-4h-4a2 2 0 000 4z" fill-rule="evenodd" clip-rule="evenodd" fill="#b3b3b3"/><circle cx="24" cy="24" r="20" fill="#b3b3b3"/><path d="M36.089 23.536c-2.052-1.121-6.266-1.927-9.128-1.317C28.774 20.002 30 16.236 30 14c0-3.314-2.687-4-6-4s-6 .686-6 4c0 2.236 1.226 6.002 3.04 8.219-2.863-.609-7.077.196-9.128 1.317-2.883 1.574-2.131 4.112-.467 6.84s3.61 4.612 6.493 3.038c2.801-1.531 7.082-6.656 5.795-9.447.089.01.177.033.267.033s.178-.023.268-.033c-1.288 2.791 2.994 7.916 5.795 9.447 2.883 1.574 4.828-.311 6.493-3.038 1.664-2.728 2.416-5.266-.467-6.84z" fill-rule="evenodd" clip-rule="evenodd" fill="#999"/><circle cx="24" cy="24" r="4" fill="#b3b3b3"/><path d="M44 10H4a2 2 0 000 4h40a2 2 0 000-4zm0 8H4a2 2 0 000 4h40a2 2 0 000-4zm0 8H4a2 2 0 000 4h40a2 2 0 000-4zm0 8H4a2 2 0 000 4h40a2 2 0 000-4zM4 6h40a2 2 0 000-4H4a2 2 0 000 4zm40 36H4a2 2 0 000 4h40a2 2 0 000-4z" fill-rule="evenodd" clip-rule="evenodd" fill="#e6e6e6"/></svg>