<svg xmlns="http://www.w3.org/2000/svg" width="64" height="60"><path d="M13 48a3 3 0 00-3 3v5.999a3 3 0 106 0V51a3 3 0 00-3-3zm38 0a3 3 0 00-3 3v5.999a3 3 0 106 0V51a3 3 0 00-3-3z" fill-rule="evenodd" clip-rule="evenodd" fill="#735538"/><path d="M32 0C10 0 6 4 6 9.999 6 20 10 20 10 46h44c0-26 4-26 4-36.001C58 4 52 0 32 0z" fill="#a67c52"/><path d="M54 9.999C54 5.999 46 4 32 4S10 5.999 10 9.999c0 5.411 3.251 5.953 3.891 28.001H12v8h40v-8h-1.891C50.749 15.952 54 15.41 54 9.999z" fill-rule="evenodd" clip-rule="evenodd" fill="#ccc2b8"/><path d="M32 13.999a2 2 0 100 4 2 2 0 000-4zM38 8a2 2 0 10-.002 3.998A2 2 0 0038 8zM26 20a2 2 0 10-.001 3.999A2 2 0 0026 20zm12 0a2 2 0 10-.001 3.999A2 2 0 0038 20zm6-2a2 2 0 10-.001-4.001A2 2 0 0044 18zm-24 8a2 2 0 10-.001 3.999A2 2 0 0020 26zm12 0a2 2 0 10-.001 3.999A2 2 0 0032 26zm12 0a2 2 0 10-.001 3.999A2 2 0 0044 26zM26 8a2 2 0 10-.002 3.998A2 2 0 0026 8zm-6 5.999a2 2 0 100 4 2 2 0 000-4z" fill-rule="evenodd" clip-rule="evenodd" fill="#b3aaa1"/><path d="M50 33.999H14A2 2 0 0012 36v1.999h40V36a2 2 0 00-2-2.001z" fill="#e6dacf"/><path d="M58 24a6 6 0 00-6 6v8c0 4-2 8-4 8H16c-2 0-4-4-4-8v-8a6 6 0 00-12 0c0 6 6 6 6 8 0 0 0 17.999 6 17.999h40c6 0 6-17.999 6-17.999 0-2 6-2 6-8a6 6 0 00-6-6z" fill-rule="evenodd" clip-rule="evenodd" fill="#a67c52"/></svg>