<svg xmlns="http://www.w3.org/2000/svg" width="64" height="64"><path d="M36 58h-8c-4 0-18 2-18 4 0 1 0 2 2 2h38c2 0 4-1 4-2 0-2-14-4-18-4z" fill="#ccc"/><path d="M28 48.001V58c0 1 0 2 4 2s4-1 4-2v-9.999h-8z" fill="#b3b3b3"/><path d="M0 18.001v4c0 12 12 28 32 28s32-16 32-28v-4H0z" fill="#666"/><path d="M32 0C10 0 0 10.001 0 18.001s8 22 32 22 32-14 32-22S54 0 32 0z" fill="#f83"/><path d="M32 4C16 4 8 10.001 8 20c0 4 2 8.001 4 10.001h40c2-2 4-6.001 4-10.001 0-9.999-8-16-24-16z" fill="#cc6d29"/><path d="M32 26.001c-12 0-20 2-20 4 2 2 10 4 20 4s18.063-2 20-4c0-2-8-4-20-4z" fill="#fc6"/></svg>