<svg xmlns="http://www.w3.org/2000/svg" width="64" height="44"><path d="M58 0H6a2 2 0 00-2 2v20a2 2 0 002 2h52a2 2 0 002-2V2a2 2 0 00-2-2z" fill="#666"/><path d="M28 12c-1 0-6 2-8 2h-2c-2 0-7-2-8-2s-2 1-2 2 2 4 2 6-2 5-2 6 1 2 2 2 6-2 8-2h2c2 0 7 2 8 2s2-1 2-2-2-4-2-6c0-1.951 2-5 2-6s-1-2-2-2zm28 2c0-1-1-2-2-2s-6 2-8 2h-2c-2 0-7-2-8-2s-2 1-2 2 2 4 2 6-2 5-2 6 1 2 2 2 6-2 8-2h2c2 0 7 2 8 2s2-1 2-2-2-4-2-6c0-1.951 2-5 2-6z" fill-rule="evenodd" clip-rule="evenodd" fill="#fff"/><path d="M60 20H4a2 2 0 00-2 2v8a2 2 0 002 2h56a2 2 0 002-2v-8a2 2 0 00-2-2z" fill="#ccc"/><path d="M60 28H4a2 2 0 00-2 2v12a2 2 0 002 2h4a2 2 0 002-2v-2h44v2a2 2 0 002 2h4a2 2 0 002-2V30a2 2 0 00-2-2z" fill-rule="evenodd" clip-rule="evenodd" fill="#4d4d4d"/><path d="M62 28H2a2 2 0 00-2 2v4a2 2 0 002 2h60a2 2 0 002-2v-4a2 2 0 00-2-2z" fill="#666"/></svg>