<svg xmlns="http://www.w3.org/2000/svg" width="64" height="56"><path d="M54 52v2a2 2 0 002 2h4a2 2 0 002-2v-2h-8zM2 54a2 2 0 002 2h4a2 2 0 002-2v-2H2v2z" fill-rule="evenodd" clip-rule="evenodd" fill="#735538"/><path d="M58 0a2 2 0 00-2 2v9.079A7.945 7.945 0 0052 10H12a7.945 7.945 0 00-4 1.079V2a2 2 0 00-4 0v32h56V2a2 2 0 00-2-2z" fill-rule="evenodd" clip-rule="evenodd" fill="#a67c52"/><path d="M28 18c-1 0-6 2-8 2h-2c-2 0-7-2-8-2s-2 1-2 2 2 4 2 6-2 5-2 6 1 2 2 2 6-2 8-2h2c2 0 7 2 8 2s2-1 2-2-2-4-2-6c0-1.951 2-5 2-6s-1-2-2-2zm28 2c0-1-1-2-2-2s-6 2-8 2h-2c-2 0-7-2-8-2s-2 1-2 2 2 4 2 6-2 5-2 6 1 2 2 2 6-2 8-2h2c2 0 7 2 8 2s2-1 2-2-2-4-2-6c0-1.951 2-5 2-6z" fill-rule="evenodd" clip-rule="evenodd" fill="#fff"/><path d="M58 26H6a2 2 0 00-2 2v8a2 2 0 002 2h52a2 2 0 002-2v-8a2 2 0 00-2-2z" fill="#ccc"/><path d="M62 28a2 2 0 00-2 2v4H4v-4a2 2 0 00-4 0v20a2 2 0 002 2h60a2 2 0 002-2V30a2 2 0 00-2-2z" fill-rule="evenodd" clip-rule="evenodd" fill="#a67c52"/></svg>