<svg xmlns="http://www.w3.org/2000/svg" width="40" height="64"><path d="M32 40H8c-2 6-4 8-4 14s2 10 6 10h20c4 0 6-4 6-10s-2-8-4-14z" fill="#88c057"/><ellipse cx="20" cy="56" rx="4" ry="2" fill="#666"/><path fill="#686b65" d="M30 34H10l-2 6h24zm2-30v6h2c2 0 2 8 2 14 0 2 0 4 2 4s2-2 2-4c0-20-2-20-8-20z"/><path d="M6 4C4 4 0 6 0 6c0 2 2 4 8 8C8 14 8 4 6 4z" fill="#ccc"/><path d="M6 3.999C6 6 8 34 10 34h20c2 0 4-28 4-30.001H6z" fill="#e6e6e6"/><path d="M20 0C16 0 6 2 6 4h28c0-2-10-4-14-4z" fill="#88c057"/></svg>