<svg xmlns="http://www.w3.org/2000/svg" width="52" height="64"><path d="M40 60v2a2 2 0 002 2h4a2 2 0 002-2v-2h-8zM4 62a2 2 0 002 2h4a2 2 0 002-2v-2H4v2z" fill-rule="evenodd" clip-rule="evenodd" fill="#387ba8"/><path d="M48 0H4a4 4 0 00-4 4v52a4 4 0 004 4h44a4 4 0 004-4V4a4 4 0 00-4-4zm0 54a2 2 0 01-2 2H6a2 2 0 01-2-2v-5.999a2 2 0 012-2h40a2 2 0 012 2V54zm0-13.999a2 2 0 01-2 2H6a2 2 0 01-2-2v-6a2 2 0 012-2h40a2 2 0 012 2v6zm0-14a2 2 0 01-2 2H6a2 2 0 01-2-2V20a2 2 0 012-1.999h40A2 2 0 0148 20v6.001zM48 12a2.002 2.002 0 01-2 2.001H6A2 2 0 014 12V6.001A2 2 0 016 4h40a2 2 0 012 2.001V12z" fill-rule="evenodd" clip-rule="evenodd" fill="#48a0dc"/></svg>