<svg xmlns="http://www.w3.org/2000/svg" width="64" height="64"><path d="M52 60v2a2 2 0 002 2h4a2 2 0 002-2v-2h-8zM4 62a2 2 0 002 2h4a2 2 0 002-2v-2H4v2z" fill-rule="evenodd" clip-rule="evenodd" fill="#6d5778"/><path d="M60 28.001H44v-10a4 4 0 00-4-4H24V4a4 4 0 00-4-4H4a4 4 0 00-4 4v52a4 4 0 004 4h56a4 4 0 004-4V32.001a4 4 0 00-4-4zM20 54a2 2 0 01-2 2H6a2 2 0 01-2-2v-5.999a2 2 0 012-2h12a2 2 0 012 2V54zm0-13.999a2 2 0 01-2 2H6a2 2 0 01-2-2v-6a2 2 0 012-2h12a2 2 0 012 2v6zm0-14a2 2 0 01-2 2H6a2 2 0 01-2-2V20a2 2 0 012-1.999h12A2 2 0 0120 20v6.001zM20 12a2.002 2.002 0 01-2 2.001H6A2 2 0 014 12V6.001A2 2 0 016 4h12a2 2 0 012 2.001V12zm20 42a2 2 0 01-2 2H26a2 2 0 01-2-2v-5.999a2 2 0 012-2h12a2 2 0 012 2V54zm0-13.999a2 2 0 01-2 2H26a2 2 0 01-2-2v-6a2 2 0 012-2h12a2 2 0 012 2v6zm0-14a2 2 0 01-2 2H26a2 2 0 01-2-2V20a2 2 0 012-1.999h12A2 2 0 0140 20v6.001zM60 54a2 2 0 01-2 2H46a2 2 0 01-2-2v-5.999a2 2 0 012-2h12a2 2 0 012 2V54zm0-13.999a2 2 0 01-2 2H46a2 2 0 01-2-2v-6a2 2 0 012-2h12a2 2 0 012 2v6z" fill-rule="evenodd" clip-rule="evenodd" fill="#9b7cab"/></svg>