<svg xmlns="http://www.w3.org/2000/svg" width="64" height="40"><path d="M0 40h2c2 0 2-4 4-4H0v4zm58-4c2 0 2 4 4 4h2v-4h-6z" fill-rule="evenodd" clip-rule="evenodd" fill="#735538"/><path d="M60 0H4a4 4 0 00-4 4v32h64V4a4 4 0 00-4-4z" fill="#a67c52"/><path d="M18 4H6a2 2 0 00-2 2v24a2 2 0 002 2h12a2 2 0 002-2V6a2 2 0 00-2-2zm20 0H26a2 2 0 00-2 2v24a2 2 0 002 2h12a2 2 0 002-2V6a2 2 0 00-2-2zm20 0H46a2 2 0 00-2 2v24a2 2 0 002 2h12a2 2 0 002-2V6a2 2 0 00-2-2z" fill-rule="evenodd" clip-rule="evenodd" fill="#e6ab70"/><path d="M16 15.999a2 2 0 10.002 4.002A2 2 0 0016 15.999zM28 16a2 2 0 100 4 2 2 0 000-4zm20 0a2 2 0 10-.001 3.999A2 2 0 0048 16z" fill-rule="evenodd" clip-rule="evenodd" fill="#735538"/></svg>