<svg xmlns="http://www.w3.org/2000/svg" width="52" height="64"><path d="M48 0H4a4 4 0 00-4 4v56a4 4 0 004 4h44a4 4 0 004-4V4a4 4 0 00-4-4z" fill="#a67c52"/><path d="M46 52.001H6a2 2 0 00-2 2V58a2 2 0 002 2h40a2 2 0 002-2v-3.999a2 2 0 00-2-2zm0-12H6a2 2 0 00-2 2v4a2 2 0 002 2h40a2 2 0 002-2v-4a2 2 0 00-2-2z" fill-rule="evenodd" clip-rule="evenodd" fill="#e6ab70"/><path d="M22 4H6a2 2 0 00-2 2.001v28a2 2 0 002 2h16a2 2 0 002-2v-28A2 2 0 0022 4zm24 0H30a2 2 0 00-2 2.001v28a2 2 0 002 2h16a2 2 0 002-2v-28A2 2 0 0046 4z" fill-rule="evenodd" clip-rule="evenodd" fill="#ccc"/><path d="M4 16.001h20v-4H4v4zm24-4v4h20v-4H28zm-24 16h20v-4H4v4zm24 0h20v-4H28v4z" fill-rule="evenodd" clip-rule="evenodd" fill="#b3b3b3"/><path d="M12 54.001a2 2 0 100 4 2 2 0 000-4zm0-12a2 2 0 100 4 2 2 0 000-4zm28 12a2 2 0 10-.002 3.998A2 2 0 0040 54.001zm0-8A2 2 0 1039.999 42 2 2 0 0040 46z" fill-rule="evenodd" clip-rule="evenodd" fill="#735538"/></svg>