<svg xmlns="http://www.w3.org/2000/svg" width="44" height="63.938"><path d="M4 31.938l2 23.999s0 2 2 2 2-2 2-2L8 31.938H4zm32 0l-2 23.999s0 2 2 2 2-2 2-2l2-23.999h-4z" fill-rule="evenodd" clip-rule="evenodd" fill="gray"/><path d="M40 15.938h-4l2.783 32.001H5.217L8 15.938H4l-4 46s0 2 2 2 2-2 2-2l.87-9.999h34.26l.87 9.999s0 2 2 2 2-2 2-2l-4-46z" fill-rule="evenodd" clip-rule="evenodd" fill="#b3b3b3"/><path d="M38 31.938H6a4 4 0 00-4 4.001v2h40v-2a4 4 0 00-4-4.001z" fill="#48a0dc"/><path d="M22 0C8 0 4 1.938 4 7.938v8h36v-8C40 1.938 36 0 22 0zm2 7.938h-4a2 2 0 110-4h4a2 2 0 010 4z" fill-rule="evenodd" clip-rule="evenodd" fill="#48a0dc"/></svg>