<svg xmlns="http://www.w3.org/2000/svg" width="36" height="63.999"><path d="M0 38v23.999a2 2 0 004 0V58h28v3.999a2 2 0 004 0V38H0zm32 16H4V42h28v12z" fill-rule="evenodd" clip-rule="evenodd" fill="#d46557"/><path fill="#ed7161" d="M32 30H4l-4 4v4h36v-4z"/><path d="M18 0C10 0 4 0 4 6v24h4v-4h20v4h4V6c0-6-6-6-14-6zm2 4.004V22h-4V4.004a417.446 417.446 0 014 0zM8 8c0-2.708.924-3.581 4-3.863V22H8V8zm20 14h-4V4.137c3.076.282 4 1.155 4 3.863v14z" fill-rule="evenodd" clip-rule="evenodd" fill="#ba594c"/></svg>