<svg xmlns="http://www.w3.org/2000/svg" width="36" height="64"><path d="M0 38.001V62a2 2 0 004 0V50.001h28V62a2 2 0 004 0V38.001H0zm32 8H4v-4h28v4z" fill-rule="evenodd" clip-rule="evenodd" fill="#a67c52"/><path d="M32 30.001H4a4 4 0 00-4 4v4h36v-4a4 4 0 00-4-4z" fill="#ccc2b8"/><path d="M32 0a2 2 0 00-2 2.001l-.279 3.908C28.475 5.51 23.239 3.938 18 3.938S7.524 5.511 6.279 5.91L6 2.001a2 2 0 10-4 0l2 28h4l-.46-6.455c2.165-.59 6.312-1.545 10.461-1.545s8.296.956 10.461 1.545L28 30.001h4l2-28A2 2 0 0032 0zM18 17.938c-4.344 0-8.675 1.078-10.742 1.674l-.279-3.91C8.917 15.145 13.456 14 18 14s9.084 1.146 11.021 1.702l-.279 3.91c-2.067-.596-6.398-1.674-10.742-1.674z" fill-rule="evenodd" clip-rule="evenodd" fill="#8c6845"/></svg>