<svg xmlns="http://www.w3.org/2000/svg" width="52" height="64"><path d="M48 0H4a4 4 0 00-4 4v56a4 4 0 004 4h44a4 4 0 004-4V4a4 4 0 00-4-4z" fill="#a67c52"/><path d="M46 50H6a2 2 0 00-2 2v6a2 2 0 002 2h40a2 2 0 002-2v-6a2 2 0 00-2-2z" fill="#e6ab70"/><path d="M22 4H6a2 2 0 00-2 2v38a2 2 0 002 2h16a2 2 0 002-2V6a2 2 0 00-2-2zm24 0H30a2 2 0 00-2 2v38a2 2 0 002 2h16a2 2 0 002-2V6a2 2 0 00-2-2z" fill-rule="evenodd" clip-rule="evenodd" fill="#e6ab70"/><path d="M32 24a2 2 0 10.001 4.001A2 2 0 0032 24zm-12 0a2 2 0 10.001 4.001A2 2 0 0020 24zm6 28a2 2 0 10-.001 3.999A2 2 0 0026 52z" fill-rule="evenodd" clip-rule="evenodd" fill="#735538"/></svg>