<svg xmlns="http://www.w3.org/2000/svg" width="52" height="64"><path d="M46 10H36v14c4 0 4-10 8-10 2 0 4 0 4 4 0 12-6 11.764-6 14 0 2 2 2 4 2s6-8 6-16c0-4-2-8-6-8z" fill="#666"/><path d="M4.063 10C2.125 10 0 10 0 12s2.029 3.969 4.03 5.968S14 28 14 28V10H4.063z" fill="#e6e6e6"/><path d="M14 36h20c2 0 6-24 6-26H8c0 2 4 26 6 26zm20 4H14c-2 0-6 20-6 22s2 2 4 2h24c2 0 4 0 4-2s-4-22-6-22z" fill="#ccc"/><path fill="#999" d="M14 36h20v4H14z"/><path d="M28 36l4-26H16l4 26h8zm-8 4s-4 22-4 24h16c0-2-4-24-4-24h-8z" fill="#e6e6e6"/><path d="M26 6V2a2 2 0 00-4 0v4C20 6 8 8 8 10h32c0-2-12-4-14-4z" fill-rule="evenodd" clip-rule="evenodd" fill="#666"/></svg>