<svg xmlns="http://www.w3.org/2000/svg" width="56" height="64"><path d="M46 30H24c-2 0-4 2-4 4h24c2 0 9 8 10 8s2-1 2-2c-.179-.984-6-10-10-10z" fill="#333"/><path d="M44 34H20s-2 4-4 10h32c-2-6-4-10-4-10z" fill="#ccc"/><path d="M48 44H16c-2 6-2 8-2 10 0 0 0 4 4 4h28c4 0 4-4 4-4 0-2 0-4-2-10z" fill="#a67c52"/><path d="M50 58H22c-2 0-4-2-4-4V8h32c0-2 0-4-2-4H4C2 4 0 6 0 8c0 8 4 12 4 26S0 52 0 60c0 2 2.063 4 4 4h48c1.104 0 2 0 2-2 0-1-3-4-4-4z" fill="#666"/><path d="M14 8c0 14 10 22 12 22h12c2 0 12-8 12-22H14zm22-8h-8c-2 0-12 2-12 4h32c0-2-10-4-12-4z" fill="#4d4d4d"/></svg>