<svg xmlns="http://www.w3.org/2000/svg" width="64" height="64"><path d="M0 64c6 0 8-6 10-8H4c0 2-2 8-4 8zm50-52c-2 0-4 2-6 4L30 30c-2 2-2 6-4 8h6c0-2 2-4 4-6l12-12c2-2 4-4 4-6 0-1-1-2-2-2zM18 46h6c0-2 0-4 2-6h-6c0 2 0 4-2 6zm-8 8h6c0-2 0-4 2-6h-6c0 2 0 4-2 6z" fill-rule="evenodd" clip-rule="evenodd" fill="#999"/><path d="M24 36c-2 0-4 2-4 4 6 0 6 2 8 2s4-2 4-4c-6 0-6-2-8-2zM12 48c6 0 6 2 8 2s4-2 4-4c-6 0-6-2-8-2s-4 2-4 4zm-8 8c6 0 6 2 8 2s4-2 4-4c-6 0-6-2-8-2s-4 2-4 4z" fill-rule="evenodd" clip-rule="evenodd" fill="#ccc"/><path d="M56 24c-2-2-2-6-6-10s-8-4-10-6-6-8-8-8c-4 0-6 2-6 6 0 2 6 6 8 8s2 6 6 10 8 4 10 6 6 8 8 8c4 0 6-2 6-6 0-2-6-6-8-8z" fill="#f2cda7"/></svg>