<svg xmlns="http://www.w3.org/2000/svg" width="64" height="40"><path d="M10 30.001a2 2 0 00-2 2v6a2 2 0 004 0v-6a2 2 0 00-2-2zm44 0a2 2 0 00-2 2v6a2 2 0 004 0v-6a2 2 0 00-2-2z" fill-rule="evenodd" clip-rule="evenodd" fill="#735538"/><path d="M32 0C6 0 6 4 6 8c0 4.001 2 8.001 2 22.001h48c0-14 2-18 2-22.001 0-4 0-8-26-8z" fill="#ccc2b8"/><path d="M32 6.001a2 2 0 10-.002 3.998A2 2 0 0032 6.001zm6 6A2 2 0 1037.999 16 2 2 0 0038 12zm6-6a2 2 0 10-.002 3.998A2 2 0 0044 6.001zm-18 6A2 2 0 1025.999 16 2 2 0 0026 12zm-6-6a2 2 0 10-.002 3.998A2 2 0 0020 6.001zm-6 6A2 2 0 1013.999 16 2 2 0 0014 12zm36 0A2 2 0 1049.999 16 2 2 0 0050 12z" fill-rule="evenodd" clip-rule="evenodd" fill="#b3aaa1"/><path d="M54 20H10a2 2 0 00-2 2.001V24h48v-1.999A2 2 0 0054 20z" fill="#e6dacf"/><path d="M60 16.001a4 4 0 00-4 4v4c0 2 0 6-2 6H10c-2 0-2-4-2-6v-4a4 4 0 10-8 0c0 4 4 4 4 6 0 6 0 10 4 10h2V36l44 .001h2c4 0 4-4 4-10 0-2 4-2 4-6a4 4 0 00-4-4z" fill-rule="evenodd" clip-rule="evenodd" fill="#a67c52"/></svg>