<svg xmlns="http://www.w3.org/2000/svg" width="64" height="48.001"><path d="M54 42.001H2a2 2 0 100 4h6l6 2h28l6-2h6a2 2 0 000-4z" fill="#ed7161"/><path d="M64 16.001c0-7.465-5.119-10.87-12.032-11.751.02-.74.032-1.488.032-2.249C52 0 51.104 0 50 0H6C4.896 0 4 0 4 2.001c0 26 12 40 12 40h24s1.798-2.104 4-6.18c8.691-1.445 20-11.63 20-19.82zM47.415 28.284c1.817-4.831 3.445-10.9 4.175-18.149 3.746.354 6.41 1.61 6.41 5.866 0 3.989-5.468 9.52-10.585 12.283z" fill-rule="evenodd" clip-rule="evenodd" fill="#fc6"/></svg>