<svg xmlns="http://www.w3.org/2000/svg" width="64" height="44"><path d="M60 4H4a4 4 0 00-4 4v28a4 4 0 004 4h56a4 4 0 004-4V8a4 4 0 00-4-4z" fill="#999"/><path d="M58 8H6a2 2 0 00-2 2v24.001A2 2 0 006 36h52a2 2 0 002-1.999V10a2 2 0 00-2-2z" fill="#666"/><path d="M18 14.001A2 2 0 0016 12h-4a2 2 0 00-2 2.001A2 2 0 008 16v4c0 1.104.896 2.001 2 2.001A2 2 0 008 24v4c0 1.104.896 2.001 2 2.001A2 2 0 0012 32h4a2 2 0 002-1.999A2 2 0 0020 28v-4a2 2 0 00-2-1.999A2 2 0 0020 20v-4a2 2 0 00-2-1.999zM16 28h-4v-4h4v4zm0-8h-4v-4h4v4zm22-5.999A2 2 0 0036 12h-4a2 2 0 00-2 2.001A2 2 0 0028 16v12c0 1.104.896 2.001 2 2.001A2 2 0 0032 32h4a2 2 0 002-1.999A2 2 0 0040 28V16a2 2 0 00-2-1.999zM36 28h-4V16h4v12zm18-13.999A2 2 0 0052 12h-4a2 2 0 00-2 2.001A2 2 0 0044 16v12c0 1.104.896 2.001 2 2.001A2 2 0 0048 32h4a2 2 0 002-1.999A2 2 0 0056 28V16a2 2 0 00-2-1.999zM52 28h-4V16h4v12zM24 16a2 2 0 10.002 4.002A2 2 0 0024 16zm0 8a2 2 0 10.002 4.002A2 2 0 0024 24z" fill-rule="evenodd" clip-rule="evenodd" fill="#87bf56"/><path d="M6 42.001A2 2 0 008 44h8a2 2 0 002-1.999V40H6v2.001zM46 40v2.001A2 2 0 0048 44h8a2 2 0 002-1.999V40H46z" fill-rule="evenodd" clip-rule="evenodd" fill="#999"/><path d="M38 0H14a2 2 0 00-2 2v2h28V2a2 2 0 00-2-2z" fill="gray"/><path d="M52 0h-4a2 2 0 00-2 2v2h8V2a2 2 0 00-2-2z" fill="#ed7161"/></svg>