<svg xmlns="http://www.w3.org/2000/svg" width="64" height="44.001"><path d="M0 44.001h2c2 0 2-4 4-4H0v4zm58-4c2 0 2 4 4 4h2v-4h-6z" fill-rule="evenodd" clip-rule="evenodd" fill="#735538"/><path d="M60 0H4a4 4 0 00-4 4v36.001h64V4a4 4 0 00-4-4z" fill="#a67c52"/><path d="M58 4H6a2 2 0 00-2 2v10c0 1.104.896 2.001 2 2.001h52A2 2 0 0060 16V6a2 2 0 00-2-2zm0 18.001H6A2 2 0 004 24v10.001A2 2 0 006 36h52a2 2 0 002-1.999V24a2 2 0 00-2-1.999z" fill-rule="evenodd" clip-rule="evenodd" fill="#e6ab70"/><path d="M12 8a2 2 0 100 4 2 2 0 000-4zm0 18.001a2 2 0 10-.002 3.998A2 2 0 0012 26.001zM52 12a2 2 0 10-.001-4.001A2 2 0 0052 12zm0 14.001a2 2 0 10-.002 3.998A2 2 0 0052 26.001z" fill-rule="evenodd" clip-rule="evenodd" fill="#735538"/></svg>