<svg xmlns="http://www.w3.org/2000/svg" width="52" height="64"><path d="M48 0H4a4 4 0 00-4 4v56a4 4 0 004 4h44a4 4 0 004-4V4a4 4 0 00-4-4z" fill="#a67c52"/><path d="M22 4H6a2 2 0 00-2 2v52a2 2 0 002 2h16a2 2 0 002-2V6a2 2 0 00-2-2zm24 32H30a2 2 0 00-2 2v20a2 2 0 002 2h16a2 2 0 002-2V38a2 2 0 00-2-2zm0-16H30a2 2 0 00-2 2v8a2 2 0 002 2h16a2 2 0 002-2v-8a2 2 0 00-2-2zm0-16H30a2 2 0 00-2 2v8a2 2 0 002 2h16a2 2 0 002-2V6a2 2 0 00-2-2z" fill-rule="evenodd" clip-rule="evenodd" fill="#59422c"/><path d="M28 56h20v-6H28v6zm0-16v6h20v-6H28z" fill-rule="evenodd" clip-rule="evenodd" fill="#e6ab70"/><path fill="#999" d="M4 10h20v4H4z"/></svg>