<svg xmlns="http://www.w3.org/2000/svg" width="64" height="64"><path d="M36 6C8 34 0 52 0 56c0 6 2 8 8 8 4 0 22-8 50-36L36 6z" fill="#48a0dc"/><path d="M36 4S16 30 16 40c0 6 2 8 8 8 10 0 36-20 36-20L36 4z" fill="#ccc"/><path d="M38 8S20 28 20 36c0 6 2 8 8 8 8 0 28-18 28-18L38 8z" fill="#666"/><path d="M30 32c-1 0-4 3-4 4s1 2 2 2 4-3 4-4-1-2-2-2z" fill="#48a0dc"/><path d="M54 10c0-6-6-10-10-10-6.146 0-10 4-10 8v4s-2 2-2 6c0 8 4 14 14 14 4 0 6-2 6-2h4c4 0 8-4 8-10 0-4-4-10-10-10z" fill="#999"/><path d="M54 10c0-6-6-10-10-10s-6 2-6 6 2 6 2 6c-2 0-4 2-4 6s4 10 10 10c4 0 6-2 6-4 0 0 2 2 6 2s6-2 6-6-4-10-10-10z" fill="#666"/><path d="M44 4c-2 0-2 2-2 2 0 2 2 6 6 6 2 0 2-2 2-2 0-2-2-6-6-6zm10 10c-2 0-2 2-2 2 0 2 2 6 6 6 2 0 2-2 2-2 0-2-2-6-6-6zm-12 2c-2 0-2 2-2 2 0 2 2 6 6 6 2 0 2-2 2-2 0-2-2-6-6-6z" fill-rule="evenodd" clip-rule="evenodd" fill="#ccc"/></svg>