<svg xmlns="http://www.w3.org/2000/svg" width="64" height="64"><path d="M34 6c-2 2-2.971 4.285-4 6-6 10-14 22-28 32-1.628 1.162-2 2-2 4 0 4 12 16 16 16 2 0 2.837-.373 4-2 10-14 22-22 32-28 1.715-1.029 4-2 6-4L34 6z" fill="#e6e6e6"/><path d="M20 62c10-14 22-22 32-28-20 4-32 12-32 28zM2 44c16 0 24-12 28-32-6 10-14 22-28 32z" fill-rule="evenodd" clip-rule="evenodd" fill="#88c057"/><path d="M48 4c-2 0-8 6-8 6l14 14s6-6 6-8S50 4 48 4z" fill="#999"/><path d="M62 16l-8 4-10-10 4-8s-2-2-4-2-8 4-10 6c0 6 18 24 24 24 2-2 6-8 6-10s-2-4-2-4z" fill="#ccc"/><path d="M38 20c-2 0-6 9-6 10s1 2 2 2 10-4 10-6-4-6-6-6z" fill="#88c057"/></svg>