<svg xmlns="http://www.w3.org/2000/svg" width="64" height="64"><path d="M50 58H22v6h26c1 0 4-3 4-4 0-2-.896-2-2-2z" fill="#666"/><path d="M48 4H0v24h48c2 0 4-2 4-12S50 4 48 4z" fill="#ccc"/><path d="M40 0h-2c-2 0-2 2-2 4h6c0-2 0-4-2-4z" fill="#4d4d4d"/><path d="M28 10C18 8 0 4 0 4v56c0 2 2.063 4 4 4h18c2 0 8-48 8-50s-.793-3.759-2-4z" fill="#9b7cab"/><circle cx="18" cy="18" r="2" fill="#4d4d4d"/><path d="M62 32H48v4h14a2 2 0 000-4z" fill="#4d4d4d"/><path d="M34 32a2 2 0 000 4h14v-4H34z" fill="#b3b3b3"/><path fill="#999" d="M34 28h12v4H34zm4 8v4a2 2 0 004 0v-4h-4z"/></svg>