<svg xmlns="http://www.w3.org/2000/svg" width="64" height="52"><path d="M48 30h-2c-2 0-2-4-2-6H28c0 2-.829 6-2 6H12a2 2 0 00-2 2v8a2 2 0 002 2h14c2 0 4 4 10 4s8.045-4 10-4h2a4 4 0 014 4v4c0 2 2 2 2 2h8s2 0 2-2v-4c0-8-6-16-16-16z" fill="#ccc"/><path d="M40 10h-8c0 6-4 6-4 8s2 2 2 2h12s2 0 2-2-4-2-4-8zM4 28H2a2 2 0 00-2 2v12a2 2 0 002 2h2a2 2 0 002-2V30a2 2 0 00-2-2z" fill="#b3b3b3"/><path d="M16 6c0 2 2 4 4 4s12-2 12-2V4S22 2 20 2s-4 2-4 4zm36-4c-2 0-12 2-12 2v4s10 2 12 2 4-2 4-4-2-4-4-4z" fill-rule="evenodd" clip-rule="evenodd" fill="#b3b3b3"/><circle cx="36" cy="6" r="6" fill="#999"/><path d="M44 20H28a2 2 0 000 4h16a2 2 0 000-4zM6 32h4v8H6z" fill="#999"/></svg>