<svg xmlns="http://www.w3.org/2000/svg" width="64" height="52"><path d="M62 30l-10 2s.063 6 2 6 10-2 10-4-2-4-2-4z" fill="#999"/><path d="M26 46H10c0 2-2 2-2 4s2 2 2 2h16s2 0 2-2-2-2-2-4z" fill="#b3b3b3"/><path d="M8 34s-2-6-4-6-4 2-4 4 6 4 6 4l4 4 2-2-4-4z" fill-rule="evenodd" clip-rule="evenodd" fill="#999"/><path d="M56 22H30c-2 0-4-2-4-4H10v28h16c0-10 38-12 38-16s-4-8-8-8z" fill="#ccc"/><path fill="#999" d="M10 14h16v4H10z"/><path d="M50.063 0C18 0 10 0 10 14h16C26 4 38 4 50.063 4 52.125 4 56 4 56 2s-4-2-5.937-2z" fill="#b3b3b3"/></svg>