<svg xmlns="http://www.w3.org/2000/svg" width="48" height="64"><path fill="#ccc" d="M12 0h24v4H12z"/><path d="M36 0v10H12V0c-2 0-4 2-4 4v10h32V4c0-2-2-4-4-4z" fill="#666"/><path fill="#ccc" d="M40 14H8L2 60h44z"/><path d="M22 54a2 2 0 004 0v-4h-4v4zm8 0a2 2 0 004 0v-4h-4v4zm8-4v4a2 2 0 004 0v-4h-4zm-24 4a2 2 0 004 0v-4h-4v4zm-8 0a2 2 0 004 0v-4H6v4zm16-14h-4v4a2 2 0 004 0v-4zm8 0h-4v4a2 2 0 004 0v-4zm8 0h-4v4a2 2 0 004 0v-4zm-24 0h-4v4a2 2 0 004 0v-4zm-2-4a2 2 0 002-2v-4h-4v4a2 2 0 002 2zm6-2a2 2 0 004 0v-4h-4v4zm8 0a2 2 0 004 0v-4h-4v4zm-10-8a2 2 0 002-2v-4h-4v4a2 2 0 002 2zm16 0a2 2 0 002-2v-4h-4v4a2 2 0 002 2zm-8 0a2 2 0 002-2v-4h-4v4a2 2 0 002 2zm10 8a2 2 0 004 0v-4h-4v4z" fill-rule="evenodd" clip-rule="evenodd" fill="#e6e6e6"/><path d="M24 48a2 2 0 10.001 4.001A2 2 0 0024 48zm8 0a2 2 0 10.001 4.001A2 2 0 0032 48zm8 0a2 2 0 10.001 4.001A2 2 0 0040 48zM8 48a2 2 0 10.001 4.001A2 2 0 008 48zm8 0a2 2 0 10.001 4.001A2 2 0 0016 48zm-4-10a2 2 0 100 4 2 2 0 000-4zm8 0a2 2 0 100 4 2 2 0 000-4zm8 0a2 2 0 100 4 2 2 0 000-4zm8 0a2 2 0 100 4 2 2 0 000-4zm-24-6a2 2 0 10-.001-4.001A2 2 0 0012 32zm8 0a2 2 0 10-.001-4.001A2 2 0 0020 32zm8 0a2 2 0 10-.001-4.001A2 2 0 0028 32zm4-10a2 2 0 10-.001-4.001A2 2 0 0032 22zm-16 0a2 2 0 10-.001-4.001A2 2 0 0016 22zm8 0a2 2 0 10-.001-4.001A2 2 0 0024 22zm12 10a2 2 0 10-.001-4.001A2 2 0 0036 32z" fill-rule="evenodd" clip-rule="evenodd" fill="#999"/><path d="M46 60H2a2 2 0 000 4h44a2 2 0 000-4z" fill="#666"/></svg>