<svg xmlns="http://www.w3.org/2000/svg" width="64" height="64"><path d="M40 30h-2a2 2 0 00-2 2v2a2 2 0 002 2h2a2 2 0 002-2v-2a2 2 0 00-2-2z" fill="#666"/><path d="M48 0C38-.001 14 6 14 6v18s24 2 24 6c0 2 0 6-2 10s-4 8-4 12 4 6 8 6 11.999-25.997 15.999-28H56c4-2 8-8 8-14S60 0 48 0z" fill="#48a0dc"/><path fill="#666" d="M34 54l-4 8 4 2 6-8z"/><path d="M48 8a8 8 0 100 16 8 8 0 000-16zm0 12a4 4 0 110-8 4 4 0 010 8z" fill-rule="evenodd" clip-rule="evenodd" fill="#ccc"/><path d="M2 8c-2 0-2 4-2 6v4c0 2 0 4 2 4s12 2 12 2V6S4 8 2 8z" fill="#666"/></svg>