<svg xmlns="http://www.w3.org/2000/svg" width="64" height="64"><path fill="#666" d="M6 54l-6 8 2 2 8-6z"/><path fill="#ccc" d="M26 30L52 4l8 8-26 26z"/><path d="M26 28c-2 0-6 8-10 12S2 50 2 52s8 10 10 10 8-10 12-14 12-8 12-10-8-10-10-10z" fill="gray"/><path d="M58 0c-2 0-4 2-6 4l8 8c2-2 4-4 4-6 0-4-2-6-6-6z" fill="#666"/><path d="M34 20L44 2s-2-2-4-2-4 4-4 4l-8 14-8 6v4s6-2 8-2 6.586 3.414 6.586 3.414a2 2 0 002.828-2.828L34 20z" fill="#b3b3b3"/><path d="M10 28c0 2 2 2 4 2s6-2 6-2v-4s-10 2-10 4z" fill="gray"/><path d="M26 36c-1 0-4 3-4 4s1 2 2 2 4-3 4-4-1-2-2-2z" fill="#fc6"/></svg>