<svg xmlns="http://www.w3.org/2000/svg" width="64" height="64"><path fill="#666" d="M6 54l-6 8 2 2 8-6z"/><path fill="#999" d="M36 22L56 2l5.999 6-20 20z"/><path fill="#ccc" d="M38 18L53.998 2l8 8-16 16z"/><path d="M41.414 14.586l-2-2a2 2 0 00-2.828 2.828l2 2a2 2 0 002.828-2.828zM44 18a2 2 0 10.001 4.001A2 2 0 0044 18zm-1.414-4.586a2 2 0 002.828-2.828l-2-2a2 2 0 00-2.828 2.828l2 2zm4-4a2 2 0 002.828-2.828l-2-2a2 2 0 00-2.828 2.828l2 2zm4-4a2 2 0 002.828-2.828l-2-2a2 2 0 00-2.828 2.828l2 2zm-1.172 17.172a2 2 0 00-2.828 2.828l2 2a2 2 0 002.828-2.828l-2-2zm4-4a2 2 0 00-2.828 2.828l2 2a2 2 0 002.828-2.828l-2-2zm4-4a2 2 0 00-2.828 2.828l2 2a2 2 0 002.828-2.828l-2-2zm6-2l-2-2a2 2 0 00-2.828 2.828l2 2a2 2 0 002.828-2.828zM48 14a2 2 0 10.001 4.001A2 2 0 0048 14zm4-4a2 2 0 100 4 2 2 0 000-4zm4 0a2 2 0 10-.001-4.001A2 2 0 0056 10z" fill-rule="evenodd" clip-rule="evenodd" fill="#999"/><path d="M34 20c-2 0-2 2-6 6C4 50 4 52 4 54s4 6 6 6 4 0 28-24c4-4 6-4 6-6s-8-10-10-10z" fill="#9b7cab"/><path d="M34 28c-1 0-4 3-4 4s1 2 2 2 4-3 4-4-1-2-2-2z" fill="#ccc"/></svg>