<svg xmlns="http://www.w3.org/2000/svg" width="64" height="64"><path d="M42 28h-2a2 2 0 00-2 2v6a2 2 0 002 2h2a2 2 0 002-2v-6a2 2 0 00-2-2z" fill="#4d4d4d"/><path fill="#666" d="M38 54l-2 8 4 2 4-8z"/><path d="M54 4c-2 0-6 0-16 2 0 0-8 6-8 14 4 0 12 4 12 6 0 6-6 22-6 26s4 6 8 6 6-30 10-30 10-4 10-12S58 4 54 4z" fill="gray"/><path d="M54 14c-1.104 0-6 .896-6 2s4.896 2 6 2a2 2 0 000-4zM18 8v12h12c0-8 8-14 8-14-10 2-20 2-20 2z" fill="#ccc"/><path d="M6 0C4 0 4 2 4 4v20c0 2 0 4 2 4 4 0 4-8 12-8V8c-8 0-8-8-12-8z" fill="#666"/><path d="M0 14a2 2 0 002 2h2v-4H2a2 2 0 00-2 2zm0 8a2 2 0 002 2h2v-4H2a2 2 0 00-2 2zM2 4a2 2 0 000 4h2V4H2z" fill="#4d4d4d"/></svg>