<svg xmlns="http://www.w3.org/2000/svg" width="64" height="64"><path d="M16 44.349V34h-4v10.349c-2.329.824-4 3.04-4 5.651v8a6 6 0 0012 0v-8a5.996 5.996 0 00-4-5.651zM16 58a2 2 0 01-4 0v-8a2 2 0 014 0v8z" fill-rule="evenodd" clip-rule="evenodd" fill="#ccc"/><path d="M56 12c0-6-4-12-12-12H12C6.556 0 0 12 0 24v4c0 4 4 8 8 8h48c4 0 8-4 8-8 0-12-8-12-8-16zm-12 4H24a6 6 0 010-12h20a6 6 0 010 12z" fill-rule="evenodd" clip-rule="evenodd" fill="#fc6"/><path d="M36 24H0v4h36a2 2 0 000-4z" fill="#e6e6e6"/><path d="M54 24h-8a2 2 0 000 4h8a2 2 0 000-4z" fill="#b3b3b3"/></svg>