<svg xmlns="http://www.w3.org/2000/svg" width="60" height="64"><path fill="#999" d="M22 34l4-4 8 8-4 4z"/><path d="M42 38l-6-4S20 52 18 54s-6 4-6 6 2 4 4 4 4-4 6-6 16-16 18-16 6 0 6-2l-4-2zM26 22l-2-4c-2 0-2 4-2 6S8 40 6 42s-6 4-6 6 2 4 4 4 4-4 6-6 20-18 20-18l-4-6z" fill-rule="evenodd" clip-rule="evenodd" fill="#f83"/><path d="M58 0s-4 14-14 14-16 6-18 8l4 6s6-2 14-2c13.397 0 16-8 16-16S58 0 58 0z" fill="#b3b3b3"/><path d="M46 12c-4 2-8 4-8 8 0 8-2 14-2 14l6 4c2-2 8-8 8-14s8-6 8-24c0 0-4 8-12 12z" fill="#ccc"/><circle cx="44" cy="20" r="2" fill="#fff"/></svg>