<svg xmlns="http://www.w3.org/2000/svg" width="64" height="64"><path d="M50 0c-8 0-26 18-26 26s0 8-4 12-10 6-14 10c-4.001 3.999-6 8-6 12 0 2 2 4 4 4 4 0 7.999-2.001 12-6 4-4 6-10 10-14s4-4 12-4 26-18 26-26S58 0 50 0z" fill="#88c057"/><path d="M50 4c-6 0-22 16-22 22s4 10 10 10 22-16 22-22S56 4 50 4z" fill="#666"/><path d="M38 16a2 2 0 10-.001-4.001A2 2 0 0038 16zm4-4a2 2 0 10-.001-4.001A2 2 0 0042 12zm-8 8a2 2 0 10-.001-4.001A2 2 0 0034 20zm-4 4a2 2 0 10-.001-4.001A2 2 0 0030 24zm8-4a2 2 0 10.001 4.001A2 2 0 0038 20zm4-4a2 2 0 10.001 4.001A2 2 0 0042 16zm-8 8a2 2 0 10.001 4.001A2 2 0 0034 24zm-4 4a2 2 0 10.001 4.001A2 2 0 0030 28zm16-16a2 2 0 10.001 4.001A2 2 0 0046 12zm4 0a2 2 0 10-.001-4.001A2 2 0 0050 12zM38 28a2 2 0 10.001 4.001A2 2 0 0038 28zm4 0a2 2 0 10-.001-4.001A2 2 0 0042 28zm-8 4a2 2 0 10.001 4.001A2 2 0 0034 32zm20-20a2 2 0 10.001 4.001A2 2 0 0054 12zm-8 12a2 2 0 10-.001-4.001A2 2 0 0046 24zm4-4a2 2 0 10-.001-4.001A2 2 0 0050 20zm0 4a2 2 0 10.001 4.001A2 2 0 0050 24zm4-4a2 2 0 10.001 4.001A2 2 0 0054 20zm-8 8a2 2 0 10.001 4.001A2 2 0 0046 28zm-4 4a2 2 0 10.001 4.001A2 2 0 0042 32zm4-24a2 2 0 10-.001-4.001A2 2 0 0046 8zm12 8a2 2 0 10.001 4.001A2 2 0 0058 16zm-4-8a2 2 0 10-.001-4.001A2 2 0 0054 8zm4 4a2 2 0 10-.001-4.001A2 2 0 0058 12z" fill-rule="evenodd" clip-rule="evenodd" fill="#999"/></svg>