<svg xmlns="http://www.w3.org/2000/svg" width="64" height="64"><path d="M60 0H4a4 4 0 00-4 4v56a4 4 0 004 4h56a4 4 0 004-4V4a4 4 0 00-4-4z" fill="#e6e6e6"/><path d="M10 54a2 2 0 100 4 2 2 0 000-4zm8 0a2 2 0 100 4 2 2 0 000-4zm8 0a2 2 0 100 4 2 2 0 000-4zm28 0a2 2 0 100 4 2 2 0 000-4z" fill-rule="evenodd" clip-rule="evenodd" fill="#999"/><path d="M44 30a6 6 0 100 12 6 6 0 000-12zm-24 2a4 4 0 100 8 4 4 0 000-8zm24-6a8 8 0 100-16 8 8 0 000 16zM20 8c-5.523 0-10 4.477-10 10 0 5.522 4.477 10 10 10 5.522 0 10-4.478 10-10 0-5.523-4.478-10-10-10z" fill-rule="evenodd" clip-rule="evenodd" fill="#b3b3b3"/><path d="M20 24a2 2 0 00-2 2v4a2 2 0 004 0v-4a2 2 0 00-2-2zm8-4h8a2 2 0 000-4h-8a2 2 0 000 4zM58 4H6a2 2 0 00-2 2v42a2 2 0 002 2h52a2 2 0 002-2V6a2 2 0 00-2-2zm-2 12h-4a2 2 0 000 4h4v14h-6a2 2 0 000 4h6v8H46v-4a2 2 0 00-4 0v4H22v-4a2 2 0 00-4 0v4H8v-8h6a2 2 0 000-4H8V20h4a2 2 0 000-4H8V8h10v2a2 2 0 004 0V8h20v2a2 2 0 004 0V8h10v8zM38 34H26a2 2 0 000 4h12a2 2 0 000-4zm6-10a2 2 0 00-2 2v4a2 2 0 004 0v-4a2 2 0 00-2-2z" fill-rule="evenodd" clip-rule="evenodd" fill="#999"/></svg>