<svg xmlns="http://www.w3.org/2000/svg" width="64" height="64"><path d="M60 0H4a4 4 0 00-4 4v56a4 4 0 004 4h56a4 4 0 004-4V4a4 4 0 00-4-4z" fill="#666"/><path d="M28 54a2 2 0 100 4 2 2 0 000-4zm8 0a2 2 0 100 4 2 2 0 000-4z" fill-rule="evenodd" clip-rule="evenodd" fill="#ccc"/><path d="M18 32a8 8 0 100 16 8 8 0 000-16zm0 12a4 4 0 110-8 4 4 0 010 8zm28-18c5.522 0 10-4.478 10-10 0-5.523-4.478-10-10-10-5.523 0-10 4.477-10 10 0 5.522 4.477 10 10 10zm0-16a6 6 0 110 12 6 6 0 010-12zm0 22a8 8 0 100 16 8 8 0 000-16zm0 12a4 4 0 110-8 4 4 0 010 8z" fill-rule="evenodd" clip-rule="evenodd" fill="gray"/><path d="M18 6C12.477 6 8 10.477 8 16c0 5.522 4.477 10 10 10 5.522 0 10-4.478 10-10 0-5.523-4.478-10-10-10zm0 16a6 6 0 11.002-12.002A6 6 0 0118 22z" fill-rule="evenodd" clip-rule="evenodd" fill="#ed7161"/></svg>