<svg xmlns="http://www.w3.org/2000/svg" width="64" height="44.024"><path d="M24 8.023h-2a2 2 0 00-2 2.001v5.999c0 1.104.896 2.001 2 2.001h2a2 2 0 002-2.001v-5.999a2 2 0 00-2-2.001z" fill="#ccc"/><path d="M62 20.023l-4-8-1.744-3.488.004-.009 1.694-5.943c.313-1.095-.379-2.22-1.543-2.513-1.163-.293-2.36.356-2.672 1.45l-1.492 5.232c-2.109-.394-5.342-.728-10.247-.728-26 0-42 28-42 34h50c0-8.001 14-8.001 14-12.001 0-1.999 0-4-2-8z" fill-rule="evenodd" clip-rule="evenodd" fill="#e6e6e6"/><path d="M50 40.024H0v2a2 2 0 002 2h48a2 2 0 000-4z" fill="#999"/><path d="M58 12.023s-6-1.999-12-1.999c-22 0-34 17.999-34 20 0 4 14 4 18 4 20 0 32-14.001 32-14.001l-4-8z" fill="#88c057"/><path d="M44 12.023c-8 0-16 4-16 8 0 2.001 2 4 8 4 8 0 16-4 16-8 0-1.999-2-4-8-4z" fill="#fff"/><path d="M42 20.023h-8a2 2 0 000 4h8a2 2 0 000-4z" fill="#9b7cab"/></svg>