<svg xmlns="http://www.w3.org/2000/svg" width="56" height="64"><path d="M40 0H28a2 2 0 000 4h12a2 2 0 000-4z" fill="#48a0dc"/><path fill="#b3b3b3" d="M28 4h12v10H28z"/><path d="M44 14H16C4 14 0 18 0 20v2h48v-4c0-2-2-4-4-4z" fill="#e6e6e6"/><path d="M52 36l-4-2h-2v8h10s0-4-4-6zM0 22v8c0 4 2 8 2 12v18c0 2 0 4 2 4h18V22H0z" fill="#b3b3b3"/><path d="M20 22v8c0 4 2 8 2 12v22h22c2 0 2-2 2-4V42c0-4 2-8 2-12v-8H20z" fill="#48a0dc"/><path d="M45.747 9a1.92 1.92 0 00-2.66-.732l-10.122 6A2.005 2.005 0 0032 16.023V40a2 2 0 004 0V17.087l9.034-5.354c.932-.553 1.251-1.777.713-2.733z" fill-rule="evenodd" clip-rule="evenodd" fill="#ccc"/><path d="M38 52a4 4 0 10-8 0c0 1.477.81 2.752 2 3.445V56a2 2 0 004 0v-.555c1.19-.693 2-1.968 2-3.445z" fill-rule="evenodd" clip-rule="evenodd" fill="#e6e6e6"/></svg>