<svg xmlns="http://www.w3.org/2000/svg" width="64" height="64"><path d="M46 48H10c-2 0-4 2-4 8s4 8 8 8h28c4 0 8-2 8-8s-2-8-4-8z" fill="#e6e6e6"/><path d="M28 0c-2 0-10 6-10 12h20c0-6-8-12-10-12z" fill="#ccc"/><path d="M48 12v6c6 0 10 2 10 8s-2 12-10 12v6c12 0 16-8 16-18s-6-14-16-14z" fill="#e6e6e6"/><path d="M6 32v4c0 4 2 12 4 12h36c2 0 4-8 4-12v-4H6z" fill="#fc6"/><path d="M6 18H0c0 6 6 12 6 12v2h44V18H6z" fill-rule="evenodd" clip-rule="evenodd" fill="#ccc"/><path fill="#b3b3b3" d="M24 18h8v14h-8z"/><path d="M8 12c-2 0-2 4-2 6h42v-6H8z" fill="#e6e6e6"/></svg>