<svg xmlns="http://www.w3.org/2000/svg" width="64" height="56"><path d="M12 2C10 0 4 0 2 0 1 0 0 0 0 2s6 0 10 4l28 28 2-4L12 2z" fill="#666"/><path d="M12 4s-4 4-4 6 2 4 4 4 6-4 6-4l-6-6z" fill="#f83"/><path d="M52 26a2 2 0 00-2-2c-6.24 0-11.736 3.177-14.965 8H26c-5.523 0-10 4.477-10 10v8a2 2 0 002 2h24a2 2 0 002-2v-6h8V26z" fill-rule="evenodd" clip-rule="evenodd" fill="#f83"/><circle cx="26" cy="42" r="4" fill="#fc6"/><circle cx="50" cy="42" r="14" fill="#666"/><circle cx="50" cy="42" r="8" fill="#333"/><circle cx="50" cy="42" r="2" fill="#ccc"/></svg>