<svg xmlns="http://www.w3.org/2000/svg" width="64" height="64"><path fill-rule="evenodd" clip-rule="evenodd" fill="#b3b3b3" d="M18 28V8h-8v20H6v12h24V28z"/><path d="M60 22H30L14 64h46c2 0 4-2 4-4V26c0-2-2-4-4-4z" fill="#e6e6e6"/><path d="M0 0v2a6 6 0 006 6h32a6 6 0 006-6V0H0zm4 26H2a2 2 0 00-2 2v12a2 2 0 002 2h2a2 2 0 002-2V28a2 2 0 00-2-2zm20-2C14 50 10 60 10 62s2 2 4 2l16-42c-4 0-5.282.133-6 2z" fill="#ccc"/><circle cx="30" cy="34" r="4" fill="#999"/><circle cx="52" cy="34" r="4" fill="#fff"/></svg>