<svg xmlns="http://www.w3.org/2000/svg" width="64" height="44"><path d="M12 36H8a4 4 0 000 8h4a4 4 0 000-8zm44 0h-4a4 4 0 000 8h4a4 4 0 000-8z" fill-rule="evenodd" clip-rule="evenodd" fill="#cbcbcb"/><path d="M60 0H4a4 4 0 00-4 4v32a4 4 0 004 4h56a4 4 0 004-4V4a4 4 0 00-4-4z" fill="#e6e6e6"/><path d="M58 14h-4a2 2 0 000 4h4a2 2 0 000-4zm-4-4h4a2 2 0 000-4h-4a2 2 0 000 4z" fill-rule="evenodd" clip-rule="evenodd" fill="#cbcbcb"/><circle cx="56" cy="30" r="4" fill="#b3b3b3"/><path d="M46 6H8a2 2 0 00-2 2v24a2 2 0 002 2h38a2 2 0 002-2V8a2 2 0 00-2-2z" fill="#666"/></svg>