<svg xmlns="http://www.w3.org/2000/svg" width="64" height="72"><path d="M44 68H34v-8.001h-4V68H20a2 2 0 000 4h24a2 2 0 000-4z" fill-rule="evenodd" clip-rule="evenodd" fill="#ccc"/><path d="M62 30H2a2 2 0 00-2 2c0 17.673 14.326 32 32 32 17.673 0 32-14.327 32-32a2 2 0 00-2-2zM32 59.999C17.209 59.999 5.105 48.528 4.079 34h55.842C58.895 48.528 46.791 59.999 32 59.999z" fill-rule="evenodd" clip-rule="evenodd" fill="#ccc"/><circle cx="32" cy="32" r="24" fill="#48a0dc"/><circle cx="32" cy="32" r="20" fill="#e6e6e6"/></svg>