<svg xmlns="http://www.w3.org/2000/svg" width="64" height="64"><path d="M56 56H44c-14 0-22-6-22-16V24c0-2 2-4 4-4h30V10c0-5.523-4.478-10-10-10H10C4.477 0 0 4.477 0 10c0 5.522 4.477 10 10 10 2 0 4 2 4 4C14 60 0 52 0 60c0 2 2 4 4 4h52c2 0 4-2 4-4s-2-4-4-4z" fill-rule="evenodd" clip-rule="evenodd" fill="#ed7161"/><path d="M36 20a4 4 0 004 4h12a4 4 0 004-4H36z" fill="#ba594c"/><path d="M18 12a2 2 0 000 4h38v-4H18zm10 18v10c0 8.836 7.163 16 16 16h4c8.836 0 16-7.164 16-16V30H28z" fill="#ccc"/><path fill="#666" d="M44 24h4v6h-4z"/></svg>