<svg xmlns="http://www.w3.org/2000/svg" width="44" height="63.999"><path d="M0 63.999h2C4 63.999 4 60 6 60H0v3.999zM38 60c2 0 2 3.999 4 3.999h2V60h-6z" fill-rule="evenodd" clip-rule="evenodd" fill="#735538"/><path d="M40 28H4a4 4 0 00-4 4v28h44V32a4 4 0 00-4-4z" fill="#a67c52"/><path d="M38 32H6a2 2 0 00-2 1.999V40a2 2 0 002 2h32a2 2 0 002-2v-6.001A2 2 0 0038 32zm0 14H6a2 2 0 00-2 2v6a2 2 0 002 2h32a2 2 0 002-2v-6a2 2 0 00-2-2z" fill-rule="evenodd" clip-rule="evenodd" fill="#e6ab70"/><path d="M22 38a2 2 0 10-.001-4.001A2 2 0 0022 38zm0 10a2 2 0 10-.001 3.999A2 2 0 0022 48z" fill-rule="evenodd" clip-rule="evenodd" fill="#735538"/><path d="M26 24h-8a2 2 0 00-2 2v2h12v-2a2 2 0 00-2-2z" fill="#b3b3b3"/><path fill="#ccc" d="M20 18h4v6h-4z"/><path d="M28 0H16c-2 0-4 14-4 16s1 2 2 2h16c1 0 2 0 2-2S30 0 28 0z" fill="#88c057"/></svg>