<svg xmlns="http://www.w3.org/2000/svg" width="48" height="64"><path d="M46 0H2a2 2 0 00-2 2v14h48V2a2 2 0 00-2-2zM0 60a4 4 0 004 4h40a4 4 0 004-4v-8H0v8z" fill="#e6e6e6"/><path fill="#ccc" d="M0 16h48v36H0z"/><path d="M40 20H8a2 2 0 00-2 2v30h36V22a2 2 0 00-2-2z" fill="gray"/><path d="M36 6a2 2 0 10.001 4.001A2 2 0 0036 6zm-8 0a2 2 0 10.001 4.001A2 2 0 0028 6zm-8 0a2 2 0 10.001 4.001A2 2 0 0020 6zm-8 0a2 2 0 10.001 4.001A2 2 0 0012 6z" fill-rule="evenodd" clip-rule="evenodd" fill="#999"/><path d="M36 24H12a2 2 0 000 4h24a2 2 0 000-4z" fill="#e6e6e6"/></svg>