<svg xmlns="http://www.w3.org/2000/svg" width="64" height="64"><path d="M60 0c-2 0-4 0-8 4L28 28l8 8 24-24c4-4 4-6 4-8s-2-4-4-4zm-2 8a2 2 0 11.001-4.001A2 2 0 0158 8z" fill-rule="evenodd" clip-rule="evenodd" fill="#f83"/><circle cx="16" cy="48" r="16" fill="#999"/><path d="M34 30c-4-4-8-4-10-4s-4 1-4 2c0 1.753 3.075.435 7.876 4.125L22 38c-2 2-4 4-6 4a6 6 0 106 6c0-2 2-4 4-6l5.876-5.875C35.565 40.925 34.247 44 36 44c1 0 2-2 2-4s0-6-4-10z" fill-rule="evenodd" clip-rule="evenodd" fill="#ccc"/><circle cx="16" cy="48" r="2" fill="#e6e6e6"/></svg>