<svg xmlns="http://www.w3.org/2000/svg" width="64" height="63.999"><path d="M62 0c-1 0-2 0-4 2L22 38c-2 2-2 3-2 4s1 2 2 2 2 0 4-2L62 6c2-2 2-3 2-4s-1-2-2-2z" fill="#f2cda7"/><path d="M30 38c0-1-3-4-4-4s-6 4-6 4-2-2-6-2c-6 0-12 6-12 6l20 20s6-6 6-12c0-4-2-6-2-6s4-5 4-6z" fill-rule="evenodd" clip-rule="evenodd" fill="#ba6a5f"/><path d="M2 40c-1 0-2 1-2 1.999 0 1.001 21 22 22 22S24 63 24 62c0-1.001-21-22-22-22zm24-6c-1 0-6 4-6 4l6 6s4-5 4-6-3-4-4-4z" fill-rule="evenodd" clip-rule="evenodd" fill="#a14d42"/></svg>