<svg xmlns="http://www.w3.org/2000/svg" width="64" height="56"><path d="M6 12v40a4 4 0 004 4h44a4 4 0 004-4V12H6z" fill="#ccc"/><path d="M8.984 20.295l-6-4C2.689 16.124 2.365 16 2 16a2 2 0 00-2 2c0 .739.42 1.357 1.016 1.704l6 4c.295.171.619.296.984.296a2 2 0 002-2c0-.739-.42-1.358-1.016-1.705zM62 16c-.365 0-.689.124-.984.295l-6 4C54.42 20.642 54 21.261 54 22a2 2 0 002 2c.365 0 .689-.125.984-.296l6-4C63.58 19.357 64 18.739 64 18a2 2 0 00-2-2z" fill-rule="evenodd" clip-rule="evenodd" fill="#b3b3b3"/><path d="M58 8H6a2 2 0 000 4h52a2 2 0 000-4z" fill="#b3b3b3"/><path d="M32 0c-6 0-12 6-14 8h6c2-2 4-4 8-4s6 2 8 4h6c-2-2-8-8-14-8z" fill="#ccc"/></svg>