<svg xmlns="http://www.w3.org/2000/svg" width="64" height="40"><path d="M16 4s-2 0-2-2h-2v8h2c0-2 2-2 2-2s2 0 2 2h2V2h-2c0 2-2 2-2 2zm10 0s-2 0-2-2h-2v8h2c0-2 2-2 2-2s2 0 2 2h2V2h-2c0 2-2 2-2 2zm10 0s-2 0-2-2h-2v8h2c0-2 2-2 2-2s2 0 2 2h2V2h-2c0 2-2 2-2 2zm12-2c0 2-2 2-2 2s-2 0-2-2h-2v8h2c0-2 2-2 2-2s2 0 2 2h2V2h-2zM16 28s-2 0-2-2h-2v8h2c0-2 2-2 2-2s2 0 2 2h2v-8h-2c0 2-2 2-2 2zm10 0s-2 0-2-2h-2v8h2c0-2 2-2 2-2s2 0 2 2h2v-8h-2c0 2-2 2-2 2zm10 0s-2 0-2-2h-2v8h2c0-2 2-2 2-2s2 0 2 2h2v-8h-2c0 2-2 2-2 2zm10 0s-2 0-2-2h-2v8h2c0-2 2-2 2-2s2 0 2 2h2v-8h-2c0 2-2 2-2 2z" fill-rule="evenodd" clip-rule="evenodd" fill="#bfa284"/><path d="M11 0a3 3 0 00-3 3v30a3 3 0 006 0V3a3 3 0 00-3-3zm10 0a3 3 0 00-3 3v30a3 3 0 006 0V3a3 3 0 00-3-3zm10 0a3 3 0 00-3 3v30a3 3 0 006 0V3a3 3 0 00-3-3zm10 0a3 3 0 00-3 3v30a3 3 0 006 0V3a3 3 0 00-3-3zm10 0a3 3 0 00-3 3v30a3 3 0 006 0V3a3 3 0 00-3-3z" fill-rule="evenodd" clip-rule="evenodd" fill="#f2cda7"/><path d="M0 32v8h4v-6a2 2 0 012-2h2v-4H4a4 4 0 00-4 4zM60 4h-6v4h6V4zm-6 24v4h10v-4H54z" fill-rule="evenodd" clip-rule="evenodd" fill="#99521f"/><circle cx="60" cy="6" r="4" fill="#ccc"/><circle cx="60" cy="6" r="2" fill="#999"/></svg>