<svg xmlns="http://www.w3.org/2000/svg" width="64" height="64"><path d="M18 42c0 2 2 2 2 2s2 0 2-2-2-6-2-6-2 4-2 6zm6 6c0 2 2 2 2 2s2 0 2-2-2-6-2-6-2 4-2 6zm6-4c0 2 2 2 2 2s2 0 2-2-2-6-2-6-2 4-2 6zm6 6c0 2 2 2 2 2s2 0 2-2-2-6-2-6-2 4-2 6zm6-6c0 2 2 2 2 2s2 0 2-2-2-6-2-6-2 4-2 6zm6 4c0 2 2 2 2 2s2 0 2-2-2-6-2-6-2 4-2 6zm8-2s2 0 2-2-2-6-2-6-2 4-2 6 2 2 2 2zm-38 8c0 2 2 2 2 2s2 0 2-2-2-6-2-6-2 4-2 6zm6 6c0 2 2 2 2 2s2 0 2-2-2-6-2-6-2 4-2 6zm6-4c0 2 2 2 2 2s2 0 2-2-2-6-2-6-2 4-2 6zm6 6c0 2 2 2 2 2s2 0 2-2-2-6-2-6-2 4-2 6zm6-6c0 2 2 2 2 2s2 0 2-2-2-6-2-6-2 4-2 6zm6 4c0 2 2 2 2 2s2 0 2-2-2-6-2-6-2 4-2 6zm6-4c0 2 2 2 2 2s2 0 2-2-2-6-2-6-2 4-2 6zM36 38c0 2 2 2 2 2s2 0 2-2-2-6-2-6-2 4-2 6zm12-2c0 2 2 2 2 2s2 0 2-2-2-6-2-6-2 4-2 6zm-24 0c0 2 2 2 2 2s2 0 2-2-2-6-2-6-2 4-2 6z" fill-rule="evenodd" clip-rule="evenodd" fill="#bae3ff"/><path d="M14 28v2a2 2 0 002 2h44a2 2 0 002-2v-2H14z" fill="#999"/><path d="M62 20H14a2 2 0 00-2 2v4a2 2 0 002 2h48a2 2 0 002-2v-4a2 2 0 00-2-2z" fill="#ccc"/><path d="M42 16h-8a2 2 0 00-2 2v2h12v-2a2 2 0 00-2-2z" fill="#b3b3b3"/><path d="M30 0H10C4.477 0 0 4.477 0 10v54h4V10a6 6 0 016-6h20a6 6 0 016 6v6h4v-6c0-5.523-4.478-10-10-10z" fill-rule="evenodd" clip-rule="evenodd" fill="#ccc"/></svg>