<svg xmlns="http://www.w3.org/2000/svg" width="52" height="64"><path d="M0 4v56a4 4 0 004 4h14V0H4a4 4 0 00-4 4zm48-4H22v64h26a4 4 0 004-4V4a4 4 0 00-4-4z" fill-rule="evenodd" clip-rule="evenodd" fill="#ccc"/><path fill="#999" d="M18 0h4v64h-4z"/><path d="M16 8a2 2 0 00-2 2v44a2 2 0 004 0V10a2 2 0 00-2-2zm8 0a2 2 0 00-2 2v44a2 2 0 004 0V10a2 2 0 00-2-2z" fill-rule="evenodd" clip-rule="evenodd" fill="#e6e6e6"/><path d="M44 16H32a2 2 0 00-2 2v16a2 2 0 002 2h12a2 2 0 002-2V18a2 2 0 00-2-2z" fill="#e6e6e6"/><path fill="#999" d="M30 24h16v8H30z"/><path d="M36 24v2a2 2 0 004 0v-2h-4z" fill="#666"/></svg>