<svg xmlns="http://www.w3.org/2000/svg" width="64" height="56"><path d="M60 20a2 2 0 000-4H40a2 2 0 000 4c0 8-4 24-4 28s2 8 6 8h16c4 0 6-4 6-8s-4-20-4-28z" fill="#ccc"/><path d="M58 34H42c-2 8-2 10-2 12s2 4 4 4h12c2 0 4-2 4-4s0-4-2-12z" fill="#a67c52"/><path d="M56 20H44s0 6-2 14h16c-2-8-2-14-2-14z" fill="#e6e6e6"/><path d="M62 10c0-4-4-10-10-10h-4c-6 0-10 6-10 10a2 2 0 00-2 2v2a2 2 0 002 2h24a2 2 0 002-2v-2a2 2 0 00-2-2z" fill-rule="evenodd" clip-rule="evenodd" fill="gray"/><path d="M24 20a2 2 0 000-4H4a2 2 0 000 4c0 8-4 24-4 28s2 8 6 8h16c4 0 6-4 6-8s-4-20-4-28z" fill="#ccc"/><path d="M22 34H6c-2 8-2 10-2 12s2 4 4 4h12c2 0 4-2 4-4s0-4-2-12z" fill="#fff"/><path d="M20 20H8s0 6-2 14h16c-2-8-2-14-2-14z" fill="#e6e6e6"/><path d="M26 10c0-4-4-10-10-10h-4C6 0 2 6 2 10a2 2 0 00-2 2v2a2 2 0 002 2h24a2 2 0 002-2v-2a2 2 0 00-2-2z" fill-rule="evenodd" clip-rule="evenodd" fill="#e6e6e6"/></svg>