<svg xmlns="http://www.w3.org/2000/svg" width="48" height="64"><path d="M0 56v4a4 4 0 004 4h40a4 4 0 004-4v-4H0z" fill="#b3b3b3"/><path d="M40 20H8a8 8 0 00-8 8v28h48V28a8 8 0 00-8-8zm4-20H4C2 0 0 0 0 2s12 6 20 6h8c10 0 20-4 20-6s-2-2-4-2z" fill="#fc6"/><path fill="#666" d="M20 8h8v12h-8z"/><circle cx="24" cy="38" r="14" fill="#fff"/><circle cx="24" cy="38" r="4" fill="#ccc"/><path d="M25.335 36.597a2.168 2.168 0 00-3.068 0l-5.67 5.67a2.17 2.17 0 003.068 3.068l5.67-5.67a2.168 2.168 0 000-3.068z" fill="#ed7161"/></svg>