<svg xmlns="http://www.w3.org/2000/svg" width="64" height="64"><path d="M56 22s4 8 6 8c1 0 2-1 2-2 0-2-8-6-8-6zm-8 0s4 8 6 8c1 0 2-1 2-2 0-2-8-6-8-6zm0 8s4 8 6 8c1 0 2-1 2-2 0-2-8-6-8-6zm8 0s4 8 6 8c1 0 2-1 2-2 0-2-8-6-8-6zm6-8c1 0 2-1 2-2 0-2-8-6-8-6s4 8 6 8zm-8 0c1 0 2-1 2-2 0-2-8-6-8-6s4 8 6 8zm-14 0s4 8 6 8c1 0 2-1 2-2 0-2-8-6-8-6zm6 0c1 0 2-1 2-2 0-2-8-6-8-6s4 8 6 8zm8-8c1 0 2-1 2-2 0-2-8-6-8-6s4 8 6 8z" fill-rule="evenodd" clip-rule="evenodd" fill="#bae3ff"/><path d="M38 52c-14 0-20 8-26 8s-8-2-8-8c0-4 8-10 8-10l-4-4s-8 8-8 14c0 10 6 12 12 12s14-8 26-8c8 0 14 6 14 8h4c0-4-6-12-18-12zM52 6L34 24s0 2 2 2 4-2 6-4l8-8c2-2 4-4 4-6s-2-2-2-2z" fill="#999"/><path d="M40 0c-4 0-12 8-12 12 0 1.301.17 2.484.436 3.573C23.417 20.636 8 36.325 8 38c0 2 2 4 4 4s18-14 22-18L52 6s-4-6-12-6z" fill-rule="evenodd" clip-rule="evenodd" fill="#ccc"/></svg>