<svg xmlns="http://www.w3.org/2000/svg" width="64" height="64"><path d="M60 0c-2 0-4 0-8 4L38 18l8 8 14-14c4-4 4-6 4-8s-2-4-4-4zm-2 8a2 2 0 11.001-4.001A2 2 0 0158 8z" fill-rule="evenodd" clip-rule="evenodd" fill="#88c057"/><path d="M44 24l-4-4-8 8c-4-4-8-6-10-6S0 42 0 44s2 6 8 12 10 8 12 8 22-20 22-22-2-6-6-10l8-8zM6 44c0-2 14-16 16-16 1 0 2 1 2 2 0 2-14 16-16 16-1 0-2-1-2-2zm6 6c0-2 14-16 16-16 1 0 2 1 2 2 0 2-14 16-16 16-1 0-2-1-2-2zm8 8c-1 0-2-1-2-2 0-2 14-16 16-16 1 0 2 1 2 2 0 2-14 16-16 16z" fill-rule="evenodd" clip-rule="evenodd" fill="#ccc"/></svg>