<svg xmlns="http://www.w3.org/2000/svg" width="32" height="64"><path d="M24 20H14c-1 0-2 1-2 2.125C12 26 16 24 16 28c0 6-14 8-14 18v14c0 2 2 4 4 4h20c2 0 6-2 6-16 0-20-6-28-8-28z" fill="#bae3ff"/><path d="M22 36c-4 0-14 6-14 10v10c0 1 1 2 2 2h12c2 0 4 0 4-10s-2-12-4-12z" fill="#fff"/><path fill="#48a0dc" d="M14 14h10v6H14z"/><path d="M10 8c0 2-8 7-8 8s1 2 2 2c2 0 10-6 10-8V8h-4z" fill="#999"/><path d="M6 0v8c2 0 8 4 8 6h10c0-2 8-6 8-8S26 0 6 0z" fill="#ccc"/><path d="M2 0a2 2 0 00-2 2v4a2 2 0 002 2h4V0H2z" fill="#999"/></svg>