<svg xmlns="http://www.w3.org/2000/svg" width="60" height="64"><path d="M54 48H6s-4 8-4 12c0 2 0 4 4 4h48c4 0 4-2 4-4 0-4-4-12-4-12z" fill="#f83"/><circle cx="46" cy="56" r="2" fill="#666"/><circle cx="30" cy="56" r="4" fill="#e6e6e6"/><path fill="#666" d="M6 42h48v6H6z"/><path d="M6 42h48l2-12H4l2 12zm48-16l2-12H4l2 12h48z" fill-rule="evenodd" clip-rule="evenodd" fill="#ccc"/><path d="M58 26H2a2 2 0 000 4h56a2 2 0 000-4zM2 14h56a2 2 0 000-4H2a2 2 0 000 4z" fill-rule="evenodd" clip-rule="evenodd" fill="#999"/><path d="M30 4C14 4 4 10 4 10h52S46 4 30 4z" fill="#ccc"/><path d="M32 0h-4a2 2 0 000 4h4a2 2 0 000-4z" fill="#666"/></svg>