<svg xmlns="http://www.w3.org/2000/svg" width="64" height="52"><path d="M54 16H44v4h10c6 0 6 4 6 8s0 8-6 8H44v4h10c8 0 10-6 10-12s-2-12-10-12z" fill-rule="evenodd" clip-rule="evenodd" fill="#408ec2"/><path d="M46 12H18c-2.032 0-6 10-8 10s-4-2-4-2H0c0 8 8 12 8 16s8 16 12 16h24c4 0 12-12 12-20 0-10-8-20-10-20z" fill="#48a0dc"/><path d="M33.993 6.064C33.994 6.042 34 6.022 34 6V2a2 2 0 00-4 0v4c0 .022.006.042.007.064C24.021 6.418 16 8.208 16 10c0 2 2 2 2 2h28s2 0 2-2c0-1.792-8.021-3.582-14.007-3.936z" fill-rule="evenodd" clip-rule="evenodd" fill="#408ec2"/></svg>