<svg xmlns="http://www.w3.org/2000/svg" width="64" height="52"><path d="M12 44H8a4 4 0 000 8h4a4 4 0 000-8zm40 0h-4a4 4 0 000 8h4a4 4 0 000-8z" fill-rule="evenodd" clip-rule="evenodd" fill="#cbcbcb"/><path d="M58 40H2a2 2 0 00-2 2v4a2 2 0 002 2h56a2 2 0 002-2v-4a2 2 0 00-2-2z" fill="#999"/><path d="M42 0c-4 0-8 2-12 2s-8-2-12-2c-2 0-4 0-4 2s2 22 4 22h24c2 0 4-20 4-22s-2-2-4-2z" fill="#f2cda7"/><path d="M62 18h-8a2 2 0 000 4h8a2 2 0 000-4z" fill="#999"/><path d="M42 8H18C9.163 8 2 15.163 2 24v16h56V24c0-8.837-7.164-16-16-16z" fill="#e6e6e6"/></svg>