<svg xmlns="http://www.w3.org/2000/svg" width="64" height="60"><path fill-rule="evenodd" clip-rule="evenodd" fill="#999" d="M64 24H54v-2H10v2H0v4h10v2h44v-2h10z"/><path d="M60 18v-4c0-4 0-6-4-6s-8.175-8-24-8C17.929 0 14 8 10 8s-6 2-6 6v4a2 2 0 00-2 2v12a2 2 0 002 2h4a2 2 0 002-2V20a2 2 0 00-2-2c0-2 0-4 2-4 4 0 8-4 22-4s18.063 4 22 4c2 0 2 2 2 4a2 2 0 00-2 2v12a2 2 0 002 2h4a2 2 0 002-2V20a2 2 0 00-2-2z" fill-rule="evenodd" clip-rule="evenodd" fill="#a67c52"/><path d="M50 16H14a2 2 0 00-2 2v40a2 2 0 002 2h26c2 0 12-10 12-12V18a2 2 0 00-2-2z" fill="#e6e6e6"/><path d="M40 48v12c2 0 12-10 12-12H40z" fill="#ccc"/></svg>