<svg xmlns="http://www.w3.org/2000/svg" width="56" height="64"><path d="M56 32a2 2 0 00-2-2H14a2 2 0 002-2V2a2 2 0 00-2-2H2a2 2 0 00-2 2v26a2 2 0 002 2 2 2 0 00-2 2v8c0 4 8 0 8 10 0 4-2 12-2 12a2 2 0 002 2h30c1.104 0 4 0 4-2s-4-8-4-10c0-4 18-6 18-20z" fill-rule="evenodd" clip-rule="evenodd" fill="#d9d9d9"/><path d="M52 21.999H22a2 2 0 000 4h30a2 2 0 000-4z" fill="#99d962"/><path d="M54 26H18a2 2 0 000 4h36a2 2 0 000-4z" fill="#87bf56"/><path d="M6 6a2 2 0 000 4c1.104 0 6-.896 6-2 0-1.105-4.896-2-6-2z" fill="#999"/></svg>