<svg xmlns="http://www.w3.org/2000/svg" width="52" height="63.999"><path d="M10 52c-.739 0-1.358.419-1.704 1.016l-4.001 8S4 61.634 4 61.999a2 2 0 002 2c.739 0 1.357-.419 1.704-1.016l4-8c.171-.295.296-.618.296-.984A2 2 0 0010 52zm37.704 9.016l-4-8C43.357 52.419 42.739 52 42 52a2 2 0 00-2 1.999c0 .366.124.689.295.984l4.001 8c.346.597.965 1.016 1.704 1.016a2 2 0 002-2c0-.365-.296-.983-.296-.983z" fill-rule="evenodd" clip-rule="evenodd" fill="#cc6d29"/><path d="M30 13.999h-8a2 2 0 000 4h2V24h4v-6.001h2a2 2 0 000-4z" fill-rule="evenodd" clip-rule="evenodd" fill="#999"/><path d="M46 13.999C42 11.999 48 0 26 0S10 11.999 6 13.999a2 2 0 000 4c8 0 0-14 20-14s12 14 20 14a2 2 0 000-4z" fill-rule="evenodd" clip-rule="evenodd" fill="#999"/><path d="M8 21.999l4 8L14 28l-4-8.001-2 2zm34-2L38 28l2 1.999 4-8-2-2z" fill-rule="evenodd" clip-rule="evenodd" fill="#cc6d29"/><circle cx="26" cy="41.999" r="22" fill="#f83"/><path d="M12 13.999c-4 0-12 4-12 8S2 28 2 28l16-8.001s-2-6-6-6zm28 0c-4 0-6 6-6 6L50 28s2-2.001 2-6.001-8-8-12-8z" fill-rule="evenodd" clip-rule="evenodd" fill="#f83"/><circle cx="26" cy="42" r="18" fill="#e6e6e6"/><path d="M40 40H28v-8a2 2 0 10-4 0v9.999A2 2 0 0026 44h14a2 2 0 000-4z" fill-rule="evenodd" clip-rule="evenodd" fill="#999"/></svg>