<svg xmlns="http://www.w3.org/2000/svg" width="64" height="64"><path d="M46 0c-6 0-8 5.999-8 14 0 12-10 28-22 28C8 42 3.99 30 3.99 20c0-6 2.01-8 6.01-8s6 2 6 8h4c0-6-2-12-10-12S0 14 0 20c0 12 4 26 16 26 18 0 25.99-22 25.99-32C41.99 5.999 44 4 46 4s4 1.999 4 10h4c0-8.001-2-14-8-14z" fill="#999"/><path d="M32 44H4a4 4 0 00-4 4v12a4 4 0 004 4h28a4 4 0 004-4V48a4 4 0 00-4-4z" fill="#666"/><path d="M24 20H12c-4 0-8 2-8 28v6h28v-6c0-26-4-28-8-28z" fill="#f06eaa"/><circle cx="18" cy="28" r="4" fill="#666"/><path d="M16 20v8a2 2 0 004 0v-8h-4z" fill-rule="evenodd" clip-rule="evenodd" fill="#999"/><path d="M18 54S8 54 4 50v4c0 8 2 10 10 10h8c8 0 10-2 10-10v-4c-4 4-14 4-14 4zm4-10h-8a2 2 0 100 4h8a2 2 0 000-4z" fill="#ccc"/><path d="M40 60v2a2 2 0 002 2h20a2 2 0 002-2v-2H40z" fill="#666"/><path d="M62 56h-6v-2a2 2 0 00-2-2h-4a2 2 0 00-2 2v2h-6a2 2 0 00-2 2v2h24v-2a2 2 0 00-2-2z" fill-rule="evenodd" clip-rule="evenodd" fill="#f06eaa"/><path fill="#ccc" d="M50 14h4v38h-4z"/></svg>