<svg xmlns="http://www.w3.org/2000/svg" width="60" height="64"><path d="M4 60v2a2 2 0 002 2h36a2 2 0 002-2v-2H4z" fill="#666"/><path d="M38 8v8c12 0 16 6 16 14s-4 20-16 20v4c14 0 22-12 22-24S52 8 38 8z" fill-rule="evenodd" clip-rule="evenodd" fill="#666"/><path d="M0 8c0 8 6 14 8 14h4V8H0z" fill="#e6e6e6"/><path d="M38 8H10S4 22 4 60h40c0-38-6-52-6-52z" fill="#ccc"/><path d="M42 2c-1.801 0-5.209 1.608-7.333 1.932C32.414 1.955 28.942 0 24 0 14 0 10 8 10 8h30c2 0 4-2 4-4s0-2-2-2z" fill-rule="evenodd" clip-rule="evenodd" fill="#666"/><path d="M26 18h-4a2 2 0 00-2 2v18h8V20a2 2 0 00-2-2z" fill="#e6e6e6"/><path d="M20 38v10a2 2 0 002 2h4a2 2 0 002-2V38h-8z" fill="#bae3ff"/></svg>