<svg xmlns="http://www.w3.org/2000/svg" width="64" height="64"><path d="M60 0c-2 0-4 0-8 4L38 18l8 8 14-14c4-4 4-6 4-8s-2-4-4-4zm-2 8a2 2 0 11.001-4.001A2 2 0 0158 8z" fill-rule="evenodd" clip-rule="evenodd" fill="#fc6"/><path d="M44 24l-4-4-1.369 1.37C37.573 20.552 36.604 20 36 20c-1 0-2 1-2 2 0 .604.552 1.573 1.369 2.63L34 26s-4 0-12 4S0 42 0 54c0 6 4.063 10 10 10 12 0 20-14 24-22s4-12 4-12l1.369-1.37C40.427 29.448 41.396 30 42 30c1 0 2-1 2-2 0-.604-.552-1.573-1.369-2.63L44 24zM12 40c8-6 18-10 18-10S8 46 4 54c0 0 0-8 8-14zM6 58c2-6 26-26 26-26S12 56 6 58zm18-6c-6 8-14 8-14 8 8-4 24-26 24-26s-4 10-10 18z" fill-rule="evenodd" clip-rule="evenodd" fill="#ccc"/></svg>