<svg xmlns="http://www.w3.org/2000/svg" width="64" height="74"><path d="M34 64h-4a2 2 0 00-2 2v6a2 2 0 002 2h4a2 2 0 002-2v-6a2 2 0 00-2-2z" fill="#ccc"/><path d="M36 56h-8a2 2 0 00-2 2v6a2 2 0 002 2h8a2 2 0 002-2v-6a2 2 0 00-2-2z" fill="#b3b3b3"/><path d="M60 20H4a4 4 0 00-4 4v32a4 4 0 004 4h56a4 4 0 004-4V24a4 4 0 00-4-4z" fill="#ccc"/><path d="M58 24H6a2 2 0 00-2 2v28a2 2 0 002 2h52a2 2 0 002-2V26a2 2 0 00-2-2z" fill="#fff"/><path d="M40 36H24a2 2 0 00-2 2v6a2 2 0 002 2h16a2 2 0 002-2v-6a2 2 0 00-2-2zm0 8H24v-6h16v6zm-13-2h10a1 1 0 000-2H27a1 1 0 000 2z" fill-rule="evenodd" clip-rule="evenodd" fill="#ccc"/><path d="M54 10H10a2 2 0 00-2 2v8h48v-8a2 2 0 00-2-2z" fill-rule="evenodd" clip-rule="evenodd" fill="#b3b3b3"/><path d="M16 14a2 2 0 004 0v-4h-4v4zm28-4v4a2 2 0 004 0v-4h-4z" fill-rule="evenodd" clip-rule="evenodd" fill="#8c8c8c"/></svg>