<svg xmlns="http://www.w3.org/2000/svg" width="64" height="64"><path d="M60 0H4a4 4 0 00-4 4v56.001A4 4 0 004 64h56a4 4 0 004-3.999V4a4 4 0 00-4-4z" fill="#e6e6e6"/><path d="M34.989 25.022c.771-.808 1.293-1.93 1.151-3.048-1.112.039-2.459.638-3.256 1.444-.716.716-1.341 1.858-1.174 2.954 1.242.084 2.507-.544 3.279-1.35zm2.366 7.722c-.023-2.507 2.029-3.711 2.122-3.77-1.154-1.702-2.952-1.935-3.592-1.961-1.53-.157-2.985.907-3.762.907-.773 0-1.972-.887-3.241-.862-1.667.026-3.204.977-4.063 2.482-1.732 3.029-.444 7.519 1.245 9.976.825 1.203 1.809 2.553 3.1 2.503 1.245-.048 1.716-.811 3.219-.811 1.504 0 1.927.811 3.242.786 1.338-.023 2.187-1.226 3.006-2.432.947-1.396 1.337-2.746 1.36-2.814-.028-.015-2.608-1.009-2.636-4.004z" fill-rule="evenodd" clip-rule="evenodd" fill="#4d4d4d"/></svg>