<svg xmlns="http://www.w3.org/2000/svg" width="36" height="64.001"><path d="M31.893 11.991l.107.01s-1.449-.197-2-2L28.222 2c0-1.104-.909-2-2.031-2H9.937C8.814 0 7.904.896 7.904 2L6 10.001c-.534 2.302-2 2-2 2v16h28v-16a9.7 9.7 0 00-.107-.01zM4 52s1.448.197 2 2l1.777 8.001c0 1.104.909 2 2.031 2h16.254c1.122 0 2.032-.896 2.032-2L30 54c.533-2.302 2-2 2-2V34.001H4V52z" fill-rule="evenodd" clip-rule="evenodd" fill="#fff"/><path d="M28.222 2c0-1.104-.909-2-2.031-2H9.937C8.814 0 7.904.896 7.904 2l-.476 2h21.238l-.444-2zM6 54l.444 2h23.079L30 54c.367-1.585 1.178-1.936 1.646-2H4s1.448.197 2 2zm24-44l-.444-1.999H6.476L6 10c-.368 1.587-1.179 1.937-1.646 2.001H32s-1.449-.197-2-2.001zM7.777 62.001c0 1.104.909 2 2.031 2h16.254c1.122 0 2.032-.896 2.032-2L28.571 60H7.333l.444 2.001z" fill-rule="evenodd" clip-rule="evenodd" fill="#b3b3b3"/><path d="M30 12.001H6A6 6 0 000 18v28.001A6 6 0 006 52h24a6 6 0 006-5.999V18a6 6 0 00-6-5.999z" fill="#333"/><path fill="#4d4d4d" d="M4.02 18.005h27.967v27.99H4.02z"/><circle cx="18" cy="32" r="4" fill="#eaf1f6"/><circle cx="22" cy="24" r="2" fill="#48a0dc"/><circle cx="22" cy="40" r="2" fill="#fc6"/><circle cx="26" cy="32" r="2" fill="#88c057"/><circle cx="10" cy="32" r="2" fill="#9b7cab"/><circle cx="14" cy="24" r="2" fill="#f83"/><circle cx="14" cy="40" r="2" fill="#f06eaa"/></svg>