<svg xmlns="http://www.w3.org/2000/svg" width="36" height="70"><path d="M31.892 13.99L32 14s-1.449-.197-2-2l-1.777-8.001c0-1.104-.91-2-2.032-2H9.937c-1.122 0-2.032.896-2.032 2L6 12c-.534 2.302-2 2-2 2v16h28V14a9.3 9.3 0 00-.108-.01zM4 53.999s1.448.197 2 2L7.777 64c0 1.104.909 2 2.031 2h16.254c1.123 0 2.032-.896 2.032-2L30 55.999c.533-2.302 2-2 2-2V36H4v17.999z" fill-rule="evenodd" clip-rule="evenodd" fill="#e6e6e6"/><path d="M14 12a2 2 0 10-.001-4.001A2 2 0 0014 12zm12 0a2 2 0 00-.01 3.999h.02A2 2 0 0026 12zm-16 0a2 2 0 00-.01 3.999h.02A2 2 0 0010 12zm20 0l-.846-3.807A1.995 1.995 0 0028 10a2 2 0 002 2zm-8 0a2 2 0 10-.001-4.001A2 2 0 0022 12zm-4 0a2 2 0 00-.01 3.999h.02A2 2 0 0018 12zm12 37.999A2 2 0 1030.001 54 2 2 0 0030 50zM8 10c0-.78-.45-1.448-1.101-1.778L6 11.999V12a2 2 0 002-2zm2-2.001a2 2 0 10-.001-4.001A2 2 0 0010 7.999zm12 50a2 2 0 10.002 4.002A2 2 0 0022 57.999zm-8 0a2 2 0 10.002 4.002A2 2 0 0014 57.999zm12-50a2 2 0 10-.001-4.001A2 2 0 0026 7.999zm-8 0a2 2 0 10-.001-4.001A2 2 0 0018 7.999zm-10 44A2 2 0 103.999 52 2 2 0 008 52zm6-48a2 2 0 002-2h-4a2 2 0 002 2zM28 60c0 .601.271 1.133.69 1.5l.817-3.432A1.995 1.995 0 0028 60zm-18 1.999a2 2 0 10.002 4.002A2 2 0 0010 61.999zm12-58a2 2 0 002-2h-4a2 2 0 002 2zm-4 58a2 2 0 10.002 4.002A2 2 0 0018 61.999zm8 0a2 2 0 10.002 4.002A2 2 0 0026 61.999zM6.457 58.057l.778 3.504A1.99 1.99 0 008 60c0-.947-.659-1.736-1.543-1.943zM14 53.999a2 2 0 10-.001-4.001A2 2 0 0014 53.999zm-4 0A2 2 0 1010.001 58 2 2 0 0010 54zm12 0a2 2 0 10-.001-4.001A2 2 0 0022 53.999zm4 4a2 2 0 10-.001-4.001A2 2 0 0026 57.999zm-8 0a2 2 0 10-.001-4.001A2 2 0 0018 57.999z" fill-rule="evenodd" clip-rule="evenodd" fill="#999"/><path d="M30 14H6a6 6 0 00-6 5.999V48a6 6 0 006 5.999h24A6 6 0 0036 48V19.999A6 6 0 0030 14z" fill="#333"/><path fill="#4d4d4d" d="M4.02 20.004h27.967v27.99H4.02z"/><circle cx="18" cy="33.999" r="4" fill="#eaf1f6"/><circle cx="22" cy="25.999" r="2" fill="#48a0dc"/><circle cx="22" cy="41.999" r="2" fill="#fc6"/><circle cx="26" cy="33.999" r="2" fill="#88c057"/><circle cx="10" cy="33.999" r="2" fill="#9b7cab"/><circle cx="14" cy="25.999" r="2" fill="#f83"/><circle cx="14" cy="41.999" r="2" fill="#f06eaa"/></svg>