<svg xmlns="http://www.w3.org/2000/svg" width="36" height="64.001"><path d="M31.892 11.991l.108.01s-1.449-.197-2-2L28.222 2c0-1.104-.909-2-2.031-2H9.937C8.814 0 7.904.896 7.904 2L6 10.001c-.534 2.302-2 2-2 2v16h28v-16a9.3 9.3 0 00-.108-.01zM4 52s1.448.197 2 2l1.777 8.001c0 1.104.909 2 2.031 2h16.254c1.122 0 2.032-.896 2.032-2L30 54c.533-2.302 2-2 2-2V34.001H4V52z" fill-rule="evenodd" clip-rule="evenodd" fill="#b3b3b3"/><path d="M28.666 4H7.428l-.952 4.001h23.08L28.666 4zM7.333 60h21.238l.952-4H6.444l.889 4z" fill-rule="evenodd" clip-rule="evenodd" fill="#e6e6e6"/><path d="M30 12.001H6A6 6 0 000 18v28.001A6 6 0 006 52h24a6 6 0 006-5.999V18a6 6 0 00-6-5.999z" fill="#333"/><path fill="#4d4d4d" d="M4.02 18.005h27.967v27.99H4.02z"/><circle cx="18" cy="32" r="4" fill="#eaf1f6"/><circle cx="22" cy="24" r="2" fill="#48a0dc"/><circle cx="22" cy="40" r="2" fill="#fc6"/><circle cx="26" cy="32" r="2" fill="#88c057"/><circle cx="10" cy="32" r="2" fill="#9b7cab"/><circle cx="14" cy="24" r="2" fill="#f83"/><circle cx="14" cy="40" r="2" fill="#f06eaa"/></svg>