<svg xmlns="http://www.w3.org/2000/svg" width="64" height="44"><path d="M60 24H50a4 4 0 00-4 4v12a4 4 0 004 4h10a4 4 0 004-4V28a4 4 0 00-4-4zm-22 0H26a4 4 0 00-4 4v12a4 4 0 004 4h12a4 4 0 004-4V28a4 4 0 00-4-4zm0-24H26a4 4 0 00-4 4v12a4 4 0 004 4h12a4 4 0 004-4V4a4 4 0 00-4-4zM14 24H4a4 4 0 00-4 4v12a4 4 0 004 4h10a4 4 0 004-4V28a4 4 0 00-4-4z" fill-rule="evenodd" clip-rule="evenodd" fill="#ccc"/><path d="M28 16h8l-4-6-4 6zm4 20l4-6h-8l4 6zm18-8v8l6-4-6-4zm-36 8v-8l-6 4 6 4z" fill-rule="evenodd" clip-rule="evenodd" fill="gray"/></svg>