<svg xmlns="http://www.w3.org/2000/svg" width="64" height="40"><path d="M60 12.001V4a4 4 0 00-4-4H4a4 4 0 00-4 4v31.999A4 4 0 004 40h52a4 4 0 004-4.001v-8c2.209 0 4-1.789 4-4v-7.998c0-2.211-1.791-4-4-4zm-4 21.998a2 2 0 01-2 2H6a2 2 0 01-2-2V6a2 2 0 012-2h48a2 2 0 012 2v27.999z" fill-rule="evenodd" clip-rule="evenodd" fill="#ccc"/><path d="M12 7.999c-2.209 0-4 1.792-4 4.002v15.998a4 4 0 108 0V12.001a4.001 4.001 0 00-4-4.002zm12 0c-2.209 0-4 1.792-4 4.002v15.998a4 4 0 108 0V12.001a4.001 4.001 0 00-4-4.002z" fill-rule="evenodd" clip-rule="evenodd" fill="#fc6"/></svg>