<svg xmlns="http://www.w3.org/2000/svg" width="64.001" height="40"><path d="M60 12.001V4c0-2.21-1.79-4-4-4H4a4 4 0 00-4 4v31.999A4 4 0 004 40h52a4 4 0 004-4.001v-8a4 4 0 004.001-4v-7.998a4 4 0 00-4.001-4zm-4 21.998a2 2 0 01-2 2H6a2 2 0 01-2-2V6a2 2 0 012-2h48a2 2 0 012 2v27.999z" fill-rule="evenodd" clip-rule="evenodd" fill="#ccc"/><path d="M12 7.999c-2.209 0-4 1.792-4 4.002v15.998a4 4 0 108.001 0V12.001A4.001 4.001 0 0012 7.999zm12 0c-2.209 0-4 1.792-4 4.002v15.998a4 4 0 108.001 0V12.001A4.001 4.001 0 0024 7.999zm12 0a4 4 0 00-3.999 4.002v15.998a4 4 0 107.999 0V12.001a4 4 0 00-4-4.002z" fill-rule="evenodd" clip-rule="evenodd" fill="#88c057"/></svg>