<svg xmlns="http://www.w3.org/2000/svg" width="36" height="64"><path d="M32 0H4a4 4 0 00-4 4v56a4 4 0 004 4h28a4 4 0 004-4V4a4 4 0 00-4-4z" fill="#666"/><path d="M4 36v20a4 4 0 004 4h20a4 4 0 004-4V36H4z" fill-rule="evenodd" clip-rule="evenodd" fill="#4d4d4d"/><path d="M10 60h4v-4h-4v4zm0-6h4v-4.001h-4V54zm6 6h4v-4h-4v4zm-6-12h4v-4h-4v4zM8 60v-4H4a4 4 0 004 4zm-4-6h4v-4.001H4V54zm0-6h4v-4H4v4zm18 6h4v-4.001h-4V54zm6 0h4v-4.001h-4V54zm0 6a4 4 0 004-4h-4v4zm-12-6h4v-4.001h-4V54zm12-10v4h4v-4h-4zm-12 4h4v-4h-4v4zm6 12h4v-4h-4v4zm0-12h4v-4h-4v4z" fill-rule="evenodd" clip-rule="evenodd" fill="gray"/><circle cx="18" cy="40" r="2" fill="#999"/><path fill="#333" d="M4 7.997h28v28H4z"/></svg>