<svg xmlns="http://www.w3.org/2000/svg" width="37.982" height="63.993"><path d="M23.723 31.997l13.212-12.02a3.224 3.224 0 000-4.758L21.108.821a3.136 3.136 0 00-3.404-.545c-1.142.514-1.723 2.459-1.723 3.722v20L5.282 15.22a3.143 3.143 0 00-4.47.237 3.227 3.227 0 00.236 4.521l13.211 12.02-13.21 12.02a3.222 3.222 0 00-.235 4.518 3.137 3.137 0 004.47.238l10.698-8.775V60c0 1.264.581 3.204 1.723 3.719a3.147 3.147 0 003.404-.545l15.826-14.399a3.217 3.217 0 001.048-2.378 3.23 3.23 0 00-1.049-2.381L23.723 31.997zm-1.754-21.613l8.116 7.215-8.116 7.214V10.384zm0 43.225V39.18l8.116 7.216-8.116 7.213z" fill="#48a0dc"/></svg>