<svg xmlns="http://www.w3.org/2000/svg" width="64" height="64"><path d="M48 0a2 2 0 00-2 2v60a2 2 0 004 0V2a2 2 0 00-2-2zm8 0a2 2 0 00-2 2v60a2 2 0 004 0V2a2 2 0 00-2-2zM8 0a2 2 0 00-2 2v60a2 2 0 004 0V2a2 2 0 00-2-2zm8 0a2 2 0 00-2 2v60a2 2 0 004 0V2a2 2 0 00-2-2zm8 0a2 2 0 00-2 2v60a2 2 0 004 0V2a2 2 0 00-2-2zm8 0a2 2 0 00-2 2v60a2 2 0 004 0V2a2 2 0 00-2-2zm8 0a2 2 0 00-2 2v60a2 2 0 004 0V2a2 2 0 00-2-2z" fill-rule="evenodd" clip-rule="evenodd" fill="#fc6"/><path d="M60 10H4a4 4 0 00-4 4v36a4 4 0 004 4h56a4 4 0 004-4V14a4 4 0 00-4-4z" fill="#88c057"/><path d="M58 14H6a2 2 0 00-2 2v32a2 2 0 002 2h52a2 2 0 002-2V16a2 2 0 00-2-2z" fill="#668a47"/></svg>