<svg xmlns="http://www.w3.org/2000/svg" width="64" height="46"><path d="M53.952 18.6c.007-.203.03-.401.03-.606C53.982 8.056 45.921 0 35.978 0 28.54 0 22.157 4.509 19.412 10.94a10.928 10.928 0 00-4.411-.929c-6.071 0-10.992 4.926-10.992 11.001 0 .387.021.769.06 1.145A13.935 13.935 0 000 32.013C0 39.738 6.266 46 13.995 46l.03-.001V46h35.948v-.001l.03.001C57.733 46 64 39.738 64 32.013c0-6.354-4.242-11.709-10.048-13.413z" fill-rule="evenodd" clip-rule="evenodd" fill="#ed7161"/><path d="M39.43 32.729l-4.703-4.702 4.703-4.702a1.903 1.903 0 00-2.691-2.691l-4.702 4.703-4.763-4.762a1.91 1.91 0 10-2.701 2.701l4.763 4.762-4.705 4.705a1.902 1.902 0 102.69 2.69l4.705-4.705 4.703 4.702a1.91 1.91 0 102.701-2.701z" fill-rule="evenodd" clip-rule="evenodd" fill="#fff"/></svg>