<svg xmlns="http://www.w3.org/2000/svg" width="64" height="46"><path d="M53.952 18.6c.007-.203.03-.401.03-.606C53.982 8.056 45.921 0 35.978 0c-7.438 0-13.82 4.509-16.565 10.941a10.937 10.937 0 00-4.412-.929c-6.07 0-10.992 4.926-10.992 11.001 0 .387.021.769.06 1.145A13.931 13.931 0 000 32.013C0 39.738 6.266 46 13.995 46l.031-.001V46h35.947v-.001l.03.001C57.733 46 64 39.738 64 32.013c0-6.354-4.242-11.709-10.048-13.413z" fill-rule="evenodd" clip-rule="evenodd" fill="#48a0dc"/><path d="M20.18 24H28a2 2 0 000-4h-1.275A7.94 7.94 0 0132 18c3.726 0 6.848 2.552 7.737 6h4.083c-.954-5.673-5.876-9.999-11.82-9.999-3.078 0-5.88 1.16-8 3.065v-1.065a2 2 0 10-4 0V22c0 .193.036.377.087.554l.032.103c.061.175.14.34.244.488-.069.282-.134.565-.183.855zm23.733 5.446l-.032-.103a1.973 1.973 0 00-.244-.488c.069-.282.135-.566.184-.855H36a2 2 0 000 4h1.276A7.938 7.938 0 0132 34.001c-3.727 0-6.849-2.552-7.738-6.001H20.18c.954 5.674 5.875 10 11.82 10 3.077 0 5.879-1.16 8-3.065V36a2 2 0 004 0v-6.001c0-.193-.036-.376-.087-.553z" fill-rule="evenodd" clip-rule="evenodd" fill="#fff"/></svg>