<svg xmlns="http://www.w3.org/2000/svg" width="64" height="46"><path d="M53.952 18.6c.007-.203.031-.401.031-.606C53.982 8.056 45.921 0 35.978 0c-7.438 0-13.82 4.509-16.565 10.941a10.933 10.933 0 00-4.412-.929c-6.07 0-10.992 4.926-10.992 11.001 0 .387.021.769.06 1.145A13.927 13.927 0 000 32.013C0 39.738 6.266 46 13.995 46l.031-.001V46h35.947v-.001l.03.001C57.733 46 64 39.738 64 32.013c0-6.354-4.243-11.709-10.048-13.413z" fill-rule="evenodd" clip-rule="evenodd" fill="#48a0dc"/><path d="M39.35 26.586a2.08 2.08 0 00-2.933 0L34 28.995V18a2 2 0 10-4 0v11.09l-2.491-2.5a2.06 2.06 0 00-2.921 0 2.077 2.077 0 000 2.931l5.842 5.859c.324.326.73.51 1.151.574a1.995 1.995 0 001.85-.559c.017-.015.037-.024.053-.04l5.866-5.846a2.064 2.064 0 000-2.923z" fill-rule="evenodd" clip-rule="evenodd" fill="#fff"/></svg>