<svg xmlns="http://www.w3.org/2000/svg" width="64" height="46"><path d="M53.952 18.6c.007-.203.03-.401.03-.606C53.982 8.056 45.922 0 35.978 0c-7.438 0-13.82 4.509-16.565 10.941a10.937 10.937 0 00-4.412-.929c-6.07 0-10.992 4.926-10.992 11.001 0 .387.021.769.06 1.145A13.931 13.931 0 000 32.013C0 39.738 6.266 46 13.995 46l.031-.001V46h35.947v-.001l.03.001C57.733 46 64 39.738 64 32.013c0-6.354-4.242-11.709-10.048-13.413z" fill-rule="evenodd" clip-rule="evenodd" fill="#88c057"/><path d="M41.393 20.568a2.015 2.015 0 00-2.854 0l-8.521 8.52-4.509-4.516c-.807-.809-2.114-.809-2.921 0s-.807 2.117 0 2.926l5.841 5.851c.207.208.448.36.705.461a2.015 2.015 0 002.271-.399l9.988-9.988a2.02 2.02 0 000-2.855z" fill-rule="evenodd" clip-rule="evenodd" fill="#fff"/></svg>