<svg xmlns="http://www.w3.org/2000/svg" width="64" height="46"><path d="M53.952 18.6c.007-.203.031-.401.031-.606C53.982 8.056 45.921 0 35.978 0c-7.438 0-13.82 4.509-16.565 10.941a10.933 10.933 0 00-4.412-.929c-6.071 0-10.992 4.926-10.992 11.001 0 .387.021.769.06 1.145A13.927 13.927 0 000 32.013C0 39.738 6.266 46 13.995 46l.03-.001V46h35.948v-.001l.03.001C57.733 46 64 39.738 64 32.013c0-6.354-4.243-11.709-10.048-13.413z" fill-rule="evenodd" clip-rule="evenodd" fill="#9b7cab"/><path d="M39.411 22.479l-5.841-5.86a2.034 2.034 0 00-1.153-.573 1.992 1.992 0 00-1.847.559c-.017.016-.038.025-.055.042l-5.866 5.846a2.062 2.062 0 000 2.923 2.08 2.08 0 002.933 0L30 23.005v10.996a2 2 0 004 0V22.912l2.49 2.499a2.06 2.06 0 002.921 0 2.078 2.078 0 000-2.932z" fill-rule="evenodd" clip-rule="evenodd" fill="#fff"/></svg>