<svg xmlns="http://www.w3.org/2000/svg" width="64" height="60"><path d="M60 52H4a4 4 0 100 8h56a4 4 0 000-8z" fill="#ccc"/><path d="M42 52H22a4 4 0 100 8h20a4 4 0 000-8z" fill="#4d4d4d"/><path fill="gray" d="M28 43.999h8V52h-8z"/><path d="M60 0H4a4 4 0 00-4 4v35.999a4 4 0 004 4h56a4 4 0 004-4V4a4 4 0 00-4-4z" fill="#48a0dc"/><path d="M55.834 21.324a2.076 2.076 0 00-.479-.81l-5.847-5.865c-.807-.81-2.114-.81-2.922 0s-.808 2.123 0 2.933l2.409 2.417H40a2 2 0 100 4h9.09l-2.5 2.491a2.056 2.056 0 000 2.92 2.076 2.076 0 002.93 0l5.861-5.841a2.056 2.056 0 00.453-2.245zM32.001 9.999h-.002A2 2 0 0030 12v20c0 1.104.894 1.999 1.999 1.999h.002a2 2 0 002-2v-20a2 2 0 00-2-2zM23.998 20h-9.089l2.5-2.491a2.06 2.06 0 000-2.921 2.077 2.077 0 00-2.931 0l-5.86 5.842a2.054 2.054 0 00-.451 2.244c.1.295.245.575.479.81l5.846 5.866a2.06 2.06 0 002.922 0 2.077 2.077 0 000-2.933l-2.409-2.418H24A2 2 0 1023.998 20z" fill-rule="evenodd" clip-rule="evenodd" fill="#fff"/></svg>