<svg xmlns="http://www.w3.org/2000/svg" width="64" height="64"><path d="M62 26a2 2 0 000-4H50v-4h12a2 2 0 000-4H50V2a2 2 0 00-4 0v12h-4V2a2 2 0 00-4 0v12h-4V2a2 2 0 00-4 0v12h-4V2a2 2 0 00-4 0v12h-4V2a2 2 0 00-4 0v12H2a2 2 0 000 4h12v4H2a2 2 0 000 4h12v4H2a2 2 0 000 4h12v4H2a2 2 0 100 4h12v4H2a2 2 0 000 4h12v12a2 2 0 004 0V50h4v12a2 2 0 004 0V50h4v12a2 2 0 004 0V50h4v12a2 2 0 004 0V50h4v12a2 2 0 004 0V50h12a2 2 0 000-4H50v-4h12a2 2 0 000-4H50v-4h12a2 2 0 000-4H50v-4h12zm-16-8v4h-4v-4h4zm-8 0v4h-4v-4h4zm-8 16v4h-4v-4h4zm-4-4v-4h4v4h-4zm8 4h4v4h-4v-4zm0-4v-4h4v4h-4zm-4-12v4h-4v-4h4zm-12 0h4v4h-4v-4zm0 8h4v4h-4v-4zm0 8h4v4h-4v-4zm0 12v-4h4v4h-4zm8 0v-4h4v4h-4zm8 0v-4h4v4h-4zm12 0h-4v-4h4v4zm0-8h-4v-4h4v4zm0-8h-4v-4h4v4z" fill-rule="evenodd" clip-rule="evenodd" fill="#fc6"/><path d="M50 10H14a4 4 0 00-4 4v36a4 4 0 004 4h36a4 4 0 004-4V14a4 4 0 00-4-4z" fill="#4d4d4d"/><path d="M48 14H16a2 2 0 00-2 2v32a2 2 0 002 2h32a2 2 0 002-2V16a2 2 0 00-2-2z" fill="gray"/><path d="M30 23.998a2 2 0 00-2.001-2h-8a2 2 0 000 4h4.31l-1.724 2.586a2 2 0 001.414 3.413 2 2 0 11-2 2.001 2 2 0 00-4 0 6 6 0 0012.001 0 5.987 5.987 0 00-2.894-5.125l2.306-3.46A1.99 1.99 0 0030 23.998zM44 36h-3.386l3.586-3.701-.023-.018A5.949 5.949 0 0046 28a6 6 0 00-12 0 1.998 1.998 0 103.996.043h.009C38.004 28.028 38 28.015 38 28a2 2 0 014 0c0 .641-.307 1.205-.776 1.571l.005.007c-.112.084-.201.189-.292.293l-.018-.013-6.239 6.64.006.004A1.99 1.99 0 0034 38a2 2 0 002 2h8a2 2 0 000-4z" fill-rule="evenodd" clip-rule="evenodd" fill="#fff"/></svg>