<svg xmlns="http://www.w3.org/2000/svg" width="64" height="64"><path d="M62 26a2 2 0 000-4H50v-4h12a2 2 0 000-4H50V2a2 2 0 00-4 0v12h-4V2a2 2 0 00-4 0v12h-4V2a2 2 0 00-4 0v12h-4V2a2 2 0 00-4 0v12h-4V2a2 2 0 00-4 0v12H2a2 2 0 000 4h12v4H2a2 2 0 000 4h12v4H2a2 2 0 000 4h12v4H2a2 2 0 100 4h12v4H2a2 2 0 000 4h12v12a2 2 0 004 0V50h4v12a2 2 0 004 0V50h4v12a2 2 0 004 0V50h4v12a2 2 0 004 0V50h4v12a2 2 0 004 0V50h12a2 2 0 000-4H50v-4h12a2 2 0 000-4H50v-4h12a2 2 0 000-4H50v-4h12zm-16-8v4h-4v-4h4zm-8 0v4h-4v-4h4zm-8 16v4h-4v-4h4zm-4-4v-4h4v4h-4zm8 4h4v4h-4v-4zm0-4v-4h4v4h-4zm-4-12v4h-4v-4h4zm-12 0h4v4h-4v-4zm0 8h4v4h-4v-4zm0 8h4v4h-4v-4zm0 12v-4h4v4h-4zm8 0v-4h4v4h-4zm8 0v-4h4v4h-4zm12 0h-4v-4h4v4zm0-8h-4v-4h4v4zm0-8h-4v-4h4v4z" fill-rule="evenodd" clip-rule="evenodd" fill="#fc6"/><path d="M50 10H14a4 4 0 00-4 4v36a4 4 0 004 4h36a4 4 0 004-4V14a4 4 0 00-4-4z" fill="#4d4d4d"/><path d="M48 14H16a2 2 0 00-2 2v32a2 2 0 002 2h32a2 2 0 002-2V16a2 2 0 00-2-2z" fill="gray"/><path d="M46 31.998v-8c0-1.013-.755-1.84-1.73-1.972a1.991 1.991 0 00-1.907.72l-7.878 9.759c-.313.39-.461.86-.468 1.332-.005.054-.017.105-.017.161 0 1.048.808 1.896 1.833 1.983h.006c.054.005.105.017.161.017h6v2.001a2 2 0 004 0v-2.001a2 2 0 000-4zm-4 0h-1.773L42 29.801v2.197zm-18-4.01a5.99 5.99 0 00-.873.07c.571-.982 1.339-1.708 2.261-2.629.004-.004.007-.012.011-.017.377-.364.612-.873.612-1.438A2.01 2.01 0 0024 21.967c-.439 0-.843.145-1.174.384-.076.051-.15.105-.213.168-2.213 2.208-4.645 4.846-4.645 11.49 0 3.319 2.705 6.02 6.031 6.02s6.031-2.7 6.031-6.02c.001-3.32-2.704-6.021-6.03-6.021zm0 8.029c-1.108 0-2.011-.9-2.011-2.007a2.012 2.012 0 014.022 0A2.012 2.012 0 0124 36.017z" fill-rule="evenodd" clip-rule="evenodd" fill="#fff"/></svg>