<svg xmlns="http://www.w3.org/2000/svg" width="64" height="36"><path d="M60 0H4a4 4 0 00-4 4v28a4 4 0 004 4h56a4 4 0 004-4V4a4 4 0 00-4-4z" fill="gray"/><path d="M54 6.001H10A4 4 0 006 10v12.001a8 8 0 008 8h36a8 8 0 008-8V10a4 4 0 00-4-3.999z" fill="#e6e6e6"/><path d="M16 16.001h-4a2 2 0 000 4h4a2 2 0 000-4zm8-4a2 2 0 100 4 2 2 0 000-4zm0 8a2 2 0 100 4 2 2 0 000-4zm8-8a2 2 0 100 4 2 2 0 000-4zm0 8a2 2 0 100 4 2 2 0 000-4zm8-8a2 2 0 100 4 2 2 0 000-4zm0 8a2 2 0 100 4 2 2 0 000-4zm8-4A2 2 0 1047.999 12 2 2 0 0048 16zm0 4a2 2 0 100 4 2 2 0 000-4z" fill-rule="evenodd" clip-rule="evenodd" fill="gray"/></svg>