<svg xmlns="http://www.w3.org/2000/svg" width="48" height="64"><path d="M44 0H4a4 4 0 00-4 4v56a4 4 0 004 4h40a4 4 0 004-4V4a4 4 0 00-4-4z" fill="#666"/><path d="M26 56h-4a2 2 0 000 4h4a2 2 0 000-4z" fill="#4d4d4d"/><path d="M42 4H6a2 2 0 00-2 2v44a2 2 0 002 2h36a2 2 0 002-2V6a2 2 0 00-2-2z" fill="#e6e6e6"/><path d="M18 24.001h-8a2 2 0 100 4h8a2 2 0 000-4zM18 32h-8a2 2 0 000 4.001h8A2 2 0 0018 32zm-4 8.001h-4A2 2 0 1010 44h4a2 2 0 000-3.999zm12-12h12a2 2 0 000-4H26a2 2 0 100 4zM38 32H26a2 2 0 000 4.001h12A2 2 0 0038 32zm-8 8.001h-4A2 2 0 1026 44h4a2 2 0 000-3.999z" fill-rule="evenodd" clip-rule="evenodd" fill="#999"/><path d="M30 10.001H18a2 2 0 100 4h12a2 2 0 000-4z" fill="#666"/></svg>