<svg xmlns="http://www.w3.org/2000/svg" width="64" height="64"><path d="M60 0H4a4 4 0 00-4 4v56a4 4 0 004 4h56a4 4 0 004-4V4a4 4 0 00-4-4z" fill="gray"/><path d="M6 4a2 2 0 100 4 2 2 0 000-4zm52 4a2 2 0 10-.001-4.001A2 2 0 0058 8zM6 56a2 2 0 100 4 2 2 0 000-4zm52 0a2 2 0 100 4 2 2 0 000-4z" fill-rule="evenodd" clip-rule="evenodd" fill="#fff"/><circle cx="32" cy="32" r="24" fill="#fff"/><path d="M47.943 33.997H36.024C40.016 33.965 44 26 44 26s3.563-6.438 0-10c-4.063-4.063-8-4-8-4s-2 0-2 4v11.696c-.293-4.048-7.96-8.021-7.96-8.021s-6.427-3.677-9.984 0c-4.056 4.192-3.993 8.256-3.993 8.256s0 2.064 3.993 2.064h15.976s1.822.038 1.969-1.841V32s-.059 1.98 1.977 1.997H31.97s-1.817-.039-1.969 1.834v-3.837S30.065 30 27.925 30c-4.151 0-8.303 7.977-8.303 7.977s-3.697 6.42 0 9.972c4.217 4.052 8.303 3.989 8.303 3.989s2.076 0 2.076-3.989V36.307c.303 4.048 7.959 8.018 7.959 8.018s6.428 3.68 9.984 0c4.057-4.195 3.994-8.262 3.994-8.262s0-2.066-3.995-2.066z" fill-rule="evenodd" clip-rule="evenodd" fill="gray"/><circle cx="32" cy="32" r="6" fill="#4d4d4d"/></svg>