<svg xmlns="http://www.w3.org/2000/svg" width="64" height="64"><path d="M38 32s6-4 6-10c0-4-2-6-2-6s-2 8-8 8c0 0 2-3.393 2-6 0-4-4-8-4-8 0 4-2 6-2 6s-4-4-4-8c0-6 2-8 2-8s-8 2-8 10c0 4 2 8 2 10 0 4-2 8-4 8s-2-2-2-4c0-4 2-6 2-6s-6 2-6 11.999C12 34 14 46 28 46c16 0 18-12 18-20 0 0-4 6-8 6z" fill="#fc6"/><path d="M62 36h-6a2 2 0 000-4H36a2 2 0 000 4H8v12a2 2 0 000 4v12h48V52a2 2 0 000-4h6V36z" fill-rule="evenodd" clip-rule="evenodd" fill="#e6e6e6"/><path d="M28 52H8a2 2 0 00-2 1.999v8A2 2 0 008 64h20a2 2 0 002-2.001v-8A2 2 0 0028 52zm28 0H36a2 2 0 00-2 1.999v8A2 2 0 0036 64h20a2 2 0 002-2.001v-8A2 2 0 0056 52zm-40-6.001v-8A2 2 0 0014 36H2a2 2 0 00-2 1.999v8A2 2 0 002 48h12a2 2 0 002-2.001zM22 48h20a2 2 0 002-2.001v-8A2 2 0 0042 36H22a2 2 0 00-2 1.999v8A2 2 0 0022 48zm14-16h20a2 2 0 002-2.001v-8A2 2 0 0056 20H36a2 2 0 00-2 1.999v8A2 2 0 0036 32zm26 4H50a2 2 0 00-2 1.999v8A2 2 0 0050 48h12a2 2 0 002-2.001v-8A2 2 0 0062 36z" fill-rule="evenodd" clip-rule="evenodd" fill="#ed7161"/></svg>