<svg xmlns="http://www.w3.org/2000/svg" width="36" height="64.001"><path d="M28 0H8a8 8 0 00-8 8.001V56a8 8 0 008 8.001h20A8 8 0 0036 56V8.001A8 8 0 0028 0zm4 56a4 4 0 01-4 4.001H8A4 4 0 014 56V8.001A4 4 0 018 4h20a4 4 0 014 4.001V56z" fill-rule="evenodd" clip-rule="evenodd" fill="#e6e6e6"/><path fill="#b3b3b3" d="M4 8.001h28V56H4z"/><path d="M10 16h16a2 2 0 000-3.999H10A2 2 0 0010 16zm16 4H10a2 2 0 000 4.001h16A2 2 0 0026 20zM10 40.001a2 2 0 00-2 2v8a2 2 0 004 0v-8a2 2 0 00-2-2z" fill-rule="evenodd" clip-rule="evenodd" fill="#e6e6e6"/></svg>