<svg xmlns="http://www.w3.org/2000/svg" width="64" height="52"><path d="M44 40H20a2 2 0 00-2 2v8a2 2 0 002 2h24a2 2 0 002-2v-8a2 2 0 00-2-2z" fill="#ccc"/><path d="M46 48H18a2 2 0 000 4h28a2 2 0 000-4z" fill="#b3b3b3"/><path d="M62 4c-.5-2.21-1.791-4-4-4H6C3.791 0 2.563 1.853 2 4c0 0-2 9.007-2 17.75C0 29.992 2 40 2 40c.563 2.209 1.791 4 4 4h52c2.209 0 3.563-1.729 4-4 0 0 2-10.171 2-18.501C64 12.836 62 4 62 4z" fill="#666"/><path d="M54 6c-.313-1.105-.896-2-2-2H12c-1.104 0-1.625.895-2 2 0 0-2 7.999-2 16 0 8 2 16 2 16 .313 1.229.896 2 2 2h40c1.104 0 1.625-.834 2-2 0 0 2-7.508 2-15.25C56 14.508 54 6 54 6z" fill="#9b7cab"/><path d="M20.86 4h-5.72l.86.86v17.098l-7.804-4.542A57.343 57.343 0 008 22l.001.072L16 26.729V40h4V29.057L38.801 40h8.195L20 24.286V8.86L51.14 40H52c1.104 0 1.625-.834 2-2 0 0 .066-.25.171-.689L20.86 4z" fill-rule="evenodd" clip-rule="evenodd" fill="#e6e6e6"/></svg>