<svg xmlns="http://www.w3.org/2000/svg" width="48" height="64"><path d="M44 0H4a4 4 0 00-4 4v56a4 4 0 004 4h40a4 4 0 004-4V4a4 4 0 00-4-4z" fill="#4d4d4d"/><circle cx="24" cy="28" r="20" fill="#ed7161"/><circle cx="24" cy="28" r="4" fill="#4d4d4d"/><path d="M6 4a2 2 0 100 4 2 2 0 000-4zm36 4a2 2 0 10-.001-4.001A2 2 0 0042 8zm0 48a2 2 0 100 4 2 2 0 000-4z" fill-rule="evenodd" clip-rule="evenodd" fill="#ccc"/><path d="M22 34.012c-.654 0-1.208.334-1.572.816L6 49.537s-2 .992-2 4.479c0 3.298 2.687 5.972 6 5.972 2.795 0 4.748-2.036 5.789-4.485l7.783-18.326c.251-.333.428-.727.428-1.174 0-1.1-.896-1.991-2-1.991z" fill="#e6e6e6"/></svg>