<svg xmlns="http://www.w3.org/2000/svg" width="64" height="68"><path d="M60 0H4a4 4 0 00-4 4v44a4 4 0 004 4h56a4 4 0 004-4V4a4 4 0 00-4-4z" fill="#ccc"/><path d="M60 0H4a4 4 0 00-4 4v40h64V4a4 4 0 00-4-4z" fill-rule="evenodd" clip-rule="evenodd" fill="#4d4d4d"/><path d="M58 4H6a2 2 0 00-2 2v32a2 2 0 002 2h52a2 2 0 002-2V6a2 2 0 00-2-2z" fill="gray"/><path fill-rule="evenodd" clip-rule="evenodd" fill="#b3b3b3" d="M40 52H24l-2 12h20z"/><path d="M44 60H20a4 4 0 00-4 4h32a4 4 0 00-4-4z" fill-rule="evenodd" clip-rule="evenodd" fill="#ccc"/></svg>