<svg xmlns="http://www.w3.org/2000/svg" width="40" height="64"><path d="M20 0C8.954 0 0 8.954 0 19.999 0 41.712 19.954 64 20 64c.379 0 20-22.621 20-44.001C40 8.954 31.045 0 20 0z" fill="#f06eaa"/><path d="M25.964 13.998l-.01.001h-5.963c-1.1 0-1.991.895-1.991 2v16c0 1.104.892 2 1.991 2s1.991-.896 1.991-2v-2h-.001v-4.001h3.982c3.3 0 5.974-2.686 5.974-6 .001-3.313-2.673-6-5.973-6zm0 8l-3.982.001v-4h3.973l.01-.001c1.1 0 1.991.896 1.991 2s-.893 2-1.992 2zm-13.999-7.999c-1.1 0-1.991.895-1.991 2v16c0 1.104.892 2 1.991 2s1.991-.896 1.991-2v-16c0-1.105-.892-2-1.991-2z" fill-rule="evenodd" clip-rule="evenodd" fill="#fff"/></svg>