<svg xmlns="http://www.w3.org/2000/svg" width="42" height="64"><path d="M38 0H4C2.208 0 0 2.083 0 4.001v56C.001 61.815 2.087 64 4 64h34c1.9 0 3.999-2.048 4-3.999v-56C42 2.083 39.854 0 38 0z" fill="#ccc"/><path d="M24.074 24c-.557.021-1.23.318-1.629.721-.358.356-.671.927-.588 1.474.621.041 1.254-.272 1.641-.674.386-.404.647-.962.576-1.521zM24 30c0-2.374 1.697-2.479 1.743-2.509-.577-.848-1.477-.965-1.797-.978-.765-.079-1.493.452-1.882.452-.387 0-.986-.441-1.621-.43-.834.013-1.604.486-2.032 1.238-.867 1.511-.223 3.75.622 4.976.413.598.905 1.272 1.551 1.247.623-.023.858-.404 1.611-.404.752 0 .963.404 1.621.393.67-.012 1.094-.611 1.504-1.213.474-.696.669-1.37.681-1.403-.015-.008-2.002.126-2.001-1.369z" fill-rule="evenodd" clip-rule="evenodd" fill="gray"/><circle cx="10" cy="9.998" r="2" fill="gray"/></svg>