<svg xmlns="http://www.w3.org/2000/svg" width="36" height="64"><path d="M32 0H4C2.207 0 0 2.082 0 4v55.999C0 61.813 2.087 64 4 64h28c1.9 0 4-2.049 4-4.001V4c0-1.918-2.146-4-4-4z" fill="#999"/><path d="M20.074 13.999c-.557.021-1.23.318-1.629.722-.358.355-.671.926-.588 1.473.621.041 1.255-.271 1.641-.674.386-.404.647-.962.576-1.521zM20 20c0-2.375 1.697-2.479 1.743-2.509-.577-.849-1.477-.966-1.797-.979-.765-.079-1.493.453-1.882.453-.387 0-.986-.442-1.621-.431-.834.013-1.604.487-2.032 1.238-.867 1.512-.223 3.75.622 4.976.413.599.905 1.272 1.551 1.248.623-.023.858-.404 1.61-.404s.964.404 1.622.393c.67-.012 1.094-.612 1.504-1.214.474-.695.669-1.369.681-1.403-.015-.007-2.002.126-2.001-1.368z" fill-rule="evenodd" clip-rule="evenodd" fill="#3e3e41"/><circle cx="8" cy="5.998" r="2" fill="#232323"/><circle cx="14" cy="5.998" r="2" fill="#fff"/></svg>