<svg xmlns="http://www.w3.org/2000/svg" width="36" height="64.001"><path d="M32 0H4C2.208 0 0 2.084 0 4.001V60c0 1.814 2.086 4.001 4 4.001h28c1.901 0 4-2.049 4-4.001V4.001C36 2.084 33.854 0 32 0z" fill="#fc6"/><path d="M20.074 14c-.556.021-1.23.318-1.628.722-.358.355-.671.926-.587 1.473.621.042 1.254-.271 1.641-.674.384-.403.645-.961.574-1.521zM20 20.001c0-2.375 1.697-2.479 1.743-2.509-.577-.849-1.477-.966-1.796-.979-.766-.079-1.494.453-1.882.453-.387 0-.987-.441-1.622-.431-.834.014-1.604.487-2.033 1.238-.867 1.511-.222 3.75.623 4.976.413.599.905 1.272 1.55 1.248.623-.023.858-.404 1.611-.404.752 0 .963.404 1.622.393.67-.012 1.094-.612 1.504-1.214.474-.695.669-1.369.681-1.403-.015-.007-2.002.126-2.001-1.368z" fill-rule="evenodd" clip-rule="evenodd" fill="#6d531c"/><circle cx="8" cy="5.999" r="2" fill="#232323"/><circle cx="14" cy="5.999" r="2" fill="#fff"/></svg>