<svg xmlns="http://www.w3.org/2000/svg" width="36" height="64.001"><path d="M0 8v52c0 1.814 2.086 4.001 4 4.001h28c1.9 0 4-2.048 4-4.001V6.002H0V8zm32-8H4C2.208 0 0 2.084 0 4.001v2h36v-2C36 2.084 33.854 0 32 0z" fill="#48a0dc"/><path d="M20.074 14.001c-.557.02-1.23.317-1.629.721-.358.356-.671.927-.588 1.474.621.041 1.255-.272 1.641-.675s.648-.961.576-1.52zm-.074 6c0-2.374 1.697-2.479 1.743-2.509-.577-.849-1.477-.965-1.797-.979-.765-.078-1.493.453-1.882.453-.387 0-.986-.442-1.621-.431-.834.014-1.604.487-2.032 1.239-.867 1.51-.223 3.749.622 4.975.413.599.905 1.272 1.551 1.248.623-.023.858-.404 1.611-.404.752 0 .963.404 1.621.393.67-.012 1.095-.611 1.504-1.214.474-.695.669-1.369.681-1.403-.015-.007-2.002.126-2.001-1.368z" fill-rule="evenodd" clip-rule="evenodd" fill="#304a57"/><circle cx="8" cy="5.998" r="2" fill="#232323"/><circle cx="14" cy="5.998" r="2" fill="#fff"/></svg>