<svg xmlns="http://www.w3.org/2000/svg" width="16" height="64"><path d="M8 46.349V16a4 4 0 00-8 0v42a6 6 0 0012 0v-6a5.995 5.995 0 00-4-5.651z" fill-rule="evenodd" clip-rule="evenodd" fill="#75a64b"/><path d="M8 46.349V58a2 2 0 004 0v-6a5.995 5.995 0 00-4-5.651z" fill-rule="evenodd" clip-rule="evenodd" fill="#638c3f"/><path d="M10 0a6 6 0 00-6 6v6a5.996 5.996 0 004 5.651v32.348a4 4 0 108 0V6a6 6 0 00-6-6z" fill-rule="evenodd" clip-rule="evenodd" fill="#88c057"/><path d="M8 17.651V6a2 2 0 00-4 0v6a5.996 5.996 0 004 5.651z" fill-rule="evenodd" clip-rule="evenodd" fill="#75a64b"/><path d="M4 12a4 4 0 00-4 4v20h8V16a4 4 0 00-4-4z" fill-rule="evenodd" clip-rule="evenodd" fill="#ccc"/></svg>