<svg xmlns="http://www.w3.org/2000/svg" width="64" height="40"><path d="M60 0H4a4 4 0 00-4 4v32a4 4 0 004 4h56a4 4 0 004-4V4a4 4 0 00-4-4z" fill="#b3b3b3"/><path d="M10 4H6a2 2 0 00-2 2v4a2 2 0 002 2h4a2 2 0 002-2V6a2 2 0 00-2-2zm8 8h4a2 2 0 002-2V6a2 2 0 00-2-2h-4a2 2 0 00-2 2v4a2 2 0 002 2zm12 0h4a2 2 0 002-2V6a2 2 0 00-2-2h-4a2 2 0 00-2 2v4a2 2 0 002 2zm12 0h4a2 2 0 002-2V6a2 2 0 00-2-2h-4a2 2 0 00-2 2v4a2 2 0 002 2zm16-8h-4a2 2 0 00-2 2v4a2 2 0 002 2h4a2 2 0 002-2V6a2 2 0 00-2-2zM10 16.001H6A2 2 0 004 18v4a2 2 0 002 2h4a2 2 0 002-2v-4a2 2 0 00-2-1.999zM18 24h4a2 2 0 002-2v-4a2 2 0 00-2-1.999h-4A2 2 0 0016 18v4a2 2 0 002 2zm12 0h4a2 2 0 002-2v-4a2 2 0 00-2-1.999h-4A2 2 0 0028 18v4a2 2 0 002 2zm28-7.999H42A2 2 0 0040 18v4a2 2 0 002 2h16a2 2 0 002-2v-4a2 2 0 00-2-1.999zM10 28H6a2 2 0 00-2 2v4a2 2 0 002 2h4a2 2 0 002-2v-4a2 2 0 00-2-2zm36 0H18a2 2 0 00-2 2v4a2 2 0 002 2h28a2 2 0 002-2v-4a2 2 0 00-2-2zm12 0h-4a2 2 0 00-2 2v4a2 2 0 002 2h4a2 2 0 002-2v-4a2 2 0 00-2-2z" fill-rule="evenodd" clip-rule="evenodd" fill="#fff"/></svg>