<svg xmlns="http://www.w3.org/2000/svg" width="64" height="64.013"><path d="M60 0H4a4 4 0 00-4 4v36a4 4 0 004 4h56a4 4 0 004-4V4a4 4 0 00-4-4z" fill="#e6e6e6"/><path d="M58 4H6a2 2 0 00-2 2v32a2 2 0 002 2h52a2 2 0 002-2V6a2 2 0 00-2-2z" fill="#b3b3b3"/><path fill="#4d4d4d" d="M8 8h48v28H8z"/><path fill="#ccc" d="M30 44h4v8h-4z"/><path d="M32 48c-7.732 0-14 6.268-14 13.999C18 64.232 32 64 32 64s14 .295 14-2.001C46 54.268 39.731 48 32 48z" fill="#e6e6e6"/><path d="M38 56H26a2 2 0 100 4h12a2 2 0 000-4z" fill="#ccc"/></svg>