<svg xmlns="http://www.w3.org/2000/svg" width="64" height="64"><path d="M60 0H4a4 4 0 00-4 4.001V60a4 4 0 004 4h56a4 4 0 004-4V4.001A4 4 0 0060 0z" fill="#ccc"/><path d="M54 8.001H10A2 2 0 008 10v44.001A2 2 0 0010 56h44a2 2 0 002-1.999V10a2 2 0 00-2-1.999z" fill="#e6e6e6"/><path d="M50 12H14a2 2 0 00-2 2v24c0 1.104.896 2.001 2 2.001h2V44c0 1.104.896 2.001 2 2.001h2v4a2 2 0 002 2h20a2 2 0 002-2v-4h2A2 2 0 0048 44v-3.999h2A2 2 0 0052 38V14a2 2 0 00-2-2z" fill-rule="evenodd" clip-rule="evenodd" fill="#4d4d4d"/><path d="M16 16.001A2 2 0 0014 18v4a2 2 0 004 0v-4a2 2 0 00-2-1.999zm8 0A2 2 0 0022 18v4a2 2 0 004 0v-4a2 2 0 00-2-1.999zm8 0A2 2 0 0030 18v4a2 2 0 004 0v-4a2 2 0 00-2-1.999zm8 0A2 2 0 0038 18v4a2 2 0 004 0v-4a2 2 0 00-2-1.999zm8 0A2 2 0 0046 18v4a2 2 0 004 0v-4a2 2 0 00-2-1.999z" fill-rule="evenodd" clip-rule="evenodd" fill="#fc6"/></svg>