<svg xmlns="http://www.w3.org/2000/svg" width="28" height="64"><path d="M16 54h-4a2 2 0 00-2 2v6a2 2 0 002 2h4a2 2 0 002-2v-6a2 2 0 00-2-2z" fill="#ccc"/><path d="M18 46h-8a2 2 0 00-2 2v6a2 2 0 002 2h8a2 2 0 002-2v-6a2 2 0 00-2-2z" fill="#b3b3b3"/><path d="M24 16H4a4 4 0 00-4 4v24a4 4 0 004 3.999h20A4 4 0 0028 44V20a4 4 0 00-4-4z" fill="#ccc"/><path d="M22 0H6a2 2 0 00-2 2v14.001h20V2a2 2 0 00-2-2z" fill-rule="evenodd" clip-rule="evenodd" fill="#e6e6e6"/><path d="M8 2.001V10a2 2 0 004 0V0H8v2.001zM16 0v10a2 2 0 004 0V0h-4z" fill-rule="evenodd" clip-rule="evenodd" fill="#fc6"/><path d="M14 8.001A2 2 0 0012 10v16a2 2 0 004 0V10a2 2 0 00-2-1.999z" fill="#e6e6e6"/></svg>