<svg xmlns="http://www.w3.org/2000/svg" width="28" height="64"><path d="M16 46h-4a2 2 0 00-2 2v14a2 2 0 002 2h4a2 2 0 002-2V48a2 2 0 00-2-2z" fill="#ccc"/><path d="M18 48h-8a2 2 0 00-2 2v6a2 2 0 002 2h8a2 2 0 002-2v-6a2 2 0 00-2-2z" fill="#b3b3b3"/><path d="M24 16H4a4 4 0 00-4 4v28a4 4 0 004 4h20a4 4 0 004-4V20a4 4 0 00-4-4z" fill="#ccc"/><path d="M22 20H6a2 2 0 00-2 2v24a2 2 0 002 2h16a2 2 0 002-2V22a2 2 0 00-2-2z" fill="#fff"/><path d="M22 0H6a2 2 0 00-2 2v14h20V2a2 2 0 00-2-2z" fill-rule="evenodd" clip-rule="evenodd" fill="#b3b3b3"/><path d="M18 4h-8a2 2 0 00-2 2v4a2 2 0 002 2h8a2 2 0 002-2V6a2 2 0 00-2-2z" fill="#fff"/><path d="M12 6a2 2 0 10.001 4.001A2 2 0 0012 6zm4 0a2 2 0 10.001 4.001A2 2 0 0016 6z" fill-rule="evenodd" clip-rule="evenodd" fill="#fc6"/></svg>