<svg xmlns="http://www.w3.org/2000/svg" width="48" height="60.001"><path d="M44 20.001C44 8.954 35.046 0 24 0 12.955 0 4 8.954 4 20.001V30h2.697c3.46 5.972 9.905 10 17.303 10 7.399 0 13.843-4.028 17.303-10H44v-9.999zM36 30h-5.372c-1.9 1.262-4.177 2-6.628 2s-4.729-.738-6.628-2H12v-9.999C12 13.373 17.373 8 24 8s12 5.373 12 12.001V30z" fill-rule="evenodd" clip-rule="evenodd" fill="#ccc"/><path d="M44 30H4c-2.209 0-4 1.792-4 4.001V56a4 4 0 004 4.001h40A4 4 0 0048 56V34.001A4.001 4.001 0 0044 30z" fill="#fc6"/><path d="M28 44.001a4 4 0 10-8 0c0 1.476.81 2.751 2 3.444v4.556h4v-4.556c1.191-.693 2-1.968 2-3.444z" fill-rule="evenodd" clip-rule="evenodd" fill="#666"/></svg>