<svg xmlns="http://www.w3.org/2000/svg" width="64" height="48"><path d="M56 0H8a4 4 0 00-4 4v36a4 4 0 004 3.999h48A4 4 0 0060 40V4a4 4 0 00-4-4z" fill="#333"/><path d="M54 4H10a2 2 0 00-2 1.999v28A2 2 0 0010 36h44a2 2 0 002-2.001v-28A2 2 0 0054 4z" fill="gray"/><path d="M60 40H0v3.999A4 4 0 004 48h56a4 4 0 004-4.001V40h-4z" fill-rule="evenodd" clip-rule="evenodd" fill="#ccc"/><path d="M38 40H24v2a2 2 0 002 1.999h12A2 2 0 0040 42v-2h-2z" fill-rule="evenodd" clip-rule="evenodd" fill="#999"/></svg>