<svg xmlns="http://www.w3.org/2000/svg" width="36" height="64"><path d="M24 0H12C5.372 0 0 5.372 0 12.001V52c0 6.628 5.372 12 12 12h12c6.627 0 12-5.372 12-12V12.001C36 5.372 30.627 0 24 0z" fill="#e6e6e6"/><path d="M20.07 43.995c-.556.02-1.229.318-1.628.722-.358.356-.671.927-.587 1.474.62.042 1.253-.271 1.64-.674.386-.403.646-.963.575-1.522zm.608 5.376c-.012-1.251 1.015-1.852 1.061-1.882-.577-.849-1.476-.966-1.796-.979-.765-.078-1.492.453-1.88.453s-.986-.442-1.621-.431c-.834.013-1.602.487-2.031 1.239-.866 1.512-.222 3.753.623 4.979.412.601.904 1.274 1.549 1.25.623-.024.858-.404 1.61-.404.751 0 .963.404 1.62.392.67-.012 1.094-.611 1.504-1.214.473-.696.668-1.371.68-1.405-.016-.007-1.306-.503-1.319-1.998z" fill-rule="evenodd" clip-rule="evenodd" fill="#b3b3b3"/></svg>