<svg xmlns="http://www.w3.org/2000/svg" width="56" height="64"><path d="M30 54h-4a2 2 0 00-2 2v6a2 2 0 002 2h4a2 2 0 002-2v-6a2 2 0 00-2-2z" fill="#ccc"/><path d="M32 46h-8a2 2 0 00-2 2v6a2 2 0 002 2h8a2 2 0 002-2v-6a2 2 0 00-2-2z" fill="#b3b3b3"/><path d="M52 8H4a4 4 0 00-4 4v32a4 4 0 004 3.999h48A4 4 0 0056 44V12a4 4 0 00-4-4z" fill="#e6e6e6"/><path d="M46 0H10a2 2 0 00-2 2v6h40V2a2 2 0 00-2-2z" fill-rule="evenodd" clip-rule="evenodd" fill="#b3b3b3"/><circle cx="28" cy="28" r="2" fill="#999"/></svg>