<svg xmlns="http://www.w3.org/2000/svg" width="28" height="64"><path d="M20 46h-4a2 2 0 00-2 2v14a2 2 0 002 2h4a2 2 0 002-2V48a2 2 0 00-2-2z" fill="#ccc"/><path d="M22 48h-8a2 2 0 00-2 2v6a2 2 0 002 2h8a2 2 0 002-2v-6a2 2 0 00-2-2z" fill="#b3b3b3"/><path d="M24 0H12a4 4 0 00-4 4v44a4 4 0 004 4h12a4 4 0 004-4V4a4 4 0 00-4-4z" fill="#ccc"/><path d="M8.01 8.001L8 8H4a4 4 0 00-4 4v20a4 4 0 004 4h4v.001h4v-28H8.01z" fill-rule="evenodd" clip-rule="evenodd" fill="#b3b3b3"/><circle cx="20" cy="22.001" r="2" fill="#999"/></svg>