<svg xmlns="http://www.w3.org/2000/svg" width="64" height="64"><path d="M60 54H4a4 4 0 100 8h56a4 4 0 000-8z" fill="#ccc"/><circle cx="32" cy="58" r="6" fill="#4d4d4d"/><path d="M43.667 6.856C38.926 6.856 34.748 3.533 32 0c-2.749 3.533-6.925 6.856-11.667 6.856-3.085 0-5.949-1.786-8.333-3.429v24.06c0 9.489 13.308 20.511 19.874 20.511 7.001 0 20.127-11.021 20.126-20.511V3.428c-2.385 1.642-5.248 3.428-8.333 3.428z" fill="#ed7161"/><path d="M39.43 28.725l-4.703-4.702 4.703-4.702a1.905 1.905 0 000-2.691 1.905 1.905 0 00-2.691 0l-4.703 4.703-4.762-4.762a1.908 1.908 0 00-2.701 0 1.908 1.908 0 000 2.7l4.763 4.762-4.705 4.706a1.902 1.902 0 102.69 2.69l4.706-4.705 4.703 4.702a1.91 1.91 0 002.7-2.701z" fill-rule="evenodd" clip-rule="evenodd" fill="#fff"/></svg>