<svg xmlns="http://www.w3.org/2000/svg" width="64" height="64"><path d="M60 54H4a4 4 0 100 8h56a4 4 0 000-8z" fill="#ccc"/><circle cx="32" cy="58" r="6" fill="#4d4d4d"/><path d="M43.667 6.856C38.925 6.856 34.749 3.533 32 0c-2.749 3.533-6.925 6.856-11.667 6.856-3.085 0-5.949-1.786-8.333-3.429v24.06c0 9.489 13.308 20.511 19.875 20.511 7 0 20.126-11.021 20.125-20.511V3.428c-2.384 1.642-5.249 3.428-8.333 3.428z" fill="#88c057"/><path d="M41.393 18.564a2.015 2.015 0 00-2.854 0l-8.521 8.521-4.509-4.517a2.06 2.06 0 00-2.92 0 2.07 2.07 0 000 2.926l5.841 5.851c.208.208.45.361.708.462a2.014 2.014 0 002.268-.4l9.989-9.988a2.021 2.021 0 00-.002-2.855z" fill-rule="evenodd" clip-rule="evenodd" fill="#fff"/></svg>