<svg xmlns="http://www.w3.org/2000/svg" width="40" height="64.001"><path d="M32 0H8a8 8 0 00-8 8.001V56a8 8 0 008 8.001h24A8 8 0 0040 56V8.001A8 8 0 0032 0z" fill="#4d4d4d"/><ellipse cx="20" cy="6" rx="12" ry="2" fill="#333"/><path d="M22.989 25.022c.771-.808 1.293-1.929 1.151-3.048-1.112.039-2.459.638-3.256 1.445-.716.715-1.341 1.857-1.174 2.953 1.242.084 2.508-.544 3.279-1.35zm2.367 7.723c-.024-2.508 2.028-3.711 2.121-3.771-1.154-1.702-2.952-1.935-3.592-1.961-1.529-.157-2.984.907-3.762.907-.773 0-1.972-.886-3.24-.862-1.668.026-3.205.977-4.063 2.482-1.732 3.03-.444 7.519 1.245 9.976.825 1.203 1.809 2.553 3.1 2.503 1.245-.048 1.716-.811 3.22-.811 1.503 0 1.926.811 3.241.786 1.339-.023 2.187-1.226 3.006-2.432.947-1.395 1.337-2.746 1.36-2.814-.029-.015-2.608-1.009-2.636-4.003z" fill-rule="evenodd" clip-rule="evenodd" fill="gray"/></svg>