<svg xmlns="http://www.w3.org/2000/svg" width="64" height="80.001"><path d="M60 8h-4c0 4.419-15.582 6.001-20 6.001h-8c-4.418 0-20-1.582-20-6.001H4a4 4 0 00-4 4v56.001a4 4 0 004 4h4c0-4.419 15.582-6 20-6h8c4.418 0 20 1.581 20 6h4a4 4 0 004-4V12a4 4 0 00-4-4z" fill-rule="evenodd" clip-rule="evenodd" fill="#b3b3b3"/><path d="M60 8h-4a8 8 0 01-8 8.001H16A8 8 0 018 8H4a4 4 0 00-4 4v56.001a4 4 0 004 4h4A8 8 0 0116 64h32a8 8 0 018 8.001h4a4 4 0 004-4V12a4 4 0 00-4-4z" fill-rule="evenodd" clip-rule="evenodd" fill="#ccc"/><path d="M34.99 33.022c.771-.808 1.292-1.929 1.15-3.048-1.111.039-2.458.638-3.255 1.445-.716.715-1.341 1.857-1.174 2.953 1.241.084 2.506-.544 3.279-1.35zm2.366 7.723c-.024-2.508 2.029-3.711 2.122-3.771-1.154-1.702-2.952-1.935-3.592-1.961-1.53-.157-2.985.907-3.761.907-.774 0-1.972-.886-3.241-.862-1.668.026-3.205.977-4.063 2.482-1.733 3.03-.444 7.519 1.245 9.976.826 1.203 1.809 2.553 3.1 2.503 1.245-.048 1.715-.811 3.219-.811 1.503 0 1.926.811 3.242.786 1.338-.023 2.187-1.226 3.006-2.432.947-1.395 1.336-2.746 1.36-2.814-.031-.015-2.61-1.009-2.637-4.003z" fill-rule="evenodd" clip-rule="evenodd" fill="#4d4d4d"/></svg>