<svg xmlns="http://www.w3.org/2000/svg" width="44" height="64"><path d="M38 60H4v2a2 2 0 002 2h32a2 2 0 002-2v-2h-2z" fill-rule="evenodd" clip-rule="evenodd" fill="#dbc69c"/><path d="M40 0H4a4 4 0 00-4 4v52a4 4 0 004 4h36a4 4 0 004-4V4a4 4 0 00-4-4z" fill="#f4ddae"/><path d="M38 44h-4a2 2 0 00-2 2H22a2 2 0 000 4h10a2 2 0 002 2h4a2 2 0 002-2v-4a2 2 0 00-2-2z" fill-rule="evenodd" clip-rule="evenodd" fill="#80735b"/><path d="M38 4H6a2 2 0 00-2 2v28a2 2 0 002 2h32a2 2 0 002-2V6a2 2 0 00-2-2z" fill="#ccb891"/><path fill="#4d4d4d" d="M8 8h28v24H8z"/></svg>