<svg xmlns="http://www.w3.org/2000/svg" width="36" height="64.001"><path d="M32 0H4a4 4 0 00-4 4v56.001a4 4 0 004 4h28a4 4 0 004-4V4a4 4 0 00-4-4z" fill="#666"/><path d="M30 4H6a2 2 0 00-2 2.001v4a2 2 0 002 2h24a2 2 0 002-2v-4A2 2 0 0030 4zm0 12H6a2 2 0 00-2 2v4a2 2 0 002 2.001h24A2 2 0 0032 22v-4a2 2 0 00-2-2z" fill-rule="evenodd" clip-rule="evenodd" fill="#999"/><path d="M6 52h4a2 2 0 000-4H6a2 2 0 000 4zm4 4H6a2 2 0 000 4.001h4A2 2 0 0010 56z" fill-rule="evenodd" clip-rule="evenodd" fill="#333"/><circle cx="18" cy="36" r="4" fill="#88c057"/></svg>