<svg xmlns="http://www.w3.org/2000/svg" width="64.055" height="63.99"><path d="M34.854 29.138a4.064 4.064 0 00-5.747 0L1.19 57.055a4.063 4.063 0 105.746 5.746l27.917-27.916a4.065 4.065 0 00.001-5.747z" fill="#ccc"/><path d="M51.482.572a1.952 1.952 0 00-2.762 0L26.624 22.668a1.954 1.954 0 102.763 2.763L51.482 3.334a1.952 1.952 0 000-2.762zm12 10a1.95 1.95 0 00-2.762 0L38.624 32.668a1.952 1.952 0 102.763 2.762l22.096-22.096c.762-.763.762-2-.001-2.762z" fill-rule="evenodd" clip-rule="evenodd" fill="#fc6"/><path d="M32.62 8.004L20.905 19.7c-6.471 6.46-6.471 16.933 0 23.393 6.47 6.459 16.96 6.459 23.43 0L56.05 31.396 32.62 8.004z" fill="gray"/><path d="M33.993 16.003l-7.029 7.029c-3.882 3.882-3.882 10.175 0 14.057 3.883 3.882 10.177 3.882 14.059 0l7.029-7.028-14.059-14.058z" fill="#999"/><path d="M56.836 29.089L34.903 7.156a4.026 4.026 0 10-5.695 5.695l21.933 21.932a4.026 4.026 0 105.695-5.694z" fill="#4d4d4d"/></svg>