<svg xmlns="http://www.w3.org/2000/svg" width="64" height="48"><path d="M58 8H6a2 2 0 00-2 2v24a2 2 0 002 2h52a2 2 0 002-2V10a2 2 0 00-2-2z" fill="#b3b3b3"/><path d="M42 0H6a2 2 0 00-2 2v12a2 2 0 002 2h36a2 2 0 002-2V2a2 2 0 00-2-2z" fill="#4d4d4d"/><path d="M42 32H6a2 2 0 00-2 2v12a2 2 0 002 2h36a2 2 0 002-2V34a2 2 0 00-2-2z" fill="#999"/><path d="M60 12H4a4 4 0 00-4 4v24a4 4 0 004 4v-4a4 4 0 014-4h32a4 4 0 014 4v4h16a4 4 0 004-4V16a4 4 0 00-4-4z" fill-rule="evenodd" clip-rule="evenodd" fill="#e6e6e6"/><circle cx="54" cy="22" r="2" fill="gray"/><circle cx="46" cy="22" r="2" fill="#88c057"/></svg>