<svg xmlns="http://www.w3.org/2000/svg" width="64" height="48"><path d="M56 34H8a4 4 0 00-4 4v6a4 4 0 004 4h48a4 4 0 004-4v-6a4 4 0 00-4-4z" fill="#4d4d4d"/><path d="M50 0H14a2 2 0 00-2 2v30a2 2 0 002 2h36a2 2 0 002-2V2a2 2 0 00-2-2z" fill="#999"/><path d="M60 12H4a4 4 0 00-4 4v24a4 4 0 004 4h4v-4a4 4 0 014-4h40a4 4 0 014 4v4h4a4 4 0 004-4V16a4 4 0 00-4-4z" fill-rule="evenodd" clip-rule="evenodd" fill="#e6e6e6"/><circle cx="54" cy="30" r="2" fill="gray"/><circle cx="54" cy="22" r="2" fill="#48a0dc"/></svg>