<svg xmlns="http://www.w3.org/2000/svg" width="64.006" height="64.006"><path d="M62.844 17.984l-7.192-7.191c-1.009.768-2.253 1.242-3.618 1.242a6 6 0 01-6-6 5.95 5.95 0 011.242-3.619l-1.255-1.254a3.964 3.964 0 00-5.607 0L1.16 40.415a3.965 3.965 0 000 5.607l1.255 1.255a5.94 5.94 0 013.618-1.242 6 6 0 016 6c0 1.365-.475 2.609-1.242 3.618l7.192 7.192a3.965 3.965 0 005.607 0l39.253-39.253a3.964 3.964 0 00.001-5.608z" fill="#668a47"/><path d="M62.844 17.984l-3.38-3.38-44.861 44.86 3.381 3.381a3.965 3.965 0 005.607 0l39.253-39.253a3.965 3.965 0 000-5.608z" fill="#4b6a30"/><path d="M32.63 44.632a2.167 2.167 0 000 3.067l3.068 3.068 3.067-3.067-3.067-3.068a2.168 2.168 0 00-3.068 0zm-6 6a2.169 2.169 0 000 3.067l3.068 3.068 3.067-3.068-3.067-3.067a2.17 2.17 0 00-3.068 0zm-6 6a2.167 2.167 0 000 3.067l3.068 3.068 3.067-3.068-3.067-3.067a2.168 2.168 0 00-3.068 0zm24-24a2.169 2.169 0 000 3.067l3.068 3.068 3.067-3.068-3.067-3.067a2.168 2.168 0 00-3.068 0zm15.068-12A2.17 2.17 0 0056.63 23.7l3.068 3.067 3.067-3.068-3.067-3.067zM38.63 38.631a2.17 2.17 0 000 3.069l3.068 3.067 3.067-3.068-3.067-3.068a2.17 2.17 0 00-3.068 0zm12-11.999a2.167 2.167 0 000 3.067l3.068 3.068 3.067-3.068-3.067-3.067a2.168 2.168 0 00-3.068 0z" fill="#fc6"/><path d="M17.033 32.607a1.988 1.988 0 00-2.809 0l-5.618 5.618a1.987 1.987 0 000 2.81l8.427 8.426a1.986 1.986 0 002.809 0l5.618-5.617a1.988 1.988 0 000-2.809l-8.427-8.428zm12-12a1.988 1.988 0 00-2.809 0l-5.618 5.618a1.989 1.989 0 000 2.81l8.427 8.427a1.988 1.988 0 002.809 0l5.618-5.618a1.988 1.988 0 000-2.809l-8.427-8.428zm20.427-3.572l-8.427-8.428a1.988 1.988 0 00-2.809 0l-5.618 5.618a1.989 1.989 0 000 2.81l8.427 8.426a1.986 1.986 0 002.809 0l5.618-5.617a1.988 1.988 0 000-2.809z" fill-rule="evenodd" clip-rule="evenodd" fill="#4d4d4d"/></svg>