<svg xmlns="http://www.w3.org/2000/svg" width="64" height="56"><path d="M58.563 4.05a1.96 1.96 0 00-2.399 1.379L44 34.001c-.28 1.039 2.391 1.672 3.437 1.95 1.045.278 4.283-.911 4.563-1.95l7.949-27.563a1.95 1.95 0 00-1.386-2.388zM32 0a2 2 0 00-2 2.001l-2 32c0 1.104 2.896 2 4 2s4-.896 4-2l-2-32A2 2 0 0032 0zM7.836 5.429A1.96 1.96 0 005.437 4.05a1.948 1.948 0 00-1.386 2.388L12 34.001c.28 1.039 3.519 2.229 4.563 1.95s3.716-.911 3.437-1.95L7.836 5.429z" fill-rule="evenodd" clip-rule="evenodd" fill="#999"/><path d="M60 32.001H4a4 4 0 00-4 4v16A4 4 0 004 56h56a4 4 0 004-3.999v-16a4 4 0 00-4-4z" fill="#ccc"/><path fill="#4d4d4d" d="M0 36.001h64v16H0z"/><path d="M20 42a2 2 0 10.002 4.002A2 2 0 0020 42zm12 0a2 2 0 10.002 4.002A2 2 0 0032 42zm12 0a2 2 0 10.002 4.002A2 2 0 0044 42zm12 0a2 2 0 10.002 4.002A2 2 0 0056 42z" fill-rule="evenodd" clip-rule="evenodd" fill="gray"/><circle cx="8" cy="44" r="2" fill="#88c057"/></svg>