<svg xmlns="http://www.w3.org/2000/svg" width="64" height="60"><path d="M64 16V4a4 4 0 00-4-4H4a4 4 0 00-4 4v12a4 4 0 004 4 4 4 0 00-4 4v12a4 4 0 004 4 4 4 0 00-4 4v12a4 4 0 004 4h56a4 4 0 004-4V44a4 4 0 00-4-4 4 4 0 004-4V24a4 4 0 00-4-4 4 4 0 004-4z" fill-rule="evenodd" clip-rule="evenodd" fill="#666"/><path d="M4 20h56a4 4 0 004-4H0a4 4 0 004 4zm0 40h56a4 4 0 004-4H0a4 4 0 004 4zm0-20h56a4 4 0 004-4H0a4 4 0 004 4zm8.586-35.415l-4 4a2 2 0 002.828 2.829l4-4a2 2 0 00-2.828-2.829zm10 0l-4 4a2 2 0 002.828 2.829l4-4a2 2 0 00-2.828-2.829zm8.828 6.829l4-4a2 2 0 00-2.828-2.829l-4 4a2 2 0 002.828 2.829zM12.586 24.586l-4 4a2 2 0 102.828 2.828l4-4a2 2 0 10-2.828-2.828zm10 0l-4 4a2 2 0 102.828 2.828l4-4a2 2 0 10-2.828-2.828zm10 0l-4 4a2 2 0 102.828 2.828l4-4a2 2 0 10-2.828-2.828zm-20 20l-4 4a2 2 0 102.828 2.828l4-4a2 2 0 10-2.828-2.828zm10 0l-4 4a2 2 0 102.828 2.828l4-4a2 2 0 10-2.828-2.828zm10 0l-4 4a2 2 0 102.828 2.828l4-4a2 2 0 10-2.828-2.828z" fill-rule="evenodd" clip-rule="evenodd" fill="#333"/><path d="M54 10a2 2 0 10-.001-4.001A2 2 0 0054 10zm-8-4a2 2 0 100 4 2 2 0 000-4zm0 20a2 2 0 100 4 2 2 0 000-4zm8 20a2 2 0 100 4 2 2 0 000-4zm-8 0a2 2 0 100 4 2 2 0 000-4z" fill-rule="evenodd" clip-rule="evenodd" fill="#fc6"/><circle cx="54" cy="28" r="2" fill="#88c057"/></svg>