<svg xmlns="http://www.w3.org/2000/svg" width="60" height="47.999"><path d="M24 15.998h-4c-2.209 0-4 1.792-4 4.001v24a4 4 0 004 4h4a4 4 0 004-4v-24a4.001 4.001 0 00-4-4.001zm-16 8H4c-2.209 0-4 1.792-4 4.002v15.999a4 4 0 004 4h4a4 4 0 004-4V28a4.001 4.001 0 00-4-4.002z" fill-rule="evenodd" clip-rule="evenodd" fill="#48a0dc"/><path d="M56 0h-4c-2.209 0-4 1.789-4 4v39.999a4 4 0 004 4h4c2.21 0 4-1.79 4-4V4c0-2.211-1.79-4-4-4zM40 8h-4c-2.209 0-4 1.789-4 4v31.999a4 4 0 004 4h4c2.21 0 4-1.79 4-4V12c0-2.211-1.79-4-4-4z" fill-rule="evenodd" clip-rule="evenodd" fill="#ccc"/></svg>