<svg xmlns="http://www.w3.org/2000/svg" width="48" height="64"><path d="M44 0H4a4 4 0 00-4 4v56a4 4 0 004 4h40a4 4 0 004-4V4a4 4 0 00-4-4z" fill="#ccc"/><path d="M36 12H12a2 2 0 00-2 2v36a2 2 0 002 2h24a2 2 0 002-2V14a2 2 0 00-2-2z" fill="#fff"/><path d="M36 12H12a2 2 0 00-2 2v10h28V14a2 2 0 00-2-2z" fill-rule="evenodd" clip-rule="evenodd" fill="#48a0dc"/><path d="M42 8a2 2 0 10-.001-4.001A2 2 0 0042 8zm0 48a2 2 0 100 4 2.002 2.002 0 001.959-2.403A1.999 1.999 0 0042 56zM6 56a2 2 0 100 4 2 2 0 000-4zM6 4a2 2 0 000 4 2.003 2.003 0 001.96-2.403A2 2 0 006 4z" fill-rule="evenodd" clip-rule="evenodd" fill="#999"/></svg>