<svg xmlns="http://www.w3.org/2000/svg" width="48" height="64"><path d="M24 0C12.954 0 4 8.955 4 20.001v4a4 4 0 108 0v-4C12 13.372 17.372 8 24 8c6.627 0 12 5.372 12 12.001V34h8V20.001C44 8.955 35.045 0 24 0z" fill-rule="evenodd" clip-rule="evenodd" fill="#ccc"/><path d="M44 34H4a4 4 0 00-4 4.001V60a4 4 0 004 4h40a4 4 0 004-4V38.001A4 4 0 0044 34z" fill="#fc6"/><path d="M28 48a3.999 3.999 0 00-4-3.999c-2.21 0-4 1.789-4 3.999a3.98 3.98 0 002 3.445v4.556h4v-4.556c1.19-.692 2-1.967 2-3.445z" fill-rule="evenodd" clip-rule="evenodd" fill="#666"/></svg>