<svg xmlns="http://www.w3.org/2000/svg" width="64" height="36"><path d="M60 0H4a4 4 0 00-4 4v28a4 4 0 004 4h56a4 4 0 004-4V4a4 4 0 00-4-4z" fill="#ccc"/><path d="M58 4.001H6a2 2 0 00-2 2v24a2 2 0 002 2h52a2 2 0 002-2v-24a2 2 0 00-2-2z" fill="#4d4d4d"/><path d="M16 12.001h-4a2 2 0 00-2 2v12a2 2 0 002 2h4a2 2 0 002-2v-12a2 2 0 00-2-2zm12 0h-4a2 2 0 00-2 2v12a2 2 0 002 2h4a2 2 0 002-2v-12a2 2 0 00-2-2zm12 0h-4a2 2 0 00-2 2v12a2 2 0 002 2h4a2 2 0 002-2v-12a2 2 0 00-2-2zm12 0h-4a2 2 0 00-2 2v12a2 2 0 002 2h4a2 2 0 002-2v-12a2 2 0 00-2-2z" fill-rule="evenodd" clip-rule="evenodd" fill="#333"/><path d="M54 8.001H10a2 2 0 00-2 2v6h48v-6a2 2 0 00-2-2z" fill="#e6e6e6"/></svg>