<svg xmlns="http://www.w3.org/2000/svg" width="63.995" height="63.994"><path d="M63.408 17.585L46.409.587a2.002 2.002 0 00-2.833 0L26.578 17.585a2.004 2.004 0 000 2.833l16.998 16.999a2.004 2.004 0 002.833 0l16.999-16.999a2.004 2.004 0 000-2.833z" fill="#ccc"/><path fill="#b3b3b3" d="M33.653 27.493l19.832-19.83 2.908 2.907-19.831 19.832z"/><path d="M42.493 6.625l-1.877 1.877a2.077 2.077 0 102.938 2.938l1.877-1.877a2.076 2.076 0 000-2.938 2.076 2.076 0 00-2.938 0zm14.939 12a2.076 2.076 0 00-2.938 0l-1.877 1.877a2.077 2.077 0 102.938 2.939l1.877-1.878a2.078 2.078 0 000-2.938z" fill-rule="evenodd" clip-rule="evenodd" fill="gray"/><path d="M27.544 10.908L5.289 33.163c-7.053 7.054-7.053 18.489 0 25.542 7.054 7.053 18.488 7.053 25.542 0l22.255-22.256-25.542-25.541z" fill="#f06eaa"/></svg>