<svg xmlns="http://www.w3.org/2000/svg" width="64.02" height="64.02"><path d="M26.853 37.166a4.038 4.038 0 00-5.709 0L1.182 57.128a4.038 4.038 0 005.709 5.709l19.962-19.962a4.036 4.036 0 000-5.709zm36.579-19.582L46.434.586a2.004 2.004 0 00-2.833 0L26.603 17.584a2.005 2.005 0 000 2.834l16.998 16.998a2.002 2.002 0 002.833 0l16.998-16.998a2.003 2.003 0 000-2.834z" fill="#ccc"/><path fill="#b3b3b3" d="M33.678 27.493L53.51 7.662l2.909 2.908-19.832 19.831z"/><path d="M42.518 6.625l-1.877 1.877a2.077 2.077 0 102.938 2.938l1.877-1.877a2.076 2.076 0 000-2.938 2.076 2.076 0 00-2.938 0zm14.938 12a2.076 2.076 0 00-2.938 0l-1.877 1.877a2.077 2.077 0 102.938 2.938l1.877-1.878a2.075 2.075 0 000-2.937z" fill-rule="evenodd" clip-rule="evenodd" fill="gray"/><path d="M27.569 10.908L17.313 21.163c-7.053 7.053-7.053 18.489 0 25.542 7.054 7.053 18.488 7.053 25.542 0L53.11 36.449 27.569 10.908z" fill="#9b7cab"/></svg>