<svg xmlns="http://www.w3.org/2000/svg" width="52" height="64"><path d="M50 14H40a2 2 0 00-2 2v10a2 2 0 002 2h2v2a4 4 0 01-4 4H28V18h4.5c.525 0 1.012-.287 1.284-.757a1.625 1.625 0 00.043-1.538L26.327.836C26.067.322 25.557 0 25 0s-1.068.322-1.328.836l-7.5 14.869a1.625 1.625 0 00.044 1.538c.271.47.759.757 1.284.757H22v22h-8a4 4 0 01-4-4v-2.683A6.992 6.992 0 0014 27a7 7 0 10-14 0 6.992 6.992 0 004 6.317V36c0 5.522 4.477 10 10 10h8v4.683A6.992 6.992 0 0018 57a7 7 0 1014 0 6.992 6.992 0 00-4-6.317V40h10c5.522 0 10-4.478 10-10v-2h2a2 2 0 002-2V16a2 2 0 00-2-2z" fill-rule="evenodd" clip-rule="evenodd" fill="#9b7cab"/></svg>