<svg xmlns="http://www.w3.org/2000/svg" width="64" height="36"><path d="M60 0H4a4 4 0 00-4 4v28a4 4 0 004 4h56a4 4 0 004-4V4a4 4 0 00-4-4z" fill="#ccc"/><path d="M56 10h-2.4l.4-2a4 4 0 00-4-4H14a4 4 0 00-4 4l.399 2H8a4 4 0 00-4 4v8.001a4 4 0 004 4h5.6L14 28c.375 2.335 1.791 4 4 4h28c2.209 0 3.563-1.728 4-4l.399-1.999H56a4 4 0 004-4V14a4 4 0 00-4-4z" fill="#e6e6e6"/><path d="M10 16a2 2 0 10.001 4.001A2 2 0 0010 16zm44 0a2 2 0 10.001 4.001A2 2 0 0054 16z" fill-rule="evenodd" clip-rule="evenodd" fill="gray"/><path d="M44 8H20a4 4 0 00-4 4l2 12c.375 2.335 1.791 4 4 4h20c2.209 0 3.563-1.728 4-4l2-12a4 4 0 00-4-4z" fill="#48a0dc"/><path d="M24 12a2 2 0 10.001 4.001A2 2 0 0024 12zm8 0a2 2 0 100 4 2 2 0 000-4zm8 0a2 2 0 10.001 4.001A2 2 0 0040 12zm-4 8a2 2 0 10.002 4.002A2 2 0 0036 20zm-8 0a2 2 0 10.002 4.002A2 2 0 0028 20z" fill-rule="evenodd" clip-rule="evenodd" fill="#4d4d4d"/></svg>