<svg xmlns="http://www.w3.org/2000/svg" width="64" height="64"><path d="M48 0H16a2 2 0 00-2 2v20.001a2 2 0 002 2h32a2 2 0 002-2V2a2 2 0 00-2-2z" fill="#ccc"/><path d="M8 6.001a2 2 0 00-2 2V16a2 2 0 104 0V8.001a2 2 0 00-2-2zm48 0a2 2 0 00-2 2V16a2 2 0 004 0V8.001a2 2 0 00-2-2z" fill-rule="evenodd" clip-rule="evenodd" fill="#ccc"/><path d="M62 14.001H2A2 2 0 000 16l2 24.001C2.125 41.105 2.896 42 4 42h11.333L16 50c.125 1.105.896 2.001 2 2.001h28c1.105 0 1.875-.896 2-2.001l.667-8H60c1.104 0 1.875-.895 2-1.999L64 16a2 2 0 00-2-1.999z" fill-rule="evenodd" clip-rule="evenodd" fill="#48a0dc"/><path d="M22 26.001h20a2 2 0 000-4H22a2 2 0 000 4zm20 4H22a2 2 0 000 4h20a2 2 0 000-4zm0 8H22A2 2 0 0022 42h20a2 2 0 100-3.999z" fill-rule="evenodd" clip-rule="evenodd" fill="#387ba8"/><path d="M4 46h8v-4H4v4zm48-4v4h8v-4h-8z" fill-rule="evenodd" clip-rule="evenodd" fill="#ccc"/><path d="M4 46H2v14c0 1.104.896 2.001 2 2.001h8A2 2 0 0014 60V46H4zm56 0H50v14a2 2 0 002 2.001h8A2 2 0 0062 60V46h-2z" fill-rule="evenodd" clip-rule="evenodd" fill="#408ec2"/><path fill="#ccc" d="M26 52.001h12V64H26z"/></svg>