<svg xmlns="http://www.w3.org/2000/svg" width="64" height="44"><path d="M10 0H2a2 2 0 000 4h6v38a2 2 0 004 0V2a2 2 0 00-2-2z" fill-rule="evenodd" clip-rule="evenodd" fill="#ccc"/><path d="M60 4H12v36h48a4 4 0 004-4V8a4 4 0 00-4-4z" fill-rule="evenodd" clip-rule="evenodd" fill="#48a0dc"/><path d="M6 12a2 2 0 00-2 2v8a2 2 0 002 1.999h2V12H6z" fill-rule="evenodd" clip-rule="evenodd" fill="#b3b3b3"/><path d="M22 40h-2v2a2 2 0 002 2h8a2 2 0 002-2v-2H22zm32 0H36v2a2 2 0 002 2h16a2 2 0 002-2v-2h-2z" fill-rule="evenodd" clip-rule="evenodd" fill="#fc6"/><path d="M22 8h-4a2 2 0 00-2 2v4a2 2 0 002 2h4a2 2 0 002-2v-4a2 2 0 00-2-2zm12 12h-4a2 2 0 00-2 2v12a2 2 0 002 2h4a2 2 0 002-2V22a2 2 0 00-2-2zm-12 7.999h-4A2 2 0 0016 30v4a2 2 0 002 2h4a2 2 0 002-2v-4a2.002 2.002 0 00-2-2.001z" fill-rule="evenodd" clip-rule="evenodd" fill="#4d4d4d"/><path d="M50 12H22a2 2 0 00-2 2v16a2 2 0 002 2h28c5.522 0 10-4.478 10-10 0-5.523-4.478-10-10-10z" fill-rule="evenodd" clip-rule="evenodd" fill="#ccc"/><path d="M28 20h4a2 2 0 000-4h-4a2 2 0 000 4zm4 3.999h-4a2 2 0 000 4h4a2 2 0 100-4z" fill-rule="evenodd" clip-rule="evenodd" fill="#fff"/><circle cx="50" cy="22" r="6" fill="#4d4d4d"/></svg>