<svg xmlns="http://www.w3.org/2000/svg" width="64" height="60"><path d="M60 52H4a4 4 0 100 8h56a4 4 0 000-8z" fill="#ccc"/><path d="M42 52H22a4 4 0 100 8h20a4 4 0 000-8z" fill="#4d4d4d"/><path fill="gray" d="M28 43.999h8V52h-8z"/><path d="M60 0H4C1.79 0 0 1.79 0 4v35.999c0 2.21 1.79 4 4 4h56a4 4 0 004-4V4a4 4 0 00-4-4z" fill="#9b7cab"/><path d="M52 13.998a2 2 0 00-2 2v6.521l-6.242-7.455a1.986 1.986 0 00-1.552-1.045 2.06 2.06 0 00-.156-.016c-.018 0-.033-.005-.051-.005-.021 0-.04.005-.06.006-.444.001-.89.144-1.256.452a1.967 1.967 0 00-.684 1.752v11.791a2 2 0 004 0V21.48l6.246 7.46c.304.563.866.96 1.531 1.035.061.009.122.016.183.019.014 0 .027.004.041.004.016 0 .031-.004.048-.005a1.95 1.95 0 001.267-.451 1.97 1.97 0 00.686-1.743V15.998a2.002 2.002 0 00-2.001-2zm-29.426.129c-1.099-.382-2.319.177-2.728 1.247L16 23.409l-3.847-8.035c-.408-1.07-1.629-1.629-2.728-1.247-1.099.383-1.658 1.561-1.25 2.63l5.684 11.868c.336.882 1.225 1.406 2.141 1.354.917.053 1.805-.472 2.141-1.354l5.684-11.868c.407-1.069-.152-2.247-1.251-2.63zM32 13.998l-.034.002L28 13.998a2 2 0 00-2 2v12.001a2 2 0 004 0V26h2v-.002a6 6 0 000-12zm0 8V22l-2-.002v-4l1.981.002.019-.002a2 2 0 010 4z" fill-rule="evenodd" clip-rule="evenodd" fill="#fff"/></svg>