<svg xmlns="http://www.w3.org/2000/svg" width="64" height="64"><path d="M60 0H4a4 4 0 00-4 4v56a4 4 0 004 4h56a4 4 0 004-4V4a4 4 0 00-4-4z" fill="#e6e6e6"/><path d="M58 4H6a2 2 0 00-2 2v52.001A2 2 0 006 60h52a2 2 0 002-1.999V6a2 2 0 00-2-2zm-2 50a2 2 0 01-2 2H10a2 2 0 01-2-2V10.001A2 2 0 0110 8h44a2 2 0 012 2.001V54z" fill-rule="evenodd" clip-rule="evenodd" fill="#fff"/><path d="M24 42h-8a2 2 0 000 4h8a2 2 0 000-4zm24 0h-8a2 2 0 000 4h8a2 2 0 000-4zM32 18a2 2 0 00-2 2v12a2 2 0 004 0V20a2 2 0 00-2-2z" fill-rule="evenodd" clip-rule="evenodd" fill="#666"/></svg>