<svg xmlns="http://www.w3.org/2000/svg" width="64" height="64"><path d="M60 0H4a4 4 0 00-4 4v56a4 4 0 004 4h56a4 4 0 004-4V4a4 4 0 00-4-4z" fill="#e6e6e6"/><path d="M6 4a2 2 0 10.001 4.001A2 2 0 006 4zm52 4a2 2 0 10-.001-4.001A2 2 0 0058 8zM6 56a2 2 0 10.002 4.002A2 2 0 006 56zm52 0a2 2 0 10.002 4.002A2 2 0 0058 56z" fill-rule="evenodd" clip-rule="evenodd" fill="#b3b3b3"/><circle cx="32" cy="32" r="18" fill="#b3b3b3"/><path d="M32 14c-.677 0-1.343.045-2 .117V16a2 2 0 004 0v-1.883A18.344 18.344 0 0032 14zm0 32a2 2 0 00-2 2v1.883c.657.073 1.323.117 2 .117s1.342-.044 2-.117V48a2 2 0 00-2-2z" fill="#fff"/><circle cx="32" cy="32" r="2" fill="#e6e6e6"/><path d="M24 30a2 2 0 10.001 4.001A2 2 0 0024 30zm16 0a2 2 0 10.001 4.001A2 2 0 0040 30z" fill-rule="evenodd" clip-rule="evenodd" fill="#666"/></svg>