<svg xmlns="http://www.w3.org/2000/svg" width="64.006" height="52.005"><path d="M62.913 13.328C54.656 4.734 43.679 0 32.004 0S9.35 4.734 1.094 13.331c-1.458 1.518-1.458 3.976 0 5.495a3.651 3.651 0 002.639 1.139c.954 0 1.91-.381 2.639-1.139 6.848-7.13 15.95-10.638 25.633-10.638s18.785 3.507 25.631 10.634c1.459 1.517 3.821 1.518 5.278 0s1.456-3.976-.001-5.494zm-30.943 2.66c-8.628 0-16.739 3.335-22.841 9.393a3.856 3.856 0 000 5.477 3.908 3.908 0 002.757 1.134c.998 0 1.995-.379 2.757-1.134 4.628-4.597 10.782-7.378 17.327-7.378 6.546 0 12.699 2.781 17.327 7.378a3.92 3.92 0 005.513-.002 3.854 3.854 0 000-5.476c-6.101-6.057-14.212-9.392-22.84-9.392zm.035 13.992c-4.88 0-9.468 1.96-12.919 5.515-1.429 1.475-1.429 3.862 0 5.335.715.735 1.651 1.104 2.588 1.104s1.873-.368 2.588-1.104c2.068-2.133 4.818-3.432 7.743-3.432 2.924 0 5.675 1.299 7.742 3.429a3.583 3.583 0 005.177 0c1.428-1.472 1.428-3.861-.002-5.334-3.45-3.555-8.038-5.513-12.917-5.513z" fill-rule="evenodd" clip-rule="evenodd" fill="#ccc"/><ellipse cx="32.016" cy="48.01" rx="4.017" ry="3.995" fill="#48a0dc"/></svg>