<svg xmlns="http://www.w3.org/2000/svg" width="64.008" height="63.947"><path d="M44.397 19.575c-6.187-6.184-14.965-7.438-19.605-2.799-1.874 1.872-2.771 4.423-2.786 7.2h-.007c0 2.044-.908 3.929-7.669 3.99-3.958-.067-7.663 1.219-10.386 3.939-6.209 6.208-4.951 17.529 2.811 25.288s19.087 9.018 25.297 2.81c2.646-2.646 3.931-6.221 3.939-10.053h.011c0-7.068 1.921-7.992 4.001-7.992v-.007c2.775-.018 5.324-.914 7.195-2.784 4.642-4.637 3.388-13.409-2.801-19.592z" fill="#88c057"/><path d="M21.345 46.301l-3.758-3.755a2.125 2.125 0 00-3.002 0 2.118 2.118 0 000 2.997l3.76 3.755a2.122 2.122 0 003 0 2.117 2.117 0 000-2.997z" fill="#6c9945"/><ellipse cx="32.001" cy="31.969" rx="8.002" ry="7.992" fill="#75a64b"/><circle cx="32.001" cy="31.969" r="3.996" fill="#517334"/><path d="M58.007 0l-2.001 1.998h-2.001v1.999h-2v1.997h-2v3.995L32.001 27.973a3.998 3.998 0 014.001 3.996l18.003-17.982h4.002v-1.999h2V9.99h2V7.992l2.001-1.998L58.007 0z" fill-rule="evenodd" clip-rule="evenodd" fill="#666"/></svg>