<svg xmlns="http://www.w3.org/2000/svg" width="68.333" height="63.992"><path d="M52.042 35.991h-44c-2.209 0-4 1.792-4 4.001v20a4 4 0 004 4h44a4 4 0 004-4v-20a4.001 4.001 0 00-4-4.001z" fill="#ed7161"/><path d="M50.042 43.992h-40a2 2 0 00-2 2v11.999c0 1.104.896 2.001 2 2.001h40a2 2 0 002-2.001V45.992a2 2 0 00-2-2z" fill="#fff"/><path d="M12.042 53.992a2 2 0 004 0v-10h-4v10zm8 0a2 2 0 004 0v-10h-4v10zm8 0a2 2 0 004 0v-10h-4v10zm8 0a2 2 0 004 0v-10h-4v10zm8-10v10a2 2 0 004 0v-10h-4z" fill-rule="evenodd" clip-rule="evenodd" fill="#666"/><path d="M22.042 5.992c-16.667 7.333-18 34-18 34h52c0-6 8-6 8-6l-42-28z" fill="#ccc"/><path d="M64.042 33.992l-5.719-3.813L19.28 7.472a22.695 22.695 0 00-3.57 2.813L44.19 26.85 12.827 13.547a33.312 33.312 0 00-2.353 3.593L40.79 29.997 8.512 21.126a49.49 49.49 0 00-1.463 3.846l25.413 6.984-26.463-3.494a64.515 64.515 0 00-.938 4.059l26.286 3.471H4.472c-.35 2.447-.43 4.001-.43 4.001h52c0-6.001 8-6.001 8-6.001z" fill-rule="evenodd" clip-rule="evenodd" fill="gray"/><path d="M66.039 24.719L24.983.541c-1.89-1.113-4.306-.453-5.396 1.475l-.988 1.744c-1.091 1.928-.443 4.393 1.446 5.505l41.056 24.178c1.89 1.113 4.306.453 5.396-1.475l.988-1.745c1.091-1.927.444-4.392-1.446-5.504z" fill="#ed7161"/></svg>