<svg xmlns="http://www.w3.org/2000/svg" width="63.911" height="63.992"><path fill="#b3b3b3" d="M38 53.993h4v9.999h-4zm-20 0h4v9.999h-4z"/><path d="M63.902 13.999s.089-3.765-.626-5.25C60.683 3.359 54.055 0 47.013 0 38.03 0 32 6.268 32 13.999c0 3.794 1.459 7.229 4 9.751v30.243a2 2 0 002 2h4a2 2 0 002-2V27.741c.962.163 1.965.256 3.013.256 6.981 0 13.621-3.433 16.264-8.749.756-1.523.625-5.249.625-5.249z" fill-rule="evenodd" clip-rule="evenodd" fill="#ccc"/><path d="M61 9.999a1 1 0 00-1 1v6a.999.999 0 102 0v-6a1 1 0 00-1-1zm-17 2h-4a2 2 0 000 3.999h4a2 2 0 100-3.999z" fill="#999"/><path d="M12 0C5.372 0 0 6.268 0 13.999c0 7.73 5.372 13.998 12 13.998 1.214 0 2.604-.676 4-1.672v27.668a2 2 0 002 2h4a2 2 0 002-2V13.999C24 6.268 18.627 0 12 0z" fill-rule="evenodd" clip-rule="evenodd" fill="#ccc"/><ellipse cx="8" cy="13.999" rx="4" ry="5.999" fill="#999"/></svg>