<svg xmlns="http://www.w3.org/2000/svg" width="64" height="63.992"><path fill="#ccc" d="M46 25.997h8v11.998h-8z"/><circle cx="50" cy="13.998" r="13.998" fill="#999"/><circle cx="50" cy="13.999" r="9.999" fill="#ccc"/><circle cx="50" cy="13.999" r="6" fill="#999"/><path d="M46 37.995v13.999a2 2 0 002 1.999h4a2 2 0 002-1.999V37.995h-8z" fill-rule="evenodd" clip-rule="evenodd" fill="#999"/><path fill="#ccc" d="M48 53.993h4v9.999h-4z"/><path d="M16 37.995v13.999a2 2 0 002 1.999h4a2 2 0 002-1.999V37.995h-8z" fill-rule="evenodd" clip-rule="evenodd" fill="#999"/><path fill="#ccc" d="M18 53.993h4v9.999h-4z"/><path d="M0 5.999v15.998a6 6 0 006 5.999V0a6 6 0 00-6 5.999z" fill="#999"/><path d="M16 25.997v11.998h8V25.997h-8zm8 0C24 15.729 14 0 6 0v27.996c4.023 0 5.277-5.999 8-5.999 1.966 0 2 4 2 4s8-.024 8 0z" fill-rule="evenodd" clip-rule="evenodd" fill="#ccc"/></svg>