<svg xmlns="http://www.w3.org/2000/svg" width="120" height="120"><path d="M95.927 66.159l-3.955-5.445-8.24-33.263c-.265-1.068-1.306-1.694-2.323-1.399-1.019.295-1.63 1.399-1.365 2.467l7.958 32.123.01 7.747c.293 1.151 1.417 1.834 2.51 1.526l3.958-1.114c1.091-.31 1.74-1.492 1.447-2.642zm-22.92-15.716l-1.229-.625a1.954 1.954 0 00-.264-.323L65.895 44a1.97 1.97 0 001.15-.248c.168-.096.309-.218.437-.35.404.485.965.742 1.494.61.801-.199 3.309-2.972 3.024-4.012L61.029 9.499c-.285-1.04-1.167-1.722-1.969-1.521-.803.199-1.223 1.205-.938 2.245l7.492 27.218L47.711 6.995c-.553-.941-1.768-1.27-2.712-.733s-1.262 1.733-.708 2.675l19.286 32.796-12.242-11.971a2.008 2.008 0 00-2.81-.006c-.773.762-.77 2 .008 2.767L60.19 43.921l-11.179-5.688c-.966-.523-2.202-.209-2.762.701-.559.911-.229 2.074.736 2.598L70.98 53.743c.967.523 2.202.21 2.762-.701s.231-2.075-.735-2.599z" fill-rule="evenodd" clip-rule="evenodd" fill="gray"/><path d="M86 30s1.236-16.001-12-16.001S68.595 33.404 62 40c-6.595 6.594-30 8.49-30 20 0 7.446 5.516 10 12 10 11.734 0 26.885-3.829 34-16.001C81.92 47.294 75.658 32 80 32c0 0-1.692 2.538 0 4 2.097 1.812 6.078 2.468 8 0 .669-.86-2.495-2.625-2-6z" fill="#ed7161"/><path d="M87.104 34H80v-2s-1.692 2.538 0 4c2.097 1.812 6.078 2.468 8 0 .328-.421-.265-1.062-.896-2zm-1.257-8c-.15-1.223-.415-2.609-.883-4H80v-6.536c-1.114-.646-2.44-1.107-4-1.323V22h-8v-5.588C63.987 21.216 66.44 32.026 63.413 38H64v8h-8v-2.341a85.4 85.4 0 01-4 1.628V46h-1.882c-3.453 1.296-7.046 2.627-10.118 4.227V58h-7.745A7.89 7.89 0 0032 60c0 .716.065 1.373.164 2H40v7.613c1.26.26 2.604.387 4 .387v-8h8v7.4a51.284 51.284 0 004-.746V62h8v4.005a35.87 35.87 0 004-2.083V62h2.835a28.455 28.455 0 004.287-4H68v-8h8v6.903c.714-.917 1.396-1.87 2-2.904C81.92 47.294 75.658 32 80 32v-6h5.847zM52 58h-8v-8h8v8zm12 0h-8v-8h8v8zm12-12h-8v-8h8v8zm0-12h-8v-8h8v8z" fill-rule="evenodd" clip-rule="evenodd" fill="#b35549"/></svg>