<svg xmlns="http://www.w3.org/2000/svg" width="64.019" height="63.965"><path d="M63.45 11.604a1.939 1.939 0 00-2.749 0l-.031.031v-.001l-3.538 3.551-1.931 1.938a5.818 5.818 0 01-8.243-.003 5.865 5.865 0 010-8.274l4.656-4.673.841-.843a1.955 1.955 0 000-2.758 1.939 1.939 0 00-2.749 0l-5.495 5.514-.002.002-.896.898-.479.48c-.012.012-.02.025-.03.037-4.126 4.227-10.377 11.585-4.093 17.89 6.19 6.211 13.559.052 17.79-4.074.024-.022.053-.039.076-.063l6.872-6.895c.76-.761.76-1.997.001-2.757z" fill-rule="evenodd" clip-rule="evenodd" fill="#fc6"/><path d="M40.003 24.024c-2.733-2.733-7.174-2.726-9.916.018C30.036 24.093.583 50.52.583 50.52a1.986 1.986 0 000 2.811l10.063 10.053a1.99 1.99 0 002.813 0s26.534-29.448 26.526-29.441c2.744-2.745 2.752-7.185.018-9.919z" fill="#666"/><path d="M12.148 40.103l-2.104 1.895 5.994 5.993 5.954 5.955 1.897-2.098-1.821-1.816-9.92-9.929zm-8.417 7.581l12.563 12.563 1.899-2.101L5.836 45.788l-2.105 1.896zm14.732-13.269l-2.104 1.896 11.333 11.333 1.899-2.101-11.128-11.128z" fill="#333"/></svg>