<svg xmlns="http://www.w3.org/2000/svg" width="64.016" height="64.048"><ellipse cx="22.002" cy="42.041" rx="22.002" ry="22.007" fill="#ed7161"/><ellipse cx="22.004" cy="42.044" rx="18.001" ry="18.006" fill="#fff"/><path d="M63.668 8.683l-.913-.913.238-.238a3.458 3.458 0 000-4.89l-1.629-1.63a3.455 3.455 0 00-4.889 0l-.238.238-.876-.877a1.185 1.185 0 10-1.676 1.677l.876.876-1.88 1.88-.895-.895a1.186 1.186 0 00-1.677 1.677l.895.895-.233.233a3.441 3.441 0 00-1.004 2.53L19.71 39.315l-.99-.99a1.24 1.24 0 00-1.751 1.752l.989.99L6.001 53.029a1.183 1.183 0 000 1.676l3.352 3.354a1.185 1.185 0 001.676 0l11.958-11.962.988.988a1.24 1.24 0 001.752 0 1.24 1.24 0 000-1.752l-.988-.988 30.088-30.097a3.441 3.441 0 002.463-1.011l.233-.233.894.894a1.186 1.186 0 001.677-1.676l-.895-.895 1.88-1.88.912.913a1.186 1.186 0 001.677-1.677zM16.375 49.336a1.172 1.172 0 11-1.658-1.659l4.927-4.924 1.658 1.659-4.927 4.924zm17.008-16.997L23.055 42.66l-1.658-1.659L31.725 30.68a1.172 1.172 0 111.658 1.659z" fill-rule="evenodd" clip-rule="evenodd" fill="#666"/></svg>