<svg xmlns="http://www.w3.org/2000/svg" width="64" height="32"><path fill="gray" d="M24 20h16v4H24z"/><path d="M34.024 8s2.652 17.874 3.11 19.601C37.912 30.533 37.957 32 48.02 32c10.063 0 10.108-1.467 10.886-4.399C59.362 25.874 62.015 8 62.015 8H34.024z" fill="#f83"/><path d="M62.478 4H33.499C32.671 4 32 4.896 32 6s.671 2 1.499 2h28.979c.828 0 1.499-.896 1.499-2s-.671-2-1.499-2zm-4 23.999H37.499c-.828 0-1.499.897-1.499 2.001s.671 2 1.499 2h20.979c.828 0 1.499-.896 1.499-2s-.671-2.001-1.499-2.001z" fill-rule="evenodd" clip-rule="evenodd" fill="gray"/><path d="M58.127 0H37.912c-2.147 0-3.888 1.791-3.888 4h27.991c0-2.209-1.741-4-3.888-4z" fill-rule="evenodd" clip-rule="evenodd" fill="#ccc"/><path d="M2.024 8s2.652 17.874 3.11 19.601C5.912 30.533 5.957 32 16.02 32c10.063 0 10.108-1.467 10.885-4.399C27.363 25.874 30.015 8 30.015 8H2.024z" fill="#88c057"/><path d="M30.478 4H1.499C.671 4 0 4.896 0 6s.671 2 1.499 2h28.979c.828 0 1.499-.896 1.499-2s-.672-2-1.499-2zm-4 23.999H5.499C4.671 27.999 4 28.896 4 30s.671 2 1.499 2h20.979c.828 0 1.499-.896 1.499-2s-.672-2.001-1.499-2.001z" fill-rule="evenodd" clip-rule="evenodd" fill="gray"/><path d="M26.127 0H5.912C3.765 0 2.024 1.791 2.024 4h27.991c0-2.209-1.741-4-3.888-4z" fill-rule="evenodd" clip-rule="evenodd" fill="#ccc"/></svg>