<svg xmlns="http://www.w3.org/2000/svg" width="64" height="52"><path d="M52 24H12a8 8 0 010-16h40a2 2 0 000-4H14c-.18 0-.342.058-.508.103A11.644 11.644 0 0012 4C5.373 4 0 9.372 0 16c0 6.627 5.373 12 12 12h40a8 8 0 110 16H12a2 2 0 000 4h38c.18 0 .342-.059.508-.103.489.062.985.103 1.492.103 6.627 0 12-5.373 12-12 0-6.628-5.373-12-12-12z" fill="#48a0dc"/><path d="M12 44H2a2 2 0 000 4h10a2 2 0 000-4zM62 4H52a2 2 0 000 4h10a2 2 0 000-4z" fill-rule="evenodd" clip-rule="evenodd" fill="#b3b3b3"/><path d="M28 40H12v12h16a4 4 0 004-4v-4a4 4 0 00-4-4zM48 0H36a4 4 0 00-4 4v4a4 4 0 004 4h16V0h-4z" fill-rule="evenodd" clip-rule="evenodd" fill="#666"/><path d="M12 52h4V40h-4v12zM48 0v12h4V0h-4z" fill-rule="evenodd" clip-rule="evenodd" fill="#4d4d4d"/></svg>