<svg xmlns="http://www.w3.org/2000/svg" width="64.002" height="42"><path d="M60.002 0H4a4 4 0 00-4 4v34a4 4 0 004 4h56.002a4 4 0 004-4V4a4 4 0 00-4-4z" fill="#ccc"/><path fill="#e6e6e6" d="M4 4h56.002v34H4z"/><path d="M48.073 30.992c-.41-.645-1.159-.972-1.923-.962-.051-.005-.095-.03-.148-.03H18c-.053 0-.097.025-.148.03-.764-.01-1.514.317-1.923.962L8.942 42h46.119l-6.988-11.008z" fill="#999"/><path d="M22.001 34a2 2 0 100 4 2 2 0 000-4zm20 0a2 2 0 10.001 4.001A2 2 0 0042.001 34z" fill-rule="evenodd" clip-rule="evenodd" fill="#fff"/><path d="M36.001 16h-8a2 2 0 000 3.999h8a2 2 0 100-3.999z" fill="#ed7161"/><path d="M18 14a4 4 0 100 8 4 4 0 000-8zm28.002 0a4 4 0 100 8 4 4 0 000-8z" fill-rule="evenodd" clip-rule="evenodd" fill="#666"/></svg>