<svg xmlns="http://www.w3.org/2000/svg" width="64" height="56"><path d="M60 12H4a4 4 0 00-4 4v36a4 4 0 004 4h56a4 4 0 004-4V16a4 4 0 00-4-4z" fill="#f83"/><circle cx="22" cy="33.999" r="16" fill="#b35f24"/><circle cx="22" cy="33.999" r="4" fill="#f83"/><path d="M46 31.999A2 2 0 1046.001 36 2 2 0 0046 32zm8 0A2 2 0 1054.001 36 2 2 0 0054 32zM46 24a2 2 0 100 4 2 2 0 000-4zm8 3.999a2 2 0 100-4 2 2 0 000 4zM46 40a2 2 0 100 4 2 2 0 000-4zm8 0a2 2 0 100 4 2 2 0 000-4z" fill-rule="evenodd" clip-rule="evenodd" fill="#fff"/><path d="M18 6c0-1.104.896-2.001 2-2.001h24A2 2 0 0146 6v6h4V3.999A4 4 0 0046 0H18a4 4 0 00-4 3.999V12h4V6z" fill-rule="evenodd" clip-rule="evenodd" fill="#ccc"/></svg>