<svg xmlns="http://www.w3.org/2000/svg" width="64" height="64"><path d="M60 0H4a4 4 0 00-4 4v55.999A4 4 0 004 64h56a4 4 0 004-4.001V4a4 4 0 00-4-4z" fill="#4d4d4d"/><path fill="#b3b3b3" d="M4 4h56v44H4z"/><path d="M50 10H14a4 4 0 00-4 4v24a4 4 0 004 4h36a4 4 0 004-4V14a4 4 0 00-4-4z" fill="#666"/><path d="M48 18H16a2 2 0 00-2 2v22h36V20a2 2 0 00-2-2z" fill-rule="evenodd" clip-rule="evenodd" fill="gray"/><path d="M22 30a2 2 0 100 4 2 2 0 000-4zm20 0a2 2 0 100 4 2 2 0 000-4z" fill-rule="evenodd" clip-rule="evenodd" fill="#4d4d4d"/><path fill="#ccc" d="M28 30h8v4h-8z"/><path d="M10 51.999H6A2 2 0 004 54v4a2 2 0 002 1.999h4A2 2 0 0012 58v-4a2.002 2.002 0 00-2-2.001z" fill="#ed7161"/><path d="M22 51.999h-4A2 2 0 0016 54v4a2 2 0 002 1.999h4A2 2 0 0024 58v-4a2.002 2.002 0 00-2-2.001zm12 0h-4A2 2 0 0028 54v4a2 2 0 002 1.999h4A2 2 0 0036 58v-4a2.002 2.002 0 00-2-2.001zm12 0h-4A2 2 0 0040 54v4a2 2 0 002 1.999h4A2 2 0 0048 58v-4a2.002 2.002 0 00-2-2.001zm12 0h-4A2 2 0 0052 54v4a2 2 0 002 1.999h4A2 2 0 0060 58v-4a2.002 2.002 0 00-2-2.001z" fill-rule="evenodd" clip-rule="evenodd" fill="gray"/></svg>