<svg xmlns="http://www.w3.org/2000/svg" width="64" height="56"><path d="M60 12.001H4A4 4 0 000 16v36a4 4 0 004 4h56a4 4 0 004-4V16a4 4 0 00-4-3.999z" fill="#48a0dc"/><path d="M60 12.001H4A4 4 0 000 16v4a4 4 0 004 4h56a4 4 0 004-4v-4a4 4 0 00-4-3.999z" fill="#54bbff"/><path d="M16 28.001C9.372 28.001 4 33.373 4 40c0 6.628 5.372 12 12 12 6.627 0 12-5.372 12-12 0-6.627-5.373-11.999-12-11.999zm32 0c-6.628 0-12 5.372-12 11.999 0 6.628 5.372 12 12 12 6.627 0 12-5.372 12-12 0-6.627-5.373-11.999-12-11.999z" fill-rule="evenodd" clip-rule="evenodd" fill="#387ba8"/><path d="M16 38.001a2 2 0 100 4 2 2 0 000-4zm32 0a2 2 0 100 4 2 2 0 000-4z" fill-rule="evenodd" clip-rule="evenodd" fill="#4d4d4d"/><path d="M8 6.001A2 2 0 0110 4h44a2 2 0 012 2.001v6h4V4a4 4 0 00-4-4H8a4 4 0 00-4 4v8.001h4v-6z" fill-rule="evenodd" clip-rule="evenodd" fill="#ccc"/><path d="M10 16a2 2 0 10.002 4.002A2 2 0 0010 16zm8 0a2 2 0 10.002 4.002A2 2 0 0018 16z" fill-rule="evenodd" clip-rule="evenodd" fill="#fff"/><path d="M46 16a2 2 0 10.002 4.002A2 2 0 0046 16zm8 0a2 2 0 10.002 4.002A2 2 0 0054 16z" fill-rule="evenodd" clip-rule="evenodd" fill="#666"/></svg>