<svg xmlns="http://www.w3.org/2000/svg" width="65.131" height="64"><path d="M60 0H4a4 4 0 00-4 4v56a4 4 0 004 4h56a4 4 0 004-4V4a4 4 0 00-4-4z" fill="#666"/><path d="M4 0a4 4 0 00-4 4v56a4 4 0 004 4h4V0H4z" fill-rule="evenodd" clip-rule="evenodd" fill="#4d4b4b"/><path d="M35.999 10C23.85 10 14 19.85 14 32s9.85 22 21.999 22C48.149 54 58 44.15 58 32s-9.851-22-22.001-22zm0 24a2 2 0 11.002-4 2 2 0 01-.002 4z" fill-rule="evenodd" clip-rule="evenodd" fill="#ccc"/><path d="M26.496 33.457l-9.562 1.067a19.183 19.183 0 006.1 11.675l6.514-7.072a9.592 9.592 0 01-3.052-5.67zm22.47-15.655l-6.513 7.071a9.592 9.592 0 013.05 5.67l9.563-1.068a19.183 19.183 0 00-6.1-11.673z" fill-rule="evenodd" clip-rule="evenodd" fill="#e6e6e6"/><path d="M35.999 24a8 8 0 100 16 8 8 0 000-16zm0 12.016a4.017 4.017 0 11.002-8.034 4.017 4.017 0 01-.002 8.034z" fill-rule="evenodd" clip-rule="evenodd" fill="#666"/></svg>