<svg xmlns="http://www.w3.org/2000/svg" width="64.03" height="64"><path d="M64.015 50V4a4 4 0 00-4-4h-56a4 4 0 00-4 4v46c0 2.209-.475 5.508 4 8 0 0 13.208 6 26.795 6 14.39 0 29.205-6 29.205-6 4.491-1.777 4-5.791 4-8z" fill="#ccc"/><path d="M64.015 42.001V4a4 4 0 00-4-4h-56a4 4 0 00-4 4v38.001c0 2.209-.475 5.507 4 7.999 0 0 13.208 6 26.795 6 14.39 0 29.205-6 29.205-6 4.491-1.777 4-5.79 4-7.999z" fill="#e6e6e6"/><path d="M42.015 38.001h-20a2 2 0 00-2 1.999v4a2 2 0 002 2.001h20a2 2 0 002-2.001v-4a2 2 0 00-2-1.999z" fill="#88c057"/><path d="M12.015 40h-4a2 2 0 000 4h4a2 2 0 100-4zm44 0h-4a2 2 0 000 4h4a2 2 0 100-4z" fill-rule="evenodd" clip-rule="evenodd" fill="#b3b3b3"/></svg>