<svg xmlns="http://www.w3.org/2000/svg" width="84.749" height="64"><path d="M42.374 0C24.7 0 10.373 14.327 10.373 31.999 10.373 49.673 24.7 64 42.374 64s32.001-14.327 32.001-32.001C74.375 14.327 60.048 0 42.374 0zm0 36a4 4 0 110-8 4 4 0 010 8z" fill-rule="evenodd" clip-rule="evenodd" fill="#ccc"/><path d="M61.255 11.325L51.76 21.633a13.953 13.953 0 014.437 8.248l13.93-1.555a27.932 27.932 0 00-8.872-17.001zM28.551 34.12l-13.93 1.555a27.93 27.93 0 008.873 17l9.495-10.309a13.943 13.943 0 01-4.438-8.246z" fill-rule="evenodd" clip-rule="evenodd" fill="#e6e6e6"/><path d="M42.374 22c-5.523 0-10 4.477-10 9.999 0 5.523 4.477 10.001 10 10.001 5.522 0 10.001-4.478 10.001-10.001 0-5.522-4.479-9.999-10.001-9.999zm0 14a4 4 0 110-8 4 4 0 010 8z" fill-rule="evenodd" clip-rule="evenodd" fill="#666"/></svg>