<svg xmlns="http://www.w3.org/2000/svg" width="64.007" height="60.018"><path d="M58 6.017c-1.051-1.05-6.66-6.357-8-5.999-.659.176-3.483 7.482-4 8L10.336 46.782A3.987 3.987 0 0112 50.017a4 4 0 01-4 4.001 3.975 3.975 0 01-3.024-1.409L0 58.018v2h10l46-42c.596-.596 7.857-3.23 8-4.001.233-1.257-5.027-7.027-6-8z" fill-rule="evenodd" clip-rule="evenodd" fill="#88c057"/><path d="M16 38.018a2 2 0 10.001 4.001A2 2 0 0016 38.018zm6-6a2 2 0 10.001 4.001A2 2 0 0022 32.018zm6-6.001a2 2 0 10.002 4.002A2 2 0 0028 26.017zm6-5.999a2 2 0 10.001 4.001A2 2 0 0034 20.018zm6-6.001a2 2 0 10.002 4.002A2 2 0 0040 14.017z" fill-rule="evenodd" clip-rule="evenodd" fill="#638c3f"/></svg>