<svg xmlns="http://www.w3.org/2000/svg" width="32.001" height="64"><path fill="#b3b3b3" d="M12 50h8v10h-8z"/><path d="M16 57.999c-6.714 0-12.452.14-14.826 6.001h29.653c-2.375-5.861-8.113-6.001-14.827-6.001z" fill="#ccc"/><path d="M16.001 0C7.163 0 0 7.163 0 16v20c0 8.836 7.163 16 16.001 16 8.837 0 16-7.164 16-16V16c0-8.837-7.163-16-16-16z" fill="#ed7161"/><path d="M16.001 26.001C10.478 26.001 6 30.478 6 36c0 5.523 4.478 10.001 10.001 10.001 5.522 0 10-4.478 10-10.001 0-5.522-4.478-9.999-10-9.999zm0-6a6 6 0 10-.002-12.002 6 6 0 00.002 12.002z" fill-rule="evenodd" clip-rule="evenodd" fill="#b35549"/><path d="M16.001 34a2 2 0 10.001 4.001A2 2 0 0016.001 34zm0-18A2 2 0 1016 11.999 2 2 0 0016.001 16z" fill-rule="evenodd" clip-rule="evenodd" fill="#ed7161"/></svg>