<svg xmlns="http://www.w3.org/2000/svg" width="64" height="64.046"><path d="M43.711 60.969L34.02 44.98l-.02-.026V2.001a2 2 0 10-4 0v42.954l-.02.026-9.692 15.988c-.595.981-.241 2.236.789 2.803 1.03.565 2.347.229 2.941-.751L30 53.154v6.847a2 2 0 004 0v-6.846l5.98 9.865c.595.98 1.912 1.316 2.942.751 1.031-.566 1.385-1.821.789-2.802z" fill-rule="evenodd" clip-rule="evenodd" fill="#ccc"/><path d="M32 4.001a6 6 0 00-6 6h12a6 6 0 00-6-6zm0 20a6 6 0 006-6H26a6 6 0 006 6z" fill-rule="evenodd" clip-rule="evenodd" fill="#cca352"/><path d="M44 8H20c-4.418 0-20-.418-20 4h64c0-4.418-15.582-4-20-4zM20 20.001h24c4.418 0 20 .418 20-4.001H0c0 4.419 15.582 4.001 20 4.001z" fill-rule="evenodd" clip-rule="evenodd" fill="#fc6"/></svg>