<svg xmlns="http://www.w3.org/2000/svg" width="44" height="63.876"><path d="M38 0H6C3.791 0 2 1.788 2 3.992v55.892a3.996 3.996 0 004 3.992h32c2.209 0 4-1.787 4-3.992V3.992A3.997 3.997 0 0038 0z" fill="#f83"/><path d="M12 3.992c-2.209 0-4 1.787-4 3.992s1.791 3.992 4 3.992 4-1.787 4-3.992-1.791-3.992-4-3.992zm10 7.985c-2.209 0-4 1.787-4 3.992s1.791 3.992 4 3.992 4-1.787 4-3.992-1.791-3.992-4-3.992zm10-7.985c-2.209 0-4 1.787-4 3.992s1.791 3.992 4 3.992 4-1.787 4-3.992-1.791-3.992-4-3.992z" fill-rule="evenodd" clip-rule="evenodd" fill="#b35f24"/><path d="M40 23.953H4c-2.209 0-4 1.787-4 3.992v31.938a3.996 3.996 0 004 3.992h36c2.209 0 4-1.787 4-3.992V27.945a3.996 3.996 0 00-4-3.992z" fill="#ff9e59"/><path d="M36 27.945H8c-2.209 0-4 1.787-4 3.992v23.954a3.997 3.997 0 004 3.992h28c2.209 0 4-1.788 4-3.992V31.938a3.996 3.996 0 00-4-3.993z" fill="#333"/><path d="M10 31.938c-1.104 0-2 .894-2 1.996v19.962c0 1.102.896 1.996 2 1.996s2-.895 2-1.996V33.934a1.998 1.998 0 00-2-1.996zm8 0c-1.104 0-2 .894-2 1.996v19.962c0 1.102.896 1.996 2 1.996s2-.895 2-1.996V33.934a1.998 1.998 0 00-2-1.996zm8 0c-1.104 0-2 .894-2 1.996v19.962c0 1.102.896 1.996 2 1.996s2-.895 2-1.996V33.934a1.998 1.998 0 00-2-1.996zm8 0c-1.104 0-2 .894-2 1.996v19.962c0 1.102.896 1.996 2 1.996s2-.895 2-1.996V33.934a1.998 1.998 0 00-2-1.996z" fill-rule="evenodd" clip-rule="evenodd" fill="#4d4d4d"/></svg>