<svg xmlns="http://www.w3.org/2000/svg" width="64" height="64"><path d="M36 0H4a4 4 0 00-4 4v55.999A4 4 0 004 64h36V0h-4z" fill-rule="evenodd" clip-rule="evenodd" fill="#666"/><circle cx="20" cy="40" r="16" fill="#ccc"/><circle cx="20" cy="39.999" r="10" fill="#fffbf2"/><circle cx="20" cy="40" r="2" fill="#666"/><path d="M60 0H40v64h20a4 4 0 004-4.001V4a4 4 0 00-4-4z" fill-rule="evenodd" clip-rule="evenodd" fill="#ccc"/><path d="M58 52H46a2 2 0 000 4h12a2 2 0 000-4zm-12-8h12a2 2 0 000-4H46a2 2 0 000 4z" fill-rule="evenodd" clip-rule="evenodd" fill="#999"/><path d="M52 40a2 2 0 00-4 0v4a2 2 0 004 0v-4zm2 10a2 2 0 00-2 2v4a2 2 0 004 0v-4a2 2 0 00-2-2z" fill-rule="evenodd" clip-rule="evenodd" fill="gray"/><path d="M10 6a2 2 0 10.001 4.001A2 2 0 0010 6zm8 0a2 2 0 10.001 4.001A2 2 0 0018 6zm0 8a2 2 0 100 4 2 2 0 000-4zm-8 0a2 2 0 100 4 2 2 0 000-4zm18-6.001a4 4 0 100 8 4 4 0 000-8zM56 10a2 2 0 10-.002-4.002A2 2 0 0056 10zm-8-4a2 2 0 10.001 4.001A2 2 0 0048 6zm9.118 8.341C56.799 14.126 56.414 14 56 14s-.799.126-1.118.341A2 2 0 1058 16c0-.691-.35-1.3-.882-1.659zM56 21.999a2 2 0 10.002 4.002A2 2 0 0056 21.999zm-8 0a2 2 0 10.002 4.002A2 2 0 0048 21.999zm1.118-7.658C48.799 14.126 48.414 14 48 14s-.799.126-1.118.341A2 2 0 1050 16c0-.691-.35-1.3-.882-1.659z" fill-rule="evenodd" clip-rule="evenodd" fill="#999"/></svg>