<svg xmlns="http://www.w3.org/2000/svg" width="48" height="64"><path fill-rule="evenodd" clip-rule="evenodd" fill="#e6b85c" d="M32 42H16L8 64h32z"/><path d="M46 24V10H2v14s-.818 20 22 20c22.817 0 22-20 22-20z" fill-rule="evenodd" clip-rule="evenodd" fill="#fc6"/><path d="M44 18a8 8 0 01-8-8h-4a8 8 0 01-16 0h-4a8 8 0 01-8 8c-.695 0-1.357-.116-2-.282v4.081c.653.11 1.314.201 2 .201 4.176 0 7.851-2.136 10-5.372C16.149 19.864 19.823 22 24 22c4.176 0 7.851-2.136 10-5.372C36.149 19.864 39.824 22 44 22c.686 0 1.346-.091 2-.201v-4.081c-.643.166-1.305.282-2 .282z" fill-rule="evenodd" clip-rule="evenodd" fill="#ed7161"/><path d="M46 6H2a2 2 0 000 4h44a2 2 0 000-4z" fill="gray"/><path d="M45.899 6A5 5 0 0041 0H7a5 5 0 00-4.899 6h43.798z" fill-rule="evenodd" clip-rule="evenodd" fill="#ccc"/></svg>