<svg xmlns="http://www.w3.org/2000/svg" width="64.009" height="56.017"><path d="M59.417 52.47l-5.408-5.407V2.001a2 2 0 00-4 0V47.08l-5.35 5.35a2.065 2.065 0 102.92 2.921l4.42-4.421 4.479 4.479a2.08 2.08 0 002.939-2.939z" fill-rule="evenodd" clip-rule="evenodd" fill="#ccc"/><path d="M8.009 38.001a2 2 0 00-2 1.999v14a2 2 0 004 0V40a2 2 0 00-2-1.999zm28 0a2 2 0 00-2 1.999v14a2 2 0 004 0V40a2 2 0 00-2-1.999zM10.08 20.993c-.603-.949-1.937-1.274-2.98-.727-1.044.549-1.401 1.762-.799 2.711l7.637 12.03c.603.949 1.937 1.274 2.98.727 1.043-.548 1.401-1.762.798-2.711l-7.636-12.03zm26.838-.726c-1.044-.548-2.378-.223-2.98.727l-7.637 12.03c-.603.949-.245 2.163.799 2.711s2.378.223 2.98-.727l7.637-12.03c.602-.95.244-2.163-.799-2.711z" fill-rule="evenodd" clip-rule="evenodd" fill="#b3b3b3"/><circle cx="22.009" cy="40" r="16" fill="#ed7161"/><circle cx="22.009" cy="40" r="12" fill="#ccc"/><path d="M43.04 20.515l-10.154-6.28c-.935-.577-2.13-.235-2.67.767l-1.954 3.626c-.539 1.001-.219 2.281.716 2.859l10.154 6.28c.935.578 2.13.235 2.669-.766l1.954-3.627c.54-1.001.22-2.281-.715-2.859zm-29.239-5.461c-.539-.992-1.734-1.332-2.669-.76L.978 20.519c-.935.573-1.255 1.842-.716 2.835l1.954 3.594c.54.992 1.735 1.333 2.67.76l10.154-6.225c.935-.573 1.255-1.843.715-2.835l-1.954-3.594z" fill-rule="evenodd" clip-rule="evenodd" fill="#666"/><path d="M52.009 4c-4.418 0-12-.418-12 4h24c0-4.418-7.582-4-12-4z" fill="#fc6"/></svg>