<svg xmlns="http://www.w3.org/2000/svg" width="64" height="51.986"><path d="M49.426 48.734L34 33.31V9.999a2 2 0 00-4 0v23.239L14.514 48.725a1.91 1.91 0 102.702 2.701l14.757-14.757 14.759 14.759a1.906 1.906 0 002.694-2.694z" fill-rule="evenodd" clip-rule="evenodd" fill="#ccc"/><path d="M38 8H26a2 2 0 100 4h12a2 2 0 000-4z" fill="#ccc"/><path d="M2 18h24V1.999H2V18zM38 1.999V18h24V1.999H38z" fill-rule="evenodd" clip-rule="evenodd" fill="#88c057"/><path d="M26 0H2a2 2 0 100 4h24a2 2 0 000-4zm0 16H2a2 2 0 000 4h24a2 2 0 000-4zM38 4h24a2 2 0 000-4H38a2 2 0 100 4zm24 12H38a2 2 0 000 4h24a2 2 0 000-4z" fill-rule="evenodd" clip-rule="evenodd" fill="#666"/></svg>