<svg xmlns="http://www.w3.org/2000/svg" width="64" height="63.992"><path d="M46 37.995v15.998a6 6 0 01-12 0V24.042c-2.416 1.825-4 4.693-4 7.954v21.997c0 2.254.755 4.326 2.014 5.999H26a6 6 0 01-6-5.999V24.042c-2.416 1.825-4 4.693-4 7.954v21.997c0 5.521 4.477 9.999 10 9.999h14c5.522 0 10-4.478 10-9.999V37.995h-4z" fill-rule="evenodd" clip-rule="evenodd" fill="#b3b3b3"/><path d="M62 37.995h-2a2 2 0 000 3.999h2a2 2 0 000-3.999z" fill="#ccc"/><path d="M58 33.996h-2v11.998h2a2 2 0 002-2v-7.998a2 2 0 00-2-2z" fill-rule="evenodd" clip-rule="evenodd" fill="gray"/><path d="M54 33.996h-6a2 2 0 00-2 2v7.998a2 2 0 002 2h8V33.996h-2z" fill-rule="evenodd" clip-rule="evenodd" fill="#b3b3b3"/><path d="M20 21.997h-4v25.997h4a4 4 0 004-4V25.997a4 4 0 00-4-4zM34 4h-4v25.996h4a4 4 0 004-3.999V7.999A4 4 0 0034 4z" fill-rule="evenodd" clip-rule="evenodd" fill="#48a0dc"/><path d="M18 25.997c0-1.477-.81-2.752-2-3.445v-.555H8a4 4 0 000 7.999h8v-.555c1.19-.693 2-1.968 2-3.444zM32 7.999c0-1.477-.81-2.752-2-3.444V4h-8a4 4 0 100 7.999h8v-.555c1.19-.693 2-1.968 2-3.445z" fill-rule="evenodd" clip-rule="evenodd" fill="gray"/><path d="M8 17.998a7.999 7.999 0 100 15.998c4.418 0 4-3.582 4-7.999 0-4.418.418-7.999-4-7.999zM22 0a8 8 0 100 15.998c4.418 0 4-3.582 4-7.999S26.418 0 22 0z" fill-rule="evenodd" clip-rule="evenodd" fill="#ccc"/></svg>