<svg xmlns="http://www.w3.org/2000/svg" width="44" height="64"><path d="M20 0C2.639 0 0 15.999 0 15.999L4 50s.343 14 10 14c16.574 0 8.973-10.103 16-20 7.027-9.898 14-11.803 14-22 0-10.198-6.639-22-24-22z" fill="#f6cbad"/><path d="M21.585 10.013c-4.407 0-7.833 1.186-10.175 3.524-3.412 3.41-3.408 8.151-3.404 10.088 0 5.771 2.184 8.697 6.516 8.697 3.418 0 4.548-2.613 5.342-4.116.589-1.114 1.019-1.742 2.044-1.993 1.612-.395 3.165.189 3.165 4.052 0 2.229-1.061 2.823-2.488 3.808-1.461 1.006-3.858 2.386-3.858 5.623v.355c0 1.347.417 4.502-.605 5.524-.146.146.04.296-.442.296-.582 0-.991-.115-1.215-.342-.551-.557-.471-1.109-.463-1.846 0-1.193-1.027-2.105-2-2.105s-1.944 1-1.944 2.193l-.002.28c-.015 1.324-.294 2.587 1.47 4.367 1.029 1.041 2.426 1.567 4.154 1.567 1.479 0 2.384-.52 3.367-1.505 2.233-2.235 1.81-6.276 1.81-8.446v-.34c0-1.035.774-1.341 2.079-2.239 1.619-1.117 4.468-2.806 4.468-7.191 0-4.304-.564-8.167-7.395-8.167-3.769 0-5.059 2.725-5.828 4.353-.766 1.616-.963 1.757-1.633 1.757-1.358 0-2.399-.338-2.399-4.742-.002-1.442-.011-4.819 2.193-7.021 1.538-1.537 3.977-2.315 7.248-2.315 9.446 0 10.352 7.857 10.406 8.795.059 1.066.948 1.883 2.1 1.834 1.103-.053 1.953-.961 1.898-2.029-.226-4.4-3.545-12.716-14.409-12.716z" fill="#cc9c7a"/></svg>