<svg xmlns="http://www.w3.org/2000/svg" width="64" height="63.874"><path d="M36 23.953c-3.168.374-6 1.996-6 1.996L4 35.93s-4 1.787-4 3.991a3.997 3.997 0 004 3.993h12c2.916 0 4 .977 4 3.992v11.976c0 2.205 1.791 3.992 4 3.992s4-3.992 4-3.992l10-25.948s1.188-1.766 2-5.988c.833-4.332.388-4.511-4-3.993z" fill-rule="evenodd" clip-rule="evenodd" fill="#9b7cab"/><path d="M31.463 34.903l-2.49-2.485a1.763 1.763 0 00-2.491 0 1.754 1.754 0 000 2.485l2.491 2.487a1.762 1.762 0 002.49 0c.688-.686.688-1.8 0-2.487z" fill="#fff"/><path d="M11 37.926a.998.998 0 100 1.995.998.998 0 100-1.995zm4 0a.998.998 0 100 1.995.998.998 0 100-1.995z" fill-rule="evenodd" clip-rule="evenodd" fill="#fff"/><path fill-rule="evenodd" clip-rule="evenodd" fill="#666" d="M62 0l-8 1.996-1 4.99-21 20.959 4 3.993 21-20.959 5-.999 2-7.984V0z"/></svg>