<svg xmlns="http://www.w3.org/2000/svg" width="64" height="64.001"><path fill="#dbb599" d="M24 32.001h16v14H24z"/><path d="M60 52.001c-1.88-1.881-20-10-20-10v-.307C37.876 43.124 35.078 44 32 44c-3.078 0-5.876-.876-8-2.305v.306s-18.12 8.119-20 10C.24 55.761 0 64 0 64l24 .001V64h40s-.24-8.239-4-11.999z" fill-rule="evenodd" clip-rule="evenodd" fill="#5d4a66"/><path d="M41.068 42.482C38.867 44.618 35.644 46 32 46h16.672a531.92 531.92 0 00-7.604-3.518zm-18.136 0c-1.506.682-4.461 2.03-7.604 3.518H32c-3.644 0-6.867-1.382-9.068-3.518zM63.067 58H.932a28.925 28.925 0 00-.765 4.001h63.665A28.63 28.63 0 0063.067 58zM60 52.001c-.415-.415-1.624-1.135-3.246-2.001H7.246c-1.622.866-2.832 1.586-3.246 2.001-.575.574-1.059 1.261-1.48 2h58.96c-.421-.739-.906-1.426-1.48-2z" fill="#99466d"/><path d="M46 18c0-7.862-1.286-14-14-14-12.712 0-13.999 6.474-14 13.995V18c0 6 2 10 4 14s6.081 8 10 8c3.918 0 8-4 10-8s4-8 4-14l-.001-.01L46 18z" fill="#f6cbad"/><path d="M47.986 15.489c.008-.076.014-.14.014-.18 0-.195-.021-.394-.035-.591C47.624 7.555 44.262.566 33.286.053A16.714 16.714 0 0032 0c-.446 0-.875.021-1.295.051C19.082.575 16 8.052 16 15.309c0-.801.129-1.414.352-1.887-.218.87-.352 1.739-.352 2.578 0 .898 1.625 7.478 4 10 0-3.691.79-8.505 2.175-11.887C24.11 26.182 42.605 26 46 26c-.021 0 1.727-8.502 1.971-10.382.009.127.029.253.029.382 0-.17-.011-.341-.014-.511z" fill-rule="evenodd" clip-rule="evenodd" fill="#333"/></svg>