<svg xmlns="http://www.w3.org/2000/svg" width="56" height="60"><path d="M14 56H2a2 2 0 000 4h12a2 2 0 000-4zm20 0H22a2 2 0 000 4h12a2 2 0 000-4zm20 0H42a2 2 0 000 4h12a2 2 0 000-4zm-40-8H2a2 2 0 000 4h12a2 2 0 000-4zm20 0H22a2 2 0 000 4h12a2 2 0 000-4zm8 4h12a2 2 0 000-4H42a2 2 0 000 4z" fill-rule="evenodd" clip-rule="evenodd" fill="#fc6"/><path d="M14 40H2a2 2 0 000 4h12a2 2 0 000-4zm40 0H42a2 2 0 000 4h12a2 2 0 000-4zm-40-8H2a2 2 0 000 4h12a2 2 0 000-4zm20 0H22a2 2 0 000 4h12a2 2 0 000-4zm8 4h12a2 2 0 000-4H42a2 2 0 000 4z" fill-rule="evenodd" clip-rule="evenodd" fill="#88c057"/><path d="M14 24H2a2 2 0 000 4h12a2 2 0 000-4zm0-8H2a2 2 0 000 4h12a2 2 0 000-4zm40 0H42a2 2 0 000 4h12a2 2 0 000-4z" fill-rule="evenodd" clip-rule="evenodd" fill="#9b7cab"/><path d="M14 0H2a2 2 0 000 4h12a2 2 0 000-4z" fill="#ed7161"/></svg>