<svg xmlns="http://www.w3.org/2000/svg" width="64" height="64"><path d="M58 0L3.12 55.386a3.883 3.883 0 000 5.494 3.883 3.883 0 005.495 0L64 6l-6-6z" fill="#e8ad72"/><path fill="#b38557" d="M8.684 49.983L0 57.999 6 64l8.018-8.683z"/><path fill="#664c32" d="M2.018 58.81l4.826-4.825 3.17 3.17-4.825 4.826z"/><path d="M24.023 38.037a2.002 2.002 0 100 4.004 2.002 2.002 0 000-4.004zm6.006-6.007a2.003 2.003 0 10.002 4.006 2.003 2.003 0 00-.002-4.006zm6.006-6.005a2.002 2.002 0 100 4.004 2.002 2.002 0 000-4.004zm6.006-6.005a2.002 2.002 0 100 4.004 2.002 2.002 0 000-4.004zm6.006-6.006a2.002 2.002 0 100 4.004 2.002 2.002 0 000-4.004z" fill-rule="evenodd" clip-rule="evenodd" fill="#b38557"/></svg>