<svg xmlns="http://www.w3.org/2000/svg" width="64" height="64"><path d="M34.4 39.999c-1.571-.516-.846-2.85-.525-3.693A2.25 2.25 0 0034 36a8 8 0 00-8-8.001c-3.376 0-6.257 2.094-7.432 5.052C16.805 36.163 14 36 14 36 6.268 36 0 42.268 0 50c0 5.981 8.018 14 14 14 7.731 0 14-6.269 14-14 0-.068-.01-.135-.01-.203l.01.003c0-6.571 5.463-5.719 6.4-5.801a2 2 0 100-4z" fill-rule="evenodd" clip-rule="evenodd" fill="#ed7161"/><path d="M27.988 49.796L28 49.8c0-6.571 5.463-5.719 6.4-5.801a2 2 0 100-4c-1.57-.516-.847-2.848-.525-3.692.078-.173.125-.289.125-.307a7.976 7.976 0 00-.736-3.338L14 50s7.376 7.85 12.121 6.985A13.909 13.909 0 0028 50c0-.069-.011-.135-.012-.204z" fill-rule="evenodd" clip-rule="evenodd" fill="#9d5f57"/><path d="M25.463 40.971l-2.491-2.492a1.761 1.761 0 10-2.491 2.492l2.491 2.49a1.761 1.761 0 002.491-2.49zm-8 8l-2.49-2.491a1.761 1.761 0 10-2.491 2.491l2.491 2.49a1.76 1.76 0 102.49-2.49z" fill="#fff"/><path d="M15 55.998a1 1 0 10-.002 1.998A1 1 0 0015 55.998zm4 0a1 1 0 10-.002 1.998A1 1 0 0019 55.998z" fill-rule="evenodd" clip-rule="evenodd" fill="#fff"/><path fill-rule="evenodd" clip-rule="evenodd" fill="#e8ad72" d="M62 2v-.002h-.002L60 0h-2l-6 6 .999.999L24 35.998l4 4 28.999-28.999L58 12l6-6V4z"/><path fill-rule="evenodd" clip-rule="evenodd" fill="#666" d="M62 2l-2-2h-2l-6 6v2l2 1.999L56 12h2l6-6V4z"/></svg>