<svg xmlns="http://www.w3.org/2000/svg" width="66.653" height="56.681"><path d="M19.335 17.401l6.013 5.998 2.835-2.827-6.014-5.998-2.834 2.827zm8.018-3.998l6.013 5.998 2.834-2.828-6.013-5.997-2.834 2.827zm8.016-3.999l6.013 5.998 2.835-2.827-6.014-5.998-2.834 2.827zm10.852-6.826l-2.834 2.828 6.013 5.997 2.834-2.827-6.013-5.998z" fill-rule="evenodd" clip-rule="evenodd" fill="#999"/><path d="M27.625 36.046l-7.002-6.983a3.837 3.837 0 00-5.415 0L3.78 40.462a3.812 3.812 0 000 5.402l7.001 6.983a3.837 3.837 0 005.415 0l11.429-11.4a3.813 3.813 0 000-5.401z" fill="#99724b"/><path d="M22.048 33.274L6.603 48.68l1.418 1.415 15.444-15.406-1.417-1.415zm4.008 3.998L10.612 52.679l.169.169c.453.452.995.749 1.566.927l15.126-15.088-1.417-1.415zm-8.017-7.996L2.879 44.398c.183.534.474 1.04.901 1.466l.231.231 15.444-15.406-1.416-1.413z" fill-rule="evenodd" clip-rule="evenodd" fill="#ccc"/><path d="M56.632 5.936a9.984 9.984 0 00-3.499.639l-.005-.015-.301.126-.184.077L16.546 21.93l-2.004 5.998s-.791 3.21 0 3.998l12.025 11.996s3.35-3.999 6.013-3.999 1.164 1.999 6.014 1.999c4.718 0 4.248-7.765 13.259-17.202a9.99 9.99 0 004.779 1.208c5.535 0 10.021-4.477 10.021-9.997 0-5.521-4.486-9.995-10.021-9.995z" fill-rule="evenodd" clip-rule="evenodd" fill="#e8ad72"/><path d="M19.74 11.996c-1.66 0-3.007 1.342-3.007 2.998s1.347 2.999 3.007 2.999c1.661 0 3.007-1.343 3.007-2.999s-1.346-2.998-3.007-2.998zm8.018-3.999c-1.661 0-3.007 1.343-3.007 2.999s1.346 2.999 3.007 2.999c1.66 0 3.006-1.343 3.006-2.999s-1.346-2.999-3.006-2.999zm8.016-3.998a3.002 3.002 0 00-3.006 2.999 3.003 3.003 0 003.006 2.998 3.003 3.003 0 003.007-2.998 3.002 3.002 0 00-3.007-2.999zM43.792 0a3.003 3.003 0 00-3.006 2.999c0 1.655 1.346 2.999 3.006 2.999s3.007-1.344 3.007-2.999A3.004 3.004 0 0043.792 0z" fill-rule="evenodd" clip-rule="evenodd" fill="#666"/><path d="M29.762 21.992c-1.66 0-3.006 1.343-3.006 2.999s1.346 2.999 3.006 2.999c1.661 0 3.007-1.343 3.007-2.999s-1.346-2.999-3.007-2.999zm8.017-3.999c-1.66 0-3.007 1.343-3.007 2.999s1.347 2.999 3.007 2.999 3.007-1.343 3.007-2.999-1.347-2.999-3.007-2.999zm8.017-3.998a3.003 3.003 0 00-3.006 2.998 3.003 3.003 0 003.006 2.999 3.003 3.003 0 003.007-2.999 3.003 3.003 0 00-3.007-2.998zm8.017-3.999c-1.66 0-3.007 1.343-3.007 2.999s1.347 2.999 3.007 2.999 3.007-1.343 3.007-2.999-1.346-2.999-3.007-2.999z" fill-rule="evenodd" clip-rule="evenodd" fill="#99724b"/></svg>