<svg xmlns="http://www.w3.org/2000/svg" width="74.028" height="90.122"><path d="M61.528 26.464C50.444 15.462 39.447 8.54 28.079 19.823 16.711 31.107 5.119 68.542 12.127 75.497c8.198 8.139 44.723-4.55 56.091-15.833s4.394-22.199-6.69-33.2z" fill="#6d5778"/><path d="M61.528 26.464a106.409 106.409 0 00-2.775-2.659L11.634 74.892c.155.217.314.427.493.605 1.577 1.565 4.207 2.354 7.498 2.537l44.806-48.579a103.467 103.467 0 00-2.903-2.991zM45.663 15.04L12.826 50.642c-1.501 5.336-2.502 10.501-2.76 14.799L52.917 18.98c-2.415-1.731-4.831-3.092-7.254-3.94z" fill-rule="evenodd" clip-rule="evenodd" fill="#88c057"/></svg>