<svg xmlns="http://www.w3.org/2000/svg" width="104.039" height="104.039"><path d="M80.02 20.02h-56a4 4 0 00-4 4v56a4 4 0 004 4h56a4 4 0 004-4v-56a4 4 0 00-4-4z" fill="#ffd580"/><circle cx="52.02" cy="52.02" r="24" fill="#e8ad72"/><path d="M80.02 20.02H67.102l-20.54 20.539a2.02 2.02 0 000 2.857L60.56 57.414a2.019 2.019 0 002.856 0L84.02 36.811V24.02a4 4 0 00-4-4z" fill-rule="evenodd" clip-rule="evenodd" fill="#666"/><circle cx="52.02" cy="52.019" r="16" fill="#664c32"/><path d="M83.81 22.799L22.799 83.81c.387.125.792.21 1.221.21h1.431L84.02 25.451V24.02a3.95 3.95 0 00-.21-1.221zm-3.79-2.779h-1.432L20.02 78.588v1.432c0 .429.085.834.21 1.221l61.01-61.012a3.943 3.943 0 00-1.22-.209zm-46.57 64l50.57-50.57v-2.862L30.588 84.02h2.862zm37.138-64L20.02 70.588v2.862l53.43-53.43h-2.862z" fill-rule="evenodd" clip-rule="evenodd" fill="#999"/></svg>