<svg xmlns="http://www.w3.org/2000/svg" width="64" height="24.001"><path d="M54 0H10a4 4 0 00-4 4h52a4 4 0 00-4-4zM10 24.001h44c2.209 0 4-1.792 4-4.001H6a4.001 4.001 0 004 4.001z" fill="#b3b3b3"/><path fill-rule="evenodd" clip-rule="evenodd" fill="#f83" d="M62 4H0v16h64V4z"/><path d="M8 8a2 2 0 00-2 2.001v4a2 2 0 004 0v-4A2 2 0 008 8zm8 0a2 2 0 00-2 2.001v4a2 2 0 004 0v-4A2 2 0 0016 8zm8 0a2 2 0 00-2 2.001v4a2 2 0 004 0v-4A2 2 0 0024 8zm8 0a2 2 0 00-2 2.001v4a2 2 0 004 0v-4A2 2 0 0032 8zm8 0a2 2 0 00-2 2.001v4a2 2 0 004 0v-4A2 2 0 0040 8zm8 0a2 2 0 00-2 2.001v4a2 2 0 004 0v-4A2 2 0 0048 8zm8 0a2 2 0 00-2 2.001v4a2 2 0 004 0v-4A2 2 0 0056 8z" fill-rule="evenodd" clip-rule="evenodd" fill="#a65821"/></svg>