<svg xmlns="http://www.w3.org/2000/svg" width="44" height="63.999"><path d="M15 9.999a1 1 0 00-1 1v42a1 1 0 102 0v-42a1 1 0 00-1-1zm4 0a1 1 0 00-1 1v42a1 1 0 102 0v-42a1 1 0 00-1-1zM23 14c-.553 0-1 .447-1 .999v28a1 1 0 102 0v-28A.999.999 0 0023 14zm4 0c-.553 0-1 .447-1 .999v28a1 1 0 102 0v-28A1 1 0 0027 14zm4 3.999a1 1 0 00-1 1v16a1 1 0 102 0v-16a1 1 0 00-1-1zm4 0a1 1 0 00-1 1v14a1 1 0 102 0v-14a1 1 0 00-1-1z" fill-rule="evenodd" clip-rule="evenodd" fill="#ccc"/><path d="M34 16c-3.875 0-6.75-3.376-10-8.001s-12-4-12-4v8c1.875 0 5.875-.625 10 4.001 4.125 4.624 9.25 5.999 10 5.999s3.824-.664 4 2c.155 2.355-2 4-2 4l-22 22v10h6s26-32 26-38C44 16.624 41.332 16 34 16z" fill="#e6b85c"/><path d="M16 55.999h-4v-41.61c1.213-1.46 2-3.775 2-6.39C14 3.581 11.762 0 9 0c-.181 0-.358.017-.534.047C8.311.029 8.159 0 8 0a4 4 0 00-4 3.999v52a4 4 0 000 8h12a4 4 0 000-8z" fill-rule="evenodd" clip-rule="evenodd" fill="#fc6"/></svg>