<svg xmlns="http://www.w3.org/2000/svg" width="64" height="59.992"><path d="M32 0C16.536 0 4 12.535 4 27.996v9.998a2 2 0 004 .001v-9.999C8 14.743 18.745 4 32 4s24 10.743 24 23.996v9.998a2 2 0 004 .001v-9.999C60 12.535 47.464 0 32 0z" fill="#ccc"/><path d="M7 33.996c-6.075 0-7 4.924-7 10.998s.925 10.998 7 10.998 3-4.924 3-10.998 3.075-10.998-3-10.998zm50.604 0c-5.742 0-2.836 4.924-2.836 10.998s-2.906 10.998 2.836 10.998c5.741 0 6.396-4.924 6.396-10.998s-.655-10.998-6.396-10.998z" fill-rule="evenodd" clip-rule="evenodd" fill="#88c057"/><path d="M12 29.996a6 6 0 00-6 6v17.997a6 6 0 0012 0V35.996a6 6 0 00-6-6zm40 0a6 6 0 00-6 6v17.997a6 6 0 0012 0V35.996a6 6 0 00-6-6z" fill-rule="evenodd" clip-rule="evenodd" fill="#666"/></svg>