<svg xmlns="http://www.w3.org/2000/svg" width="56" height="61.975"><path d="M28 0C12.536 0 0 12.522 0 27.969l4 27.967-.001.001c0 1.103.896 1.997 2.001 1.997a1.998 1.998 0 001.999-1.997H8L4 27.969C4 14.729 14.745 3.996 28 3.996s24 10.732 24 23.973l-4 27.967v.001a2 2 0 104 0l4-27.968C56 12.522 43.464 0 28 0z" fill="#4d4d4d"/><path d="M46 35.96c-5.867-1.285-2.867 5.726-4.515 11.724-1.647 5.999-9.296 10.729-3.485 12.248 5.81 1.52 11.979-3.768 12-9.988.021-6.686.372-13.027-4-13.984z" fill="#ccc"/><path d="M44.751 36.136c-3.353-.877-6.8 1.064-7.698 4.337l-2.88 11.781c-.898 3.272 1.091 6.635 4.444 7.512s6.8-1.064 7.698-4.337l2.881-11.782c.899-3.272-1.092-6.634-4.445-7.511z" fill="#ed7161"/><path d="M42.751 32.141c-3.353-.877-6.8 1.064-7.697 4.337l-4.881 17.773c-.898 3.272 1.091 6.636 4.444 7.513 3.353.877 6.8-1.064 7.698-4.337l4.881-17.774c.899-3.272-1.092-6.636-4.445-7.512z" fill="#666"/><path d="M14.514 47.684C12.867 41.686 15.866 34.675 10 35.96c-4.373.957-4.022 7.298-4 13.983.021 6.221 6.189 11.508 12 9.988 5.81-1.518-1.839-6.248-3.486-12.247z" fill="#ccc"/><path d="M21.827 52.254l-2.881-11.781c-.898-3.272-4.345-5.214-7.698-4.337s-5.343 4.239-4.444 7.511l2.88 11.782c.898 3.272 4.346 5.214 7.699 4.337 3.352-.877 5.343-4.24 4.444-7.512z" fill="#ed7161"/><path d="M25.827 54.251l-4.881-17.773c-.898-3.272-4.345-5.214-7.698-4.337-3.354.876-5.343 4.24-4.445 7.512l4.881 17.774c.898 3.272 4.346 5.214 7.699 4.337 3.352-.877 5.343-4.241 4.444-7.513z" fill="#666"/></svg>