<svg xmlns="http://www.w3.org/2000/svg" width="64" height="61.992"><path d="M64 49.995V27.997C64 12.535 47.464 0 32 0S0 12.535 0 27.997v21.997l.001.01-.001.009a2 2 0 002 1.999h8a2 2 0 100-3.998H4V27.997C4 14.744 18.745 4 32 4s28 10.744 28 23.997v20.017H50a2 2 0 100 3.998h12a2 2 0 002-1.999l-.002-.014.002-.004z" fill-rule="evenodd" clip-rule="evenodd" fill="#ccc"/><path d="M31.299.018h1.402C32.467.012 32.233 0 32 0s-.467.012-.701.018zM10 48.014H4v-8H0v9.98l.001.01-.001.009a2 2 0 002 1.999h8a2 2 0 100-3.998zm54 1.981v-9.981h-4v8H50a2 2 0 100 3.998h12a2 2 0 002-1.999l-.002-.014.002-.004z" fill-rule="evenodd" clip-rule="evenodd" fill="#666"/><path d="M14 39.996a6 6 0 00-6 5.999v9.998a6 6 0 0012 0v-9.998a6 6 0 00-6-5.999zm36 0a6 6 0 00-6 5.999v9.998a6 6 0 0012 0v-9.998a6 6 0 00-6-5.999z" fill-rule="evenodd" clip-rule="evenodd" fill="#ed7161"/></svg>