<svg xmlns="http://www.w3.org/2000/svg" width="64" height="63.992"><path d="M56 0H8a8 8 0 00-8 8v47.993a7.999 7.999 0 008 7.999h48a8 8 0 008-7.999V8a8 8 0 00-8-8z" fill="#e6e6e6"/><path d="M56 4H8a4 4 0 00-4 4v47.993a4 4 0 004 3.999h48a4 4 0 004-3.999V8a4 4 0 00-4-4z" fill="#fff"/><path fill="#e6e6e6" d="M30 0h4v63.992h-4z"/><path d="M34 11.999h-4a2 2 0 00-2 2v35.995a2 2 0 002 2h4a2 2 0 002-2V13.999a2 2 0 00-2-2z" fill="#ccc"/><path d="M34 11.999h-4a2 2 0 00-2 2v5.999h8v-5.999a2 2 0 00-2-2zm0 31.995h-6v6a2 2 0 002 2h4a2 2 0 002-2v-6h-2z" fill-rule="evenodd" clip-rule="evenodd" fill="#b3b3b3"/><path d="M20.025 39.995v10.499c0 .828.669 1.5 1.493 1.5h2.987c.825 0 1.494-.672 1.494-1.5V39.995h-5.974z" fill-rule="evenodd" clip-rule="evenodd" fill="#ccc"/><path fill="#b3b3b3" d="M22.027 51.994h1.961v7.998h-1.961zm17.984 0h1.962v7.998h-1.962z"/><path d="M20 29.996l.025 9.999H26v-9.999h-6zm6 0c0-7.336-7.857-17.997-14.144-17.997C7.201 11.999 4 17.261 4 22.001c0 5.43 2.387 10.002 7.856 10.002 3.162 0 4.147-4.287 6.286-4.287 1.545 0 1.857 2.28 1.857 2.28s6.001-.017 6.001 0zm12 9.999v10.499c0 .828.669 1.5 1.493 1.5h2.987c.825 0 1.494-.672 1.494-1.5V39.995H38zm14.143-27.996C45.857 11.999 38 22.66 38 29.996c0-.017 6 0 6 0s.313-2.28 1.857-2.28c2.139 0 3.124 4.287 6.285 4.287 5.47 0 7.857-4.572 7.857-10.002.001-4.74-3.201-10.002-7.856-10.002zM38 39.995h5.975L44 29.996h-6v9.999z" fill-rule="evenodd" clip-rule="evenodd" fill="#ccc"/><path d="M6.012 17.998C4.9 17.998 4 19.117 4 20.498v5c0 1.38.9 2.499 2.012 2.499 1.11 0 2.011-1.119 2.011-2.499v-5c-.001-1.381-.901-2.5-2.011-2.5zm51.976 0c-1.111 0-2.012 1.119-2.012 2.5v4.999c0 1.381.9 2.499 2.012 2.499S60 26.878 60 25.497v-4.999c0-1.381-.9-2.5-2.012-2.5z" fill="#999"/></svg>