<svg xmlns="http://www.w3.org/2000/svg" width="64.003" height="63.991"><path d="M25.002 0h-2a3 3 0 100 5.999h2a3 3 0 000-5.999zM11.001 0h-2a3 3 0 100 5.999h2a3 3 0 100-5.999zm42.002 0h-6a3 3 0 100 5.999h6a3 3 0 100-5.999z" fill-rule="evenodd" clip-rule="evenodd" fill="#b3b3b3"/><path d="M60.003 1.999H4.001a4.001 4.001 0 00-4.001 4v53.993a4 4 0 004.001 3.999h56.002c2.21 0 4-1.79 4-3.999V5.999a4 4 0 00-4-4z" fill="#48a0dc"/><path d="M56.003 7.999H8.001a2 2 0 00-2 2v45.994a2 2 0 002 2h48.002a2 2 0 002-2V9.999a2 2 0 00-2-2z" fill="#4d4d4d"/><path d="M34.992 25.03c.771-.806 1.292-1.926 1.15-3.042-1.112.039-2.459.637-3.256 1.441-.716.715-1.341 1.855-1.174 2.949 1.242.083 2.508-.543 3.28-1.348zm2.366 7.708c-.024-2.503 2.029-3.704 2.121-3.763-1.154-1.699-2.952-1.932-3.592-1.957-1.529-.157-2.984.905-3.762.905-.773 0-1.971-.885-3.24-.861-1.668.026-3.205.975-4.063 2.479-1.732 3.024-.444 7.506 1.245 9.958.825 1.2 1.809 2.549 3.1 2.499 1.245-.049 1.716-.809 3.219-.809 1.504 0 1.927.809 3.242.784 1.339-.024 2.188-1.224 3.007-2.429.946-1.392 1.336-2.74 1.36-2.809-.03-.014-2.609-1.006-2.637-3.997z" fill-rule="evenodd" clip-rule="evenodd" fill="#fff"/></svg>