<svg xmlns="http://www.w3.org/2000/svg" width="64.003" height="61.992"><path d="M55.003 0h-2a3 3 0 000 6h2a3 3 0 100-6zM41.002 0h-2a3 3 0 000 6h2a3 3 0 100-6z" fill-rule="evenodd" clip-rule="evenodd" fill="#b3b3b3"/><path d="M60.003 2.001H4A4 4 0 000 6v51.993a4 4 0 004 3.999h56.003a4 4 0 004-3.999V6a4 4 0 00-4-3.999z" fill="#f06eaa"/><circle cx="32.002" cy="31.997" r="23.997" fill="#fff"/><circle cx="32.002" cy="31.997" r="15.998" fill="#f06eaa"/><path d="M35.093 27.997c-.603 0-1.091.447-1.091 1v5.999c0 .552.488 1 1.091 1s1.091-.448 1.091-1v-5.999c0-.553-.489-1-1.091-1zm3.818 0c-.603 0-1.091.447-1.091 1v5.999c0 .552.488 1 1.091 1s1.091-.448 1.091-1v-5.999c0-.553-.488-1-1.091-1z" fill-rule="evenodd" clip-rule="evenodd" fill="#fff"/><path d="M31.991 31.942c.005-.308-.118-.609-.361-.774l-4.493-3.041a.684.684 0 00-.234-.098c-.035-.009-.068-.02-.104-.022-.017-.001-.031-.011-.048-.011-.037 0-.069.018-.105.023-.043.007-.085.011-.127.026a.718.718 0 00-.203.116c-.007.007-.016.011-.023.018a.797.797 0 00-.282.573l-.003.012c0 .012-.006.021-.006.032v6.399c0 .011.006.021.006.031.001.005.003.008.003.014a.799.799 0 00.281.57c.01.01.021.014.03.022a.713.713 0 00.195.111c.044.017.088.021.134.028.035.006.065.022.101.022.017 0 .03-.009.046-.01.037-.003.072-.015.109-.024a.687.687 0 00.221-.09l4.503-3.047c.243-.165.366-.467.361-.774l.003-.054-.004-.052z" fill="#fff"/></svg>