<svg xmlns="http://www.w3.org/2000/svg" width="68.001" height="65.997"><path d="M66.851 1.148a3.931 3.931 0 00-5.553 0l-22.211 22.19a3.92 3.92 0 000 5.547 3.93 3.93 0 005.553 0L66.851 6.696a3.92 3.92 0 000-5.548z" fill="#fc6"/><path d="M59.222 3.224L55.22 7.222l5.55 5.55 4.002-3.998-5.55-5.55zm-10.005 9.995l5.55 5.55 4.002-3.998-5.55-5.55-4.002 3.998z" fill="#cca352"/><path fill="#666" d="M34 16.047L12 38.025l-8 19.98 6 5.994 20-7.992 22-21.978z"/><path d="M6.286 52.297l9.428 9.419 2.857-1.142L7.429 49.442l-1.143 2.855zM12 38.025l-1.143 2.854 16.285 16.269L30 56.007 12 38.025zm-3.429 8.563l12.857 12.844 2.857-1.142L9.714 43.733l-1.143 2.855z" fill-rule="evenodd" clip-rule="evenodd" fill="#333"/><path fill="#333" d="M27.019 23.021l-6.003 5.997 17.991 17.991 6.003-5.997z"/></svg>