<svg xmlns="http://www.w3.org/2000/svg" width="64" height="64.001"><circle cx="32" cy="32" r="32" fill="#4d4d4d"/><path d="M32 4C16.536 4 4 16.536 4 32.001c0 15.463 12.536 28 28 28s28-12.537 28-28C60 16.536 47.464 4 32 4zm0 52.001c-13.255 0-24-10.745-24-24 0-13.256 10.745-24 24-24s24 10.744 24 24c0 13.255-10.745 24-24 24z" fill-rule="evenodd" clip-rule="evenodd" fill="#b3b3b3"/><path d="M32 16.001c-8.837 0-16 7.163-16 16 0 8.836 7.163 16 16 16 8.836 0 16-7.164 16-16 0-8.837-7.164-16-16-16zm0 24a8 8 0 110-16 8 8 0 010 16z" fill-rule="evenodd" clip-rule="evenodd" fill="#88c057"/></svg>