<svg xmlns="http://www.w3.org/2000/svg" width="63.972" height="64.003"><path d="M24.793 39.152a3.889 3.889 0 00-5.509 0L0 58.48v5.522h5.51l19.283-19.328a3.91 3.91 0 000-5.522z" fill="#333"/><path d="M62.727 10L53.94 1.213a4.143 4.143 0 00-5.858 0l-2.929 2.93a4.14 4.14 0 000 5.857l8.787 8.787a4.142 4.142 0 005.858 0l2.929-2.929a4.142 4.142 0 000-5.858z" fill="#fc6"/><path fill="#666" d="M45.972.078l-22 21.979-8 19.979 6 5.994 20-7.992 22-21.978z"/><path d="M18.257 36.327l9.429 9.42 2.857-1.142L19.4 33.474l-1.143 2.853zm2.286-5.708L33.4 43.463l2.857-1.142-14.571-14.556-1.143 2.854zm3.429-8.562l-1.143 2.854 16.286 16.27 2.857-1.142-18-17.982z" fill-rule="evenodd" clip-rule="evenodd" fill="#333"/><path fill="#333" d="M38.991 7.052l-6.004 5.997L50.979 31.04l6.002-5.997z"/></svg>