<svg xmlns="http://www.w3.org/2000/svg" width="64.019" height="63.953"><path d="M62.868 1.149a3.93 3.93 0 00-5.553 0l-22.21 22.188a3.918 3.918 0 000 5.547 3.93 3.93 0 005.553 0l22.21-22.188a3.918 3.918 0 000-5.547z" fill="#ccc"/><path d="M45.234 13.219l5.55 5.55 4.002-3.998-5.55-5.55-4.002 3.998zm10.005-9.995l-4.002 3.998 5.55 5.55 4.002-3.998-5.55-5.55z" fill="#999"/><path d="M30.438 16.422L3.561 43.242c-4.748 4.738-4.748 12.42 0 17.157 4.748 4.738 12.445 4.738 17.193 0l26.858-26.803-17.174-17.174z" fill="#ed7161"/><path fill="#d46557" d="M23.033 24.022l-4.983 4.996 16.951 16.984 4.984-4.996z"/></svg>