<svg xmlns="http://www.w3.org/2000/svg" width="52" height="64"><path d="M46 22h-2.047C43.477 10.074 38.567 4 26 4S6.729 10.074 6.065 22H6a4 4 0 00-4 4v34a4 4 0 004 4h40a4 4 0 004-4V26a4 4 0 00-4-4z" fill-rule="evenodd" clip-rule="evenodd" fill="#666"/><path d="M22 40h-4a2 2 0 00-2 2v4a2 2 0 002 2h4a2 2 0 002-2v-4a2 2 0 00-2-2zm12 0h-4a2 2 0 00-2 2v4a2 2 0 002 2h4a2 2 0 002-2v-4a2 2 0 00-2-2zM22 52h-4a2 2 0 00-2 1.999V58a2 2 0 002 2h4a2 2 0 002-2v-4.001A2 2 0 0022 52zm12 0h-4a2 2 0 00-2 1.999V58a2 2 0 002 2h4a2 2 0 002-2v-4.001A2 2 0 0034 52z" fill-rule="evenodd" clip-rule="evenodd" fill="#4d4d4d"/><path d="M50 24C50 10.745 39.255 0 26 0S2 10.745 2 24v36a4 4 0 004 4h4V24c0-8.837 7.163-16.001 16-16.001 8.836 0 16 7.164 16 16.001v40h4a4 4 0 004-4V24z" fill-rule="evenodd" clip-rule="evenodd" fill="#fc6"/><path d="M10 32H2a2 2 0 000 4h8a2 2 0 000-4zm40 0h-8a2 2 0 000 4h8a2 2 0 000-4z" fill-rule="evenodd" clip-rule="evenodd" fill="#e6e6e6"/><path d="M36 25.996C36 20.476 31.522 16 26 16c-5.523 0-10 4.476-10 9.996V36h20V25.996z" fill-rule="evenodd" clip-rule="evenodd" fill="#333"/></svg>