<svg xmlns="http://www.w3.org/2000/svg" width="64.07" height="64.103"><path d="M62.887 1.184a4.038 4.038 0 00-5.714 0L46.537 14.146H36.104c-3.157.188-6.643-.481-8.203 1.081L1.171 47.994a4.002 4.002 0 000 5.657l9.301 9.311c.855.855 1.996 1.197 3.115 1.114 1.177.13 2.391-.196 3.293-1.1L62.887 6.904a4.047 4.047 0 000-5.72z" fill="#4d4d4d"/><path d="M40.286 24.842l-11.765-9.794c-.455-.471-.771.119-1.5 1l-25.5 31c-.729.882-.367 1.761.5 2.501l9.822 9.452a1.94 1.94 0 002.786-.249l25.897-31.043a2.075 2.075 0 00-.24-2.867z" fill="#e6e6e6"/><path d="M24.028 32.566a1.76 1.76 0 000 2.49l5.988 5.488c.013.013.027.021.04.033l2.257-2.7-5.795-5.311a1.762 1.762 0 00-2.49 0zm12.477-.509l-5.488-4.987a1.76 1.76 0 10-2.49 2.489l5.488 4.987c.209.209.46.347.724.429l2.076-2.483a1.777 1.777 0 00-.31-.435zM22.52 36.564a1.76 1.76 0 10-2.489 2.49l5.988 5.487c.137.137.293.238.456.321l2.19-2.62c-.049-.065-.097-.131-.156-.19l-5.989-5.488zM12.024 48.058a1.76 1.76 0 10-2.49 2.49l6.488 5.988c.131.131.28.229.436.31l2.196-2.627c-.045-.059-.087-.119-.141-.173l-6.489-5.988zm4.998-4.996a1.76 1.76 0 10-2.49 2.489l5.488 4.988c.354.353.819.521 1.281.512L23 49.019a1.754 1.754 0 00-.489-.97l-5.489-4.987z" fill-rule="evenodd" clip-rule="evenodd" fill="#666"/></svg>