<svg xmlns="http://www.w3.org/2000/svg" width="64.031" height="49.998"><path d="M19.395 30.603a2.046 2.046 0 00-2.892 0L.599 46.507a2.044 2.044 0 102.892 2.892l15.904-15.903c.798-.8.798-2.095 0-2.893z" fill="#ed7161"/><path d="M62.884 29.345L40.741 7.18a3.914 3.914 0 00-5.536 0 3.924 3.924 0 000 5.541l22.144 22.165a3.912 3.912 0 005.536 0 3.921 3.921 0 00-.001-5.541z" fill="#fc6"/><path d="M50.806 17.256l-5.538 5.538 3.998 4.002 5.538-5.538-3.998-4.002zm5.997 6.002l-5.538 5.539 3.998 4.002 5.538-5.539-3.998-4.002z" fill="#cca352"/><path fill="#666" d="M47.013 8.002L36.03 19.051l4.995 5.012 10.983-11.049z"/><path d="M48.826 4.006l-2.832-2.832a4.006 4.006 0 00-5.666 0L9.169 32.332a4.006 4.006 0 000 5.665l2.832 2.833a4.006 4.006 0 005.665 0l31.16-31.159a4.006 4.006 0 000-5.665z" fill="#333"/></svg>