<svg xmlns="http://www.w3.org/2000/svg" width="52" height="64.006"><path d="M8 42.049c0-7.671.688-13.346 6-25.944C19.313 3.507 12.89-.138 4 .139c-2.21 0-4 1.787-4 3.992a3.995 3.995 0 004 3.991 3.976 3.976 0 003.028-1.411c.894-.339 1.809-.607 2.472-.607 1.813 0 3.625 2.205.5 8.006-3.125 5.8-10 19.208-10 27.939 0 8.73 7.125 17.775 14 19.957l4-7.982c0-.001-10-4.303-10-11.975zm34.5-36.07c.663 0 1.577.268 2.471.607A3.976 3.976 0 0048 7.997c2.209 0 4-1.786 4-3.991a3.996 3.996 0 00-4-3.991C39.109-.263 32.688 3.382 38 15.98c5.313 12.598 6 18.273 6 25.944S34 53.897 34 53.897l4 7.983c6.875-2.182 14-11.225 14-19.956s-6.875-22.141-10-27.94-1.312-8.005.5-8.005z" fill-rule="evenodd" clip-rule="evenodd" fill="#ccc"/><path d="M17 8.045a1 1 0 00-1 1v45.993a1 1 0 102 0V9.045a1 1 0 00-1-1zm6 0a1 1 0 00-1 1v45.993a1 1 0 102 0V9.045a1 1 0 00-1-1zm6 0a1 1 0 00-1 1v45.993a1 1 0 102 0V9.045a1 1 0 00-1-1zm6 0a1 1 0 00-1 1v45.993a1 1 0 102 0V9.045a1 1 0 00-1-1z" fill-rule="evenodd" clip-rule="evenodd" fill="#ccc"/><path d="M40 6.045H12a2 2 0 100 4h28a2 2 0 000-4z" fill="#b3b3b3"/><path d="M38 52.008h-4a4 4 0 00-4-4h-8a4 4 0 00-4 4h-4a2 2 0 00-2 1.999v7.999a2 2 0 002 2h24a2 2 0 002-2v-7.999a2 2 0 00-2-1.999z" fill-rule="evenodd" clip-rule="evenodd" fill="#9b7cab"/></svg>