<svg xmlns="http://www.w3.org/2000/svg" width="96.397" height="96.397"><path d="M51.999 44.335a4.064 4.064 0 00-5.747 0L10.336 80.252a4.063 4.063 0 105.746 5.746l35.917-35.916a4.064 4.064 0 000-5.747z" fill="#ed7161"/><ellipse transform="rotate(-45.001 49.2 47.2)" cx="49.199" cy="47.198" rx="27.64" ry="19.743" fill="#fc6"/><path d="M53.019 68.391L28.007 43.379c-4.149 8.719-3.833 17.884 1.647 23.364S44.3 72.54 53.019 68.391z" fill-rule="evenodd" clip-rule="evenodd" fill="#ed7161"/><path d="M42.764 27.391l26.243 26.243c5.55-9.452 5.77-19.947-.264-25.98-6.032-6.032-16.527-5.814-25.979-.263z" fill-rule="evenodd" clip-rule="evenodd" fill="#90c462"/></svg>