<svg xmlns="http://www.w3.org/2000/svg" width="85.98" height="74.044"><path d="M54.782 31.17a4.064 4.064 0 00-5.747 0L13.119 67.087a4.063 4.063 0 105.746 5.746l35.917-35.916a4.064 4.064 0 000-5.747z" fill="#a67c52"/><path d="M68.967 17.05C58.718 6.802 40.674 8.229 30.426 18.478 20.178 28.726 18.75 46.77 28.998 57.018c10.249 10.248 28.292 8.821 38.541-1.428 10.248-10.248 11.676-28.292 1.428-38.54z" fill="#6d5778"/><path d="M70.847 42.456l1.482-13.317c.063-.562-.132-1.033-.481-1.337-.303-.351-.773-.546-1.336-.483l-13.304 1.484 1.482-13.317c.063-.563-.132-1.034-.482-1.337-.303-.351-.773-.545-1.335-.483L43.568 15.15l.472-4.232a30.327 30.327 0 00-3.871 1.233l-.583 5.24c-.061.541.115 1 .441 1.305.304.325.763.501 1.303.44l13.387-1.492-1.491 13.4c-.061.54.115.999.439 1.304.304.326.763.502 1.304.442l13.387-1.494-1.491 13.401c-.061.541.115 1 .441 1.305.304.325.763.501 1.303.44l5.253-.585c.499-1.264.912-2.56 1.236-3.875l-4.251.474zM58.15 54.972l-13.304 1.484 1.482-13.317c.063-.562-.132-1.033-.481-1.336-.303-.352-.774-.546-1.336-.484l-13.304 1.484 1.482-13.317c.063-.563-.132-1.034-.482-1.338-.304-.351-.774-.545-1.336-.482l-6.856.765a30.357 30.357 0 00-.643 1.848l-.054.176a30.414 30.414 0 00-.507 1.848l5.904-.659-1.491 13.401c-.061.541.115.999.439 1.304.304.326.763.502 1.304.441l13.387-1.493-1.491 13.401c-.061.542.116 1.001.441 1.305.305.325.763.5 1.303.44l13.387-1.493-.417 3.743a30.049 30.049 0 003.9-1.5l.49-4.4c.063-.563-.132-1.034-.482-1.338-.301-.351-.773-.546-1.335-.483zM43.982 26.034a4 4 0 100 8 4 4 0 000-8zm14 14a4 4 0 100 8 4 4 0 000-8z" fill-rule="evenodd" clip-rule="evenodd" fill="#f06eaa"/></svg>