<svg xmlns="http://www.w3.org/2000/svg" width="64" height="59.882"><path d="M48 0H16a2 2 0 00-2 1.996v1.996h36V1.996A2 2 0 0048 0z" fill="#4d4a4a"/><path d="M58 3.992H6c-3.313 0-6 2.681-6 5.988v43.914c0 3.307 2.687 5.987 6 5.987h52c3.313 0 6-2.681 6-5.987V9.98c0-3.307-2.686-5.988-6-5.988z" fill="#666"/><path fill-rule="evenodd" clip-rule="evenodd" fill="#4d4d4d" d="M6 9.98h52v43.913H6z"/><path d="M0 7.984V9.98h6V3.992H4c-2.209 0-4 1.787-4 3.992zM0 55.89a3.996 3.996 0 004 3.992h2v-5.988H0v1.996zm58 3.992h2c2.209 0 4-1.787 4-3.992v-1.996h-6v5.988zm2-55.89h-2V9.98h6V7.984a3.996 3.996 0 00-4-3.992z" fill-rule="evenodd" clip-rule="evenodd"/><path fill-rule="evenodd" clip-rule="evenodd" fill="#fc6" d="M56 9.98H6v11.977h52V9.98z"/><circle cx="12" cy="15.969" r="1.996" fill="#ed7161"/><path d="M36 13.973c-1.104 0-2 .894-2 1.996s.896 1.996 2 1.996 2-.894 2-1.996-.896-1.996-2-1.996zm8 0c-1.105 0-2 .894-2 1.996s.896 1.996 2 1.996 2-.894 2-1.996-.895-1.996-2-1.996zm8 0c-1.104 0-2 .894-2 1.996s.896 1.996 2 1.996c1.105 0 2-.894 2-1.996s-.895-1.996-2-1.996zm-24 0c-1.104 0-2 .894-2 1.996s.896 1.996 2 1.996 2-.894 2-1.996-.896-1.996-2-1.996z" fill-rule="evenodd" clip-rule="evenodd" fill="#fff"/></svg>