<svg xmlns="http://www.w3.org/2000/svg" width="52.006" height="63.999"><path d="M36.001 56h-28a4 4 0 100 7.999h28a4 4 0 000-7.999z" fill="#333"/><path d="M31.079 3.794C30.329 1.387 29.339 0 27.194 0H16.835c-2.146 0-3.322 1.449-3.885 3.794L0 56.187c0 2.097 1.739 3.795 3.885 3.795h36.259c2.146 0 3.885-1.698 3.885-3.795L31.079 3.794z" fill="#666"/><path fill="#333" d="M18.001.006h8v43.995h-8z"/><path d="M51.417 14.563a1.992 1.992 0 00-2.815-.012L20.565 42.565c-.42.42-.603.982-.564 1.535v1.901h2v-.036a1.968 1.968 0 001.391-.575l28.037-28.013a1.99 1.99 0 00-.012-2.814z" fill-rule="evenodd" clip-rule="evenodd" fill="#fc6"/><path d="M47.211 18.766c-2.341-2.34-4.72-3.756-7.043-1.436-2.322 2.321-2.031 9.177-1.367 9.84.795.795 7.524.954 9.847-1.366s.905-4.699-1.437-7.038z" fill="#cca352"/><path d="M31.079 3.794c0-2.095-1.74-3.794-3.885-3.794H16.835c-2.146 0-3.885 1.699-3.885 3.794l-.052.211h18.233l-.052-.211zm9.938 40.207H3.012L0 56.187c0 2.097 1.739 3.795 3.885 3.795h36.259c2.146 0 3.885-1.698 3.885-3.795l-3.012-12.186z" fill-rule="evenodd" clip-rule="evenodd" fill="#a67c52"/></svg>