<svg xmlns="http://www.w3.org/2000/svg" width="44.002" height="64.001"><path d="M22.001 0c-6.628 0-12 5.373-12 12v8.001h24.001V12c0-6.627-5.373-12-12.001-12z" fill="#ccc"/><path d="M10.181 10.001h9.82v-2h-9.303a11.93 11.93 0 00-.517 2zm20.748-6h-6.928v2h8.383a12.058 12.058 0 00-1.455-2zm-19.31 2h8.382v-2h-6.928a12.053 12.053 0 00-1.454 2zm21.686 2h-9.304v2h9.821a12.028 12.028 0 00-.517-2zm-9.304 10h10.001v-2H24.001v2zm0-6.001v2.001h10.001V12H24.001zm-14 2.001h10V12h-10v2.001zm0 4h10v-2h-10v2z" fill-rule="evenodd" clip-rule="evenodd" fill="#999"/><path fill="#999" d="M4 22.001h36.002v4H4z"/><path d="M10.001 28.001V34c0 6.628 5.372 12 12 12s12.001-5.372 12.001-12v-5.999H10.001z" fill="#666"/><path fill="#333" d="M10.001 20.001h24.001v8H10.001z"/><path d="M38.002 18.001v16c0 8.837-7.164 16-16.001 16S6 42.838 6 34.001v-16a6 6 0 00-6 6 5.98 5.98 0 002 4.463v5.537C2 43.677 8.872 51.746 18.001 53.6v8.401h8V53.6c9.129-1.854 16.001-9.923 16.001-19.599v-5.537a5.978 5.978 0 002-4.463 6 6 0 00-6-6z" fill-rule="evenodd" clip-rule="evenodd" fill="#ccc"/><path d="M36.002 58H8a2 2 0 00-2 2.001v2a2 2 0 002 2h28.002a2 2 0 002-2v-2a2 2 0 00-2-2.001z" fill="#666"/></svg>