<svg xmlns="http://www.w3.org/2000/svg" width="64.035" height="63.971"><path d="M52.818 16.891l-5.736-5.736a4.054 4.054 0 00-5.736 0L1.188 55.31a4.056 4.056 0 000 5.736l1.736 1.736a4.055 4.055 0 005.737 0l44.157-40.155a4.056 4.056 0 000-5.736z" fill="#666"/><circle cx="48.034" cy="16" r="16" fill="#ccc"/><path d="M33.45 18.588a2 2 0 10-2.828 2.828L42.62 33.414a2 2 0 102.828-2.828L33.45 18.588zm23.998 9.998L35.45 6.588a2 2 0 10-2.828 2.828L54.62 31.414a2 2 0 102.828-2.828z" fill-rule="evenodd" clip-rule="evenodd" fill="#b3b3b3"/></svg>