<svg xmlns="http://www.w3.org/2000/svg" width="64.003" height="64.002"><path d="M59.37 4.632c-6.177-6.177-16.191-6.177-22.368 0L4.633 37c-6.177 6.178-6.177 16.192 0 22.369 6.178 6.177 16.192 6.177 22.369 0L59.37 27c6.177-6.176 6.177-16.191 0-22.368z" fill="#4d4d4d"/><path d="M45.39 18.613c-6.177-6.177-16.191-6.177-22.368 0L4.633 37c-6.177 6.178-6.177 16.192 0 22.369 6.178 6.177 16.192 6.177 22.369 0L45.39 40.982c6.176-6.177 6.176-16.192 0-22.369z" fill="#666"/><path d="M38.246 25.694a5.975 5.975 0 00-8.449 0L15.384 40.107a9.99 9.99 0 018.495 8.403l14.367-14.367a5.975 5.975 0 000-8.449z" fill-rule="evenodd" clip-rule="evenodd" fill="#48a0dc"/><circle cx="14.002" cy="50.001" r="6" fill="#8c8c8c"/></svg>