<svg xmlns="http://www.w3.org/2000/svg" width="64" height="57.998"><path d="M2 21.998h10v-4H2a2 2 0 000 4zm0 12h1.517c-.943-1.181-1.522-2.535-1.523-3.999A2 2 0 002 33.998zm32.025-4h-10.03c0 1.464-.58 2.819-1.523 4h11.554v-4zm-.548-20H62a2 2 0 000-4H30.952c.079.111.165.204.243.317a43.449 43.449 0 012.282 3.683zM2 9.998h10v-4H2a2 2 0 000 4zm60 44h-.334c-.515 1.58-1.606 2.957-3.097 4H62a2 2 0 000-4zm0-36H30.448c-1.094 1.239-2.672 2.035-4.448 2.035a5.905 5.905 0 01-2-.371v2.337l38-.001a2 2 0 000-4zm0 12h-2.066l.01 4H62a2 2 0 000-4zm-60 16h22.488c.626-1.586 1.96-2.964 3.775-4H2a2 2 0 000 4zm40.576 8.614c-1.886.846-4.119 1.369-6.564 1.369-3.006 0-5.72-.764-7.821-1.983H2a2 2 0 000 4h43.435c-1.293-.905-2.281-2.06-2.859-3.386zM62 41.998h-2.038l.009 4H62a2 2 0 000-4z" fill="#ccc"/><path d="M19.999 2.507v-.45C19.999.921 19.104 0 18.001 0c-1.077 0-1.949.88-1.99 1.979l-.03.003V5.99l.022.001V26.23a8.698 8.698 0 00-2.007-.234c-3.314 0-6 1.791-6 4.003 0 2.211 2.687 4.004 6 4.004 3.305 0 5.985-1.784 5.999-3.987 0-.006.005-.01.005-.016l-.001-23.102c2.59 1.331 3.822 3.896 3.822 6.105 0 .271.012.498.029.707-.014.097-.029.193-.029.294 0 1.107.877 2.005 1.96 2.005s1.96-.897 1.96-2.005c0-1.542.267-3.604-1.96-7.014-1.706-2.611-3.9-3.873-5.782-4.483zm36.025 31.962v-3.704c0-1.024-.807-2-1.802-2.181l-14.414-2.612c-.995-.181-1.801.502-1.801 1.525V44.2a8.646 8.646 0 00-2.001-.235c-3.303 0-5.98 1.795-5.98 4.012 0 2.216 2.677 4.014 5.98 4.014 3.257 0 5.9-1.749 5.974-3.922.005-.024.02-.044.02-.07l-.01-14.215 9.981 1.841v12.43a6.289 6.289 0 00-.971-.078c-2.768 0-5.012 1.796-5.012 4.012 0 2.217 2.244 4.014 5.012 4.014 2.768 0 5.012-1.797 5.012-4.014 0-.034-.012-.066-.013-.101V34.655c.009-.062.025-.121.025-.186z" fill-rule="evenodd" clip-rule="evenodd" fill="#666"/></svg>