<svg xmlns="http://www.w3.org/2000/svg" width="51.961" height="60.002"><path d="M51.961 53.011l-.039-34.216c.003-.063.018-.12.018-.184v-8.088c0-2.234-1.699-4.364-3.796-4.758L17.779.063c-2.097-.394-3.795 1.096-3.795 3.33v32.866a16.808 16.808 0 00-3.008-.272C4.914 35.986 0 39.121 0 42.992c0 3.87 4.914 7.009 10.977 7.009s10.977-3.139 10.977-7.009c0-.013-.003-.024-.003-.037.018-.146.047-.288.047-.444l-.033-25.487 21.985 4.133V46.26a16.805 16.805 0 00-3.007-.272c-6.063 0-10.978 3.136-10.978 7.007 0 3.87 4.915 7.009 10.978 7.009 5.661 0 10.32-2.738 10.911-6.253.067-.191.107-.429.107-.74z" fill-rule="evenodd" clip-rule="evenodd" fill="#f06eaa"/></svg>