<svg xmlns="http://www.w3.org/2000/svg" width="42.012" height="64.004"><path d="M37.994 14.064C33.107 6.76 26.245 4.728 21.966 4.206v-.203A3.995 3.995 0 0017.979 0a3.995 3.995 0 00-3.988 4.003v46.262a16.808 16.808 0 00-3.008-.272C4.917 49.992 0 53.127 0 56.996s4.917 7.008 10.982 7.008c5.858 0 10.632-2.932 10.951-6.618a1.04 1.04 0 00.074-.389l-.035-44.551c8.192 1.609 12.025 8.145 12.025 13.589 0 .54.024.993.059 1.409-.029.192-.059.385-.059.586a3.992 3.992 0 003.997 3.989 3.98 3.98 0 003.959-3.613c.024-.117.038-.242.038-.376 0-3.071.544-7.176-3.997-13.966z" fill-rule="evenodd" clip-rule="evenodd" fill="#9b7cab"/></svg>