<svg xmlns="http://www.w3.org/2000/svg" width="44" height="63.999"><path d="M44 26c0-1.518-.154-2.999-.446-4.431v-.002C41.503 11.542 32.632 4 22 4 9.85 4 0 13.85 0 26c0 10.632 7.542 19.503 17.568 21.554h.001c1.432.292 2.913.446 4.431.446s2.999-.154 4.431-.446h.001C36.458 45.503 44 36.632 44 26zm-4 0c0 .964-.098 1.903-.243 2.826L29.977 26l9.78-2.826c.145.923.243 1.862.243 2.826zm-1.453-7.086l-13.306 3.844 3.845-13.306a18.056 18.056 0 019.461 9.462zM24.826 8.242L22 18.023l-2.826-9.781c.923-.145 1.862-.243 2.826-.243s1.903.098 2.826.243zm-9.912 1.21l3.845 13.306-13.306-3.844a18.056 18.056 0 019.461-9.462zM4 26c0-.964.098-1.902.243-2.825L14.023 26l-9.78 2.825A18.137 18.137 0 014 26zm1.452 7.085l13.307-3.844-3.845 13.306a18.06 18.06 0 01-9.462-9.462zm13.723 10.671L22 33.977l2.825 9.779c-.923.146-1.861.243-2.825.243s-1.902-.098-2.825-.243zm9.911-1.209l-3.845-13.306 13.307 3.844a18.06 18.06 0 01-9.462 9.462z" fill-rule="evenodd" clip-rule="evenodd" fill="#ccc"/><circle cx="22" cy="26" r="10" fill="#333"/><path d="M28 59.999h-2V46h-8v13.999h-2a2 2 0 000 4h12a2 2 0 000-4z" fill-rule="evenodd" clip-rule="evenodd" fill="gray"/><path d="M32 39.999S27 42 22 42s-10-2.001-10-2.001c-2.021-.812-4 1.792-4 4 0 2.21 1.666 3.251 4 4.001 0 0 5 2 10 2s10-2 10-2c2.146-.813 4-1.791 4-4.001 0-2.208-2.041-4.999-4-4z" fill-rule="evenodd" clip-rule="evenodd" fill="#999"/><path d="M32 2s-5-2-10-2-10 2-10 2c-2.146.875-4 1.79-4 4 0 2.209 2.104 4.813 4 4 0 0 5.042-2.001 10.063-2.001C27.041 7.999 32 10 32 10c2.146 1 4-1.791 4-4 0-2.21-1.854-3-4-4z" fill="#999"/></svg>