<svg xmlns="http://www.w3.org/2000/svg" width="56" height="63.991"><path d="M8 0a4 4 0 00-4 3.999v55.992a4 4 0 008 0V3.999A4 4 0 008 0zm10 0a4 4 0 00-4 3.999v47.994a4 4 0 008 0V3.999A4 4 0 0018 0zm10 0a4 4 0 00-4 3.999v39.995a4 4 0 008 0V3.999A4 4 0 0028 0zm10 0a4 4 0 00-4 3.999v31.996a4 4 0 008 0V3.999A4 4 0 0038 0zm10 0a4 4 0 00-4 3.999v23.997a4 4 0 008 0V3.999A4 4 0 0048 0z" fill-rule="evenodd" clip-rule="evenodd" fill="#fc6"/><path d="M52 5.999H4a4 4 0 100 7.999h48a4 4 0 000-7.999z" fill="#e6b85c"/></svg>