<svg xmlns="http://www.w3.org/2000/svg" width="50" height="63.971"><path d="M38 47.986H6a2 2 0 00-2 1.998v11.988c0 1.104.896 1.998 2 1.998h32c1.104 0 2-.894 2-1.998V49.984a2 2 0 00-2-1.998z" fill="#666"/><path d="M42 59.975H2a1.999 1.999 0 100 3.996h40a1.999 1.999 0 100-3.996z" fill="#333"/><path d="M40 45.988H4a1.999 1.999 0 100 3.996h36a2 2 0 002-1.998 2 2 0 00-2-1.998z" fill="#999"/><path d="M34 43.981a1.997 1.997 0 00-2-1.993H12a1.998 1.998 0 00-1.999 1.993v2h1.971c.01 0 .019.003.029.003h20c.01 0 .019-.003.029-.003H34v-2z" fill-rule="evenodd" clip-rule="evenodd" fill="#b3b3b3"/><path d="M43.679 28.372C43.234 28.065 24 14.735 24 2.094c0 0 .5-2.622-2-1.998 0 0-20 6.993-20 29.971 0 0-.188 1.998 2 1.998s7.75-4.113 16-4.113c13.725 0 23.444 4.633 25.731 9.756.174.737.269 1.508.269 2.301 0 4.104-2.472 7.619-6 9.166v4.198c5.769-1.731 10-7.024 10-13.364 0-4.889-2.522-9.147-6.321-11.637z" fill-rule="evenodd" clip-rule="evenodd" fill="#fc6"/></svg>