<svg xmlns="http://www.w3.org/2000/svg" width="64" height="51.949"><path d="M60 0H4C1.791 0 0 1.788 0 3.995v43.958a3.999 3.999 0 004 3.996h56c2.209 0 4-1.79 4-3.996V3.995A3.997 3.997 0 0060 0z" fill="#ccc"/><path d="M60 0H4C1.791 0 0 1.788 0 3.995v15.984h64V3.995A3.997 3.997 0 0060 0z" fill-rule="evenodd" clip-rule="evenodd" fill="#9b7cab"/><path d="M56 19.979H6v23.977c0 1.104.896 1.998 2 1.998h48a2 2 0 002-1.998V19.98h-2z" fill-rule="evenodd" clip-rule="evenodd" fill="#fff"/><path d="M10 21.978v13.986a2 2 0 004 0V19.98h-4v1.998zm8 0v13.986a2 2 0 004 0V19.98h-4v1.998zm8 0v13.986a2 2 0 004 0V19.98h-4v1.998zm16 0v13.986a2 2 0 004 0V19.98h-4v1.998zm8-1.999v15.984a2 2 0 004 0V19.98h-4z" fill-rule="evenodd" clip-rule="evenodd" fill="#484848"/><path d="M16 7.992a2 2 0 00-2 1.998 2 2 0 004 0 2 2 0 00-2-1.998zm-8 0A2 2 0 006 9.99a2 2 0 004 0 2 2 0 00-2-1.998z" fill-rule="evenodd" clip-rule="evenodd" fill="#6d5778"/><circle cx="56" cy="9.99" r="1.998" fill="#fff"/></svg>