<svg xmlns="http://www.w3.org/2000/svg" width="64" height="63.938"><path d="M34 39.961V0h-4v39.961a1.998 1.998 0 01-2 1.997h-6v17.985a3.997 3.997 0 004 3.995h12c2.209 0 4-1.788 4-3.995V41.958h-6c-1.105 0-2-.893-2-1.997zm-24 0V0H4C1.791 0 0 1.789 0 3.996v55.947a3.997 3.997 0 004 3.995h10c2.209 0 4-1.788 4-3.995V41.958h-6c-1.104 0-2-.893-2-1.997zM60 0h-6v39.961a1.998 1.998 0 01-2 1.997h-6v17.985a3.997 3.997 0 004 3.995h10c2.209 0 4-1.788 4-3.995V3.996A3.998 3.998 0 0060 0z" fill="#e6e6e6"/><path d="M38 .001v35.965c0 1.104.896 1.998 2 1.998h8a2 2 0 002-1.998V.001H38zM14 35.966c0 1.104.896 1.998 2 1.998h8a2 2 0 002-1.998V.001H14v35.965z" fill-rule="evenodd" clip-rule="evenodd" fill="#666"/></svg>