<svg xmlns="http://www.w3.org/2000/svg" width="64" height="64"><path d="M4 47.999c-3.761 3.76-4 16-4 16h26l-4-22s-16.12 4.119-18 6zm56 0c-1.881-1.881-18-6-18-6l-2 22h24s-.24-12.24-4-16z" fill="#666"/><circle cx="10" cy="58" r="2" fill="#999"/><path d="M18 45.999l-4 4 8 14h2V38l-10 5.999 4 2zm32-2L40 38v25.999h2l8-14-4-4 4-2z" fill="#404040"/><path fill="#dbb599" d="M24 35.999V64l16-.001v-28z"/><path d="M32 54c-3.078 0-5.876-.974-8-2.562v12.561h16V51.438C37.876 53.026 35.078 54 32 54z" fill-rule="evenodd" clip-rule="evenodd" fill="#9b7cab"/><path d="M46 21.999c0-7.863-1.286-14-14-14-12.712 0-13.999 6.474-14 13.995v.005c0 6 2 10 4 14s6.081 8 10 8c3.918 0 8-4 10-8s4-8 4-14l-.001-.01.001.01z" fill="#f6cbad"/><path d="M46 21.999c0-.862-.017-1.703-.062-2.519-.3 5.186-2.11 8.861-3.938 12.519-1.678 3.354-4.82 6.7-8.102 7.695L32 34l-1.898 5.694c-3.282-.995-6.424-4.34-8.102-7.695-1.823-3.646-3.627-7.309-3.937-12.468A44.156 44.156 0 0018 21.994v.005c0 6 2 10 4 14s6.081 8 10 8c3.918 0 8-4 10-8s4-8 4-14l-.001-.01.001.01z" fill-rule="evenodd" clip-rule="evenodd" fill="#997149"/><path fill-rule="evenodd" clip-rule="evenodd" fill="#9b7cab" d="M32 0l-4 8v1.999L32 18l4-8.001V8z"/></svg>