<svg xmlns="http://www.w3.org/2000/svg" width="64" height="64.002"><path d="M57.429 24.669l-2-2L35.333 2.572l-2-2a1.952 1.952 0 10-2.762 2.762l2 2 20.097 20.097 2 2a1.952 1.952 0 102.761-2.762z" fill="#666"/><path d="M60 24.002H4a4 4 0 00-4 4v31.999a4.001 4.001 0 004 4.001h56c2.209 0 4-1.792 4-4.001V28.002a4 4 0 00-4-4z" fill="#88c057"/><path fill="#fff" d="M4 28.002h56v31.999H4z"/><path d="M30 46.002a2 2 0 10-.001-4.001A2 2 0 0030 46.002zm8 0a2 2 0 10-.001-4.001A2 2 0 0038 46.002zm8 0a2 2 0 10-.001-4.001A2 2 0 0046 46.002zm8 0a2 2 0 10-.001-4.001A2 2 0 0054 46.002zm-20 4a2 2 0 10-.001-4.001A2 2 0 0034 50.002zm8 0a2 2 0 10-.001-4.001A2 2 0 0042 50.002zm8 0a2 2 0 10-.001-4.001A2 2 0 0050 50.002zm-20 0a2 2 0 10.001 4.001A2 2 0 0030 50.002zm8 0a2 2 0 10.001 4.001A2 2 0 0038 50.002zm8 0a2 2 0 10.001 4.001A2 2 0 0046 50.002zm8 0a2 2 0 10.001 4.001A2 2 0 0054 50.002zm-20 4a2 2 0 10.001 4.001A2 2 0 0034 54.002zm8 0a2 2 0 10.001 4.001A2 2 0 0042 54.002zm8 0a2 2 0 10.001 4.001A2 2 0 0050 54.002z" fill-rule="evenodd" clip-rule="evenodd" fill="#ccc"/><path d="M54 32.001H18a2 2 0 000 4.001h36a2 2 0 000-4.001z" fill="#ccc"/><circle cx="10" cy="34.001" r="2" fill="#666"/><circle cx="16" cy="50.001" r="8" fill="#88c057"/></svg>