<svg xmlns="http://www.w3.org/2000/svg" width="64" height="64.001"><path d="M60 24.001H4a4 4 0 00-4 4V60a4.001 4.001 0 004 4.001h56c2.209 0 4-1.792 4-4.001V28.001a4 4 0 00-4-4z" fill="#ed7161"/><path d="M42 52H22a2 2 0 000 4.001h20A2 2 0 0042 52z" fill="#cc6254"/><path fill="#fff" d="M8 32h48v12H8z"/><path d="M10 44h2v-9.999h-2V44zm4 0h2v-5.999h-2V44zm4 0h2v-5.999h-2V44zm4 0h2v-9.999h-2V44zm4 0h2v-5.999h-2V44zm4 0h2v-5.999h-2V44zm8 0h2v-5.999h-2V44zm4 0h2v-5.999h-2V44zm4 0h2v-9.999h-2V44zm4 0h2v-5.999h-2V44zm4-5.999V44h2v-5.999h-2z" fill-rule="evenodd" clip-rule="evenodd" fill="#ccc"/><path fill="#9b7cab" d="M34 34.001h2V44h-2z"/><path d="M12 48a4 4 0 100 8 4 4 0 000-8zm40 0a4 4 0 100 8 4 4 0 000-8z" fill-rule="evenodd" clip-rule="evenodd" fill="#fff"/><path d="M56 2.001a2 2 0 00-2 2v20h4v-20a2 2 0 00-2-2z" fill-rule="evenodd" clip-rule="evenodd" fill="#ccc"/><circle cx="56" cy="4" r="4" fill="#999"/></svg>