<svg xmlns="http://www.w3.org/2000/svg" width="64" height="64"><path d="M60 0H4a4 4 0 00-4 4v56a4 4 0 004 4h56a4 4 0 004-4V4a4 4 0 00-4-4z" fill="#88c057"/><path d="M56 0H4v56a4 4 0 004 4h48a4 4 0 004-4V0h-4z" fill-rule="evenodd" clip-rule="evenodd" fill="#666"/><path d="M16 44a4 4 0 100 8 4 4 0 000-8zm32 0a4 4 0 100 8 4 4 0 000-8zm-16 0a4 4 0 100 8 4 4 0 000-8z" fill-rule="evenodd" clip-rule="evenodd" fill="#ccc"/><path d="M10 12h44a2 2 0 000-4H10a2 2 0 000 4zm44 4H10a2 2 0 000 4h44a2 2 0 000-4zm0 8H10a2 2 0 000 4h44a2 2 0 000-4zm0 8H10a2 2 0 000 4h44a2 2 0 000-4z" fill-rule="evenodd" clip-rule="evenodd" fill="#404040"/><path d="M17.174 28h29.652a15.914 15.914 0 001.036-4H16.138a15.914 15.914 0 001.036 4zM39.74 8H24.261a16.062 16.062 0 00-4.739 4H44.48a16.078 16.078 0 00-4.74-4zM24.26 36h15.48a16.062 16.062 0 004.739-4H19.521a16.074 16.074 0 004.739 4zm22.566-20H17.174a15.914 15.914 0 00-1.036 4h31.724a15.914 15.914 0 00-1.036-4z" fill-rule="evenodd" clip-rule="evenodd"/></svg>