<svg xmlns="http://www.w3.org/2000/svg" width="44" height="64"><path d="M40 8H4a4 4 0 00-4 4v48a4 4 0 004 4h36a4 4 0 004-4V12a4 4 0 00-4-4z" fill="#ccc"/><circle cx="22" cy="28" r="14" fill="#9b7cab"/><circle cx="22" cy="28" r="8" fill="#846a91"/><circle cx="22" cy="28" r="2" fill="#fff"/><path d="M28 50H16a2 2 0 00-2 2v4a2 2 0 002 2h12a2 2 0 002-2v-4a2 2 0 00-2-2z" fill="#666"/><path d="M22 54a2 2 0 00-2 2v2h4v-2a2 2 0 00-2-2z" fill-rule="evenodd" clip-rule="evenodd" fill="#fff"/><path d="M8 52a2 2 0 100 4 2 2 0 000-4zm28 0a2 2 0 10.001 4.001A2 2 0 0036 52z" fill-rule="evenodd" clip-rule="evenodd" fill="#9b7cab"/><path d="M36 0a2 2 0 00-2 2v6h4V2a2 2 0 00-2-2z" fill-rule="evenodd" clip-rule="evenodd" fill="#b3b3b3"/></svg>