<svg xmlns="http://www.w3.org/2000/svg" width="68" height="56"><path d="M60 8H4a4 4 0 00-4 4v40a4 4 0 004 4h56a4 4 0 004-4V12a4 4 0 00-4-4z" fill="#fc6"/><path d="M25.729 18H38v-4h-6.674a20.018 20.018 0 00-5.597 4zm-4.811 8H38v-4H22.697a19.895 19.895 0 00-1.779 4zm27.756-12H42v4h12.271a20.018 20.018 0 00-5.597-4zm8.629 8H42v4h17.082a19.895 19.895 0 00-1.779-4zM20 32c0 .675.036 1.342.101 2H38v-4H20.101A20.335 20.335 0 0020 32zm39.899-2H42v4h17.899c.065-.658.101-1.325.101-2s-.036-1.342-.101-2zM42 42h15.303a19.839 19.839 0 001.779-4H42v4zm-19.303 0H38v-4H20.918a19.895 19.895 0 001.779 4zM42 50h6.674a20.032 20.032 0 005.597-4H42v4zm-10.674 0H38v-4H25.729a20.018 20.018 0 005.597 4z" fill-rule="evenodd" clip-rule="evenodd" fill="#cca352"/><path d="M14 12H6a2 2 0 00-2 2v36a2 2 0 002 2h8a2 2 0 002-2V14a2 2 0 00-2-2z" fill="#fff"/><path d="M14 38h-4a2 2 0 000 4h6v-4h-2z" fill-rule="evenodd" clip-rule="evenodd" fill="#ed7161"/><path fill="#ccc" d="M8 4h4v4H8z"/><path d="M12 0H8a2 2 0 000 4h4a2 2 0 000-4z" fill="#b3b3b3"/></svg>