<svg xmlns="http://www.w3.org/2000/svg" width="64" height="64"><path d="M60 48c-1.88-1.88-20-10-20-10l-.01.043c-.065-.087-.141-.164-.209-.249-.037.158-.083.313-.129.468L38 30H26l-1.652 8.262a8.068 8.068 0 01-.129-.468c-.068.085-.144.162-.209.249L24 38S5.88 46.12 4 48C.24 51.76 0 64 0 64h64s-.24-12.24-4-16z" fill-rule="evenodd" clip-rule="evenodd" fill="#805f3e"/><path d="M39.47 37.735c.337 1.327.53 2.761.53 4.266C40 48.628 36.418 54 32 54s-8-5.372-8-11.999c0-1.505.193-2.938.53-4.266l-4.42 2.21c-.065.675-.11 1.358-.11 2.056 0 8.836 5.373 16 12 16s12-7.164 12-16c0-.698-.045-1.381-.11-2.056l-4.42-2.21z" fill-rule="evenodd" clip-rule="evenodd" fill="#fc6"/><path d="M32 2.001C24.268 2.001 18 6 18 14c0 6 2 10 4 14s6.081 8 10 8c3.918 0 8-4 10-8s4-8 4-14c0-8-6.268-11.999-14-11.999z" fill="#997149"/><path d="M45.997 15.389l.003-.08c0-.061-.006-.123-.007-.185C45.888 7.544 44.243 0 32 0 19.285 0 18 7.784 18 15.309c0-.555.065-1.098.176-1.623A16.532 16.532 0 0018 16c0 .898.08 1.843.205 2.804C18.72 16.158 20.311 10 24 10h8c1.31 0 2.96.091 4.423 0H40c3.689 0 5.28 5.46 5.795 7.991.107-.791.171-1.564.189-2.314.005.108.016.215.016.323 0-.204-.001-.407-.003-.611z" fill-rule="evenodd" clip-rule="evenodd" fill="#333"/></svg>