<svg xmlns="http://www.w3.org/2000/svg" width="63.977" height="63.976"><path d="M46.145 21.979l-.072.072L42 17.979l-4-10-2 1.999-22 22.001c-1.484 1.481-.371 3.377 1.112 4.859.305.305.629.681.964 1.071l-.076.07 8 8 .285-.261c.656 1.075 2.258 2.201 3.194 3.147 1.467 1.484 3.054 2.597 4.521 1.113l22.062-22 1.938-2-9.855-3.999z" fill-rule="evenodd" clip-rule="evenodd" fill="#999"/><path d="M58.604 0L37.112 21.47a3.795 3.795 0 000 5.368 3.804 3.804 0 005.373 0L63.977 5.367V0h-5.373z" fill="#b3b3b3"/><path fill="gray" d="M49.312 9.283l4.002-3.998 5.367 5.373-4.002 3.998z"/><path fill="#88c057" d="M30 15.961L8 37.944l-8 20.03 6 6.002 20-8.003 22-22.006z"/><path d="M12.005 34.001l18 17.981 2-1.998-18-17.981-2 1.998zm-4 3.996L26 55.974l2-1.998-17.994-17.978-2.001 1.999zm10-9.99l-2 1.998 18 17.982 2-1.999-18-17.981z" fill-rule="evenodd" clip-rule="evenodd" fill="#638c3f"/></svg>