<svg xmlns="http://www.w3.org/2000/svg" width="63.999" height="54"><path d="M49.999 18h-36a4 4 0 00-4 4v28a4 4 0 004 4h36A4 4 0 0054 50V22a4 4 0 00-4.001-4z" fill="#88c057"/><path d="M16 42a2 2 0 100 4.002A2 2 0 0016 42zm32 0a2 2 0 100 4.002A2 2 0 0048 42z" fill-rule="evenodd" clip-rule="evenodd" fill="#fff"/><path d="M36 34h-8.001a2 2 0 00-2 2v8a2 2 0 002 2H36a2 2 0 002-2v-8a2 2 0 00-2-2z" fill="#666"/><path d="M13.999 0C6.268 0 0 6.269 0 14c0 7.732 6.268 14 13.999 14 7.732 0 14-6.268 14-14 0-7.731-6.268-14-14-14zm36 0C42.268 0 36 6.269 36 14c0 7.732 6.268 14 13.999 14 7.732 0 14-6.268 14-14 0-7.731-6.268-14-14-14z" fill-rule="evenodd" clip-rule="evenodd" fill="#ccc"/><path d="M16 6a2 2 0 00-4 0v4a2 2 0 104 0V6zm6.963 10.269l-3.758-2.001c-1.037-.552-2.364-.225-2.963.732-.6.957-.244 2.18.794 2.732l3.758 2c1.037.553 2.364.225 2.963-.732.599-.957.244-2.18-.794-2.731zM8.889 14.293l-3.788 2.081c-1.046.574-1.444 1.787-.89 2.707.555.921 1.853 1.201 2.899.626l3.788-2.081c1.046-.574 1.444-1.786.89-2.707-.555-.92-1.852-1.2-2.899-.626zM52 6a2 2 0 00-4 0v4a2 2 0 104 0V6zm6.963 10.269l-3.758-2.001c-1.037-.552-2.364-.225-2.963.732-.6.957-.244 2.18.794 2.732l3.758 2c1.037.553 2.364.225 2.963-.732.599-.957.244-2.18-.794-2.731zm-14.074-1.976l-3.788 2.081c-1.046.574-1.444 1.787-.89 2.707.555.921 1.853 1.201 2.899.626l3.788-2.081c1.046-.574 1.444-1.786.89-2.707-.555-.92-1.852-1.2-2.899-.626z" fill-rule="evenodd" clip-rule="evenodd" fill="#4d4d4d"/></svg>