<svg xmlns="http://www.w3.org/2000/svg" width="64" height="64"><path d="M60 0H4a4 4 0 00-4 4v56a4 4 0 004 4h56a4 4 0 004-4V4a4 4 0 00-4-4z" fill="#999"/><path d="M60 0H4a4 4 0 00-4 4v24a4 4 0 004 4h56a4 4 0 004-4V4a4 4 0 00-4-4z" fill="#9b7cab"/><path d="M9.999 43.999a4 4 0 100 8 4 4 0 000-8zm44.001 0a4 4 0 10-.001 8A4 4 0 0054 44z" fill-rule="evenodd" clip-rule="evenodd" fill="#ccc"/><path d="M42 36H22a2 2 0 00-2 2.001v4A2 2 0 0022 44h20a2 2 0 002-1.999v-4A2 2 0 0042 36z" fill="#ccc"/><path d="M42 44H22a2 2 0 00-2 2.001V62a2 2 0 002 2h20a2 2 0 002-2V46.001A2 2 0 0042 44z" fill="gray"/><path d="M16 4C9.372 4 4 9.373 4 16c0 6.628 5.372 12 12 12 6.627 0 11.999-5.372 11.999-12 0-6.627-5.372-12-11.999-12zm32 0c-6.628 0-12 5.373-12 12 0 6.628 5.372 12 12 12 6.627 0 12-5.372 12-12 0-6.627-5.373-12-12-12z" fill-rule="evenodd" clip-rule="evenodd" fill="#ccc"/><path d="M18 8a2 2 0 00-4 0v4a2 2 0 004 0V8zm6.963 10.268l-3.758-1.999c-1.037-.553-2.364-.226-2.963.731-.6.957-.244 2.18.794 2.732l3.758 2c1.037.552 2.364.225 2.963-.732.599-.956.244-2.18-.794-2.732zm-14.074-1.975l-3.788 2.081c-1.046.574-1.444 1.786-.89 2.707.555.92 1.854 1.2 2.899.626l3.788-2.081c1.046-.574 1.444-1.786.89-2.706-.555-.921-1.852-1.201-2.899-.627zM50 8a2 2 0 00-4 0v4a2 2 0 004 0V8zm6.963 10.268l-3.758-1.999c-1.037-.553-2.364-.226-2.963.731-.6.957-.244 2.18.794 2.732l3.758 2c1.037.552 2.364.225 2.964-.732.598-.956.243-2.18-.795-2.732zm-14.074-1.975l-3.788 2.081c-1.046.574-1.444 1.786-.89 2.707.555.92 1.854 1.2 2.899.626l3.788-2.081c1.047-.574 1.444-1.786.89-2.706-.555-.921-1.852-1.201-2.899-.627z" fill-rule="evenodd" clip-rule="evenodd" fill="#4d4d4d"/></svg>