<svg xmlns="http://www.w3.org/2000/svg" width="64.092" height="63.999"><path d="M63.986 54.631c.17-.548.13-1.171-.174-1.719L52.197 32l11.615-20.912c.304-.547.344-1.17.174-1.718a1.66 1.66 0 00-.127-.321c-.021-.044-.036-.09-.062-.133-.017-.028-.04-.051-.059-.077-.031-.048-.066-.091-.102-.136a1.646 1.646 0 00-.309-.305c-.039-.03-.076-.061-.116-.088-.029-.02-.054-.045-.084-.063-.047-.028-.097-.044-.145-.067a1.99 1.99 0 00-.124-.058 1.998 1.998 0 00-.193-.066 2.191 2.191 0 00-1.709.178L39.097 20.375c-1.006.559-1.366 1.771-.804 2.708s1.835 1.242 2.841.683l16.072-8.927L48.786 30h-33.48L6.885 14.839l16.073 8.927c1.006.56 2.277.254 2.84-.683.563-.937.203-2.149-.803-2.708L3.134 8.233a2.193 2.193 0 00-1.71-.176 1.844 1.844 0 00-.19.064 1.929 1.929 0 00-.13.061c-.046.022-.095.038-.141.065-.029.018-.053.042-.081.062-.044.029-.084.061-.125.093a1.662 1.662 0 00-.31.311c-.031.04-.063.079-.092.121-.02.029-.044.053-.063.083-.026.046-.042.095-.065.143a2.505 2.505 0 00-.06.128 1.827 1.827 0 00-.064.189 2.196 2.196 0 00.177 1.711L11.894 32 .279 52.912a2.196 2.196 0 00-.177 1.711c.019.063.04.126.064.188.019.045.039.088.061.131.023.047.038.095.065.141.018.03.043.054.062.082.029.043.062.083.094.123.046.058.092.114.144.166s.108.098.166.144c.04.032.08.064.123.094.028.02.052.044.082.062.046.027.094.042.141.065.043.021.086.042.131.061.063.025.124.046.187.063a2.187 2.187 0 001.713-.176l21.861-12.142c1.006-.559 1.366-1.771.803-2.707-.563-.937-1.834-1.243-2.84-.684L6.886 49.16 15.306 34h33.48l8.419 15.159-16.071-8.926c-1.006-.56-2.278-.253-2.841.684s-.202 2.148.804 2.707l21.861 12.142a2.192 2.192 0 001.711.177 1.801 1.801 0 00.315-.123c.048-.023.098-.039.145-.067.03-.019.055-.044.084-.063.04-.027.077-.057.115-.087.061-.049.12-.098.175-.152.048-.048.091-.101.134-.154.036-.045.071-.088.104-.136.018-.027.041-.049.058-.077.025-.043.039-.088.062-.132.024-.049.048-.097.068-.146.021-.06.041-.118.057-.175z" fill-rule="evenodd" clip-rule="evenodd" fill="#ccc"/><path d="M38.046 14h-12a4 4 0 00-4 4v16h20V18a4 4 0 00-4-4z" fill-rule="evenodd" clip-rule="evenodd" fill="gray"/><path d="M32.046 0a2 2 0 00-2 2v12h4V2a2 2 0 00-2-2z" fill-rule="evenodd" clip-rule="evenodd" fill="#4d4d4d"/><path d="M42.046 36h-20a2 2 0 00-2 1.999V62a2 2 0 002 1.999h20a2 2 0 002-1.999V37.999a2 2 0 00-2-1.999z" fill="#666"/><path d="M44.046 32h-24a2 2 0 00-2 2v3.999a2 2 0 002 2h24a2 2 0 002-2V34a2 2 0 00-2-2z" fill="#333"/><path d="M26.046 43.999a2 2 0 10.002 4.002 2 2 0 00-.002-4.002zm6 0a2 2 0 10.002 4.002 2 2 0 00-.002-4.002zm6 4.001a2 2 0 10-.001-4.001A2 2 0 0038.046 48zm-12 2a2 2 0 10.001 4.001A2 2 0 0026.046 50zm6 0a2 2 0 10.001 4.001A2 2 0 0032.046 50zm6 0a2 2 0 10.001 4.001A2 2 0 0038.046 50zm-12 6a2 2 0 100 4 2 2 0 000-4zm6 0a2 2 0 100 4 2 2 0 000-4zm6 0a2 2 0 100 4 2 2 0 000-4z" fill-rule="evenodd" clip-rule="evenodd" fill="#999"/></svg>