<svg xmlns="http://www.w3.org/2000/svg" width="64" height="68"><path d="M0 64l24 .001v-22s-18.12 8.119-20 10C.24 55.761 0 64 0 64zm60-11.999c-1.88-1.881-20-10-20-10V64h24s-.24-8.239-4-11.999z" fill="#666"/><path fill="#dbb599" d="M24 30.001v34L40 64V30.001z"/><path d="M32 46c-3.078 0-5.876-.974-8-2.562V64h16V43.438C37.876 45.026 35.078 46 32 46z" fill-rule="evenodd" clip-rule="evenodd" fill="#666"/><path d="M32 48c-5.523 0-10 4.477-10 10 0 2.254.755 4.327 2.014 6h15.973A9.948 9.948 0 0042 58c0-5.523-4.478-10-10-10zm-4 12.001A2 2 0 1128.001 56 2 2 0 0128 60zm8 0A2 2 0 1136.001 56 2 2 0 0136 60z" fill-rule="evenodd" clip-rule="evenodd" fill="#999"/><path d="M46 18c0-7.862-1.286-14-14-14-12.712 0-13.999 6.474-14 13.995V18c0 6 2 10 4 14s6.081 8 10 8c3.918 0 8-4 10-8s4-8 4-14l-.001-.01L46 18z" fill="#f6cbad"/><path d="M30 46a2 2 0 004 0l2.286-7.999h-8.571L30 46zm6-16h-8a2 2 0 00-2 2.001l.571 2h10.857l.571-2A2 2 0 0036 30z" fill-rule="evenodd" clip-rule="evenodd" fill="#664b31"/><path d="M45.997 15.389l.003-.08c0-.061-.006-.123-.007-.185C45.888 7.544 44.243 0 32 0 19.285 0 18 7.784 18 15.309c0-.555.064-1.097.176-1.622-.111.78-.176 1.559-.176 2.313 0 .898.08 1.843.205 2.804C18.72 16.158 20.311 10 24 10h1.091c1.627 2.011 4.736 4 6.909 4 5.892 0 4.547-2 8-2 3.689 0 5.28 3.46 5.795 5.991.107-.79.171-1.563.189-2.313.005.107.016.214.016.322l-.003-.611z" fill-rule="evenodd" clip-rule="evenodd" fill="#333"/></svg>