<svg xmlns="http://www.w3.org/2000/svg" width="72" height="64"><path d="M66.193 23.743a6.091 6.091 0 00-8.613 0l-5.581 5.581V6A6 6 0 0040 6v20a6 6 0 00-12.001 0 6 6 0 00-12 0V10A6 6 0 004 10v32a6 6 0 1011.999 0v-2a6.001 6.001 0 0012 0v4a5.997 5.997 0 003.761 5.563l-.018.019a6.089 6.089 0 000 8.612c2.378 2.378 11.879.185 14.257-2.193l20.194-23.646a6.089 6.089 0 000-8.612z" fill-rule="evenodd" clip-rule="evenodd" fill="#f6cbad"/><path d="M34 20.001a6 6 0 00-6 6 6 6 0 00-12 0v14a6 6 0 0012 0v4a6 6 0 0012 0v-18a6 6 0 00-6-6z" fill-rule="evenodd" clip-rule="evenodd" fill="#dbb59a"/><path d="M18 40.001a4 4 0 008 0v-2h-8v2zm12 2v2a4 4 0 008 0v-2h-8z" fill-rule="evenodd" clip-rule="evenodd" fill="#ffefe0"/><path d="M40 34.001V44a6.001 6.001 0 01-12.001 0v-4a6 6 0 01-12 0v-5.999H4v5.995L3.999 40l.001.039V42c0 .68.118 1.33.326 1.939C6.207 55.319 16.087 64 27.999 64c6.943 0 13.179-2.966 17.561-7.678.138-.109.331-.213.439-.321l11.982-14.03-4.781-7.97H40zM45.999 0l-.02.001h.039L45.999 0zm18.777 34.001l-1.438 1.698 1.45-1.698h-.012z" fill-rule="evenodd" clip-rule="evenodd" fill="gray"/></svg>