<svg xmlns="http://www.w3.org/2000/svg" width="56.006" height="63.978"><path d="M18.006 43.869c5.808-4.288 25.179-19.074 32-25.872 3.14-3.13 6-6.137 6-9.999 0-4.05-9.557-4-14-4l-2 3.987c5.611 0 8 .063 8 2.013 0 4.602-40.434 23.289-45.502 31.67-4.946 8.18-2.114 16.746 4.547 20.418 12.963 7.145 23.56-8.25 26.955-8.25 2.222 0 2.573.482 2.993 1.059.532 1.918 1.234 3.096 2.007 3.096 1.656 0 3-5.372 3-11.998s-1.344-11.998-3-11.998c-.904 0-1.712 1.605-2.262 4.134-2.075 2.266-8.39 2.5-12.738 5.74-6.65 4.955-12 9.047-12 5.979 0-1.727 1.551-2.694 6-5.979z" fill-rule="evenodd" clip-rule="evenodd" fill="#fc6"/><path d="M36.006 0l-2 1.999s.938 5.999 6 5.999l2-4c-4.25 0-6-3.998-6-3.998z" fill="#cca352"/><path d="M35.707 26.769c-1.111-.614-2.531-.25-3.172.813-.642 1.063-.261 2.423.85 3.037s2.53.25 3.172-.813c.64-1.064.259-2.424-.85-3.037zm-5.494 4.664c-1.11-.613-2.53-.249-3.171.814-.642 1.063-.261 2.423.85 3.036 1.11.614 2.53.25 3.172-.813.64-1.064.26-2.423-.851-3.037zm-5.492 4.665c-1.111-.614-2.531-.249-3.172.813-.641 1.063-.261 2.424.85 3.037 1.11.615 2.53.25 3.172-.813.64-1.064.26-2.424-.85-3.037z" fill-rule="evenodd" clip-rule="evenodd" fill="#cca352"/></svg>