<svg xmlns="http://www.w3.org/2000/svg" width="56" height="64.001"><path d="M28 .001c-11.09 0-16 6-16 16v28h32v-28c0-10-6.543-16-16-16z" fill="#ed7161"/><path d="M52 48.001c-1.88-1.881-16-8-16-8H20s-14.12 6.119-16 8c-3.761 3.76-4 16-4 16h56s-.24-12.24-4-16z" fill="#333"/><path d="M28 40.002h-8s2.689 20 8 20c5.31 0 8-20 8-20h-8z" fill-rule="evenodd" clip-rule="evenodd" fill="#dbb599"/><path d="M32 30.001h-8l-4 10.001s4.023 1.999 8 1.999 8-1.999 8-1.999l-4-10.001z" fill="#dbb599"/><path d="M28 12.001c-.186.41-.406.807-.657 1.188-.014.021-.024.042-.038.062-1.88 2.802-5.57 4.743-11.275 4.75.088 3.916.451 6.961 1.971 10 2 4 6.081 8 10 8 3.918 0 8-4 10-8 1.519-3.037 1.882-6.086 1.969-10-6.521-.008-10.408-2.543-11.97-6z" fill-rule="evenodd" clip-rule="evenodd" fill="#f6cbad"/></svg>