<svg xmlns="http://www.w3.org/2000/svg" width="71.951" height="65.99"><path d="M5.976 23.959h60a2 2 0 000-4h-60a2 2 0 000 4zm60 36h-60a2 2 0 000 4h60a2 2 0 000-4z" fill-rule="evenodd" clip-rule="evenodd" fill="gray"/><path fill="#88c057" d="M7.976 23.958h56v36h-56z"/><path fill-rule="evenodd" clip-rule="evenodd" fill="#a5d977" d="M7.976 37.666v13.603l6-20.483 8.545 29.172h4.91l8.545-29.172 8.545 29.172h4.91l8.545-29.172 6 20.483V37.666l-4.147-13.209.147-.499h-4l.146.499-9.146 29.136-9.147-29.136.147-.499h-4l.146.499-9.146 29.136-9.147-29.136.147-.499h-4l.146.499z"/><path d="M67.818 1.262C67.406.231 66.215-.269 65.159.147L24.948 12.372l1.493 3.738L66.652 3.885c1.057-.416 1.578-1.59 1.166-2.623z" fill-rule="evenodd" clip-rule="evenodd" fill="#fc6"/><path d="M29.519 12.734c-.824-2.064-4.488-2.558-8.185-1.102-3.695 1.456-6.022 4.311-5.198 6.375s4.488 2.558 8.185 1.102c3.695-1.456 6.023-4.309 5.198-6.375z" fill="#e6b85c"/></svg>