<svg xmlns="http://www.w3.org/2000/svg" width="64.037" height="63.999"><circle cx="32.033" cy="30.007" r="29.991" fill="#88c057"/><circle cx="32.033" cy="30.006" r="25.992" fill="#fff"/><path d="M42.366 37.344L.985 60.355a1.898 1.898 0 00-.708 2.654 2.054 2.054 0 002.741.736l41.381-23.013a1.898 1.898 0 00.708-2.653 2.055 2.055 0 00-2.741-.735zM63.774.979c-.549-.944-1.776-1.261-2.743-.706l-42 26.088c-.967.554-1.306 1.77-.757 2.714s1.776 1.261 2.743.706l42-26.087c.967-.554 1.306-1.769.757-2.715z" fill-rule="evenodd" clip-rule="evenodd" fill="#fc6"/><path d="M53.738 33.255c-1.089-1.827-4.966-1.633-8.66.435-3.693 2.066-5.805 5.223-4.716 7.048 1.089 1.827 4.966 1.633 8.659-.434s5.805-5.223 4.717-7.049zM17.124 25.72c-3.742 2.118-5.915 5.299-4.853 7.104s4.957 1.551 8.699-.567 5.915-5.299 4.853-7.104-4.957-1.551-8.699.567z" fill-rule="evenodd" clip-rule="evenodd" fill="#e6b85c"/></svg>