<svg xmlns="http://www.w3.org/2000/svg" width="60" height="60"><path d="M10 12a2 2 0 00-2 2v32a2 2 0 004 0V14a2 2 0 00-2-2zm16 6a2 2 0 00-2 2v20a2 2 0 004 0V20a2 2 0 00-2-2zm32 0a2 2 0 00-2 2v20a2 2 0 004 0V20a2 2 0 00-2-2zM42 0a2 2 0 00-2 2v56a2 2 0 004 0V2a2 2 0 00-2-2z" fill-rule="evenodd" clip-rule="evenodd" fill="#54bbff"/><path d="M2 22a2 2 0 00-2 2v12a2 2 0 004 0V24a2 2 0 00-2-2zm32-10a2 2 0 00-2 2v32a2 2 0 004 0V14a2 2 0 00-2-2zm16 0a2 2 0 00-2 2v32a2 2 0 004 0V14a2 2 0 00-2-2zM18 6a2 2 0 00-2 2v44a2 2 0 004 0V8a2 2 0 00-2-2z" fill-rule="evenodd" clip-rule="evenodd" fill="#4395cc"/></svg>