<svg xmlns="http://www.w3.org/2000/svg" width="44.003" height="64"><path d="M18.001 0h-16A2 2 0 000 1.999V62a2 2 0 002.001 2h16a2.002 2.002 0 002.001-2V1.999A2.001 2.001 0 0018.001 0zm24.002 0H26.002a2 2 0 00-2 1.999V62a2 2 0 002 2h16.001a2 2 0 002-2V1.999a2 2 0 00-2-1.999z" fill="gray"/><path d="M10.001 6A6.002 6.002 0 004 11.999 6.001 6.001 0 1010.001 6zm0 20C6.688 26 4 28.687 4 32s2.688 6 6.001 6a6 6 0 000-12zm24.001-8a6 6 0 10-.001-12.001A6 6 0 0034.002 18zm0 8a6 6 0 10.002 12.002A6 6 0 0034.002 26zM10.001 48a4 4 0 100 8 4 4 0 000-8zm24.001 0a4 4 0 100 8 4 4 0 000-8z" fill-rule="evenodd" clip-rule="evenodd" fill="#4d4d4d"/><path d="M34.002 50a2 2 0 10.001 4.001A2 2 0 0034.002 50zm-24.001 0a2 2 0 10.001 4.001A2 2 0 0010.001 50zm24.001-20a2 2 0 10.001 4.001A2 2 0 0034.002 30zm-24.001 0a2 2 0 10.001 4.001A2 2 0 0010.001 30zm24.001-16A2 2 0 1034 9.998 2 2 0 0034.002 14zm-24.001-4a2 2 0 10.001 4.001A2 2 0 0010.001 10z" fill-rule="evenodd" clip-rule="evenodd" fill="#666"/></svg>