<svg xmlns="http://www.w3.org/2000/svg" width="63.975" height="63.989"><path d="M60.981 34.325c-5.171-5.236-15.248-3.52-22.509 3.835s-8.956 17.562-3.786 22.797c5.17 5.236 15.248 3.521 22.508-3.834 7.262-7.354 8.957-17.561 3.787-22.798z" fill="#666"/><path d="M54.456 7.527c-11.184-11.179-30.754-9.74-43.712 3.212S-3.653 43.253 7.531 54.431c11.184 11.179 30.754 9.741 43.712-3.211S65.64 18.706 54.456 7.527z" fill="#999"/><path d="M51.462 10.57C41.729.847 24.677 2.116 13.377 13.403 2.077 24.691.807 41.723 10.54 51.445c9.734 9.723 26.785 8.454 38.085-2.834 11.301-11.287 12.571-28.319 2.837-38.041z" fill="#fff"/><path d="M48.38 13.581c-8.294-8.291-22.812-7.222-32.426 2.39-9.615 9.611-10.684 24.123-2.391 32.414 8.294 8.292 22.812 7.222 32.426-2.389 9.615-9.611 10.686-24.124 2.391-32.415z" fill="#ccc"/><path d="M39.896 26.122c-3.203-3.187-8.885-2.699-12.692 1.089-3.807 3.789-4.297 9.444-1.094 12.632 3.203 3.187 8.885 2.7 12.691-1.089 3.807-3.788 4.297-9.443 1.095-12.632z" fill="#fff"/><path d="M35.005 30.101c-2.141.525-4.322 2.684-4.871 4.821-.549 2.139.742 3.445 2.883 2.92 2.141-.525 4.322-2.684 4.871-4.822.549-2.137-.742-3.445-2.883-2.919z" fill="#aeaeae"/></svg>