<svg xmlns="http://www.w3.org/2000/svg" width="48.004" height="63.938"><path d="M45.35 4H2.653C1.188 4 0 5.198 0 6.675v54.587c0 1.478 1.188 2.677 2.653 2.677H45.35c1.466 0 2.654-1.199 2.654-2.677V6.675A2.665 2.665 0 0045.35 4z" fill="#ccc"/><path d="M41.35 0H6.654A2.665 2.665 0 004 2.675v54.587c0 1.478 1.188 2.677 2.654 2.677H41.35c1.466 0 2.654-1.199 2.654-2.677V2.675A2.665 2.665 0 0041.35 0z" fill="gray"/><path d="M33.783 50.895a11.876 11.876 0 00-.003-13.861l1.594-1.592a2.012 2.012 0 000-2.847 2.02 2.02 0 00-2.852 0l-1.601 1.599a11.968 11.968 0 00-6.919-2.196 11.97 11.97 0 00-6.933 2.207l-1.554-1.552a1.998 1.998 0 10-2.829 2.825l1.546 1.544a11.871 11.871 0 00-2.241 6.943c0 2.579.827 4.962 2.22 6.916l-1.645 1.643a2.013 2.013 0 000 2.848 2.02 2.02 0 002.851 0l1.648-1.646a11.966 11.966 0 006.937 2.209 11.97 11.97 0 006.949-2.218l1.537 1.534a2.004 2.004 0 002.829 0 1.996 1.996 0 000-2.825l-1.534-1.531zm-9.781-26.94c4.432 0 8.024-3.578 8.024-7.992 0-4.415-3.593-7.992-8.024-7.992s-8.024 3.577-8.024 7.992c0 4.414 3.592 7.992 8.024 7.992z" fill-rule="evenodd" clip-rule="evenodd" fill="#404040"/><path d="M24.002 42.004c-1.116 0-2.022.895-2.022 1.998S22.886 46 24.002 46s2.022-.895 2.022-1.998-.906-1.998-2.022-1.998zm0-24.036c1.094 0 1.98-.895 1.98-1.997 0-1.104-.887-2-1.98-2s-1.98.896-1.98 2a1.988 1.988 0 001.98 1.997z" fill-rule="evenodd" clip-rule="evenodd" fill="#989898"/></svg>