<svg xmlns="http://www.w3.org/2000/svg" width="60.035" height="63.991"><path d="M30.018 51.992a6 6 0 100 12 6 6 0 000-12zm0-51.992a6 6 0 106 5.999 6 6 0 00-6-5.999zm26.963 38.798c-2.92-1.656-6.654-.673-8.34 2.196-1.686 2.87-.686 6.538 2.234 8.195 2.921 1.656 6.654.673 8.341-2.195 1.686-2.87.685-6.539-2.235-8.196zM9.158 14.802c-2.92-1.657-6.654-.674-8.34 2.195s-.686 6.539 2.234 8.195 6.654.674 8.34-2.196c1.687-2.869.686-6.538-2.234-8.194zm47.823 10.39c2.92-1.656 3.921-5.326 2.235-8.195-1.687-2.869-5.42-3.853-8.341-2.195-2.92 1.656-3.92 5.325-2.234 8.194 1.686 2.87 5.421 3.853 8.34 2.196zM3.053 38.798c-2.92 1.657-3.92 5.326-2.234 8.196 1.686 2.868 5.42 3.852 8.34 2.195s3.921-5.325 2.234-8.195c-1.686-2.869-5.42-3.852-8.34-2.196z" fill-rule="evenodd" clip-rule="evenodd"/><circle cx="30.012" cy="31.995" r="27.986" fill="#ccc"/><circle cx="30.012" cy="31.996" r="23.989" fill="#fff"/></svg>