<svg xmlns="http://www.w3.org/2000/svg" width="64" height="47.999"><path d="M40 0H24a4 4 0 00-4 4v14a4 4 0 004 4h2a2 2 0 01-2-2V6a2 2 0 012-2h12a2 2 0 012 2v14a2 2 0 01-2 2h2a4 4 0 004-4V4a4 4 0 00-4-4z" fill-rule="evenodd" clip-rule="evenodd" fill="#ccc"/><path d="M16 40a4 4 0 100 8 4 4 0 000-8zm32 0a4 4 0 100 8 4 4 0 000-8z" fill-rule="evenodd" clip-rule="evenodd" fill="#b3b3b3"/><path d="M52 11.999s-3.299-.623-8-1.173v1.173a2 2 0 11-4 0v-1.583c-2.795-.243-5.839-.416-8.857-.416-2.447 0-4.877.127-7.143.317v1.682a2 2 0 11-4 0v-1.268c-4.695.571-8 1.268-8 1.268C5.06 14.313 0 19.372 0 26v4c0 6.627 5.435 12.563 12 14h40c6.689-1.938 12-7.373 12-14v-4c0-6.628-5.373-12.312-12-14.001z" fill-rule="evenodd" clip-rule="evenodd" fill="#fc6"/><path d="M36 22h-8a2 2 0 00-2 2v8a2 2 0 002 2h8a2 2 0 002-2v-8a2 2 0 00-2-2z" fill="#fff"/><path d="M14 20a8 8 0 00-8 8 8 8 0 1016 0 8 8 0 00-8-8zm36 0a8 8 0 00-8 8 8 8 0 1016 0 8 8 0 00-8-8z" fill-rule="evenodd" clip-rule="evenodd" fill="#cca352"/><path d="M14 26a2 2 0 100 4 2 2 0 000-4zm36 0a2 2 0 100 4 2 2 0 000-4z" fill-rule="evenodd" clip-rule="evenodd" fill="#997a3d"/></svg>