<svg xmlns="http://www.w3.org/2000/svg" width="64" height="40"><path d="M60 4H4a4 4 0 00-4 4.001v28A4 4 0 004 40h56a4 4 0 004-3.999v-28A4 4 0 0060 4z" fill="#ccc"/><path d="M4 34.001a2 2 0 002 2h52a2 2 0 002-2V4H4v30.001z" fill-rule="evenodd" clip-rule="evenodd" fill="gray"/><path d="M26 8.001H10A2 2 0 008 10v20a2 2 0 002 2.001h16A2 2 0 0028 30V10a2 2 0 00-2-1.999z" fill="#fff"/><path d="M54 26H34a2 2 0 000 4h20a2 2 0 100-4zm0-7.999H34a2 2 0 100 4h20a2 2 0 000-4zM34 14h20a2 2 0 100-4H34a2 2 0 000 4z" fill-rule="evenodd" clip-rule="evenodd" fill="#666"/><path d="M18 20a4.001 4.001 0 10.002 8.002A4.001 4.001 0 0018 20zm0-3.999a2 2 0 10-.002-4.002A2 2 0 0018 16.001z" fill-rule="evenodd" clip-rule="evenodd" fill="gray"/></svg>