<svg xmlns="http://www.w3.org/2000/svg" width="60" height="64"><path d="M24 4h-6v6.001C18 14.419 24.043 16 24 16c-.045 0 6-1.581 6-5.999V4h-6zm0 8c-1.104 0-2 .21-2-1.999s.896-2 2-2 2-.209 2 2S25.105 12 24 12z" fill-rule="evenodd" clip-rule="evenodd" fill="#b3b3b3"/><path d="M36 56v-3.999H4L24 14l15.584 29.611 3.346-2.23-15.39-29.244a4 4 0 00-7.079 0l-20 38.001A4.002 4.002 0 004 56.001h40l.015-.001H36z" fill-rule="evenodd" clip-rule="evenodd" fill="#cecece"/><path d="M56 0a2 2 0 00-2 2.001V56a2 2 0 004 0V2.001A2 2 0 0056 0z" fill="#cecece"/><path d="M56 44a4 4 0 00-4 4v12a4 4 0 008 0V48a4 4 0 00-4-4z" fill="#9b7cab"/></svg>