<svg xmlns="http://www.w3.org/2000/svg" width="63.979" height="46.009"><path d="M51.646 20.867l-8.484-8.485a2 2 0 00-2.829 2.828l8.485 8.485a2 2 0 102.828-2.828zm-38.484 3.514a2 2 0 00-2.829 2.828l8.485 8.485a2 2 0 102.828-2.828l-8.484-8.485zm6-6a2 2 0 10-2.828 2.828l8.484 8.485a2 2 0 102.828-2.828l-8.484-8.485z" fill-rule="evenodd" clip-rule="evenodd" fill="#cea453"/><path d="M61.621 2.316c-3.146-3.088-8.244-3.088-11.39 0l-.649.637c-.066.051-.136.098-.197.159L28.04 24.069 12.18 39.641c-1.53 1.503-4.046 1.47-5.619-.074-1.571-1.543-1.605-4.012-.077-5.516l15.074-14.8.788-.774 6.495-6.377c.056-.053.106-.098.168-.159 1.941-1.925 6.942-2.564 8.031-2.564 1.088 0 1.433-1.527 0-2.801l-5.647-5.6c-1.552-1.569-2.823-.963-2.823 0 0 .911-.352 5.664-2.063 7.825L6.195 28.743l-3.943 3.872-.005.006L.98 33.864a1.95 1.95 0 00-.563 1.671c-.935 2.725-.272 5.896 1.986 8.114 3.145 3.088 8.176 3.154 11.237.148l4.268-4.19 17.446-17.13.006.03L51.655 6.509a4.079 4.079 0 015.694 0 3.89 3.89 0 01.163 5.396L32.301 36.66a1.95 1.95 0 000 2.796 2.041 2.041 0 002.847 0l13.378-13.135c.093-.083.192-.154.282-.242l12.813-12.58a7.807 7.807 0 000-11.183z" fill-rule="evenodd" clip-rule="evenodd" fill="#fc6"/></svg>