<svg xmlns="http://www.w3.org/2000/svg" width="63.578" height="64.001"><path d="M42.986 42.636L26.945 26.609c-.776-.775-2.035-.775-2.812 0s-.776 2.033 0 2.809l16.042 16.026a1.99 1.99 0 002.811 0 1.983 1.983 0 000-2.808zM20.945 32.604c-.776-.775-2.035-.775-2.812 0s-.776 2.033 0 2.809l16.042 16.026a1.99 1.99 0 002.811 0 1.986 1.986 0 000-2.809L20.945 32.604zm-6 5.994c-.776-.775-2.035-.775-2.812 0s-.776 2.033 0 2.809l16.042 16.026a1.99 1.99 0 002.811 0 1.986 1.986 0 000-2.809L14.945 38.598z" fill-rule="evenodd" clip-rule="evenodd" fill="#b35f24"/><path d="M27.023 24.48a1.76 1.76 0 00-2.49 0l-2.491 2.491a1.761 1.761 0 102.491 2.491l2.49-2.491a1.76 1.76 0 000-2.491zm-8.49 6.001l-2.491 2.49a1.761 1.761 0 102.491 2.491l2.491-2.491a1.76 1.76 0 10-2.491-2.49zm-6 5.999l-2.491 2.491a1.762 1.762 0 002.491 2.492l2.49-2.492a1.761 1.761 0 00-2.49-2.491z" fill-rule="evenodd" clip-rule="evenodd" fill="#b35f24"/><path d="M48.412 30.673l-5.553-5.548a3.93 3.93 0 00-5.554 0L10.648 51.757a3.92 3.92 0 000 5.548l5.552 5.547a3.93 3.93 0 005.554 0L48.412 36.22a3.92 3.92 0 000-5.547zm-4.165 4.16L20.365 58.691a1.964 1.964 0 01-2.776 0l-2.776-2.773a1.959 1.959 0 010-2.773l23.882-23.859a1.964 1.964 0 012.776 0l2.776 2.774a1.959 1.959 0 010 2.773z" fill-rule="evenodd" clip-rule="evenodd" fill="#f83"/><path d="M61.561 14.048l-12-11.988c-3.298-3.357-6-2.06-6 0 0 1.575.435 8.57-1.225 13.653C34.71 23.765 14.254 45.315 5.561 54c-2.303 2.3-2 2-2 2-.782.781-4.229 5.772-3.446 6.554l.833.83c.781.78 5.816-2.593 6.609-3.38.06-.061.406-.408 2.004-2.005 8.671-8.663 29.994-28.933 38.139-36.66 5.028-1.702 12.078-1.297 13.861-1.297 2.312 0 3.043-3.269 0-5.994z" fill-rule="evenodd" clip-rule="evenodd" fill="#f83"/></svg>