<svg xmlns="http://www.w3.org/2000/svg" width="46" height="64.014"><path d="M42 58.094H16c-1.104 0-2 .884-2 1.974s.896 1.973 2 1.973h26c1.104 0 2-.883 2-1.973s-.896-1.974-2-1.974z" fill="#e6b85c"/><path d="M44 56.122c-1.104 0-2 .883-2 1.973v3.946c0 1.09.896 1.974 2 1.974s2-.884 2-1.974v-3.946c0-1.091-.896-1.973-2-1.973z" fill="#cca352"/><path d="M38 14.688C37 13.702 12 .877 12 .877s-2.688-1.974-4 0C6.448 3.209 8 4.823 8 4.823c6 9.541 3.925 15.353 0 19.73-3.282 3.661-5.266 9.462-5.829 11.269A17.496 17.496 0 000 44.284c0 9.807 8.059 17.757 18 17.757s18-7.95 18-17.757-8.059-17.758-18-17.758c-2.196 0-4.291.407-6.237 1.118 10.175-9.26 27.645-7.925 28.237-9.009 1.39-2.547-1-2.96-2-3.947zm-6 29.596c0 7.628-6.268 13.811-14 13.811S4 51.912 4 44.284s6.268-13.812 14-13.812 14 6.184 14 13.812z" fill-rule="evenodd" clip-rule="evenodd" fill="#fc6"/></svg>