<svg xmlns="http://www.w3.org/2000/svg" width="64.065" height="64.001"><path d="M21.371 42.649a2.04 2.04 0 00-2.883 0L1.193 59.929a2.035 2.035 0 000 2.88 2.04 2.04 0 002.882 0L21.371 45.53a2.036 2.036 0 000-2.881z" fill="#ccc"/><circle cx="4.014" cy="59.991" r="4.012" fill="#b3b3b3"/><path d="M61.414 10.675L30.413 42.21c-2.36 2.361-6.188 2.361-8.548 0s-2.36-6.189 0-8.551c0 0 31.524-30.927 31.524-31.012L50.228 0 19.017 30.809c-3.934 3.936-3.934 10.316 0 14.251 3.934 3.936 10.312 3.936 14.246 0l30.803-31.204-2.652-3.181z" fill="#b3b3b3"/></svg>