<svg xmlns="http://www.w3.org/2000/svg" width="74.003" height="104"><path d="M38.002 16C20.328 16 6 30.327 6 48c0 17.674 14.328 32 32.002 32 17.673 0 32.001-14.326 32.001-32 0-17.673-14.328-32-32.001-32zm0 34a2 2 0 110-4.002 2 2 0 010 4.002z" fill-rule="evenodd" clip-rule="evenodd" fill="#666"/><path d="M38.002 72v-.003C29.715 71.989 21.657 67.693 17.216 60a23.87 23.87 0 01-3.213-12h-.002A2 2 0 0010 48c0 .02.005.037.006.056A27.841 27.841 0 0013.752 62c5.174 8.961 14.554 13.971 24.207 13.996.015 0 .028.004.043.004a2 2 0 000-4zm27.995-24.056A27.844 27.844 0 0062.251 34C57.08 25.044 47.707 20.035 38.06 20.006c-.02 0-.038-.006-.058-.006a2 2 0 100 4v.003c8.287.009 16.344 4.305 20.785 11.997a23.881 23.881 0 013.212 12h.004a2 2 0 004 0c0-.019-.005-.037-.006-.056zM38.002 64c-.013 0-.024.004-.036.004-5.518-.018-10.879-2.873-13.836-7.995a15.942 15.942 0 01-2.133-7.972c0-.013.004-.024.004-.037a2 2 0 00-4 0c0 .071.014.139.021.208.031 3.332.874 6.7 2.659 9.792 3.661 6.343 10.275 9.897 17.104 9.979.072.007.143.021.217.021a2 2 0 000-4zm17.32-26c-3.659-6.338-10.266-9.891-17.089-9.977-.077-.009-.152-.023-.231-.023a2 2 0 100 4c.01 0 .02-.003.029-.003 5.519.016 10.882 2.87 13.842 7.994a15.932 15.932 0 012.133 7.972c0 .013-.004.024-.004.037a2 2 0 004 0c0-.076-.014-.147-.022-.221A19.862 19.862 0 0055.322 38z" fill-rule="evenodd" clip-rule="evenodd" fill="gray"/><path d="M38.002 36c-6.628 0-12.001 5.373-12.001 12 0 6.628 5.373 12 12.001 12 6.627 0 12-5.372 12-12 0-6.627-5.373-12-12-12zm0 14a2 2 0 110-4.002 2 2 0 010 4.002z" fill-rule="evenodd" clip-rule="evenodd" fill="#ccc"/><circle cx="37.98" cy="48" r="2" fill="#fff"/><path d="M65.807 16H10.154a4.174 4.174 0 00-4.174 4.174v55.652A4.174 4.174 0 0010.154 80h55.652a4.174 4.174 0 004.174-4.174V64.149C62.783 62.293 57.458 55.777 57.458 48c0-7.776 5.325-14.292 12.522-16.148V20.174A4.174 4.174 0 0065.807 16zM37.98 62.001c-7.732 0-14-6.269-14-14.001 0-7.731 6.268-14 14-14 7.731 0 14 6.269 14 14 0 7.732-6.268 14.001-14 14.001z" fill-rule="evenodd" clip-rule="evenodd" fill="#9b7cab"/></svg>