<svg xmlns="http://www.w3.org/2000/svg" width="74.003" height="104"><path d="M38.002 16C20.328 16 6 30.327 6 48c0 17.674 14.328 32 32.002 32 17.673 0 32.001-14.326 32.001-32 0-17.673-14.328-32-32.001-32zm0 34a2 2 0 110-4.002 2 2 0 010 4.002z" fill-rule="evenodd" clip-rule="evenodd" fill="#666"/><path d="M38.002 72v-.003C29.715 71.989 21.657 67.693 17.216 60a23.87 23.87 0 01-3.213-12h-.002A2 2 0 0010 48c0 .02.005.037.006.056A27.852 27.852 0 0013.752 62c5.174 8.961 14.554 13.971 24.207 13.996.015 0 .029.004.043.004a2 2 0 000-4zm0-8c-.013 0-.024.004-.037.004-5.517-.018-10.878-2.873-13.835-7.995a15.914 15.914 0 01-2.132-7.976c0-.011.003-.021.003-.033a2 2 0 00-4 0c0 .076.014.147.022.222.032 3.327.875 6.69 2.657 9.778 3.662 6.343 10.275 9.897 17.104 9.979.073.007.144.021.218.021a2 2 0 000-4zm27.995-16.056A27.854 27.854 0 0062.251 34C57.08 25.044 47.707 20.035 38.06 20.006c-.02 0-.038-.006-.058-.006a2 2 0 100 4v.003c8.287.009 16.344 4.305 20.785 11.997A23.882 23.882 0 0162 48h.003a2 2 0 004 0c0-.019-.005-.037-.006-.056zM55.322 38c-3.659-6.338-10.266-9.891-17.089-9.977-.077-.009-.152-.023-.231-.023a2 2 0 100 4c.01 0 .019-.003.029-.003 5.52.016 10.883 2.87 13.842 7.994a15.913 15.913 0 012.132 7.975c0 .012-.003.022-.003.034a2 2 0 004 0c0-.074-.014-.144-.021-.215A19.864 19.864 0 0055.322 38z" fill-rule="evenodd" clip-rule="evenodd" fill="gray"/><path d="M38.002 36c-6.628 0-12.001 5.373-12.001 12 0 6.628 5.373 12 12.001 12 6.627 0 12-5.372 12-12 0-6.627-5.373-12-12-12zm0 14a2 2 0 110-4.002 2 2 0 010 4.002z" fill-rule="evenodd" clip-rule="evenodd" fill="#ed7161"/></svg>