<svg xmlns="http://www.w3.org/2000/svg" width="64" height="48"><path d="M60 0H4a4 4 0 00-4 4v40.001A4 4 0 004 48h56a4 4 0 004-3.999V4a4 4 0 00-4-4z" fill="#ccc"/><path d="M58 33.896V6a2 2 0 00-4 0v27.062l-5.408 5.408a2.077 2.077 0 102.938 2.938l5.877-5.877c.448-.448.64-1.049.593-1.635z" fill-rule="evenodd" clip-rule="evenodd" fill="#999"/><path d="M58 8h-4a2 2 0 00-2 2v4.001A2 2 0 0054 16h4a2 2 0 002-1.999V10a2 2 0 00-2-2z" fill="#666"/><circle cx="24.013" cy="24" r="20" fill="#666"/><circle cx="24.014" cy="24" r="8" fill="#9b7cab"/><circle cx="24.003" cy="24" r="2" fill="#fff"/></svg>