<svg xmlns="http://www.w3.org/2000/svg" width="64.002" height="64.044"><path d="M43.486 20.5s-10.877-9.063-18.505-1.426c-7.628 7.639-.947 9.501-5.694 14.254-4.747 4.754-7.818-3.574-15.658 4.276-7.84 7.851-1.122 15.981 2.847 19.955 3.968 3.974 12.089 10.701 19.929 2.851s-.477-10.926 4.271-15.679c4.747-4.753 6.607 1.937 14.235-5.702 7.626-7.636-1.425-18.529-1.425-18.529z" fill="#a67c52"/><path fill="#bf9469" d="M13.983 47.169L43.11 18.04l2.891 2.89-29.128 29.13z"/><path d="M22.012 50.451l-4.21-4.21-4.209-4.209s-1.447 7.06-4.21 9.822l-2.807 2.807a1.985 1.985 0 002.807 2.807l2.807-2.807c2.762-2.763 9.822-4.21 9.822-4.21z" fill-rule="evenodd" clip-rule="evenodd" fill="#664c32"/><path fill="#805f3e" d="M29.983 31.169L61.111.04l2.89 2.89-31.126 31.13z"/><path d="M63.37 3.547L60.431.609a2.078 2.078 0 00-2.938 0l-2.938 4.939a2.076 2.076 0 000 2.938l.938.938a2.076 2.076 0 002.938 0l4.939-2.938a2.08 2.08 0 000-2.939z" fill="#664b31"/></svg>