<svg xmlns="http://www.w3.org/2000/svg" width="98.005" height="75.927"><path d="M32.069 71.874a23.884 23.884 0 01-16.986-7.017c-9.358-9.358-9.358-24.531 0-33.89a23.889 23.889 0 0116.986-7.018V7.894c-8.211-.013-16.427 3.112-22.691 9.377-12.504 12.504-12.504 32.777 0 45.281 6.265 6.266 14.48 9.391 22.691 9.377v-.055z" fill-rule="evenodd" clip-rule="evenodd" fill="#aad1ec"/><circle cx="32.067" cy="47.954" r="17.984" fill="#333"/><path d="M34.066 30.31a18.069 18.069 0 00-1.972-.113c-.687.001-1.361.049-2.027.124l-.01 17.642 3.999-.004.01-17.649z" fill-rule="evenodd" clip-rule="evenodd" fill="#fff"/></svg>