<svg xmlns="http://www.w3.org/2000/svg" width="64" height="64"><path d="M60 0H4a4 4 0 00-4 4v56a4 4 0 004 4h56a4 4 0 004-4V4a4 4 0 00-4-4z" fill="#ccc"/><path d="M56 8H8a2 2 0 00-2 2.001v32A2 2 0 008 44h48a2 2 0 002-1.999v-32A2 2 0 0056 8z" fill="#fff"/><path d="M50.41 19.523A49.771 49.771 0 0032 16c-6.452 0-12.597 1.268-18.259 3.492-.877.213-1.542.966-1.542 1.907 0 1.105.896 2.001 2.001 2.001.24 0 .464-.06.677-.137l.021.058A45.801 45.801 0 0132 20a45.74 45.74 0 0117.16 3.34l.022-.064c.196.065.398.125.617.125a2 2 0 002-2.001c.001-.887-.588-1.616-1.389-1.877z" fill="#b3b3b3"/><path d="M26.151 13.542c-.301-1.101-1.454-1.754-2.577-1.46-1.122.296-1.788 1.427-1.487 2.528L30.114 44h4.356l-8.319-30.458z" fill-rule="evenodd" clip-rule="evenodd" fill="#ed7161"/></svg>