<svg xmlns="http://www.w3.org/2000/svg" width="44" height="64"><path d="M10 4H2a2 2 0 00-2 2v8a2 2 0 002 2h8a2 2 0 002-2V6a2 2 0 00-2-2zm0 16H2a2 2 0 00-2 2v8a2 2 0 002 2h8a2 2 0 002-2v-8a2 2 0 00-2-2zm0 16H2a2 2 0 00-2 2v8.001A2 2 0 002 48h8a2 2 0 002-1.999V38a2 2 0 00-2-2z" fill-rule="evenodd" clip-rule="evenodd" fill="#4d4d4d"/><path d="M40 0H8a4 4 0 00-4 4v56a4 4 0 004 4h32a4 4 0 004-4V4a4 4 0 00-4-4z" fill="#ed7161"/><path d="M42 4H14a2 2 0 00-2 2v44a2 2 0 002 2h28a2 2 0 002-2V6a2 2 0 00-2-2z" fill="#ccc"/><path fill="gray" d="M16 8h24v40H16z" opacity=".4"/><path d="M28 20a2 2 0 100-4 2 2 0 000 4zm0 16a2 2 0 10.002 4.002A2 2 0 0028 36z" fill-rule="evenodd" clip-rule="evenodd" fill="#4d4d4d"/><path d="M28 24a2 2 0 00-2 2v4a2 2 0 004 0v-4a2 2 0 00-2-2z" fill="gray"/></svg>