<svg xmlns="http://www.w3.org/2000/svg" width="60" height="60.042"><path d="M54 11.999a6 6 0 00-6 6v24a6 6 0 1012 0v-24a6 6 0 00-6-6z" fill="#ed7161"/><path d="M38 7.999a6 6 0 00-6 6v32a6 6 0 0012 0v-32a6 6 0 00-6-6z" fill="#88c057"/><path d="M22 4a6 6 0 00-6 5.999v40a6 6 0 0012 0v-40A6 6 0 0022 4z" fill="#fc6"/><path d="M6 0a6 6 0 00-6 6v47.999a6 6 0 0012 0V6a6 6 0 00-6-6z" fill="#54bbff"/><path d="M6 19.999A2 2 0 106.001 24 2 2 0 006 20zm0 16A2 2 0 106.001 40 2 2 0 006 36zm16-16A2 2 0 1022.001 24 2 2 0 0022 20zm0 16A2 2 0 1022.001 40 2 2 0 0022 36zm16-16A2 2 0 1038.001 24 2 2 0 0038 20zm0 16A2 2 0 1038.001 40 2 2 0 0038 36zm16-12a2 2 0 10-.001-4.001A2 2 0 0054 23.999zm0 12A2 2 0 1054.001 40 2 2 0 0054 36z" fill-rule="evenodd" clip-rule="evenodd" fill="#fff"/><path d="M35.743 57.089L27.01 41.517c2.431-2.456 3.052-6.374 1.27-9.552-2.113-3.768-6.793-5.059-10.453-2.884-3.66 2.176-4.914 6.993-2.801 10.761 1.781 3.177 5.388 4.583 8.67 3.644l8.734 15.572c.528.942 1.698 1.265 2.613.721.915-.544 1.228-1.749.7-2.69z" fill-rule="evenodd" clip-rule="evenodd" fill="#9b7cab"/></svg>