<svg xmlns="http://www.w3.org/2000/svg" width="64" height="36"><path d="M52 22.001h-4L26 8c-2-4-6-8-8-8s-2 2-2 2C12 6.001 8 6.001 6 6.001S2 6.001 2 8v8c0 2-2 6.001-2 12v4h54l8-4v-2c0-2-4-3.999-10-3.999z" fill="#48a0dc"/><path d="M43.2 21.601L36 30h4l6-6.999-2.8-1.4zM32 16L20 30h4l10.8-12.6L32 16zm5.6 2.8L28 30h4l8.4-9.8-2.8-1.4z" fill="#fff"/><path d="M18 6.001L16 2C12 6.001 8 6.001 6 6.001S2 6.001 2 8v2c14 0 16-3.999 16-3.999zM20 10s-4 4-18 4v2s4 2 10 2 10-4 10-4l-2-4z" fill="#e6e6e6"/><path d="M48 22.001L26 8c-2-4-6-8-8-8s-2 2-2 2l2 4.001L20 10v6c0 4.001 2 4.001 4 4.001S28 16 30 16s12 6.001 14 8c2 2 2 4 4 4s4-2 4-5.999h-4z" fill="#408ec2"/><path d="M62 26c-2 0-4.599 4-30 4H2c-2 0-2 0-2 2 0 4 0 4 7 4h25c6 0 32 0 32-8 0 0 0-2-2-2z" fill="#e6e6e6"/></svg>