<svg xmlns="http://www.w3.org/2000/svg" width="64" height="28"><path d="M30 0c-2 0-8 2.001-8 4 0 2 2 2 2 2l28 8S34 0 30 0z" fill="#666"/><path d="M50 12C38 6 32 2.001 30 2.001S26 4 24 6s-6 4-10 4S6 2.001 4 2.001 0 10 0 16v8l54-2s0-8-4-10z" fill="#e6e6e6"/><path d="M34 8L22 22h4L36.8 9.4 34 8zm11.199 5.601L38 22h4l6-7-2.801-1.399zM39.6 10.8L30 22h4l8.399-9.8-2.799-1.4z" fill="#666"/><path d="M.26 11.966C1.985 11.789 2.098 10 4 10c4 0 4 2 8 2 2 0 2-2 2-2-4 0-8-7.999-10-7.999-1.571 0-3.138 4.938-3.74 9.965z" fill-rule="evenodd" clip-rule="evenodd" fill="#666"/><path d="M58 14c-2 0-4 0-8-2 2.896 1.448 3.692 6.028 3.913 8.454C50.59 21.281 46.102 22 40 22H2c-2 0-2 0-2 2v2c0 2 0 2 2 2h38c14 0 24-4 24-6 0-5.999-2-8-6-8z" fill-rule="evenodd" clip-rule="evenodd" fill="#ccc"/></svg>