<svg xmlns="http://www.w3.org/2000/svg" width="60" height="64"><path d="M0 26s5.999 8 5.999 36A2 2 0 0010 62V38c0-2 .791-4 2-4 1.208 0 2 2 2 2V26H0z" fill="#fc6"/><path d="M46 46s-8-13.999-8-46c-4 0-12 2-16 2s-8-2-12-2C10 8 0 14 0 24.001V26s6 0 16 14.001C26 54 26 64 34 64c22 0 26-3.999 26-10 0-4-8-4-14-8z" fill="#666"/><path d="M24 10h14a2 2 0 000-4H24a2 2 0 000 4zm14 8H24a2 2 0 000 4h14a2 2 0 000-4z" fill-rule="evenodd" clip-rule="evenodd" fill="#999"/><path d="M34 16h-4a2 2 0 00-2 2v4a2 2 0 002 2.001h4A2 2 0 0036 22v-4a2 2 0 00-2-2zm0-12h-4a2 2 0 00-2 2v4a2 2 0 002 2h4a2 2 0 002-2V6a2 2 0 00-2-2z" fill-rule="evenodd" clip-rule="evenodd" fill="#fc6"/></svg>