<svg xmlns="http://www.w3.org/2000/svg" width="64" height="64"><path d="M0 24s4 8 4 12v16c0 6 2 12 8 12h40c6 0 8-6 8-12V36c0-4 4-12 4-12H0z" fill="#f83"/><path d="M12 64h8V32h-8v32zm32-32v32h8V32h-8z" fill-rule="evenodd" clip-rule="evenodd" fill="#999"/><path d="M44 24v8a4 4 0 008 0v-8h-8zm-32 8a4 4 0 008 0v-8h-8v8z" fill-rule="evenodd" clip-rule="evenodd" fill="#fc6"/><path d="M32 0C22 0 14 22 14 30a2 2 0 004 0c0-6 6-26 14-26s14 20 14 26a2 2 0 004 0c0-8-8-30-18-30z" fill-rule="evenodd" clip-rule="evenodd" fill="#999"/></svg>