<svg xmlns="http://www.w3.org/2000/svg" width="64" height="64"><path d="M52 0c-2 0-2 0-4 2.001L40 10l14 14 8-8c2-2 2-2 2-4S54 0 52 0z" fill="#735538"/><path d="M54 8c-2 0-12 0-14 2L2 48c-2.001 2-2 2.001-2 4 0 2 10 12 12 12s2 0 4-2l38-38c2-2 2-12 2-14s0-2-2-2z" fill="#a67c52"/><path d="M38 10c-1 0-4 3-4 4 0 2 14 16 16 16 1 0 4-3 4-4 0-2-14-16-16-16z" fill="#8c6745"/><path d="M18 44a2 2 0 100 4 2 2 0 000-4zm-8 8a2 2 0 10.001 4.001A2 2 0 0010 52z" fill-rule="evenodd" clip-rule="evenodd" fill="#735538"/><path d="M32 30c-.553 0-1.053.224-1.415.586l-6 6a2 2 0 002.829 2.829l6-6.001A2 2 0 0032 30z" fill="#fc6"/><path d="M26 20c-1 0-2 0-4 2L8 36c-2 2-2 3-2 4 0 .434.586 1.355 1.492 2.507L22 27.999s2-1.999 4 0L36 38c2 2 0 4.001 0 4.001L21.492 56.507C22.645 57.413 23.565 58 24 58c1 0 2 0 4-2l14-14c2-2 2-2.999 2-4 0-2-16.001-18-18-18z" fill="#fc6"/></svg>