<svg xmlns="http://www.w3.org/2000/svg" width="64" height="34"><path d="M0 18c0 8 4 16 4 16 6 0 22-14.001 22-14.001V12S10 0 4 0c0 0-4 8-4 18zM60 0c-6 0-22 12-22 12v7.999S54 34 60 34c0 0 4-8 4-16 0-10-4-18-4-18z" fill-rule="evenodd" clip-rule="evenodd" fill="#666"/><path d="M6 16c0 3.999 2 8 4 8s16-6 16-6v-4S12 8 10 8s-4 4-4 8zm48-8c-2 0-16 6-16 6v4s14 6 16 6 4-4.001 4-8c0-4-2-8-4-8z" fill-rule="evenodd" clip-rule="evenodd" fill="#4d4d4d"/><path d="M36 10h-8a2 2 0 00-2 2v7.999A2 2 0 0028 22h8a2 2 0 002-2.001V12a2 2 0 00-2-2z" fill="#333"/></svg>