<svg xmlns="http://www.w3.org/2000/svg" width="64" height="50"><path d="M0 42v4c0 2 23.333 4 26 4 0-2 2-2 4-2h4c2 0 4 0 4 2 4 0 26-2 26-4v-4H0z" fill="#b3b3b3"/><path d="M62 8H2C0 18 0 42 0 42v4c0-2 2-4 6-4 8 0 20 4 20 8 0-2 2-2 4-2h4c2 0 4 0 4 2 0-6 12-8 20-8 4 0 6 2 6 4v-4s0-24-2-34z" fill="#e6e6e6"/><path d="M42 8h-4s2 10 2 22c0 9.466-2.74 15.264-4.517 18.033 1.4.095 2.517.472 2.517 1.967 0-1.8 1.085-3.238 2.814-4.372C42.374 42.394 44 37.291 44 30c0-12-2-22-2-22zM26 8h-4s-2 10-2 22c0 8.412 2.163 13.917 3.892 16.986C25.205 47.946 26 48.973 26 50c0-1.495 1.117-1.872 2.517-1.967C26.74 45.264 24 39.466 24 30c0-12 2-22 2-22z" fill-rule="evenodd" clip-rule="evenodd" fill="#ccc"/><path d="M60 0H4a2 2 0 00-2 2v6h60V2a2 2 0 00-2-2z" fill="#ccc"/></svg>