<svg xmlns="http://www.w3.org/2000/svg" width="64" height="44"><path d="M8 0a2 2 0 00-2 1.999V26a2 2 0 004 0V1.999A2 2 0 008 0zm48 0a2 2 0 00-2 1.999V26a2 2 0 004 0V1.999A2 2 0 0056 0z" fill-rule="evenodd" clip-rule="evenodd" fill="#d46557"/><path d="M62 28l-28 1.999h-4L2 28l-2 1.999V40h6c2 0 4 4 10 4 12 0 16-6.001 16-6.001S36 44 48 44c6 0 8-4 10-4h6V29.999L62 28z" fill-rule="evenodd" clip-rule="evenodd" fill="#d46557"/><path d="M0 28s2 16 12 16c12 0 20-12.001 20-12.001-8-7.999-24-14-24-14C8 21.999 0 28 0 28zm56-10.001s-16 6.001-24 14C32 31.999 40 44 52 44c10 0 12-16 12-16s-8-6.001-8-10.001z" fill-rule="evenodd" clip-rule="evenodd" fill="#ed7161"/></svg>