<svg xmlns="http://www.w3.org/2000/svg" width="64" height="60"><path d="M60 38.001v-6H4v6c0 2-4 10-4 14C0 58 16 60 32 60s32-2 32-7.999c0-4-4-12-4-14z" fill="#ed7161"/><path d="M34 2.001C34 0 33.104 0 32 0s-2 0-2 2.001c-16 0-28 0-28 30v6l4 2c4 2 14 4 26 4s22-2 26-4l4-2v-6c0-30-12-30-28-30z" fill-rule="evenodd" clip-rule="evenodd" fill="#ccc"/><path d="M32 2.001c-8 0-26 6-26 15.999v22.001c4 2 14 4 26 4s22-2 26-4V18c0-8-18-15.999-26-15.999z" fill="#e6e6e6"/><path d="M22 10a2 2 0 100 4 2 2 0 000-4zm20 0a2 2 0 100 4 2 2 0 000-4z" fill-rule="evenodd" clip-rule="evenodd" fill="#ed7161"/></svg>