<svg xmlns="http://www.w3.org/2000/svg" width="64" height="44.025"><path d="M62.001 34.025H2v8c0 2 0 2 2.001 2H16c2.001 0 2.001 0 2.001-2 0 0 13.999 2 18 2 16 0 27.999-6 27.999-8s-1.999-2-1.999-2z" fill="#4d4d4d"/><path d="M7.732 7.291l-4-6.371C3.18.04 1.957-.261 1 .247.044.755-.284 1.88.269 2.759l4 6.371c.551.88 1.775 1.182 2.731.674.957-.508 1.284-1.633.732-2.513z" fill="#666"/><path d="M14 6.025c-3.999 0-6 2-6 2v22h14.001v-22s-4-2-8.001-2z" fill="#ba594c"/><path d="M56 28.025c-5.999 0-19.999-4-23.999-8s-6.001-10-6.001-14c0-2 0-2-1.999-2H20c-1.999 0-1.999 0-1.999 2 0 10 4 20 4 22s-2.001 2-4 2c-4.001 0-8-2-8-6 0-6 0-20-2.001-20H2c0 20-1.999 20-1.999 28 0 6 1.999 6 1.999 6h16c8 0 10.001 2 22.001 2 9.999 0 23.999-4 23.999-6s-1.999-6-8-6z" fill="#4d4d4d"/></svg>