<svg xmlns="http://www.w3.org/2000/svg" width="64" height="64"><path d="M14.868 12.04C15.57 10.851 16 9.48 16 8a8 8 0 00-8-8 8 8 0 00-5.657 13.656 2 2 0 002.829-2.828 4 4 0 115.656 0 2 2 0 000 2.828L15.172 18H18v-2.828l-3.132-3.132z" fill="#999"/><path d="M64 8c0-2-2-4-6-4-6 0-18 8-38 8-2 0-8 6-8 8 0 20-8 32-8 38 0 4 2 6 4 6 1.267 0 1.729-.804 1.899-1.899L62.101 9.899C63.196 9.729 64 9.266 64 8zM20 20c4.646 0 24.876-5.994 34.7-8.7L11.3 54.7C14.006 44.876 20 24.646 20 20z" fill-rule="evenodd" clip-rule="evenodd" fill="#a67c52"/></svg>