<svg xmlns="http://www.w3.org/2000/svg" width="64" height="55.999"><path d="M62 44H1.999v4A2 2 0 000 50v4c0 1.104.895 1.999 1.999 1.999h14A2 2 0 0018 54v-2c2.74-.028 7.488.681 12 2 1.979.579 0 1.999 2 1.999C48 55.999 64 50 64 48v-2s0-2-2-2z" fill="#333"/><path d="M55.999 36L50 36.001c-2 0-6 0-8-2.001H20v14c4 0 8 2 19.999 2C49.999 50 62 46 62 44s0-8-6.001-8z" fill="#666"/><path d="M28 20c0-6 2-8 2-18 0-2-4-2-10-2C12 0 0 2 0 4c0 6 2 16 2 22 0 6.001-2 14-2 18s2 4 2 4h18s0-2 4-5.999C28 38 34 38 38 38c2 0 4-1.999 4-4 0-1.999-8-1.999-14-14z" fill="gray"/><path d="M22 20a2 2 0 100 4.002A2 2 0 0022 20zm3.999 6a2 2 0 10.002 4 2 2 0 00-.002-4zM32 32a2 2 0 100 4 2 2 0 000-4zM22 16a2 2 0 10-.001-4.001A2 2 0 0022 16zm2-8a2 2 0 10-.001-4.001A2 2 0 0024 8z" fill-rule="evenodd" clip-rule="evenodd" fill="#333"/></svg>