<svg xmlns="http://www.w3.org/2000/svg" width="64.001" height="40"><path d="M18 0c-4 0-4 16-4 16h16C22 8.001 20 0 18 0z" fill="#ba594c"/><path d="M50 26v8h12v-4c0-4-12-4-12-4z" fill="#e6e6e6"/><path d="M50 26c-4-1.999-10-1.999-20-10C20 8.001 20.295 4 18 4c-2.296 0-4 4.001-8 4.001S6 6 4 6s-2 2.2-2 4v8c0 4.001-2 8-2 14v4.001h54V32c0-2-4-6-4-6z" fill="#ed7161"/><path d="M43.473 23.7l-.887.886a2 2 0 102.828 2.828l2.321-2.321c-1.248-.422-2.654-.827-4.262-1.393zM21.907 5.265l-3.321 3.321a2 2 0 002.828 2.829l2.664-2.665a67.13 67.13 0 01-2.171-3.485zm12.679 17.321a2 2 0 002.828 2.829l2.951-2.951a40.655 40.655 0 01-3.751-1.906l-2.028 2.028zm-6-4a2 2 0 102.828 2.828l2.525-2.525a55.998 55.998 0 01-3.277-2.379l-2.076 2.076zm-2.695-7.306l-3.305 3.306a2 2 0 102.828 2.828l3.042-3.041a46.556 46.556 0 01-2.565-3.093z" fill-rule="evenodd" clip-rule="evenodd" fill="#e6e6e6"/><circle cx="12" cy="21.983" r="5.998" fill="#fff"/><path d="M62 30c-2.104 0-7.595 4-22 4H2c-2 0-2 0-2 2.001V38c0 2 0 2 2 2h38c14 0 24-3.999 24-6 0-2 .104-4-2-4z" fill="#ccc"/></svg>