<svg xmlns="http://www.w3.org/2000/svg" width="64.001" height="28"><path d="M24 0c-4 0-4 2.001-4 4 0 2.001 12 10 12 10h18S26 0 24 0z" fill="#333"/><path d="M50 14v8h12v-4c0-4-12-4-12-4z" fill="#e6e6e6"/><path d="M50 14C28 4 28 4 24 4s-4 8-12 8c-6 0-6-3.999-8-3.999S0 14 0 20v4.001h54V20c0-2-4-6-4-6z" fill="#666"/><path d="M26.586 4.586a2 2 0 002.828 2.829l3.233-3.234a222.363 222.363 0 00-3.69-1.967l-2.371 2.372zm17.816 6.184l-1.816 1.816a2 2 0 102.828 2.828l2.578-2.578c-.949-.55-2.177-1.257-3.59-2.066zm-9.816-2.184a2 2 0 102.828 2.828l2.945-2.945a706.307 706.307 0 00-3.622-2.034l-2.151 2.151z" fill-rule="evenodd" clip-rule="evenodd" fill="#e6e6e6"/><path d="M62 18c-2.104 0-7.595 4-22 4H2c-2 0-2 0-2 2.001v2C0 28 0 28 2 28h38c14 0 24-3.999 24-6 0-2 .104-4-2-4z" fill="#ccc"/></svg>