<svg xmlns="http://www.w3.org/2000/svg" width="64" height="39.999"><path d="M62 16c-2 0-4 4-12 4H14c-8 0-10-4-12-4s-2 2.001-2 4c0 4.019 11.977 19.999 31.999 19.999S64 23.998 64 19.999C64 18 64 16 62 16z" fill="#a67c52"/><path d="M42 0c-4 0-6 2.001-10 2.001S26 0 22 0s-8 20-8 22.001C14 24 26 26 32 26s18-2 18-3.999C50 20 46 0 42 0z" fill="#8c6845"/><path d="M32 22.001c-5.279 0-15.201-1.549-17.508-3.284-.315 1.65-.492 2.865-.492 3.284C14 24 26 26 32 26s18-2 18-3.999c0-.419-.177-1.634-.492-3.284-2.307 1.735-12.229 3.284-17.508 3.284z" fill-rule="evenodd" clip-rule="evenodd" fill="#d9a16a"/></svg>