<svg xmlns="http://www.w3.org/2000/svg" width="64" height="64"><path d="M62 52H2v4s2 8 4 8h14c2 0 2-6 2-6 3.752 0 10 6 18 6 16 0 24-8 24-10s-2-2-2-2z" fill="#735538"/><path d="M54 48h-6c-2 0-14-4-18-12H2c0 4-2 10-2 14s2 6 2 6h16c6 0 10 3.999 24 3.999C52 59.999 62 54 62 52c0-4-2-4-8-4z" fill="#a67c52"/><path d="M34 10S28 0 16 0 0 10 0 10s2 24 2 26c2 0 8 12 18 12 6 0 12 0 12-2s-2-6-2-10c0-6 4-26 4-26z" fill="#8c6845"/><path d="M18 0h-4a2 2 0 00-2 2l2 12h4l2-12a2 2 0 00-2-2z" fill="#a67c52"/></svg>