<svg xmlns="http://www.w3.org/2000/svg" width="64" height="32"><path d="M58 6c-2 0-6 2-12 2S30 0 30 0 18.002 14 10 14H4c-2 0-4 2-4 6s2 6 4 7.999C6 30 10 32 14 32c8 0 10-2 16-2s8 2 16 2c18 0 18-12 18-14v-4c0-6-4.001-8-6-8z" fill="#88c057"/><path d="M42 22h-2c-2 0-2 4-2 4h6s0-4-2-4zm17.999-4C58 18 58 24 58 24c4 0 4-2 4-2 0-2 0-4-2.001-4zM52 22h-2c-2 0-2 4-2 4h6s0-4-2-4z" fill-rule="evenodd" clip-rule="evenodd" fill="#638c3f"/><path d="M44 26c-10 0-26-12-34-12H4c-2 0-4 2-4 6s2 6 4 7.999C6 26 8 24 14 24c8 0 16 6 16 6 6 0 8 2 16 2 18 0 18-12 18-14 0 4-8.07 8-20 8z" fill="#75a64b"/><path d="M22.035 12.036L12 2s-2-2-4 0L6 4C4 6 6 8 6 8l10.021 10.021c.009 3.289 2.692 5.953 6.005 5.953 3.316 0 6.005-2.673 6.005-5.969-.001-3.293-2.683-5.964-5.996-5.969z" fill-rule="evenodd" clip-rule="evenodd" fill="#638c3f"/><ellipse cx="22.008" cy="18.001" rx="2.002" ry="1.99" fill="#fff"/></svg>