<svg xmlns="http://www.w3.org/2000/svg" width="64" height="36"><path d="M4 23.999l2 10C6 36 8 36 8 36h6s2 0 2-2.001V30c0-2 2-2 2-2v-4.001H4z" fill="#a67c52"/><path d="M48 19.999C44 15.999 34 0 32 0S22 5.999 16 5.999 6 0 4 0 0 5.999 0 11.999c0 3.938 2 12 4 12S14 26 18 28s15.524 8 18 8h18c4 0 10-2.001 10-4.001 0-8-12-8-16-12zM34 28c-2 0-12-8.001-14-10-2-2.001-2-4-2-6.001 0-1.999 8-6 10-6s4 2 6 4.001c2 1.999 3.937 4 6 5.999 2 1.938 4 3.938 4 6.001 0 1.999-8 6-10 6z" fill-rule="evenodd" clip-rule="evenodd" fill="#ccc"/><path d="M26 2c-1 0-4 .999-4 1.999 0 1.001 1 4 2 4s4-1 4-2C28 5 27 2 26 2z" fill="#a67c52"/></svg>