<svg xmlns="http://www.w3.org/2000/svg" width="64.001" height="32.001"><path d="M28 0c-2 0-4 2-4 4.001C24 8.853 36 18 36 18h14c0-2-16.405-18-22-18z" fill="#333"/><path d="M49.188 18.003C48.416 17.315 46.917 16.334 44 14 34 6 32 4.001 28 4.001c-2 0-4 0-6 1.999-2 2-4 6.001-8 6.001S8 8 6 8c-4 0-6 8-6 12.001v8h50L62 24v-2c0-3.647-8.312-3.969-12.812-3.997z" fill-rule="evenodd" clip-rule="evenodd" fill="#666"/><path d="M44 14C34 6 32 4.001 28 4.001c-1.156 0-2.313.013-3.469.398L40 16c5.769 4.326 6 4.001 6 6v6.001h4v-8c0-2.02-.369-1.496-6-6.001zM.466 16.009C.159 17.476 0 18.893 0 20.001v8h18s0-4.001-4-8C10.516 16.516 2.479 16.066.466 16.009zm.003-.015c8.076-.057 10.768-1.525 11.377-4.405C9.21 10.569 7.604 8 6 8 3.111 8 1.271 12.169.469 15.994z" fill-rule="evenodd" clip-rule="evenodd" fill="#4d4d4d"/><path d="M36 26l4-4-4-4c-1.063-1.063-2.423-1.806-4-2-.194-1.577-.938-2.937-2-4l-4-4-5 5 3 3 1.978-1.978c1.023 1.091 1.781 2.051 1.951 2.716a6.987 6.987 0 00-3.198 3.204C23.669 19.66 22 18 22 18l-3-2.999L16 18l4 4c1.063 1.063 2.422 1.806 4 2 .193 1.577.937 2.938 2 4l4 4.001L34 28l-3-3-1 1s-1.66-1.669-1.943-2.73a6.996 6.996 0 003.212-3.212C32.33 20.341 34 22 34 22l-1 1.001L36 26z" fill="#88c057"/><path d="M62 22c-2.104 0-7.595 4-22 4H2c-2 0-2 0-2 2.001V30c0 2.001 0 2.001 2 2.001h38c14 0 24-4 24-6.001 0-2 .104-4-2-4z" fill="#333"/></svg>