<svg xmlns="http://www.w3.org/2000/svg" width="64" height="40"><path d="M58 6H6c-1.938 5.999-4 14-4 20l30 8 30-8c0-6-2-14.001-4-20z" fill="#48a0dc"/><path d="M2 26c-2 0-2 4-2 5.999C0 34 22 40 28 40c2 0 4-4 4-6 0-2.001-28-8-30-8zm60 0c-2 0-30 5.999-30 8 0 2 2 6 4 6 6 0 28-6 28-8.001C64 30 64 26 62 26z" fill-rule="evenodd" clip-rule="evenodd" fill="#a0c4db"/><path d="M58 6H42c0 12.647 16.318 13.869 19.472 13.987C60.75 15.247 59.383 10.149 58 6zM2.541 19.986C5.722 19.866 22 18.632 22 6H6c-1.34 4.149-2.724 9.247-3.459 13.986z" fill-rule="evenodd" clip-rule="evenodd" fill="#408ec2"/><path d="M30 6v16s6 0 6-6.001V6h-6z" fill="#408ec2"/><path d="M56 0H8a2 2 0 00-2 2v4h52V2a2 2 0 00-2-2z" fill="#51b3f5"/><path d="M18 6a2 2 0 004 0V0h-4v6zm23.999-6v6A2 2 0 0046 6V0h-4.001z" fill-rule="evenodd" clip-rule="evenodd" fill="#48a0dc"/></svg>