<svg xmlns="http://www.w3.org/2000/svg" width="64" height="43.999"><path d="M60 23.999c-2 0-3.999 2.001-9.999 2.001h-36c-6 0-8-2.001-10.001-2.001-2 0-4 2.001-4 4 0 4.019 11.978 16 32 16s32-12 32-16c0-1.999-1.999-4-4-4z" fill="#4d4d4d"/><path d="M32.001 0c-10 0-20 4.001-20 24.001v6c0 2 14 3.999 20 3.999s20-1.999 20-3.999v-6c0-20-10-24.001-20-24.001z" fill="#333"/><path d="M32.001 28.001c-6 0-20-2.001-20-4v6c0 2 14 3.999 20 3.999s20-1.999 20-3.999v-6c0 1.999-14 4-20 4z" fill-rule="evenodd" clip-rule="evenodd" fill="gray"/></svg>