<svg xmlns="http://www.w3.org/2000/svg" width="64.02" height="64.02"><path d="M32.01 4.01c-15.464 0-28 12.535-28 28 0 15.463 12.536 27.999 28 27.999s28-12.536 28-27.999c0-15.465-12.536-28-28-28zm0 52c-13.255 0-24-10.745-24-24 0-13.256 10.745-24 24-24s24 10.744 24 24c0 13.255-10.745 24-24 24z" fill-rule="evenodd" clip-rule="evenodd" fill="#88c057"/><path d="M34.786 32.009L63.444 3.352A1.963 1.963 0 0060.668.575L32.01 29.232 3.352.574A1.964 1.964 0 00.576 3.351l28.658 28.657L.575 60.667a1.962 1.962 0 000 2.776 1.96 1.96 0 002.776 0L32.01 34.785l28.658 28.658a1.962 1.962 0 102.776-2.776L34.786 32.009z" fill-rule="evenodd" clip-rule="evenodd" fill="#ed7161"/></svg>