<svg xmlns="http://www.w3.org/2000/svg" width="64.02" height="64.02"><path d="M32.01 8.01c-13.255 0-24 10.744-24 24 0 13.254 10.745 23.999 24 23.999s24-10.745 24-23.999c0-13.256-10.745-24-24-24zm0 44c-11.046 0-20-8.955-20-20 0-11.046 8.954-20 20-20 11.045 0 20 8.954 20 20 0 11.045-8.955 20-20 20zm28-52h-56a4 4 0 00-4 4v56a4 4 0 004 3.999h56a4 4 0 004-3.999v-56a4 4 0 00-4-4zm0 58a2 2 0 01-2 2h-52a2 2 0 01-2-2v-52a2 2 0 012-2h52a2 2 0 012 2v52z" fill-rule="evenodd" clip-rule="evenodd" fill="#ccc"/><path d="M34.786 32.009L63.444 3.351A1.962 1.962 0 1060.668.575L32.01 29.232 3.352.574A1.964 1.964 0 00.576 3.35l28.658 28.658L.575 60.668a1.96 1.96 0 000 2.775 1.96 1.96 0 002.776 0L32.01 34.785l28.658 28.658a1.96 1.96 0 002.776 0 1.96 1.96 0 000-2.775L34.786 32.009z" fill-rule="evenodd" clip-rule="evenodd" fill="#ed7161"/></svg>