<svg xmlns="http://www.w3.org/2000/svg" width="64.013" height="64.029"><path d="M58.007 1.999a2 2 0 00-2-1.999h-40a2 2 0 100 4h38l2.399 16h-36.4c-11.045 0-20 8.954-20 20v2a2 2 0 002 1.999h15.96l-3.808 14.812c-.562 2.185.683 4.431 2.779 5.017 2.096.585 4.251-.712 4.813-2.897L26.102 44h11.811l4.348 16.981c.562 2.194 2.717 3.496 4.813 2.908 2.096-.588 3.34-2.843 2.779-5.036L46.05 43.999h15.956a2 2 0 002-1.999L58.007 1.999z" fill-rule="evenodd" clip-rule="evenodd" fill="#ccc"/><path d="M62.527 60.091L39.75 54l22.778-6.092a2 2 0 10-1.037-3.863L32.007 51.93 2.523 44.045a2 2 0 10-1.037 3.863L24.264 54 1.486 60.091a2 2 0 101.037 3.864l29.484-7.885 29.483 7.885a2.005 2.005 0 002.454-1.414 1.999 1.999 0 00-1.417-2.45z" fill-rule="evenodd" clip-rule="evenodd" fill="#ed7161"/></svg>