<svg xmlns="http://www.w3.org/2000/svg" width="64.02" height="64.02"><path d="M62.556 10.042a1.948 1.948 0 00-2.386 1.394l-.901 3.582c-1.75-1.503-4.253-3.008-7.259-3.008-6 0-6 4-10 4s-4-4-10-4-6 4-10 4-4-4-10-4c-3.006 0-5.509 1.506-7.26 3.008l-.901-3.582a1.947 1.947 0 00-2.386-1.394 1.973 1.973 0 00-1.377 2.413l10.082 40.071c.23.867.998 1.434 1.842 1.451v.032h40v-.032a1.946 1.946 0 001.841-1.451l10.083-40.071a1.974 1.974 0 00-1.378-2.413z" fill-rule="evenodd" clip-rule="evenodd" fill="#ccc"/><path d="M34.786 32.009L63.444 3.352A1.963 1.963 0 0060.668.575L32.01 29.232 3.352.574A1.962 1.962 0 10.576 3.351l28.658 28.657L.575 60.667a1.962 1.962 0 000 2.776 1.96 1.96 0 002.776 0L32.01 34.785l28.658 28.658a1.962 1.962 0 102.776-2.776L34.786 32.009z" fill-rule="evenodd" clip-rule="evenodd" fill="#ed7161"/></svg>