<svg xmlns="http://www.w3.org/2000/svg" width="64.02" height="64.02"><path d="M63.464 53.993L35.466 5.994a4.003 4.003 0 00-6.911 0l-28 47.999a4 4 0 003.455 6.016h55.999a4 4 0 003.455-6.016z" fill="#ccc"/><path d="M34.786 32.009L63.444 3.351A1.962 1.962 0 1060.668.575L32.01 29.232 3.352.574A1.964 1.964 0 00.576 3.35l28.658 28.658L.575 60.668a1.96 1.96 0 000 2.775 1.96 1.96 0 002.776 0L32.01 34.785l28.658 28.658a1.96 1.96 0 002.776 0 1.96 1.96 0 000-2.775L34.786 32.009z" fill-rule="evenodd" clip-rule="evenodd" fill="#ed7161"/></svg>