<svg xmlns="http://www.w3.org/2000/svg" width="64.02" height="64.02"><path d="M58.01 12.01a2 2 0 00-2-2.001h-40a2 2 0 000 4.001h38l2.4 16h-36.4c-11.046 0-20 8.954-20 20v1.999a2 2 0 002 2.001h60a2 2 0 002-2.001l-6-39.999z" fill="#ccc"/><path d="M34.786 32.009L63.444 3.352A1.963 1.963 0 0060.668.575L32.01 29.232 3.352.574A1.963 1.963 0 10.575 3.351l28.658 28.657L.574 60.667a1.964 1.964 0 002.777 2.776L32.01 34.786l28.658 28.657a1.962 1.962 0 102.776-2.776L34.786 32.009z" fill-rule="evenodd" clip-rule="evenodd" fill="#ed7161"/></svg>