<svg xmlns="http://www.w3.org/2000/svg" width="44" height="64"><path d="M38 48.001H6c0 2-6 8-6 10C0 60 2 62 6 62s8 2 16 2 12-2 16-2 6-2 6-3.999c0-2-6-8-6-10z" fill="#638c3f"/><path d="M34 36H10c0 2.001-6 10-6 12.001 0 2 2 2 4 2 4 0 6 1.999 14 1.999s10-1.999 14-1.999c2 0 4 0 4-2 0-2.001-6-10-6-12.001z" fill="#75a64b"/><path d="M32 26v-3.999c0-6.001 2-6 2-10.001 0-1.999 0-4-2-4V2c0-1.69-4-2-4-2v8.676C26.14 9.256 24.442 10 22 10c-2.443 0-4.138-.745-6-1.326V0s-4 .31-4 2v6c-2 0-2 2.001-2 4 0 4.001 2 4 2 10.001V26c-2 4-4 8-4 10 0 2.001 2 2.001 4 2.001 4 0 6 1.999 10 1.999s6-1.999 10-1.999c2 0 4 0 4-2.001 0-2-2-6-4-10z" fill-rule="evenodd" clip-rule="evenodd" fill="#88c057"/><path d="M22 24c-8 0-10-2-10-2v4s2 2 10 2 10-2 10-2v-4s-2 2-10 2z" fill="#fc6"/><path d="M24 24h-4a2 2 0 000 4h4a2 2 0 000-4z" fill="#fff"/></svg>