<svg xmlns="http://www.w3.org/2000/svg" width="44" height="64"><path d="M32 28v-4c0-6 2-7.999 2-12 0-1.999 0-4-2-4V2c0-1.69-4-2-4-2v8.676C26.139 9.256 24.441 10 22 10c-2.443 0-4.138-.745-6-1.325V0s-4 .31-4 2v6c-2 0-2 2.001-2 4 0 4.001 2 6 2 12v4c-2 .001-8 26.001-12 30.001C0 60 4 60 6 60c0 2 2 2 4 2 0 0 2 2 12 2s12-2 12-2c2 0 4 0 4-2 2 0 6 0 6-1.999-4-4-10-30-12-30.001z" fill-rule="evenodd" clip-rule="evenodd" fill="#ed7161"/><path d="M32 44c0 10.001 2 18 2 18 2 0 4 0 4-2 0 0-6-9.999-6-16zM10 62s2-7.999 2-18c0 6.001-6 16-6 16 0 2 2 2 4 2z" fill-rule="evenodd" clip-rule="evenodd" fill="#ba594c"/><path d="M22 24c-8 0-10-1.999-10-1.999V26s0 2 10 2 10-2 10-2v-3.999S30 24 22 24z" fill="#666"/><path d="M24 24h-4a2 2 0 000 4h4a2 2 0 000-4z" fill="#fff"/></svg>