<svg xmlns="http://www.w3.org/2000/svg" width="64" height="40"><path d="M50 20H14C2 20 0 22.001 0 26c0 8 11.977 14 32 14 20.022 0 32-6 32-14.001C64 22.001 62 20 50 20z" fill="#b3b3b3"/><path d="M44 0c-8 0-8 2-12 2s-4-2-12-2c-4 0-10 24-10 26s10 6 22 6 22-4 22-6S48 0 44 0z" fill="#999"/><path d="M32 24c-9.339 0-17.464-2.422-20.61-4.44C10.535 22.847 10 25.404 10 26c0 2 10 6 22 6s22-4 22-6c0-.596-.536-3.153-1.39-6.44C49.465 21.577 41.339 24 32 24z" fill-rule="evenodd" clip-rule="evenodd" fill="#666"/></svg>