<svg xmlns="http://www.w3.org/2000/svg" width="64" height="64"><path d="M48 0C36 0 26 8 14 28 8.055 37.909 0 46 0 52s4 12 12 12c10 0 16-15.999 26-26 10-10 26-15.999 26-28 0-4-6-10-16-10z" fill="#fc6"/><path d="M51.32 10.671a2.375 2.375 0 00-3.332 0l-1.867 1.847C45.026 12.163 43.674 12 42 12c-10 0-20 2.001-24 6-2 2-4 4.001-6 10-2 6.001-2 10-2 10s2 0 4-2c2-1.999 2-10 10-16 6-2 12-2 16-2 2 0 4 2 4 4.001C44 24 44 28 40 36c-4 4-6 4-10 6.001-4 1.999-4 6-4 6L32 46c6-2 8-3.999 10-6 6-5.999 8-12 8-20 0-1.709-.17-3.084-.541-4.19l1.861-1.842c.92-.911.92-2.387 0-3.297z" fill-rule="evenodd" clip-rule="evenodd" fill="#ba594c"/><path d="M42 12c-10 0-20 2.001-24 6-2 2-4 4.001-6 10 0 0 6-5.999 12-8 6-2 12-2 16-2 2 0 4 2 4 4.001C44 24 44 28 40 36c-2 4-8 10-8 10 6-2 8-3.999 10-6 6-5.999 8-12 8-20 0-5.999-2-8-8-8z" fill="#ed7161"/></svg>