<svg xmlns="http://www.w3.org/2000/svg" width="64" height="58"><path d="M54 44s-6-2-8-4c0 0-6-10-6-34L10 0S0 6 0 16l16 10 21.14-3.844c.128.861.262 1.705.405 2.514L18 30l4 6 16.367-7.274c.232 1.018.472 1.982.717 2.895L24 40l2 6 14.198-10.648a58.789 58.789 0 001.16 3.199L28 50.001 30 56l13.268-13.268c.453.85.732 1.269.732 1.269.101.101.227.201.355.301L36 56h6l6.467-9.7c1.355.496 2.729.92 3.773 1.22L48 56h6s4-7.999 4-10c0-1.999-2-2-4-2zM36.054 9.474c.023.813.053 1.611.091 2.394l-21.726-1.552a41.2 41.2 0 00-.996-3.859l22.631 3.017zM15.711 19.715a89.659 89.659 0 00-.369-3.714h21.08c.062.716.129 1.418.202 2.104l-20.913 1.61z" fill-rule="evenodd" clip-rule="evenodd" fill="#a67c52"/><path d="M60 52.001c-2 0-6 1.999-26 1.999-2 0-6.845-11.478-14-24C12 16.001 4 16.001 2 16.001s-2 0-2 1.999v2s6 8 6 36a2 2 0 004 0V32.001C10 30 10 28 12 28s2.992 2.272 4 4.001C30 56 26 58 32 58c22 0 32-2 32-4 0-1.999-2-1.999-4-1.999z" fill="#735538"/><path d="M14 8h6a2 2 0 000-4h-6a2 2 0 000 4zm6 4h-6a2 2 0 000 4.001h6A2 2 0 0020 12z" fill-rule="evenodd" clip-rule="evenodd" fill="#735538"/></svg>