<svg xmlns="http://www.w3.org/2000/svg" width="64" height="63.999"><path d="M62 7.999c-1.111 0-5.923 1.235-10.668 3.017L58 3.999 54 0S39.5 16.11 28.394 28.394A20125.963 20125.963 0 010 54l4 3.999 7.018-6.669C9.234 56.075 8 60.889 8 62c0 1.999 2 1.999 4 1.999S16 48 18 46c.755-.755 6.645-6.93 13.682-14.322C39.072 24.643 45.245 18.755 46 18c2-2.001 18-4 18-6.001 0-1.999 0-4-2-4z" fill-rule="evenodd" clip-rule="evenodd" fill="#cc6d29"/><path d="M58 7.999c-1.383-1.382-1.182-2.818 0-4L54 0s-8 3.999-14 10c-6 5.999-8 13.999-12 18-4 3.999-12 6-18 11.999C4 46 0 54 0 54l4 3.999c1.181-1.181 2.618-1.382 4 0 4 4.001 8 6 12 6C26 63.999 36 54 36 48c0-8.001-6-14-4-16.001C34 30 40 36 48 36c6 0 16-10 16-16 0-4.001-2-8.001-6-12.001z" fill-rule="evenodd" clip-rule="evenodd" fill="#f83"/><path d="M24 36C18 36 8 46 8 50s6 9.999 12 9.999C24 59.999 32 54 32 48c0-8.001-4-12-8-12zM50 7.999c-4 0-14 10.001-14 16 0 4.001 4 8 12 8 6 0 12-8 12-11.999 0-6-6-12.001-10-12.001z" fill-rule="evenodd" clip-rule="evenodd" fill="#e6e6e6"/><path d="M54.516 9.901a78.5 78.5 0 00-3.209 1.125l1.915-2.01C52.106 8.37 50.991 7.999 50 7.999c-1.811 0-4.851 2.053-7.637 4.854l-2.086 2.302C37.851 18.101 36 21.419 36 23.999c0 .979.243 1.958.723 2.878C41.715 22.12 45.426 18.574 46 18c1.211-1.212 7.554-2.423 12.372-3.634a15.297 15.297 0 00-3.856-4.465zm-38.68 29.83l-3.494 3.151C9.807 45.521 8 48.301 8 50c0 .994.372 2.11 1.02 3.229l.855-.813c-.148.5-.287 1-.417 1.495 1.044 1.533 2.578 3.014 4.366 4.134C14.39 53.973 14.883 49.116 16 48c.632-.633 5.063-5.264 10.827-11.301A6.208 6.208 0 0024 36c-2.383 0-5.396 1.579-8.164 3.731z" fill-rule="evenodd" clip-rule="evenodd" fill="#b3b3b3"/></svg>