<svg xmlns="http://www.w3.org/2000/svg" width="64" height="64.001"><path d="M40 6.001c-2 0-4 4-8 4l-22 22c0 4-4 6-4 8s16 18 18 18 4-4 8-4l22-22c0-4 4-6.001 4-8 0-2-16-18-18-18z" fill="#ccc"/><path d="M52 0c-2 0-2 0-4 2.001l-46 46c-2 2-2 2-2 4s10 12 12 12 2 0 4-2L62 16c2-2 2-2 2-4S54 0 52 0z" fill="#a67c52"/><path d="M54 32.001c0-12.15-9.85-22-22-22s-22 9.85-22 22 9.85 22 22 22c4.773 0 9.187-1.524 12.792-4.107C46.319 51.171 47.515 52 48 52c1 0 4-3 4-4 0-.485-.829-1.681-2.106-3.208A21.888 21.888 0 0054 32.001z" fill-rule="evenodd" clip-rule="evenodd" fill="#ccc"/><circle cx="32" cy="32.001" r="18" fill="#fff"/><circle cx="32" cy="32.001" r="4" fill="#ccc"/><path d="M46 30.001H32.939l-5.409-5.408a2.077 2.077 0 10-2.938 2.938l5.877 5.877c.448.448 1.049.64 1.635.593H46a2 2 0 000-4z" fill-rule="evenodd" clip-rule="evenodd" fill="#999"/></svg>