<svg xmlns="http://www.w3.org/2000/svg" width="64" height="64.001"><path d="M56 0c-2 0-2 0-4 2.001l-50 50c-2 2-2 2.001-2 4 0 2 6 8 8 8s2 0 4-2L62 12c2-2 2-2 2-4s-6-8-8-8z" fill="#9b7cab"/><path d="M34 10c-2 0-2 0-4 2L12 30.001c-2 2-2 2-2 4s18 20 20 20 2 0 4-2L52 34c2-2 2-2.001 2-4 0-2.001-18-20-20-20z" fill="#fc6"/><circle cx="32" cy="32.001" r="12" fill="#fff"/><circle cx="32" cy="32.001" r="4" fill="#ccc"/><path d="M40 30.001h-7.061l-3.409-3.408a2.077 2.077 0 10-2.938 2.938l3.877 3.877c.448.448 1.05.64 1.636.593H40a2 2 0 000-4z" fill-rule="evenodd" clip-rule="evenodd" fill="#999"/></svg>