<svg xmlns="http://www.w3.org/2000/svg" width="64" height="60.016"><path d="M52 44.016c-2 0-3.106.211-4 2.001-2 3.999-8 11.999-8 11.999h8s6-9.999 6-11.999c0-2.001 0-2.001-2-2.001zM34.572 8.181L4.438.066C3.398-.213 2.329.407 2.05 1.452s.338 2.119 1.378 2.399l1.158.312L10 24.016l10 10.001-9.412-28.238 22.975 6.186c1.04.28 2.109-.34 2.388-1.386a1.959 1.959 0 00-1.379-2.398z" fill-rule="evenodd" clip-rule="evenodd" fill="#ccc"/><path d="M18.111 3.319l-4.906-1.242c-1.355-.344-2.748.416-3.111 1.696s.441 2.597 1.796 2.939l4.907 1.242c1.354.343 2.747-.417 3.11-1.696.363-1.28-.441-2.597-1.796-2.939z" fill="#999"/><path d="M60 54.017c-2 0-6 1.999-26 1.999-2 0-6.845-11.478-14-24C12 18.017 4 18.017 2 18.017s-2 0-2 1.999v2s6 8 6 36a2 2 0 004 0V34.017c0-2.001 0-4.001 2-4.001 1.188 0 2.993 2.272 4 4.001 14 23.999 10 25.999 16 25.999 22 0 32-2 32-4 0-1.999-2-1.999-4-1.999z" fill="#666"/></svg>