<svg xmlns="http://www.w3.org/2000/svg" width="64" height="56"><path d="M54 40c-2 0-3.105.211-4 2-2 4-8 12-8 12h8s6-9.999 6-12c0-2 0-2-2-2zM35.95 6.563a1.96 1.96 0 00-1.379-2.399L10 0S0 6 0 16h6S4 8 10 4l23.563 3.949a1.948 1.948 0 002.387-1.386zM46 36c-2 0-2.586.586-4 2L28 52l8 2s12-14 12-16 0-2-2-2z" fill-rule="evenodd" clip-rule="evenodd" fill="#ed7161"/><path d="M29.956 2.868l-4.994-.897c-1.379-.249-2.702.706-2.956 2.131-.253 1.426.659 2.782 2.038 3.03l4.993.897c1.38.248 2.703-.706 2.956-2.131.254-1.425-.658-2.782-2.037-3.03z" fill="#999"/><path d="M60 50c-2 0-6 2-26 2-2 0-6.845-11.478-14-24C12 14 4 14 2 14s-2 0-2 2v2s6 8 6 36a2 2 0 004 0V30c0-2 0-4 2-4 1.188 0 2.992 2.272 4 4 14 24 10 26 16 26 22 0 32-2 32-4s-2-2-4-2z" fill="#666"/></svg>