<svg xmlns="http://www.w3.org/2000/svg" width="35.999" height="64"><path d="M34 4.001H2S0 12 0 16v46.001A2 2 0 002 64h8a2 2 0 001.999-1.999v-4c0-10.001 6-40 6-40S24 48 24 58.001v4A2 2 0 0026 64h8a2 2 0 001.999-1.999V16C35.999 12 34 4.001 34 4.001zM32 0H3.999A2 2 0 002 2v2.001h32V2a2 2 0 00-2-2z" fill="#48a0dc"/><path d="M22 0v4.001h4V0h-4zM10 4.001h3.999V0H10v4.001z" fill-rule="evenodd" clip-rule="evenodd" fill="#408ec2"/><path d="M16 4.001V14c0 4.001 2 4.001 4 4.001v-14h-4z" fill="#408ec2"/><path d="M34 4.001h-8C26 7.313 32.686 16 35.999 16L34 4.001zM0 16c3.313 0 10-8.687 10-11.999H2L0 16z" fill-rule="evenodd" clip-rule="evenodd" fill="#408ec2"/></svg>