<svg xmlns="http://www.w3.org/2000/svg" width="64" height="44"><path d="M46 32.001s0 2-12 8l-4 2S32 44 40 44s24-1.029 24-6c0-4.104-18-5.999-18-5.999z" fill="#d9b898"/><path d="M8 0C6 0 4 6.001 4 8c0 2 6 10.001 6 18.001l10 6C20 21.938 12 10 12 10s20 0 20-2V2C32 0 8 0 8 0z" fill="#999"/><path d="M24 0h-4a2 2 0 00-2 2v6a2 2 0 002 2h4a2 2 0 002-2V2a2 2 0 00-2-2z" fill="#666"/><path d="M16 28c-6-4-10-5.999-14-5.999 0 0-2-.063-2 1.999 0 1.938 2 2.001 2 2.001s6 4 6 11.999v4.001a2 2 0 004 0v-8s0-2 2-2h2c4.212 2.664 14 10 14 10l4-2L16 28z" fill-rule="evenodd" clip-rule="evenodd" fill="#666"/></svg>