<svg xmlns="http://www.w3.org/2000/svg" width="56" height="64"><circle cx="28" cy="8" r="8" fill="#48a0dc"/><path d="M0 54.001V60a4 4 0 004 4h48a4 4 0 004-4v-5.999H0zm28-40c-16 0-24 16-26 23.999h52c-2-7.999-10-23.999-26-23.999z" fill="#408ec2"/><path d="M54 38H2c-2 8-2 12.001-2 16.001h56c0-4 0-8.001-2-16.001zM8 56.001a2 2 0 100 4 2 2 0 000-4zm8 0a2 2 0 100 4 2 2 0 000-4zm8 0a2 2 0 100 4 2 2 0 000-4zm8 0a2 2 0 100 4 2 2 0 000-4zm8 0a2 2 0 100 4 2 2 0 000-4zm8 0a2 2 0 10-.002 3.998A2 2 0 0048 56.001zM8 36a2 2 0 10-.001-4.001A2 2 0 008 36zm8 0a2 2 0 10-.001-4.001A2 2 0 0016 36zm8 0a2 2 0 10-.001-4.001A2 2 0 0024 36zm8 0a2 2 0 10-.001-4.001A2 2 0 0032 36zm8 0a2 2 0 10-.001-4.001A2 2 0 0040 36zm8 0a2 2 0 10-.001-4.001A2 2 0 0048 36z" fill-rule="evenodd" clip-rule="evenodd" fill="#e6e6e6"/><path d="M12 44a2 2 0 00-4 0 2 2 0 000 4 2 2 0 004 0 2 2 0 000-4zm12 0a2 2 0 00-4 0 2 2 0 000 4 2 2 0 004 0 2 2 0 000-4zm12 0a2 2 0 00-4 0 2 2 0 000 4 2 2 0 004 0 2 2 0 000-4zm12 0a2 2 0 00-4 0 2 2 0 000 4 2 2 0 004 0 2 2 0 000-4z" fill-rule="evenodd" clip-rule="evenodd" fill="#ed7161"/></svg>