<svg xmlns="http://www.w3.org/2000/svg" width="52" height="64"><circle cx="24" cy="8" r="8" fill="#b3b3b3"/><path d="M24 12C4 12 0 38 0 40c0 2.001 4 6 8 10 4 4.001 4 14 12 14s8-9.999 12-14c4-4 20-4 20-6 0-4-4-32-28-32z" fill="#ccc"/><path d="M12 46a2 2 0 10.001 4.001A2 2 0 0012 46zm8 0a2 2 0 100 4 2 2 0 000-4zm8 0a2 2 0 100 4 2 2 0 000-4zM12 28a2 2 0 10-4 .002A2 2 0 0012 28zm8 0a2 2 0 10-4 .002A2 2 0 0020 28zm8 0a2 2 0 10-4 .002A2 2 0 0028 28zm6-1.999a2 2 0 10-.002 3.998A2 2 0 0034 26.001zm8 0a2 2 0 10-.002 3.998A2 2 0 0042 26.001z" fill-rule="evenodd" clip-rule="evenodd" fill="#e6e6e6"/><path d="M10 36a2 2 0 00-4 0 2 2 0 100 4 2 2 0 004 0 2 2 0 000-4zm12 0a2 2 0 00-4 0 2 2 0 100 4 2 2 0 004 0 2 2 0 000-4zm12 0a2 2 0 00-4 0 2 2 0 000 4 2 2 0 004 0 2 2 0 000-4zm12 0a2 2 0 00-4 0 2 2 0 100 4 2 2 0 004 0 2 2 0 000-4z" fill-rule="evenodd" clip-rule="evenodd" fill="#48a0dc"/></svg>