<svg xmlns="http://www.w3.org/2000/svg" width="64" height="31.999"><path d="M62 21.999H2v8c0 2 2 2 4 2h10c2 0 2 0 2-2V28s18 3.999 22 3.999C56 31.999 64 26 64 24c0-2.001-2-2.001-2-2.001z" fill="#666"/><path d="M58 13.999C50 13.999 46 12 46 12s0 4-6 4-14-8-14-8-4 4-10 4C8 12 6 5.999 4 5.999S0 9.999 0 16c0 5.999 2 10 2 10h10c10 0 22 2 28 2 16 0 24-4 24-8s-2-6.001-6-6.001z" fill="#408ec2"/><path d="M32 0c-1 0-12 12-12 12-1 .999-2 1.999-2 4 0 1 1 1.999 2 1.999 2 0 3-.999 4-1.999 0 0 12-11.001 12-12.001C36 3 33 0 32 0z" fill="#48a0dc"/><path d="M24 8c-1 0-4 3-4 4 0 .999 3 4 4 4s4-3.001 4-4c0-1-3-4-4-4z" fill="#ccc"/></svg>