<svg xmlns="http://www.w3.org/2000/svg" width="60" height="64"><path d="M58 30c-2-18-4-20-6-20L38 4H22L8 10c-2 0-4 2-6 20S0 56 0 58s6 2 8 2 2-6 2-12 4-20 4-20-2 16-2 34c0 0 4 2 10 2 4 0 8 0 8-4 0 4 4 4 8 4 6 0 10-2 10-2 0-18-2-34-2-34s4 14 4 20 0 12 2 12 8 0 8-2-.22-11.975-2-28z" fill-rule="evenodd" clip-rule="evenodd" fill="#666"/><path d="M46 46c-.813 0-8 1.374-8 1.999C38 49.062 39.375 50 40 50s8-1.626 8-2.001C48 47.25 46.5 46 46 46zm-32 0c-.5 0-2 1.25-2 1.999C12 48.374 19.375 50 20 50s2-.938 2-2.001C22 47.374 14.813 46 14 46z" fill-rule="evenodd" clip-rule="evenodd" fill="#4d4d4d"/><path d="M42 6c-4-6-4-6-12-6s-8 0-12 6l4 2-4 4 12 20 12-20-4-4 4-2z" fill="#4d4d4d"/><path d="M30 4c-6 0-6 2-6 2l6 24 6-24s0-2-6-2z" fill="#333"/></svg>