<svg xmlns="http://www.w3.org/2000/svg" width="64" height="62"><path d="M40 2c-2-2-4-2-8-2s-6 0-8 2l-4 4 12 12.001L44 6l-4-4z" fill="#387ba8"/><path d="M42 6c-2-1.999-8-1.999-10-1.999s-8 0-10 1.999l-2 4 12 10.001L44 10l-2-4z" fill="#cca352"/><path d="M40 2s-2 6-8 6-8-6-8-6l-4 2.001s4 8 12 8 12-8 12-8L40 2z" fill="#48a0dc"/><path d="M50 30l12-6c-2.153-5.341-6-11.999-8-14-2-2-6-4-10-5.999 0 0-4 8-12 8s-12-8-12-8C16 6 12 8 10 10c-2 2.001-5.847 8.659-8 14l12 6c1.275-2.57 2-2 2-2s-2 28.001-2 30c0 2.001 4 4 18 4s18-1.999 18-4c0-2-2-30-2-30s.725-.57 2 2z" fill="#fc6"/><path d="M0 28c0 1.75 10.25 6 12 6 .575 0 1.376-2.742 2-4L2 24c-.586 1.452-2 3.626-2 4zm62-4l-12 6c.624 1.258 1.425 4 2 4 1.75 0 12-4.25 12-6 0-.374-1.415-2.548-2-4z" fill-rule="evenodd" clip-rule="evenodd" fill="#48a0dc"/></svg>