<svg xmlns="http://www.w3.org/2000/svg" width="60" height="64.001"><path d="M2 58.002c0 1.499 1.604 1.999 4 1.999 1.479 0 1.999-.913 1.999-1.999v-4l-5.999 2v2zm50-4v4c0 1.086.521 1.999 2 1.999 2.396 0 4-.5 4-1.999v-2l-6-2z" fill-rule="evenodd" clip-rule="evenodd" fill="#ccc"/><path d="M52 10.001c-2-2-8-4-12-6v4H20v-4h-.001c-4 2-10 4-12 6S0 29.336 0 34.002c0 4.665.463 21.999 2 21.999 1.524 0 5.999-.549 5.999-1.999 0-4.197 3.448-17.955 4.001-20 .777-2.878 2-4 2-4s-2 28-2 29.999c0 1.896 4 3.963 16 3.963h4c12 0 16-2.066 16-3.963 0-2-2-29.999-2-29.999s1.222 1.122 2 4c.553 2.045 4 15.803 4 20 0 1.45 4.475 1.999 6 1.999 1.536 0 2-17.334 2-21.999 0-4.666-6-22.001-8-24.001z" fill="#e6e6e6"/><path d="M38 2.001C36 0 34 0 30 0h-.001c-4 0-6 0-7.999 2.001l-2 2v4h20v-4l-2-2z" fill="#999"/><path fill="#ccc" d="M28 8.001h4v56h-4z"/><path d="M22 2.001l-2 2c0 8 0 10 2 10 1.999 0 7.999-6 7.999-6s-4 0-7.999-6zm16 0c-4 6-8.001 6-8.001 6s6.001 6 8.001 6 2-2 2-10l-2-2z" fill-rule="evenodd" clip-rule="evenodd" fill="#ccc"/></svg>