<svg xmlns="http://www.w3.org/2000/svg" width="63.999" height="64"><path d="M4 62.001c6 0 6 0 6-2.001v-4l-8 2c0 4.001 0 4.001 2 4.001zM54 56v4c0 2.001 0 2.001 6 2.001 2 0 2 0 2-6L54 56z" fill-rule="evenodd" clip-rule="evenodd" fill="#408ec2"/><path d="M58 16c-4-4-8-6-8-6H14s-4 2-8 6-6 20.001-6 24.001S.463 58 1.999 58C3.524 58 10 57.451 10 56c0-3.371 1.104-9.285 2-14 1.266-6.667 2-6 2-6v24c0 4 0 4 4 4h28c4 0 4 0 4-4V36s.733-.667 2 6c.895 4.715 2 10.629 2 14.001 0 1.45 6.475 2 8 2 1.537 0 1.999-16.001 1.999-20.001 0-3.999-1.999-18-5.999-22z" fill="#48a0dc"/><path fill="#408ec2" d="M30 14h4v50h-4z"/><path d="M46 46c-.75 0-2 1.188-2 2 0 .959 3.625 8 6 8v-6c-1.187 0-3.146-4-4-4zm-28 0c-.854 0-2.813 4-4 4v6c2.375 0 6-7.041 6-8 0-.812-1.25-2-2-2z" fill-rule="evenodd" clip-rule="evenodd" fill="#408ec2"/><path d="M36 0h-8s-8 3.037-8 6c0 3.985 10 10 10 10s.375 4 2 4 2-4 2-4S44 9.985 44 6c0-2.963-8-6-8-6z" fill="#2f698f"/><path d="M28 0c-6 0-14 6.295-14 10 0 0 7.225 6 16 6 0 0-6-6.274-6-10 0-2.676 4-6 4-6zm22 10c0-3.705-8-10-14-10 0 0 4 3.324 4 6 0 3.726-6 10-6 10 8.775 0 16-6 16-6z" fill-rule="evenodd" clip-rule="evenodd" fill="#408ec2"/></svg>