<svg xmlns="http://www.w3.org/2000/svg" width="60.001" height="63.999"><path d="M14.001 59.999c0 2.001 4 4 16 4s16-1.999 16-4V58h-32v1.999zM2.001 62c1 0 5.999-.937 5.999-2.001V56L.001 58s.999 4 2 4zm50-6v3.999c0 1.063 5 2.001 5.999 2.001 1 0 2.001-4 2.001-4l-8-2z" fill-rule="evenodd" clip-rule="evenodd" fill="#638c3f"/><path d="M56.001 15.999c-2-1.999-8-6-8-6h-36s-6 4.001-8 6c-2 2-4 12-4 16L0 58c1.525 0 8-.55 8-2 0-3.372 1.104-11.285 2.001-16 1.266-6.667 2-6 2-6v22c0 2 4 3.999 18 3.999s18-1.999 18-3.999V34s.733-.667 1.999 6c.896 4.715 2.001 12.628 2.001 16 0 1.45 6.475 2 8 2V31.999c0-4-2-14-4-16z" fill="#88c057"/><path d="M26.001 11.999a2 2 0 00-2 2.001v9.999a2 2 0 004 0V14a2.002 2.002 0 00-2-2.001zm8 0a2 2 0 00-2 2.001v8a2 2 0 004 0v-8a2 2 0 00-2-2.001z" fill-rule="evenodd" clip-rule="evenodd" fill="#e6e6e6"/><path d="M44.001 42c-.75 0-2 1.188-2 1.999 0 .958 3.625 10.001 6 10.001v-6c-1.188 0-3.147-6-4-6zm-28 0c-.854 0-2.813 6-4 6v6c2.375 0 6-9.043 6-10.001 0-.811-1.25-1.999-2-1.999z" fill-rule="evenodd" clip-rule="evenodd" fill="#75a64b"/><path d="M34.001 0h-8s-8 3.036-8 6c0 3.984 10 9.999 10 9.999s.375 4.001 2 4.001 2-4.001 2-4.001 10-6.015 10-9.999c0-2.964-8-6-8-6z" fill="#517334"/><path d="M26.001 0c-6 0-14 6.295-14 9.999 0 0 7.225 6 16 6 0 0-6-6.274-6-9.999 0-2.677 4-6 4-6zm22 9.999c0-3.704-8-9.999-14-9.999 0 0 4 3.323 4 6 0 3.725-6 9.999-6 9.999 8.775 0 16-6 16-6z" fill-rule="evenodd" clip-rule="evenodd" fill="#75a64b"/></svg>