<svg xmlns="http://www.w3.org/2000/svg" width="60" height="63.999"><path d="M40 1.999C36 0 34 0 30 0c-4.001 0-7.774.887-10 1.999l-4 2 14 14 14-14-4-2z" fill="#ba594c"/><path d="M38 6c-2-2.001-6-2.001-8-2.001s-6.001 0-8 2.001l-2 3.999L30 20 40 9.999 38 6z" fill="#999"/><path d="M40 1.999S32 14 30 14 20 1.999 20 1.999l-4 2S24 20 30 20 44 3.999 44 3.999l-4-2z" fill="#ed7161"/><path d="M2 62c1 0 5.999-.938 5.999-2.001V56L0 58s1 4 2 4zm50-6v3.999C52 61.063 57 62 58 62s2-4 2-4l-8-2z" fill-rule="evenodd" clip-rule="evenodd" fill="#ed7161"/><path d="M56 11.999c-2-2-8-5.999-12-8C44 3.999 36 20 30 20S16 3.999 16 3.999c-4.001 2.001-10.001 6-12 8C1.999 14 0 28 0 31.999V58c1.524 0 7.999-.55 7.999-2 0-3.372 1.105-11.285 2.001-16 1.266-6.667 2-6 2-6v25.999c0 2.001 4 4 18 4s18-1.999 18-4V34s.733-.667 2 6c.895 4.715 2 12.628 2 16 0 1.45 6.475 2 8 2V31.999c0-3.999-2-17.999-4-20z" fill="#ccc"/></svg>