<svg xmlns="http://www.w3.org/2000/svg" width="48.001" height="63.999"><path d="M24.001 0c-4 0-6 0-10 1.999v34h20v-34c-4-1.999-6-1.999-10-1.999z" fill="gray"/><path d="M24.001 3.999c-4 0-6 0-10 2V60h20V5.999c-4-2-6-2-10-2z" fill="#666"/><path d="M48.001 34s-4-4-4-12c0-10.001 2-14.001 2-14.001-2-1.999-8-4-12-6 0 0-8 28.001-8 32.001v25.999c2 2.001 2 4 4 4s18-7.999 18-9.999V34zm-46-26.001s2 4 2 14.001C4.001 30 0 34 0 34l.001 20c0 2 16 9.999 18 9.999s2-1.999 4-4V34c0-4-8-32.001-8-32.001-4.001 2-10 4.001-12 6z" fill-rule="evenodd" clip-rule="evenodd" fill="#999"/><path d="M42.001 42c-.813 0-8 1.374-8 1.999 0 1.063 1.375 2 2 2s8-1.625 8-2c0-.749-1.5-1.999-2-1.999zm-36 0c-.5 0-2 1.25-2 1.999 0 .375 7.375 2 8 2s2-.938 2-2c0-.625-7.188-1.999-8-1.999z" fill-rule="evenodd" clip-rule="evenodd" fill="#666"/></svg>