<svg xmlns="http://www.w3.org/2000/svg" width="64" height="64"><path d="M64 28a5.996 5.996 0 00-5.558-5.978A5.966 5.966 0 0060 18a6 6 0 00-6-6 5.99 5.99 0 00-2.234.434c.137-.457.234-.932.234-1.434a5 5 0 00-5-5 4.96 4.96 0 00-3.002 1.024L44 7a5 5 0 00-5-5 4.949 4.949 0 00-3.107 1.111C35.487 1.331 33.902 0 32 0s-3.487 1.331-3.893 3.111A4.949 4.949 0 0025 2a5 5 0 00-5 5l.002.024A4.96 4.96 0 0017 6a5 5 0 00-5 5c0 .502.097.977.234 1.434A5.99 5.99 0 0010 12a6 6 0 00-6 6c0 1.55.593 2.958 1.558 4.022A5.996 5.996 0 000 28a5.995 5.995 0 003.91 5.618A5.977 5.977 0 002 38a6 6 0 006 6 5.967 5.967 0 003.215-.94 7 7 0 101.846-1.845c.591-.93.939-2.031.939-3.215a5.996 5.996 0 00-3.91-5.618 5.977 5.977 0 00.353-8.404A5.997 5.997 0 0016 18c0-.791-.156-1.543-.435-2.234.457.138.933.234 1.435.234a5 5 0 005-5l-.002-.024A4.96 4.96 0 0025 12c2.617 0 4.74-2.017 4.957-4.578.6.359 1.293.578 2.043.578s1.443-.219 2.043-.578C34.26 9.983 36.383 12 39 12a4.96 4.96 0 003.002-1.024L42 11a5 5 0 005 5c.502 0 .977-.096 1.435-.234A5.947 5.947 0 0048 18c0 3.164 2.45 5.75 5.557 5.978a5.975 5.975 0 00.353 8.403A5.997 5.997 0 0050 38c0 1.184.348 2.285.939 3.215a7 7 0 101.846 1.845c.93.592 2.03.94 3.215.94a6 6 0 006-6 5.977 5.977 0 00-1.91-4.382A5.996 5.996 0 0064 28z" fill-rule="evenodd" clip-rule="evenodd" fill="#9b7cab"/><circle cx="32" cy="54" r="10" fill="#f06eaa"/></svg>