<svg xmlns="http://www.w3.org/2000/svg" width="36" height="63.969"><path d="M34 0c-2 0-6.06 4.001-16 4.001C8 4.001 4 0 2 0S0 4.001 0 6.001c0 1.999 8 4 18 4 9.94 0 18-2.001 18-4C36 4.001 36 0 34 0z" fill="#d46557"/><path d="M22 0h-8a4 4 0 00-4 4v3.733c-.066 1.064.268 2.146 1.081 2.959L14 14h8l2.858-3.308A3.827 3.827 0 0025.979 8H26V4a4 4 0 00-4-4z" fill="#ed7161"/><path d="M22 14c-1.525-1.524-2.438-2-4-2s-2.476.476-4 2L4 50c.008 1.049.38 2.097 1.18 2.897l9.858 9.857a4.142 4.142 0 005.858 0l9.858-9.857A4.127 4.127 0 0031.964 50L22 14z" fill="#ed7161"/><path d="M5.304 45.305l16.521 16.521 4-4L7.043 39.044l-1.739 6.261zm19.758-20.242L14 14l-1.739 6.261 15.863 15.863-3.062-11.061zm6.124 22.124L10.521 26.521l-1.739 6.261 21.044 21.044.929-.929A4.127 4.127 0 0031.965 50l-.779-2.813z" fill="#ccc"/></svg>