<svg xmlns="http://www.w3.org/2000/svg" width="64" height="56"><path d="M30 32s-4-4-4-6V16c0-12 0-16-4-16-6 0-10 10-16 10-2 0-4 0-4 2v4h14v16h14z" fill="#e6e6e6"/><path d="M42 38c-6-2-10-4-12-6s-4-4-6-4c-4 0-6 0-6-2s8-2 8-4v-6s-4 0-4-2c0-6 0-8-2-8s-8 8-12 8H2v2l2 14v22h46l12-4v-4c0-4-14-4-20-6z" fill="#b3b3b3"/><path d="M24 34c0 2 0 4-2 4-4 0-16-4-16-4v2l10 4s6 2 8 2c1 0 4 0 4-2 0-3-4-6-4-6z" fill="#e6e6e6"/><path d="M26 20H12v-2c0-2-6-2-8-2s-2 2-2 2-2 2-2 4 2 4 2 4 0 2 2 2 8 0 8-2v-2h14a2 2 0 000-4z" fill-rule="evenodd" clip-rule="evenodd" fill="#e6e6e6"/><path d="M62 44s-4 6-14 6c-2 0-6-4-8-4h-4s-4.111-2-8-2h-8s-2 0-2-2c0 0-.144-1.257-2-2L6 36v-2c0-2-2-2-2-2s-4 8-4 12c0 6 4 6 4 6v2c0 2 2 4 6 4h32c4 0 22-2 22-8 0-4-2-4-2-4z" fill="#999"/><circle cx="18" cy="14" r="2" fill="#fff"/><path d="M10 56h16s-6-6-8-6c-4 0-8 6-8 6zm22-6c-2 0-6 6-6 6h14s-4-6-8-6z" fill-rule="evenodd" clip-rule="evenodd" fill="#b3b3b3"/></svg>