<svg xmlns="http://www.w3.org/2000/svg" width="64.001" height="32"><path d="M44 15.999H0V28h62v-4.001c0-5.999-4-3.999-18-8zM26 0c-2 0-4 4-4 5.999C22 8 26 10 26 10h10S27.991 0 26 0z" fill="#387ba8"/><path d="M28 4c-2 0-8 8-14 8S4 10 2 10s-2 5.999-2 5.999C20.227 21.623 20 26 20 26h16c0-2.001 8-8 8-10.001C44 13.999 30 4 28 4z" fill="#408ec2"/><path d="M30 12s2 3.999-2 3.999c-2 0-14-2-14-2S28 20 30 20s4 0 4-2c0-4.001-4-6-4-6z" fill="#fff"/><path d="M62 23.999c-2.104 0-7.595 2.001-22 2.001H2c-2 0-2 0-2 2v1.999C0 32 0 32 2 32h38c14 0 24-2.001 24-4 0-2.001.104-4.001-2-4.001z" fill="#ccc"/></svg>