<svg xmlns="http://www.w3.org/2000/svg" width="64" height="40"><path d="M22 0c-4 0-4 4.001-4 4.001v4h12C28 4 24 0 22 0z" fill="#ccc"/><path d="M46 24.001c-4 0-14-14.001-16-16-2-2.001-4-4-6-4 0 0-2 0-4 1.999-2 2.001-6 4-10 4H6c-2 0-4 0-4 2v4c0 2-2 5.994-2 12v6h58v-8c-10-1.999-12-1.999-12-1.999z" fill="#e6e6e6"/><path d="M30 8.001c-2-2.001-4-4-6-4 0 0-2 0-4 1.999l6 6.001c1.414 1.414 0 2 2 4 2 1.999 4 0 6 1.999 4 4.001 6 8 12 8v-1.999c-4 0-14-14.001-16-16z" fill="#d46557"/><path d="M34 26c0-4-4-6-4-6s.189 4.001-2 4.001c-1.653 0-4.83-1.182-8.409-2.804C22.866 17.026 27.554 12.447 30 10c0 0 0-1.999-2-4-2-1.999-4-1.999-4-1.999-5.233 5.232-9.907 9.357-13.709 12.572C5.66 14.118 2 12 2 12v2s2.592 1.885 6.157 4.36C3.06 22.597 0 24.933 0 26v8h16v-6c0-.949.49-2.164 1.294-3.521C22.027 27.5 26.419 30 28 30c2 0 6 0 6-4zm24 0s-2 4.001-8 4.001c-2 0-2-2.001-2-4.001 0 0 0-1.999-2-1.999S42 26 40 28s-8 6-8 6h30v-3.999C62 26 58 26 58 26z" fill-rule="evenodd" clip-rule="evenodd" fill="#ed7161"/><path d="M62 30c-2 0-4.599 4-30 4-10 0-28-1.999-30-1.999s-2 0-2 1.999c0 4 0 6 7 6h25c6 0 32 0 32-7.999 0 0 0-2.001-2-2.001z" fill="#ccc"/></svg>