<svg xmlns="http://www.w3.org/2000/svg" width="40" height="64"><path d="M2 62.001A2 2 0 004 64h8a2 2 0 002-1.999v-4H2v4zm24-4v4A2 2 0 0028 64h8a2 2 0 002-1.999v-4H26z" fill-rule="evenodd" clip-rule="evenodd" fill="#bfa284"/><path d="M36 4.001H4S2 12 2 16v42.001h12c0-10.001 6-40 6-40s6 29.999 6 40h12V16c0-4-2-11.999-2-11.999z" fill="#a67c52"/><path d="M38 22.001h-4A2 2 0 0032 24v12a2 2 0 002 2.001h4A2 2 0 0040 36V24a2 2 0 00-2-1.999zm-32 0H2A2 2 0 000 24v12a2 2 0 002 2.001h4A2 2 0 008 36V24a2 2 0 00-2-1.999z" fill-rule="evenodd" clip-rule="evenodd" fill="#8c6845"/><path d="M38 22.001A2 2 0 0036 24v12a2 2 0 104 0V24a2 2 0 00-2-1.999zm-36 0A2 2 0 000 24v12a2 2 0 104 0V24a2 2 0 00-2-1.999z" fill-rule="evenodd" clip-rule="evenodd" fill="#a67c52"/><path d="M34 0H6a2 2 0 00-2 2v2.001h32V2a2 2 0 00-2-2zM18 4.001V14c0 4.001 2 4.001 4 4.001v-14h-4z" fill="#8c6845"/><path d="M37.877 13.995C34.817 11.358 32 6.741 32 4.001h-4C28 8 34 16 38 16c0-.592-.048-1.277-.123-2.005zm-35.738-.156A20.792 20.792 0 002 16c4 0 10-8.687 10-11.999H8c0 2.266-2.808 7.043-5.861 9.838z" fill-rule="evenodd" clip-rule="evenodd" fill="#8c6845"/></svg>