<svg xmlns="http://www.w3.org/2000/svg" width="56" height="64"><path d="M10 59.999V62c0 2 0 2 2 2h8c2 0 2 0 2-2v-2.001H10z" fill="#333"/><path d="M48 52c-6 0-12-2-14-3.999L30 42c0-8.063 2-22 2-22l-12-4-14 4c0 6 4 18 4 22v4c0 2.001-2 4.838-2 8 0 4 2 5.999 2 5.999h10c0 .01 6 2.001 6 2.001s6 2 8 2c16 0 22-4.001 22-4.001S56 52 48 52z" fill="#666"/><path d="M36 4s-7.164-2-16-2C11.163 2 4 4 4 4S0 18 0 24c6 0 16-6 20-6s14 6 20 6c0-5.937-4-20-4-20z" fill="gray"/><path d="M30 42c0 8-10 17.999-10 17.999L26 62s8-10 8-13.999c0 0 0-4.001-4-6.001z" fill="#333"/><path d="M20 0a2 2 0 00-2 2v18a2 2 0 004 0V2a2 2 0 00-2-2z" fill="#666"/><path d="M28 48.001c-1 0-4 4.999-4 5.999s5 4 6 4 4-5 4-6c0-.999-5-3.999-6-3.999zM28 56a2 2 0 11.001-4.001A2 2 0 0128 56z" fill-rule="evenodd" clip-rule="evenodd" fill="#999"/></svg>