<svg xmlns="http://www.w3.org/2000/svg" width="64.001" height="44.025"><path d="M62.001 32.025h-60v10c0 2 0 2 2 2h12c2 0 2 0 2-2 0 0 13.999 2 18 2 16 0 28-8 28-10s-2-2-2-2z" fill="#4d4d4d"/><path d="M7.732 7.291l-4-6.371C3.18.04 1.957-.261 1.001.247.044.755-.284 1.88.269 2.759l4 6.371c.552.88 1.775 1.182 2.732.674.956-.508 1.284-1.633.731-2.513z" fill="#666"/><path d="M56.001 26.025h-10c-4 0-6-2-8-4s-10-12-14-18c-1.109-1.664 0-2.001-4-2.001-2 0-11.089 2.001-18 2.001 0 16-2 24-2 28 0 6 2 6 2 6H18c8 0 10.001 2 22.001 2 9.999 0 24-6 24-8s-2-6-8-6z" fill="#666"/><path d="M24.001 4.025c-1.109-1.664 0-2.001-4-2.001-2 0-2 2.001-2 2.001 0 2 13.999 24 16 24 2 0 0-2 4-6-2-2-10-12-14-18z" fill="#4d4d4d"/><path d="M24.001 6.025a2 2 0 100 4 2 2 0 000-4zm4 6a2 2 0 100 4.002 2 2 0 000-4.002zm3.999 6a2 2 0 10.002 4 2 2 0 00-.002-4z" fill-rule="evenodd" clip-rule="evenodd" fill="#333"/></svg>