<svg xmlns="http://www.w3.org/2000/svg" width="60" height="64"><path d="M32 0H10v4h22a2 2 0 000-4z" fill="#638c3f"/><path d="M26 0h-4a2 2 0 000 4h4a2 2 0 000-4z" fill="#ccc"/><path d="M56 44H38L16 18H0s6 16 6 44a2 2 0 104 0V36c0-3.999 0-6 2-6s4 2.001 4 2.001C26 46 24 64 32 64c14 0 20-3.999 26-8 2-8 2-10 2-12h-4z" fill="#638c3f"/><path d="M46 38s0 2.001-6 2.001C36 40.001 32 34 24 22 16.715 11.073 10 0 10 0S0 6.787 0 16v2s6 0 16 14.001C26 46 26 54 34 54c22 0 26-4 26-10 0-3.999-8-2-14-6z" fill="#88c057"/></svg>