<svg xmlns="http://www.w3.org/2000/svg" width="64" height="64"><path d="M52 26h-8c0 4.418-5.373 8-12 8-6.628 0-12-3.582-12-8h-8S0 48 0 56c0 4 2 8 8 8h48c6 0 8-4 8-8 0-8-12-30-12-30z" fill="#999"/><path d="M46.724 18.048C44.465 11.717 39.3 0 32 0S19.535 11.717 17.276 18.048A5.998 5.998 0 0018 30a6 6 0 006-6 5.992 5.992 0 00-2.854-5.103C23.168 13.75 27.583 4 32 4s8.831 9.75 10.854 14.897A5.992 5.992 0 0040 24a6 6 0 0012 0 5.998 5.998 0 00-5.276-5.952zM18 26a2 2 0 11.001-4.001A2 2 0 0118 26zm28 0a2 2 0 11.001-4.001A2 2 0 0146 26z" fill-rule="evenodd" clip-rule="evenodd" fill="#fc6"/></svg>