<svg xmlns="http://www.w3.org/2000/svg" width="64" height="32.001"><path d="M24 0c-2 0-2 6-2 6h10s-6-6-8-6z" fill="#f83"/><path d="M62 20.001C62 18 52 18 50 18S32 4 28 4s-8.065 4-14 4c-4 0-6-4-8-4-4 0-6 4-6 6v18.001h58s6 0 6-4.001c0-3.999-2-3.999-2-3.999z" fill="#999"/><path d="M32 14c-14-3.999-24-3.999-24-3.999V14s6 0 12 2c10.218 3.406 12 10 12 10l4-2s-2-3.999-6-6c8 2.001 10 6 10 6l4-2s-2.194-5.198-12-8z" fill="#f83"/><path d="M62 20.001h-6c-2 0-4 1.999-6 1.999 0 0-2 0-2-1.999C48 18 50 18 50 18 48 18 32 4 28 4c-2 0-2 0-6 2 0 0 4 4.001 4 6.001C26 13.687 16 22 16 22c-4-4-8-6-8-8 0-1.999 6-4 6-6-4 0-6-4-8-4-4 0-6 4-6 6v18.001h22L20 26c6-4 12-8 24-8 0 0 0 4-2 4-1.888 0-6 0-12 6.001h28s6 0 6-4.001c0-3.999-2-3.999-2-3.999z" fill="gray"/><path d="M46 28.001C22 28.001 14 22 8 22c-2 0-8 2-8 4v4c0 2.001 4 2.001 6 2.001h36c16 0 22-1.017 22-8.001 0 4.001-14 4.001-18 4.001z" fill="#ccc"/></svg>