<svg xmlns="http://www.w3.org/2000/svg" width="64" height="64"><path d="M54.008 40.001H2.052v14.001h57.951v-6.001c0-6.002-1.998-8-5.995-8z" fill="#4d4d4d"/><path d="M20.037 3.998H2.052c-2.563 0-2 2-2 4 0 6.001 3.998 20.003 3.998 20.003 0 4-1.998 8-1.998 12v9.998h21.982l7.993-9.998-11.99-36.003z" fill="#4d4d4d"/><path d="M30.029 26.001c-1.999-6-3.997-10.002-3.997-24.003C26.032 0 24.034 0 22.034 0h-1.997c-1.82 0-3.997 0-3.997 1.998v4c0 2-1.999 2-3.997 2H8.047c-1.998 0-3.997 0-3.997 2v2.003c0 1.998 1.999 1.998 3.997 1.998h3.997c1.999 0 7.994 0 7.994 2v2.002c0 2-3.997 2-5.995 2h-3.997c-1.999 0-3.997 0-3.997 1.998v2c0 2.002 1.998 2.002 3.997 2.002h3.997c1.871 0 5.995 0 5.995 2 0 1.998-5.995 5.998-7.994 8-1.998 1.998-1.998 3-1.998 4 0 .998.998 1.998 1.998 1.998.999 0 1.999 0 3.997-1.998 1.998-2.002 3.997-4 5.994-4 1.95 0 2 1.998 2 4 0 1.998-3.997 9.998-3.997 9.998l5.995 2.002s3.997-8 7.993-8c5.995 0 7.994-4 7.994-4s-9.993-8-11.991-14z" fill="#333"/><path d="M62.001 49.999l-1.998-1.998s-5.995 6.001-19.983 6.001c-1.998 0-7.993 0-13.988-2.001l-5.995-2.002c-11.99-3.998-17.985-3.998-17.985-3.998s-1.999 3.998-1.999 6V60c0 2.002 1.999 4 7.993 4h11.99v-1.998S22.033 60 26.031 60c3.997 0 7.993 4 13.988 4S64 62.002 64 54.002c0-2.001-1.999-4.003-1.999-4.003z" fill="#333"/><path d="M4.05 52.001H.054V58H4.05c1.999 0 3.997 0 3.997-2v-1.998c0-2.001-1.998-2.001-3.997-2.001zm57.951-2.002s-3.997 2.002-3.997 4.003C58.005 56 60.003 56 60.003 56 62.001 56 64 54.002 64 54.002c0-2.001-1.999-4.003-1.999-4.003zM26.032 56h-3.998c-1.997 0-1.997 2-1.997 6.002 0 0 1.997-2.002 5.995-2.002 3.997 0 5.995 0 5.995-2s-3.997-2-5.995-2z" fill-rule="evenodd" clip-rule="evenodd" fill="#666"/><path d="M16.041 26.001v-6c0-1-1.104-2-1.999-2-3.997 0-5.995 0-5.995 2 0 0 3.997 0 3.997 1.998v2c0 2.002-3.997 2.002-3.997 2.002 0 2 1.999 2 5.995 2 .999 0 1.999-1 1.999-2zm-1.999-12.002V7.998c0-1-1.104-2-1.999-2-3.997 0-5.995 0-5.995 2 0 0 3.997 0 3.997 2v2.003c0 1.998-3.997 1.998-3.997 1.998 0 2 1.998 2 5.995 2 .999 0 1.999-.998 1.999-2zm5.995 18.002c-1.999-2.002-1.999-2.002-3.997-2.002-1.999 0-3.997 2.002-3.997 6.002 0 0 1.999-2.002 3.997-2.002l1.998 2.002c0 1.998-1.998 4-1.998 4 3.997 0 5.994-2.002 5.994-4 0-2.002 0-2.002-1.997-4z" fill-rule="evenodd" clip-rule="evenodd" fill="#999"/></svg>