<svg xmlns="http://www.w3.org/2000/svg" width="64" height="28"><path d="M6 8c-2 0-2 2-2 4s10.175 5.131 16 12h8C24.316 15.959 8 8 6 8zm30 0s-2-2-6 0c2 4 2 16 2 16h6s0-10-2-16z" fill-rule="evenodd" clip-rule="evenodd" fill="#666"/><path d="M56 18.001L46 14c0 8-2 10-2 10h12s2 0 2-2-2-3.999-2-3.999zM30 0C20 0 6 24 6 24h8s4-10 16-16c4-2 6 0 6 0-2-6-4-8-6-8z" fill-rule="evenodd" clip-rule="evenodd" fill="gray"/><path d="M22 4c-1 0-4 3-4 4 0 1.001 5 4 6 4s4-2.999 4-4c0-1-5-4-6-4z" fill="#ccc"/><path d="M62 24L2 22a2 2 0 00-2 2v2.001A2 2 0 002 28h60a2 2 0 000-4z" fill="#333"/></svg>