<svg xmlns="http://www.w3.org/2000/svg" width="64" height="60"><path d="M60 21.999C58 10 56 8 56 8V2a2 2 0 00-2-2H10a2 2 0 00-2 2v6s-2 2-4 13.999C2 34 0 54 0 58c0 2 24 2 26 2s6-24.001 6-24.001S36 60 38 60s26 0 26-2c0-4-2-24-4-36.001z" fill-rule="evenodd" clip-rule="evenodd" fill="#d9b898"/><path d="M4 21.999S14 18 18 8H8s-2 2-4 13.999zM56 8H46c4 10 14 13.999 14 13.999C58 10 56 8 56 8z" fill-rule="evenodd" clip-rule="evenodd" fill="#bfa386"/><path d="M30 8v22s6 0 6-6V8h-6z" fill="#bfa386"/><path fill="#a67c52" d="M8 4h48v4H8z"/><path d="M36 2h-6a2 2 0 00-2 2v4a2 2 0 002 2h6a2 2 0 002-2V4a2 2 0 00-2-2z" fill="#ccc"/><path d="M18 8a2 2 0 004 0V0h-4v8zm24-8v8a2 2 0 004 0V0h-4z" fill-rule="evenodd" clip-rule="evenodd" fill="#bfa386"/></svg>