<svg xmlns="http://www.w3.org/2000/svg" width="64" height="64.001"><path d="M48 8H16C12 8 0 50.001 0 54.001s12 2 12 6c0 2 6 2 12 2s12 2 18 2 10-2 10-4c0-4 12-2 12-6S52 8 48 8z" fill="#87cfff"/><path d="M46 0H18a2 2 0 00-2 2v6h32V2a2 2 0 00-2-2z" fill="#48a0dc"/><path d="M12 34.001a2 2 0 100 4 2 2 0 000-4zm6-8a2 2 0 100 4 2 2 0 000-4zm6 8a2 2 0 100 4 2 2 0 000-4zm-8 10a2 2 0 100 4 2 2 0 000-4zm-8 6a2 2 0 100 4 2 2 0 000-4zm10-34a2 2 0 10.001 4.001A2 2 0 0018 16.001zm14-2a2 2 0 10-4 0 2 2 0 004 0zm0 10a2 2 0 100 4 2 2 0 000-4zm0 20a2 2 0 100 4 2 2 0 000-4zm6-12a2 2 0 100 4 2 2 0 000-4zM50 36a2 2 0 10.002 4.002A2 2 0 0050 36zm-8 10.001a2 2 0 100 4 2 2 0 000-4zm-18 8a2 2 0 100 4 2 2 0 000-4zm16-32a2 2 0 10-.002-4.002A2 2 0 0040 22.001zm10 4a2 2 0 10-4 0 2 2 0 004 0zm6 20A2 2 0 1055.999 50 2 2 0 0056 46z" fill-rule="evenodd" clip-rule="evenodd" fill="#fc6"/></svg>