<svg xmlns="http://www.w3.org/2000/svg" width="48.001" height="64"><path d="M42.001 16c-4-4-6-16-8-16s-16 2-16 4c0 1.612 4 14 4 20 0 2 0 4-2 6l-18 18S0 50.001 0 54c0 5.523 4.478 10 10.001 10 4 0 6-2 6-2l28-28c2-2 4-5.238 4-8 0-6-4-8-6-10z" fill-rule="evenodd" clip-rule="evenodd" fill="#ccc"/><path d="M2.001 48s-1.994 1.996-2 5.984v.035a9.999 9.999 0 0010 9.98c4 0 6-2 6-2s0-6-4-10-10-3.999-10-3.999zm40-32s-8 8-8 10 10 8 10 8c2-2 4-5.238 4-8 0-6-4-8-6-10z" fill-rule="evenodd" clip-rule="evenodd" fill="#999"/></svg>