<svg xmlns="http://www.w3.org/2000/svg" width="64" height="60"><path d="M60 21.999C58 10 56 8 56 8H8s-2 2-4 13.999C2 34 0 54 0 58c0 2 24 2 26 2s6-24.001 6-24.001S36 60 38 60s26 0 26-2c0-4-2-24-4-36.001z" fill="#ccc"/><path d="M16 12c-2 0-12 9.999-12 12 0 1 1 2 2 2 2 0 12-10 12-12.001C18 13 17 12 16 12zm32 0c-1 0-2 1-2 1.999C46 16 56 26 58 26c1 0 2-1 2-2 0-2.001-10-12-12-12z" fill-rule="evenodd" clip-rule="evenodd" fill="#b3b3b3"/><path d="M54 0H10a2 2 0 00-2 2v6h48V2a2 2 0 00-2-2z" fill="#b3b3b3"/><path d="M26 13.999a2 2 0 104 0V4h-4v9.999zM34 4v9.999a2 2 0 104 0V4h-4z" fill-rule="evenodd" clip-rule="evenodd" fill="#fff"/></svg>