<svg xmlns="http://www.w3.org/2000/svg" width="64" height="28"><path d="M58 12h-2C46.483 12 32 0 30 0s-6 8-14 8C10 8 8 2 6 2S2 6 2 8s8 4 8 8v6h10v-3.999C20 16 27.631 8 34 8c2.023 0 6 2 6 4s-10 2-10 10h6s4-6 8-6c2 0 2 6 2 6h6c0-3.999 0-6 2-6 4 0 4 6 4 6h4v-8l-4-2z" fill="#bf864c"/><path d="M58 12s2 2 2 4c0 4-4 6-14 6-9.835 0-20-3.999-24-3.999S16 20 10 20c-4 0-6.249-1.999-8-1.999-1 0-2 0-2 1.999 0 4 2 8 10 8s10-1.999 14-1.999c2.686 0 10 1.999 18 1.999 18 0 22-6 22-9.999C64 14.628 62 12 58 12z" fill="#666"/><path d="M30 0c-1 0-2 2-4 4l-4 4c-2 2-4 3.665-4 4 0 1 3 2 4 2s2-2 4-4l4-4c2-2 4-3 4-4 0-.999-3-2-4-2zm20 10c-1 0-4 3-4 4s3 2 4 2 4-3 4-4-3-2-4-2z" fill-rule="evenodd" clip-rule="evenodd" fill="#f2aa61"/><path fill="#999" d="M26 4l-4 4 4 2 4-4z"/></svg>