<svg xmlns="http://www.w3.org/2000/svg" width="36.001" height="64"><path d="M2.001 62.001a2 2 0 002 1.999h6a2 2 0 002-1.999v-2h-10v2zm22-2v2a2 2 0 002 1.999h6a2 2 0 002-1.999v-2h-10z" fill-rule="evenodd" clip-rule="evenodd" fill="#b3b3b3"/><path d="M36 14c0-4-1.999-9.999-1.999-9.999h-32s-2 6-2 9.999v6.001c0 3.999 0 40 2 40h10C12.001 50 18 26 18 26s6.001 24 6.001 34.001h10c2 0 2-36.001 2-40L36 14z" fill="#ccc"/><path d="M32.001 0h-28a2 2 0 00-2 2v2.001h32V2a2 2 0 00-2-2z" fill="#b3b3b3"/><path d="M8.001 8c-1 0-4 4.001-8 6.001L0 20c4.001-1.999 10.001-8.999 10.001-9.999 0-1.001-1-2.001-2-2.001zm20 0c-1 0-2 1-2 2.001 0 1 6 8 10 9.999v-5.999c-4-2-7-6.001-8-6.001z" fill-rule="evenodd" clip-rule="evenodd" fill="#b3b3b3"/></svg>