<svg xmlns="http://www.w3.org/2000/svg" width="64" height="63.999"><path d="M62 8c-1.111 0-5.924 1.234-10.669 3.017L58 3.999 54 0S39.5 16.111 28.393 28.395C16.109 39.501 0 54 0 54l4 3.999 7.018-6.669C9.235 56.075 8 60.889 8 62c0 1.999 2 1.999 4 1.999S16 48 18 46c.755-.755 6.644-6.929 13.68-14.32C39.071 24.644 45.245 18.755 46 18c2-2.001 18-4 18-6.001C64 10 64 8 62 8z" fill-rule="evenodd" clip-rule="evenodd" fill="#333"/><path d="M58 8c-1.383-1.383-1.182-2.819 0-4.001L54 0s-8 3.999-14 10c-6 5.999-8 13.999-12 18-4 3.999-12 6-18 11.999C4 46 0 54 0 54l4 3.999c1.181-1.181 2.618-1.382 4 0 4 4.001 8 6 12 6C26 63.999 36 54 36 48c0-8.001-6-14-4-16.001C34 30 40 36 48 36c6 0 16-10 16-16 0-4.001-2-8.001-6-12z" fill-rule="evenodd" clip-rule="evenodd" fill="#333"/><path d="M24 36C18 36 8 46 8 50s6 9.999 12 9.999C24 59.999 32 54 32 48c0-8.001-4-12-8-12zM50 8c-4 0-14 10-14 15.999 0 4.001 4 8 12 8 6 0 12-8 12-11.999 0-6-6-12-10-12z" fill-rule="evenodd" clip-rule="evenodd" fill="gray"/><path d="M15.833 39.734l-3.487 3.145C9.809 45.518 8 48.3 8 50c0 .994.372 2.11 1.02 3.229l.855-.813c-.148.5-.286 1-.417 1.495 1.044 1.533 2.578 3.014 4.366 4.134C14.39 53.973 14.883 49.116 16 48c.632-.633 5.063-5.264 10.827-11.301A6.208 6.208 0 0024 36c-2.384 0-5.398 1.581-8.167 3.734zM54.516 9.901a78.535 78.535 0 00-3.21 1.125l1.915-2.01C52.105 8.37 50.991 8 50 8c-1.814 0-4.861 2.059-7.65 4.866l-2.064 2.278C37.855 18.093 36 21.417 36 23.999c0 .979.243 1.958.723 2.878C41.715 22.12 45.426 18.574 46 18c1.211-1.212 7.554-2.423 12.371-3.634a15.307 15.307 0 00-3.855-4.465z" fill-rule="evenodd" clip-rule="evenodd" fill="#666"/></svg>