<svg xmlns="http://www.w3.org/2000/svg" width="64" height="56"><path d="M54 40c-6 0-14-8-14-38a2 2 0 00-2-2H10S0 6 0 16l16 10s-.003-13.9-3.481-22h23.502c.231 17.95 3.545 28.088 7.5 33.652L28 48l4 6 14.705-12.867c1.616 1.338 3.229 2.112 4.694 2.508L44 54h8s6-9.999 6-12c0-2-2-2-4-2z" fill-rule="evenodd" clip-rule="evenodd" fill="#f83"/><path d="M30 0h-6a2 2 0 000 4h6a2 2 0 000-4zm30 50c-2 0-6 2-26 2-2 0-6.845-11.478-14-24C12 14 4 14 2 14s-2 0-2 2v2s6 8 6 36a2 2 0 004 0V30c0-2 0-4 2-4 1.188 0 2.992 2.272 4 4 14 24 10 26 16 26 22 0 32-2 32-4s-2-2-4-2z" fill="#999"/></svg>