<svg xmlns="http://www.w3.org/2000/svg" width="64" height="44"><path d="M62.001 32H2v4a2 2 0 00-2 2v4a2 2 0 002 2h14a2 2 0 002-2v-2c2.741-.028 7.489.681 12.001 2 1.979.578 0 2 2 2C48 44 64 38 64 36v-2s0-2-1.999-2z" fill="#b37d47"/><path d="M56.001 24h-10c-4.001 0-6.001-2-8-4-2.001-2-12-20-14-20S10 2 2.001 2C2.001 18 0 28 0 32s2.001 4 2.001 4H18c8 0 10.001 2 22 2 10.001 0 22.001-4 22.001-6s-.001-8-6-8z" fill="#d99857"/><path d="M18 0c-2 0-3.999 2-15.999 2C0 2 0 4 0 6s0 4 2.001 4c12 0 18-2 18-4s0-6-2.001-6z" fill="#666"/><path d="M24.001 4a2 2 0 100 4.002A2 2 0 0024 4zm4 6a2 2 0 100 4.002A2 2 0 0028 10zm4 6a2 2 0 100 4 2 2 0 000-4z" fill-rule="evenodd" clip-rule="evenodd" fill="#ffbe7d"/></svg>