<svg xmlns="http://www.w3.org/2000/svg" width="64" height="56"><path d="M60 36c-2 0-3.999 2.002-9.999 2.002h-36c-6 0-8-2.002-10.001-2.002-2 0-4 2.002-4 4 0 4.019 11.978 16 32 16s32-12 32-16c0-1.998-1.999-4-4-4z" fill="#4d4d4d"/><path d="M54 4.001C54 1.791 43.046 0 32.001 0 20.955 0 10 1.791 10 4.001c0 .087.023.174.057.26.48 2.216 3.944 18.573 3.944 29.74v6c0 2 12 4 18 4s18-1.999 18-4v-6c0-11.167 3.462-27.524 3.942-29.74a.713.713 0 00.057-.26z" fill-rule="evenodd" clip-rule="evenodd" fill="#333"/><path d="M32.001 38.002c-6 0-18-2.001-18-4.001v6c0 2 12 4 18 4s18-2 18-4v-6c0 2-12 4.001-18 4.001z" fill="#ccc"/></svg>