<svg xmlns="http://www.w3.org/2000/svg" width="64" height="48"><path d="M0 23.999V26c0 10 26 12 26 18h12c0-6 26-8 26-18v-2.001H0z" fill="#b3b3b3"/><path d="M0 8v18s0-2.001 4-2.001C12 23.999 26 36 26 44c0 2 0 4 2 4h8c2 0 2-2 2-4 0-8 14-20.001 22-20.001 4 0 4 2.001 4 2.001V8H0z" fill="#e6e6e6"/><path d="M42 8h-4s3.819 15.286 3.991 27.183a34.903 34.903 0 013.684-3.886C44.724 20.266 42 8 42 8zM18.324 31.297a34.903 34.903 0 013.684 3.886C22.18 23.286 26 8 26 8h-4s-2.725 12.265-3.676 23.297z" fill-rule="evenodd" clip-rule="evenodd" fill="#ccc"/><path d="M62 0H2a2 2 0 00-2 2v6h64V2a2 2 0 00-2-2z" fill="#ccc"/></svg>