<svg xmlns="http://www.w3.org/2000/svg" width="64" height="56"><path d="M62 50.001H2c-2 0-2 1.999-2 4C0 56 2 56 2 56h40c14 0 22-1.999 22-4 0-1.999-2-1.999-2-1.999z" fill="#bf9973"/><path d="M32 32c0-11.999 2-21.999 2-28 0-2 0-4-2-4H2C0 0 0 2 0 4c0 14 2 16.001 2 44.001C2 50.001 2 52 4 52h38c20 0 20-1.999 20-1.999v-2C62 38.001 32 32 32 32z" fill="#d9b898"/><path d="M33.771 31.077c-.567-1.03-1.821-1.383-2.803-.788L18 38.15V0h-4v41.438c-.05.269-.051.544 0 .818V52h4v-8.875l15.02-9.105c.98-.595 1.317-1.913.751-2.943z" fill-rule="evenodd" clip-rule="evenodd" fill="#f2ceaa"/></svg>