<svg xmlns="http://www.w3.org/2000/svg" width="63.981" height="44.035"><path d="M51.991 2.035c-6 0-6 4-10 4s-4-4-10-4-6 4-10 4-4-4-10-4-10 5.999-10 5.999l10 34h40l10-34s-4-5.999-10-5.999z" fill="#87cfff"/><path d="M62.537.067a1.948 1.948 0 00-2.386 1.394l-9.706 38.574H13.536L3.83 1.461A1.947 1.947 0 001.444.067 1.974 1.974 0 00.067 2.48L10.15 42.551c.23.867.997 1.434 1.841 1.451v.032h40v-.032a1.946 1.946 0 001.841-1.451L63.915 2.48A1.975 1.975 0 0062.537.067z" fill-rule="evenodd" clip-rule="evenodd" fill="#48a0dc"/><path d="M29.991 16.034a2 2 0 00-2-2h-8a2 2 0 000 4h4.31l-1.724 2.586a2 2 0 001.415 3.414 2 2 0 11-2 2 2 2 0 00-4 0 6 6 0 0012 0 5.989 5.989 0 00-2.893-5.125l2.306-3.46c.361-.362.586-.862.586-1.415zm8-2a6 6 0 00-6 6v6.001a6 6 0 0012 0v-6.001a6 6 0 00-6-6zm2 12.001a2 2 0 01-4 0v-6.001a2 2 0 014 0v6.001zm8-12a2 2 0 100 4 2 2 0 000-4z" fill-rule="evenodd" clip-rule="evenodd" fill="#fff"/></svg>