<svg xmlns="http://www.w3.org/2000/svg" width="63.981" height="44.035"><path d="M51.991 2.035c-6 0-6 4-10 4s-4-4-10-4-6 4-10 4-4-4-10-4-10 5.999-10 5.999l10 34h40l10-34s-4-5.999-10-5.999z" fill="#fc6"/><path d="M62.537.067a1.948 1.948 0 00-2.386 1.394l-9.706 38.574H13.536L3.83 1.461A1.947 1.947 0 001.444.067 1.974 1.974 0 00.067 2.48l10.082 40.071c.23.867.998 1.434 1.842 1.451v.032h40v-.032a1.946 1.946 0 001.841-1.451L63.915 2.48A1.975 1.975 0 0062.537.067z" fill-rule="evenodd" clip-rule="evenodd" fill="#cca352"/><path d="M37.991 14.034a6 6 0 00-6 6v6.001a6 6 0 0012 0v-6.001a6 6 0 00-6-6zm2 6.001v6a2 2 0 01-4 0v-6.001c0-1.104.896-2.001 2-2.001s2 .897 2 2.002zm-16-.012c-.297 0-.587.029-.873.07.571-.982 1.338-1.708 2.26-2.629.004-.004.006-.011.009-.015.378-.365.615-.874.615-1.44a2.01 2.01 0 00-2.011-2.007c-.439 0-.843.145-1.174.384-.076.051-.15.105-.213.168-2.213 2.208-4.645 4.845-4.645 11.49 0 3.32 2.705 6.021 6.031 6.021s6.031-2.7 6.031-6.021-2.704-6.021-6.03-6.021zm0 8.029a2.012 2.012 0 01-2.011-2.007 2.011 2.011 0 014.022 0 2.014 2.014 0 01-2.011 2.007zm24-14.017a2 2 0 10.001 4.001 2 2 0 00-.001-4.001z" fill-rule="evenodd" clip-rule="evenodd" fill="#fff"/></svg>