<svg xmlns="http://www.w3.org/2000/svg" width="63.981" height="44.035"><path d="M51.991 2.035c-6 0-6 4-10 4s-4-4-10-4-6 4-10 4-4-4-10-4-10 5.999-10 5.999l10 34h40l10-34s-4-5.999-10-5.999z" fill="#ffa79c"/><path d="M62.537.067a1.948 1.948 0 00-2.386 1.394l-9.706 38.574H13.536L3.83 1.461A1.947 1.947 0 001.444.067 1.974 1.974 0 00.067 2.48L10.15 42.552a1.944 1.944 0 001.841 1.451v.032h40v-.032a1.946 1.946 0 001.841-1.451L63.915 2.48A1.975 1.975 0 0062.537.067z" fill-rule="evenodd" clip-rule="evenodd" fill="#ed7161"/><path d="M23.991 14.003c-3.293 0-5.97 2.7-5.97 6.021s2.677 6.021 5.97 6.021c.294 0 .581-.028.863-.07-.565.982-1.324 1.708-2.237 2.629-.004.005-.006.012-.011.017A2 2 0 0022 30.059a2 2 0 001.989 2.007c.43 0 .826-.141 1.151-.375.081-.053.157-.111.222-.177 2.189-2.209 4.597-4.846 4.597-11.49 0-3.321-2.677-6.021-5.968-6.021zm0 8.028a2 2 0 01-1.99-2.008 2 2 0 011.99-2.006 2 2 0 011.989 2.006 2 2 0 01-1.989 2.008zm14-7.997a6 6 0 00-6 6v6.001a6 6 0 0012 0v-6.001a6 6 0 00-6-6zm2 6.001v6a2 2 0 01-4 0v-6.001c0-1.104.896-2.001 2-2.001s2 .897 2 2.002zm8-6a2 2 0 10.001 4.001 2 2 0 00-.001-4.001z" fill-rule="evenodd" clip-rule="evenodd" fill="#fff"/></svg>