<svg xmlns="http://www.w3.org/2000/svg" width="60" height="63.999"><path d="M33.563 7.948c1.04.28 2.109-.34 2.388-1.386a1.959 1.959 0 00-1.379-2.398L10 0S0 5.999 0 15.999l16 10s-.002-13.393-3.291-21.546l20.854 3.495zM44 36c-2 0-2.586.585-4 1.999C36 41.999 30 54 30 54h22s2-12 2-14.001c0-2-8-3.999-10-3.999z" fill-rule="evenodd" clip-rule="evenodd" fill="#88c057"/><path d="M29.955 2.868l-4.993-.898c-1.379-.247-2.702.706-2.956 2.132-.254 1.425.658 2.781 2.038 3.029l4.993.897c1.379.248 2.703-.706 2.956-2.131.254-1.425-.658-2.782-2.038-3.029z" fill="#999"/><path d="M58 43.999c-2 0-8 4.001-24 4.001-2 0-8.619-8.584-14-18.001-8-14-17.013-14-18-14-2 0-2 0-2 2 0 2.001 6 16 6 44a2 2 0 002 2h24c14 0 20-4 26-7.999 2-8 2-10.001 2-10.001 0-2 0-2-2-2z" fill="#a67c52"/></svg>