<svg xmlns="http://www.w3.org/2000/svg" width="64.001" height="28"><path d="M62.001 18h-60v8c0 2 0 2 2 2h12c2 0 1.999 0 1.999-2 4.001 0 10 2 18 2 16.001 0 28.001-6 28.001-8s-2-2-2-2z" fill="#333"/><path d="M48.001 12c-2 0-6 0-10-2S28 0 26.001 0c-2 0-2 6-10 6-6.001 0-10-2-12-2S0 10 0 14c0 6 2.001 8 2.001 8H18c8 0 10 2 22.001 2h6c10 0 18-4.326 18-6 0-6.062-13.334-6-16-6z" fill="#4d4d4d"/><path d="M48.001 12c-2 0-6 0-10-2 0 2-2 6-6.001 6-5.999 0-13.999 0-13.999 6 7.999 0 9.999 2 22 2 4-5.999 14-4 14-8s-6-4-6-4z" fill="#e6e1e1"/></svg>