<svg xmlns="http://www.w3.org/2000/svg" width="64" height="52"><path d="M32 0C8 0 4 28.001 4 36.001h56C60 28.001 56 0 32 0z" fill="#88c057"/><path d="M56 36.001V52h4V36.001h-4zM48 52h4V36.001h-4V52zm-8 0h4V36.001h-4V52zm-8 0h4V36.001h-4V52zm-8 0h4V36.001h-4V52zm-8 0h4V36.001h-4V52zm-8 0h4V36.001H8V52zM0 40v8.001A4 4 0 004 52V36.001A4 4 0 000 40z" fill-rule="evenodd" clip-rule="evenodd" fill="#638c3f"/><path d="M4 52h4V36.001H4V52zm8 0h4V36.001h-4V52zm8 0h4V36.001h-4V52zm8 0h4V36.001h-4V52zm8 0h4V36.001h-4V52zm8 0h4V36.001h-4V52zm8 0h4V36.001h-4V52zm8-15.999V52a4 4 0 004-3.999V40a4 4 0 00-4-3.999z" fill-rule="evenodd" clip-rule="evenodd" fill="#75a64b"/></svg>