<svg xmlns="http://www.w3.org/2000/svg" width="52" height="64"><path d="M0 54.001C0 55.5 1.604 56 3.999 56 5.479 56 6 55.087 6 54.001V50l-6 2v2.001zM46 50v4.001c0 1.086.521 1.999 2 1.999 2.396 0 4-.5 4-1.999V52l-6-2z" fill-rule="evenodd" clip-rule="evenodd" fill="#d66399"/><path d="M26 0c-4.001 0-6.001 0-8 2v6h16V2c-2-2-4-2-8-2z" fill="#a64c76"/><path d="M44 6.001C42 4.001 34 2 34 2v6H18V2S10 4.001 8 6C5.999 8 0 27.334 0 32v20s6-.55 6-2c0-4.195 1.447-15.954 2-18 .777-2.877 4-7.999 4-7.999 0 20-4 30-4 34 0 1.896 4.207 5.582 16 5.962h4c11.793-.38 16-4.066 16-5.962 0-4-4-14-4-34 0 0 3.222 5.122 3.999 7.999C44.553 34.046 46 45.805 46 50c0 1.45 6 2 6 2V32c0-4.666-6-23.999-8-25.999z" fill="#f06eaa"/><path fill="#ff8fc3" d="M24 8h4v56h-4z"/><path d="M18 2l-2 2c0 8 0 10 2 10 1.999 0 7.999-6 7.999-6s-4 0-7.999-6zm16 0c-4 6-8.001 6-8.001 6S32 14 34 14s2-2 2-10l-2-2z" fill-rule="evenodd" clip-rule="evenodd" fill="#ff8fc3"/></svg>