<svg xmlns="http://www.w3.org/2000/svg" width="60" height="64"><path d="M58 30c-2-10-6-22-8-22l-6-2H16l-6 2C8 8 4 20 2 30S0 60 0 62s6 2 8 2 2-14 2-20 4-18 4-18v12c0 4-2 14-2 22h36c0-8-2-18-2-22V26s4 12 4 18 0 20 2 20 8 0 8-2 0-22-2-32z" fill="#75a64b"/><path fill="#638c3f" d="M34 16L24 60h4l10-44z"/><path d="M46 56s-4 2-16 2-16-2-16-2c-2 0-2 2-2 4s4 4 18 4 18-2 18-4 0-4-2-4z" fill="#d9b898"/><path d="M18 40c-1 0-2 7-2 8s3 2 4 2 2-7 2-8c.001-1-3-2-4-2zm24 0c-1 0-4.001 1-4 2 0 1 1 8 1.999 8C41 50 44 49 44 48s-1-8-2-8z" fill-rule="evenodd" clip-rule="evenodd" fill="#88c057"/><path d="M30 0c-8 0-10 0-14 6 0 12 4 16 4 16s4-2 10-4c6 2 8 4 8 4s6-4 6-16c-4-6-6-6-14-6z" fill="#d9b898"/><path d="M30 4c-6 0-6 2-6 2 0 4 6 12 6 12s6-8 6-12c0 0 0-2-6-2z" fill="#638c3f"/></svg>