<svg xmlns="http://www.w3.org/2000/svg" width="36" height="64"><path d="M32 16c.006-2.705 4-10.904 4-11.999C36 2.905 31.095 0 30 0c0 0-2.57 20-12 20C8.569 20 6 0 6 0 4.904 0 0 2.905 0 4.001 0 5.096 3.993 13.295 4 16c.013 5.443-4 6.48-4 8.001 0 2.273 4 7.999 4 14 0 6-4 16-4 20C0 60.001 4.021 64 18 64s18-3.999 18-5.999c0-4-4-14-4-20 0-6.001 4-11.727 4-14 0-1.521-4.014-2.558-4-8.001z" fill="#fc6"/><path d="M18 8C12.144 8 7.095 0 6 0c0 0 2.569 20 12 20 9.43 0 12-20 12-20-1.096 0-6.145 8-12 8z" fill="#cca352"/></svg>