<svg xmlns="http://www.w3.org/2000/svg" width="60" height="64"><path d="M58 30c-2-10-6-22-8-22L38 4H22L10 8C8 8 4 20 2 30S0 60 0 62s6 2 8 2 2-14 2-20 4-18 4-18c2 6 2 8 2 10 0 4-4 16-4 24 0 0 4 2 10 2 4 0 8-4 8-8 0 4 4 8 8 8 6 0 10-2 10-2 0-8-4-20-4-24 0-2 0-4 2-10 0 0 4 12 4 18s0 20 2 20 8 0 8-2 0-22-2-32z" fill-rule="evenodd" clip-rule="evenodd" fill="#999"/><path d="M16 46c-1-.001-2 3-2 4s7 2 8 2 2-3 1.999-4.001C23.999 47 17 46 16 46zm28 0c-1 0-8 1-8 1.999C36 49 37 52 38 52s8-1 8-2-1-4.001-2-4z" fill-rule="evenodd" clip-rule="evenodd" fill="#b3b3b3"/><path d="M42 6c-4-6-4-6-12-6s-8 0-12 6l4 2-4 4c0 6 12 24 12 24s12-18 12-24l-4-4 4-2z" fill="#b3b3b3"/><path d="M30 4c-6 0-6 2-6 2 0 10 6 28 6 28s6-18 6-28c0 0 0-2-6-2z" fill="#666"/></svg>