<svg xmlns="http://www.w3.org/2000/svg" width="64" height="64"><path d="M58 0a6 6 0 100 12 6 6 0 000-12zm0 8.021a2.021 2.021 0 110-4.042 2.021 2.021 0 010 4.042z" fill-rule="evenodd" clip-rule="evenodd" fill="#eda096"/><path d="M56 20.68V20a4 4 0 00-4-4c-.046 0-.088.012-.134.014a4.158 4.158 0 00-2.385.599l-11.318 6.856c-2.084 1.264-2.798 4.059-1.595 6.246 1.203 2.186 3.868 2.935 5.951 1.673L48 28.067V60a4 4 0 008 0V20.922c.006-.08-.002-.161 0-.242zM32 20c0-.021-.006-.041-.006-.063a3.821 3.821 0 00-3.138-3.841A4.024 4.024 0 0028 16H4a4 4 0 000 8h14.599l-9.446 9.446a3.841 3.841 0 000 5.432 3.819 3.819 0 002.852 1.111L12 40h4a8 8 0 110 16 8 8 0 01-8-8 4 4 0 00-8 0c0 8.837 7.164 16 16 16s16-7.163 16-16c0-7.184-4.735-13.262-11.255-15.284l9.29-9.291A3.98 3.98 0 0032 20z" fill-rule="evenodd" clip-rule="evenodd" fill="#ed7161"/></svg>