<svg xmlns="http://www.w3.org/2000/svg" width="63.985" height="65.999"><path d="M42.018 1.999L42.011 2a8 8 0 00.007 16c1.104 0 2-3.582 2-8.001 0-4.418-.896-8-2-8z" fill-rule="evenodd" clip-rule="evenodd" fill="#ccc"/><path d="M31.986 7.999a4 4 0 00-4 4V62a4 4 0 008 0V11.999a4 4 0 00-4-4z" fill="#48a0dc"/><path fill="#999" d="M6.018 8h48v4h-48z"/><path d="M56.003 2.005c-4.416.007-8.001 3.585-8.007 7.993-.007 4.407 3.566 7.976 7.982 7.969 4.415-.007 8-3.586 8.007-7.993.007-4.409-3.567-7.976-7.982-7.969zM7.991 1.999C3.564 1.986-.014 5.551 0 9.963s3.612 7.999 8.04 8.013c4.427.013 8.005-3.553 7.991-7.964-.013-4.412-3.612-7.999-8.04-8.013z" fill="#999"/><path d="M22.018 1.999c-1.105 0-2 3.582-2 8 0 4.419.895 8.001 2 8.001a8 8 0 000-16.001z" fill-rule="evenodd" clip-rule="evenodd" fill="#666"/></svg>