<svg xmlns="http://www.w3.org/2000/svg" width="48" height="63.999"><path d="M24 40a4 4 0 00-4 4v15.999a4 4 0 108 0V44a4 4 0 00-4-4z" fill="#666"/><path d="M36 56H12a4 4 0 100 7.999h24A4 4 0 1036 56z" fill="#ccc"/><circle cx="24" cy="24" r="24" fill="#ccc"/><circle cx="24" cy="24" r="20" fill="#fff"/><path d="M25.421 22.566l-9.988-9.988a2.018 2.018 0 00-2.854 2.854l9.989 9.988a2.018 2.018 0 102.853-2.854z" fill="#cecece"/><path d="M33.694 34.98l-7.539-12.004c-.595-.947-1.938-1.258-3.002-.693s-1.442 1.789-.848 2.735l7.539 12.004c.595.947 1.938 1.258 3.002.693 1.063-.563 1.443-1.787.848-2.735z" fill="#cecece"/><path d="M37.749 15.094c-.565-1.074-1.795-1.458-2.746-.856l-12.048 7.617c-.951.601-1.263 1.959-.696 3.033.565 1.074 1.795 1.457 2.746.856l12.048-7.617c.951-.602 1.262-1.959.696-3.033z" fill="#ed7161"/><circle cx="24" cy="24" r="4" fill="#666"/></svg>