<svg xmlns="http://www.w3.org/2000/svg" width="56" height="64"><path d="M52 44c-2.21 0-4 1.79-4 4a8 8 0 01-16 0V16a8 8 0 1116 0 4 4 0 108 0c0-8.837-7.164-16-16-16-8.83 0-15.987 7.151-15.999 15.979l-.002.021v32l.002.02C24.012 56.846 31.169 64 40 64c8.836 0 16-7.164 16-16a4 4 0 00-4-4z" fill-rule="evenodd" clip-rule="evenodd" fill="#ed7161"/><path d="M10 0C4.477 0 0 4.477 0 10c0 5.522 4.477 10 10 10 5.522 0 10-4.478 10-10 0-5.523-4.478-10-10-10zm0 14a4 4 0 110-8 4 4 0 010 8z" fill-rule="evenodd" clip-rule="evenodd" fill="#eda096"/></svg>