<svg xmlns="http://www.w3.org/2000/svg" width="64" height="63.987"><path d="M60 0H4a4 4 0 00-4 3.999v55.988a4 4 0 004 4h56a4 4 0 004-4V3.999A4 4 0 0060 0z" fill="#fc6"/><path d="M21 7.998c-.225 0-.447.013-.666.033A2.16 2.16 0 0020 7.998h-4a2 2 0 00-2 1.999v15.997a2 2 0 002 2h4c.133 0 .262-.015.388-.039.203.018.405.039.612.039a7 7 0 007-6.999v-5.998a7 7 0 00-7-6.999zm3 12.997a2.997 2.997 0 01-2.935 2.993L20 23.989v.006h-2V11.994l2.867-.005c.044.002.088.008.133.008a3 3 0 013 3v5.998zM48 7.998a2 2 0 00-2 1.999v10.998a3.001 3.001 0 01-6 0V9.997a2 2 0 00-4 0v10.998a7 7 0 0014 0V9.997a2 2 0 00-2-1.999zM20 41.991c-2.209 0-4-.895-4-2 0-1.104 1.791-2 4-2s4 .896 4 2a2 2 0 004 0c0-3.313-3.582-5.998-8-5.998s-8 2.686-8 5.998c0 3.313 3.582 5.999 8 5.999 2.209 0 4 .896 4 2s-1.791 1.999-4 1.999-4-.896-4-1.999a2 2 0 00-4 0c0 3.313 3.581 5.999 8 5.999 4.418 0 8-2.687 8-5.999 0-3.313-3.582-5.999-8-5.999zm28-7.998h-8a2 2 0 100 3.999h2v13.997a2 2 0 004 0V37.992h2a2 2 0 000-3.999z" fill-rule="evenodd" clip-rule="evenodd" fill="#fff"/></svg>