<svg xmlns="http://www.w3.org/2000/svg" width="64" height="45.991"><path d="M63.496 30.68c-1.527-1.723-3.58-2.67-5.779-2.67h-.002c-2.199 0-4.254.947-5.783 2.668-.76.857-1.752 1.328-2.791 1.328h-.002c-1.037-.001-2.025-.471-2.783-1.328-1.531-1.721-3.584-2.668-5.783-2.668h-.002c-2.197 0-4.25.947-5.779 2.668-.76.857-1.752 1.328-2.791 1.328s-2.029-.471-2.789-1.328c-1.53-1.721-3.583-2.668-5.782-2.668s-4.252.947-5.782 2.67c-1.52 1.711-4.059 1.712-5.578-.002-1.53-1.721-3.583-2.668-5.782-2.668s-4.252.947-5.782 2.668a1.998 1.998 0 00.168 2.821 2.006 2.006 0 002.824-.167c1.52-1.711 4.061-1.711 5.58-.002 1.53 1.722 3.583 2.672 5.781 2.672s4.251-.95 5.781-2.67c1.52-1.711 4.061-1.711 5.58-.002 1.529 1.722 3.582 2.67 5.78 2.672 2.199-.002 4.252-.95 5.783-2.67 1.52-1.711 4.063-1.709 5.578-.003 1.527 1.721 3.578 2.671 5.775 2.673h.004c2.199-.002 4.252-.947 5.783-2.67.76-.855 1.75-1.327 2.791-1.327 1.039 0 2.029.472 2.789 1.325a2.004 2.004 0 002.822.169 1.992 1.992 0 00.171-2.819zm-12.787 9.988c-.713.855-1.645 1.328-2.62 1.328h-.002c-.974-.002-1.901-.473-2.612-1.328-1.438-1.723-3.364-2.671-5.429-2.671h-.001c-2.063.002-3.99.95-5.426 2.671-.713.855-1.645 1.328-2.619 1.328-.976-.002-1.905-.473-2.618-1.328-1.437-1.721-3.363-2.671-5.428-2.671s-3.991.95-5.428 2.671c-1.427 1.713-3.81 1.713-5.235 0-.689-.826-1.876-.901-2.65-.168-.775.731-.848 1.996-.159 2.82 1.437 1.721 3.364 2.671 5.427 2.671 2.063 0 3.99-.95 5.427-2.671 1.427-1.713 3.812-1.713 5.238 0 1.436 1.721 3.362 2.67 5.426 2.671 2.064-.001 3.991-.95 5.428-2.671 1.427-1.713 3.813-1.711 5.236-.001 1.434 1.72 3.358 2.671 5.422 2.672h.003c2.064 0 3.991-.948 5.429-2.671.688-.824.618-2.087-.158-2.82-.776-.732-1.96-.659-2.651.168z" fill-rule="evenodd" clip-rule="evenodd" fill="#54bbff"/><path d="M39.41 10.584a2.09 2.09 0 00-2.944 0l-2.427 2.408V2c0-1.104-.898-2-2.008-2a2.005 2.005 0 00-2.008 2v11.088l-2.501-2.499c-.81-.809-2.122-.809-2.932 0s-.81 2.122 0 2.93l5.864 5.86c.325.325.733.51 1.156.572a2.003 2.003 0 001.855-.558c.018-.016.038-.025.056-.042l5.889-5.845a2.055 2.055 0 000-2.922z" fill-rule="evenodd" clip-rule="evenodd" fill="#88c057"/></svg>