<svg xmlns="http://www.w3.org/2000/svg" width="64" height="45.994"><path d="M63.496 30.683c-1.527-1.723-3.58-2.67-5.779-2.67h-.002c-2.199 0-4.254.947-5.783 2.668-.76.857-1.752 1.328-2.791 1.328h-.002c-1.037-.001-2.025-.471-2.783-1.328-1.531-1.721-3.584-2.668-5.783-2.668h-.002c-2.197 0-4.25.947-5.779 2.668-.76.857-1.753 1.328-2.791 1.328-1.039 0-2.029-.471-2.789-1.328-1.531-1.721-3.583-2.668-5.782-2.668-2.2 0-4.252.947-5.782 2.67-1.52 1.711-4.059 1.712-5.578-.002-1.531-1.721-3.583-2.668-5.783-2.668-2.198 0-4.251.947-5.781 2.668a1.998 1.998 0 00.168 2.821 2.006 2.006 0 002.824-.167c1.52-1.711 4.061-1.711 5.58-.002 1.53 1.722 3.583 2.672 5.781 2.672s4.251-.95 5.781-2.67c1.52-1.711 4.061-1.711 5.58-.002 1.529 1.722 3.582 2.67 5.78 2.672 2.199-.002 4.252-.95 5.783-2.67 1.52-1.711 4.063-1.709 5.578-.003 1.527 1.721 3.578 2.671 5.775 2.673h.004c2.199-.002 4.252-.947 5.783-2.67.76-.855 1.75-1.327 2.791-1.327 1.039 0 2.029.472 2.789 1.325a2.004 2.004 0 002.822.169 1.992 1.992 0 00.171-2.819zm-12.787 9.988c-.713.855-1.645 1.328-2.62 1.328h-.002c-.974-.002-1.901-.473-2.612-1.328C44.037 38.948 42.11 38 40.046 38h-.002c-2.063.002-3.989.95-5.425 2.671-.713.855-1.645 1.328-2.619 1.328-.976-.002-1.905-.473-2.618-1.328C27.945 38.95 26.019 38 23.954 38s-3.991.95-5.428 2.671c-1.427 1.713-3.81 1.713-5.236 0-.688-.826-1.875-.901-2.649-.168-.775.731-.848 1.996-.159 2.82 1.437 1.721 3.363 2.671 5.427 2.671s3.99-.95 5.427-2.671c1.427-1.713 3.812-1.713 5.238 0 1.436 1.721 3.362 2.67 5.426 2.671 2.064-.001 3.99-.95 5.428-2.671 1.427-1.713 3.813-1.711 5.236-.001 1.434 1.72 3.358 2.671 5.421 2.672h.004c2.064 0 3.991-.948 5.429-2.671.688-.824.617-2.087-.158-2.82-.776-.732-1.96-.659-2.651.168z" fill-rule="evenodd" clip-rule="evenodd" fill="#54bbff"/><path d="M39.411 6.479L33.57.619a2.028 2.028 0 00-1.151-.572 1.992 1.992 0 00-1.849.557c-.018.017-.038.025-.055.042L24.649 6.49a2.062 2.062 0 000 2.923 2.079 2.079 0 002.934 0L30 7.005v10.992a2 2 0 004 0V6.91l2.49 2.498c.807.809 2.114.809 2.921 0s.807-2.122 0-2.929z" fill-rule="evenodd" clip-rule="evenodd" fill="#ed7161"/></svg>