<svg xmlns="http://www.w3.org/2000/svg" width="64.031" height="64.021"><path d="M32.046 6.054L8.059 30.019v12.237c1.537.36 2.943 1.202 4.066 2.465.754.85 1.759 1.275 2.765 1.281h.045c1.007-.006 2.012-.432 2.765-1.28 1.53-1.721 3.581-2.668 5.78-2.668 2.198 0 4.25.947 5.779 2.667.699.788 1.597 1.231 2.544 1.3h.482c.95-.067 1.851-.511 2.551-1.3 1.529-1.72 3.58-2.667 5.777-2.667h.001c2.198 0 4.25.946 5.78 2.667.738.833 1.694 1.293 2.701 1.318h.164c1.009-.024 1.97-.485 2.709-1.318 1.123-1.263 2.529-2.104 4.067-2.465V30.019L32.046 6.054zM15.963 64.021c.272 0 .542-.019.81-.052h-1.619c.266.033.536.052.809.052zm16.082 0c.273 0 .542-.02.808-.052h-1.614c.266.032.535.052.806.052zm16.079 0h.004c.273 0 .543-.019.81-.052h-1.619c.265.032.534.052.805.052z" fill-rule="evenodd" clip-rule="evenodd" fill="#ccc"/><path d="M63.526 48.715c-1.525-1.721-3.578-2.668-5.775-2.668h-.003c-2.197 0-4.251.947-5.78 2.667-.759.856-1.751 1.327-2.79 1.327h-.002c-1.037-.001-2.024-.471-2.782-1.327-1.53-1.721-3.582-2.667-5.78-2.667h-.001c-2.197 0-4.248.947-5.777 2.667-.759.856-1.751 1.327-2.79 1.327s-2.028-.471-2.788-1.327c-1.53-1.72-3.581-2.667-5.779-2.667-2.199 0-4.25.947-5.78 2.668-1.519 1.711-4.056 1.712-5.575-.001-1.53-1.72-3.581-2.667-5.779-2.667s-4.25.947-5.78 2.667a1.996 1.996 0 00.168 2.819c.828.732 2.09.655 2.823-.167 1.519-1.71 4.058-1.71 5.577-.001 1.529 1.721 3.581 2.67 5.778 2.67s4.249-.949 5.778-2.669c1.519-1.71 4.059-1.71 5.578-.001 1.528 1.721 3.58 2.668 5.777 2.67h.001c2.198-.002 4.25-.949 5.78-2.669 1.519-1.71 4.061-1.708 5.576-.002 1.526 1.72 3.576 2.669 5.772 2.671h.004c2.198-.002 4.25-.947 5.78-2.669.76-.855 1.749-1.326 2.789-1.326 1.039 0 2.029.471 2.788 1.325a2.003 2.003 0 002.821.168 1.99 1.99 0 00.171-2.818zm-12.779 9.983c-.713.856-1.644 1.328-2.619 1.328h-.002c-.973-.002-1.9-.472-2.611-1.328-1.437-1.722-3.362-2.669-5.426-2.669h-.001c-2.062.002-3.988.949-5.422 2.669-.713.856-1.644 1.328-2.619 1.328-.975-.002-1.904-.472-2.617-1.328-1.436-1.72-3.362-2.669-5.425-2.669-2.063 0-3.99.949-5.425 2.669-1.426 1.713-3.808 1.713-5.234 0-.689-.824-1.875-.9-2.649-.167-.775.73-.847 1.994-.158 2.819 1.436 1.72 3.361 2.67 5.424 2.67s3.988-.95 5.424-2.67c1.426-1.712 3.81-1.712 5.236 0 1.435 1.72 3.36 2.668 5.423 2.67h.001c2.063-.002 3.989-.95 5.426-2.67 1.426-1.712 3.812-1.71 5.233-.002 1.433 1.72 3.357 2.67 5.418 2.672h.004c2.063 0 3.989-.948 5.426-2.67.687-.825.617-2.087-.157-2.819-.776-.731-1.96-.659-2.65.167z" fill-rule="evenodd" clip-rule="evenodd" fill="#54bbff"/><path d="M18.053 4.118h-3.998a1.998 1.998 0 00-1.999 1.996v11.98c0 1.103.895 1.997 1.999 1.997h3.998a2 2 0 002-1.997V6.114a1.998 1.998 0 00-2-1.996z" fill="#4d4d4d"/><path d="M62.884 29.329L35.521 1.993c-.17-.3-.368-.589-.624-.845a3.922 3.922 0 00-4.322-.824c-.502.19-.975.48-1.38.885a3.902 3.902 0 00-.407.498L1.149 29.318c-1.533 1.53-1.533 4.013 0 5.544s4.018 1.531 5.55 0L32.021 9.565l25.323 25.299c1.529 1.528 4.01 1.528 5.54 0s1.53-4.007 0-5.535z" fill-rule="evenodd" clip-rule="evenodd" fill="#a67c52"/></svg>