<svg xmlns="http://www.w3.org/2000/svg" width="64" height="55.991"><path d="M63.496 38.666c-1.527-1.724-3.58-2.673-5.779-2.673h-.002c-2.199 0-4.254.949-5.783 2.672-.76.856-1.752 1.328-2.791 1.328h-.002c-1.037-.001-2.025-.472-2.783-1.328-1.531-1.724-3.584-2.672-5.783-2.672h-.002c-2.197 0-4.25.949-5.779 2.672-.76.856-1.752 1.328-2.791 1.328s-2.029-.472-2.789-1.328c-1.53-1.723-3.583-2.672-5.782-2.672s-4.252.949-5.782 2.673c-1.52 1.712-4.059 1.714-5.578-.001-1.53-1.723-3.583-2.672-5.782-2.672s-4.252.949-5.782 2.672a2 2 0 002.992 2.656c1.52-1.714 4.061-1.713 5.58-.002 1.53 1.724 3.583 2.675 5.781 2.675s4.251-.951 5.781-2.673c1.52-1.714 4.061-1.713 5.58-.002 1.529 1.724 3.582 2.673 5.78 2.675 2.199-.002 4.252-.951 5.783-2.673 1.52-1.714 4.063-1.712 5.578-.003 1.527 1.722 3.578 2.674 5.775 2.676h.004c2.199-.002 4.252-.949 5.783-2.673.76-.857 1.75-1.329 2.791-1.329 1.039 0 2.029.472 2.789 1.327a2.002 2.002 0 002.822.169 1.996 1.996 0 00.171-2.822z" fill="#ccc"/><path d="M63.496 50.663c-1.527-1.723-3.58-2.672-5.779-2.672h-.002c-2.199 0-4.254.949-5.783 2.671-.76.857-1.752 1.329-2.791 1.329h-.002c-1.037-.001-2.025-.472-2.783-1.329-1.531-1.724-3.584-2.671-5.783-2.671h-.002c-2.197 0-4.25.949-5.779 2.671-.76.857-1.752 1.329-2.791 1.329s-2.029-.472-2.789-1.329c-1.53-1.722-3.583-2.671-5.782-2.671s-4.252.949-5.782 2.672c-1.52 1.713-4.059 1.714-5.578-.001-1.53-1.722-3.583-2.671-5.782-2.671s-4.252.949-5.782 2.671a2.002 2.002 0 00.168 2.824 2.004 2.004 0 002.824-.168c1.52-1.713 4.061-1.712 5.58-.001 1.53 1.723 3.583 2.674 5.781 2.674s4.251-.951 5.781-2.673c1.52-1.713 4.061-1.712 5.58-.001 1.529 1.723 3.582 2.672 5.78 2.674 2.199-.002 4.252-.951 5.783-2.673 1.52-1.713 4.063-1.711 5.578-.002 1.527 1.722 3.578 2.673 5.775 2.675h.004c2.199-.002 4.252-.949 5.783-2.673.76-.856 1.75-1.328 2.791-1.328 1.039 0 2.029.472 2.789 1.327a2.002 2.002 0 002.822.169 1.997 1.997 0 00.171-2.823z" fill="#999"/><path d="M63.496 14.671c-1.527-1.724-3.58-2.673-5.779-2.673h-.002c-2.199 0-4.254.949-5.783 2.672-.76.856-1.752 1.328-2.791 1.328h-.002c-1.037-.001-2.025-.472-2.783-1.328-1.531-1.724-3.584-2.672-5.783-2.672h-.002c-2.197 0-4.25.949-5.779 2.672-.76.856-1.752 1.328-2.791 1.328s-2.029-.472-2.789-1.328c-1.53-1.723-3.583-2.672-5.782-2.672s-4.252.949-5.782 2.673c-1.52 1.712-4.059 1.713-5.578-.001-1.53-1.723-3.583-2.672-5.782-2.672s-4.252.949-5.782 2.672a2 2 0 002.992 2.655c1.52-1.713 4.061-1.712 5.58-.001 1.53 1.724 3.583 2.675 5.781 2.675s4.251-.951 5.781-2.674c1.52-1.713 4.061-1.712 5.58-.001 1.529 1.724 3.582 2.673 5.78 2.675 2.199-.002 4.252-.951 5.783-2.674 1.52-1.713 4.063-1.711 5.578-.002 1.527 1.723 3.578 2.674 5.775 2.676h.004c2.199-.002 4.252-.949 5.783-2.674.76-.856 1.75-1.328 2.791-1.328 1.039 0 2.029.472 2.789 1.327a2.002 2.002 0 002.822.169 1.996 1.996 0 00.171-2.822z" fill="#ccc"/><path d="M63.496 2.673C61.969.949 59.916 0 57.717 0h-.002c-2.199 0-4.254.949-5.783 2.672-.76.857-1.752 1.329-2.791 1.329h-.002c-1.037-.002-2.025-.472-2.783-1.329C44.824.948 42.771 0 40.572 0h-.002c-2.197 0-4.25.949-5.779 2.672-.76.857-1.752 1.329-2.791 1.329s-2.029-.472-2.789-1.329C27.681.949 25.628 0 23.429 0s-4.252.949-5.782 2.673c-1.52 1.713-4.059 1.714-5.578-.001C10.538.949 8.485 0 6.286 0S2.034.949.504 2.672a2 2 0 002.992 2.655c1.52-1.712 4.061-1.711 5.58-.001 1.53 1.724 3.583 2.675 5.781 2.675s4.251-.951 5.781-2.674c1.52-1.712 4.061-1.711 5.58-.001 1.529 1.724 3.582 2.673 5.78 2.675H32c2.199-.002 4.252-.951 5.783-2.674 1.52-1.712 4.063-1.71 5.578-.002 1.527 1.723 3.578 2.674 5.775 2.676h.004c2.199-.002 4.252-.949 5.783-2.674.76-.855 1.75-1.328 2.791-1.328 1.039 0 2.029.473 2.789 1.327a2.002 2.002 0 002.822.169 1.996 1.996 0 00.171-2.822zm0 23.996c-1.527-1.725-3.58-2.673-5.779-2.673h-.002c-2.199 0-4.254.948-5.783 2.671-.76.857-1.752 1.329-2.791 1.329h-.002c-1.037-.001-2.025-.472-2.783-1.329-1.531-1.723-3.584-2.671-5.783-2.671h-.002c-2.197 0-4.25.948-5.779 2.671-.76.857-1.752 1.329-2.791 1.329s-2.029-.472-2.789-1.329c-1.53-1.723-3.583-2.671-5.782-2.671s-4.252.948-5.782 2.673c-1.52 1.712-4.059 1.713-5.578-.002-1.53-1.723-3.583-2.671-5.782-2.671s-4.252.948-5.782 2.671a2.002 2.002 0 00.168 2.824 2.004 2.004 0 002.824-.168c1.52-1.713 4.061-1.712 5.58-.001 1.53 1.723 3.583 2.674 5.781 2.674s4.251-.951 5.781-2.673c1.52-1.713 4.061-1.712 5.58-.001 1.529 1.723 3.582 2.672 5.78 2.674 2.199-.002 4.252-.951 5.783-2.673 1.52-1.713 4.063-1.711 5.578-.002 1.527 1.722 3.578 2.673 5.775 2.675h.004c2.199-.002 4.252-.949 5.783-2.673.76-.857 1.75-1.328 2.791-1.328 1.039 0 2.029.471 2.789 1.327a2.002 2.002 0 002.822.169 1.996 1.996 0 00.171-2.822z" fill="#999"/></svg>