<svg xmlns="http://www.w3.org/2000/svg" width="60.01" height="64.005"><path d="M59.959 31.584a29.851 29.851 0 00-3.973-16.579C47.702.656 29.354-4.26 15.005 4.025 5.389 9.576.018 19.647.009 30.005H.005v18a2 2 0 004 0v-3.036l.02.036a30.098 30.098 0 003.98 5.392v5.608a2 2 0 004 0V54.01c1.27.952 2.61 1.791 4 2.522v5.471a2 2 0 104 0v-3.724c7.98 2.818 17.096 2.269 25-2.295a29.857 29.857 0 0011-11.021v3.041a2 2 0 004 0v-16a2.01 2.01 0 00-.046-.42zm-1.954 22.421a2 2 0 10.001 4.001 2 2 0 00-.001-4.001z" fill-rule="evenodd" clip-rule="evenodd" fill="#48a0dc"/><path d="M17.33 19.724c.452-.312.886-.775 1.111-1.27.739-1.619 2.277-2.333 3.564-3.327v6.878a2 2 0 004 0V11.537c.375-.004.751-.006 1.127.008.916.032 1.104.293.955 1.191-.029.174.074.446.209.546.115.084.364-.019.555-.038l-.109-.608c-.081-.444-.238-.89-.223-1.33.018-.511-.063-.896-.448-1.273a3.226 3.226 0 01-.741-1.169c-.15-.413-.361-.581-.765-.523-.703.102-1.157-.199-1.398-.844-.188-.5-.563-.629-1.06-.658-.86-.053-1.221.617-1.34 1.182a3.085 3.085 0 01-.196.596c-.217.224-.375.5-.469.805-.478.643-1.097 1.175-1.567 1.818-.484.662-1.403.466-1.543-.33-.119-.683-.465-.988-1.048-1.201-.372-.136-.723-.34-1.071-.535-.953-.536-1.145-1.593-.329-2.299 1.197-1.037 2.524-1.768 4.232-1.434.325.064.949-.17 1.055-.425.423-1.017 1.38-1.429 2.117-2.072.549-.479 1.496-.354 2.01.108.624.563.484 1.105.055 1.717-.139.197-.211.677-.099.771.259.219.776.487.964.37.661-.409 1.235-.963 1.816-1.49.055-.05-.057-.308-.121-.456-.419-.955-1.215-1.379-2.18-1.648-1.076-.299-1.292-1.166-.371-1.786.184-.122.379-.229.576-.33a29.441 29.441 0 00-3.094.515c-.909.195-1.202.861-.822 1.689.224.486.302.998-.189 1.354-.496.36-.993.118-1.337-.261-.228-.252-.286-.655-.429-.986-.104-.241-.225-.475-.338-.712-.291.156-.792.266-.836.474-.233 1.096-1.184 1.27-1.959 1.668-.132.068-.417.078-.471.001-.095-.133-.119-.369-.076-.537.043-.169.089-.339.137-.512a29.91 29.91 0 00-2.18 1.134C8.009 8.064 3.264 14.497 1.189 21.689c.741 1.197 1.751 2.227 2.568 3.382.098.138.176.289.248.445v8.49a2 2 0 004 0v-4.999c.385.058.782.17 1.109.364 1.169.692 2.303 1.445 3.439 2.168.431-.944.342-1.18-.647-1.631-.657-.299-.896-.833-.764-1.539l.188-.987c-.378.312-.578.482-.784.646-.916.725-1.87.707-2.541.088V23.52c.062-.092.123-.185.188-.275 1.281-1.756 3.346-1.202 5.099-1.542.236-.046.531.12.775.236.283.135.541.324.909.55.141-1.547 1.33-2.06 2.354-2.765zm-2.843-6.252c.021-.206.482-.521.741-.521.475.002 1.072.13 1.063.764-.004.215-.463.422-.715.633-.582-.211-1.154-.23-1.089-.876zm45.445 14.374l-.074-.123c-.463-.788-.782-1.661-1.153-2.503-.11-.248-.245-.513-.251-.773-.006-.271.093-.754.212-.776.209-.038.459-.004.682.076a30.347 30.347 0 00-.607-2.354c-.223.307-.557.521-1.005.62a6.357 6.357 0 01-3.751-.281c-.571-.224-1.091-.284-1.613.133-.572.458-1.207.409-1.834.11-.293-.14-.554-.382-.858-.454-1.026-.245-1.677-.795-1.864-1.887-.033-.19-.46-.468-.68-.446-1.508.148-3.008.501-4.514.525-1.563.025-2.192 1.088-2.713 2.173a5.606 5.606 0 01-1.416 1.869c-1.147 1.007-1.75 2.254-1.62 3.833.048.583-.103 1.181-.121 1.772-.016.514-.16 1.151.08 1.521.365.56.765 1.098 1.175 1.629v7.496a2 2 0 004 0v-5.531a9.617 9.617 0 001.38-.241c1.095-.291 2.079-.554 2.983.379.13.134.344.197.53.264 1.366.483 1.486.605 1.438 2.041-.03.899.165 1.646.634 2.46.998 1.73 1.633 3.568.677 5.62-.248.531-.256 1.379-.003 1.9.623 1.288.828 2.644 1.114 4.011.043.206.102.408.16.611 6.406-6.22 9.635-14.948 9.012-23.674zM40.824 10.761c.466.116 1.092-.228 1.217.553.139.879.567 1.605 1.117 2.321.767 1.001.279 2.012-.967 2.238a5.622 5.622 0 01-.592.084c-1.042.077-1.083.138-1.217 1.183-.092.715.307 1.094.811 1.477.466.353.841.078 1.156-.149.324-.233.594-.586.798-.938.575-.994 1.237-1.958 2.353-2.299.962-.293 2.034-.694 2.963.045.41-.23.904-.529 1.253-.408.77.27 1.411.763 1.82 1.57.258.508.797.873 1.13 1.219.475-.439.762-.919 1.145-1.014.681-.168 1.423-.156 2.131-.106.254.018.607.325.689.574.078.239-.117.583-.232.863-.051.122-.206.199-.421.394.62.094 1.082.178 1.548.23.086.01.158.023.235.036a30.293 30.293 0 00-1.774-3.628 30.05 30.05 0 00-4.152-5.576 2.438 2.438 0 01-1.447.908c-.751.157-1.371.003-2.023-.246-.467-.178-.778-.053-1.199.265-.678.515-1.493.856-2.278 1.21-.18.082-.54-.006-.697-.147-.527-.475-1.012-1-1.489-1.526-.172-.19-.277-.44-.44-.707-.516.562-.961 1.05-1.438 1.574zm6.179-2.695c.552.083.945.219 1.159.761.217.554.558.42.849.083.408-.473.612-1.023.569-1.64a30.38 30.38 0 00-2.095-1.644c-.319.291-.658.562-.992.849-.245.209-.56.72-.473.86.208.331.614.675.983.731zm-7.854-3.987c.855-.325 1.719-.63 2.569-.965.284-.112.592-.209.875-.333A30.132 30.132 0 0030.697.01c.332.082.68.104 1.044.104 1.641-.001 2.143.715 1.866 2.332-.175 1.024-.19 2.085-.193 3.129-.001.624.384 1.074 1.002 1.262.57.174.856-.218 1.171-.593.749-.891 1.565-1.685 2.809-1.846.26-.035.498-.223.753-.319zm-6.787 35.447c-1.161-.222-2.138-.796-3.202-1.192-.951-.355-1.639-.916-1.879-1.955-.187-.811-.759-1.204-1.529-1.48a8.177 8.177 0 01-2.076-1.107c-.848-.627-1.594-1.352-2.793-1.135-.302.056-.738-.08-.97-.287-.76-.684-1.592-.748-2.297-.126-.664.586-1.998.867-1.361 2.318.139.314-.059.831-.215 1.207-.188.457-.483.874-.759 1.291-.869 1.305-.714 2.666-.119 3.98.493 1.088 1.111 2.125 1.739 3.144.262.424.635.848 1.061 1.09 1.493.849 2.293 2.027 2.125 3.795a8.444 8.444 0 000 1.5c.104 1.213.273 2.42.354 3.633.039.588-.054 1.188-.098 1.78-.015.196-.114.396-.088.582.089.638.185 1.275.302 1.909a30.37 30.37 0 003.274.887c.283-1.043.876-2.041 1.659-2.641.23-.176.423-.499.479-.785.127-.646.451-1.076 1.036-1.368.256-.127.541-.334.658-.577.449-.934 1.014-1.863 1.199-2.856.233-1.257.979-1.868 2.023-2.263 1.241-.468 1.726-.958 1.656-2.243-.089-1.621.383-2.981 1.41-4.212.371-.444.646-1.082.181-1.578-.502-.537-1.115-1.185-1.77-1.311zm7.643 6.479a2 2 0 100 4 2 2 0 000-4z" fill-rule="evenodd" clip-rule="evenodd" fill="#ccc"/></svg>