<svg xmlns="http://www.w3.org/2000/svg" width="66" height="64.001"><path d="M7.694 26.413C10.56 20.269 16.773 16.001 24 16.001c.975 0 1.924.099 2.855.248a22.129 22.129 0 011.717-1.928c-.062-.169-.114-.343-.183-.509.229-.4.517-.81.89-1.025.533-.308.95-.304 1.383-.278a22.08 22.08 0 013.068-1.964c.122-.551.099-1.127-.143-1.544-3.623 2.091-4.078-.244-5.996.863-.482.279-.768.661-.975 1.026-.518-.616-1.078-1.194-1.715-1.69-.004-.466.04-.975.26-1.354.712-1.234 1.71-.712 2.661-2.36.51-.883.08-2.552-.823-3.073-2.092 3.623-3.654 1.828-4.762 3.746-.277.481-.334.954-.331 1.374-.75-.279-1.523-.509-2.34-.624-.231-.397-.442-.853-.442-1.282 0-1.426 1.125-1.473 1.125-3.375C20.25 1.231 19.043 0 18 0c0 4.185-2.25 3.411-2.25 5.626 0 .534.176.956.377 1.313-.807.137-1.569.38-2.304.68-.403-.229-.819-.521-1.037-.897-.712-1.234.238-1.837-.713-3.485-.51-.884-2.17-1.347-3.073-.825 2.092 3.623-.244 4.078.863 5.996.279.483.663.769 1.029.977-.619.517-1.2 1.077-1.698 1.712-.465.004-.972-.04-1.35-.258-1.234-.713-.712-1.711-2.36-2.662-.883-.51-2.552-.08-3.073.824 3.623 2.091 1.828 3.653 3.746 4.76.477.275.943.333 1.361.332-.281.752-.513 1.529-.628 2.349-.394.228-.841.435-1.266.435-1.426 0-1.473-1.125-3.375-1.125C1.23 15.751 0 16.957 0 18c4.184 0 3.41 2.251 5.625 2.251.527 0 .944-.172 1.299-.369.137.808.384 1.571.686 2.307-.229.4-.516.81-.89 1.025-1.234.713-1.837-.238-3.485.713-.883.51-1.345 2.17-.823 3.074 3.129-1.807 3.896-.314 5.282-.588z" fill-rule="evenodd" clip-rule="evenodd" fill="#fc6"/><path d="M60.426 39.339A17.908 17.908 0 0062 32.001c0-9.941-8.06-18-18-18-6.609 0-12.369 3.572-15.5 8.881a11.961 11.961 0 00-4.5-.881c-5.236 0-9.676 3.358-11.315 8.034-.228-.013-.453-.034-.685-.034-6.628 0-12 5.372-12 12 0 6.627 5.372 12 12 12h44a8 8 0 004.426-14.662z" fill-rule="evenodd" clip-rule="evenodd" fill="#ccc"/><path d="M16 48.001h8a2 2 0 000-4h-8a2 2 0 000 4zm22 4H16a2 2 0 000 4h22a2 2 0 010 4 2 2 0 000 4 6 6 0 000-12zm8-16a2 2 0 000 4 2 2 0 010 4H32a2 2 0 000 4h14a6 6 0 000-12z" fill-rule="evenodd" clip-rule="evenodd" fill="#48a0dc"/></svg>