<svg xmlns="http://www.w3.org/2000/svg" width="76" height="77.75"><path d="M11.896 37.75c2.577-5.179 7.567-8.933 13.509-9.793A19.913 19.913 0 0123.75 20c0-1.9.282-3.732.777-5.474C16.146 16.909 10 24.604 10 33.75c0 1.374.16 2.707.43 4h1.466z" fill-rule="evenodd" clip-rule="evenodd" fill="#666"/><path d="M64.426 51.088A17.913 17.913 0 0066 43.749c0-9.94-8.059-17.999-18-17.999-6.608 0-12.369 3.572-15.5 8.88a11.965 11.965 0 00-4.5-.881c-5.236 0-9.676 3.359-11.315 8.035-.228-.013-.454-.034-.685-.034-6.628 0-12 5.372-12 11.999C4 60.377 9.372 65.75 16 65.75h44a8 8 0 008-8.001 7.989 7.989 0 00-3.574-6.661z" fill-rule="evenodd" clip-rule="evenodd" fill="#ccc"/><path d="M45.092 70.018l-5.327-3.268 5.327-3.268c.9-.553 1.209-1.775.689-2.732-.521-.957-1.672-1.284-2.572-.732L38 63.213V57.75a2 2 0 00-4 0v5.464l-5.21-3.196c-.9-.552-2.052-.225-2.571.732s-.211 2.18.689 2.732l5.327 3.268-5.327 3.268c-.9.553-1.209 1.775-.689 2.732s1.671 1.284 2.571.731L34 70.286v5.464a2 2 0 004 0v-5.464l5.209 3.195c.9.553 2.052.226 2.572-.731s.211-2.18-.689-2.732z" fill-rule="evenodd" clip-rule="evenodd" fill="#48a0dc"/></svg>