<svg xmlns="http://www.w3.org/2000/svg" width="70" height="64.001"><path d="M61.096 40.271a14.148 14.148 0 001.279-5.87c0-7.953-6.548-14.399-14.625-14.399-5.37 0-10.05 2.857-12.593 7.104a9.863 9.863 0 00-3.657-.704c-4.254 0-7.862 2.687-9.194 6.428-.185-.01-.368-.027-.556-.027-5.385 0-9.75 4.298-9.75 9.6s4.365 9.601 9.75 9.601H57.5c3.59 0 6.5-2.866 6.5-6.4 0-2.229-1.154-4.187-2.904-5.333z" fill-rule="evenodd" clip-rule="evenodd" fill="#ccc"/><path d="M1.375 36.601c0 1.832.395 3.567 1.088 5.135A5.615 5.615 0 000 46.4c0 3.093 2.462 5.601 5.5 5.601h4.021a15.92 15.92 0 01-3.521-10c0-8.343 6.386-15.186 14.535-15.926a12.111 12.111 0 00-6.785-2.074c-6.835 0-12.375 5.641-12.375 12.6z" fill-rule="evenodd" clip-rule="evenodd" fill="#999"/><path d="M55.589 9.001c-3.623 2.091-4.079-.244-5.997.863-.482.279-.767.661-.975 1.026-.518-.616-1.078-1.194-1.714-1.69-.005-.466.039-.975.259-1.354.712-1.234 1.71-.712 2.661-2.36.51-.883.08-2.552-.823-3.073-2.092 3.623-3.653 1.828-4.761 3.746-.278.481-.334.954-.331 1.374-.75-.279-1.524-.509-2.341-.624-.231-.397-.442-.853-.442-1.282 0-1.426 1.125-1.473 1.125-3.375C42.25 1.231 41.043 0 40 0c0 4.185-2.25 3.411-2.25 5.626 0 .534.176.956.377 1.313-.806.137-1.569.38-2.304.68-.403-.229-.819-.521-1.036-.897-.713-1.234.237-1.837-.714-3.485-.51-.884-2.17-1.347-3.073-.825 2.092 3.623-.243 4.078.864 5.996.278.483.662.769 1.029.977-.62.517-1.201 1.077-1.699 1.712-.465.004-.972-.04-1.349-.258-1.234-.713-.713-1.711-2.36-2.662-.884-.51-2.552-.08-3.074.824 3.624 2.091 1.828 3.653 3.747 4.76.476.275.942.333 1.36.332-.281.752-.513 1.529-.627 2.349-.395.228-.842.435-1.267.435-1.426 0-1.473-1.125-3.375-1.125C23.23 15.751 22 16.957 22 18c4.184 0 3.41 2.251 5.625 2.251.527 0 .944-.172 1.299-.369.023.139.067.271.097.407A15.98 15.98 0 0132 20.001c.293 0 .579.028.868.044a21.905 21.905 0 0117.642-5.898c-.042-.11-.076-.226-.121-.335.229-.4.517-.81.89-1.025 1.234-.712 1.838.238 3.485-.713.883-.511 1.346-2.17.825-3.073z" fill-rule="evenodd" clip-rule="evenodd" fill="#fc6"/><path d="M47.092 56.269l-5.327-3.268 5.327-3.268c.9-.553 1.209-1.775.689-2.732-.521-.957-1.672-1.284-2.572-.732L40 49.464v-5.463a2 2 0 00-4 0v5.464l-5.21-3.196c-.9-.552-2.052-.225-2.571.732s-.211 2.18.689 2.732l5.327 3.268-5.327 3.268c-.9.553-1.209 1.775-.689 2.732s1.671 1.284 2.571.731L36 56.537v5.464a2 2 0 004 0v-5.464l5.209 3.195c.9.553 2.052.226 2.572-.731s.211-2.18-.689-2.732z" fill-rule="evenodd" clip-rule="evenodd" fill="#48a0dc"/></svg>