<svg xmlns="http://www.w3.org/2000/svg" width="84" height="86"><path d="M61.096 62.27a14.148 14.148 0 001.279-5.87c0-7.953-6.548-14.4-14.625-14.4a14.646 14.646 0 00-12.593 7.104A9.863 9.863 0 0031.5 48.4c-4.254 0-7.862 2.687-9.194 6.428-.185-.01-.368-.027-.556-.027-5.385 0-9.75 4.298-9.75 9.6S16.365 74 21.75 74H57.5c3.59 0 6.5-2.866 6.5-6.4 0-2.226-1.154-4.184-2.904-5.33z" fill-rule="evenodd" clip-rule="evenodd" fill="#ccc"/><path d="M13.862 50.242a30.107 30.107 0 01-3.003-3.882c-5.438 1.328-9.484 6.296-9.484 12.24 0 1.832.395 3.566 1.088 5.136A5.612 5.612 0 000 68.399C0 71.492 2.463 74 5.5 74h4.021A15.92 15.92 0 016 64c0-5.862 3.16-10.973 7.862-13.758z" fill-rule="evenodd" clip-rule="evenodd" fill="#999"/><path d="M34.527 22.776C26.146 25.159 20 32.854 20 42c0 1.373.154 2.707.422 4h.964a18.88 18.88 0 0110.894-3.968 21.056 21.056 0 014.436-3.332 19.826 19.826 0 01-2.967-10.45c.001-1.9.283-3.732.778-5.474z" fill-rule="evenodd" clip-rule="evenodd" fill="#666"/><path d="M28 70h8a2 2 0 000-4h-8a2 2 0 000 4zm22 4H28a2 2 0 000 4h22a2 2 0 010 4 2 2 0 000 4 6 6 0 000-12zm8-16a2 2 0 000 4 2 2 0 010 4H44a2 2 0 000 4h14a6 6 0 000-12z" fill-rule="evenodd" clip-rule="evenodd" fill="#48a0dc"/></svg>