<svg xmlns="http://www.w3.org/2000/svg" width="68" height="64.001"><path d="M16 59.713c.205-.354.405-.668.604-.967a16.905 16.905 0 01-2.112-1.043c.316.86.83 1.619 1.508 2.01zM6.031 42.389c-.093.049-.183.092-.28.147-1.569.906-2.392 3.859-1.464 5.464a15.218 15.218 0 012.19-1.061A16.976 16.976 0 016 43.001c0-.207.023-.407.031-.612zm22.015 16.85a7.078 7.078 0 00-.046.762c0 1.813 2.146 4 4 4 0-3.517.895-5.057 1.838-6.126-.474-.23-.934-.482-1.388-.744a16.932 16.932 0 01-4.404 2.108zM59.713 16c-6.441 3.72-7.251-.433-10.66 1.536-.511.295-.907.66-1.231 1.043a20.886 20.886 0 017.833 3.691c.716-.026 1.532-.193 2.594-.807 1.569-.905 2.391-3.857 1.464-5.463zm-15.461.281c0-.807.104-1.682.479-2.333 1.268-2.195 3.041-1.268 4.732-4.196.907-1.57.143-4.537-1.463-5.465-3.719 6.441-6.496 3.251-8.465 6.661a4.82 4.82 0 00-.633 2.359c-1.342-.495-2.725-.902-4.185-1.102-.388-.684-.717-1.472-.717-2.204 0-2.535 2-2.618 2-6C36 2.188 33.854 0 32 0c0 7.438-4 6.063-4 10.001 0 .912.269 1.687.606 2.308a19.452 19.452 0 00-4.123 1.205c-.689-.401-1.381-.923-1.752-1.565-1.267-2.195.424-3.268-1.268-6.196C20.558 4.182 17.605 3.36 16 4.287c3.719 6.441-.434 7.251 1.535 10.661a4.826 4.826 0 001.732 1.731 20.385 20.385 0 00-2.985 3.069c-.807 0-1.683-.104-2.335-.48-2.195-1.268-1.267-3.041-4.196-4.732-1.569-.906-4.537-.142-5.464 1.464 6.441 3.719 3.25 6.495 6.66 8.464a4.823 4.823 0 002.359.635c-.496 1.341-.904 2.725-1.104 4.185-.683.388-1.471.716-2.202.716-2.534 0-2.617-1.999-6-1.999-1.813 0-4 2.145-4 3.999 5.578 0 6.199 2.25 7.822 3.375 2.796-5.555 8.535-9.374 15.178-9.374 1.125 0 2.222.115 3.285.324 3.835-5.05 9.885-8.324 16.715-8.324 1.172 0 2.314.12 3.434.305-.683-.722-1.397-1.413-2.182-2.025zm.708 43.621c1.065.299 2.225.281 3.04-.188-.06-.104-.102-.195-.158-.297-.94.223-1.898.394-2.882.485z" fill-rule="evenodd" clip-rule="evenodd" fill="#fc6"/><path d="M60.426 49.339A17.908 17.908 0 0062 42.001c0-9.941-8.059-18-18-18-6.609 0-12.37 3.572-15.5 8.881a11.961 11.961 0 00-4.5-.881c-5.236 0-9.676 3.358-11.315 8.034-.228-.013-.454-.034-.685-.034-6.628 0-12 5.372-12 12 0 6.627 5.372 12 12 12h44a8 8 0 004.426-14.662z" fill-rule="evenodd" clip-rule="evenodd" fill="#ccc"/></svg>