<svg xmlns="http://www.w3.org/2000/svg" width="64" height="64.001"><path d="M60.426 37.339A17.908 17.908 0 0062 30.001c0-9.941-8.059-18-18-18-6.609 0-12.37 3.572-15.5 8.881a11.961 11.961 0 00-4.5-.881c-5.236 0-9.676 3.358-11.315 8.033-.228-.013-.454-.034-.685-.034-6.628 0-12 5.373-12 12.001 0 6.627 5.372 12 12 12h44a8 8 0 004.426-14.662z" fill-rule="evenodd" clip-rule="evenodd" fill="#ccc"/><path d="M15.956 6.045a.91.91 0 00-.681-.636l-4.358-.875L8.775.481A.884.884 0 008 0a.884.884 0 00-.776.481L5.083 4.534l-4.359.875a.91.91 0 00-.681.636.984.984 0 00.202.938l3.027 3.373-.548 4.584a.967.967 0 00.356.878c.155.12.34.182.525.182a.84.84 0 00.373-.087L8 13.944l4.021 1.969a.854.854 0 00.898-.095.965.965 0 00.356-.878l-.549-4.585 3.027-3.373a.977.977 0 00.203-.937z" fill="#fc6"/><path d="M16 48.001h8a2 2 0 000-4h-8a2 2 0 000 4zm22 4H16a2 2 0 000 4h22a2 2 0 010 4 2 2 0 000 4 6 6 0 000-12zm8-16a2 2 0 000 4 2 2 0 010 4H32a2 2 0 000 4h14a6 6 0 000-12z" fill-rule="evenodd" clip-rule="evenodd" fill="#48a0dc"/></svg>