<svg xmlns="http://www.w3.org/2000/svg" width="76" height="79.75"><path d="M11.931 49.671c2.962-5.88 9.037-9.922 16.069-9.922.682 0 1.351.047 2.012.12.321-.362.648-.719.99-1.062C23.282 36.036 17.75 28.673 17.75 20c0-1.9.282-3.732.777-5.474C10.146 16.909 4 24.604 4 33.749c0 6.506 3.12 12.27 7.931 15.922z" fill-rule="evenodd" clip-rule="evenodd" fill="#666"/><path d="M64.426 63.088A17.908 17.908 0 0066 55.75c0-9.941-8.059-18-18-18-6.608 0-12.369 3.572-15.5 8.881a11.961 11.961 0 00-4.5-.881c-5.236 0-9.677 3.358-11.315 8.034-.228-.013-.454-.034-.685-.034-6.628 0-12 5.372-12 12 0 6.627 5.372 12 12 12h44a8 8 0 004.426-14.662z" fill-rule="evenodd" clip-rule="evenodd" fill="#ccc"/></svg>