<svg xmlns="http://www.w3.org/2000/svg" width="66" height="63.684"><path d="M7.694 26.412C10.559 20.269 16.773 16 24 16c.974 0 1.923.099 2.856.248a22.129 22.129 0 011.717-1.928c-.062-.169-.115-.343-.183-.509.229-.4.517-.81.89-1.025.533-.308.95-.304 1.383-.278a22.08 22.08 0 013.068-1.964c.122-.551.098-1.128-.143-1.544-3.623 2.092-4.078-.244-5.996.863-.482.278-.768.66-.975 1.027-.518-.617-1.078-1.195-1.714-1.691-.005-.466.039-.975.259-1.354.712-1.234 1.71-.712 2.661-2.36.51-.883.08-2.552-.823-3.073-2.092 3.623-3.654 1.828-4.762 3.746-.277.481-.333.954-.33 1.374-.751-.279-1.524-.509-2.341-.624-.231-.397-.442-.852-.442-1.282 0-1.426 1.125-1.473 1.125-3.375C20.25 1.23 19.043 0 18 0c0 4.184-2.25 3.409-2.25 5.625 0 .534.176.956.377 1.313-.807.136-1.569.379-2.304.679-.403-.229-.819-.521-1.037-.897-.712-1.234.238-1.837-.713-3.485-.51-.883-2.17-1.346-3.073-.824 2.092 3.623-.244 4.078.863 5.996.279.483.663.77 1.029.978-.619.516-1.2 1.076-1.698 1.711-.465.004-.972-.04-1.349-.258-1.235-.713-.712-1.711-2.361-2.662-.882-.51-2.551-.08-3.073.824 3.623 2.092 1.829 3.653 3.747 4.761.476.274.942.331 1.36.331-.281.752-.513 1.529-.627 2.349-.395.229-.842.435-1.267.435-1.426 0-1.473-1.125-3.375-1.125C1.23 15.75 0 16.956 0 17.999c4.184 0 3.41 2.251 5.625 2.251.527 0 .944-.172 1.299-.369.137.808.384 1.571.686 2.307-.228.4-.516.81-.889 1.025-1.235.713-1.838-.238-3.485.713-.884.51-1.346 2.17-.825 3.074 3.129-1.807 3.897-.316 5.283-.588z" fill-rule="evenodd" clip-rule="evenodd" fill="#fc6"/><path d="M60.426 39.338A17.908 17.908 0 0062 32c0-9.941-8.059-18-18-18-6.609 0-12.37 3.572-15.5 8.881A11.942 11.942 0 0024 22c-5.236 0-9.676 3.358-11.315 8.034-.228-.013-.454-.034-.685-.034-6.628 0-12 5.372-12 12 0 6.627 5.372 12 12 12h44a8 8 0 004.426-14.662z" fill-rule="evenodd" clip-rule="evenodd" fill="#ccc"/><path d="M13.301 63.684l3.769-1.069s.78-6.592.761-6.603c-.01-.006-5.468 3.945-5.468 3.945l.938 3.727zm35.061-3.727l.938 3.727 3.769-1.069.761-6.603-5.468 3.945zm-17.061 3.727l3.769-1.069s.78-6.592.761-6.603c-.01-.006-5.468 3.945-5.468 3.945l.938 3.727z" fill-rule="evenodd" clip-rule="evenodd" fill="#54bbff"/></svg>