<svg xmlns="http://www.w3.org/2000/svg" width="84" height="87.75"><path d="M61.096 66.02a14.148 14.148 0 001.279-5.87c0-7.953-6.548-14.399-14.625-14.399a14.65 14.65 0 00-12.594 7.104 9.857 9.857 0 00-3.656-.704c-4.254 0-7.861 2.687-9.193 6.427-.186-.01-.369-.027-.557-.027-5.385 0-9.75 4.299-9.75 9.601s4.365 9.601 9.75 9.601H57.5c3.59 0 6.5-2.866 6.5-6.4 0-2.229-1.154-4.187-2.904-5.333z" fill-rule="evenodd" clip-rule="evenodd" fill="#ccc"/><path d="M13.861 53.992a30.117 30.117 0 01-3.003-3.883c-5.438 1.327-9.483 6.297-9.483 12.24 0 1.833.395 3.567 1.088 5.135A5.617 5.617 0 000 72.149c0 3.093 2.463 5.601 5.5 5.601h4.021A15.92 15.92 0 016 67.75c0-5.862 3.159-10.974 7.861-13.758z" fill-rule="evenodd" clip-rule="evenodd" fill="#999"/><path d="M25.75 20c0-1.9.282-3.732.777-5.474C18.146 16.909 12 24.604 12 33.749c0 6.548 3.154 12.353 8.02 16.001h1.359a18.895 18.895 0 0110.901-3.968 20.923 20.923 0 0112.099-5.852C33.976 39.223 25.75 30.582 25.75 20z" fill-rule="evenodd" clip-rule="evenodd" fill="#666"/></svg>