<svg xmlns="http://www.w3.org/2000/svg" width="64" height="64.001"><path d="M60.426 37.339A17.913 17.913 0 0062 30c0-9.94-8.06-17.999-18-17.999-6.609 0-12.369 3.572-15.5 8.881a11.961 11.961 0 00-4.5-.881c-5.236 0-9.677 3.358-11.315 8.034-.228-.013-.453-.034-.685-.034-6.628 0-12 5.372-12 11.999 0 6.628 5.372 12.001 12 12.001h44A8 8 0 0064 44a7.99 7.99 0 00-3.574-6.661z" fill-rule="evenodd" clip-rule="evenodd" fill="#ccc"/><path d="M15.956 6.045a.91.91 0 00-.681-.636l-4.358-.875L8.775.482A.883.883 0 008 0a.883.883 0 00-.776.482L5.083 4.534l-4.359.875a.91.91 0 00-.681.636.984.984 0 00.202.938l3.027 3.373-.548 4.584a.966.966 0 00.356.878c.155.12.34.182.525.182a.84.84 0 00.373-.087L8 13.943l4.021 1.97a.836.836 0 00.373.087c.186 0 .37-.062.525-.182a.964.964 0 00.356-.878l-.549-4.585 3.027-3.373a.977.977 0 00.203-.937z" fill="#fc6"/><path d="M41.092 56.269l-5.327-3.268 5.327-3.268c.9-.553 1.209-1.775.689-2.732-.521-.957-1.672-1.284-2.572-.732L34 49.464v-5.463a2 2 0 00-4 0v5.464l-5.21-3.196c-.9-.552-2.052-.225-2.571.732s-.211 2.18.689 2.732l5.326 3.268-5.326 3.268c-.9.553-1.209 1.775-.689 2.732s1.671 1.284 2.571.731L30 56.537v5.464a2 2 0 004 0v-5.464l5.209 3.195c.9.553 2.052.226 2.572-.731s.211-2.18-.689-2.732z" fill-rule="evenodd" clip-rule="evenodd" fill="#48a0dc"/></svg>