<svg xmlns="http://www.w3.org/2000/svg" width="66" height="64.001"><path d="M34.25 0c-4.546 0-8.508 2.504-10.66 6.223a8.059 8.059 0 00-3.09-.622c-3.602 0-6.632 2.364-7.758 5.641-.165-.012-.324-.042-.492-.042C7.693 11.2 4 14.961 4 19.6c0 1.933.646 3.708 1.725 5.126a13.9 13.9 0 017.625-2.692c2.242-4.744 7.055-8.033 12.65-8.033 1.271 0 2.497.185 3.668.502 3.407-4.818 8.881-8.073 15.145-8.442C42.641 2.432 38.729 0 34.25 0z" fill-rule="evenodd" clip-rule="evenodd" fill="#999"/><path d="M62.426 37.339A17.913 17.913 0 0064 30c0-9.94-8.059-17.999-18-17.999-6.608 0-12.369 3.572-15.5 8.88A11.942 11.942 0 0026 20c-5.236 0-9.677 3.359-11.315 8.035-.228-.013-.453-.034-.685-.034-6.628 0-12 5.372-12 11.999 0 6.628 5.372 12.001 12 12.001h44a8 8 0 004.426-14.662z" fill-rule="evenodd" clip-rule="evenodd" fill="#ccc"/><path d="M18 48.001h8a2 2 0 000-4h-8a2 2 0 000 4zm22 4H18a2 2 0 000 4h22a2 2 0 010 4 2 2 0 000 4 6 6 0 000-12zm8-16a2 2 0 000 4 2 2 0 010 4H34a2 2 0 000 4h14a6 6 0 000-12z" fill-rule="evenodd" clip-rule="evenodd" fill="#48a0dc"/></svg>