<svg xmlns="http://www.w3.org/2000/svg" width="66" height="52"><path d="M34.25 0c-4.546 0-8.508 2.503-10.659 6.223a8.068 8.068 0 00-3.091-.622c-3.602 0-6.632 2.364-7.757 5.641-.166-.012-.325-.042-.493-.042C7.693 11.2 4 14.962 4 19.6c0 1.933.646 3.708 1.725 5.126a13.9 13.9 0 017.625-2.692c2.242-4.744 7.055-8.033 12.65-8.033 1.271 0 2.497.185 3.668.502 3.408-4.818 8.881-8.073 15.145-8.442C42.641 2.432 38.729 0 34.25 0z" fill-rule="evenodd" clip-rule="evenodd" fill="#999"/><path d="M62.426 37.339A17.908 17.908 0 0064 30.001c0-9.941-8.059-18-18-18-6.609 0-12.37 3.572-15.5 8.881a11.961 11.961 0 00-4.5-.881c-5.236 0-9.676 3.358-11.315 8.034-.228-.013-.454-.034-.685-.034-6.628 0-12 5.372-12 12C2 46.628 7.372 52 14 52h44a8 8 0 004.426-14.661z" fill-rule="evenodd" clip-rule="evenodd" fill="#ccc"/></svg>