<svg xmlns="http://www.w3.org/2000/svg" width="76" height="77.434"><path d="M11.896 37.75c2.577-5.178 7.567-8.932 13.51-9.792A19.897 19.897 0 0123.75 20c0-1.9.282-3.731.777-5.473C16.146 16.91 10 24.604 10 33.75c0 1.374.16 2.707.431 4h1.465z" fill-rule="evenodd" clip-rule="evenodd" fill="#666"/><path d="M64.426 51.088A17.908 17.908 0 0066 43.75c0-9.941-8.059-18-18-18-6.608 0-12.369 3.572-15.499 8.88A11.97 11.97 0 0028 33.749c-5.236 0-9.677 3.359-11.315 8.035-.228-.013-.454-.034-.685-.034-6.628 0-12 5.372-12 11.999 0 6.628 5.372 12 12 12h44a8 8 0 004.426-14.661z" fill-rule="evenodd" clip-rule="evenodd" fill="#ccc"/><path d="M17.301 77.434l3.769-1.069.761-6.603-5.468 3.945.938 3.727zm35.061-3.727l.938 3.727 3.769-1.069.761-6.603-5.468 3.945zm-17.061 3.727l3.769-1.069.761-6.603-5.468 3.945.938 3.727z" fill-rule="evenodd" clip-rule="evenodd" fill="#54bbff"/></svg>