<svg xmlns="http://www.w3.org/2000/svg" width="84" height="86"><path d="M61.096 62.27a14.148 14.148 0 001.279-5.87c0-7.954-6.548-14.4-14.625-14.4-5.37 0-10.05 2.857-12.593 7.104A9.863 9.863 0 0031.5 48.4c-4.254 0-7.862 2.687-9.194 6.428-.185-.01-.368-.027-.556-.027-5.385 0-9.75 4.298-9.75 9.6S16.365 74 21.75 74H57.5c3.59 0 6.5-2.866 6.5-6.4 0-2.226-1.154-4.184-2.904-5.33z" fill-rule="evenodd" clip-rule="evenodd" fill="#ccc"/><path d="M13.861 50.242a30.107 30.107 0 01-3.003-3.882c-5.437 1.328-9.483 6.296-9.483 12.24 0 1.832.395 3.567 1.088 5.135A5.615 5.615 0 000 68.399C0 71.492 2.462 74 5.5 74h4.021A15.92 15.92 0 016 64c0-5.862 3.159-10.974 7.861-13.758z" fill-rule="evenodd" clip-rule="evenodd" fill="#999"/><path d="M34.527 22.776C26.146 25.159 20 32.854 20 42c0 1.373.154 2.707.422 4h.964a18.883 18.883 0 0110.894-3.968 21.056 21.056 0 014.436-3.332 19.826 19.826 0 01-2.967-10.45c.001-1.9.283-3.732.778-5.474z" fill-rule="evenodd" clip-rule="evenodd" fill="#666"/><path d="M47.092 78.268L41.765 75l5.327-3.268c.9-.553 1.209-1.775.689-2.732-.521-.957-1.672-1.284-2.572-.732L40 71.463V66a2 2 0 00-4 0v5.464l-5.21-3.196c-.9-.552-2.052-.225-2.571.732s-.211 2.18.689 2.732L34.235 75l-5.327 3.268c-.9.553-1.209 1.775-.689 2.732s1.671 1.284 2.571.731L36 78.536V84a2 2 0 004 0v-5.464l5.209 3.195c.9.553 2.052.226 2.572-.731s.211-2.18-.689-2.732z" fill-rule="evenodd" clip-rule="evenodd" fill="#48a0dc"/></svg>