<svg xmlns="http://www.w3.org/2000/svg" width="66" height="64.001"><path d="M7.695 26.413C10.56 20.269 16.774 16.001 24 16.001c.974 0 1.923.099 2.856.248a22.129 22.129 0 011.717-1.928c-.062-.169-.114-.343-.183-.509.228-.4.516-.81.889-1.025.533-.308.95-.304 1.383-.278a22.08 22.08 0 013.068-1.964c.123-.551.099-1.127-.142-1.544-3.623 2.091-4.078-.244-5.997.863-.482.279-.767.661-.975 1.026a11.46 11.46 0 00-1.714-1.69c-.004-.466.04-.975.259-1.354.712-1.234 1.71-.712 2.662-2.36.51-.883.08-2.552-.823-3.073-2.092 3.623-3.654 1.828-4.761 3.746-.278.481-.334.954-.331 1.374-.75-.279-1.524-.509-2.34-.624-.232-.397-.442-.853-.442-1.282 0-1.426 1.125-1.473 1.125-3.375C20.25 1.231 19.043 0 18 0c0 4.185-2.25 3.411-2.25 5.626 0 .534.175.956.377 1.313-.806.137-1.569.38-2.304.68-.403-.229-.819-.521-1.037-.897-.712-1.234.238-1.837-.713-3.485C11.564 2.353 9.904 1.89 9 2.412c2.092 3.623-.244 4.078.864 5.996.279.483.663.769 1.029.977-.62.517-1.201 1.077-1.699 1.712-.465.004-.971-.04-1.349-.258-1.234-.713-.712-1.711-2.36-2.662-.883-.51-2.552-.08-3.074.824 3.624 2.091 1.829 3.653 3.747 4.76.476.275.943.333 1.361.332-.281.752-.513 1.529-.627 2.349-.394.228-.841.435-1.266.435-1.426 0-1.473-1.125-3.375-1.125C1.231 15.751 0 16.957 0 18c4.184 0 3.411 2.251 5.625 2.251.527 0 .944-.172 1.299-.369.137.808.384 1.571.686 2.307-.228.4-.516.81-.889 1.025-1.234.713-1.837-.238-3.485.713-.883.51-1.345 2.17-.824 3.074 3.129-1.807 3.897-.315 5.283-.588z" fill-rule="evenodd" clip-rule="evenodd" fill="#fc6"/><path d="M60.426 39.339A17.908 17.908 0 0062 32.001c0-9.941-8.06-18-18-18-6.608 0-12.369 3.572-15.5 8.881a11.961 11.961 0 00-4.5-.881c-5.236 0-9.676 3.358-11.315 8.034-.228-.013-.454-.034-.685-.034-6.628 0-12 5.372-12 12 0 6.627 5.372 12 12 12h44a8 8 0 004.426-14.662z" fill-rule="evenodd" clip-rule="evenodd" fill="#ccc"/><path d="M41.092 56.269l-5.327-3.268 5.327-3.268c.9-.553 1.209-1.775.689-2.732-.52-.957-1.671-1.284-2.571-.732L34 49.464v-5.463a2 2 0 00-4 0v5.463l-5.209-3.195c-.9-.552-2.052-.225-2.572.732s-.211 2.18.689 2.732l5.327 3.268-5.327 3.268c-.9.553-1.208 1.775-.689 2.732.52.957 1.671 1.284 2.572.731L30 56.537v5.464a2 2 0 004 0v-5.464l5.209 3.195c.9.553 2.052.226 2.571-.731.521-.957.213-2.18-.688-2.732z" fill-rule="evenodd" clip-rule="evenodd" fill="#48a0dc"/></svg>