<svg xmlns="http://www.w3.org/2000/svg" width="64" height="63.692"><path d="M60.426 37.339A17.908 17.908 0 0062 30.001c0-9.941-8.059-18-18-18-6.608 0-12.369 3.572-15.5 8.881a11.961 11.961 0 00-4.5-.881c-5.236 0-9.677 3.358-11.315 8.034-.228-.013-.453-.034-.685-.034-6.628 0-12 5.372-12 12 0 6.627 5.372 12 12 12h44a8 8 0 004.426-14.662z" fill-rule="evenodd" clip-rule="evenodd" fill="#ccc"/><path d="M15.956 6.045a.91.91 0 00-.681-.636l-4.358-.875L8.775.482A.883.883 0 008 0a.883.883 0 00-.776.482L5.083 4.534l-4.359.875a.91.91 0 00-.681.636.981.981 0 00.202.937l3.027 3.374-.548 4.584a.966.966 0 00.356.878c.155.12.34.182.525.182a.84.84 0 00.373-.087L8 13.943l4.021 1.97a.854.854 0 00.898-.095.964.964 0 00.356-.878l-.549-4.585 3.027-3.374a.975.975 0 00.203-.936z" fill="#fc6"/><path d="M13.374 63.568c.589-.306 3.695-.953 3.695-.953s.78-6.592.761-6.603c-.01-.006-5.468 3.945-5.468 3.945s1.013 2.971 1.012 3.611zm-.073.117c.052.025.073-.021.073-.116-.092.047-.128.088-.073.116zm35.061-3.727l.938 3.727 3.769-1.069s.78-6.592.761-6.603c-.01-.006-5.468 3.945-5.468 3.945zm-17.061 3.727l3.769-1.069s.78-6.592.761-6.603c-.01-.006-5.468 3.945-5.468 3.945l.938 3.727z" fill-rule="evenodd" clip-rule="evenodd" fill="#54bbff"/></svg>