<svg xmlns="http://www.w3.org/2000/svg" width="76" height="77.786"><path d="M11.896 37.749c2.577-5.178 7.567-8.932 13.508-9.792A19.912 19.912 0 0123.75 20c0-1.9.282-3.731.777-5.473C16.146 16.91 10 24.604 10 33.75c0 1.374.16 2.706.431 3.999h1.465z" fill-rule="evenodd" clip-rule="evenodd" fill="#666"/><path d="M64.426 51.087A17.9 17.9 0 0066 43.75c0-9.941-8.059-18-18-18-6.608 0-12.369 3.572-15.499 8.88A11.97 11.97 0 0028 33.749c-5.236 0-9.677 3.359-11.315 8.035-.228-.013-.454-.034-.685-.034-6.628 0-12 5.372-12 11.999 0 6.628 5.372 12 12 12h44a8 8 0 004.426-14.662z" fill-rule="evenodd" clip-rule="evenodd" fill="#ccc"/><path d="M29 55.99c-.957-.571-2.18-.232-2.732.758l-6 9.933c-.552.99-.225 2.257.732 2.828.956.571 2.18.232 2.732-.758l6-9.932c.552-.991.224-2.256-.732-2.829zm12 0c-.957-.571-2.18-.232-2.732.758l-10 17.933c-.552.99-.225 2.257.732 2.828.956.571 2.18.232 2.731-.758l10.001-17.932c.552-.991.224-2.256-.732-2.829zm12 0c-.957-.571-2.18-.232-2.732.758l-6 9.933c-.552.99-.225 2.257.732 2.828.956.571 2.18.232 2.732-.758l6-9.932c.552-.991.224-2.256-.732-2.829z" fill-rule="evenodd" clip-rule="evenodd" fill="#48a0dc"/></svg>