<svg xmlns="http://www.w3.org/2000/svg" width="70" height="64.001"><path d="M61.097 40.271a14.148 14.148 0 001.279-5.87c0-7.952-6.548-14.399-14.625-14.399a14.646 14.646 0 00-12.593 7.104 9.859 9.859 0 00-3.657-.704c-4.254 0-7.862 2.687-9.194 6.428-.185-.01-.368-.027-.556-.027-5.385 0-9.75 4.298-9.75 9.6s4.365 9.601 9.75 9.601H57.5c3.59 0 6.5-2.866 6.5-6.4 0-2.229-1.154-4.187-2.903-5.333z" fill-rule="evenodd" clip-rule="evenodd" fill="#ccc"/><path d="M1.375 36.601c0 1.832.394 3.566 1.087 5.136A5.616 5.616 0 000 46.4c0 3.093 2.463 5.601 5.5 5.601h4.021a15.92 15.92 0 01-3.521-10c0-8.343 6.386-15.186 14.536-15.926a12.115 12.115 0 00-6.786-2.074c-6.834 0-12.375 5.641-12.375 12.6z" fill-rule="evenodd" clip-rule="evenodd" fill="#999"/><path d="M55.589 9.001c-3.624 2.092-4.079-.244-5.997.863-.482.279-.768.66-.975 1.026-.518-.616-1.079-1.194-1.714-1.69-.004-.466.04-.975.258-1.354.713-1.234 1.71-.712 2.662-2.36.51-.883.08-2.552-.823-3.073-2.092 3.623-3.653 1.828-4.761 3.747-.278.48-.334.953-.332 1.373-.75-.279-1.523-.509-2.34-.624-.232-.397-.443-.852-.443-1.283 0-1.425 1.125-1.472 1.125-3.374C42.25 1.23 41.043 0 40 0c0 4.184-2.25 3.411-2.25 5.625 0 .535.176.958.377 1.314-.807.136-1.569.379-2.304.679-.403-.229-.819-.521-1.037-.897-.713-1.234.238-1.837-.713-3.485-.51-.883-2.17-1.345-3.073-.824 2.092 3.624-.243 4.079.864 5.997.279.483.662.77 1.029.977-.619.517-1.2 1.077-1.699 1.712-.464.004-.971-.04-1.349-.258-1.234-.713-.712-1.711-2.36-2.662-.883-.51-2.552-.08-3.073.824 3.623 2.092 1.828 3.653 3.746 4.761.476.274.943.331 1.361.33-.281.753-.513 1.53-.627 2.35-.394.228-.841.435-1.266.435-1.426 0-1.472-1.125-3.375-1.125-1.02 0-2.25 1.207-2.25 2.249 4.184 0 3.41 2.25 5.625 2.25.527 0 .945-.171 1.299-.368.023.139.067.271.097.406.966-.182 1.96-.287 2.979-.287.293 0 .579.028.868.044 3.943-3.742 9.266-6.044 15.132-6.044.85 0 1.687.053 2.511.146-.042-.11-.076-.227-.121-.336.228-.399.516-.809.89-1.024 1.234-.713 1.837.238 3.485-.713.882-.512 1.345-2.172.823-3.075z" fill-rule="evenodd" clip-rule="evenodd" fill="#fc6"/><path d="M28 48.001h8a2 2 0 000-4h-8a2 2 0 000 4zm22 4H28a2 2 0 000 4h22a2 2 0 010 4 2 2 0 100 4 6 6 0 000-12zm8-16a2 2 0 000 4 2 2 0 010 4H44a2 2 0 000 4h14a6 6 0 000-12z" fill-rule="evenodd" clip-rule="evenodd" fill="#48a0dc"/></svg>