<svg xmlns="http://www.w3.org/2000/svg" width="66" height="54"><path d="M7.694 26.413C10.559 20.269 16.773 16.001 24 16.001c.975 0 1.923.099 2.856.248a22.129 22.129 0 011.717-1.928c-.062-.17-.115-.344-.183-.51.229-.398.517-.809.89-1.024.533-.308.95-.304 1.383-.278a22.13 22.13 0 013.067-1.964c.123-.552.099-1.128-.142-1.545-3.623 2.092-4.078-.243-5.996.864-.482.278-.768.66-.975 1.026-.518-.616-1.078-1.194-1.714-1.689-.005-.467.039-.976.259-1.355.712-1.234 1.71-.712 2.661-2.36.51-.883.08-2.552-.823-3.073-2.092 3.623-3.654 1.828-4.762 3.746-.277.481-.333.954-.331 1.374-.749-.278-1.523-.509-2.34-.624-.231-.397-.442-.852-.442-1.282 0-1.426 1.125-1.473 1.125-3.375C20.25 1.231 19.043 0 18 0c0 4.184-2.25 3.411-2.25 5.626 0 .534.176.957.377 1.313-.807.137-1.569.38-2.304.68-.403-.229-.819-.521-1.037-.896-.712-1.235.238-1.838-.713-3.486-.51-.884-2.17-1.347-3.073-.825 2.092 3.623-.244 4.078.863 5.996.279.483.663.769 1.029.977-.619.517-1.2 1.077-1.698 1.712-.465.005-.972-.04-1.349-.258-1.235-.713-.712-1.711-2.361-2.662-.882-.51-2.551-.08-3.073.823 3.623 2.092 1.828 3.654 3.747 4.761.476.275.942.332 1.36.332-.281.752-.513 1.528-.628 2.349-.394.228-.841.435-1.266.435-1.426 0-1.473-1.125-3.375-1.125C1.23 15.751 0 16.957 0 18c4.184 0 3.41 2.251 5.625 2.251.527 0 .944-.172 1.299-.369.137.808.384 1.571.686 2.307-.228.4-.516.811-.89 1.025-1.234.713-1.837-.238-3.485.713-.883.51-1.345 2.17-.823 3.074 3.129-1.808 3.896-.314 5.282-.588z" fill-rule="evenodd" clip-rule="evenodd" fill="#fc6"/><path d="M60.426 39.339A17.908 17.908 0 0062 32.001c0-9.941-8.059-18-18-18-6.609 0-12.37 3.572-15.5 8.881a11.961 11.961 0 00-4.5-.881c-5.236 0-9.676 3.358-11.315 8.034-.228-.013-.454-.034-.685-.034-6.628 0-12 5.372-12 12C0 48.628 5.372 54 12 54h44a8 8 0 004.426-14.661z" fill-rule="evenodd" clip-rule="evenodd" fill="#ccc"/></svg>