<svg xmlns="http://www.w3.org/2000/svg" width="64" height="64"><path d="M60.426 25.338A17.913 17.913 0 0062 17.999C62 8.059 53.941 0 44 0c-6.608 0-12.369 3.572-15.5 8.88a11.961 11.961 0 00-4.5-.881c-5.235 0-9.676 3.358-11.315 8.034-.228-.013-.453-.034-.685-.034-6.628 0-12 5.373-12 12C0 34.627 5.372 40 12 40h44a8 8 0 008-8.001 7.989 7.989 0 00-3.574-6.661z" fill-rule="evenodd" clip-rule="evenodd" fill="#ccc"/><path d="M41.092 56.268L35.765 53l5.327-3.268c.9-.553 1.209-1.776.689-2.732-.521-.957-1.672-1.285-2.572-.732L34 49.463V44a2 2 0 00-4 0v5.464l-5.21-3.196c-.9-.553-2.052-.225-2.571.732-.52.956-.211 2.18.689 2.732L28.234 53l-5.326 3.268c-.9.553-1.209 1.775-.689 2.732.52.956 1.671 1.284 2.571.732L30 56.536V62a2 2 0 004 0v-5.463l5.209 3.195c.9.552 2.052.224 2.572-.732.52-.957.211-2.18-.689-2.732z" fill-rule="evenodd" clip-rule="evenodd" fill="#48a0dc"/></svg>