<svg xmlns="http://www.w3.org/2000/svg" width="70" height="64"><path d="M61.096 40.27a14.148 14.148 0 001.279-5.87c0-7.953-6.548-14.4-14.625-14.4a14.646 14.646 0 00-12.593 7.104A9.863 9.863 0 0031.5 26.4c-4.254 0-7.862 2.687-9.194 6.428-.185-.01-.368-.027-.556-.027-5.385 0-9.75 4.298-9.75 9.6S16.365 52 21.75 52H57.5c3.59 0 6.5-2.866 6.5-6.4 0-2.226-1.154-4.184-2.904-5.33z" fill-rule="evenodd" clip-rule="evenodd" fill="#999"/><path d="M1.375 36.6c0 1.832.395 3.566 1.088 5.135A5.615 5.615 0 000 46.399C0 49.492 2.462 52 5.5 52h4.021A15.92 15.92 0 016 42c0-8.343 6.386-15.186 14.535-15.926A12.12 12.12 0 0013.75 24C6.915 24 1.375 29.641 1.375 36.6z" fill-rule="evenodd" clip-rule="evenodd" fill="gray"/><path d="M55.589 9c-3.623 2.092-4.079-.244-5.997.863-.482.278-.768.66-.975 1.027-.518-.617-1.078-1.195-1.714-1.691-.005-.466.039-.975.259-1.354.712-1.234 1.71-.713 2.661-2.36.51-.883.08-2.552-.823-3.073-2.092 3.623-3.653 1.828-4.761 3.746-.278.481-.334.954-.332 1.374-.749-.279-1.523-.509-2.34-.623-.231-.398-.442-.853-.442-1.284 0-1.425 1.125-1.472 1.125-3.374C42.25 1.23 41.043 0 40 0c0 4.184-2.25 3.41-2.25 5.624 0 .535.176.958.377 1.313-.807.137-1.569.38-2.304.68-.403-.229-.819-.521-1.036-.897-.713-1.234.237-1.837-.714-3.485-.51-.883-2.17-1.345-3.073-.825 2.092 3.624-.243 4.079.864 5.997.278.483.662.77 1.029.978-.62.516-1.201 1.076-1.699 1.711-.465.004-.972-.04-1.349-.258-1.234-.713-.713-1.711-2.361-2.662-.883-.51-2.552-.08-3.073.824 3.623 2.092 1.828 3.653 3.747 4.761.476.274.942.331 1.36.331-.281.752-.513 1.529-.628 2.349-.394.229-.841.435-1.266.435-1.426 0-1.473-1.125-3.375-1.125C23.23 15.75 22 16.957 22 18c4.184 0 3.41 2.25 5.625 2.25.527 0 .944-.172 1.299-.37.023.14.067.271.097.407A16.056 16.056 0 0132 20c.293 0 .579.028.868.044a21.905 21.905 0 0117.643-5.898c-.043-.11-.076-.227-.121-.336.229-.399.517-.809.89-1.024 1.234-.713 1.838.238 3.485-.713.882-.51 1.345-2.17.824-3.073z" fill-rule="evenodd" clip-rule="evenodd" fill="#fc6"/><path fill="#fc6" d="M48 44h-6l4.526-18L28 48h6l-2 16z"/></svg>