<svg xmlns="http://www.w3.org/2000/svg" width="64" height="64.001"><path d="M60.426 25.339A17.913 17.913 0 0062 18c0-9.94-8.06-18-18-18-6.609 0-12.37 3.573-15.5 8.882a11.961 11.961 0 00-4.5-.881c-5.235 0-9.676 3.358-11.315 8.033-.228-.013-.454-.034-.685-.034-6.628 0-12 5.373-12 12.001C0 34.628 5.372 40 12 40h44a8 8 0 004.426-14.661z" fill-rule="evenodd" clip-rule="evenodd" fill="#ccc"/><path d="M16 48.001h8a2 2 0 000-4h-8a2 2 0 000 4zm22 4H16a2 2 0 000 4h22a2 2 0 010 4 2 2 0 000 4 6 6 0 000-12zm8-16a2 2 0 000 4 2 2 0 010 4H32a2 2 0 000 4h14a6 6 0 000-12z" fill-rule="evenodd" clip-rule="evenodd" fill="#48a0dc"/></svg>