<svg xmlns="http://www.w3.org/2000/svg" width="66" height="64"><path d="M34.25 0c-4.546 0-8.508 2.502-10.659 6.221A8.086 8.086 0 0020.5 5.6c-3.602 0-6.632 2.364-7.758 5.641-.165-.011-.324-.041-.492-.041C7.693 11.2 4 14.962 4 19.6a8.43 8.43 0 001.725 5.125 13.9 13.9 0 017.626-2.692C15.592 17.289 20.405 14 26 14c1.271 0 2.497.185 3.668.502 3.407-4.818 8.881-8.073 15.145-8.442C42.641 2.431 38.729 0 34.25 0z" fill-rule="evenodd" clip-rule="evenodd" fill="#999"/><path d="M62.426 37.337A17.9 17.9 0 0064 30c0-9.941-8.059-18.001-18-18.001-6.609 0-12.369 3.572-15.5 8.882A11.942 11.942 0 0026 20c-5.236 0-9.676 3.358-11.315 8.034-.228-.013-.454-.034-.685-.034-6.628 0-12 5.372-12 11.999 0 6.628 5.372 12 12 12h44a8 8 0 004.426-14.662z" fill-rule="evenodd" clip-rule="evenodd" fill="#ccc"/><path d="M43.092 56.268L37.766 53l5.326-3.268c.9-.553 1.209-1.776.689-2.732-.521-.957-1.672-1.285-2.572-.732L36 49.463V44a2 2 0 00-4 0v5.464l-5.21-3.196c-.9-.553-2.052-.225-2.571.732-.52.956-.211 2.18.689 2.732L30.234 53l-5.326 3.268c-.9.553-1.209 1.775-.689 2.732.52.956 1.671 1.284 2.571.732L32 56.536V62a2 2 0 004 0v-5.463l5.209 3.195c.9.552 2.052.224 2.572-.732.52-.957.211-2.18-.689-2.732z" fill-rule="evenodd" clip-rule="evenodd" fill="#48a0dc"/></svg>