<svg xmlns="http://www.w3.org/2000/svg" width="64" height="53.685"><path d="M60.426 25.339A17.908 17.908 0 0062 18.001C62 8.06 53.94 0 44 0c-6.609 0-12.37 3.572-15.5 8.882a11.961 11.961 0 00-4.5-.881c-5.236 0-9.676 3.358-11.315 8.034-.228-.013-.454-.034-.685-.034-6.628 0-12 5.372-12 12C0 34.628 5.372 40 12 40h44a8 8 0 004.426-14.661z" fill-rule="evenodd" clip-rule="evenodd" fill="#ccc"/><path d="M9.3 53.685l3.769-1.069.761-6.603-5.468 3.945.938 3.727zm35.062-3.727l.938 3.727 3.769-1.069.761-6.603-5.468 3.945zM27.3 53.685l3.769-1.069s.78-6.592.761-6.603c-.01-.006-5.468 3.945-5.468 3.945l.938 3.727z" fill-rule="evenodd" clip-rule="evenodd" fill="#54bbff"/></svg>