<svg xmlns="http://www.w3.org/2000/svg" width="66" height="63.684"><path d="M34.25 0c-4.546 0-8.508 2.502-10.659 6.221A8.086 8.086 0 0020.5 5.6c-3.602 0-6.632 2.364-7.757 5.641-.166-.011-.325-.041-.493-.041C7.693 11.199 4 14.96 4 19.6c0 1.933.646 3.708 1.725 5.126a13.9 13.9 0 017.625-2.692C15.592 17.289 20.405 14 26 14c1.271 0 2.497.185 3.668.502 3.408-4.818 8.881-8.073 15.145-8.442C42.641 2.431 38.729 0 34.25 0z" fill-rule="evenodd" clip-rule="evenodd" fill="#999"/><path d="M62.426 37.338A17.908 17.908 0 0064 30c0-9.941-8.059-18-18-18-6.608 0-12.369 3.572-15.5 8.88a11.965 11.965 0 00-4.5-.881c-5.236 0-9.677 3.359-11.315 8.035-.228-.013-.454-.034-.685-.034-6.628 0-12 5.372-12 11.999 0 6.628 5.372 12 12 12h44a8 8 0 004.426-14.661z" fill-rule="evenodd" clip-rule="evenodd" fill="#ccc"/><path d="M15.301 63.684l3.769-1.069s.78-6.592.761-6.603c-.01-.006-5.468 3.945-5.468 3.945l.938 3.727zm35.061-3.727l.938 3.727 3.769-1.069s.78-6.592.761-6.603c-.01-.006-5.468 3.945-5.468 3.945zm-17.061 3.727l3.769-1.069s.78-6.592.761-6.603c-.01-.006-5.468 3.945-5.468 3.945l.938 3.727z" fill-rule="evenodd" clip-rule="evenodd" fill="#54bbff"/></svg>