<svg xmlns="http://www.w3.org/2000/svg" width="64.009" height="64.017"><path d="M60.435 25.338a17.913 17.913 0 001.574-7.339c0-9.94-8.06-17.999-18-17.999-6.609 0-12.369 3.572-15.5 8.881a11.942 11.942 0 00-4.5-.881c-5.236 0-9.676 3.358-11.315 8.034-.228-.013-.454-.034-.685-.034-6.628 0-12 5.372-12 12 0 6.627 5.372 12 12 12h44a8 8 0 008-8.001 7.99 7.99 0 00-3.574-6.661z" fill-rule="evenodd" clip-rule="evenodd" fill="#ccc"/><path d="M23.506 64.017l9.321-3.369s3.226-16.642 3.182-16.665C35.986 43.971 22 54.864 22 54.864l1.506 9.153zM44 54.864l1.506 9.152 9.321-3.369s3.226-16.642 3.182-16.665C57.986 43.971 44 54.864 44 54.864zM1.507 64.017l9.32-3.369s3.226-16.642 3.182-16.665C13.986 43.971 0 54.864 0 54.864l1.507 9.153z" fill-rule="evenodd" clip-rule="evenodd" fill="#54bbff"/></svg>