<svg xmlns="http://www.w3.org/2000/svg" width="96" height="64"><path d="M64 10c-12.15 0-22 9.85-22 22h6.023c0-8.824 7.152-15.977 15.977-15.977V10z" fill-rule="evenodd" clip-rule="evenodd" fill="#387aa7"/><path d="M64 6C49.641 6 38 17.641 38 32h6.012c0-11.039 8.949-19.988 19.988-19.988V6z" fill-rule="evenodd" clip-rule="evenodd" fill="#88c057"/><path d="M64 2C47.432 2 34 15.431 34 32h6C40 18.745 50.745 8 64 8V2z" fill-rule="evenodd" clip-rule="evenodd" fill="#fc6"/><path d="M64 0C46.326 0 32 14.326 32 32h4C36 16.535 48.536 4 64 4V0z" fill-rule="evenodd" clip-rule="evenodd" fill="#ed7161"/><path d="M60.426 49.337A17.908 17.908 0 0062 41.999C62 32.059 53.94 24 44 24c-6.608 0-12.369 3.572-15.5 8.88a11.961 11.961 0 00-4.5-.881c-5.236 0-9.677 3.359-11.315 8.036-.228-.014-.454-.035-.685-.035-6.628 0-12 5.372-12 11.999C0 58.627 5.372 64 12 64h44a8 8 0 004.426-14.663z" fill-rule="evenodd" clip-rule="evenodd" fill="#ccc"/></svg>