<svg xmlns="http://www.w3.org/2000/svg" width="76" height="77.75"><path d="M11.896 37.75c2.577-5.179 7.567-8.932 13.509-9.792A19.914 19.914 0 0123.75 20c0-1.9.282-3.731.777-5.473C16.146 16.91 10 24.604 10 33.75c0 1.374.16 2.707.43 4h1.466z" fill-rule="evenodd" clip-rule="evenodd" fill="#666"/><path d="M64.426 51.087A17.9 17.9 0 0066 43.75c0-9.941-8.059-18.001-18-18.001-6.609 0-12.37 3.572-15.5 8.882a11.961 11.961 0 00-4.5-.881c-5.236 0-9.676 3.358-11.315 8.034-.228-.013-.454-.034-.685-.034-6.628 0-12 5.372-12 11.999 0 6.628 5.372 12 12 12h44a8 8 0 004.426-14.662z" fill-rule="evenodd" clip-rule="evenodd" fill="#999"/><path fill="#fc6" d="M46 57.75h-6l4.526-18L26 61.75h6l-2 16z"/></svg>