<svg xmlns="http://www.w3.org/2000/svg" width="64" height="64.001"><path d="M60.426 37.339A17.908 17.908 0 0062 30.001C62 20.06 53.94 12 44 12c-6.609 0-12.369 3.572-15.5 8.882a11.961 11.961 0 00-4.5-.881c-5.236 0-9.677 3.358-11.315 8.034-.228-.013-.453-.034-.685-.034-6.628 0-12 5.372-12 12 0 6.627 5.372 12 12 12h44a8 8 0 004.426-14.662z" fill-rule="evenodd" clip-rule="evenodd" fill="#999"/><path d="M15.956 6.045a.91.91 0 00-.681-.636l-4.358-.875L8.775.482A.883.883 0 008 0a.883.883 0 00-.776.482L5.083 4.534l-4.359.875a.91.91 0 00-.681.636.981.981 0 00.202.937l3.027 3.374-.548 4.584a.966.966 0 00.356.878c.155.12.34.182.525.182a.84.84 0 00.373-.087L8 13.943l4.021 1.97a.836.836 0 00.373.087c.186 0 .37-.062.525-.182a.964.964 0 00.356-.878l-.549-4.585 3.027-3.374a.975.975 0 00.203-.936zM42 44.001h-6l4.526-18-18.526 22h6l-2 16z" fill="#fc6"/></svg>