<svg xmlns="http://www.w3.org/2000/svg" width="84" height="86.036"><path d="M61.096 62.27a14.148 14.148 0 001.279-5.87c0-7.954-6.548-14.4-14.625-14.4a14.65 14.65 0 00-12.594 7.104A9.857 9.857 0 0031.5 48.4c-4.254 0-7.862 2.687-9.193 6.428-.186-.01-.369-.027-.557-.027-5.385 0-9.75 4.298-9.75 9.6S16.365 74 21.75 74H57.5c3.59 0 6.5-2.866 6.5-6.4 0-2.226-1.154-4.184-2.904-5.33z" fill-rule="evenodd" clip-rule="evenodd" fill="#ccc"/><path d="M13.861 50.242a30.117 30.117 0 01-3.003-3.883c-5.438 1.327-9.483 6.297-9.483 12.24 0 1.832.395 3.566 1.088 5.136A5.615 5.615 0 000 68.399C0 71.492 2.463 74 5.5 74h4.021A15.92 15.92 0 016 64c0-5.862 3.159-10.974 7.861-13.758z" fill-rule="evenodd" clip-rule="evenodd" fill="#999"/><path d="M34.527 22.777C26.146 25.16 20 32.854 20 42c0 1.373.153 2.706.422 3.999h.966a18.872 18.872 0 0110.893-3.967 21.036 21.036 0 014.437-3.332 19.826 19.826 0 01-2.967-10.45c-.001-1.9.281-3.731.776-5.473z" fill-rule="evenodd" clip-rule="evenodd" fill="#666"/><path d="M31 64.24c-.957-.571-2.18-.232-2.732.758l-6 9.933c-.552.99-.225 2.257.732 2.828.956.571 2.18.232 2.731-.758l6.001-9.932c.552-.991.224-2.256-.732-2.829zm12 0c-.957-.571-2.18-.232-2.732.758l-10 17.933c-.552.99-.225 2.257.732 2.828.956.571 2.18.232 2.732-.758l9.999-17.932c.553-.991.225-2.256-.731-2.829zm12 0c-.957-.571-2.18-.232-2.732.758l-6 9.933c-.552.99-.225 2.257.732 2.828s2.18.232 2.732-.758l6-9.932c.552-.991.224-2.256-.732-2.829z" fill-rule="evenodd" clip-rule="evenodd" fill="#48a0dc"/></svg>