<svg xmlns="http://www.w3.org/2000/svg" width="64" height="64.037"><path d="M60.426 37.339A17.908 17.908 0 0062 30.001c0-9.941-8.059-18-18-18-6.608 0-12.369 3.572-15.5 8.881a11.961 11.961 0 00-4.5-.881c-5.236 0-9.677 3.358-11.315 8.034-.228-.013-.453-.034-.685-.034-6.628 0-12 5.372-12 12 0 6.627 5.372 12 12 12h44a8 8 0 004.426-14.662z" fill-rule="evenodd" clip-rule="evenodd" fill="#ccc"/><path d="M15.956 6.045a.91.91 0 00-.681-.636l-4.358-.875L8.775.481A.884.884 0 008 0a.884.884 0 00-.776.481L5.083 4.534l-4.359.875a.91.91 0 00-.681.636.981.981 0 00.202.937l3.027 3.374-.548 4.584a.967.967 0 00.356.878c.155.12.34.182.525.182a.84.84 0 00.373-.087L8 13.943l4.021 1.97a.854.854 0 00.898-.095.965.965 0 00.356-.878l-.549-4.585 3.027-3.374a.975.975 0 00.203-.936z" fill="#fc6"/><path d="M25 42.241c-.957-.571-2.18-.232-2.732.758l-6 9.933c-.552.99-.225 2.257.732 2.828.956.571 2.18.232 2.731-.758l6-9.932c.553-.991.226-2.257-.731-2.829zm12 0c-.957-.571-2.18-.232-2.732.758l-10 17.933c-.552.99-.225 2.257.732 2.828s2.18.232 2.732-.758l9.999-17.932c.553-.991.225-2.257-.731-2.829zm12 0c-.957-.571-2.18-.232-2.732.758l-6 9.933c-.552.99-.225 2.257.732 2.828.956.571 2.18.232 2.731-.758l6-9.932c.553-.991.225-2.257-.731-2.829z" fill-rule="evenodd" clip-rule="evenodd" fill="#48a0dc"/></svg>