<svg xmlns="http://www.w3.org/2000/svg" width="66" height="64.036"><path d="M34.25 0c-4.546 0-8.508 2.503-10.659 6.222A8.068 8.068 0 0020.5 5.6c-3.602 0-6.632 2.364-7.757 5.64-.166-.01-.325-.04-.493-.04C7.693 11.199 4 14.96 4 19.6c0 1.933.646 3.708 1.725 5.126a13.9 13.9 0 017.625-2.692C15.592 17.289 20.405 14 26 14c1.271 0 2.497.185 3.668.502 3.408-4.818 8.881-8.073 15.145-8.442C42.641 2.431 38.729 0 34.25 0z" fill-rule="evenodd" clip-rule="evenodd" fill="#999"/><path d="M62.426 37.337A17.9 17.9 0 0064 30c0-9.941-8.059-18-18-18-6.608 0-12.369 3.572-15.5 8.88a11.965 11.965 0 00-4.5-.881c-5.236 0-9.676 3.359-11.315 8.035-.228-.013-.454-.034-.685-.034-6.628 0-12 5.372-12 11.999 0 6.628 5.372 12 12 12h44a8 8 0 004.426-14.662z" fill-rule="evenodd" clip-rule="evenodd" fill="#ccc"/><path d="M27 42.24c-.957-.571-2.18-.232-2.732.758l-6 9.933c-.552.99-.225 2.257.732 2.828.956.571 2.18.232 2.731-.758l6.001-9.932c.552-.991.224-2.256-.732-2.829zm12 0c-.957-.571-2.18-.232-2.732.758l-10 17.933c-.552.99-.225 2.257.732 2.828.956.571 2.18.232 2.731-.758l10-17.932c.553-.991.225-2.256-.731-2.829zm12 0c-.957-.571-2.18-.232-2.732.758l-6 9.933c-.552.99-.225 2.257.732 2.828.956.571 2.18.232 2.732-.758l6-9.932c.552-.991.224-2.256-.732-2.829z" fill-rule="evenodd" clip-rule="evenodd" fill="#48a0dc"/></svg>