<svg xmlns="http://www.w3.org/2000/svg" width="66" height="64"><path d="M7.694 26.412C10.559 20.269 16.773 16 24 16c.974 0 1.923.099 2.856.248a22.129 22.129 0 011.717-1.928c-.062-.169-.115-.343-.183-.51.229-.399.517-.809.89-1.024.533-.308.95-.304 1.383-.278a22.13 22.13 0 013.067-1.964c.123-.551.099-1.127-.142-1.544-3.623 2.092-4.078-.244-5.996.863-.482.278-.768.66-.975 1.027-.518-.617-1.078-1.195-1.714-1.691-.005-.466.039-.975.259-1.354.712-1.234 1.71-.713 2.661-2.36.51-.883.08-2.552-.823-3.073-2.092 3.623-3.654 1.828-4.762 3.746-.277.481-.333.954-.331 1.374-.75-.279-1.523-.509-2.34-.623-.231-.398-.442-.853-.442-1.284 0-1.425 1.125-1.472 1.125-3.374C20.25 1.23 19.043 0 18 0c0 4.184-2.25 3.41-2.25 5.624 0 .535.176.958.377 1.313-.807.137-1.569.38-2.304.68-.403-.229-.819-.521-1.037-.897-.712-1.234.238-1.837-.713-3.485-.51-.883-2.17-1.345-3.073-.825 2.092 3.624-.244 4.079.863 5.997.279.483.663.77 1.029.978-.619.516-1.2 1.076-1.698 1.711-.465.004-.972-.04-1.35-.258-1.234-.713-.712-1.711-2.36-2.662-.882-.51-2.551-.08-3.073.824 3.623 2.092 1.828 3.653 3.746 4.761.477.274.943.331 1.361.331-.281.752-.513 1.529-.628 2.349-.394.229-.841.435-1.266.435-1.426 0-1.473-1.125-3.375-1.125C1.23 15.75 0 16.957 0 18c4.184 0 3.41 2.25 5.625 2.25.527 0 .944-.172 1.299-.37.137.809.384 1.572.686 2.308-.229.4-.517.81-.89 1.025-1.234.713-1.837-.238-3.485.713-.883.51-1.345 2.17-.823 3.073 3.129-1.807 3.896-.314 5.282-.587z" fill-rule="evenodd" clip-rule="evenodd" fill="#fc6"/><path d="M60.426 39.338A17.908 17.908 0 0062 32c0-9.941-8.06-18-18-18-6.608 0-12.369 3.572-15.5 8.88a11.965 11.965 0 00-4.5-.881c-5.236 0-9.676 3.359-11.315 8.035-.228-.013-.454-.034-.685-.034-6.628 0-12 5.372-12 12 0 6.627 5.372 12 12 12h44a8 8 0 004.426-14.662z" fill-rule="evenodd" clip-rule="evenodd" fill="#999"/><path fill="#fc6" d="M42 44h-6l4.526-18L22 48h6l-2 16z"/></svg>