<svg xmlns="http://www.w3.org/2000/svg" width="70" height="64.036"><path d="M61.096 40.27a14.148 14.148 0 001.279-5.87c0-7.954-6.548-14.4-14.625-14.4-5.37 0-10.05 2.857-12.593 7.104A9.863 9.863 0 0031.5 26.4c-4.254 0-7.862 2.687-9.194 6.428-.185-.01-.368-.027-.556-.027-5.385 0-9.75 4.298-9.75 9.6S16.365 52 21.75 52H57.5c3.59 0 6.5-2.866 6.5-6.4 0-2.226-1.154-4.184-2.904-5.33z" fill-rule="evenodd" clip-rule="evenodd" fill="#ccc"/><path d="M1.375 36.6c0 1.832.395 3.566 1.088 5.136A5.612 5.612 0 000 46.399C0 49.492 2.463 52 5.5 52h4.021A15.92 15.92 0 016 42c0-8.343 6.386-15.186 14.535-15.926a12.104 12.104 0 00-6.785-2.075c-6.835 0-12.375 5.642-12.375 12.601z" fill-rule="evenodd" clip-rule="evenodd" fill="#999"/><path d="M55.589 8.999c-3.623 2.093-4.079-.243-5.997.864-.482.278-.767.661-.975 1.026-.518-.616-1.078-1.194-1.714-1.69-.005-.466.04-.975.259-1.354.713-1.234 1.71-.712 2.661-2.36.51-.883.08-2.552-.823-3.073-2.092 3.623-3.653 1.828-4.761 3.746-.278.481-.334.954-.331 1.374-.75-.279-1.524-.509-2.34-.624-.232-.397-.443-.853-.443-1.282 0-1.426 1.125-1.473 1.125-3.375C42.25 1.23 41.043 0 40 0c0 4.183-2.25 3.41-2.25 5.625 0 .534.176.956.377 1.313-.806.137-1.568.38-2.304.68-.403-.229-.819-.521-1.036-.897-.713-1.234.238-1.837-.714-3.485-.51-.884-2.17-1.346-3.073-.826 2.092 3.624-.243 4.079.864 5.997.278.483.662.77 1.029.977-.62.517-1.201 1.077-1.699 1.712-.465.004-.972-.04-1.349-.258-1.234-.713-.713-1.711-2.36-2.662-.884-.51-2.552-.08-3.073.823 3.623 2.093 1.828 3.654 3.746 4.762.476.274.943.331 1.36.331-.281.752-.513 1.529-.627 2.349-.395.228-.842.435-1.267.435-1.426 0-1.473-1.125-3.375-1.125-1.02 0-2.25 1.206-2.25 2.249 4.184 0 3.41 2.25 5.625 2.25.527 0 .944-.171 1.299-.368.023.139.067.271.097.407.967-.184 1.96-.289 2.98-.289.293 0 .579.028.868.044a21.905 21.905 0 0117.643-5.898c-.042-.11-.076-.227-.121-.336.228-.399.516-.809.889-1.024 1.234-.712 1.838.238 3.485-.713.883-.51 1.346-2.17.825-3.074z" fill-rule="evenodd" clip-rule="evenodd" fill="#fc6"/><path d="M31 42.24c-.957-.571-2.18-.232-2.732.758l-6 9.933c-.552.99-.225 2.257.732 2.828.956.571 2.18.232 2.731-.758l6-9.932c.553-.991.225-2.256-.731-2.829zm12 0c-.957-.571-2.18-.232-2.732.758l-10 17.933c-.552.99-.225 2.257.732 2.828.956.571 2.18.232 2.731-.758l10-17.932c.553-.991.226-2.256-.731-2.829zm12 0c-.957-.571-2.18-.232-2.732.758l-6 9.933c-.552.99-.225 2.257.732 2.828.956.571 2.18.232 2.731-.758l6-9.932c.553-.991.225-2.256-.731-2.829z" fill-rule="evenodd" clip-rule="evenodd" fill="#48a0dc"/></svg>