<svg xmlns="http://www.w3.org/2000/svg" width="64" height="64.036"><path d="M60.426 25.337A17.908 17.908 0 0062 17.999C62 8.059 53.94 0 44 0c-6.609 0-12.37 3.572-15.5 8.881A11.942 11.942 0 0024 8c-5.236 0-9.676 3.358-11.315 8.034-.228-.013-.454-.034-.685-.034-6.628 0-12 5.372-12 12 0 6.627 5.372 12 12 12h44a8 8 0 004.426-14.663z" fill-rule="evenodd" clip-rule="evenodd" fill="#ccc"/><path d="M23 42.24c-.957-.571-2.18-.232-2.732.758l-6 9.933c-.552.99-.225 2.257.732 2.828.957.571 2.18.232 2.732-.758l6-9.932c.552-.991.225-2.256-.732-2.829zm12 0c-.957-.571-2.18-.232-2.732.758l-10 17.933c-.553.99-.225 2.257.732 2.828s2.18.232 2.732-.758l10-17.932c.552-.991.225-2.256-.732-2.829zm12 0c-.957-.571-2.18-.232-2.732.758l-6 9.933c-.552.99-.224 2.257.732 2.828s2.18.232 2.732-.758l6-9.932c.552-.991.225-2.256-.732-2.829z" fill-rule="evenodd" clip-rule="evenodd" fill="#54bbff"/></svg>