<svg xmlns="http://www.w3.org/2000/svg" width="70" height="66.001"><path d="M61.096 44.271a14.148 14.148 0 001.279-5.87c0-7.953-6.548-14.399-14.625-14.399a14.65 14.65 0 00-12.594 7.104 9.857 9.857 0 00-3.656-.704c-4.254 0-7.861 2.687-9.193 6.427-.186-.01-.369-.027-.557-.027C16.365 36.8 12 41.099 12 46.4s4.365 9.6 9.75 9.6H57.5c3.59 0 6.5-2.864 6.5-6.399 0-2.226-1.154-4.184-2.904-5.33z" fill-rule="evenodd" clip-rule="evenodd" fill="#ccc"/><path d="M1.375 40.601c0 1.832.395 3.567 1.088 5.135A5.615 5.615 0 000 50.4C0 53.493 2.463 56 5.5 56h4.021A15.918 15.918 0 016 46.001c0-8.343 6.386-15.186 14.535-15.926A12.107 12.107 0 0013.75 28C6.916 28 1.375 33.642 1.375 40.601z" fill-rule="evenodd" clip-rule="evenodd" fill="#999"/><path d="M50.375 15.75c-.527 0-.944.172-1.299.37a10.916 10.916 0 00-.686-2.309c.228-.398.516-.809.889-1.024 1.234-.713 1.838.238 3.485-.713.883-.511 1.346-2.17.824-3.073-3.623 2.092-4.079-.244-5.997.863-.482.278-.768.66-.975 1.026-.518-.616-1.078-1.194-1.714-1.69-.005-.466.039-.976.259-1.354.712-1.234 1.71-.712 2.661-2.36.51-.883.08-2.552-.823-3.073-2.092 3.623-3.653 1.828-4.761 3.746-.278.481-.334.954-.331 1.374-.75-.279-1.523-.509-2.341-.624-.231-.397-.442-.852-.442-1.282 0-1.426 1.125-1.473 1.125-3.375C40.25 1.23 39.043 0 38 0c0 4.184-2.25 3.411-2.25 5.626 0 .534.176.957.377 1.313-.807.137-1.569.381-2.304.68-.403-.229-.819-.521-1.036-.897-.713-1.234.237-1.837-.714-3.485-.51-.883-2.17-1.345-3.073-.823 2.092 3.623-.243 4.078.864 5.996.278.483.662.769 1.029.977-.62.517-1.201 1.077-1.699 1.712-.465.004-.972-.04-1.349-.258-1.234-.713-.713-1.711-2.361-2.662-.882-.51-2.552-.08-3.073.824 3.624 2.092 1.829 3.653 3.747 4.761.476.274.942.331 1.36.331-.28.752-.513 1.529-.627 2.349-.395.228-.842.435-1.267.435-1.426 0-1.473-1.126-3.375-1.126C21.23 15.75 20 16.957 20 18c4.184 0 3.41 2.251 5.625 2.251.527 0 .944-.172 1.299-.37.138.809.384 1.572.686 2.309-.228.399-.516.809-.889 1.024-1.234.713-1.838-.238-3.485.713-.884.51-1.346 2.17-.824 3.073a8.839 8.839 0 011.078-.531 15.903 15.903 0 018.511-2.468c.295 0 .582.028.873.044 3.942-3.741 9.263-6.044 15.127-6.044 2.615 0 5.122.459 7.448 1.296.327-.395.551-.858.551-1.296-4.184 0-3.41-2.251-5.625-2.251z" fill-rule="evenodd" clip-rule="evenodd" fill="#fc6"/></svg>