<svg xmlns="http://www.w3.org/2000/svg" width="76" height="77.75"><path d="M11.896 37.75c2.577-5.178 7.567-8.932 13.508-9.792A19.914 19.914 0 0123.749 20c0-1.9.282-3.732.777-5.474C16.145 16.909 10 24.604 10 33.75c0 1.374.16 2.707.43 4h1.466z" fill-rule="evenodd" clip-rule="evenodd" fill="#666"/><path d="M64.426 51.087A17.9 17.9 0 0066 43.75c0-9.941-8.06-18-18-18-6.608 0-12.369 3.572-15.5 8.88a11.965 11.965 0 00-4.5-.881c-5.236 0-9.676 3.359-11.315 8.034-.228-.013-.453-.034-.685-.034-6.628 0-12 5.372-12 12s5.372 12 12 12h44a8 8 0 004.426-14.662z" fill-rule="evenodd" clip-rule="evenodd" fill="#ccc"/><path d="M20 61.75h8a2 2 0 000-4h-8a2 2 0 000 4zm22 4H20a2 2 0 000 4h22a2 2 0 010 4 2 2 0 000 4 6 6 0 000-12zm8-16a2 2 0 000 4 2 2 0 010 4H36a2 2 0 000 4h14a6 6 0 000-12z" fill-rule="evenodd" clip-rule="evenodd" fill="#48a0dc"/></svg>