<svg xmlns="http://www.w3.org/2000/svg" width="66" height="64"><path d="M34.25 0c-4.545 0-8.508 2.502-10.659 6.221A8.093 8.093 0 0020.5 5.6c-3.601 0-6.631 2.364-7.757 5.641-.166-.011-.325-.041-.493-.041C7.694 11.2 4 14.962 4 19.6c0 1.933.646 3.708 1.725 5.126a13.89 13.89 0 017.625-2.693C15.592 17.289 20.406 14 26 14c1.271 0 2.497.185 3.668.502 3.408-4.818 8.881-8.073 15.145-8.442C42.64 2.431 38.729 0 34.25 0z" fill-rule="evenodd" clip-rule="evenodd" fill="gray"/><path d="M62.426 37.337A17.9 17.9 0 0064 30c0-9.941-8.06-18.001-18-18.001-6.608 0-12.37 3.572-15.5 8.882A11.945 11.945 0 0026 20c-5.235 0-9.676 3.358-11.315 8.034C14.457 28.021 14.23 28 14 28 7.372 28 2 33.372 2 39.999c0 6.628 5.373 12 12 12h44a8 8 0 004.426-14.662z" fill-rule="evenodd" clip-rule="evenodd" fill="#999"/><path fill="#fc6" d="M44 44h-6l4.526-18L24 48h6l-2 16z"/></svg>