<svg xmlns="http://www.w3.org/2000/svg" width="70" height="63.684"><path d="M61.096 40.27a14.148 14.148 0 001.279-5.87c0-7.953-6.548-14.4-14.625-14.4a14.646 14.646 0 00-12.593 7.104A9.863 9.863 0 0031.5 26.4c-4.254 0-7.862 2.687-9.194 6.428-.185-.01-.368-.027-.556-.027-5.385 0-9.75 4.298-9.75 9.6S16.365 52 21.75 52H57.5c3.59 0 6.5-2.866 6.5-6.4 0-2.226-1.154-4.184-2.904-5.33z" fill-rule="evenodd" clip-rule="evenodd" fill="#ccc"/><path d="M1.375 36.6c0 1.832.395 3.567 1.088 5.135A5.615 5.615 0 000 46.399C0 49.492 2.463 52 5.5 52h4.021A15.92 15.92 0 016 42c0-8.343 6.386-15.186 14.535-15.926A12.12 12.12 0 0013.75 24C6.915 24 1.375 29.641 1.375 36.6z" fill-rule="evenodd" clip-rule="evenodd" fill="#999"/><path d="M55.589 9c-3.623 2.092-4.079-.244-5.997.863-.482.278-.767.66-.975 1.027-.518-.617-1.078-1.195-1.714-1.691-.005-.466.04-.975.259-1.354.713-1.234 1.71-.712 2.661-2.36.51-.883.08-2.552-.823-3.073-2.092 3.623-3.653 1.828-4.761 3.746-.278.481-.334.954-.331 1.374-.75-.279-1.524-.509-2.34-.624-.232-.397-.443-.852-.443-1.282 0-1.426 1.125-1.473 1.125-3.375C42.25 1.23 41.043 0 40 0c0 4.184-2.25 3.409-2.25 5.625 0 .534.176.956.377 1.313-.806.136-1.568.379-2.304.679-.403-.229-.819-.521-1.036-.897-.713-1.234.238-1.837-.714-3.485-.51-.883-2.17-1.346-3.073-.823 2.092 3.623-.243 4.078.864 5.996.278.483.662.77 1.029.978-.62.516-1.201 1.076-1.699 1.711-.465.004-.972-.04-1.349-.258-1.234-.713-.713-1.711-2.36-2.662-.884-.51-2.552-.08-3.073.824 3.623 2.092 1.828 3.653 3.746 4.761.476.274.943.331 1.36.331-.281.752-.513 1.529-.627 2.349-.395.229-.842.435-1.267.435-1.426 0-1.473-1.125-3.375-1.125-1.02 0-2.25 1.206-2.25 2.249 4.184 0 3.41 2.251 5.625 2.251.527 0 .944-.172 1.299-.369.023.139.067.271.097.407.967-.185 1.96-.29 2.98-.29.293 0 .579.028.868.044a21.905 21.905 0 0117.643-5.898c-.042-.11-.075-.226-.12-.335.228-.4.516-.81.889-1.025 1.234-.712 1.838.238 3.485-.713.882-.51 1.345-2.171.824-3.073z" fill-rule="evenodd" clip-rule="evenodd" fill="#fc6"/><path d="M19.301 63.684l3.769-1.069s.78-6.592.761-6.603c-.01-.006-5.468 3.945-5.468 3.945l.938 3.727zm35.061-3.727l.938 3.727 3.769-1.069s.78-6.592.761-6.603c-.01-.006-5.468 3.945-5.468 3.945zm-17.061 3.727l3.769-1.069s.78-6.592.761-6.603c-.01-.006-5.468 3.945-5.468 3.945l.938 3.727z" fill-rule="evenodd" clip-rule="evenodd" fill="#54bbff"/></svg>