<svg xmlns="http://www.w3.org/2000/svg" width="64" height="64.001"><path d="M60.426 49.339A17.908 17.908 0 0062 42.001C62 32.06 53.94 24 44 24c-6.609 0-12.369 3.572-15.5 8.882a11.961 11.961 0 00-4.5-.881c-5.236 0-9.676 3.357-11.315 8.033-.228-.013-.454-.034-.685-.034-6.628 0-12 5.373-12 12.001 0 6.627 5.372 12 12 12h44a8 8 0 004.426-14.662z" fill-rule="evenodd" clip-rule="evenodd" fill="#ccc"/><path d="M19.944 7.556a1.131 1.131 0 00-.851-.795l-5.448-1.092L10.968.603A1.098 1.098 0 0010 0c-.402 0-.773.23-.971.603L6.354 5.669.905 6.761c-.399.08-.725.385-.85.795s-.029.859.252 1.172l3.784 4.217-.687 5.73c-.051.425.12.846.445 1.098.195.15.425.227.657.227.159 0 .318-.036.467-.108L10 17.429l5.025 2.463a1.065 1.065 0 001.123-.12c.326-.252.497-.673.446-1.098l-.687-5.73 3.785-4.217c.281-.312.377-.761.252-1.171z" fill="#fc6"/></svg>