<svg xmlns="http://www.w3.org/2000/svg" width="64" height="63.987"><path d="M60 0H4a4 4 0 00-4 3.999v55.988a4 4 0 004 4h56a4 4 0 004-4V3.999A4 4 0 0060 0z" fill="#ccc"/><path d="M26 8.06a2 2 0 00-2 1.998v5.99h-6v-5.99a1.999 1.999 0 00-4 0v15.975a2 2 0 104 0v-5.99h6v5.99a2 2 0 104 0V10.058a1.999 1.999 0 00-2-1.998zm23.858 17.123l-5.76-15.705a2.089 2.089 0 00-1.565-1.326 2.102 2.102 0 00-2.631 1.273l-5.761 15.802a2.101 2.101 0 001.259 2.694 2.107 2.107 0 002.698-1.257l.958-2.629h5.9l.945 2.575a2.108 2.108 0 002.698 1.249 2.083 2.083 0 001.259-2.676zm-9.346-5.141l1.485-4.074 1.495 4.074h-2.98zM24 49.995h-4.772l6.504-12.949c.106-.186.171-.383.214-.581l.017-.077c.016-.088.023-.175.027-.264.001-.036.01-.07.01-.107 0-.021-.006-.042-.006-.063-.002-.052-.009-.103-.016-.155a1.972 1.972 0 00-.045-.268l-.011-.035a1.988 1.988 0 00-1.292-1.363h-.001a1.937 1.937 0 00-.374-.086l-.025-.002c-.077-.009-.152-.023-.231-.023h-8c-1.104 0-2 .894-2 1.996 0 1.104.896 1.997 2 1.997h4.771l-6.503 12.949a1.984 1.984 0 00-.215.589 1.465 1.465 0 00-.042.339c-.002.034-.01.066-.01.1 0 .021.005.039.006.06.002.056.01.111.017.167.01.087.022.173.042.256.004.017.011.032.015.049a1.987 1.987 0 001.67 1.44l.005.001c.081.01.161.024.244.024h8c1.104 0 2-.895 2-1.997s-.895-1.997-1.999-1.997zm24 0H38v-3.994h6c1.104 0 2-.894 2-1.997a1.998 1.998 0 00-2-1.996h-6v-3.994h10a1.997 1.997 0 000-3.994H36c-1.105 0-2 .894-2 1.997v15.975c0 1.104.895 1.998 2 1.998h12a1.998 1.998 0 000-3.995z" fill-rule="evenodd" clip-rule="evenodd" fill="#fff"/></svg>