<svg xmlns="http://www.w3.org/2000/svg" width="64" height="31.993"><path d="M60 0H4a4 4 0 00-4 3.999v23.995a4 4 0 004 3.999h56a4 4 0 004-3.999V3.999A4 4 0 0060 0z" fill="#ed7161"/><path d="M20 5.999a2 2 0 00-2 1.999v5.999h-6V7.998a2 2 0 00-4 0v15.997a2 2 0 004 0v-5.999h6v5.999a2 2 0 004 0V7.998a2 2 0 00-2-1.999zm13 0c-3.866 0-7 3.133-7 6.998v5.999a7 7 0 0014 0v-5.999a6.999 6.999 0 00-7-6.998zm3 12.997a3 3 0 01-6 0v-5.999a3 3 0 016 0v5.999zM54 5.999h-8a2 2 0 100 3.999h2v13.997a2 2 0 004 0V9.998h2a2 2 0 000-3.999z" fill-rule="evenodd" clip-rule="evenodd" fill="#fff"/></svg>