<svg xmlns="http://www.w3.org/2000/svg" width="64" height="31.993"><path d="M60 0H4a4 4 0 00-4 3.999v23.995a4 4 0 004 3.999h56a4 4 0 004-3.999V3.999A4 4 0 0060 0z" fill="#48a0dc"/><path d="M14 5.999a2 2 0 00-2 1.999v15.997a2 2 0 004 0V7.998a2 2 0 00-2-1.999z" fill="#fff"/><path d="M32 13.997a2 2 0 002-2v-.006c0-3.865-3.135-5.992-7-5.992-3.866 0-7 3.133-7 6.998v5.999a7 7 0 007 6.999c3.864 0 6.997-2.137 7-5.999a2 2 0 00-4 0c-.003 1.651-1.345 1.999-3 1.999a3 3 0 01-3-2.999v-5.999a3 3 0 013-2.999c1.656 0 3 .337 3 1.993v.006a2 2 0 002 2zm21.411-7.41a2.064 2.064 0 00-2.92 0l-4.482 4.481-4.479-4.477a2.076 2.076 0 00-2.938 0 2.076 2.076 0 000 2.938L44 14.936v9.06a2 2 0 004 0v-9.078l5.411-5.41a2.065 2.065 0 000-2.921z" fill-rule="evenodd" clip-rule="evenodd" fill="#fff"/></svg>