<svg xmlns="http://www.w3.org/2000/svg" width="72" height="64.001"><path d="M40 42.001H22a6 6 0 010-12h2.349a5.97 5.97 0 01-.349-2 6 6 0 016-6h10c0-7.458 5.835-13.535 13.186-13.959C47.543 3.044 40.132 0 32 0 14.326 0 0 14.327 0 32c0 17.674 14.326 32.001 32 32.001 8.131 0 15.54-3.044 21.182-8.041C45.832 55.533 40 49.456 40 42.001z" fill-rule="evenodd" clip-rule="evenodd" fill="#ccc"/><path d="M30 22.001h4c0-5.523-4.478-10-10-10-5.523 0-10 4.477-10 10a9.99 9.99 0 005.13 8.73 5.965 5.965 0 012.87-.73h2.353a5.944 5.944 0 01-.353-2 6 6 0 016-6zM32 46a4 4 0 100 8 4 4 0 000-8zm-18-9.999a2 2 0 100 4 2 2 0 000-4z" fill-rule="evenodd" clip-rule="evenodd" fill="#b3b3b3"/><path d="M54.727 34.001H22.061c-1.139 0-2.061.895-2.061 2 0 1.104.922 2 2.061 2h32.666c2.846 0 5.152 2.238 5.152 5 0 2.761-2.307 5-5.152 5s-5.151-2.239-5.151-5c0-1.105-.923-2-2.061-2s-2.061.895-2.061 2c0 4.97 4.151 9 9.272 9s9.273-4.03 9.273-9c.001-4.971-4.151-9-9.272-9zm0-22c-5.121 0-9.272 4.029-9.272 9 0 1.104.923 2 2.061 2s2.061-.896 2.061-2c0-2.762 2.307-5 5.151-5 2.846 0 5.152 2.238 5.152 5s-2.307 5-5.152 5H30.061c-1.139 0-2.061.896-2.061 2s.922 2 2.061 2h24.666c5.121 0 9.273-4.029 9.273-9s-4.152-9-9.273-9z" fill-rule="evenodd" clip-rule="evenodd" fill="#72c1f7"/></svg>