<svg xmlns="http://www.w3.org/2000/svg" width="86" height="86"><path d="M54 64c-17.673 0-32-14.327-32-32 0-3.044.434-5.984 1.228-8.773C9.821 27.042 0 39.37 0 54c0 17.673 14.327 32 32 32 14.629 0 26.958-9.821 30.772-23.228A31.982 31.982 0 0154 64z" fill-rule="evenodd" clip-rule="evenodd" fill="#ccc"/><path d="M22.59 38.111C17.736 38.798 14 42.957 14 48c0 5.522 4.477 10 10 10a9.962 9.962 0 007.427-3.321 31.926 31.926 0 01-8.837-16.568z" fill-rule="evenodd" clip-rule="evenodd" fill="#b3b3b3"/><circle cx="32" cy="72" r="4" fill="#b3b3b3"/><path d="M63.944 29.555a1.129 1.129 0 00-.85-.794l-5.448-1.094-2.678-5.065c-.195-.372-.566-.603-.969-.603s-.773.23-.97.603l-2.677 5.065-5.448 1.094c-.4.079-.726.384-.851.794-.125.41-.028.859.252 1.172l3.784 4.217-.687 5.73c-.051.425.12.846.446 1.098a1.051 1.051 0 001.122.119L54 39.429l5.025 2.461a1.062 1.062 0 001.123-.119c.326-.252.497-.673.446-1.098l-.687-5.73 3.785-4.217c.281-.312.377-.761.252-1.171z" fill="#fc6"/></svg>