<svg xmlns="http://www.w3.org/2000/svg" width="70" height="64.001"><path d="M32 0C14.326 0 0 14.327 0 32c0 17.674 14.326 32.001 32 32.001a31.82 31.82 0 0015.457-4H32c-6.628 0-12-5.383-12-12.021 0-6.112 4.559-11.149 10.454-11.91A10.968 10.968 0 0139 31.982c.758 0 1.497.077 2.212.223 2.846-2.602 6.625-4.203 10.788-4.203 4.767 0 9.033 2.093 11.965 5.396.019-.464.035-.929.035-1.398C64 14.327 49.673 0 32 0z" fill-rule="evenodd" clip-rule="evenodd" fill="#ccc"/><path d="M52 24.001a5.996 5.996 0 00-5.336 3.263c1.609-.801 3.417-1.263 5.336-1.263s3.727.462 5.335 1.263A5.994 5.994 0 0052 24.001zM32 46a4.001 4.001 0 10.002 8.002A4.001 4.001 0 0032 46zm-18-9.999a2 2 0 100 4 2 2 0 000-4zm20-14c0-5.523-4.478-10-10-10-5.523 0-10 4.477-10 10 0 5.522 4.477 10 10 10 5.522 0 10-4.478 10-10z" fill-rule="evenodd" clip-rule="evenodd" fill="#b3b3b3"/><path d="M61.766 47.205c.628-1.347.984-2.834.984-4.404C62.75 36.836 57.713 32 51.5 32c-4.13 0-7.73 2.144-9.688 5.329a7.743 7.743 0 00-2.813-.528c-3.272 0-6.048 2.016-7.072 4.82-.143-.008-.283-.021-.428-.021-4.143 0-7.5 3.224-7.5 7.2s3.357 7.2 7.5 7.2H59c2.761 0 5-2.149 5-4.801 0-1.667-.889-3.135-2.234-3.994z" fill-rule="evenodd" clip-rule="evenodd" fill="#999"/></svg>