<svg xmlns="http://www.w3.org/2000/svg" width="54" height="64"><path d="M33 8c-1.225 0-2.33.457-3.199 1.187C29.918 8.81 30 8.416 30 8a4 4 0 00-4-4c-.797 0-1.536.24-2.16.642a5.996 5.996 0 10-11.094-1.538A3.978 3.978 0 0010 2a4 4 0 100 8 3.978 3.978 0 002.746-1.104c.086.156.178.309.277.456A3.973 3.973 0 0012 12a4 4 0 004 4 3.96 3.96 0 002.483-.887C19.281 16.814 20.996 18 23 18a5 5 0 005-5c0-.5-.096-.973-.232-1.429a4 4 0 00.569-.337A4.96 4.96 0 0028 13c0 2.762 2.238 5 5 5s5-2.238 5-5-2.238-5-5-5zM2 8a2 2 0 10.001 4.001A2 2 0 002 8z" fill-rule="evenodd" clip-rule="evenodd" fill="#fc6"/><path d="M42.143 22v-2H13.857v2S15.035 44.5 6 56h44c-9.036-11.5-7.857-34-7.857-34z" fill="#ccc"/><path d="M50 56H6a4 4 0 000 8h44a4 4 0 000-8zm-8-42H14a4 4 0 000 8h28a4 4 0 000-8z" fill="#b3b3b3"/></svg>