<svg xmlns="http://www.w3.org/2000/svg" width="64" height="64.001"><path d="M32 10.001c-12.15 0-22 9.85-22 22h6.023c0-8.824 7.152-15.977 15.977-15.977 8.823 0 15.977 7.152 15.977 15.977H54c0-12.15-9.85-22-22-22z" fill-rule="evenodd" clip-rule="evenodd" fill="#387aa7"/><path d="M32 6.001c-14.359 0-26 11.641-26 26h6.012c0-11.039 8.949-19.988 19.988-19.988s19.988 8.949 19.988 19.988H58c0-14.359-11.641-26-26-26z" fill-rule="evenodd" clip-rule="evenodd" fill="#88c057"/><path d="M32 2.001c-16.568 0-30 13.431-30 30h6c0-13.255 10.745-24 24-24s24 10.745 24 24h6c0-16.569-13.432-30-30-30z" fill-rule="evenodd" clip-rule="evenodd" fill="#fc6"/><path d="M32 0C14.326 0 0 14.327 0 32.001h4c0-15.465 12.536-28 28-28s28 12.535 28 28h4C64 14.327 49.673 0 32 0z" fill-rule="evenodd" clip-rule="evenodd" fill="#ed7161"/></svg>