<svg xmlns="http://www.w3.org/2000/svg" width="55.522" height="63.998"><path d="M10.772 46.001c-4.545-7.777 2.521-14.203 2.521-14.203l-7.8-2.2C-4.892 40.278 2.637 50 2.637 50c8.341 11.563 2.034 13.998 2.034 13.998h20.34c0-8.852-8.848-8.772-14.239-17.997zm24.41 17.997h20.341c0-8.853-7.864-9.4-14.239-17.997-1.875-2.529-.39-7.203-.39-7.203l-7.6-2.6C28.692 43.191 33.147 50 33.147 50c8.341 11.563 2.035 13.998 2.035 13.998z" fill-rule="evenodd" clip-rule="evenodd" fill="#ccc"/><path d="M13.601 23.168L9.65 22.141c-1.091-.284-2.212.345-2.504 1.403l-1.589 5.749c-.292 1.059.355 2.147 1.446 2.431l3.951 1.026c1.091.284 2.213-.345 2.505-1.402l1.588-5.75c.292-1.058-.355-2.147-1.446-2.43zm27.657 7.189l-3.951-1.027c-1.091-.284-2.213.345-2.505 1.403l-1.588 5.749c-.292 1.059.355 2.146 1.446 2.431l3.95 1.026c1.092.284 2.213-.345 2.506-1.403l1.588-5.749c.292-1.058-.355-2.146-1.446-2.43z" fill-rule="evenodd" clip-rule="evenodd" fill="#4d4d4d"/><path d="M42.724 6.11L19.953.17c-2.183-.567-3.581.267-5.01 2.806l-4.093 7.152c-.585 2.117.71 4.293 2.893 4.86l26.773 6.878c2.132.563 4.324-.686 4.895-2.79l.139-8.134c-.011-2.578-.694-4.268-2.826-4.832z" fill="#3e87b9"/><path d="M38.649 9.138L22.845 5.03c-2.182-.567-3.58.266-5.01 2.806l-4.092 7.152c-.585 2.117.71 4.293 2.892 4.86l19.755 5.135c2.183.567 4.425-.689 5.01-2.806l.142-8.18c-.013-2.592-.711-4.292-2.893-4.859z" fill="#fff"/><path d="M46.409 19.372L10.85 10.128c-2.183-.567-4.426.689-5.01 2.807l-1.588 5.749-1.588 5.749 3.95 1.027h.001l8.186 2.128 31.323 8.144 1.388-5.025 1.789-6.475c.585-2.117-.71-4.294-2.892-4.86z" fill-rule="evenodd" clip-rule="evenodd" fill="#48a0dc"/><path fill="#6bbcf3" d="M5.841 12.935L2.665 24.433l43.46 11.298 3.177-11.5z"/><path d="M15.188 17.418l-3.95-1.026c-1.092-.284-2.213.344-2.505 1.402-.293 1.059.354 2.146 1.445 2.431l3.951 1.026c1.092.284 2.213-.344 2.505-1.402s-.354-2.147-1.446-2.431zm27.658 7.189l-3.951-1.026c-1.091-.284-2.212.344-2.505 1.402-.292 1.059.355 2.146 1.446 2.43l3.951 1.027c1.091.284 2.212-.344 2.505-1.402.292-1.059-.355-2.146-1.446-2.431z" fill-rule="evenodd" clip-rule="evenodd" fill="#fff"/></svg>