<svg xmlns="http://www.w3.org/2000/svg" width="64" height="59.988"><path d="M2 3.999h60A2 2 0 1062 0H2a2 2 0 000 3.999zm60 11.998H2a2 2 0 100 3.999h60a2 2 0 000-3.999zm0 15.996H2a2 2 0 000 4h60a2 2 0 000-4zm0 15.998H2a2 2 0 100 3.998h60a2 2 0 100-3.998z" fill-rule="evenodd" clip-rule="evenodd" fill="#999"/><path d="M2 11.997h60a2 2 0 100-3.999H2a2 2 0 000 3.999zm60 11.998H2a2 2 0 000 3.999h60a2 2 0 100-3.999zm0 15.997H2a2 2 0 000 3.999h60a2 2 0 000-3.999zm0 15.997H2a2 2 0 000 3.999h60a2 2 0 000-3.999z" fill-rule="evenodd" clip-rule="evenodd" fill="#ccc"/></svg>