<svg xmlns="http://www.w3.org/2000/svg" width="63.994" height="64.003"><path d="M57.87 35.998h2.094a3.997 3.997 0 100-7.992h-2.158l4.977-4.971a4.127 4.127 0 000-5.841 4.139 4.139 0 00-5.848 0L46.11 28.006h-2.833a11.921 11.921 0 00-.47-1.123l11.965-11.96a4.032 4.032 0 000-5.703 4.036 4.036 0 00-5.706 0L37.101 21.18a12.058 12.058 0 00-1.122-.47v-2.836l10.813-10.81a4.14 4.14 0 10-5.855-5.853l-4.958 4.956v-2.14A3.997 3.997 0 0031.981.032a3.997 3.997 0 00-3.997 3.995v2.141l-4.959-4.957a4.14 4.14 0 00-5.854 5.853l10.813 10.809v2.836c-.397.141-.783.306-1.16.486L15.021 9.396a3.997 3.997 0 00-5.653 5.65l11.804 11.799c-.18.376-.345.762-.486 1.16h-2.81L7.089 17.254a4.145 4.145 0 00-5.849 0 4.115 4.115 0 000 5.83l4.938 4.922H3.997a3.997 3.997 0 100 7.992h2.18L1.24 40.919a4.115 4.115 0 000 5.83 4.147 4.147 0 005.849 0l10.785-10.751h2.811c.136.384.297.756.47 1.121L9.127 49.143a4.034 4.034 0 105.706 5.704l12.028-12.023c.365.173.738.334 1.123.47v2.875L17.23 56.939a4.145 4.145 0 000 5.853 4.128 4.128 0 005.844 0l4.91-4.918v2.101a3.997 3.997 0 107.995 0v-2.163l4.972 4.98c1.614 1.616 4.23 1.616 5.844 0s1.613-4.236 0-5.853L35.979 46.106v-2.813c.397-.141.783-.306 1.16-.486l11.803 11.799a3.996 3.996 0 005.653 0 3.993 3.993 0 000-5.651L42.791 37.156c.18-.376.345-.761.485-1.158h2.897l10.762 10.749a4.14 4.14 0 005.848 0 4.128 4.128 0 000-5.842l-4.913-4.907zm-25.89 0a3.997 3.997 0 110-7.994 3.997 3.997 0 010 7.994z" fill-rule="evenodd" clip-rule="evenodd" fill="#54bbff"/></svg>