<svg xmlns="http://www.w3.org/2000/svg" width="55.993" height="64"><path d="M54.962 45.295l-4.367-2.521 3.36-.911a2.089 2.089 0 001.47-2.546 2.058 2.058 0 00-2.529-1.46l-7.358 1.997-6.34-3.66c.488-1.307.769-2.716.769-4.193 0-1.455-.272-2.844-.746-4.134l6.363-3.675 7.364 1.997a2.043 2.043 0 002.514-1.451 2.073 2.073 0 00-1.46-2.528l-3.391-.92 4.383-2.53a2 2 0 10-2-3.463l-4.367 2.521.891-3.366a2.087 2.087 0 00-1.469-2.545 2.056 2.056 0 00-2.529 1.46l-1.95 7.371-6.326 3.652a11.984 11.984 0 00-7.276-4.209v-7.26l5.411-5.412a2.064 2.064 0 000-2.92 2.064 2.064 0 00-2.92 0L29.968 7.08V2a2 2 0 00-4 0v5.061l-2.47-2.469A2.077 2.077 0 1020.56 7.53l5.408 5.409v7.24a11.984 11.984 0 00-7.257 4.185l-6.251-3.609-1.98-7.393a2.065 2.065 0 00-3.99 1.069l.912 3.403-4.398-2.54a2 2 0 10-2 3.463l4.383 2.53-3.373.904a2.079 2.079 0 001.076 4.014l7.387-1.979 6.25 3.608a11.956 11.956 0 00-.758 4.164c0 1.488.284 2.908.779 4.223l-6.255 3.611-7.394-1.981a2.064 2.064 0 10-1.068 3.989l3.403.912-4.399 2.54a2 2 0 101.997 3.466l4.382-2.53-.903 3.372a2.078 2.078 0 004.015 1.076l1.979-7.387 6.247-3.607a11.976 11.976 0 007.214 4.137v7.313l-5.412 5.379a2.044 2.044 0 000 2.902 2.076 2.076 0 002.921 0l2.491-2.476V62a2 2 0 004 0v-5.042l2.469 2.454a2.087 2.087 0 002.939 0 2.056 2.056 0 000-2.92l-5.408-5.374V43.82a11.977 11.977 0 007.235-4.161l6.352 3.667 1.952 7.376a2.042 2.042 0 002.513 1.451 2.074 2.074 0 001.46-2.529l-.898-3.396 4.383 2.53a1.999 1.999 0 101.999-3.463zM33.966 34v2a2 2 0 01-2 2h-2a2 2 0 01-4 0h-2a2 2 0 01-2-2v-2a2 2 0 010-4v-2a2 2 0 012-2h2a2 2 0 014 0h2a2 2 0 012 2v2a2 2 0 010 4z" fill-rule="evenodd" clip-rule="evenodd" fill="#54bbff"/></svg>