<svg xmlns="http://www.w3.org/2000/svg" width="63.993" height="63.938"><path d="M63.993 31.969a3.998 3.998 0 00-4-3.996h-6.158l4.979-4.971a4.125 4.125 0 000-5.841 4.143 4.143 0 00-5.852 0l-10.83 10.812h-6.137v-6.137l10.818-10.809a4.136 4.136 0 000-5.853 4.144 4.144 0 00-5.857 0l-4.961 4.957V3.996a3.998 3.998 0 00-4-3.996c-2.209 0-4 1.789-4 3.996v6.136l-4.961-4.957c-1.618-1.616-4.24-1.616-5.858 0s-1.618 4.236 0 5.853l10.819 10.81v6.136h-6.114L11.092 17.221a4.15 4.15 0 00-5.851 0 4.111 4.111 0 000 5.83l4.94 4.922H4c-2.209 0-4 1.789-4 3.996s1.791 3.996 4 3.996h6.18l-4.939 4.921a4.111 4.111 0 000 5.83 4.148 4.148 0 005.851 0l10.791-10.751h6.115v6.174l-10.76 10.77c-1.614 1.616-1.614 4.236 0 5.853s4.232 1.616 5.846 0l4.913-4.918v6.098a3.998 3.998 0 004 3.996c2.208 0 4-1.789 4-3.996v-6.16l4.975 4.98a4.13 4.13 0 005.846 0 4.143 4.143 0 000-5.853L35.996 42.077v-6.112h6.2l10.767 10.749a4.145 4.145 0 005.852 0 4.125 4.125 0 000-5.841l-4.917-4.908h6.095c2.209 0 4-1.789 4-3.996z" fill-rule="evenodd" clip-rule="evenodd" fill="#54bbff"/></svg>