<svg xmlns="http://www.w3.org/2000/svg" width="55.121" height="56.033"><path d="M2.619 22.224l8.037-2.15a2.074 2.074 0 001.525-1.78 2.034 2.034 0 00-.023-.936l-2.14-7.979a2.068 2.068 0 00-3.994 1.069l1.643 6.122-6.125 1.64a2.079 2.079 0 101.077 4.014zm8.821 14.234a2.032 2.032 0 00-.823-.449L2.63 33.871a2.067 2.067 0 00-2.532 1.46A2.063 2.063 0 001.56 37.86l6.128 1.64-1.641 6.117a2.08 2.08 0 104.019 1.076l2.153-8.028a2.07 2.07 0 00-.779-2.207zM25.994 9.425c.14.14.298.246.463.338a2.104 2.104 0 00.635.235h.006c.187.033.376.034.564.016l.071-.007c.089-.012.174-.048.262-.071.097-.017.19-.046.284-.077.006-.002.012-.002.018-.005h.002c.14-.047.273-.107.401-.185.008-.005.017-.008.024-.013.132-.082.259-.176.373-.29l5.848-5.842a2.064 2.064 0 000-2.92 2.068 2.068 0 00-2.924 0l-4.487 4.482L23.051.608c-.813-.812-2.129-.812-2.941 0s-.813 2.127 0 2.938l5.884 5.879zM43.758 19.6c.231.204.505.365.821.451l7.957 2.155a2.045 2.045 0 002.516-1.451 2.072 2.072 0 00-1.462-2.528l-6.105-1.655 1.617-6.104c.293-1.106-.365-2.245-1.471-2.545s-2.239.354-2.532 1.46l-2.122 8.011a2.083 2.083 0 00.781 2.206zm8.725 14.274l-8.006 2.17a2.083 2.083 0 00-1.522 1.781c-.061.301-.063.618.021.934l2.109 7.961c.291 1.099 1.417 1.749 2.516 1.451s1.753-1.431 1.462-2.529l-1.618-6.109 6.101-1.653a2.088 2.088 0 001.471-2.546 2.061 2.061 0 00-2.534-1.46zM29.059 46.667a2.048 2.048 0 00-.463-.336 2.05 2.05 0 00-.636-.234h-.003a2.065 2.065 0 00-.566-.016c-.023.002-.047.003-.07.006-.088.011-.172.048-.259.07a2.043 2.043 0 00-.711.267c-.008.004-.016.007-.022.012a2.05 2.05 0 00-.373.289l-5.848 5.805a2.04 2.04 0 000 2.902 2.08 2.08 0 002.924 0l4.486-4.454 4.484 4.45c.813.807 2.129.807 2.941 0s.813-2.114 0-2.92l-5.884-5.841zm-1.533-30.65c-6.635 0-12.014 5.372-12.014 12 0 6.627 5.379 12 12.014 12s12.014-5.373 12.014-12c0-6.628-5.379-12-12.014-12zm6.007 14v2c0 1.104-.896 2-2.003 2h-2.002a2.001 2.001 0 01-4.004 0h-2.003a2.002 2.002 0 01-2.002-2v-2a2.001 2.001 0 010-4v-2a2 2 0 012.002-2h2.003a2.001 2.001 0 014.004 0h2.002c1.106 0 2.003.895 2.003 2v2a2.001 2.001 0 010 4z" fill-rule="evenodd" clip-rule="evenodd" fill="#54bbff"/></svg>