<svg xmlns="http://www.w3.org/2000/svg" width="63.981" height="64.003"><path d="M63.839 38.076c-.59-2.205-2.843-3.515-5.033-2.927l-9.264 2.486-9.605-5.584 9.676-5.625 9.178 2.464c2.19.588 4.443-.723 5.033-2.927s-.708-4.467-2.898-5.055l-1.686-.452a4.018 4.018 0 00.261-4.392 3.96 3.96 0 00-3.954-1.963l.47-1.756c.589-2.204-.709-4.468-2.898-5.056-2.19-.588-4.444.722-5.034 2.927l-2.493 9.319-9.621 5.594V13.878l6.767-6.813a4.161 4.161 0 000-5.853 4.091 4.091 0 00-5.813 0L35.66 2.483a3.968 3.968 0 00-3.659-2.45 3.968 3.968 0 00-3.66 2.45l-1.263-1.271a4.091 4.091 0 00-5.813 0 4.161 4.161 0 000 5.853l6.767 6.813V25.13l-9.646-5.608-2.477-9.307c-.588-2.208-2.841-3.518-5.033-2.926-2.192.591-3.494 2.86-2.906 5.067l.462 1.738a3.96 3.96 0 00-3.938 1.965 4.019 4.019 0 00.278 4.417l-1.726.466C.854 21.533-.447 23.802.14 26.01c.588 2.207 2.842 3.518 5.034 2.926l9.243-2.494 9.646 5.608-9.631 5.599-9.242-2.493c-2.193-.592-4.446.719-5.034 2.926-.587 2.208.714 4.478 2.907 5.068l1.725.466a4.019 4.019 0 00-.278 4.417 3.96 3.96 0 003.938 1.966l-.462 1.737c-.588 2.207.713 4.477 2.906 5.067 2.192.592 4.445-.718 5.033-2.926l2.477-9.307 9.631-5.599v11.195l-6.707 6.771a4.165 4.165 0 000 5.853 4.072 4.072 0 005.797 0l1.231-1.243a3.968 3.968 0 003.647 2.423 3.97 3.97 0 003.665-2.468l1.276 1.288a4.072 4.072 0 005.797 0 4.167 4.167 0 000-5.853l-6.77-6.834V38.972l9.659 5.615 2.471 9.235c.59 2.204 2.843 3.515 5.033 2.927s3.488-2.852 2.898-5.056l-.454-1.696a3.963 3.963 0 003.908-1.968 4.018 4.018 0 00-.29-4.43l1.746-.469c2.191-.587 3.489-2.851 2.899-5.054z" fill-rule="evenodd" clip-rule="evenodd" fill="#54bbff"/></svg>