<svg xmlns="http://www.w3.org/2000/svg" width="64" height="63.938"><path d="M44.607 38.92l-6.973-6.973 6.971-6.971c1.562-1.562 1.572-4.085.021-5.635-1.549-1.55-4.072-1.54-5.634.022l-6.971 6.971-6.974-6.974c-1.561-1.561-4.081-1.569-5.632-.02-1.549 1.55-1.541 4.071.02 5.632l6.974 6.974-7.015 7.015c-1.562 1.563-1.572 4.085-.021 5.635 1.549 1.55 4.072 1.54 5.635-.022l7.014-7.014 6.973 6.973c1.561 1.561 4.082 1.569 5.632.02s1.541-4.073-.02-5.633z" fill-rule="evenodd" clip-rule="evenodd" fill="#999"/><path d="M60 28h-3.944l.011-5.708c.008-2.382-1.778-4.306-3.989-4.298s-4.009 1.945-4.017 4.328L48.05 28H35.999V16.001l5.708.011c2.383.008 4.307-1.777 4.298-3.985-.008-2.209-1.945-4.006-4.327-4.013l-5.679-.011V3.996C35.999 1.789 34.223 0 32.031 0s-3.969 1.789-3.969 3.996v3.991l-5.746-.011c-2.383-.008-4.307 1.776-4.299 3.985.009 2.209 1.946 4.005 4.328 4.013l5.717.011V28H16.017l.011-5.708c.008-2.382-1.778-4.306-3.989-4.298s-4.009 1.945-4.017 4.328L8.011 28H4c-2.209 0-4 1.777-4 3.969s1.791 3.969 4 3.969h3.995l-.011 5.746c-.008 2.381 1.779 4.306 3.989 4.298 2.211-.009 4.01-1.946 4.018-4.328l.011-5.716h12.061v12.05l-5.746-.011c-2.383-.008-4.307 1.776-4.299 3.985.009 2.209 1.946 4.006 4.328 4.013l5.717.011v3.956c0 2.207 1.776 3.996 3.969 3.996 2.191 0 3.968-1.789 3.968-3.996v-3.94l5.708.011c2.383.008 4.307-1.777 4.298-3.985-.008-2.209-1.945-4.006-4.327-4.013L36 48.004V35.938h12.035l-.011 5.746c-.007 2.381 1.779 4.306 3.989 4.298 2.211-.009 4.01-1.946 4.018-4.328l.011-5.716H60c2.209 0 4-1.777 4-3.969S62.209 28 60 28z" fill-rule="evenodd" clip-rule="evenodd" fill="#ccc"/></svg>