<svg xmlns="http://www.w3.org/2000/svg" width="64.054" height="64"><path d="M62.052 30.045l-5.047-.002 2.455-2.468a2.087 2.087 0 00-.002-2.94 2.058 2.058 0 00-2.923-.001l-5.376 5.407-14.378-.007 10.698-10.699c.092-.077.176-.161.253-.253l6.901-6.901a2.001 2.001 0 10-2.831-2.831l-3.579 3.579-.002-3.494a2.082 2.082 0 00-2.08-2.08 2.076 2.076 0 00-2.078 2.077l.005 7.653-10.07 10.07V12.111c.01-.116.01-.23 0-.346V2a2 2 0 00-2.002-2 2.001 2.001 0 00-2.003 2v5.061l-2.472-2.469c-.813-.812-2.129-.812-2.941 0s-.813 2.127 0 2.938l5.413 5.408v14.239L19.35 16.523a2.049 2.049 0 00-.242-.242l-6.909-6.916a2 2 0 10-2.829 2.83l3.581 3.584-3.493-.001a2.08 2.08 0 10.001 4.16l7.649.003 10.077 10.086-15.067-.007a2.044 2.044 0 00-.341 0l-9.776-.005a2 2 0 10.002 4.001l5.066.002-2.471 2.469c-.811.813-.811 2.128.002 2.941s2.13.813 2.941.001l5.409-5.407 14.173.007-10.629 10.628a1.968 1.968 0 00-.25.25l-6.868 6.868a2 2 0 00.002 2.829 2.001 2.001 0 002.83.002l3.565-3.565.013 3.483c.004 1.145.936 2.076 2.08 2.08s2.069-.92 2.065-2.065l-.029-7.628 10.091-10.09v15.125c-.009.11-.009.219 0 .329V62a2.002 2.002 0 104.005 0v-5.043l2.473 2.454c.813.807 2.129.807 2.941 0s.813-2.114 0-2.92l-5.414-5.375V36.848l10.698 10.709c.073.087.153.167.24.24l6.875 6.882a2 2 0 102.828-2.831l-3.566-3.57 3.481-.01c1.145-.003 2.074-.934 2.077-2.079s-.922-2.071-2.065-2.068l-7.625.021-10.098-10.108 15.14.007c.116.01.23.01.346 0l9.726.005a1.998 1.998 0 002-1.999 2.004 2.004 0 00-2.003-2.002z" fill-rule="evenodd" clip-rule="evenodd" fill="#54bbff"/></svg>