<svg xmlns="http://www.w3.org/2000/svg" width="56" height="64"><path d="M44.075 22.515l.015.048c.029.099.063.194.105.285.025.058.044.117.076.172.021.035.047.063.068.096l.002.002.001.002.002.002.002.002c.088.129.194.243.31.348.06.057.121.106.186.154.045.032.093.059.14.087.396.242.859.358 1.324.287H54a2 2 0 000-4h-3.244l2.271-2.274a2.023 2.023 0 00.733-2.754 1.995 1.995 0 00-2.735-.737L48 17.264V14a2 2 0 00-4 0v8c0 .179.031.349.075.515zM29.501 50.65a2.088 2.088 0 00-2.303-.428 2.05 2.05 0 00-.803.486l-5.847 5.805a2.04 2.04 0 000 2.902 2.08 2.08 0 002.924 0l2.494-2.477V62a2.001 2.001 0 004.004 0v-5.043l2.473 2.454c.812.807 2.129.807 2.941 0s.813-2.114 0-2.92l-5.883-5.841zm-17.772-9.67c-.02-.035-.047-.063-.068-.096l-.001-.001-.003-.005-.001-.001-.002-.002a1.978 1.978 0 00-.311-.349 2.08 2.08 0 00-.186-.154c-.044-.031-.091-.058-.138-.085a1.964 1.964 0 00-1.33-.288H2a2 2 0 000 4h3.242l-2.269 2.273a2.023 2.023 0 00-.733 2.754 1.994 1.994 0 002.735.738L8 46.735V50a2 2 0 004 0v-8c0-.305-.074-.591-.196-.85-.025-.056-.044-.115-.075-.17zM10 12a2 2 0 00-2 2v3.265l-3.024-3.03c-.958-.557-2.183-.227-2.735.737s-.225 2.197.733 2.754L5.244 20H2a2 2 0 000 4h7.687a1.995 1.995 0 001.973-.884l.001-.001c.021-.033.049-.061.068-.096.032-.055.051-.114.076-.172a1.98 1.98 0 00.105-.285l.015-.048v-.001c.044-.164.075-.334.075-.513v-8a2 2 0 00-2-2zm44 28h-7.683a1.991 1.991 0 00-1.946.846l-.031.039c-.022.033-.048.061-.068.095-.031.055-.051.113-.075.169A1.98 1.98 0 0044 42v8a2 2 0 004 0v-3.265l3.024 3.03a1.994 1.994 0 002.735-.738 2.023 2.023 0 00-.733-2.754L50.757 44H54a2 2 0 000-4zM35.389 24.588a2.068 2.068 0 00-2.924 0l-4.487 4.482-4.483-4.478a2.08 2.08 0 00-2.941 0 2.074 2.074 0 000 2.938l4.508 4.503-4.512 4.479a2.04 2.04 0 000 2.902 2.08 2.08 0 002.924 0l4.486-4.455 4.484 4.451c.812.807 2.129.807 2.941 0s.813-2.114 0-2.92l-4.509-4.476 4.513-4.508a2.061 2.061 0 000-2.918zm-2.924-20l-2.494 2.491V2a2 2 0 00-2.002-2 2 2 0 00-2.002 2v5.062l-2.473-2.47a2.08 2.08 0 00-2.941 0 2.074 2.074 0 000 2.938l5.884 5.878a2.08 2.08 0 002.305.429c.292-.099.567-.256.8-.487l5.848-5.842c.808-.806.808-2.113 0-2.92s-2.118-.807-2.925 0z" fill-rule="evenodd" clip-rule="evenodd" fill="#54bbff"/></svg>