<svg xmlns="http://www.w3.org/2000/svg" width="68.001" height="64.001"><path d="M46.648 52.956a12.963 12.963 0 01-4.647-9.955c0-.338.025-.669.051-1H22.001a6 6 0 010-12h2.349a5.97 5.97 0 01-.349-2 6 6 0 016-6h12.051c-.025-.331-.051-.662-.051-1 0-5.297 3.173-9.845 7.717-11.871.455-1.633-.304-4.026-1.717-4.842-3.719 6.44-6.496 3.25-8.465 6.66a4.832 4.832 0 00-.634 2.359c-1.341-.495-2.724-.902-4.184-1.102C34.328 11.519 34 10.732 34 10c0-2.535 1.999-2.618 1.999-6 .001-1.812-2.144-4-3.998-4 0 7.438-4 6.063-4 10.001 0 .912.269 1.687.606 2.308a19.478 19.478 0 00-4.124 1.205c-.688-.401-1.38-.923-1.751-1.565-1.267-2.195.424-3.268-1.268-6.196-.906-1.57-3.858-2.392-5.464-1.465 3.719 6.441-.434 7.251 1.535 10.661a4.826 4.826 0 001.732 1.731 20.385 20.385 0 00-2.985 3.069c-.807 0-1.683-.104-2.335-.48-2.195-1.268-1.267-3.041-4.196-4.732-1.568-.907-4.536-.143-5.463 1.463 6.44 3.719 3.25 6.496 6.66 8.465a4.82 4.82 0 002.359.633c-.496 1.342-.904 2.726-1.104 4.186-.686.389-1.472.718-2.203.718-2.535 0-2.617-2-6-2-1.812-.001-4 2.144-4 3.998 7.438 0 6.063 4 10.001 4 .908 0 1.68-.267 2.3-.603.247 1.44.667 2.816 1.208 4.128-.4.687-.921 1.374-1.561 1.743-2.195 1.267-3.267-.424-6.196 1.268-1.569.906-2.392 3.859-1.465 5.464 6.441-3.719 7.251.433 10.661-1.536a4.82 4.82 0 001.729-1.728 20.386 20.386 0 003.071 2.983c0 .807-.104 1.682-.48 2.334-1.268 2.193-3.041 1.266-4.732 4.195-.906 1.569-.142 4.537 1.464 5.464 3.719-6.44 6.496-3.25 8.465-6.66.468-.811.623-1.64.634-2.36 1.341.495 2.725.902 4.184 1.102.389.686.719 1.474.719 2.207 0 2.534-2 2.617-2 6 0 1.813 2.145 4 4 4 0-7.438 3.999-6.063 3.999-10 0-.913-.269-1.688-.606-2.31a19.452 19.452 0 004.123-1.205c.688.401 1.381.924 1.752 1.566 1.268 2.194-.424 3.267 1.268 6.196.906 1.57 3.858 2.392 5.465 1.465-1.991-3.443-1.728-5.275-1.355-6.757z" fill-rule="evenodd" clip-rule="evenodd" fill="#fc6"/><path d="M54.728 34.001H22.062c-1.139 0-2.061.895-2.061 2 0 1.104.922 2 2.061 2h32.666c2.846 0 5.152 2.238 5.152 5 0 2.761-2.307 5-5.152 5s-5.151-2.239-5.151-5c0-1.105-.923-2-2.061-2s-2.061.895-2.061 2c0 4.97 4.151 9 9.272 9 5.122 0 9.273-4.03 9.273-9 .001-4.971-4.15-9-9.272-9zm0-22c-5.121 0-9.272 4.029-9.272 9 0 1.104.923 2 2.061 2s2.061-.896 2.061-2c0-2.762 2.307-5 5.151-5 2.846 0 5.152 2.238 5.152 5s-2.307 5-5.152 5H30.062c-1.139 0-2.061.896-2.061 2s.922 2 2.061 2h24.666c5.122 0 9.273-4.029 9.273-9s-4.151-9-9.273-9z" fill-rule="evenodd" clip-rule="evenodd" fill="#72c1f7"/></svg>