<svg xmlns="http://www.w3.org/2000/svg" width="64" height="20.04"><path d="M62 4.025h-2.171c-.438-1.969-2.028-4-7.81-4-6.969 0-11.29-.578-16.094 4h-7.794c-4.815-4.578-9.146-4-16.132-4-5.795 0-7.389 2.031-7.829 4H2a2 2 0 000 4h1.99c.093 4.175 1.3 12.412 12.01 12 11.56 0 13.706-7.419 14.02-11.455A3.952 3.952 0 0132 8.025c.732 0 1.409.211 2 .555v-.555h.01c.165 3.867 1.943 12 14.019 12 10.685.412 11.889-7.825 11.981-12H62a2 2 0 000-4z" fill-rule="evenodd" clip-rule="evenodd" fill="#4d4d4d"/><path d="M13.543 4.025c-5.431 0-5.517 2.25-5.517 3.6s-.69 8.7 8.275 8.4c10.948 0 9.655-8.4 9.655-8.4-3.879-4.05-6.981-3.6-12.413-3.6zm42.431 3.6c0-1.35-.086-3.6-5.517-3.6-5.432 0-8.535-.45-12.414 3.6 0 0-1.293 8.4 9.655 8.4 8.965.3 8.276-7.051 8.276-8.4z" fill-rule="evenodd" clip-rule="evenodd" fill="#88c057"/></svg>