<svg xmlns="http://www.w3.org/2000/svg" width="68" height="64.001"><path d="M55.584 44.001H42v-.059c-4.5-.496-8-4.299-8-8.918 0-4.848 3.853-8.785 8.668-8.961a7.97 7.97 0 015.326-2.042A9.977 9.977 0 0156 20c1.122 0 2.197.193 3.205.533.896-1.284 1.219-3.302.508-4.534-6.441 3.72-7.251-.433-10.66 1.536a4.817 4.817 0 00-1.73 1.729 20.384 20.384 0 00-3.07-2.984c0-.806.104-1.681.479-2.332 1.268-2.195 3.041-1.268 4.732-4.196.906-1.57.141-4.537-1.464-5.464-3.719 6.44-6.496 3.25-8.465 6.66a4.82 4.82 0 00-.633 2.359c-1.342-.495-2.725-.902-4.185-1.102-.388-.684-.717-1.472-.717-2.204 0-2.535 2-2.618 2-6C36 2.188 33.854 0 32 0c0 7.438-4 6.063-4 10.001 0 .912.269 1.687.606 2.308a19.478 19.478 0 00-4.124 1.205c-.688-.401-1.38-.923-1.751-1.565-1.267-2.195.424-3.268-1.268-6.196C20.558 4.182 17.605 3.36 16 4.287c3.719 6.441-.433 7.251 1.536 10.661a4.816 4.816 0 001.731 1.731 20.385 20.385 0 00-2.985 3.069c-.807 0-1.683-.104-2.335-.48-2.195-1.268-1.267-3.041-4.196-4.732-1.569-.906-4.537-.142-5.464 1.464 6.441 3.719 3.25 6.496 6.66 8.465a4.82 4.82 0 002.359.633c-.496 1.342-.904 2.726-1.104 4.186-.685.389-1.472.718-2.203.718-2.535 0-2.617-2-6-2-1.813 0-4 2.145-4 3.999 7.438 0 6.063 4 10 4 .908 0 1.68-.267 2.3-.603.247 1.44.667 2.816 1.208 4.128-.4.687-.921 1.374-1.561 1.743-2.195 1.267-3.267-.424-6.196 1.268-1.568.905-2.391 3.858-1.463 5.463 6.44-3.719 7.25.433 10.66-1.536a4.82 4.82 0 001.729-1.728 20.433 20.433 0 003.071 2.983c0 .807-.104 1.682-.48 2.334-1.268 2.193-3.041 1.266-4.731 4.195-.907 1.569-.143 4.537 1.464 5.464 3.718-6.44 6.495-3.25 8.464-6.66.468-.811.623-1.64.634-2.36 1.341.495 2.725.902 4.184 1.102.389.685.718 1.474.718 2.207 0 2.534-2 2.617-2 6 0 1.813 2.146 4 4 4 0-7.438 4-6.063 4-10 0-.913-.27-1.688-.607-2.31a19.452 19.452 0 004.123-1.205c.689.401 1.381.924 1.752 1.566 1.268 2.194-.423 3.267 1.268 6.196.906 1.57 3.858 2.392 5.465 1.465-3.719-6.441.433-7.251-1.536-10.66a4.821 4.821 0 00-1.732-1.732 20.522 20.522 0 002.985-3.068c.807-.001 1.683.104 2.336.479 2.194 1.267 1.267 3.041 4.195 4.731 1.57.906 4.537.143 5.465-1.463-2.566-1.479-3.595-2.809-4.13-3.999z" fill-rule="evenodd" clip-rule="evenodd" fill="#fc6"/><path d="M62.547 34.137c.408-.897.641-1.89.641-2.937 0-3.977-3.274-7.199-7.313-7.199a7.324 7.324 0 00-6.299 3.555 4.9 4.9 0 00-1.826-.355 4.856 4.856 0 00-4.586 3.229c-.098-.005-.189-.028-.289-.028C40.183 30.4 38 32.55 38 35.2c0 2.651 2.183 4.801 4.875 4.801H60.75c1.795 0 3.25-1.434 3.25-3.2a3.181 3.181 0 00-1.453-2.664z" fill-rule="evenodd" clip-rule="evenodd" fill="#ccc"/></svg>