<svg xmlns="http://www.w3.org/2000/svg" width="64" height="64.001"><path d="M54 28.001c-.912 0-1.688.269-2.309.607a19.825 19.825 0 00-1.182-4.171c.398-.673.916-1.342 1.543-1.705 2.194-1.267 3.267.424 6.196-1.268 1.569-.906 2.391-3.858 1.464-5.465-6.441 3.72-7.25-.433-10.66 1.536a4.786 4.786 0 00-1.689 1.666 20.115 20.115 0 00-3.115-2.989c.006-.786.119-1.633.484-2.265 1.267-2.195 3.041-1.268 4.732-4.196.906-1.569.142-4.536-1.464-5.464-3.719 6.441-6.496 3.251-8.464 6.661a4.796 4.796 0 00-.629 2.302 19.81 19.81 0 00-4.189-1.044c-.389-.685-.718-1.473-.718-2.205 0-2.534 2-2.618 2-6C36 2.188 33.854 0 32 0c0 7.438-4 6.063-4 10.001 0 .912.269 1.687.606 2.308-1.448.248-2.846.64-4.17 1.182-.673-.397-1.342-.915-1.704-1.542-1.267-2.195.423-3.267-1.268-6.196C20.558 4.182 17.606 3.36 16 4.287c3.719 6.441-.433 7.251 1.536 10.661a4.802 4.802 0 001.666 1.689 20.115 20.115 0 00-2.989 3.115c-.787-.006-1.633-.119-2.265-.484-2.195-1.268-1.267-3.041-4.196-4.732-1.57-.906-4.538-.142-5.465 1.464 6.441 3.719 3.25 6.496 6.66 8.465a4.8 4.8 0 002.303.629 19.87 19.87 0 00-1.044 4.189c-.686.389-1.474.718-2.206.718-2.534 0-2.617-2-6-2-1.813 0-4 2.145-4 3.999 7.437 0 6.063 4.001 10 4.001.912 0 1.688-.269 2.309-.607.248 1.448.64 2.845 1.181 4.169-.397.673-.915 1.343-1.543 1.706-2.195 1.267-3.267-.424-6.196 1.268-1.57.905-2.392 3.858-1.464 5.463 6.441-3.719 7.25.433 10.661-1.536a4.792 4.792 0 001.689-1.665 20.063 20.063 0 003.115 2.988c-.007.787-.119 1.633-.484 2.266-1.267 2.195-3.041 1.267-4.732 4.196-.906 1.569-.142 4.537 1.464 5.464 3.719-6.44 6.496-3.25 8.464-6.659a4.803 4.803 0 00.629-2.304c1.336.492 2.735.846 4.188 1.044.389.686.719 1.474.719 2.207 0 2.534-2 2.617-2 6 0 1.813 2.145 4 4 4 0-7.438 4-6.063 4-10 0-.913-.269-1.688-.607-2.31a19.891 19.891 0 004.17-1.181c.673.397 1.343.915 1.705 1.543 1.267 2.195-.423 3.267 1.268 6.196.906 1.57 3.858 2.392 5.464 1.465-3.719-6.441.433-7.251-1.536-10.661a4.794 4.794 0 00-1.666-1.689 20.115 20.115 0 002.989-3.115c.786.006 1.633.119 2.265.484 2.195 1.268 1.267 3.041 4.196 4.732 1.57.905 4.537.142 5.465-1.464-6.441-3.719-3.25-6.496-6.66-8.464a4.788 4.788 0 00-2.303-.629 19.876 19.876 0 001.044-4.188c.686-.39 1.474-.719 2.206-.719 2.534 0 2.617 2 6 2 1.813 0 4-2.146 4-4-7.437 0-6.062-4-10-4z" fill-rule="evenodd" clip-rule="evenodd" fill="#fc6"/></svg>