<svg xmlns="http://www.w3.org/2000/svg" width="64" height="66.998"><path d="M60 18.998H4a4 4 0 000 8h56a4 4 0 000-8z" fill="#ccc"/><path d="M54.627 8.371c-5.259 5.259-7.115 1.458-9.899 4.242a4.811 4.811 0 00-1.209 2.072 19.803 19.803 0 00-3.774-2.105c-.197-.762-.308-1.609-.119-2.315.655-2.448 2.609-2.011 3.484-5.278.469-1.75-1.037-4.419-2.828-4.898-1.925 7.184-5.433 4.82-6.452 8.624a4.806 4.806 0 00-.012 2.387 19.685 19.685 0 00-4.305.091c-.558-.563-1.085-1.248-1.276-1.96-.655-2.448 1.255-3.046.379-6.313-.469-1.751-3.107-3.309-4.898-2.828 1.925 7.184-2.295 6.891-1.275 10.694a4.794 4.794 0 001.205 2.098 20.249 20.249 0 00-3.576 2.117H53.41a6.337 6.337 0 001.218-.971c1.28-1.282 1.31-4.346-.001-5.657zm-39.598 0c-1.281-1.282-4.346-1.312-5.657 0 3.093 3.093 3.053 5.007 3.062 6.627h7.223c-.673-.211-1.343-.514-1.799-.971-1.793-1.792-.437-3.265-2.829-5.656z" fill-rule="evenodd" clip-rule="evenodd" fill="#fc6"/></svg>