<svg xmlns="http://www.w3.org/2000/svg" width="64" height="76"><path d="M60 40H4a4 4 0 000 8.001h56A4 4 0 0060 40z" fill="#ccc"/><path d="M10.014 36a4.8 4.8 0 002.286-.602c.034.203.08.402.122.602h39.149c.087-.423.166-.849.225-1.282.686-.389 1.473-.717 2.204-.717 2.527 0 2.618 1.988 5.974 1.999h.033C61.818 35.995 64 33.853 64 32.001c-7.438 0-6.063-4-10-4-.908 0-1.68.267-2.3.603a19.775 19.775 0 00-1.206-4.14c.399-.682.922-1.364 1.559-1.731 2.194-1.267 3.266.424 6.195-1.268 1.57-.906 2.392-3.858 1.465-5.464-6.441 3.719-7.251-.434-10.661 1.535a4.814 4.814 0 00-1.713 1.702 20.214 20.214 0 00-3.091-3.008c.005-.792.116-1.645.484-2.282 1.268-2.195 3.041-1.267 4.732-4.196.906-1.569.141-4.537-1.464-5.464-3.719 6.44-6.495 3.25-8.464 6.66a4.788 4.788 0 00-.63 2.314 19.928 19.928 0 00-4.188-1.057C34.329 11.52 34 10.732 34 10c0-2.534 2-2.617 2-5.999C36 2.188 33.854 0 32 0c0 7.438-4 6.063-4 10 0 .912.269 1.688.606 2.309a19.724 19.724 0 00-4.135 1.203c-.685-.4-1.371-.925-1.74-1.563-1.267-2.195.424-3.268-1.268-6.196C20.558 4.182 17.605 3.36 16 4.287c3.719 6.441-.434 7.251 1.535 10.661a4.819 4.819 0 001.707 1.716 20.208 20.208 0 00-3.01 3.088c-.792-.004-1.647-.116-2.285-.484-2.194-1.268-1.267-3.041-4.196-4.732-1.569-.906-4.537-.141-5.464 1.464 6.44 3.72 3.25 6.496 6.66 8.464a4.81 4.81 0 002.314.63 19.841 19.841 0 00-1.058 4.19c-.685.389-1.472.717-2.204.717-2.534 0-2.617-2-6-2-1.813 0-4 2.145-4 3.999 7.427 0 6.067 3.989 9.985 4h.03z" fill-rule="evenodd" clip-rule="evenodd" fill="#fc6"/></svg>