<svg xmlns="http://www.w3.org/2000/svg" width="64" height="64"><path d="M17.646 22.672c1.53-1.723 3.583-2.673 5.782-2.673s4.252.95 5.782 2.672c.758.855 1.744 1.326 2.78 1.329h.018c1.036-.003 2.024-.474 2.782-1.329 1.529-1.722 3.582-2.672 5.779-2.672h.002c2.199 0 4.252.948 5.783 2.672.036.041.08.07.117.109A15.829 15.829 0 0048 16c0-8.836-7.164-16-16-16-8.837 0-16 7.164-16 16 0 2.429.557 4.721 1.527 6.781.038-.04.082-.068.119-.109z" fill-rule="evenodd" clip-rule="evenodd" fill="#fc6"/><path d="M63.496 28.672c-1.527-1.724-3.58-2.673-5.779-2.673h-.002c-2.199 0-4.254.949-5.783 2.672-.76.857-1.752 1.33-2.791 1.33h-.002c-1.037-.002-2.025-.473-2.783-1.33-1.531-1.724-3.584-2.672-5.783-2.672h-.002c-2.197 0-4.25.949-5.779 2.672-.76.857-1.752 1.33-2.791 1.33s-2.029-.473-2.789-1.33c-1.53-1.723-3.583-2.672-5.782-2.672s-4.252.949-5.782 2.673c-1.52 1.714-4.059 1.715-5.578-.001-1.53-1.723-3.583-2.672-5.782-2.672s-4.252.949-5.782 2.672a2.003 2.003 0 00.168 2.825 2.004 2.004 0 002.824-.168c1.52-1.714 4.061-1.712 5.58-.002 1.53 1.724 3.583 2.676 5.781 2.676s4.251-.952 5.781-2.674c1.52-1.714 4.061-1.712 5.58-.002 1.529 1.724 3.582 2.673 5.78 2.676 2.199-.003 4.252-.952 5.783-2.674 1.52-1.714 4.063-1.712 5.578-.002 1.527 1.722 3.578 2.673 5.775 2.676h.004c2.199-.003 4.252-.949 5.783-2.674.76-.857 1.75-1.329 2.791-1.329 1.039 0 2.029.472 2.789 1.327a2.003 2.003 0 002.822.17 1.998 1.998 0 00.171-2.824zm-12.787 10c-.713.857-1.645 1.331-2.62 1.331h-.002c-.973-.002-1.9-.474-2.612-1.331-1.438-1.725-3.364-2.673-5.429-2.673h-.001c-2.063.002-3.99.95-5.425 2.673-.714.857-1.646 1.331-2.62 1.331-.976-.002-1.904-.474-2.618-1.331-1.437-1.723-3.363-2.673-5.428-2.673s-3.991.95-5.428 2.673c-1.426 1.715-3.81 1.715-5.235 0-.689-.825-1.876-.901-2.65-.167-.775.731-.848 1.998-.158 2.823 1.436 1.724 3.363 2.675 5.426 2.675 2.064 0 3.99-.951 5.427-2.675 1.427-1.715 3.812-1.715 5.238 0 1.436 1.724 3.362 2.673 5.426 2.675 2.064-.002 3.991-.951 5.429-2.675 1.426-1.715 3.813-1.712 5.235-.001 1.434 1.722 3.359 2.674 5.422 2.676h.003c2.064 0 3.991-.949 5.429-2.675.688-.825.618-2.089-.157-2.823-.777-.734-1.961-.66-2.652.167z" fill-rule="evenodd" clip-rule="evenodd" fill="#54bbff"/></svg>