<svg xmlns="http://www.w3.org/2000/svg" width="64" height="56"><path d="M17.646 14.672c1.53-1.724 3.583-2.673 5.782-2.673s4.252.949 5.782 2.672c.758.856 1.745 1.326 2.78 1.329h.018c1.036-.003 2.024-.473 2.782-1.329 1.529-1.723 3.582-2.672 5.779-2.672h.002c2.199 0 4.252.949 5.783 2.672a3.907 3.907 0 001.634 1.107C47.869 7.046 40.761 0 32 0c-8.751 0-15.85 7.028-15.987 15.746a3.784 3.784 0 001.633-1.074z" fill-rule="evenodd" clip-rule="evenodd" fill="#fc6"/><path d="M63.496 20.672c-1.527-1.724-3.58-2.673-5.779-2.673h-.002c-2.199 0-4.254.949-5.783 2.672-.76.857-1.752 1.33-2.791 1.33h-.002c-1.037-.002-2.025-.473-2.783-1.33-1.531-1.724-3.584-2.672-5.783-2.672h-.002c-2.197 0-4.25.949-5.779 2.672-.76.857-1.752 1.33-2.791 1.33s-2.029-.473-2.789-1.33c-1.53-1.723-3.583-2.672-5.782-2.672s-4.252.949-5.782 2.673c-1.52 1.714-4.059 1.715-5.578-.001-1.53-1.723-3.583-2.672-5.782-2.672s-4.252.949-5.782 2.672a2.002 2.002 0 002.992 2.657c1.52-1.714 4.061-1.713 5.58-.001 1.53 1.724 3.583 2.675 5.781 2.675s4.251-.951 5.781-2.674c1.52-1.714 4.061-1.713 5.58-.001 1.529 1.724 3.582 2.672 5.78 2.675 2.199-.003 4.252-.951 5.783-2.674 1.52-1.714 4.063-1.712 5.578-.002 1.527 1.722 3.578 2.673 5.775 2.676h.004c2.199-.003 4.252-.95 5.783-2.674.76-.857 1.75-1.329 2.791-1.329 1.039 0 2.029.472 2.789 1.328a2.003 2.003 0 002.822.168 1.997 1.997 0 00.171-2.823zm-23.429 7.326h-.002c-2.068.003-4 .951-5.439 2.675-.715.857-1.649 1.33-2.627 1.33-.978-.002-1.91-.473-2.625-1.33-1.44-1.724-3.372-2.675-5.442-2.675-2.069 0-4.002.951-5.441 2.675-.69.825-.619 2.092.158 2.824.778.733 1.967.655 2.657-.168 1.431-1.715 3.822-1.715 5.252 0 1.439 1.723 3.372 2.672 5.439 2.674h.002c2.07-.002 4.002-.951 5.443-2.674 1.43-1.715 3.821-1.715 5.251 0 .691.826 1.881.9 2.658.168.778-.734.848-1.999.158-2.824-1.441-1.726-3.372-2.675-5.442-2.675z" fill-rule="evenodd" clip-rule="evenodd" fill="#54bbff"/></svg>