<svg xmlns="http://www.w3.org/2000/svg" width="56" height="34.009"><path d="M20 16c6 0 5.875 4.001 8 4.001 2 0 2-4.001 8-4.001 5.465 0 5.956 3.31 7.511 3.902.314-1.249.489-2.554.489-3.902 0-8.836-7.164-16-16-16-8.837 0-16 7.164-16 16 0 1.348.175 2.653.489 3.902C14.044 19.31 14.535 16 20 16z" fill-rule="evenodd" clip-rule="evenodd" fill="#fc6"/><path d="M52 22.001c-6 0-6 4-8 4s-2-4-8-4-6 4-8 4c-2.125 0-2-4-8-4s-6 4-8 4-2-4-8-4c-2 0-4 2-4 4s2 4 4 4 2 4 8 4 6-4 8-4 2 4.008 8 4.008 6-4.008 8-4.008 2 4 8 4 6-4 8-4 4-2 4-4-2-4-4-4z" fill="#54bbff"/></svg>