<svg xmlns="http://www.w3.org/2000/svg" width="56" height="26.01"><path d="M28 0c-7.407 0-13.621 5.041-15.443 11.874 1.503-.66 2.058-3.873 7.443-3.873 6 0 5.875 3.999 8 3.999 2 0 2-3.999 8-3.999 5.386 0 5.94 3.213 7.443 3.873C41.621 5.041 35.406 0 28 0zm-8 16.001c-1 0-1.5 1-2.501 2h4.997c-.997-1.001-1.497-2-2.496-2zm16 0c-.999 0-1.499.999-2.496 2h4.997c-1.001-1-1.501-2-2.501-2z" fill-rule="evenodd" clip-rule="evenodd" fill="#fc6"/><path d="M52 14.001c-6 0-6 4-8 4s-2-4-8-4-6 4-8 4c-2.125 0-2-4-8-4s-6 4-8 4-2-4-8-4c-2 0-4 2-4 4s2 4 4 4 2 4 8 4 6-4 8-4 2 4.009 8 4.009 6-4.009 8-4.009 2 4 8 4 6-4 8-4 4-2 4-4-2-4-4-4z" fill="#54bbff"/></svg>