<svg xmlns="http://www.w3.org/2000/svg" width="64" height="66.998"><path d="M60 30.998H4a4 4 0 000 8h56a4 4 0 000-8z" fill="#ccc"/><path d="M7.098 26.998H61.2c1.222-1 2.083-2.89 1.71-4.282-7.184 1.926-6.891-2.295-10.694-1.275a4.81 4.81 0 00-2.095 1.202 20.172 20.172 0 00-2.208-3.707c.209-.763.538-1.559 1.059-2.079 1.791-1.792 3.265-.437 5.656-2.828 1.281-1.282 1.312-4.346 0-5.657-5.259 5.259-7.115 1.458-9.899 4.243a4.808 4.808 0 00-1.209 2.071 19.803 19.803 0 00-3.774-2.105c-.197-.762-.308-1.609-.119-2.315.655-2.447 2.609-2.011 3.484-5.278.47-1.75-1.037-4.419-2.828-4.898-1.925 7.184-5.433 4.82-6.452 8.624a4.806 4.806 0 00-.012 2.387 19.695 19.695 0 00-4.306.091c-.558-.563-1.084-1.248-1.275-1.96-.655-2.448 1.255-3.046.379-6.313-.469-1.75-3.107-3.309-4.898-2.828 1.925 7.184-2.295 6.892-1.275 10.694a4.808 4.808 0 001.204 2.098 20.115 20.115 0 00-3.708 2.206c-.764-.209-1.561-.538-2.081-1.059-1.792-1.792-.437-3.265-2.828-5.657-1.281-1.282-4.346-1.312-5.656 0 5.259 5.259 1.458 7.115 4.242 9.899a4.813 4.813 0 002.071 1.209 19.862 19.862 0 00-2.106 3.774c-.761.197-1.607.308-2.313.119-2.448-.656-2.011-2.609-5.278-3.485-1.751-.469-4.419 1.037-4.899 2.828 4.298 1.15 5.177 2.867 6.006 4.281z" fill-rule="evenodd" clip-rule="evenodd" fill="#fc6"/></svg>