<svg xmlns="http://www.w3.org/2000/svg" width="32" height="63.999"><path d="M26 35.521V10c0-5.523-4.478-10-10-10C10.477 0 6 4.477 6 10v25.521C2.345 38.453 0 42.95 0 48c0 8.836 7.163 15.999 16 15.999 8.836 0 16-7.163 16-15.999 0-5.05-2.346-9.547-6-12.479z" fill-rule="evenodd" clip-rule="evenodd" fill="#fff"/><path d="M26 35.521V10c0-5.523-4.478-10-10-10C10.477 0 6 4.477 6 10v25.521C2.345 38.453 0 42.95 0 48c0 8.836 7.163 15.999 16 15.999 8.836 0 16-7.163 16-15.999 0-5.05-2.346-9.547-6-12.479zM16 60.026C9.357 60.026 3.974 54.642 3.974 48c0-4.453 2.429-8.323 6.026-10.399V10a6 6 0 1112 0v27.602c3.597 2.076 6.025 5.946 6.025 10.398 0 6.642-5.383 12.026-12.025 12.026z" fill-rule="evenodd" clip-rule="evenodd" fill="#ccc"/><path d="M16 56a8 8 0 008-8H8a8 8 0 008 8z" fill-rule="evenodd" clip-rule="evenodd" fill="#48a0dc"/></svg>