<svg xmlns="http://www.w3.org/2000/svg" width="32" height="63.999"><path d="M26 35.521V10c0-5.523-4.477-10-10-10C10.478 0 6 4.477 6 10v25.521C2.345 38.453 0 42.95 0 48c0 8.836 7.164 15.999 16 15.999S32 56.836 32 48c0-5.05-2.345-9.547-6-12.479z" fill-rule="evenodd" clip-rule="evenodd" fill="#fff"/><path d="M26 35.521V10c0-5.523-4.477-10-10-10C10.478 0 6 4.477 6 10v25.521C2.345 38.453 0 42.95 0 48c0 8.836 7.164 15.999 16 15.999S32 56.836 32 48c0-5.05-2.345-9.547-6-12.479zM16 60.026C9.358 60.026 3.974 54.642 3.974 48c0-4.453 2.429-8.323 6.026-10.399V10a6 6 0 0112 0v27.601c3.597 2.077 6.026 5.946 6.026 10.399 0 6.642-5.384 12.026-12.026 12.026z" fill-rule="evenodd" clip-rule="evenodd" fill="#ccc"/><path d="M18 40.262V9.999a2 2 0 00-4 0v30.263c-3.448.89-6 4.012-6 7.738a8 8 0 0016 0c0-3.726-2.551-6.848-6-7.738z" fill-rule="evenodd" clip-rule="evenodd" fill="#ed7161"/></svg>