<svg xmlns="http://www.w3.org/2000/svg" width="64" height="64"><path d="M26 35.522V10.001c0-5.523-4.478-10-10-10-5.523 0-10 4.477-10 10v25.521c-3.654 2.933-6 7.429-6 12.479C0 56.837 7.163 64 16 64c8.836 0 16-7.163 16-15.999 0-5.05-2.346-9.547-6-12.479z" fill-rule="evenodd" clip-rule="evenodd" fill="#fff"/><path d="M26 35.522V10.001c0-5.523-4.478-10-10-10-5.523 0-10 4.477-10 10v25.521c-3.654 2.933-6 7.429-6 12.479C0 56.837 7.163 64 16 64c8.836 0 16-7.163 16-15.999 0-5.05-2.346-9.547-6-12.479zM16 60.027c-6.643 0-12.026-5.385-12.026-12.026 0-4.453 2.429-8.323 6.026-10.399V10.001a6 6 0 1112 0v27.602c3.597 2.076 6.025 5.946 6.025 10.398 0 6.642-5.383 12.026-12.025 12.026z" fill-rule="evenodd" clip-rule="evenodd" fill="#ccc"/><path d="M18 40.263V10a2 2 0 00-4 0v30.263c-3.449.889-6 4.012-6 7.738a8 8 0 1016 0c0-3.726-2.552-6.848-6-7.738z" fill-rule="evenodd" clip-rule="evenodd" fill="#ed7161"/><path d="M58.375 15.751c-.527 0-.945.171-1.299.369a10.918 10.918 0 00-.687-2.309c.229-.398.517-.809.89-1.024 1.234-.713 1.838.238 3.485-.713.883-.51 1.345-2.17.823-3.074-3.623 2.092-4.078-.243-5.996.864-.482.278-.768.661-.975 1.026-.518-.616-1.079-1.194-1.715-1.69-.004-.466.04-.975.259-1.354.713-1.234 1.711-.712 2.662-2.36.51-.883.08-2.552-.823-3.073-2.092 3.623-3.654 1.828-4.762 3.746-.277.481-.334.954-.331 1.374-.75-.279-1.523-.509-2.34-.624-.231-.397-.442-.852-.442-1.282 0-1.426 1.125-1.473 1.125-3.375C48.25 1.23 47.043 0 46 0c0 4.184-2.25 3.411-2.25 5.626 0 .534.176.956.377 1.313-.807.137-1.569.38-2.304.679-.403-.229-.819-.52-1.037-.896-.713-1.234.238-1.837-.713-3.485-.51-.884-2.17-1.347-3.073-.825 2.092 3.623-.244 4.078.863 5.996.279.483.663.769 1.029.977-.619.517-1.2 1.077-1.698 1.712-.465.004-.972-.04-1.349-.258-1.235-.713-.713-1.711-2.361-2.662-.883-.51-2.552-.08-3.073.823 3.623 2.092 1.828 3.654 3.747 4.761.476.275.942.333 1.36.332-.281.752-.513 1.528-.628 2.349-.394.228-.841.435-1.266.435-1.426 0-1.473-1.125-3.375-1.125C29.23 15.751 28 16.957 28 18c4.184 0 3.41 2.251 5.625 2.251.527 0 .944-.172 1.299-.37.137.809.384 1.572.686 2.308-.229.4-.516.81-.89 1.025-1.234.713-1.837-.238-3.485.713-.883.51-1.345 2.17-.823 3.074 3.623-2.092 4.078.243 5.996-.864.482-.278.768-.661.976-1.026a11.556 11.556 0 001.714 1.69c.004.466-.04.976-.259 1.354-.713 1.234-1.711.712-2.662 2.36-.51.883-.08 2.552.824 3.073 2.092-3.623 3.653-1.828 4.761-3.746.278-.481.334-.954.331-1.374.75.278 1.523.509 2.34.623.232.398.443.853.443 1.284 0 1.425-1.125 1.472-1.125 3.374 0 1.021 1.206 2.251 2.25 2.251 0-4.185 2.25-3.411 2.25-5.625 0-.535-.176-.958-.378-1.314.807-.136 1.569-.38 2.304-.679.403.229.819.521 1.037.897.713 1.234-.238 1.837.713 3.485.51.883 2.171 1.345 3.074.823-2.092-3.623.243-4.078-.864-5.996-.279-.483-.663-.77-1.029-.977.619-.517 1.2-1.077 1.698-1.712.465-.004.972.04 1.35.258 1.234.713.713 1.711 2.36 2.662.883.51 2.552.08 3.073-.823-3.623-2.092-1.828-3.654-3.746-4.762-.477-.274-.943-.332-1.361-.331.281-.752.513-1.528.628-2.349.394-.229.841-.435 1.267-.435 1.425 0 1.472 1.126 3.375 1.126 1.02 0 2.25-1.207 2.25-2.25-4.186.003-3.412-2.247-5.627-2.247z" fill="#fc6"/></svg>