<svg xmlns="http://www.w3.org/2000/svg" width="56.033" height="63.999"><path d="M26 35.521V10c0-5.523-4.478-10-10-10C10.477 0 6 4.477 6 10v25.521C2.346 38.453 0 42.95 0 48c0 8.836 7.163 15.999 16 15.999 8.836 0 16-7.163 16-15.999 0-5.05-2.346-9.547-6-12.479z" fill-rule="evenodd" clip-rule="evenodd" fill="#fff"/><path d="M26 35.521V10c0-5.523-4.478-10-10-10C10.477 0 6 4.477 6 10v25.521C2.346 38.453 0 42.95 0 48c0 8.836 7.163 15.999 16 15.999 8.836 0 16-7.163 16-15.999 0-5.05-2.346-9.547-6-12.479zM16 60.026C9.357 60.026 3.974 54.642 3.974 48c0-4.453 2.429-8.323 6.026-10.399V10a6 6 0 1112 0v27.602c3.597 2.076 6.025 5.946 6.025 10.398 0 6.642-5.383 12.026-12.025 12.026z" fill-rule="evenodd" clip-rule="evenodd" fill="#ccc"/><path d="M16 56a8 8 0 008-8H8a8 8 0 008 8zm39.092-41.732L49.765 11l5.327-3.268c.9-.552 1.209-1.775.689-2.731-.521-.957-1.672-1.285-2.572-.732L48 7.463V2a2 2 0 00-4 0v5.463l-5.21-3.196c-.9-.552-2.052-.224-2.571.733-.52.956-.211 2.18.689 2.731L42.235 11l-5.327 3.268c-.9.553-1.209 1.775-.689 2.732.52.956 1.671 1.284 2.571.731L44 14.536V20a2 2 0 004 0v-5.464l5.209 3.195c.9.553 2.052.225 2.572-.731.52-.957.211-2.18-.689-2.732z" fill-rule="evenodd" clip-rule="evenodd" fill="#48a0dc"/></svg>