<svg xmlns="http://www.w3.org/2000/svg" width="76" height="71.985"><path d="M69.575 58.228l.025-.04L41.8 2.799h-.003C41.284 1.181 39.788 0 38 0c-1.789 0-3.284 1.181-3.796 2.799H34.2L6.4 58.188l.025.041A3.959 3.959 0 006 59.988a4 4 0 004 3.998h56a4 4 0 004-3.998c0-.634-.162-1.227-.425-1.76z" fill-rule="evenodd" clip-rule="evenodd" fill="#fc6"/><path d="M69.575 58.228l.025-.04-3.889-7.747c-1.671.28-3.568.769-5.711 1.549-21.124 7.692-32.085-8.285-22-11.998 10.085-3.712 12 5.999 12 5.999s8.229-13.997-12-13.997c-9.987 0-17.421 3.899-22.393 7.848L6.399 58.188l.025.041A3.972 3.972 0 006 59.988a4 4 0 004 3.998h56a4 4 0 004-3.998c0-.634-.162-1.227-.425-1.76z" fill-rule="evenodd" clip-rule="evenodd" fill="#48a0dc"/></svg>