<svg xmlns="http://www.w3.org/2000/svg" width="64" height="74"><path d="M32 0a2 2 0 00-2 2v52a6 6 0 01-12 0 2 2 0 00-4 0c0 5.522 4.477 9.999 10 9.999 5.522 0 10-4.477 10-9.999V2a2 2 0 00-2-2z" fill="gray"/><path d="M54 30c5.522 0 10 2.686 10 6C64 18.326 49.673 4 32 4 14.326 4 0 18.326 0 36c0-3.314 4.477-6 10-6 5.522 0 10 2.686 10 6 0-3.314 5.372-6 12-6 6.627 0 12 2.686 12 6 0-3.314 4.477-6 10-6z" fill-rule="evenodd" clip-rule="evenodd" fill="#88c057"/><path d="M32 30c6.627 0 12 2.686 12 6 0-17.674-5.373-32-12-32-6.628 0-12 14.326-12 32 0-3.314 5.372-6 12-6z" fill-rule="evenodd" clip-rule="evenodd" fill="#75a64b"/></svg>