<svg xmlns="http://www.w3.org/2000/svg" width="56" height="28.01"><path d="M52 0c-6 0-6 4.001-8 4.001S42 0 36 0s-6 4.001-8 4.001C25.875 4.001 26 0 20 0s-6 4.001-8 4.001S10 0 4 0C2 0 0 2.001 0 4.001s2 4 4 4 2 4 8 4 6-4 8-4 2 4.009 8 4.009 6-4.009 8-4.009 2 4 8 4 6-4 8-4 4-2 4-4S54 0 52 0zm0 16c-6 0-6 4.001-8 4.001S42 16 36 16s-6 4.001-8 4.001c-2.125 0-2-4.001-8-4.001s-6 4.001-8 4.001S10 16 4 16c-2 0-4 2.001-4 4.001s2 4 4 4 2 4 8 4 6-4 8-4 2 4.009 8 4.009 6-4.009 8-4.009 2 4 8 4 6-4 8-4 4-2 4-4S54 16 52 16z" fill="#54bbff"/></svg>