<svg xmlns="http://www.w3.org/2000/svg" width="64.015" height="64.003"><path d="M47.256 9.592c-12.72-12.789-33.344-12.789-46.063 0-1.59 1.6-1.59 4.191 0 5.79s4.168 1.599 5.758 0c9.54-9.593 25.008-9.593 34.548 0 3.18 3.198 3.18 8.382 0 11.579-1.59 1.6-1.59 4.191 0 5.79s4.168 1.599 5.758 0c6.358-6.395 6.358-16.764-.001-23.159z" fill-rule="evenodd" clip-rule="evenodd" fill="#54bbff"/><path d="M32.008 13.987C14.343 13.987.024 28.3.024 45.957c0 2.207 1.79 3.995 3.998 3.995s3.998-1.788 3.998-3.995c0-13.242 10.739-23.977 23.988-23.977a7.994 7.994 0 017.996 7.991c0 2.208 1.79 3.997 3.998 3.997S48 32.18 48 29.972c0-8.827-7.16-15.985-15.992-15.985z" fill-rule="evenodd" clip-rule="evenodd" fill="#48a0dc"/><path d="M62.824 48.602a4.043 4.043 0 00-5.751 0c-9.528 9.604-24.978 9.604-34.506 0-3.177-3.201-3.177-8.392 0-11.594a4.122 4.122 0 000-5.797 4.043 4.043 0 00-5.751 0c-6.353 6.403-6.353 16.784 0 23.188 12.704 12.807 33.303 12.807 46.008 0a4.122 4.122 0 000-5.797z" fill-rule="evenodd" clip-rule="evenodd" fill="#54bbff"/><path d="M59.999 13.987a3.997 3.997 0 00-3.993 4.002c0 13.258-10.728 24.006-23.96 24.006-4.411 0-7.986-3.582-7.986-8.002 0-2.21-1.788-4.001-3.993-4.001s-3.993 1.791-3.993 4.001c0 8.839 7.151 16.005 15.973 16.005 17.644 0 31.946-14.331 31.946-32.009a4 4 0 00-3.994-4.002z" fill-rule="evenodd" clip-rule="evenodd" fill="#48a0dc"/></svg>