<svg xmlns="http://www.w3.org/2000/svg" width="52" height="63.954"><path d="M43.19 18.589l.01-.006L26 0 8.8 18.583l.01.006C3.41 23.34 0 30.286 0 38.03c0 14.317 11.641 25.924 26 25.924S52 52.348 52 38.03c0-7.744-3.41-14.69-8.81-19.441zM26 59.966c-12.15 0-22-9.82-22-21.936 0-12.114 9.85-21.936 22-21.936s22 9.821 22 21.936c0 12.116-9.85 21.936-22 21.936z" fill-rule="evenodd" clip-rule="evenodd" fill="#88c057"/><path d="M38.728 25.34a4.006 4.006 0 00-5.656 0C31.509 26.897 24.438 36.473 26 38.03s11.166-5.493 12.728-7.05a3.98 3.98 0 000-5.64z" fill="#999"/><path d="M26 38.03c-1.563-1.558-11.166 5.493-12.729 7.051a3.98 3.98 0 000 5.64 4.008 4.008 0 005.657 0C20.491 49.164 27.563 39.588 26 38.03z" fill="#999"/><path d="M18.929 25.34a4.008 4.008 0 00-5.657 0 3.981 3.981 0 000 5.641c1.563 1.557 11.166 8.607 12.729 7.05s-5.51-11.134-7.072-12.691z" fill="#b3b3b3"/><path d="M38.728 45.081C37.166 43.523 27.563 36.473 26 38.03s5.509 11.134 7.071 12.69a4.006 4.006 0 005.656 0 3.978 3.978 0 00.001-5.639z" fill="#b3b3b3"/></svg>