<svg xmlns="http://www.w3.org/2000/svg" width="64" height="58"><path d="M52.728 40H20.061C18.923 40 18 40.896 18 42s.923 1.999 2.061 1.999h32.667c2.845 0 5.151 2.239 5.151 5 0 2.763-2.307 5.001-5.151 5.001-2.846 0-5.152-2.238-5.152-5.001 0-1.104-.922-1.999-2.061-1.999-1.138 0-2.061.895-2.061 1.999 0 4.971 4.151 9.001 9.273 9.001S62 53.97 62 48.999C62 44.029 57.849 40 52.728 40z" fill-rule="evenodd" clip-rule="evenodd" fill="#72c1f7"/><path d="M46 0c-9.941 0-18 8.059-18 18a4 4 0 008 0c0-5.523 4.478-10 10-10s10 4.477 10 10c0 5.522-4.478 10-10 10H4a4 4 0 100 8h42c9.941 0 18-8.059 18-18S55.941 0 46 0z" fill-rule="evenodd" clip-rule="evenodd" fill="#48a0dc"/><path d="M20 20H8a2 2 0 000 4h12a2 2 0 000-4z" fill="#72c1f7"/></svg>