<svg xmlns="http://www.w3.org/2000/svg" width="64.022" height="59.998"><path d="M61.97 51.989l1.999-4h-3.998l-1.999 4h-3.998l1.999-4h-3.998l-2.665 4H11.994v-2.167c0-4.992-9.995 2.099-9.995 2.099C.853 52.793 0 53.386 0 54.02c0 .372.603 1.089 1.999 2.1 0 0 9.995 7.09 9.995 2.099V55.99H49.31l2.665 4h3.998l-1.999-4h3.998l1.999 4h3.998l-1.999-4v-4.001z" fill-rule="evenodd" clip-rule="evenodd" fill="#b3b3b3"/><path d="M17.427.385c.033 0 .062.01.094.012.164-.19.174-.247-.094-.012zm33.868 9.622c-7.098-.001-8.291 11.99-19.537 11.99-4.753 0-5.167-10.648-9.713-14.3-1.436-1.153-3.369-1.547-5.003-3.079 2.772-.373 2.436-4.09.479-4.222-.618.712-3.433 3.323-2.019-.396-1.724 1.896-1.813.942-3.079 2.693-.922.153.214-1.753-1.154-1.154-1.478 2.78-1.345 5.163-1.154 8.082.662.152 1.691-.195 1.859.376-1.311 1.46-.176 2.671.064 3.857-5.421 17.62 8.84 23.15 17.741 30.143-.009 2.428.275 4.68-.807 6.034-1.608.199-6.88 1.664-7.107 1.966-1.093 0-1.979.896-1.979 2s.886 2 1.979 2h9.893c1.093 0 1.979-.896 1.979-2s-.886-2-1.979-2c-.544-.243 2.329-7.255 1.979-10 7.013 0 7.913-6 7.913-6s7.194-.116 11.955-7.133c5.154-1.71 7.829-9.468 7.829-.867.002 1.92 10.28-17.99-10.139-17.99z" fill-rule="evenodd" clip-rule="evenodd" fill="#4d4d4d"/></svg>