<svg xmlns="http://www.w3.org/2000/svg" width="64" height="64"><path d="M52 12a4 4 0 100 8 4 4 0 110 8H20a4 4 0 000 8h32c6.627 0 12-5.373 12-12 0-6.628-5.373-12-12-12z" fill-rule="evenodd" clip-rule="evenodd" fill="#54bbff"/><path d="M32.446 40.022A4.946 4.946 0 0032 40H16a8 8 0 01-8-8 8 8 0 018-8h16c.143 0 .292-.008.446-.022C38.864 23.741 44 18.477 44 12 44 5.648 39.05.503 32.806.081A4 4 0 1132 16H18c-.218 0-.428.03-.637.064C16.913 16.026 16.46 16 16 16 7.163 16 0 23.163 0 32c0 8.836 7.163 16 16 16h16a4 4 0 110 8 4 4 0 10.806 7.918C39.05 63.496 44 58.351 44 52c0-6.478-5.136-11.741-11.554-11.978z" fill-rule="evenodd" clip-rule="evenodd" fill="#48a0dc"/></svg>