<svg xmlns="http://www.w3.org/2000/svg" width="63.986" height="63.985"><path d="M32.056 0c-3.931.004-4.045.107-4.049 4.035-.004 3.926.087 27.961 4.018 27.957s7.137-20.964 7.141-24.891A7.097 7.097 0 0032.056 0z" fill="#fc6"/><path d="M32.024 31.992c-3.931.004-7.137 20.965-7.141 24.891a7.096 7.096 0 007.109 7.103c3.931-.003 4.01-.079 4.014-4.005.005-3.927-.051-27.993-3.982-27.989z" fill="#fc6"/><path d="M7.123 24.034C3.193 24.039.004 27.476 0 31.711s.076 4.297 4.007 4.293c3.93-.005 28.014-.092 28.018-4.327S11.054 24.03 7.123 24.034zm52.884 3.977c-3.923.005-27.979.06-27.982 4.319s20.93 7.689 24.853 7.686 7.105-3.461 7.109-7.72-.057-4.289-3.98-4.285z" fill="#fc6"/><ellipse cx="32.007" cy="32.007" rx="6" ry="5.994" fill="#9b7cab"/></svg>