<svg xmlns="http://www.w3.org/2000/svg" width="64" height="67.934"><path d="M62 27.973h-8c-1.104 0-2 .895-2 1.998s.896 1.997 2 1.997h8c1.104 0 2-.894 2-1.997a2 2 0 00-2-1.998zm-8-15.985h8a2 2 0 002-1.998 2 2 0 00-2-1.998h-8a2 2 0 00-2 1.998 2 2 0 002 1.998z" fill-rule="evenodd" clip-rule="evenodd" fill="#ccc"/><path d="M62 3.996a2 2 0 00-2 1.998v59.941a1.999 1.999 0 004 0V5.994a2 2 0 00-2-1.998z" fill="gray"/><path d="M52 3.996L4 7.992c-2.209 0-4 1.788-4 3.996v15.984a3.998 3.998 0 004 3.995l48 3.997c2.209 0 4-1.789 4-3.997V7.992a3.998 3.998 0 00-4-3.996z" fill="#ed7161"/><path d="M4 31.968L20 33.3V6.66L4 7.992v23.976zm32-26.64v29.304l16 1.333V3.996L36 5.328z" fill-rule="evenodd" clip-rule="evenodd" fill="#ccc"/></svg>