<svg xmlns="http://www.w3.org/2000/svg" width="63.951" height="66.06"><path d="M14 36a2 2 0 000 4h16a2 2 0 000-4H14zm28-8H14a2 2 0 000 4h28a2 2 0 000-4zm-28-4h16a2 2 0 000-4H14a2 2 0 000 4zm28-12H14a2 2 0 000 4h28a2 2 0 000-4zM52 0H4a4 4 0 00-4 4v56a4 4 0 004 3.999L43.397 64l-3.999-4H6a2 2 0 01-2-2V6a2 2 0 012-2h44a2 2 0 012 2v41.313l1.616-1.616A5.99 5.99 0 0156 44.251V4a4 4 0 00-4-4z" fill-rule="evenodd" clip-rule="evenodd" fill="#ccc"/><path d="M59.393 48.565a2.016 2.016 0 00-2.854 0l-8.521 8.521-4.509-4.516a2.06 2.06 0 00-2.921 0 2.07 2.07 0 000 2.926l5.841 5.851c.207.208.448.36.705.461a2.015 2.015 0 002.271-.399l9.988-9.988a2.02 2.02 0 000-2.856z" fill-rule="evenodd" clip-rule="evenodd" fill="#88c057"/></svg>