<svg xmlns="http://www.w3.org/2000/svg" width="56" height="63.999"><path d="M52 0H4a4 4 0 00-4 3.999v56a4 4 0 004 4h34l18-18v-42A4 4 0 0052 0z" fill="#9b7cab"/><path d="M42 45.998c-2.209 0-4 1.792-4 4.001v14l18-18.001H42z" fill="#6d5778"/><path d="M17.168 14.004L10 37.999h4.5l1.641-7.079h7.099l2.511 7.079h4.5l-7.873-23.995h-5.21zm-.364 13.659l1.725-5.813c.397-1.401.729-3.048 1.062-4.413h.066c.332 1.365.696 2.977 1.128 4.413l1.758 5.813h-5.739zm29.192.806c0-3.747-1.691-8.301-6.966-8.301-5.175 0-7.896 4.448-7.896 9.177 0 5.218 3.085 8.649 8.326 8.649 2.323 0 4.246-.49 5.641-1.085l-.598-2.978c-1.228.491-2.588.771-4.479.771-2.588 0-4.876-1.33-4.976-4.412h10.813c.069-.387.135-1.017.135-1.821zM35.05 27.277c.165-1.751 1.227-4.167 3.748-4.167 2.72 0 3.384 2.592 3.351 4.167H35.05z" fill-rule="evenodd" clip-rule="evenodd" fill="#fff"/></svg>