<svg xmlns="http://www.w3.org/2000/svg" width="64" height="68"><path d="M14 24h16a2 2 0 000-4H14a2 2 0 000 4zM52 0H4a4 4 0 00-4 4v56a4 4 0 004 3.999h33.44A16.047 16.047 0 0134.158 60H6a2 2 0 01-2-2V6a2 2 0 012-2h44a2 2 0 012 2v30.526c1.42.366 2.762.916 4 1.633V4a4 4 0 00-4-4zM14 36a2 2 0 000 4h16a2 2 0 000-4H14zm28-24H14a2 2 0 000 4h28a2 2 0 000-4zm0 16H14a2 2 0 000 4h28a2 2 0 000-4z" fill-rule="evenodd" clip-rule="evenodd" fill="#ccc"/><circle cx="48" cy="52" r="12" fill="#ed7161"/><path d="M48 44.001a2 2 0 00-2 2v6a2 2 0 004 0v-6a2 2 0 00-2-2zM48 56a2 2 0 10.002 4.002A2 2 0 0048 56z" fill-rule="evenodd" clip-rule="evenodd" fill="#fff"/></svg>