<svg xmlns="http://www.w3.org/2000/svg" width="56" height="63.999"><path d="M52 0H4a4 4 0 00-4 3.999v56a4 4 0 004 4h34l18-18v-42A4 4 0 0052 0z" fill="#48a0dc"/><path d="M42 45.998c-2.208 0-4 1.792-4 4.001v14l18-18.001H42z" fill="#387ba8"/><path d="M27.329 15.91c-1.481-1.252-3.755-1.914-6.856-1.914-2.859 0-4.961.209-6.477.487L14 37.999h4.375v-8.888c.551.104.958 0 1.75 0 2.998 0 5.792-.989 7.48-2.694 1.309-1.253 2.145-3.079 2.145-5.307a6.795 6.795 0 00-2.421-5.2zm-7.062 9.672c-.861 0-1.375.112-1.892-.027v-8c.448-.104 1.454 0 2.625 0 2.929 0 4.365 1.104 4.365 3.714 0 2.747-1.929 4.313-5.098 4.313zm17.258 1.913c-2.136-.767-2.929-1.287-2.929-2.366 0-1.043.828-1.773 2.343-1.773 1.48 0 2.825.557 3.548.974l.826-3.026c-.964-.522-2.583-1.01-4.444-1.01-3.893 0-6.339 2.332-6.339 5.323-.034 1.982 1.344 3.793 4.617 4.94 2.067.73 2.755 1.321 2.755 2.471 0 1.113-.826 1.879-2.687 1.879-1.516 0-3.342-.626-4.307-1.218l-.826 3.097c1.239.694 3.065 1.218 5.099 1.218 4.444 0 6.821-2.262 6.821-5.323-.033-2.506-1.445-4.073-4.477-5.186z" fill-rule="evenodd" clip-rule="evenodd" fill="#fff"/></svg>