<svg xmlns="http://www.w3.org/2000/svg" width="56" height="64.001"><path d="M52 0H4a4 4 0 00-4 4v56a4 4 0 004 4.001h34l18-18V4a4 4 0 00-4-4z" fill="#88c057"/><path d="M42 46.001a4 4 0 00-4 4v14l18-18H42z" fill="#638c3f"/><path d="M37.393 20.566a2.016 2.016 0 00-2.854 0l-8.521 8.521-4.509-4.517c-.807-.809-2.114-.809-2.921 0s-.807 2.118 0 2.927l5.841 5.851c.208.209.451.362.709.462a2.011 2.011 0 002.266-.402l9.988-9.987a2.019 2.019 0 00.001-2.855z" fill-rule="evenodd" clip-rule="evenodd" fill="#fff"/></svg>