<svg xmlns="http://www.w3.org/2000/svg" width="62.017" height="67.997"><path d="M14 36a2 2 0 000 4h16a2 2 0 000-4H14zm28-8H14a2 2 0 000 4h28a2 2 0 000-4zm-28-4h16a2 2 0 000-4H14a2 2 0 000 4zM52 0H4a4 4 0 00-4 4v56a4 4 0 004 3.999h34l.196-.197A6.051 6.051 0 0138.22 60H6a2 2 0 01-2-2V6a2 2 0 012-2h44a2 2 0 012 2v39.383a6.016 6.016 0 014-1.453V4a4 4 0 00-4-4zM42 12H14a2 2 0 000 4h28a2 2 0 000-4z" fill-rule="evenodd" clip-rule="evenodd" fill="#ccc"/><path d="M57.43 60.727l-4.703-4.702 4.703-4.703a1.902 1.902 0 10-2.691-2.69l-4.703 4.703-4.762-4.761a1.906 1.906 0 00-2.701 0 1.908 1.908 0 000 2.7l4.763 4.762-4.705 4.705a1.902 1.902 0 102.69 2.69l4.705-4.705 4.703 4.703a1.91 1.91 0 002.701-2.702z" fill-rule="evenodd" clip-rule="evenodd" fill="#ed7161"/></svg>