<svg xmlns="http://www.w3.org/2000/svg" width="56" height="64"><path d="M52 0H4a4 4 0 00-4 4v56a4 4 0 004 4h34l18-18V4a4 4 0 00-4-4z" fill="#88c057"/><path d="M42 46a4 4 0 00-4 4v14l18-18H42z" fill="#638c3f"/><path d="M17.808 14.005l-7.804 23.604h4.589l2.095-6.688h7.73l2.204 6.688h4.769L23.48 14.005h-5.672zm-.398 13.658l1.879-5.813c.434-1.4.795-3.046 1.156-4.411h.071c.361 1.365.759 2.975 1.229 4.411l1.914 5.813H17.41zm30.442 4.656V19.991h-4.444v10.628c0 .508-.108.977-.253 1.374-.47 1.123-1.625 2.387-3.396 2.387-2.348 0-3.287-1.879-3.287-4.808v-9.581h-4.443v10.34c0 5.748 2.926 7.664 6.142 7.664 3.143 0 4.877-1.808 5.635-3.074h.073l.216 2.676h3.901c-.073-1.447-.144-3.18-.144-5.278z" fill-rule="evenodd" clip-rule="evenodd" fill="#fff"/></svg>