<svg xmlns="http://www.w3.org/2000/svg" width="64" height="68"><path d="M52 0H4a4 4 0 00-4 4v56a4 4 0 004 3.999h33.44A16.051 16.051 0 0134.157 60H6a2 2 0 01-2-2V6a2 2 0 012-2h44a2 2 0 012 2v30.526a15.89 15.89 0 014 1.633V4a4 4 0 00-4-4zM14 36a2 2 0 000 4h16a2 2 0 000-4H14zm28-8H14a2 2 0 000 4h28a2 2 0 000-4zm-28-4h16a2 2 0 000-4H14a2 2 0 000 4zm28-12H14a2 2 0 000 4h28a2 2 0 000-4z" fill-rule="evenodd" clip-rule="evenodd" fill="#ccc"/><circle cx="48" cy="52" r="12" fill="#ed7161"/><path d="M52 50h-8a2 2 0 000 3.999h8A2 2 0 1052 50z" fill="#fff"/></svg>