<svg xmlns="http://www.w3.org/2000/svg" width="56" height="63.999"><path d="M52 0H4a4 4 0 00-4 3.999v56a4 4 0 004 4h34l18-18v-42A4 4 0 0052 0z" fill="#ccc"/><path d="M42 45.998c-2.209 0-4 1.792-4 4.001v14l18-18.001H42z" fill="#999"/><path d="M12.022 38.006h4.412V27.821h8.896v-3.597h-8.896V17.6h9.543v-3.597H12.022v24.003zm24.759-18.364c-2.212 0-3.796 1.011-4.521 2.31h-.066v-9.958h-4.061v20.673c0 1.804-.065 3.751-.132 4.942h3.632l.164-2.778h.066c.958 1.948 2.904 3.176 5.248 3.176 3.828 0 6.865-3.572 6.865-8.983.034-5.883-3.332-9.382-7.195-9.382zm-.957 14.792c-1.65 0-3.103-1.227-3.499-3.139-.099-.397-.132-.83-.132-1.299v-2.633c0-.362.033-.794.099-1.156.364-1.731 1.65-3.138 3.5-3.138 2.606 0 4.06 2.524 4.06 5.808 0 3.212-1.454 5.557-4.028 5.557z" fill-rule="evenodd" clip-rule="evenodd" fill="#fff"/></svg>