<svg xmlns="http://www.w3.org/2000/svg" width="56" height="64"><path d="M52 0H4a4 4 0 00-4 4v55.999A4 4 0 004 64h34l18-18V4a4 4 0 00-4-4z" fill="#fc6"/><path d="M42 46a4 4 0 00-4 4v14l18-18H42z" fill="#cca352"/><path d="M42 20H30a2 2 0 000 4h12a2 2 0 000-4zm-12-4.001h12a2 2 0 100-4H30a2 2 0 000 4zM42 28H14a2 2 0 000 4h28a2 2 0 000-4zm-18 7.999H14A2 2 0 0014 40h10a2 2 0 000-4.001zM14 24h8a2 2 0 002-2.001V14a2 2 0 00-2-2.001h-8A2 2 0 0012 14v7.999A2 2 0 0014 24z" fill-rule="evenodd" clip-rule="evenodd" fill="#fff"/></svg>