<svg xmlns="http://www.w3.org/2000/svg" width="56" height="64.001"><path d="M52 0H4a4 4 0 00-4 4v56a4 4 0 004 4.001h34l18-18V4a4 4 0 00-4-4z" fill="#88c057"/><path d="M42 46.001a4 4 0 00-4 4v14l18-18H42z" fill="#638c3f"/><path d="M16 24.001h8A2 2 0 0024 20h-3.989A9.97 9.97 0 0128 16c4.838 0 8.873 3.436 9.799 8.001h4.042C40.868 17.218 35.051 12 28 12c-3.924 0-7.462 1.62-10 4.222v-2.221a2 2 0 10-4 0V22c0 1.104.896 2.001 2 2.001zM40 28h-8a2 2 0 000 4.001h3.988A9.97 9.97 0 0128 36c-4.839 0-8.873-3.436-9.799-8h-4.042c.972 6.781 6.789 12.001 13.841 12.001a13.92 13.92 0 0010-4.224V38a2 2 0 104 0v-8a2 2 0 00-2-2z" fill-rule="evenodd" clip-rule="evenodd" fill="#fff"/></svg>