<svg xmlns="http://www.w3.org/2000/svg" width="56" height="64"><path d="M52 0H4a4 4 0 00-4 4v55.999A4 4 0 004 64h34l18-18V4a4 4 0 00-4-4z" fill="#fc6"/><path d="M42 46a4 4 0 00-4 4v14l18-18H42z" fill="#cca352"/><path d="M28 40.001l.02-.001h-.04l.02.001zM37.777 16a13.926 13.926 0 00-16.961-2H16v4.815a13.93 13.93 0 002 16.963V40h6v-6h-4.922A11.91 11.91 0 0116 26c0-2.188.595-4.233 1.619-6H22v-4.382a11.933 11.933 0 0114 1.46V22h6v-6h-4.223z" fill-rule="evenodd" clip-rule="evenodd" fill="#fff"/></svg>