<svg xmlns="http://www.w3.org/2000/svg" width="56" height="64.001"><path d="M52 0H4a4 4 0 00-4 4v56a4 4 0 004 4.001h34l18-18V4a4 4 0 00-4-4z" fill="#ed7261"/><path d="M42 46.001a4 4 0 00-4 4v14l18-18H42z" fill="#ba594c"/><path d="M35.43 30.728l-4.703-4.702 4.703-4.702a1.906 1.906 0 000-2.692 1.907 1.907 0 00-2.691 0l-4.703 4.703-4.762-4.762a1.91 1.91 0 10-2.701 2.701l4.762 4.762-4.705 4.704a1.902 1.902 0 102.69 2.69l4.705-4.705 4.703 4.703a1.908 1.908 0 002.701 0 1.908 1.908 0 00.001-2.7z" fill-rule="evenodd" clip-rule="evenodd" fill="#fff"/></svg>