<svg xmlns="http://www.w3.org/2000/svg" width="56" height="64"><path d="M52 0H4a4 4 0 00-4 4v56a4 4 0 004 4h34l18-18V4a4 4 0 00-4-4z" fill="#88c057"/><path d="M42 46a4 4 0 00-4 4v14l18-18H42z" fill="#638c3f"/><path d="M20.541 23.177c-2.912-1.097-4.175-1.849-4.175-3.479 0-1.222 1.101-2.537 3.624-2.537 2.039 0 3.56.595 4.337 1.002l.97-3.101c-1.132-.564-2.879-1.066-5.241-1.066-4.725 0-7.702 2.632-7.702 6.078 0 3.039 2.298 4.888 5.89 6.141 2.783.971 3.884 1.911 3.884 3.509 0 1.723-1.424 2.883-3.98 2.883-2.039 0-3.98-.627-5.275-1.348l-.874 3.195c1.198.689 3.593 1.347 5.89 1.347 5.632 0 8.285-2.976 8.285-6.359-.002-3.039-1.847-4.888-5.633-6.265zM40.54 20.2l-.161 2.035h-.065c-.744-1.253-2.168-2.38-4.563-2.38-3.786 0-7.152 3.039-7.152 8.052 0 4.322 2.783 7.455 6.699 7.455 2.071 0 3.688-.908 4.595-2.255h.064v1.315c0 3.29-1.941 4.605-4.53 4.605-1.909 0-3.591-.597-4.595-1.16l-.874 2.913c1.359.816 3.495 1.223 5.501 1.223 2.169 0 4.434-.438 6.084-1.848 1.65-1.441 2.33-3.729 2.33-6.924v-8.647a63.6 63.6 0 01.13-4.385H40.54zm-.647 8.584c0 .438-.064.971-.161 1.378a3.386 3.386 0 01-3.236 2.317c-2.492 0-3.851-2.099-3.851-4.699 0-3.101 1.65-4.98 3.883-4.98 1.683 0 2.815 1.065 3.235 2.476.098.313.13.688.13 1.034v2.474z" fill-rule="evenodd" clip-rule="evenodd" fill="#fff"/></svg>