<svg xmlns="http://www.w3.org/2000/svg" width="56" height="64"><path d="M52 0H4a4 4 0 00-4 4v56a4 4 0 004 4h34l18-18V4a4 4 0 00-4-4z" fill="#48a0dc"/><path d="M42 46a4 4 0 00-4 4v14l18-18H42z" fill="#387ba8"/><path d="M29.677 15.951c-1.52-1.271-3.851-1.943-7.032-1.943-2.932 0-5.087.212-6.642.495v23.5h4.311v-8.977c.565.107 1.308.142 2.12.142 3.074 0 5.795-.812 7.525-2.544 1.343-1.272 2.05-3.145 2.05-5.408 0-2.225-.919-4.099-2.332-5.265zm-7.243 9.825c-.884 0-1.59-.037-2.12-.177v-8.058c.46-.105 1.308-.211 2.509-.211 3.004 0 4.84 1.412 4.84 4.063-.001 2.792-1.979 4.383-5.229 4.383zm13.542-13.779v26.006h4.021V11.997h-4.021z" fill-rule="evenodd" clip-rule="evenodd" fill="#fff"/></svg>