<svg xmlns="http://www.w3.org/2000/svg" width="56" height="64"><path d="M52 0H4a4 4 0 00-4 4v55.999A4 4 0 004 64h34l18-18V4a4 4 0 00-4-4z" fill="#ed7261"/><path d="M42 46a4 4 0 00-4 4v14l18-18H42z" fill="#ba594c"/><path d="M36.2 14.616l-14.4-2.593c-.994-.18-1.8.498-1.8 1.515V28.08a6.287 6.287 0 00-1-.081c-2.762 0-5 1.789-5 3.999 0 2.209 2.238 4 5 4 2.565 0 4.654-1.551 4.942-3.542.035-.147.058-.3.058-.458V19.774l10 1.803v10.501a6.297 6.297 0 00-1-.081c-2.761 0-5 1.791-5 4s2.238 3.999 5 3.999c2.565 0 4.655-1.551 4.943-3.541.035-.147.058-.3.058-.458V16.78c-.001-1.015-.807-1.984-1.801-2.164z" fill-rule="evenodd" clip-rule="evenodd" fill="#fff"/></svg>