<svg xmlns="http://www.w3.org/2000/svg" width="56" height="64"><path d="M52 0H4a4 4 0 00-4 4v56a4 4 0 004 4h34l18-18V4a4 4 0 00-4-4z" fill="#48a0dc"/><path d="M42 45.999c-2.209 0-4 1.792-4 4.001v14l18-18.001H42z" fill="#387ba8"/><path d="M35.312 16.999c-1.8-1.986-4.158-2.979-7.074-2.979-3.087 0-5.566 1.037-7.438 3.111s-2.807 4.791-2.807 8.148c0 3.182.921 5.762 2.765 7.743 1.842 1.98 4.227 2.97 7.152 2.97 3.001 0 5.436-1.021 7.302-3.066s2.8-4.736 2.8-8.076c0-3.248-.901-5.866-2.7-7.851zm-3.541 13.076c-.931 1.189-2.189 1.785-3.775 1.785-1.538 0-2.783-.612-3.733-1.838-.949-1.225-1.424-2.89-1.424-4.993 0-2.074.475-3.741 1.424-5 .95-1.26 2.232-1.89 3.848-1.89 1.566 0 2.802.612 3.704 1.837.902 1.226 1.354 2.939 1.354 5.142-.002 2.114-.468 3.767-1.398 4.957z" fill="#fff"/></svg>