<svg xmlns="http://www.w3.org/2000/svg" width="56" height="64"><path d="M52 0H4a4 4 0 00-4 4v56a4 4 0 004 4h34l18-18V4a4 4 0 00-4-4z" fill="#48a0dc"/><path d="M42 46a4 4 0 00-4 4v14l18-18H42z" fill="#387ba8"/><path d="M16.309 27.354h8.888v-3.561h-8.888v-6.196h9.412V14H12.005v24.001h14.241v-3.597h-9.938v-7.05zm22.133-7.087a5.56 5.56 0 00-4.977 2.992h-.097l-.192-2.6H29.71c.097 1.496.129 3.169.129 5.163v12.179h3.98V27.817c0-.499.032-1.034.161-1.426.417-1.316 1.509-2.563 3.081-2.563 2.151 0 2.985 1.887 2.985 4.38v9.793h3.948V27.71c.001-5.484-2.823-7.443-5.552-7.443z" fill-rule="evenodd" clip-rule="evenodd" fill="#fff"/></svg>