<svg xmlns="http://www.w3.org/2000/svg" width="56" height="64"><path d="M52 0H4a4 4 0 00-4 4v56a4 4 0 004 4h34l18-18V4a4 4 0 00-4-4z" fill="#48a0dc"/><path d="M42 45.999c-2.208 0-4 1.792-4 4.001v14l18-18.001H42z" fill="#387ba8"/><path d="M37.467 15.997l-2.741 13.351a14.512 14.512 0 00-.291 2.232h-.056c-.092-.939-.198-1.655-.318-2.147l-3.253-13.436h-4.79l-3.6 13.267c-.23.848-.365 1.628-.401 2.344h-.083c-.055-.957-.143-1.72-.263-2.287l-2.796-13.323h-4.887l5.219 20.005h5.164l3.378-12.835c.157-.585.277-1.334.36-2.245h.056a10.8 10.8 0 00.318 2.245l3.295 12.835h4.957l5.247-20.005h-4.515z" fill="#fff"/></svg>