<svg xmlns="http://www.w3.org/2000/svg" width="56" height="64.001"><path d="M52 0H4a4 4 0 00-4 4v56a4 4 0 004 4.001h34l18-18V4a4 4 0 00-4-4z" fill="#48a0dc"/><path d="M42 46.001a4 4 0 00-4 4v14l18-18H42z" fill="#387ba8"/><path d="M40.25 23.375l-1.301-.426c-.25-.894-.6-1.744-1.048-2.537l.616-1.218a1.75 1.75 0 000-2.476l-1.237-1.237a1.75 1.75 0 00-2.475 0l-1.216.619a11.34 11.34 0 00-2.537-1.049l-.427-1.301a1.75 1.75 0 00-1.75-1.75h-1.75a1.75 1.75 0 00-1.75 1.75l-.425 1.301c-.892.247-1.739.597-2.529 1.042l-1.228-.611a1.75 1.75 0 00-2.475 0l-1.237 1.237a1.752 1.752 0 000 2.476l.611 1.228a11.298 11.298 0 00-1.039 2.517l-1.304.437a1.75 1.75 0 00-1.75 1.75v1.75c0 .968.783 1.75 1.75 1.75l1.305.438a11.26 11.26 0 001.038 2.516l-.611 1.229a1.75 1.75 0 000 2.475l1.237 1.237a1.75 1.75 0 002.475 0l1.229-.609c.785.442 1.629.789 2.516 1.037l.438 1.305c0 .966.783 1.75 1.75 1.75h1.75a1.75 1.75 0 001.75-1.75l.438-1.305a11.273 11.273 0 002.524-1.044l1.219.616a1.75 1.75 0 002.475 0l1.237-1.237a1.75 1.75 0 000-2.475l-.619-1.22c.447-.792.799-1.642 1.048-2.537l1.302-.428c.967 0 1.75-.782 1.75-1.75v-1.75a1.75 1.75 0 00-1.75-1.75zM28 32.001a6 6 0 11.002-12.002A6 6 0 0128 32.001z" fill="#fff"/></svg>