<svg xmlns="http://www.w3.org/2000/svg" width="56" height="63.999"><path d="M52 0H4a4 4 0 00-4 3.999v56a4 4 0 004 4h34l18-18v-42A4 4 0 0052 0z" fill="#fc6"/><path d="M42 45.998c-2.209 0-4 1.792-4 4.001v14l18-18.001H42z" fill="#cca352"/><path d="M25.729 25.09v-.07c2.595-.945 3.98-2.939 3.98-5.109 0-1.993-.995-3.534-2.488-4.407-1.634-1.12-3.625-1.505-6.859-1.505-2.453 0-4.977.21-6.363.489v23.199c1.103.14 2.95.313 5.367.313 4.373 0 7.181-.734 8.887-2.203 1.386-1.119 2.311-2.765 2.311-4.864-.001-3.254-2.311-5.213-4.835-5.843zm-7.393-7.734c.463-.105 1.209-.175 2.488-.175 2.772 0 4.479 1.015 4.479 3.219 0 1.995-1.706 3.396-4.728 3.396h-2.239v-6.44zm2.31 17.391c-.995 0-1.741 0-2.311-.104v-7.699h2.168c3.021 0 5.438 1.12 5.438 3.85.001 2.904-2.486 3.953-5.295 3.953zM42.97 20.33c-1.85 0-3.875 1.226-4.728 3.641H38.1l-.143-3.255h-3.804c.106 1.539.144 3.185.144 5.493v11.547h4.371v-8.817c0-.49.072-.944.143-1.329.391-1.926 1.813-3.255 3.909-3.255.534 0 .925.069 1.28.14v-4.058a4.59 4.59 0 00-1.03-.107z" fill-rule="evenodd" clip-rule="evenodd" fill="#fff"/></svg>