<svg xmlns="http://www.w3.org/2000/svg" width="56" height="64"><path d="M52 0H4a4 4 0 00-4 4v55.999A4 4 0 004 64h34l18-18V4a4 4 0 00-4-4z" fill="#48a0dc"/><path d="M42 46a4 4 0 00-4 4v14l18-18H42z" fill="#387ba8"/><path d="M37.008 23.93l-11.676-7.413a1.982 1.982 0 00-1.062-.49c-.04-.007-.081-.009-.122-.012-.05-.004-.098-.015-.148-.015-.028 0-.055.007-.083.008-.06.002-.118.01-.177.018a2.003 2.003 0 00-.238.044c-.023.006-.045.014-.068.021A1.992 1.992 0 0022 18v16c0 .902.602 1.656 1.423 1.905l.087.027c.071.018.144.03.218.04.065.009.131.018.197.02.025.001.05.008.075.008.046 0 .09-.011.135-.014.048-.004.095-.007.143-.014.4-.056.762-.229 1.049-.486l11.682-7.415c.687-.436 1.041-1.256.98-2.071.06-.814-.295-1.634-.981-2.07zM26 21.98l6.332 4.021L26 30.02v-8.04z" fill-rule="evenodd" clip-rule="evenodd" fill="#fff"/></svg>