<svg xmlns="http://www.w3.org/2000/svg" width="56" height="63.999"><path d="M52 0H4a4 4 0 00-4 3.999v56a4 4 0 004 4h34l18-18v-42A4 4 0 0052 0z" fill="#ed7261"/><path d="M42 45.998c-2.209 0-4 1.792-4 4.001v14l18-18.001H42z" fill="#ba594c"/><path d="M15.996 37.99l3.696.009V13.856l-3.696.023V37.99zM40 12h-4.5v9.616c-.803-1.131-2.296-1.975-4.322-1.975-3.883 0-7.268 3.499-7.233 9.38 0 5.412 3.053 8.983 6.901 8.983 1.845 0 3.526-.683 4.654-1.898v1.892H40c-.066-1.19 0-2.784 0-4.588V12zm-4.5 19.882c-.398 1.912-1.701 2.552-3.36 2.552-2.588 0-4.049-2.345-4.049-5.557 0-3.283 1.461-5.807 4.082-5.807 1.858 0 2.961.963 3.327 2.693.065.361 0 1.169 0 1.529v3.06c0 .469.1 1.132 0 1.53z" fill-rule="evenodd" clip-rule="evenodd" fill="#fff"/></svg>