<svg xmlns="http://www.w3.org/2000/svg" width="56" height="64.001"><path d="M52 0H4a4 4 0 00-4 4v56a4 4 0 004 4.001h34l18-18V4a4 4 0 00-4-4z" fill="#48a0dc"/><path d="M42 46.001a4 4 0 00-4 4v14l18-18H42z" fill="#387ba8"/><path d="M35.35 26.584a2.08 2.08 0 00-2.933 0L30 28.993V17.999a2 2 0 10-4 0v11.09l-2.491-2.499a2.058 2.058 0 00-2.92 0 2.077 2.077 0 000 2.931l5.841 5.859c.324.326.73.51 1.151.573a1.994 1.994 0 001.851-.56c.016-.016.036-.024.052-.04l5.866-5.846c.81-.808.81-2.115 0-2.923z" fill-rule="evenodd" clip-rule="evenodd" fill="#fff"/></svg>