<svg xmlns="http://www.w3.org/2000/svg" width="56" height="64"><path d="M52 0H4a4 4 0 00-4 4v55.999A4 4 0 004 64h34l18-18V4a4 4 0 00-4-4z" fill="#48a0dc"/><path d="M42 46a4 4 0 00-4 4v14l18-18H42z" fill="#387ba8"/><path d="M43 16.279a1.99 1.99 0 00-2.732.737l-2.721 6.771-1.815-2.892c-.552-.88-1.775-1.182-2.731-.674a1.875 1.875 0 00-.849.911L26 27.284l-6.292-6.291a1.984 1.984 0 00-.708-.714 1.968 1.968 0 00-.947-.26 1.904 1.904 0 00-1.483.55 1.903 1.903 0 00-.545 1.174L12.268 32.97A2.021 2.021 0 0013 35.721c.956.557 2.18.227 2.732-.737l3.143-9.394 5.348 5.349c.09.176.199.345.347.492.394.393.915.574 1.431.555a1.91 1.91 0 001.431-.555c.147-.147.258-.316.347-.493l5.922-5.923 2.568 4.09c.553.88 1.775 1.181 2.732.673.589-.312.937-.859.99-1.438l3.742-9.31A2.023 2.023 0 0043 16.279z" fill-rule="evenodd" clip-rule="evenodd" fill="#fff"/></svg>