<svg xmlns="http://www.w3.org/2000/svg" width="56" height="63.999"><path d="M52 0H4a4 4 0 00-4 3.999v56a4 4 0 004 4h34l18-18v-42A4 4 0 0052 0z" fill="#fc6"/><path d="M42 45.998c-2.209 0-4 1.792-4 4.001v14l18-18.001H42z" fill="#cca352"/><path d="M22.026 13.991l-8.027 24.012h4.72l2.156-6.805h7.953l2.267 6.805h4.906l-8.14-24.012h-5.835zm-.409 13.894l1.934-5.914c.446-1.425.816-3.1 1.189-4.488h.074c.371 1.389.78 3.028 1.263 4.488l1.971 5.914h-6.431zm15.626 10.118h4.504V21.059h-4.504v16.944zm2.216-19.379c1.562 0 2.542-1.01 2.542-2.297-.036-1.321-.98-2.331-2.506-2.331-1.489 0-2.506 1.01-2.506 2.331 0 1.287.981 2.297 2.47 2.297z" fill-rule="evenodd" clip-rule="evenodd" fill="#fff"/></svg>