<svg xmlns="http://www.w3.org/2000/svg" width="62" height="66"><path d="M14 36a2 2 0 000 4h16a2 2 0 000-4H14zM52 0H4a4 4 0 00-4 4v56a4 4 0 004 3.999L40.815 64a14.068 14.068 0 01-4.296-4H6a2 2 0 01-2-2V6a2 2 0 012-2h44a2 2 0 012 2v32.587a13.94 13.94 0 014 1.933V4a4 4 0 00-4-4zM42 12H14a2 2 0 000 4h28a2 2 0 000-4zM14 24h16a2 2 0 000-4H14a2 2 0 000 4zm28 4H14a2 2 0 000 4h28a2 2 0 000-4z" fill-rule="evenodd" clip-rule="evenodd" fill="#ccc"/><path d="M46 52a2 2 0 000-4.001h-2.442C44.654 46.779 46.23 46 48 46c1.774 0 3.365.775 4.463 2h4.699C55.619 44.469 52.1 42 48 42a9.927 9.927 0 00-6 2.012V44c0-1.104-.896-2.001-2-2.001s-2 .897-2 2.001v5.999A2 2 0 0040 52h6zm10.778.156a1.977 1.977 0 00-.778-.157h-6A2 2 0 0050 56h2.442c-1.096 1.22-2.672 1.999-4.442 1.999A5.979 5.979 0 0143.537 56h-4.699c1.544 3.53 5.063 6 9.162 6a9.944 9.944 0 006-2.011v.01a2 2 0 004 0v-6.001a2 2 0 00-1.222-1.842z" fill-rule="evenodd" clip-rule="evenodd" fill="#88c057"/></svg>