<svg xmlns="http://www.w3.org/2000/svg" width="56" height="64"><path d="M52 0H4a4 4 0 00-4 4v56a4 4 0 004 4h34l18-18V4a4 4 0 00-4-4z" fill="#9b7cab"/><path d="M42 46a4 4 0 00-4 4v14l18-18H42z" fill="#6d5778"/><path d="M36 28a5.974 5.974 0 00-4.094 1.622l-5.952-2.909c.027-.234.046-.471.046-.713s-.019-.479-.046-.713l5.952-2.909A5.974 5.974 0 0036 24a6.001 6.001 0 10-6-6.001c0 .248.02.491.049.73l-5.941 2.905a5.97 5.97 0 00-4.107-1.635 6 6 0 000 12.001 5.971 5.971 0 004.106-1.634l5.942 2.904c-.029.24-.049.482-.049.729A6 6 0 1036 28z" fill-rule="evenodd" clip-rule="evenodd" fill="#fff"/></svg>