<svg xmlns="http://www.w3.org/2000/svg" width="56" height="64.001"><path d="M52 0H4a4 4 0 00-4 4v56a4 4 0 004 4.001h34l18-18V4a4 4 0 00-4-4z" fill="#fc6"/><path d="M42 46.001a4 4 0 00-4 4v14l18-18H42z" fill="#cca352"/><path d="M41.925 21.823a1.544 1.544 0 00-1.191-1.032l-7.625-1.422-3.747-6.585a1.559 1.559 0 00-1.356-.783c-.563 0-1.083.3-1.357.783l-3.746 6.585-7.626 1.422c-.56.104-1.016.499-1.19 1.032s-.04 1.117.353 1.523l5.297 5.481-.961 7.45a1.522 1.522 0 00.624 1.428 1.574 1.574 0 001.571.153l7.036-3.2 7.034 3.2a1.578 1.578 0 001.572-.153c.456-.329.694-.876.624-1.428l-.961-7.45 5.298-5.481c.39-.406.526-.99.351-1.523z" fill="#fff"/></svg>