<svg xmlns="http://www.w3.org/2000/svg" width="56" height="64"><path d="M52 0H4a4 4 0 00-4 4v56a4 4 0 004 4h34l18-18V4a4 4 0 00-4-4z" fill="#ed7261"/><path d="M42 46a4 4 0 00-4 4v14l18-18H42z" fill="#ba594c"/><path d="M39.661 14.335c-3.118-3.119-8.179-3.116-11.301.006l-.011.012h-.001L16.342 26.35l.006.006-.005.004c-3.122 3.123-3.126 8.184-.007 11.302 2.584 2.584 6.498 3.019 9.541 1.318a6.961 6.961 0 01-4.6-2.033 7.004 7.004 0 01-1.078-1.404 3.936 3.936 0 01-1.023-.721 3.992 3.992 0 01-.003-5.642l-.006-.005 2.028-2.029c.029-.031.054-.065.084-.096.022-.022.049-.037.07-.059l2.7-2.701 2.24-2.241 4.877-4.878.019.019c.056-.063.098-.134.158-.194 1.516-1.516 4.006-1.482 5.563.073 1.557 1.558 1.589 4.047.073 5.563-.061.061-.131.103-.194.158l.034.034-9.883 9.883a1 1 0 01-1.413-1.412l7.097-7.083a1.998 1.998 0 00-.04-2.795 1.998 1.998 0 00-2.813-.024l-.002-.002-7.067 7.078.021.02c-.084.073-.177.128-.256.208-1.895 1.894-1.854 5.007.092 6.953 1.945 1.944 5.059 1.985 6.953.093.079-.079.139-.17.211-.253l.043.043 9.889-9.888-.002-.002.006-.005c3.122-3.124 3.125-8.184.006-11.303z" fill-rule="evenodd" clip-rule="evenodd" fill="#fff"/></svg>