<svg xmlns="http://www.w3.org/2000/svg" width="56" height="64"><path d="M52 0H4a4 4 0 00-4 4v55.999A4 4 0 004 64h34l18-18V4a4 4 0 00-4-4z" fill="#88c057"/><path d="M42 46a4 4 0 00-4 4v14l18-18H42z" fill="#638c3f"/><path d="M26 32H14a2 2 0 000 4h12a2 2 0 000-4zm0-14H14a2 2 0 000 4h12a2 2 0 000-4zm8.429 5.348c.208.208.45.361.707.462a2.015 2.015 0 002.269-.4l5.988-5.988a2.018 2.018 0 00-2.854-2.854l-4.519 4.518-.512-.514a2.063 2.063 0 00-2.921 0 2.072 2.072 0 000 2.927l1.842 1.849zm6.11 5.218l-4.519 4.518-.512-.514a2.063 2.063 0 00-2.921 0 2.072 2.072 0 000 2.927l1.841 1.851c.208.208.448.36.705.461a2.015 2.015 0 002.271-.399l5.988-5.988a2.018 2.018 0 00-2.853-2.856z" fill-rule="evenodd" clip-rule="evenodd" fill="#fff"/></svg>