<svg xmlns="http://www.w3.org/2000/svg" width="56" height="64"><path d="M52 0H4a4 4 0 00-4 4v56a4 4 0 004 4h34l18-18V4a4 4 0 00-4-4z" fill="#9b7cab"/><path d="M42 46a4 4 0 00-4 4v14l18-18H42z" fill="#6d5778"/><path d="M27.295 15.943C25.818 14.673 23.551 14 20.459 14c-2.851 0-4.947.213-6.459.494v23.507h4.191v-8.978c.55.105 1.271.142 2.062.142 2.988 0 5.634-.814 7.317-2.546 1.306-1.273 1.993-3.146 1.993-5.407 0-2.228-.894-4.102-2.268-5.269zm-7.042 9.828c-.86 0-1.546-.035-2.062-.177v-8.059c.447-.106 1.271-.212 2.439-.212 2.92 0 4.707 1.414 4.707 4.065 0 2.793-1.923 4.383-5.084 4.383zm20.751-5.373c-1.787 0-3.745 1.237-4.569 3.675h-.138l-.137-3.286h-3.676c.103 1.556.137 3.216.137 5.549v11.665h4.226v-8.907c0-.495.068-.954.137-1.343.378-1.945 1.752-3.287 3.778-3.287.516 0 .894.07 1.237.141v-4.102a4.397 4.397 0 00-.995-.105z" fill-rule="evenodd" clip-rule="evenodd" fill="#fff"/></svg>