<svg xmlns="http://www.w3.org/2000/svg" width="64" height="68"><path d="M14 24h16a2 2 0 000-4H14a2 2 0 000 4zm0 12a2 2 0 000 4h16a2 2 0 000-4H14zm28-8H14a2 2 0 000 4h28a2 2 0 000-4zM52 0H4a4 4 0 00-4 4v56a4 4 0 004 3.999h32V60H6a2 2 0 01-2-2V6a2 2 0 012-2h44a2 2 0 012 2v28.18c1.437.242 2.785.735 4 1.438V4a4 4 0 00-4-4zM42 12H14a2 2 0 000 4h28a2 2 0 000-4z" fill-rule="evenodd" clip-rule="evenodd" fill="#ccc"/><path d="M58 51.999V46a8 8 0 10-16 0v1.999h4V46a4 4 0 118 0v5.999H42A2 2 0 0040 54v7.998a2 2 0 002 2.001h16a2 2 0 002-2.001V54a2 2 0 00-2-2.001zm-8 8a2 2 0 11.001-4.001A2 2 0 0150 59.999z" fill-rule="evenodd" clip-rule="evenodd" fill="#88c057"/></svg>