<svg xmlns="http://www.w3.org/2000/svg" width="56" height="64"><path d="M52 0H4a4 4 0 00-4 4v56a4 4 0 004 4h34l18-18V4a4 4 0 00-4-4z" fill="#fc6"/><path d="M42 46a4 4 0 00-4 4v14l18-18H42z" fill="#cca352"/><path d="M14.583 17.596h9.919v-3.597H9.995v24.002h4.588V27.816h9.247v-3.598h-9.247v-6.622zm29.4 4.378l-1.795 7.108c-.433 1.876-.797 3.62-1.063 5.365h-.066a103.076 103.076 0 00-1.297-5.365l-2.026-7.108h-3.323l-2.095 7.307c-.465 1.646-.997 3.422-1.329 5.167h-.066c-.299-1.745-.665-3.489-1.03-5.201l-1.695-7.272H24.01l4.785 16.027h3.822l2.061-6.517c.465-1.579.896-3.159 1.229-5.134h.065a48.725 48.725 0 001.23 5.134l1.928 6.517h3.788l5.086-16.027h-4.021z" fill-rule="evenodd" clip-rule="evenodd" fill="#fff"/></svg>