<svg xmlns="http://www.w3.org/2000/svg" width="56" height="63.999"><path d="M52 0H4a4 4 0 00-4 3.999v56a4 4 0 004 4h34l18-18v-42A4 4 0 0052 0z" fill="#88c057"/><path d="M42 45.998c-2.209 0-4 1.792-4 4.001v14l18-18.001H42z" fill="#638c3f"/><path d="M14.085 14c-2.265 0-4.405.174-6.08.489v23.196c1.24.175 2.916.315 5.149.315 4.063 0 7.383-1.084 9.461-3.219 1.985-2.03 3.257-5.178 3.257-9.376 0-4.024-1.241-6.823-3.257-8.677-1.923-1.82-4.622-2.728-8.53-2.728zm-.155 20.571c-.775 0-1.582 0-2.109-.105V17.603c.527-.141 1.396-.245 2.605-.245 4.777 0 7.444 2.975 7.414 8.188 0 5.981-2.947 9.06-7.91 9.025zm32.053-12.598l-1.795 7.108c-.433 1.876-.797 3.62-1.063 5.364h-.066a103.292 103.292 0 00-1.297-5.364l-2.026-7.108h-3.323l-2.095 7.307c-.465 1.646-.997 3.422-1.329 5.166h-.066c-.299-1.744-.665-3.488-1.03-5.2l-1.695-7.272H26.01L30.795 38h3.822l2.061-6.516c.465-1.58.896-3.16 1.229-5.135h.065a48.865 48.865 0 001.23 5.135L41.131 38h3.788l5.086-16.027h-4.022z" fill-rule="evenodd" clip-rule="evenodd" fill="#fff"/></svg>