<svg xmlns="http://www.w3.org/2000/svg" width="56" height="63.999"><path d="M52 0H4a4 4 0 00-4 3.999v56a4 4 0 004 4h34l18-18v-42A4 4 0 0052 0z" fill="#48a0dc"/><path d="M42 45.998c-2.209 0-4 1.792-4 4.001v14l18-18.001H42z" fill="#387ba8"/><path d="M18.523 13.998h-4.526V38h14.72v-3.667H18.523V13.998zm22.413 6.269c-1.914 0-4.011 1.246-4.895 3.704h-.147l-.147-3.313h-3.938c.111 1.566.147 3.239.147 5.59V38h4.526v-8.974c0-.497.074-.962.147-1.354.405-1.958 1.877-3.312 4.048-3.312.552 0 .957.071 1.325.142v-4.13a4.913 4.913 0 00-1.066-.105z" fill-rule="evenodd" clip-rule="evenodd" fill="#fff"/></svg>