<svg xmlns="http://www.w3.org/2000/svg" width="56" height="64"><path d="M52 0H4a4 4 0 00-4 4v56a4 4 0 004 4h34l18-18V4a4 4 0 00-4-4z" fill="#ed7261"/><path d="M42 46a4 4 0 00-4 4v14l18-18H42z" fill="#ba594c"/><path d="M46.59 31.667c-.821-.414-1.968-.615-3.504-.615-2.165 0-4.426.159-6.732.474-3.094-3.059-6.274-7.364-8.624-11.681 1.189-4.088 1.796-9.014.018-10.955-.535-.584-1.255-.893-2.081-.893-1.416 0-2.182.615-2.574 1.132-1.779 2.34.553 7.698 2.231 10.894a33.57 33.57 0 01-.771 2.196c-1.186 3.039-3.629 9.303-6.359 14.692-4.768 2.209-10.162 5.496-10.162 7.739 0 3.111 2.429 3.354 3.173 3.354 1.745 0 4.315-1.111 8.764-9.709 4.931-2.208 10.405-3.858 15.526-4.681 2.984 2.749 5.647 4.144 7.923 4.144 1.796 0 4.55-2.205 4.55-4.11 0-.828-.489-1.532-1.378-1.981zM11.205 46.072c-.268 0-.895 0-.895-1.416.058-.571 2.018-2.44 6.242-4.694-3.325 5.781-5.01 6.11-5.347 6.11zm13.802-35.897c.091-.119.225-.247.659-.247.065 0 .147 0 .281.146.683.747.898 3.189.229 6.617-1.529-3.516-1.743-5.76-1.169-6.516zm8.734 21.772c-4.094.757-8.351 1.995-12.362 3.595l.056-.108-.063.028c2.316-4.873 4.308-9.979 5.345-12.638l.044-.113.067.125.03-.1c2.026 3.354 4.467 6.596 6.909 9.171l-.059.008.033.032zm9.671 3.879c-1.338-.003-3.136-.907-5.164-2.58a46.082 46.082 0 014.838-.264c1.538 0 2.584.259 2.603.645.04.832-1.67 2.153-2.277 2.199z" fill="#fff"/></svg>