<svg xmlns="http://www.w3.org/2000/svg" width="56" height="64"><path d="M52 0H4a4 4 0 00-4 4v55.999A4 4 0 004 64h34l18-18V4a4 4 0 00-4-4z" fill="#88c057"/><path d="M42 46a4 4 0 00-4 4v14l18-18H42z" fill="#638c3f"/><path d="M14.961 25.945l4.45-4.437c.81-.806.81-2.114 0-2.92a2.077 2.077 0 00-2.931 0l-5.86 5.841a2.06 2.06 0 00-.451 2.245c.099.294.245.575.479.81l5.846 5.865a2.06 2.06 0 002.923 0 2.08 2.08 0 000-2.933l-4.456-4.471zm30.871-.619a2.039 2.039 0 00-.477-.81l-5.809-5.866a2.039 2.039 0 00-2.904 0 2.087 2.087 0 000 2.933l4.428 4.472-4.424 4.437c-.804.806-.804 2.113 0 2.92s2.108.807 2.913 0l5.823-5.841a2.068 2.068 0 00.45-2.245zm-13.11-11.172a1.985 1.985 0 00-2.567 1.103l-7.991 20.048a1.954 1.954 0 001.114 2.542 1.988 1.988 0 002.568-1.104l7.991-20.047a1.953 1.953 0 00-1.115-2.542z" fill-rule="evenodd" clip-rule="evenodd" fill="#fff"/></svg>