<svg xmlns="http://www.w3.org/2000/svg" width="56" height="64"><path d="M52 0H4a4 4 0 00-4 4v56a4 4 0 004 4h34l18-18V4a4 4 0 00-4-4z" fill="#88c057"/><path d="M42 45.999c-2.209 0-4 1.792-4 4.001v14l18-18.001H42z" fill="#638c3f"/><path d="M31.366 25.916l6.481-9.919H32.42l-3.437 5.942c-.331.772-.558 1.354-.678 1.745h-.061a9.848 9.848 0 00-.648-1.688l-3.09-5.999h-5.923L24.885 26l-6.888 10.002H23.8l3.738-6.459c.261-.622.427-1.088.497-1.395h.061c.15.651.296 1.097.437 1.339l3.723 6.515h5.773l-6.663-10.086z" fill="#fff"/></svg>