<svg xmlns="http://www.w3.org/2000/svg" width="56" height="64.001"><path d="M52 0H4a4 4 0 00-4 4v56a4 4 0 004 4.001h34l18-18V4a4 4 0 00-4-4z" fill="#48a0dc"/><path d="M42 46.001a4 4 0 00-4 4v14l18-18H42z" fill="#387ba8"/><path d="M35.411 22.479l-5.841-5.861a2.031 2.031 0 00-1.15-.572 1.991 1.991 0 00-1.85.559c-.017.016-.038.024-.054.041l-5.866 5.845a2.062 2.062 0 000 2.923 2.08 2.08 0 002.934 0L26 23.004v10.995a2 2 0 104 0V22.911l2.49 2.499a2.06 2.06 0 002.921 0 2.077 2.077 0 000-2.931z" fill-rule="evenodd" clip-rule="evenodd" fill="#fff"/></svg>