<svg xmlns="http://www.w3.org/2000/svg" width="56" height="64.001"><path d="M52 0H4a4 4 0 00-4 4v56a4 4 0 004 4.001h34l18-18V4a4 4 0 00-4-4z" fill="#ed7261"/><path d="M42 46.001a4 4 0 00-4 4v14l18-18H42z" fill="#ba594c"/><path d="M42.01 21.269c0-4.027-3.332-7.293-7.443-7.293a7.458 7.458 0 00-6.566 3.863 7.462 7.462 0 00-6.567-3.863c-4.11 0-7.442 3.266-7.442 7.293 0 2.235 1.028 4.232 2.644 5.569l-.017.008s9.461 9.916 10.145 10.623 1.792.707 2.477 0c.684-.707 10.145-10.623 10.145-10.623l-.018-.008c1.613-1.338 2.642-3.335 2.642-5.569z" fill-rule="evenodd" clip-rule="evenodd" fill="#fff"/></svg>