<svg xmlns="http://www.w3.org/2000/svg" width="64" height="60.001"><path d="M60 4H24a4 4 0 00-4-4H4a4 4 0 00-4 4v12a4.001 4.001 0 004 4.001h56c2.209 0 4-1.792 4-4.001V7.999A4 4 0 0060 4z" fill-rule="evenodd" clip-rule="evenodd" fill="#ba594c"/><path d="M56 7.999H8a4 4 0 00-4 4V16a4.001 4.001 0 004 4.001h48c2.209 0 4-1.792 4-4.001v-4.001a4 4 0 00-4-4z" fill="#fff"/><path d="M60 11.999H4c-2.209 0-4 1.792-4 4.001v40a4.001 4.001 0 004 4.001h56c2.209 0 4-1.792 4-4.001V16a4.001 4.001 0 00-4-4.001z" fill="#ed7261"/><path d="M39.43 40.728l-4.703-4.703 4.703-4.702a1.906 1.906 0 000-2.692 1.905 1.905 0 00-2.691 0l-4.703 4.703-4.762-4.762a1.91 1.91 0 10-2.701 2.701l4.762 4.762-4.705 4.705a1.903 1.903 0 002.69 2.691l4.706-4.705 4.703 4.702a1.908 1.908 0 002.701 0 1.908 1.908 0 000-2.7z" fill-rule="evenodd" clip-rule="evenodd" fill="#fff"/></svg>