<svg xmlns="http://www.w3.org/2000/svg" width="64" height="60.001"><path d="M60 4H24a4 4 0 00-4-4H4a4 4 0 00-4 4v12a4.001 4.001 0 004 4.001h56c2.209 0 4-1.792 4-4.001V7.999A4 4 0 0060 4z" fill-rule="evenodd" clip-rule="evenodd" fill="#387ba8"/><path d="M56 7.999H8a4 4 0 00-4 4V16a4.001 4.001 0 004 4.001h48c2.209 0 4-1.792 4-4.001v-4.001a4 4 0 00-4-4z" fill="#fff"/><path d="M60 11.999H4c-2.209 0-4 1.792-4 4.001v40a4.001 4.001 0 004 4.001h56c2.209 0 4-1.792 4-4.001V16a4.001 4.001 0 00-4-4.001z" fill="#48a0dc"/><path d="M39.35 36.583a2.08 2.08 0 00-2.933 0L34 38.991V27.998a2 2 0 10-4 0v11.09l-2.491-2.499a2.056 2.056 0 00-2.92 0 2.076 2.076 0 000 2.93l5.841 5.86c.324.325.729.51 1.149.573a1.994 1.994 0 001.851-.558c.017-.016.038-.024.054-.041l5.866-5.846c.81-.809.81-2.115 0-2.924z" fill-rule="evenodd" clip-rule="evenodd" fill="#fff"/></svg>