<svg xmlns="http://www.w3.org/2000/svg" width="64" height="60.001"><path d="M60 4H24a4 4 0 00-4-4H4a4 4 0 00-4 4v12a4.001 4.001 0 004 4.001h56c2.209 0 4-1.792 4-4.001V7.999A4 4 0 0060 4z" fill-rule="evenodd" clip-rule="evenodd" fill="#638c3f"/><path d="M56 7.999H8a4 4 0 00-4 4V16a4.001 4.001 0 004 4.001h48c2.209 0 4-1.792 4-4.001v-4.001a4 4 0 00-4-4z" fill="#fff"/><path d="M60 11.999H4c-2.209 0-4 1.792-4 4.001v40a4.001 4.001 0 004 4.001h56c2.209 0 4-1.792 4-4.001V16a4.001 4.001 0 00-4-4.001z" fill="#88c057"/><path d="M20 34h8a2 2 0 000-4.001h-3.989a9.97 9.97 0 017.989-4c4.838 0 8.873 3.436 9.799 8.001h4.042c-.973-6.783-6.79-12.001-13.841-12.001a13.92 13.92 0 00-10 4.223V24a2 2 0 10-4 0v7.999A2 2 0 0020 34zm24 3.999h-8A2 2 0 0036 42h3.989A9.97 9.97 0 0132 45.999c-4.839 0-8.873-3.436-9.799-7.999l-4.042-.001C19.131 44.781 24.948 50 32 50a13.92 13.92 0 0010-4.223v2.222a2 2 0 104 0v-8a2 2 0 00-2-2z" fill-rule="evenodd" clip-rule="evenodd" fill="#fff"/></svg>