<svg xmlns="http://www.w3.org/2000/svg" width="64" height="60.001"><path d="M60 4H24a4 4 0 00-4-4H4a4 4 0 00-4 4v12a4.001 4.001 0 004 4.001h56c2.209 0 4-1.792 4-4.001V7.999A4 4 0 0060 4z" fill-rule="evenodd" clip-rule="evenodd" fill="#387ba8"/><path d="M56 7.999H8a4 4 0 00-4 4V16a4.001 4.001 0 004 4.001h48c2.209 0 4-1.792 4-4.001v-4.001a4 4 0 00-4-4z" fill="#fff"/><path d="M60 11.999H4c-2.209 0-4 1.792-4 4.001v40a4.001 4.001 0 004 4.001h56c2.209 0 4-1.792 4-4.001V16a4.001 4.001 0 00-4-4.001z" fill="#48a0dc"/><path d="M39.411 32.478l-5.841-5.86a2.03 2.03 0 00-1.151-.573 1.995 1.995 0 00-1.85.559c-.017.016-.037.024-.054.041l-5.866 5.845a2.062 2.062 0 000 2.923 2.08 2.08 0 002.934 0L30 33.004v10.994a2 2 0 104 0V32.91l2.49 2.498a2.061 2.061 0 002.921 0 2.076 2.076 0 000-2.93z" fill-rule="evenodd" clip-rule="evenodd" fill="#fff"/></svg>