<svg xmlns="http://www.w3.org/2000/svg" width="64" height="62.001"><path d="M60 12.001v16a4 4 0 004-4v-8a4 4 0 00-4-4z" fill="#cca352"/><path d="M60 20.001V54a4 4 0 01-4 4.001H8a4 4 0 004 4h48a4 4 0 004-4v-34a4 4 0 00-4-4z" fill="#fc6"/><path d="M52 4.001H24A4.001 4.001 0 0020 0H4C1.791 0 0 1.792 0 4.001v12a4 4 0 004 4h48a4 4 0 004-4V8a4 4 0 00-4-3.999z" fill-rule="evenodd" clip-rule="evenodd" fill="#cca352"/><path d="M48 8H8a4 4 0 00-4 4.001v4a4 4 0 004 4h40a4 4 0 004-4v-4A4 4 0 0048 8z" fill="#fff"/><path d="M52 12.001H4a4 4 0 00-4 4v34a4 4 0 004 4h48a4 4 0 004-4v-34a4 4 0 00-4-4z" fill="#fc6"/></svg>