<svg xmlns="http://www.w3.org/2000/svg" width="64" height="60"><path d="M60 4H24a4 4 0 00-4-4H4a4 4 0 00-4 4v12.001a4 4 0 004 4h56a4 4 0 004-4V8a4 4 0 00-4-4z" fill-rule="evenodd" clip-rule="evenodd" fill="#638c3f"/><path d="M56 8H8a4 4 0 00-4 4v4.001a4 4 0 004 4h48a4 4 0 004-4V12a4 4 0 00-4-4z" fill="#fff"/><path d="M60 12H4a4 4 0 00-4 4.001V56a4 4 0 004 4h56a4 4 0 004-4V16.001A4 4 0 0060 12z" fill="#88c057"/><path d="M18.961 35.945l4.45-4.437c.81-.807.81-2.114 0-2.92a2.077 2.077 0 00-2.931 0l-5.86 5.841a2.06 2.06 0 00-.451 2.245c.099.294.245.574.479.81l5.846 5.865a2.06 2.06 0 002.923 0 2.08 2.08 0 000-2.933l-4.456-4.471zm30.871-.619a2.046 2.046 0 00-.477-.81l-5.809-5.867a2.039 2.039 0 00-2.904 0 2.088 2.088 0 000 2.934l4.428 4.471-4.424 4.438a2.069 2.069 0 000 2.92 2.055 2.055 0 002.913 0l5.823-5.841a2.068 2.068 0 00.45-2.245zm-13.11-11.172a1.985 1.985 0 00-2.567 1.104l-7.991 20.047a1.952 1.952 0 001.114 2.541 1.986 1.986 0 002.568-1.103l7.991-20.048a1.953 1.953 0 00-1.115-2.541z" fill-rule="evenodd" clip-rule="evenodd" fill="#fff"/></svg>