<svg xmlns="http://www.w3.org/2000/svg" width="64" height="60.001"><path d="M60 4.001H24A4.001 4.001 0 0020 0H4C1.791 0 0 1.792 0 4.001v12a4 4 0 004 4h56a4 4 0 004-4V8a4 4 0 00-4-3.999z" fill-rule="evenodd" clip-rule="evenodd" fill="#ba594c"/><path d="M56 8H8a4 4 0 00-4 4.001v4a4 4 0 004 4h48a4 4 0 004-4v-4A4 4 0 0056 8z" fill="#fff"/><path d="M60 12.001H4a4 4 0 00-4 4v40a4 4 0 004 4h56a4 4 0 004-4v-40a4 4 0 00-4-4z" fill="#ed7261"/><path d="M43.661 24.336c-3.118-3.119-8.179-3.116-11.301.006l-.011.013-.001-.001L20.342 36.35l.006.006-.005.005c-3.122 3.122-3.126 8.183-.007 11.303 2.584 2.583 6.497 3.018 9.54 1.317a6.96 6.96 0 01-4.599-2.033 7.004 7.004 0 01-1.078-1.404 3.936 3.936 0 01-1.023-.721 3.993 3.993 0 01-.004-5.642l-.005-.005 2.022-2.023c.032-.033.058-.07.09-.103.023-.023.052-.039.075-.063l2.695-2.696 2.24-2.241v.001l2.067-2.068 2.81-2.811.019.019c.056-.063.098-.134.158-.194 1.516-1.516 4.006-1.482 5.563.073 1.557 1.557 1.589 4.047.073 5.563-.061.061-.131.103-.194.158l.033.033-9.882 9.883a1 1 0 01-1.413-1.412l7.1-7.086a1.997 1.997 0 00-.043-2.791 1.998 1.998 0 00-2.813-.025l-.002-.002-7.067 7.078.021.02c-.084.073-.177.129-.256.208-1.895 1.894-1.854 5.007.092 6.953 1.945 1.944 5.059 1.985 6.953.093.079-.079.139-.17.211-.253l.043.043 9.889-9.888-.002-.002.006-.005c3.122-3.124 3.125-8.183.006-11.302z" fill-rule="evenodd" clip-rule="evenodd" fill="#fff"/></svg>