<svg xmlns="http://www.w3.org/2000/svg" width="64" height="60.001"><path d="M60 4.001H24A4.001 4.001 0 0020 0H4C1.791 0 0 1.792 0 4.001v12a4 4 0 004 4h56a4 4 0 004-4V8a4 4 0 00-4-3.999z" fill-rule="evenodd" clip-rule="evenodd" fill="#cca352"/><path d="M56 8H8a4 4 0 00-4 4.001v4a4 4 0 004 4h48a4 4 0 004-4v-4A4 4 0 0056 8z" fill="#fff"/><path d="M60 12.001H4a4 4 0 00-4 4v40a4 4 0 004 4h56a4 4 0 004-4v-40a4 4 0 00-4-4z" fill="#fc6"/><path d="M36 42.001H20a2 2 0 000 4h16a2 2 0 000-4zm-16-12h24a2 2 0 000-4H20a2 2 0 000 4zm24 4H20a2 2 0 000 4h24a2 2 0 000-4z" fill="#fff"/></svg>