<svg xmlns="http://www.w3.org/2000/svg" width="64" height="60"><path d="M60 4H24a4 4 0 00-4-4H4a4 4 0 00-4 4v12.001a4 4 0 004 4h56a4 4 0 004-4V8a4 4 0 00-4-4z" fill-rule="evenodd" clip-rule="evenodd" fill="#cca352"/><path d="M56 8H8a4 4 0 00-4 4v4.001a4 4 0 004 4h48a4 4 0 004-4V12a4 4 0 00-4-4z" fill="#fff"/><path d="M60 12H4a4 4 0 00-4 4.001V56a4 4 0 004 4h56a4 4 0 004-4V16.001A4 4 0 0060 12z" fill="#fc6"/><path d="M41.777 26a13.926 13.926 0 00-16.961-2H20v4.815a13.927 13.927 0 002 16.963v4.223h6V44h-4.922A11.91 11.91 0 0120 36c0-2.188.595-4.234 1.619-6.001H26v-4.381a11.933 11.933 0 0114 1.459V32h6v-6h-4.223z" fill-rule="evenodd" clip-rule="evenodd" fill="#fff"/></svg>