<svg xmlns="http://www.w3.org/2000/svg" width="64" height="60.001"><path d="M60 4.001H24A4.001 4.001 0 0020 0H4C1.791 0 0 1.792 0 4.001v12a4 4 0 004 4h56a4 4 0 004-4V8a4 4 0 00-4-3.999z" fill-rule="evenodd" clip-rule="evenodd" fill="#6d5778"/><path d="M56 8H8a4 4 0 00-4 4.001v4a4 4 0 004 4h48a4 4 0 004-4v-4A4 4 0 0056 8z" fill="#fff"/><path d="M60 12.001H4a4 4 0 00-4 4v40a4 4 0 004 4h56a4 4 0 004-4v-40a4 4 0 00-4-4z" fill="#9b7cab"/><path d="M40 38a5.973 5.973 0 00-4.095 1.623l-5.951-2.909c.027-.235.046-.472.046-.714 0-.241-.019-.479-.046-.712l5.951-2.909A5.977 5.977 0 0040 34.001 6.001 6.001 0 1034 28c0 .248.02.491.049.73l-5.941 2.905A5.974 5.974 0 0024.001 30a6 6 0 000 11.999 5.967 5.967 0 004.106-1.634l5.942 2.905A6.088 6.088 0 0034 44a6 6 0 106-6z" fill-rule="evenodd" clip-rule="evenodd" fill="#fff"/></svg>