<svg xmlns="http://www.w3.org/2000/svg" width="67.951" height="64.06"><path d="M60 3.999H24A4 4 0 0020 0H4a4 4 0 00-4 3.999V16a4.001 4.001 0 004 4.001h56c2.209 0 4-1.792 4-4.001V7.999a4 4 0 00-4-4z" fill-rule="evenodd" clip-rule="evenodd" fill="#cca352"/><path d="M56 7.999H8c-2.209 0-4 1.792-4 4.001v4a4.001 4.001 0 004 4.001h48c2.209 0 4-1.792 4-4.001v-4a4.001 4.001 0 00-4-4.001z" fill="#fff"/><path d="M60 12H4a4 4 0 00-4 4v40.001A4 4 0 004 60h41.398l-3.645-3.646a6.031 6.031 0 010-8.538 6.039 6.039 0 018.538 0l1.602 1.602 5.723-5.722c1.728-1.729 4.234-2.181 6.384-1.384V16a4 4 0 00-4-4z" fill-rule="evenodd" clip-rule="evenodd" fill="#fc6"/><path d="M63.393 46.565a2.016 2.016 0 00-2.854 0l-8.521 8.521-4.509-4.517a2.063 2.063 0 00-2.921 0 2.072 2.072 0 000 2.927l5.841 5.851c.208.208.449.36.707.461a2.01 2.01 0 002.269-.4l9.988-9.987a2.02 2.02 0 000-2.856z" fill-rule="evenodd" clip-rule="evenodd" fill="#88c057"/></svg>