<svg xmlns="http://www.w3.org/2000/svg" width="64" height="60.001"><path d="M60 4H24a4 4 0 00-4-4H4a4 4 0 00-4 4v12a4.001 4.001 0 004 4.001h56c2.209 0 4-1.792 4-4.001V7.999A4 4 0 0060 4z" fill-rule="evenodd" clip-rule="evenodd" fill="#387ba8"/><path d="M56 7.999H8a4 4 0 00-4 4V16a4.001 4.001 0 004 4.001h48c2.209 0 4-1.792 4-4.001v-4.001a4 4 0 00-4-4z" fill="#fff"/><path d="M60 11.999H4c-2.209 0-4 1.792-4 4.001v40a4.001 4.001 0 004 4.001h56c2.209 0 4-1.792 4-4.001V16a4.001 4.001 0 00-4-4.001z" fill="#48a0dc"/><path d="M44.25 33.374l-1.301-.426c-.25-.895-.6-1.744-1.048-2.537l.616-1.219a1.748 1.748 0 000-2.474l-1.237-1.237a1.75 1.75 0 00-2.475 0l-1.217.617a11.34 11.34 0 00-2.537-1.049l-.427-1.301a1.75 1.75 0 00-1.75-1.75h-1.75a1.75 1.75 0 00-1.75 1.75l-.424 1.302a11.37 11.37 0 00-2.529 1.041l-1.228-.609a1.75 1.75 0 00-2.475 0l-1.237 1.237a1.75 1.75 0 000 2.474l.611 1.229a11.298 11.298 0 00-1.039 2.517l-1.304.437a1.75 1.75 0 00-1.75 1.75v1.75c0 .967.783 1.75 1.75 1.75l1.305.438c.247.887.595 1.731 1.038 2.517l-.611 1.228a1.75 1.75 0 000 2.475l1.237 1.237a1.75 1.75 0 002.475 0l1.229-.61a11.26 11.26 0 002.516 1.038l.438 1.305c0 .967.783 1.75 1.75 1.75h1.75a1.75 1.75 0 001.75-1.75l.438-1.305a11.226 11.226 0 002.524-1.044l1.219.616a1.75 1.75 0 002.475 0l1.237-1.237a1.75 1.75 0 000-2.475l-.619-1.22c.447-.792.799-1.642 1.048-2.537l1.302-.428a1.75 1.75 0 001.75-1.75v-1.75a1.75 1.75 0 00-1.75-1.75zM32 42a6 6 0 11.002-12.002A6 6 0 0132 42z" fill="#fff"/></svg>