<svg xmlns="http://www.w3.org/2000/svg" width="64" height="60.001"><path d="M60 4H24a4 4 0 00-4-4H4a4 4 0 00-4 4v12a4.001 4.001 0 004 4.001h56c2.209 0 4-1.792 4-4.001V7.999A4 4 0 0060 4z" fill-rule="evenodd" clip-rule="evenodd" fill="#638c3f"/><path d="M56 7.999H8a4 4 0 00-4 4V16a4.001 4.001 0 004 4.001h48c2.209 0 4-1.792 4-4.001v-4.001a4 4 0 00-4-4z" fill="#fff"/><path d="M60 11.999H4c-2.209 0-4 1.792-4 4.001v40a4.001 4.001 0 004 4.001h56c2.209 0 4-1.792 4-4.001V16a4.001 4.001 0 00-4-4.001z" fill="#88c057"/><path d="M41.393 30.565a2.016 2.016 0 00-2.854 0l-8.521 8.521-4.509-4.517a2.063 2.063 0 00-2.921 0 2.07 2.07 0 000 2.926l5.841 5.852c.208.209.451.361.709.463a2.011 2.011 0 002.266-.402l9.988-9.987a2.02 2.02 0 00.001-2.856z" fill-rule="evenodd" clip-rule="evenodd" fill="#fff"/></svg>