<svg xmlns="http://www.w3.org/2000/svg" width="64" height="60.001"><path d="M60 4.001H24A4.001 4.001 0 0020 0H4C1.791 0 0 1.792 0 4.001v12a4 4 0 004 4h56a4 4 0 004-4V8a4 4 0 00-4-3.999z" fill-rule="evenodd" clip-rule="evenodd" fill="#387ba8"/><path d="M56 8H8a4 4 0 00-4 4.001v4a4 4 0 004 4h48a4 4 0 004-4v-4A4 4 0 0056 8z" fill="#fff"/><path d="M60 12.001H4a4 4 0 00-4 4v40a4 4 0 004 4h56a4 4 0 004-4v-40a4 4 0 00-4-4z" fill="#48a0dc"/><path d="M41.982 34.343c.005-.114.018-.228.018-.343 0-4.417-3.582-8-8-8-3.11 0-5.8 1.779-7.123 4.372A4.985 4.985 0 0025 30.001c-2.762 0-5 2.237-5 4.999 0 .169.033.328.05.492A5.98 5.98 0 0018 40a6.001 6.001 0 006 6.001h16a5.997 5.997 0 101.982-11.658z" fill-rule="evenodd" clip-rule="evenodd" fill="#fff"/></svg>