<svg xmlns="http://www.w3.org/2000/svg" width="64" height="60.001"><path d="M60 4H24a4 4 0 00-4-4H4a4 4 0 00-4 4v12a4.001 4.001 0 004 4.001h56c2.209 0 4-1.792 4-4.001V7.999A4 4 0 0060 4z" fill-rule="evenodd" clip-rule="evenodd" fill="#ba594c"/><path d="M56 7.999H8a4 4 0 00-4 4V16a4.001 4.001 0 004 4.001h48c2.209 0 4-1.792 4-4.001v-4.001a4 4 0 00-4-4z" fill="#fff"/><path d="M60 11.999H4c-2.209 0-4 1.792-4 4.001v40a4.001 4.001 0 004 4.001h56c2.209 0 4-1.792 4-4.001V16a4.001 4.001 0 00-4-4.001z" fill="#ed7261"/><path d="M46.01 31.268c0-4.028-3.332-7.293-7.443-7.293a7.457 7.457 0 00-6.566 3.862 7.461 7.461 0 00-6.567-3.862c-4.11 0-7.442 3.265-7.442 7.293 0 2.234 1.028 4.231 2.644 5.569l-.017.008s9.461 9.916 10.145 10.623 1.792.707 2.477 0c.684-.707 10.145-10.623 10.145-10.623l-.017-.008c1.612-1.338 2.641-3.335 2.641-5.569z" fill-rule="evenodd" clip-rule="evenodd" fill="#fff"/></svg>