<svg xmlns="http://www.w3.org/2000/svg" width="66.017" height="65.997"><path d="M60 3.999H24A4 4 0 0020 0H4a4 4 0 00-4 3.999V16a4.001 4.001 0 004 4.001h56c2.209 0 4-1.792 4-4.001V7.999a4 4 0 00-4-4z" fill-rule="evenodd" clip-rule="evenodd" fill="#cca352"/><path d="M56 7.999H8c-2.209 0-4 1.792-4 4.001v4a4.001 4.001 0 004 4.001h48c2.209 0 4-1.792 4-4.001v-4a4.001 4.001 0 00-4-4.001z" fill="#fff"/><path d="M43.772 52.248a6.036 6.036 0 010-8.539 6.041 6.041 0 018.54 0l1.646 1.646 1.658-1.658c2.309-2.312 6.009-2.349 8.384-.146V16a4 4 0 00-4-4H4a4 4 0 00-4 4v40.001A4 4 0 004 60h37.883a6.027 6.027 0 011.768-4.339l1.768-1.768-1.647-1.645z" fill-rule="evenodd" clip-rule="evenodd" fill="#fc6"/><path d="M61.43 58.727l-4.703-4.702 4.703-4.702a1.904 1.904 0 00-2.691-2.692l-4.703 4.703-4.762-4.762a1.91 1.91 0 10-2.701 2.701l4.763 4.762-4.705 4.705a1.902 1.902 0 102.69 2.69l4.705-4.705 4.703 4.702a1.906 1.906 0 002.701 0 1.908 1.908 0 000-2.7z" fill-rule="evenodd" clip-rule="evenodd" fill="#ed7161"/></svg>