<svg xmlns="http://www.w3.org/2000/svg" width="64" height="61.999"><path d="M60 3.999H24A4 4 0 0020 0H4a4 4 0 00-4 3.999V16a4.001 4.001 0 004 4.001h56c2.209 0 4-1.792 4-4.001V7.999a4 4 0 00-4-4z" fill-rule="evenodd" clip-rule="evenodd" fill="#cca352"/><path d="M56 7.999H8c-2.209 0-4 1.792-4 4.001v4a4.001 4.001 0 004 4.001h48c2.209 0 4-1.792 4-4.001v-4a4.001 4.001 0 00-4-4.001z" fill="#fff"/><path d="M60 12H4a4 4 0 00-4 4v40.001A4 4 0 004 60h35.521A15.926 15.926 0 0136 50.001c0-8.838 7.163-16 16-16 4.785 0 9.067 2.111 12 5.441V16a4 4 0 00-4-4z" fill="#fc6"/><circle cx="52" cy="50" r="11.999" fill="#88c057"/><path d="M56 48.001h-2V46a2 2 0 00-4 0v2.001h-2a2 2 0 000 3.998h2v2a2 2 0 004 0v-2h2a2 2 0 100-3.998z" fill="#fff"/></svg>