<svg xmlns="http://www.w3.org/2000/svg" width="64" height="60.001"><path d="M60 4.001H24A4.001 4.001 0 0020 0H4C1.791 0 0 1.792 0 4.001V36a4 4 0 004 4.001h56A4 4 0 0064 36V8a4 4 0 00-4-3.999z" fill-rule="evenodd" clip-rule="evenodd" fill="#cca352"/><path d="M58 8.001H6a2 2 0 00-2 2v22.001h56V10.001a2 2 0 00-2-2z" fill="#fff"/><path d="M34 24.001H18a2 2 0 000 4h16a2 2 0 000-4zm12-8H18a2 2 0 000 4h28a2 2 0 000-4z" fill="#ccc"/><path d="M60 32.001H4A4 4 0 000 36v20.001a4 4 0 004 4h56a4 4 0 004-4V36a4 4 0 00-4-3.999z" fill="#fc6"/></svg>