<svg xmlns="http://www.w3.org/2000/svg" width="64" height="60"><path d="M60 4H24a4 4 0 00-4-4H4a4 4 0 00-4 4v12.001a4 4 0 004 4h56a4 4 0 004-4V8a4 4 0 00-4-4z" fill-rule="evenodd" clip-rule="evenodd" fill="#999"/><path d="M56 8H8a4 4 0 00-4 4v4.001a4 4 0 004 4h48a4 4 0 004-4V12a4 4 0 00-4-4z" fill="#fff"/><path d="M60 12H4a4 4 0 00-4 4.001V56a4 4 0 004 4h56a4 4 0 004-4V16.001A4 4 0 0060 12z" fill="#ccc"/><path d="M20.038 47.959l7.345-2.45-4.896-4.899-2.449 7.349zM42.967 25.01a3.46 3.46 0 00-4.896 0L24.935 38.159l4.896 4.9L42.967 29.91a3.469 3.469 0 000-4.9z" fill="#fff"/></svg>