<svg xmlns="http://www.w3.org/2000/svg" width="64" height="60"><path d="M60 4H24a4 4 0 00-4-4H4a4 4 0 00-4 4v12.001a4 4 0 004 4h56a4 4 0 004-4V8a4 4 0 00-4-4z" fill-rule="evenodd" clip-rule="evenodd" fill="#6d5778"/><path d="M56 8H8a4 4 0 00-4 4v4.001a4 4 0 004 4h48a4 4 0 004-4V12a4 4 0 00-4-4z" fill="#fff"/><path d="M60 12H4a4 4 0 00-4 4.001V56a4 4 0 004 4h56a4 4 0 004-4V16.001A4 4 0 0060 12z" fill="#9b7cab"/><path d="M24 32l-6 17 6.445-6.445A2.98 2.98 0 0124 41a3 3 0 113 3 2.98 2.98 0 01-1.555-.445L19 50.001 36 44l4-8-8-8-8 4zm12-10l-2 4 8 8 4-2-10-10z" fill-rule="evenodd" clip-rule="evenodd" fill="#fff"/></svg>