<svg xmlns="http://www.w3.org/2000/svg" width="68" height="65.999"><path d="M60 3.999H24A4 4 0 0020 0H4a4 4 0 00-4 3.999V16a4.001 4.001 0 004 4.001h56c2.209 0 4-1.792 4-4.001V7.999a4 4 0 00-4-4z" fill-rule="evenodd" clip-rule="evenodd" fill="#cca352"/><path d="M56 7.999H8c-2.209 0-4 1.792-4 4.001v4a4.001 4.001 0 004 4.001h48c2.209 0 4-1.792 4-4.001v-4a4.001 4.001 0 00-4-4.001z" fill="#fff"/><path d="M40 50c0-1.487.822-2.771 2.027-3.46-.008-.181-.027-.357-.027-.54 0-6.628 5.372-12 12-12 4.176 0 7.851 2.136 10 5.372V16a4 4 0 00-4-4H4a4 4 0 00-4 4v40.001A4 4 0 004 60h36V50z" fill-rule="evenodd" clip-rule="evenodd" fill="#fc6"/><path d="M62 49.998v-3.999a8 8 0 00-16 0v3.999a2 2 0 00-2 2.001v7.999a2 2 0 002 2.001h16a2 2 0 002-2.001v-7.999a2 2 0 00-2-2.001zm-8 8.001a2 2 0 11.001-4.001A2 2 0 0154 57.999zm4-8.001h-8v-3.999a4 4 0 118 0v3.999z" fill-rule="evenodd" clip-rule="evenodd" fill="#ed7161"/></svg>