<svg xmlns="http://www.w3.org/2000/svg" width="64" height="60"><path d="M60 4H24a4 4 0 00-4-4H4a4 4 0 00-4 4v12.001a4 4 0 004 4h56a4 4 0 004-4V8a4 4 0 00-4-4z" fill-rule="evenodd" clip-rule="evenodd" fill="#638c3f"/><path d="M56 8H8a4 4 0 00-4 4v4.001a4 4 0 004 4h48a4 4 0 004-4V12a4 4 0 00-4-4z" fill="#fff"/><path d="M60 12H4a4 4 0 00-4 4.001V56a4 4 0 004 4h56a4 4 0 004-4V16.001A4 4 0 0060 12z" fill="#88c057"/><path d="M36 29.999l-6 10-6-6-8 12h32l-12-16zm-17 0a3 3 0 100-6 3 3 0 000 6z" fill-rule="evenodd" clip-rule="evenodd" fill="#fff"/></svg>