<svg xmlns="http://www.w3.org/2000/svg" width="64" height="60.001"><path d="M60 4H24a4 4 0 00-4-4H4a4 4 0 00-4 4v12a4.001 4.001 0 004 4.001h56c2.209 0 4-1.792 4-4.001V7.999A4 4 0 0060 4z" fill-rule="evenodd" clip-rule="evenodd" fill="#cca352"/><path d="M56 7.999H8a4 4 0 00-4 4V16a4.001 4.001 0 004 4.001h48c2.209 0 4-1.792 4-4.001v-4.001a4 4 0 00-4-4z" fill="#fff"/><path d="M60 11.999H4c-2.209 0-4 1.792-4 4.001v40a4.001 4.001 0 004 4.001h56c2.209 0 4-1.792 4-4.001V16a4.001 4.001 0 00-4-4.001z" fill="#fc6"/><path d="M45.925 31.822a1.546 1.546 0 00-1.191-1.032l-7.625-1.422-3.747-6.586a1.561 1.561 0 00-1.356-.783c-.563 0-1.083.301-1.357.783l-3.746 6.586-7.626 1.422c-.56.104-1.016.5-1.19 1.032a1.507 1.507 0 00.353 1.522l5.297 5.482-.961 7.45a1.522 1.522 0 00.624 1.428 1.561 1.561 0 001.568.154l7.036-3.2 7.034 3.2a1.583 1.583 0 001.573-.153c.456-.329.694-.876.624-1.428l-.961-7.45 5.298-5.482c.392-.407.528-.99.353-1.523z" fill="#fff"/></svg>