<svg xmlns="http://www.w3.org/2000/svg" width="66" height="64.001"><path d="M60 3.999H24A4 4 0 0020 0H4a4 4 0 00-4 3.999V16a4.001 4.001 0 004 4.001h56c2.209 0 4-1.792 4-4.001V7.999a4 4 0 00-4-4z" fill-rule="evenodd" clip-rule="evenodd" fill="#cca352"/><path d="M56 7.999H8c-2.209 0-4 1.792-4 4.001v4a4.001 4.001 0 004 4.001h48c2.209 0 4-1.792 4-4.001v-4a4.001 4.001 0 00-4-4.001z" fill="#fff"/><path d="M64 42.815V16a4 4 0 00-4-4H4a4 4 0 00-4 4v40.001A4 4 0 004 60h38.211a13.955 13.955 0 01-4.18-9.382A6.298 6.298 0 0138 50v-7.999A6.001 6.001 0 0144 36c1.148 0 2.218.328 3.13.888A13.921 13.921 0 0152 36c5.103 0 9.553 2.738 12 6.815z" fill-rule="evenodd" clip-rule="evenodd" fill="#fc6"/><path d="M50 50a2 2 0 000-4.001h-2.442c1.096-1.221 2.672-2 4.442-2 1.775 0 3.365.775 4.464 2.001h4.699C59.619 42.469 56.1 39.999 52 39.999a9.927 9.927 0 00-6 2.012V42a2 2 0 10-4 0v5.999A2 2 0 0044 50h6zm10.403.04a1.996 1.996 0 00-.403-.041h-6A2 2 0 0054 54h2.442c-1.096 1.221-2.672 2-4.442 2a5.978 5.978 0 01-4.463-2l-4.7-.001C44.381 57.53 47.899 60 52 60a9.944 9.944 0 006-2.011v.01a2 2 0 104 0v-6c0-.966-.686-1.772-1.597-1.959z" fill-rule="evenodd" clip-rule="evenodd" fill="#88c057"/></svg>