<svg xmlns="http://www.w3.org/2000/svg" width="64" height="60"><path d="M60 4H24a4 4 0 00-4-4H4a4 4 0 00-4 4v12.001a4 4 0 004 4h56a4 4 0 004-4V8a4 4 0 00-4-4z" fill-rule="evenodd" clip-rule="evenodd" fill="#ba594c"/><path d="M56 8H8a4 4 0 00-4 4v4.001a4 4 0 004 4h48a4 4 0 004-4V12a4 4 0 00-4-4z" fill="#fff"/><path d="M60 12H4a4 4 0 00-4 4.001V56a4 4 0 004 4h56a4 4 0 004-4V16.001A4 4 0 0060 12z" fill="#ed7261"/><path d="M40.2 24.616l-14.4-2.593c-.994-.18-1.8.498-1.8 1.514v14.542a6.288 6.288 0 00-1-.08c-2.762 0-5 1.789-5 3.999s2.238 4 5 4c2.565 0 4.654-1.551 4.942-3.542.035-.147.058-.3.058-.458V29.774l10 1.803v10.502a6.182 6.182 0 00-1-.081c-2.761 0-5 1.791-5 4s2.238 4 5 4c2.565 0 4.655-1.552 4.943-3.542.035-.147.058-.3.058-.458V26.78c-.001-1.015-.807-1.984-1.801-2.164z" fill-rule="evenodd" clip-rule="evenodd" fill="#fff"/></svg>