<svg xmlns="http://www.w3.org/2000/svg" width="68" height="65.999"><path d="M60 3.999H24A4 4 0 0020 0H4a4 4 0 00-4 3.999V16a4.001 4.001 0 004 4.001h56c2.209 0 4-1.792 4-4.001V7.999a4 4 0 00-4-4z" fill-rule="evenodd" clip-rule="evenodd" fill="#cca352"/><path d="M56 7.999H8c-2.209 0-4 1.792-4 4.001v4a4.001 4.001 0 004 4.001h48c2.209 0 4-1.792 4-4.001v-4a4.001 4.001 0 00-4-4.001z" fill="#fff"/><path d="M36 50.001c0-8.839 7.163-16 16-16 4.785 0 9.068 2.111 12 5.44V16a4 4 0 00-4-4H4a4 4 0 00-4 4v40.001A4 4 0 004 60h35.521A15.918 15.918 0 0136 50.001z" fill-rule="evenodd" clip-rule="evenodd" fill="#fc6"/><circle cx="52" cy="50" r="11.999" fill="#ed7161"/><path d="M52 42.001a2 2 0 00-2 2V50a2 2 0 004 0v-5.999a2 2 0 00-2-2zm0 11.998a2.001 2.001 0 10.002 4.002A2.001 2.001 0 0052 54z" fill-rule="evenodd" clip-rule="evenodd" fill="#fff"/></svg>