<svg xmlns="http://www.w3.org/2000/svg" width="64" height="60"><path d="M60 4H24a4 4 0 00-4-4H4a4 4 0 00-4 4v12.001a4 4 0 004 4h56a4 4 0 004-4V8a4 4 0 00-4-4z" fill-rule="evenodd" clip-rule="evenodd" fill="#387ba8"/><path d="M56 8H8a4 4 0 00-4 4v4.001a4 4 0 004 4h48a4 4 0 004-4V12a4 4 0 00-4-4z" fill="#fff"/><path d="M60 12H4a4 4 0 00-4 4.001V56a4 4 0 004 4h56a4 4 0 004-4V16.001A4 4 0 0060 12z" fill="#48a0dc"/><path d="M41.008 33.93L29.33 26.516a1.982 1.982 0 00-1.06-.489c-.041-.007-.081-.009-.122-.013-.05-.003-.098-.015-.148-.015-.028 0-.055.007-.083.009-.06.002-.118.009-.179.018-.08.011-.158.023-.235.044-.024.006-.048.014-.071.021A1.995 1.995 0 0026 28v16c0 .902.602 1.656 1.423 1.905.029.01.058.02.087.027.071.018.144.029.218.04.065.01.131.018.197.02.025.001.05.008.075.008.046 0 .09-.011.135-.014.048-.004.095-.007.143-.015.4-.056.762-.229 1.049-.485l11.682-7.415c.688-.437 1.041-1.256.98-2.071.06-.814-.294-1.634-.981-2.07zM30 31.98l6.332 4.021L30 40.02v-8.04z" fill-rule="evenodd" clip-rule="evenodd" fill="#fff"/></svg>