<svg xmlns="http://www.w3.org/2000/svg" width="68.022" height="67.991"><path d="M47.424 55.889l-1.646-1.646a6.04 6.04 0 018.54-8.539l1.646 1.646 1.658-1.657a6.036 6.036 0 016.384-1.385V3.593c0-1.981-1.655-3.585-3.699-3.592C60.303.002 60.3 0 60.296 0H3.71l-.011.002C1.655.009 0 1.612 0 3.594v56.681a3.71 3.71 0 003.71 3.709h40.548c-.768-2.137-.313-4.614 1.398-6.328l1.768-1.767z" fill-rule="evenodd" clip-rule="evenodd" fill="#ccc"/><path d="M58.006 3.996h-52a2 2 0 00-2 2.001v45.999h56V5.997a2.002 2.002 0 00-2-2.001z" fill-rule="evenodd" clip-rule="evenodd" fill="#fff"/><path d="M45.818 45.75a6.004 6.004 0 018.517 0l1.649 1.654.017-.017-17.995-23.392-10 16-8-10-14 19.998h38.051a6.016 6.016 0 011.761-4.243z" fill-rule="evenodd" clip-rule="evenodd" fill="#75a64b"/><circle cx="18.006" cy="17.988" r="5.996" fill="#fc6"/><path d="M63.436 60.722l-4.703-4.702 4.703-4.702a1.903 1.903 0 00-2.691-2.691l-4.703 4.703-4.762-4.762a1.906 1.906 0 00-2.701 0 1.907 1.907 0 000 2.699l4.763 4.763-4.705 4.705a1.902 1.902 0 102.69 2.69l4.706-4.705 4.702 4.702a1.908 1.908 0 002.701 0 1.908 1.908 0 000-2.7z" fill-rule="evenodd" clip-rule="evenodd" fill="#ed7161"/></svg>