<svg xmlns="http://www.w3.org/2000/svg" width="70.75" height="69.111"><path d="M60.307.002L60.296 0H3.71l-.011.002C1.655.009 0 1.612 0 3.594v56.681a3.71 3.71 0 003.71 3.709h41.683l-3.633-3.635a6.03 6.03 0 010-8.537 6.039 6.039 0 018.538 0l.185.185h2.834l4.306-4.304a6.036 6.036 0 016.384-1.385V3.593c-.001-1.981-1.656-3.584-3.7-3.591z" fill-rule="evenodd" clip-rule="evenodd" fill="#ccc"/><path d="M58.006 3.996h-52a2 2 0 00-2 2.001v45.999h56V5.997a2.002 2.002 0 00-2-2.001z" fill-rule="evenodd" clip-rule="evenodd" fill="#fff"/><path fill-rule="evenodd" clip-rule="evenodd" fill="#75a64b" d="M56.887 48.538L38.006 23.995l-10 16-8-10-14 19.998h49.417z"/><circle cx="18.006" cy="17.988" r="5.996" fill="#fc6"/><path d="M63.398 50.562a2.013 2.013 0 00-2.854 0l-8.521 8.52-4.509-4.517a2.063 2.063 0 00-2.921 0 2.072 2.072 0 000 2.927l5.841 5.851c.208.208.449.36.707.461a2.013 2.013 0 002.269-.4l9.988-9.987a2.018 2.018 0 000-2.855z" fill-rule="evenodd" clip-rule="evenodd" fill="#88c057"/></svg>