<svg xmlns="http://www.w3.org/2000/svg" width="68.006" height="67.995"><path d="M36.006 51.996c0-8.838 7.163-16.001 16-16.001 4.785 0 9.068 2.111 12 5.441V3.593c0-1.981-1.655-3.585-3.699-3.592C60.303.002 60.3 0 60.296 0H3.71l-.011.002C1.655.009 0 1.612 0 3.594v56.681a3.71 3.71 0 003.71 3.709h37.724c-3.322-2.932-5.428-7.21-5.428-11.988z" fill-rule="evenodd" clip-rule="evenodd" fill="#ccc"/><path d="M58.006 3.996h-52a2 2 0 00-2 2.001v45.999h56V5.997a2.002 2.002 0 00-2-2.001z" fill-rule="evenodd" clip-rule="evenodd" fill="#fff"/><path d="M47.701 36.598l-9.695-12.603-10 16-8-10-14 19.998h30.139c.806-6.445 5.438-11.687 11.556-13.395z" fill-rule="evenodd" clip-rule="evenodd" fill="#75a64b"/><circle cx="18.006" cy="17.988" r="5.996" fill="#fc6"/><circle cx="52.006" cy="51.996" r="12" fill="#ed7161"/><path d="M52.006 43.996a2 2 0 00-2 1.999v6a2 2 0 004 0v-6a2 2 0 00-2-1.999zm0 11.998a2.001 2.001 0 10.002 4.002 2.001 2.001 0 00-.002-4.002z" fill-rule="evenodd" clip-rule="evenodd" fill="#fff"/></svg>