<svg xmlns="http://www.w3.org/2000/svg" width="66.006" height="65.995"><path d="M64.006 44.811V3.593c0-1.981-1.655-3.585-3.699-3.592C60.303.002 60.3 0 60.296 0H3.71l-.011.002C1.655.009 0 1.612 0 3.594v56.681a3.71 3.71 0 003.71 3.709h41.093c-4.067-2.449-6.797-6.895-6.797-11.988v-8a6 6 0 016-6c1.148 0 2.218.328 3.13.888a13.948 13.948 0 014.87-.888c5.102-.001 9.553 2.737 12 6.815z" fill-rule="evenodd" clip-rule="evenodd" fill="#ccc"/><path d="M58.006 3.996h-52a2 2 0 00-2 2.001v45.999h56V5.997a2.002 2.002 0 00-2-2.001z" fill-rule="evenodd" clip-rule="evenodd" fill="#fff"/><path d="M28.006 39.995l-8-10-14 19.998h32v-5.998a6 6 0 016-6c1.146 0 2.215.327 3.126.886a13.937 13.937 0 011.895-.561L38.006 23.995l-10 16z" fill-rule="evenodd" clip-rule="evenodd" fill="#75a64b"/><circle cx="18.006" cy="17.988" r="5.996" fill="#fc6"/><path d="M50.006 51.995a2.001 2.001 0 000-4.001h-2.443c1.097-1.221 2.673-2 4.443-2 1.774 0 3.365.775 4.463 2.001h4.699c-1.543-3.53-5.063-6-9.162-6a9.927 9.927 0 00-6 2.012v-.012a2 2 0 00-4 0v5.998c0 1.106.896 2.002 2 2.002h6zm10-.001h-6a2 2 0 000 4.001h2.442c-1.096 1.221-2.672 2-4.442 2a5.98 5.98 0 01-4.464-2l-4.698-.001c1.543 3.53 5.063 6.001 9.162 6.001a9.944 9.944 0 006-2.011v.01a2 2 0 004 0v-6a2 2 0 00-2-2z" fill-rule="evenodd" clip-rule="evenodd" fill="#48a0dc"/></svg>