<svg xmlns="http://www.w3.org/2000/svg" width="63.964" height="55.94"><path d="M63.836 38.5L55.981 8.911 54.324 2.67C53.81.734 51.792-.399 49.812.13H49.8L2.779 12.847l-.01.005C.792 13.394-.394 15.394.12 17.329l1.657 6.242L9.631 53.16c.531 2.001 2.57 3.188 4.554 2.652l47.021-12.717c1.984-.537 3.161-2.594 2.63-4.595z" fill="#ccc"/><path d="M56.345 5.731l-.011-.002H7.654l-.012.002c-2.048.007-3.706 1.63-3.706 3.633v37.095c0 2.071 1.664 3.751 3.718 3.751h48.68c2.054 0 3.719-1.68 3.719-3.751V9.364c0-2.003-1.659-3.626-3.708-3.633z" fill="#ccc"/><path d="M54.04 9.771H9.954a2.014 2.014 0 00-2.004 2.023V44.15c0 1.118.896 2.024 2.004 2.024H54.04a2.014 2.014 0 002.004-2.024V11.795a2.015 2.015 0 00-2.004-2.024z" fill="#fff"/><path fill="#75a64b" d="M36.005 21.906l-6.012 10.113-6.012-6.068-8.015 12.135h32.062z"/><ellipse cx="18.983" cy="18.883" rx="3.018" ry="3.046" fill="#fc6"/></svg>