<svg xmlns="http://www.w3.org/2000/svg" width="64.006" height="63.983"><path d="M60.307.002L60.296 0H3.71l-.011.002C1.655.009 0 1.612 0 3.594v56.681a3.71 3.71 0 003.71 3.709h56.585a3.71 3.71 0 003.71-3.709V3.593c.001-1.981-1.654-3.584-3.698-3.591z" fill="#ccc"/><path d="M58.006 3.996h-52a2 2 0 00-2 2.001v45.999h56V5.997a2.002 2.002 0 00-2-2.001z" fill-rule="evenodd" clip-rule="evenodd" fill="#fff"/><path fill="#75a64b" d="M37.544 23.995l-9.231 14.77-7.384-9.231-12.924 18.46h48.001z"/><circle cx="18.006" cy="17.988" r="5.996" fill="#fc6"/></svg>