<svg xmlns="http://www.w3.org/2000/svg" width="68.006" height="67.995"><path d="M36.006 51.996c0-8.837 7.163-16 16-16 4.786 0 9.068 2.111 12 5.441V3.593c0-1.98-1.655-3.586-3.699-3.592C60.303.002 60.3 0 60.296 0H3.71l-.011.002C1.655.008 0 1.613 0 3.594v56.681a3.71 3.71 0 003.71 3.709h37.724c-3.322-2.932-5.428-7.21-5.428-11.988z" fill-rule="evenodd" clip-rule="evenodd" fill="#ccc"/><path d="M18.006 29.995h28v-26h-28v26zm0 30h28v-26h-28v26zm-14-49.999h10V3.995h-10v6.001zm0 9.999h10v-6h-10v6zm0 10h10v-6h-10v6zm0 10h10v-6h-10v6zm0 10h10v-5.999h-10v5.999zm0 10h10v-6h-10v6zm46-56v6.001h10V3.995h-10zm0 16h10v-6h-10v6zm0 10h10v-6h-10v6zm0 10h10v-6h-10v6zm0 10h10v-5.999h-10v5.999zm0 10h10v-6h-10v6z" fill-rule="evenodd" clip-rule="evenodd" fill="#fff"/><circle cx="52.006" cy="51.996" r="12" fill="#ed7161"/><path d="M56.006 49.995h-8a2 2 0 100 4h8a2 2 0 000-4z" fill="#fff"/></svg>