<svg xmlns="http://www.w3.org/2000/svg" width="68.022" height="67.993"><path d="M47.424 55.89l-1.646-1.646a6.037 6.037 0 010-8.54 6.041 6.041 0 018.54 0l1.646 1.646 1.658-1.658a6.036 6.036 0 016.384-1.385V3.593c0-1.98-1.655-3.586-3.699-3.592C60.303.002 60.3 0 60.296 0H3.71l-.011.002C1.655.008 0 1.613 0 3.594v56.681a3.71 3.71 0 003.71 3.709h40.548c-.768-2.137-.313-4.614 1.398-6.327l1.768-1.767z" fill-rule="evenodd" clip-rule="evenodd" fill="#ccc"/><path d="M18.006 29.995h28v-26h-28v26zm0 30h28v-26h-28v26zm-14-49.999h10V3.995h-10v6.001zm0 9.999h10v-6h-10v6zm0 10h10v-6h-10v6zm0 10h10v-6h-10v6zm0 10h10v-5.999h-10v5.999zm0 10h10v-6h-10v6zm46-56v6.001h10V3.995h-10zm0 16h10v-6h-10v6zm0 10h10v-6h-10v6zm0 10h10v-6h-10v6zm0 10h10v-5.999h-10v5.999zm0 10h10v-6h-10v6z" fill-rule="evenodd" clip-rule="evenodd" fill="#fff"/><path d="M63.436 60.722l-4.703-4.702 4.703-4.702a1.903 1.903 0 00-2.691-2.691l-4.702 4.703-4.763-4.762a1.906 1.906 0 00-2.701 0 1.908 1.908 0 000 2.7l4.763 4.763-4.705 4.705a1.9 1.9 0 000 2.689 1.9 1.9 0 002.69 0l4.705-4.704 4.703 4.702a1.91 1.91 0 102.701-2.701z" fill-rule="evenodd" clip-rule="evenodd" fill="#ed7161"/></svg>