<svg xmlns="http://www.w3.org/2000/svg" width="70.75" height="69.112"><path d="M60.307.002L60.296 0H3.71l-.011.002C1.655.008 0 1.613 0 3.594v56.681a3.71 3.71 0 003.71 3.709h41.683l-3.633-3.635a6.029 6.029 0 010-8.536 6.037 6.037 0 018.538 0l1.602 1.602 5.723-5.722a6.036 6.036 0 016.384-1.385V3.593c-.001-1.98-1.656-3.585-3.7-3.591z" fill-rule="evenodd" clip-rule="evenodd" fill="#ccc"/><path d="M18.006 29.995h28v-26h-28v26zm0 30h28v-26h-28v26zm-14-49.999h10V3.995h-10v6.001zm0 9.999h10v-6h-10v6zm0 10h10v-6h-10v6zm0 10h10v-6h-10v6zm0 10h10v-5.999h-10v5.999zm0 10h10v-6h-10v6zm46-56v6.001h10V3.995h-10zm0 16h10v-6h-10v6zm0 10h10v-6h-10v6zm0 10h10v-6h-10v6zm0 10h10v-5.999h-10v5.999zm0 10h10v-6h-10v6z" fill-rule="evenodd" clip-rule="evenodd" fill="#fff"/><path d="M63.398 50.561a2.016 2.016 0 00-2.854 0l-8.521 8.521-4.509-4.516c-.807-.809-2.114-.809-2.921 0s-.807 2.117 0 2.926l5.841 5.851c.207.208.448.359.705.461a2.015 2.015 0 002.271-.399l9.988-9.988a2.019 2.019 0 000-2.856z" fill-rule="evenodd" clip-rule="evenodd" fill="#88c057"/></svg>