<svg xmlns="http://www.w3.org/2000/svg" width="62.354" height="62.324"><path d="M62.25 46.63L51.674 7.16 50.33 2.146C49.913.592 48.276-.32 46.671.105c-.002.002-.006 0-.009.001L2.253 12.005c-.003.002-.005.004-.008.004-1.603.436-2.564 2.043-2.148 3.598L1.44 20.62l10.576 39.47a3.014 3.014 0 003.691 2.131l44.409-11.899a3.015 3.015 0 002.134-3.692z" fill="#ccc"/><path d="M54.183 5.171l-.009-.002H8.198l-.009.002c-1.661.005-3.005 1.308-3.005 2.918v46.052a3.014 3.014 0 003.015 3.014h45.976a3.014 3.014 0 003.015-3.014V8.089c-.002-1.61-1.346-2.913-3.007-2.918z" fill="#ccc"/><path d="M21.188 29.165h20V9.166h-20v19.999zm0 24h20v-20h-20v20zm-12-40h8V9.166h-8v3.999zm0 8h8v-3.999h-8v3.999zm0 8h8v-3.999h-8v3.999zm0 8h8v-4h-8v4zm0 8.001h8v-4.001h-8v4.001zm0 7.999h8v-4h-8v4zm36-43.999v3.999h8V9.166h-8zm0 11.999h8v-3.999h-8v3.999zm0 8h8v-3.999h-8v3.999zm0 8h8v-4h-8v4zm0 8.001h8v-4.001h-8v4.001zm0 7.999h8v-4h-8v4z" fill-rule="evenodd" clip-rule="evenodd" fill="#fff"/></svg>