<svg xmlns="http://www.w3.org/2000/svg" width="66.006" height="67.995"><path d="M64.006 46.811V3.593c0-1.98-1.655-3.586-3.699-3.592C60.303.002 60.3 0 60.296 0H3.71l-.011.002C1.655.008 0 1.613 0 3.594v56.681a3.71 3.71 0 003.71 3.709h38.494a13.946 13.946 0 01-4.167-9.37 6.003 6.003 0 01-.031-.618v-8a6 6 0 016-6c1.148 0 2.218.328 3.13.888a13.948 13.948 0 014.87-.888c5.102-.001 9.553 2.737 12 6.815z" fill-rule="evenodd" clip-rule="evenodd" fill="#ccc"/><path d="M18.006 29.995h28v-26h-28v26zm0 30h28v-26h-28v26zm-14-49.999h10V3.995h-10v6.001zm0 9.999h10v-6h-10v6zm0 10h10v-6h-10v6zm0 10h10v-6h-10v6zm0 10h10v-5.999h-10v5.999zm0 10h10v-6h-10v6zm46-56v6.001h10V3.995h-10zm0 16h10v-6h-10v6zm0 10h10v-6h-10v6zm0 10h10v-6h-10v6zm0 10h10v-5.999h-10v5.999zm0 10h10v-6h-10v6z" fill-rule="evenodd" clip-rule="evenodd" fill="#fff"/><path d="M50.006 53.995a2 2 0 000-4.001h-2.442c1.096-1.22 2.672-1.999 4.442-1.999 1.774 0 3.365.775 4.463 2h4.699c-1.543-3.53-5.063-6-9.162-6a9.927 9.927 0 00-6 2.012v-.012a2 2 0 10-4 0v5.999a2 2 0 002 2.001h6zm11.118.342a1.988 1.988 0 00-1.118-.342h-6a2 2 0 100 4h2.443c-1.097 1.221-2.673 2-4.443 2a5.98 5.98 0 01-4.464-2h-4.698c1.543 3.53 5.063 6 9.162 6a9.944 9.944 0 006-2.011v.009a2.001 2.001 0 104 0V55.994c0-.69-.35-1.299-.882-1.657z" fill-rule="evenodd" clip-rule="evenodd" fill="#48a0dc"/></svg>