<svg xmlns="http://www.w3.org/2000/svg" width="64.006" height="63.983"><path d="M60.307.002L60.296 0H3.71l-.011.002C1.655.008 0 1.613 0 3.594v56.681a3.71 3.71 0 003.71 3.709h56.585a3.71 3.71 0 003.71-3.709V3.593c.001-1.98-1.654-3.585-3.698-3.591z" fill="#ccc"/><path d="M18.006 29.995h28v-26h-28v26zm0 30h28v-26h-28v26zm-14-49.999h10V3.995h-10v6.001zm0 9.999h10v-6h-10v6zm0 10h10v-6h-10v6zm0 10h10v-6h-10v6zm0 10h10v-5.999h-10v5.999zm0 10h10v-6h-10v6zm46-56v6.001h10V3.995h-10zm0 16h10v-6h-10v6zm0 10h10v-6h-10v6zm0 10h10v-6h-10v6zm0 10h10v-5.999h-10v5.999zm0 10h10v-6h-10v6z" fill-rule="evenodd" clip-rule="evenodd" fill="#fff"/></svg>