<svg xmlns="http://www.w3.org/2000/svg" width="64" height="36.001"><path d="M62 32.001c-1 0-1.642-1.067-2-2l-10-26C49.207 1.938 48.209 0 46 0s-3.207 1.938-4 4.001l-10 26c-.359.933-1 2-2 2a2 2 0 000 4h8a2 2 0 000-4c-2 0-2.359-1.067-2-2l.769-2h14.462l.769 2c.359.933 0 2-2 2a2 2 0 000 4h12a2 2 0 000-4zm-23.692-8L44 9.2l5.692 14.801H38.308z" fill-rule="evenodd" clip-rule="evenodd" fill="#ccc"/><path d="M34 32.001c-1 0-1.642-1.067-2-2l-10-26C21.207 1.938 20.209 0 18 0s-3.207 1.938-4 4.001l-10 26c-.359.933-1 2-2 2a2 2 0 000 4h8a2 2 0 000-4c-2 0-2.359-1.067-2-2l.769-2h14.462l.769 2c.358.933 0 2-2 2a2 2 0 000 4h12a2 2 0 000-4zm-23.692-8L16 9.2l5.692 14.801H10.308z" fill-rule="evenodd" clip-rule="evenodd" fill="#ed7161"/></svg>