<svg xmlns="http://www.w3.org/2000/svg" width="64.001" height="64"><path d="M40.033 8.001a8 8 0 10-16.001 0 8 8 0 0016.001 0zm-8 3.999a4 4 0 110-8 4 4 0 010 8zm31.356 20.452l-3.91-3.877a2.098 2.098 0 00-2.956 0l-3.91 3.877a2.07 2.07 0 000 2.939 2.097 2.097 0 002.955 0l.222-.22c-1.415 9.9-9.471 15.488-19.77 16.611L34.033 20h8a2 2 0 000-4h-20a2 2 0 000 4h8l-1.986 31.783C17.762 50.661 9.697 45.1 8.266 35.226l.168.166c.816.812 2.139.812 2.955 0s.816-2.127 0-2.939l-3.91-3.877a2.098 2.098 0 00-2.956 0L.612 32.453a2.072 2.072 0 000 2.939c.816.812 2.14.812 2.956 0l.604-.6c1.27 12.828 11.199 23.107 23.861 24.919V60c0 1.104 2.896 4 4 4s4-2.896 4-4v-.289c12.644-1.809 22.559-12.062 23.853-24.862l.548.543c.816.812 2.139.812 2.955 0s.816-2.127 0-2.94z" fill-rule="evenodd" clip-rule="evenodd" fill="#666"/></svg>