<svg xmlns="http://www.w3.org/2000/svg" width="68" height="68"><path d="M42.032 15.774A27.855 27.855 0 0028 12a27.867 27.867 0 00-14.483 4.033H4.032v11.935h11.935v-8.73A23.88 23.88 0 0128 16a23.885 23.885 0 0114.032 4.535v-4.761zm-29.911 8.347H7.878v-4.242h4.243v4.242zm40.105 1.847h-4.761A23.885 23.885 0 0152 40c0 4.386-1.183 8.494-3.237 12.032h-8.73v11.936h11.935v-9.485A27.878 27.878 0 0056 40c0-5.115-1.378-9.905-3.774-14.032zm-4.229 34.028h-3.993v-3.992h3.993v3.992z" fill-rule="evenodd" clip-rule="evenodd" fill="#88c057"/><path d="M64 32.001c-.378 0-.736.069-1.082.167l-8.951-8.95v-9.186h-9.186l-8.949-8.949C35.931 4.736 36 4.378 36 4a4 4 0 10-4 4c.35 0 .683-.059 1.007-.144l9.025 9.025v9.086h9.086l9.025 9.025A3.995 3.995 0 0060 36a4 4 0 104-3.999z" fill-rule="evenodd" clip-rule="evenodd" fill="#999"/></svg>