<svg xmlns="http://www.w3.org/2000/svg" width="64" height="64"><path d="M48 16H16a4 4 0 00-4 4v24a4 4 0 004 4h32a4 4 0 004-4V20a4 4 0 00-4-4z" fill="#666"/><path d="M46 20H18a2 2 0 00-2 2v20a2 2 0 002 2h28a2 2 0 002-2V22a2 2 0 00-2-2z" fill="#fff"/><path d="M14 0a2 2 0 00-2 2v8a2 2 0 004 0V2a2 2 0 00-2-2zm36 0a2 2 0 00-2 2v8a2 2 0 004 0V2a2 2 0 00-2-2zM14 52a2 2 0 00-2 2v7.999a2 2 0 104 0V54a2 2 0 00-2-2zm36 0a2 2 0 00-2 2v7.999a2 2 0 104 0V54a2 2 0 00-2-2zm8-32h4a2 2 0 000-4h-4a2 2 0 000 4zm4 24h-4a2 2 0 000 4h4a2 2 0 000-4zM6 16H2a2 2 0 000 4h4a2 2 0 000-4zm0 28H2a2 2 0 000 4h4a2 2 0 000-4z" fill-rule="evenodd" clip-rule="evenodd" fill="#ccc"/></svg>