<svg xmlns="http://www.w3.org/2000/svg" width="44.046" height="60.014"><path d="M37.406 22.328C35.699 20.517 21.622 5.601 16.012 0c0 12.417-8.227 21.131-9.439 22.349C2.513 26.334-.005 31.878 0 38.015c.009 12.141 9.876 21.99 22.039 21.999 12.162.009 22.016-9.826 22.007-21.968-.005-6.159-2.549-11.725-6.64-15.718z" fill-rule="evenodd" clip-rule="evenodd" fill="#88c057"/><path d="M12.117 28.14a2 2 0 000-2.832 2.01 2.01 0 00-2.836 0 2.036 2.036 0 00-.283.364 17.911 17.911 0 00-4.959 11.961A2.004 2.004 0 006 40.052a2.004 2.004 0 002.005-2.002c0-.011-.003-.021-.003-.033a13.976 13.976 0 014.014-9.793c.033-.031.07-.053.101-.084z" fill-rule="evenodd" clip-rule="evenodd" fill="#88c057"/></svg>