<svg xmlns="http://www.w3.org/2000/svg" width="59.999" height="64"><path d="M48.805 29.347c4.333-2.862 7.194-7.77 7.194-13.35C55.999 7.162 48.836 0 40 0l-.021.001H2a2 2 0 100 4h2.02a8 8 0 017.98 8V52a8 8 0 01-8 8H2a2 2 0 000 4h40c9.94 0 17.999-8.059 17.999-17.997 0-7.53-4.629-13.972-11.194-16.656zM24 4.001h8.347c6.465.186 11.652 5.479 11.652 11.994 0 6.589-5.3 11.932-11.865 12.005H24V4.001zm10 55.997V60H24V32h10v-.027c7.723.012 13.98 6.279 13.98 14.013s-6.257 14-13.98 14.012z" fill-rule="evenodd" clip-rule="evenodd" fill="#ed7161"/></svg>