<svg xmlns="http://www.w3.org/2000/svg" width="64.002" height="64.001"><path d="M18.001 4.001h4a2 2 0 000-4h-4a2 2 0 000 4zm12 0h4a2 2 0 000-4h-4a2 2 0 000 4zm12 0h4a2 2 0 000-4h-4a2 2 0 000 4zm-20 56h-4a2 2 0 000 4h4a2 2 0 000-4zm12 0h-4a2 2 0 000 4h4a2 2 0 000-4zm12 0h-4a2 2 0 000 4h4a2 2 0 000-4zm18-42a2 2 0 00-4 0v4a2 2 0 004 0v-4zm0 12a2 2 0 00-4 0v4a2 2 0 004 0v-4zm-2 10a2 2 0 00-2 2v4a2 2 0 004 0v-4a2 2 0 00-2-2zm-58-22a2 2 0 00-4 0v4a2 2 0 004 0v-4zm0 12a2 2 0 00-4 0v4a2 2 0 004 0v-4zm-2 10a2 2 0 00-2 2v4a2 2 0 004 0v-4a2 2 0 00-2-2zm52-36h4a2 2 0 012 2v4a2 2 0 004 0v-6a4 4 0 00-4-4.001l-6 .001a2 2 0 000 4zm-44 56h-4a2 2 0 01-2-2V54a2 2 0 00-4 0v6.001a4 4 0 004 4h6a2 2 0 000-4zm54-6.001a2 2 0 00-4 0v4a2.002 2.002 0 01-2 2.001h-4a2 2 0 000 4h6a4.001 4.001 0 004.001-4L64.001 54zm-62-41.999a2 2 0 002-2v-4a2 2 0 012-2h4a2 2 0 000-4h-6a4 4 0 00-4.001 4l.001 6a2 2 0 002 2zm32-2a2 2 0 00-4 0v4a2 2 0 004 0v-4zm0 12a2 2 0 00-4 0V26a2 2 0 104 0v-3.999zm0 16a2 2 0 00-4 0v4a2 2 0 004 0v-4zm-2 10a2 2 0 00-2 2V54a2 2 0 104 0v-3.999a2 2 0 00-2-2zm24-16a2 2 0 00-2-2h-4a2 2 0 000 4h4a2 2 0 002-2zm-12 0a2 2 0 00-2-2h-4a2 2 0 000 4h4a2 2 0 002-2zm-18-2h-4a2 2 0 000 4h4a2 2 0 000-4zm-12 0h-4a2 2 0 000 4h4a2 2 0 000-4z" fill-rule="evenodd" clip-rule="evenodd" fill="#d8d8d8"/><path d="M62.001.001h-60a2 2 0 100 4h60a2 2 0 000-4z" fill="#666"/></svg>