<svg xmlns="http://www.w3.org/2000/svg" width="64" height="64"><path d="M32 48a2 2 0 00-2 2v3.999a2 2 0 104 0V50a2 2 0 00-2-2zm0-12a2 2 0 00-2 2v4a2 2 0 004 0v-4a2 2 0 00-2-2zm0-16a2 2 0 00-2 2v3.999a2 2 0 104 0V22a2 2 0 00-2-2zm0-12a2 2 0 00-2 2v4a2 2 0 004 0v-4a2 2 0 00-2-2zM14 30h-4a2 2 0 000 4h4a2 2 0 000-4zm12 0h-4a2 2 0 000 4h4a2 2 0 000-4zm16 0h-4a2 2 0 000 4h4a2 2 0 000-4zm12 0h-4a2 2 0 000 4h4a2 2 0 000-4z" fill-rule="evenodd" clip-rule="evenodd" fill="#d8d8d8"/><path d="M60 0H4a4 4 0 00-4 4v56a4 4 0 004 4h56a4 4 0 004-4V4a4 4 0 00-4-4zm0 57.999A2 2 0 0158 60H6a2 2 0 01-2-2.001V6a2 2 0 012-2h52a2 2 0 012 2v51.999z" fill-rule="evenodd" clip-rule="evenodd" fill="#666"/></svg>