<svg xmlns="http://www.w3.org/2000/svg" width="64.002" height="64.002"><path d="M46.001 60.002h-4a2 2 0 000 4h4a2 2 0 000-4zm-12 0h-4a2 2 0 000 4h4a2 2 0 000-4zm-12 0h-4a2 2 0 000 4h4a2 2 0 000-4zm20-56h4a2 2 0 000-4h-4a2 2 0 000 4zm-12 0h4a2 2 0 000-4h-4a2 2 0 000 4zm-12 0h4a2 2 0 000-4h-4a2 2 0 000 4zm-16 36a2 2 0 00-2 2v4a2 2 0 004 0v-4a2 2 0 00-2-2zm2-10a2 2 0 00-4 0v4a2 2 0 004 0v-4zm0-12.001a2 2 0 00-4 0v4.001a2 2 0 004 0v-4.001zm58 22.001a2 2 0 00-2 2v4a2 2 0 004 0v-4a2 2 0 00-2-2zm2-10a2 2 0 00-4 0v4a2 2 0 004 0v-4zm0-12.001a2 2 0 00-4 0v4.001a2 2 0 004 0v-4.001zm-54 42.001h-4a2 2 0 01-2-2v-4a2 2 0 00-4 0v6a4 4 0 004 4h6a2 2 0 000-4zm44-56h4a2 2 0 012 2v4a2 2 0 004 0v-6a4.001 4.001 0 00-4-4.002l-6 .002a2 2 0 000 4zm-52 8a2 2 0 002-2v-4a2 2 0 012-2h4a2 2 0 000-4h-6a4 4 0 00-4.001 4l.001 6a2 2 0 002 2zm62 42a2 2 0 00-4 0v4a2 2 0 01-2 2h-4a2 2 0 000 4h6a4.001 4.001 0 004.001-4l-.001-6zm-32-6.001a2 2 0 00-2 2.001v4a2 2 0 004 0v-4a2 2 0 00-2-2.001zm2-9.999a2 2 0 00-4 0v4a2 2 0 004 0v-4zm0-16a2 2 0 00-4 0v4a2 2 0 004 0v-4zm0-12a2 2 0 00-4 0v3.999a2 2 0 104 0v-3.999zm-20 20h-4a2 2 0 000 4h4a2 2 0 000-4zm12 0h-4a2 2 0 000 4h4a2 2 0 000-4zm18 2a2 2 0 00-2-2h-4a2 2 0 000 4h4c1.104 0 2-.897 2-2zm12 0a2 2 0 00-2-2h-4a2 2 0 000 4h4c1.104 0 2-.897 2-2z" fill-rule="evenodd" clip-rule="evenodd" fill="#d8d8d8"/><path d="M2.001.002a2 2 0 00-2 2v60a2 2 0 004 0v-60a2 2 0 00-2-2z" fill="#666"/></svg>