<svg xmlns="http://www.w3.org/2000/svg" width="67.988" height="67.988"><path d="M34.025 22.025c-.977 0-1.787.7-1.962 1.626l3.962 3.962v-3.588a2 2 0 00-2-2zm12 12a2 2 0 00-2-2h-3.588l3.962 3.962a1.996 1.996 0 001.626-1.962zm-14 21.999a2 2 0 104 0v-3.999a2 2 0 00-4 0v3.999zm32-37.999a2 2 0 00-2 2v4a2 2 0 004 0v-4a2 2 0 00-2-2zm0 12a2 2 0 00-2 2v4a2 2 0 004 0v-4a2 2 0 00-2-2zm-32 14a1.998 1.998 0 103.962.373l-3.962-3.962v3.589zm4-32a2 2 0 00-4 0v4a2 2 0 004 0v-4zm-32 26a2 2 0 002-2v-4a2 2 0 00-4 0v4a2 2 0 002 2zm0-12a2 2 0 002-2v-4a2 2 0 00-4 0v4a2 2 0 002 2zm0 24a2 2 0 002-2v-4a2 2 0 00-4 0v4a2 2 0 002 2zm0-36c.447 0 .855-.152 1.189-.4l-3.189-3.188v1.589a2 2 0 002 1.999zm18 20a2 2 0 002 2h3.589l-3.962-3.962a2 2 0 00-1.627 1.962zm42 8a2 2 0 00-2 2v4a2 2 0 004 0v-4a2 2 0 00-2-2zm-28 20h-4a2 2 0 000 4h4a2 2 0 000-4zm28-8a1.98 1.98 0 00-1.188.399l3.188 3.188v-1.589a1.999 1.999 0 00-2-1.998zm-48-22h-4a2 2 0 000 4h4a2 2 0 000-4zm32 30h-4a2 2 0 000 4h4a2 2 0 000-4zm6 2a2 2 0 002 2h1.589l-3.189-3.189a1.99 1.99 0 00-.4 1.189zm-42-2h-4a2 2 0 01-2-2v-4.001a2 2 0 00-4 0v6.001a4 4 0 004 4h6a2 2 0 000-4zm12 0h-4a2 2 0 000 4h4a2 2 0 000-4zm32-30h-4a2 2 0 000 4h4a2 2 0 000-4zm6-30.001l-6 .001a2 2 0 000 4h4a2 2 0 012 2v4a2 2 0 004 0v-6a4 4 0 00-4-4.001zm-18 4.001h4a2 2 0 000-4h-4a2 2 0 000 4zm-8-4h-4a2 2 0 000 4h4a2 2 0 000-4zm-16 4h4a2 2 0 000-4h-4a2 2 0 000 4zm-6-2a2 2 0 00-2-2h-1.588l3.188 3.188c.248-.332.4-.74.4-1.188z" fill-rule="evenodd" clip-rule="evenodd" fill="#d8d8d8"/><path d="M65.408 62.605L5.382 2.579a1.983 1.983 0 00-2.802 0 1.983 1.983 0 000 2.802l60.026 60.026a1.98 1.98 0 102.802-2.802z" fill="#ed7161"/></svg>