<svg xmlns="http://www.w3.org/2000/svg" width="64.002" height="64.001"><path d="M46.001 60.001h-4a2 2 0 000 4h4a2 2 0 000-4zm-12 0h-4a2 2 0 000 4h4a2 2 0 000-4zm-12 0h-4a2 2 0 000 4h4a2 2 0 000-4zm24-60h-4a2 2 0 000 4h4a2 2 0 000-4zm-12 0h-4a2 2 0 000 4h4a2 2 0 000-4zm-12 0h-4a2 2 0 000 4h4a2 2 0 000-4zm-22 46a2 2 0 004 0v-4a2 2 0 00-4 0v4zm0-12a2 2 0 004 0v-4a2 2 0 00-4 0v4zm2-10a2 2 0 002-2v-4a2 2 0 00-4 0v4a2 2 0 002 2zm60 16a2 2 0 00-2 2v4a2 2 0 004 0v-4a2 2 0 00-2-2zm2-10a2 2 0 00-4 0v4a2 2 0 004 0v-4zm0-12a2 2 0 00-4 0v4a2 2 0 004 0v-4zm-54 42h-4a2 2 0 01-2-2V54a2 2 0 00-4 0v6.001a4 4 0 004 4h6a2 2 0 000-4zm44-56h4a2 2 0 012 2v4a2 2 0 004 0v-6a4 4 0 00-4-4.001l-6 .001a2 2 0 000 4zm-44-4h-6a4 4 0 00-4.001 4l.001 6a2 2 0 004 0v-4a2 2 0 012-2h4a2 2 0 000-4zm54 53.999a2 2 0 00-4 0v4a2 2 0 01-2 2.001h-4a2 2 0 000 4h6a4.001 4.001 0 004.001-4L64.001 54z" fill-rule="evenodd" clip-rule="evenodd" fill="#d8d8d8"/><path d="M62.001 30.001h-28v-28a2 2 0 00-4 0v28h-28a2 2 0 000 4h28v28a2 2 0 004 0v-28h28a2 2 0 000-4z" fill-rule="evenodd" clip-rule="evenodd" fill="#666"/></svg>