<svg xmlns="http://www.w3.org/2000/svg" width="64" height="64.001"><path d="M20 32.001a4 4 0 00-4-4H4A4 4 0 104 36h12c2.209 0 4-1.789 4-3.999zm12-8a8 8 0 100 16 8 8 0 000-16zm28 4H48A4 4 0 1048 36h12a3.999 3.999 0 100-7.999zm-28-8a4 4 0 004-4v-12a4.001 4.001 0 00-8 0v12a4 4 0 004 4zM32 44a4 4 0 00-4 4.001V60a4 4 0 108 0V48.001A4 4 0 0032 44zM17.858 23.516a4 4 0 005.657-5.657L15.03 9.374a4 4 0 00-5.657 5.657l8.485 8.485zm28.284 16.97a4 4 0 10-5.657 5.656l8.485 8.485c1.562 1.563 4.094 1.563 5.657 0s1.563-4.095 0-5.655l-8.485-8.486zm0-16.97l8.485-8.485a3.999 3.999 0 000-5.657 3.999 3.999 0 00-5.657 0l-8.485 8.485a4 4 0 005.657 5.657zm-28.284 16.97l-8.485 8.486a4 4 0 005.657 5.655l8.485-8.485a4 4 0 10-5.657-5.656z" fill-rule="evenodd" clip-rule="evenodd" fill="#fc6"/></svg>