<svg xmlns="http://www.w3.org/2000/svg" width="64.001" height="60"><path d="M22.001 44h28a2 2 0 100-3.999h-28a2 2 0 100 3.999zm0-32h28a2 2 0 000-3.999h-28a2 2 0 100 3.999zm40 4h-40a2 2 0 000 4h40a2 2 0 000-4zm-40-12h40a2 2 0 100-4h-40a2 2 0 000 4zm40 28h-40a2 2 0 000 4.001h40a2 2 0 000-4.001zm0 16h-40a2 2 0 000 4.001h40a2 2 0 000-4.001zm-40-20h28a2 2 0 000-3.999h-28a2 2 0 100 3.999zm28 28.001h-28a2 2 0 100 3.999h28a2 2 0 000-3.999z" fill-rule="evenodd" clip-rule="evenodd" fill="#ccc"/><path d="M6.001 16.001A6 6 0 106 28.002a6 6 0 00.001-12.001zm0-4A6.001 6.001 0 105.999-.001 6.001 6.001 0 006 12zm0 20A6 6 0 106 44.002a6 6 0 00.001-12.001zm0 16a6 6 0 100 11.999 6 6 0 000-11.999z" fill-rule="evenodd" clip-rule="evenodd" fill="#48a0dc"/></svg>