<svg xmlns="http://www.w3.org/2000/svg" width="64" height="60"><path d="M50 24.001H14A2 2 0 1014 28h36a2 2 0 000-3.999zm0 16H14A2 2 0 1014 44h36a2 2 0 000-3.999zM14 12h36a2 2 0 000-3.999H14A2 2 0 1014 12zm36 44.001H14A2 2 0 1014 60h36a2 2 0 000-3.999z" fill-rule="evenodd" clip-rule="evenodd" fill="#999"/><path d="M62 16H2a2 2 0 000 4h60a2 2 0 100-4zM2 4h60a2 2 0 100-4H2a2 2 0 000 4zm60 28H2a2 2 0 000 4.001h60A2 2 0 0062 32zm0 16H2a2 2 0 000 4h60a2 2 0 000-4z" fill-rule="evenodd" clip-rule="evenodd" fill="#666"/></svg>