<svg xmlns="http://www.w3.org/2000/svg" width="63.999" height="52.092"><path d="M62.824 23.182L50.787 11.158a4.015 4.015 0 00-5.674 0 4.003 4.003 0 000 5.667l9.199 9.19-9.199 9.188a4.005 4.005 0 000 5.668c.783.782 1.811 1.174 2.837 1.174s2.054-.392 2.837-1.174L62.824 28.85a4.005 4.005 0 000-5.668zM18.887 11.158a4.015 4.015 0 00-5.674 0L1.176 23.182a4.005 4.005 0 000 5.668l12.037 12.022c.782.782 1.811 1.174 2.837 1.174s2.054-.392 2.837-1.174a4.005 4.005 0 000-5.668l-9.2-9.188 9.2-9.19a4.005 4.005 0 000-5.668zM39.303.245a4.047 4.047 0 00-5.186 2.417L22.279 46.663a4.047 4.047 0 007.604 2.767l11.838-44A4.046 4.046 0 0039.303.245z" fill-rule="evenodd" clip-rule="evenodd" fill="#88c057"/></svg>