<svg xmlns="http://www.w3.org/2000/svg" width="64" height="60"><path d="M28 40.001H2A2 2 0 102 44h26a2 2 0 100-3.999zm0-32H2A2 2 0 102 12h26a2 2 0 000-3.999zM28 16H2a2 2 0 000 4h26a2 2 0 000-4zm0-16H2a2 2 0 000 4h26a2 2 0 100-4zm0 32H2a2 2 0 000 4.001h26A2 2 0 0028 32zm0 16H2a2 2 0 000 4.001h26A2 2 0 0028 48zm0-23.999H2A2 2 0 102 28h26a2 2 0 000-3.999zm0 32H2A2 2 0 102 60h26a2 2 0 000-3.999zm34-16H36A2 2 0 1036 44h26a2 2 0 100-3.999zm0-32H36A2 2 0 1036 12h26a2 2 0 000-3.999zM62 16H36a2 2 0 000 4h26a2 2 0 000-4zM36 4h26a2 2 0 100-4H36a2 2 0 000 4zm26 28H36a2 2 0 000 4.001h26A2 2 0 0062 32zm-8 16H36a2 2 0 000 4.001h18A2 2 0 0054 48zm8-23.999H36A2 2 0 1036 28h26a2 2 0 000-3.999z" fill-rule="evenodd" clip-rule="evenodd" fill="#ccc"/></svg>