<svg xmlns="http://www.w3.org/2000/svg" width="64" height="64"><path d="M36 0H4a4 4 0 00-4 4v40.001a4 4 0 004 4h32a4 4 0 004-4V4a4 4 0 00-4-4z" fill="#ccc"/><path d="M34 4H6a2 2 0 00-2 2.001v36a2 2 0 002 2h28a2 2 0 002-2v-36A2 2 0 0034 4z" fill="#fff"/><path d="M22 20.001h-8A2 2 0 0014 24h8a2 2 0 000-3.999zM26 12H14a2 2 0 000 4h12a2 2 0 000-4z" fill="#ccc"/><path d="M60 16H28a4 4 0 00-4 4.001v40A4 4 0 0028 64h22l14-13.999v-30A4 4 0 0060 16z" fill="#88c057"/><path d="M58 20.001H30A2 2 0 0028 22v36a2 2 0 002 2.001h18l12-12V22a2 2 0 00-2-1.999z" fill="#fff"/><path d="M46 36h-8a2 2 0 000 4h8a2 2 0 000-4zm4-8H38a2 2 0 000 4h12a2 2 0 000-4z" fill="#ccc"/><path d="M52 48.001a4 4 0 00-4 4V64l16-15.999H52z" fill="#638c3f"/></svg>