<svg xmlns="http://www.w3.org/2000/svg" width="64.03" height="64.012"><path d="M58.041 3.999V0L32.016 25.988 5.99 0v3.999c0 3.998 8.008 15.992 12.012 19.99l8.008 7.996-2.002 1.999L16 45.979l2.002 1.998 14.014-9.994 14.014 9.994 2.002-1.998-8.008-11.994-2.002-1.999 8.008-7.996c4.003-3.999 12.011-15.993 12.011-19.991z" fill-rule="evenodd" clip-rule="evenodd" fill="#ccc"/><path d="M60.074 45.951c-4.664-4.656-11.597-5.284-15.483-1.405-3.888 3.88-3.257 10.799 1.407 15.455 4.665 4.655 11.597 5.283 15.483 1.404 3.887-3.88 3.258-10.798-1.407-15.454zm-1.363 12.663c-2.245 2.231-6.607 1.514-9.743-1.603-3.137-3.117-3.859-7.452-1.614-9.684 2.246-2.23 6.608-1.512 9.744 1.604 3.136 3.118 3.858 7.452 1.613 9.683zM3.956 45.911c-4.664 4.683-5.294 11.641-1.407 15.542 3.888 3.902 10.819 3.27 15.483-1.413 4.665-4.683 5.295-11.641 1.408-15.542S8.621 41.229 3.956 45.911zm11.107 11.123c-3.136 3.135-7.498 3.855-9.743 1.612-2.245-2.244-1.523-6.603 1.612-9.736 3.136-3.135 7.499-3.857 9.744-1.613 2.246 2.243 1.523 6.603-1.613 9.737z" fill-rule="evenodd" clip-rule="evenodd" fill="#9b7cab"/><circle cx="32.016" cy="31.986" r="2" fill="#999"/></svg>