<svg xmlns="http://www.w3.org/2000/svg" width="56" height="64"><path d="M4 16v44.001A4 4 0 008 64h40a4 4 0 004-3.999V16H4z" fill="#ccc"/><path d="M16 24a2 2 0 00-2 1.999V54a2 2 0 004 0V25.999A2 2 0 0016 24zm12 0a2 2 0 00-2 1.999V54a2 2 0 004 0V25.999A2 2 0 0028 24zm12 0a2 2 0 00-2 1.999V54a2 2 0 004 0V25.999A2 2 0 0040 24z" fill-rule="evenodd" clip-rule="evenodd" fill="#999"/><path fill="#999" d="M4 18.001h48V22H4z"/><path d="M52 8H4a4 4 0 00-4 4.001v6h56v-6A4 4 0 0052 8zM36 0H20a4 4 0 00-4 4v4h4V6a2 2 0 012-2h12a2 2 0 012 2v2h4V4a4 4 0 00-4-4z" fill="#ccc"/></svg>