<svg xmlns="http://www.w3.org/2000/svg" width="64" height="64"><path d="M46 36H18a4 4 0 00-4 4v20a4 4 0 004 4h28a4 4 0 004-4V40a4 4 0 00-4-4zM56 0H8a4 4 0 00-4 4v20a4 4 0 004 4h48a4 4 0 004-4V4a4 4 0 00-4-4z" fill-rule="evenodd" clip-rule="evenodd" fill="#ccc"/><path d="M54 4.001H10A2 2 0 008 6v16a2 2 0 002 2.001h44A2 2 0 0056 22V6a2 2 0 00-2-1.999z" fill="#fff"/><path d="M2 28h60a2 2 0 000-4H2a2 2 0 000 4zm60 8H2a2 2 0 000 4h60a2 2 0 000-4z" fill-rule="evenodd" clip-rule="evenodd" fill="#ed7161"/></svg>