<svg xmlns="http://www.w3.org/2000/svg" width="64" height="64"><path d="M60 14H40a4 4 0 00-4 4v28a4 4 0 004 4h20a4 4 0 004-4V18a4 4 0 00-4-4zM24 4H4a4 4 0 00-4 4v48a4 4 0 004 4h20a4 4 0 004-4V8a4 4 0 00-4-4z" fill-rule="evenodd" clip-rule="evenodd" fill="#ccc"/><path d="M22 8H6a2 2 0 00-2 2.001V54a2 2 0 002 2h16a2 2 0 002-2V10.001A2 2 0 0022 8z" fill="#fff"/><path d="M26 0a2 2 0 00-2 2v60a2 2 0 004 0V2a2 2 0 00-2-2zm36 0a2 2 0 00-2 2v60a2 2 0 004 0V2a2 2 0 00-2-2z" fill-rule="evenodd" clip-rule="evenodd" fill="#ed7161"/></svg>