<svg xmlns="http://www.w3.org/2000/svg" width="64" height="60"><path d="M36 4h26.001a1.999 1.999 0 000-4H36a2 2 0 000 4zm26.001 20H36a2 2 0 000 4h26.001a1.999 1.999 0 000-4zm0-8H36a2 2 0 000 4.001h26.001a2 2 0 000-4.001zm0-8H36a2 2 0 000 4h26.001a1.999 1.999 0 000-4zm0 24H36a2 2 0 000 4h26.001a2 2 0 000-4zm0 8h-60a2 2 0 100 4h60a2 2 0 000-4zm0 16h-60a2 2 0 100 4h60a2 2 0 000-4zm0-8h-60a2 2 0 100 4h60a2 2 0 000-4z" fill-rule="evenodd" clip-rule="evenodd" fill="#ccc"/><path d="M22.281 16.275c2.25-1.636 3.72-4.281 3.72-7.276 0-4.632-3.501-8.44-8-8.938V.002h-16a2 2 0 000 4 2 2 0 012 1.999v24.001a2 2 0 01-2 2 2 2 0 000 4h18v-.001c5.522 0 10-4.478 10-9.998 0-4.736-3.298-8.694-7.72-9.728zm-10.28-.618V4.002h2.193a6 6 0 015.807 5.997 6.001 6.001 0 01-5.961 6.003h-2.039v-.345zm4 16.343v.002h-4V20.001h4.223A6.003 6.003 0 0116.001 32z" fill-rule="evenodd" clip-rule="evenodd" fill="#9b7cab"/></svg>