<svg xmlns="http://www.w3.org/2000/svg" width="64" height="56"><path d="M52 34V22h7.106C56.487 13.286 48.309 6.488 38 4.558V12H26V4.574C15.692 6.506 7.5 13.285 4.883 22H12v12H4.882C7.499 42.715 15.691 49.494 26 51.426V44h12v7.426C48.309 49.494 56.501 42.715 59.118 34H52z" fill-rule="evenodd" clip-rule="evenodd" fill="#88c057"/><ellipse cx="32" cy="28" rx="24" ry="20" fill="#fff"/><path d="M0 34h12V22H0v12zm4-8h4v4H4v-4zm22-14h12V0H26v12zm4-8h4v4h-4V4zm-4 52h12V44H26v12zm4-8h4v4h-4v-4zm22-26v12h12V22H52zm8 8h-4v-4h4v4z" fill-rule="evenodd" clip-rule="evenodd" fill="#999"/></svg>