<svg xmlns="http://www.w3.org/2000/svg" width="64.051" height="64.051"><path fill="#88c057" d="M8.025 44.025l-2 10-4 4 4 4 4-4 10-1.999 12-12.001z"/><path d="M43.172 28.879L18 54.051l-8 2-4 4.001-2-2.001 4-4 2-8 25.172-25.172-2.828-2.828L7.172 43.223a4.002 4.002 0 00-1.094 2.043l-1.763 6.813-3.144 3.145a3.997 3.997 0 000 5.656l2 2c.78.782 1.805 1.172 2.828 1.172s2.048-.39 2.828-1.172l3.144-3.143 6.813-1.764a3.993 3.993 0 002.044-1.094L46 31.707l-2.828-2.828z" fill="#ccc"/><path d="M64.051 11.051c0-2.972-1.145-5.752-3.223-7.829C58.754 1.146 55.973 0 53 0s-5.754 1.146-7.83 3.225L36 12.395l-1.172-1.172c-.781-.781-1.805-1.172-2.828-1.172s-2.048.391-2.828 1.172a3.997 3.997 0 000 5.656l18 18c.781.781 1.805 1.172 2.828 1.172s2.047-.391 2.828-1.172a3.997 3.997 0 000-5.656l-1.172-1.172 9.172-9.172c2.078-2.077 3.223-4.858 3.223-7.828z" fill-rule="evenodd" clip-rule="evenodd" fill="#48a0dc"/></svg>