<svg xmlns="http://www.w3.org/2000/svg" width="60" height="64"><path d="M4 48h16v-4H4v4zM26 6a2 2 0 00-2-2H12a2 2 0 00-2 2v4a2 2 0 002 2h12a2 2 0 002-2V6zm14 38v4h16v-4H40zm10-34V6a2 2 0 00-2-2H36a2 2 0 00-2 2v4a2 2 0 002 2h12a2 2 0 002-2zm-18 9.999h-4a2 2 0 00-2 2V38a2 2 0 002 2h4a2 2 0 002-2V21.999a2 2 0 00-2-2z" fill-rule="evenodd" clip-rule="evenodd" fill="#999"/><path d="M2 48L0 60a4 4 0 004 4h16a4 4 0 004-4l-2-12H2zM20 0h-4a4 4 0 00-4 4h12a4 4 0 00-4-4zm18 48l-2 12a4 4 0 004 4h16a4 4 0 004-4l-2-12H38zm6-48h-4a4 4 0 00-4 4h12a4 4 0 00-4-4zM24 16v-4H12v4H6a2 2 0 00-2 2L0 42a2 2 0 002 2h22a2 2 0 002-2V18a2 2 0 00-2-2zm34 28a2 2 0 002-2l-4-24a2 2 0 00-2-2h-6v-4H36v4a2 2 0 00-2 2v24a2 2 0 002 2h22z" fill-rule="evenodd" clip-rule="evenodd" fill="#666"/></svg>