<svg xmlns="http://www.w3.org/2000/svg" width="64" height="64"><path d="M63.723 58.537l-22-56A4.003 4.003 0 0037.256.07 4 4 0 0034 4.001V60a4 4 0 004 4h22a3.998 3.998 0 003.305-1.748 3.995 3.995 0 00.418-3.715z" fill="#ed7161"/><path d="M26.744.07a4 4 0 00-4.467 2.467l-22 56A3.998 3.998 0 004 64h22a4 4 0 004-4V4A4 4 0 0026.744.07z" fill="#ccc"/><path d="M25.192 8.692c-.561.048-.863.433-1.192 1.308L5.106 57.27A2 2 0 006.969 60H24a2 2 0 002-2V10.583c0-.961.15-1.975-.808-1.891z" fill="#fff"/></svg>