<svg xmlns="http://www.w3.org/2000/svg" width="64.001" height="64.001"><path d="M62.253.696a3.995 3.995 0 00-3.715-.418l-56 22a4 4 0 001.463 7.724h56a4 4 0 004-4.001v-22A3.998 3.998 0 0062.253.696z" fill="#ed7161"/><path d="M60 34H4.001a4 4 0 00-1.464 7.723l56.001 22A3.998 3.998 0 0064.001 60V38.001A4.001 4.001 0 0060 34z" fill="#ccc"/><path d="M58.001 38.001H10.583c-.961 0-1.974-.151-1.891.807.049.562.434.863 1.309 1.192L57.27 58.894A1.997 1.997 0 0060 57.032V40a1.999 1.999 0 00-1.999-1.999z" fill="#fff"/></svg>