<svg xmlns="http://www.w3.org/2000/svg" width="64" height="63.999"><path d="M61.999 13.999h-12a2 2 0 100 3.999h12a2 2 0 000-3.999z" fill="#48a0dc"/><path d="M62 59.999h-2.007C57.997 59.993 56.717 57.864 56 56L36 4c-.793-2.062-1.791-4-4-4s-3.207 1.938-4 4L8 56c-.718 1.864-1.997 3.993-3.993 3.999H2a2 2 0 000 4h16a2 2 0 000-4h-2.028C11.998 59.988 11.283 57.861 12 56l3.846-10h24.308L44 56c.716 1.861.002 3.988-3.972 3.999H38a2 2 0 000 4h24a2 2 0 000-4zM17.385 42L28 14.4 38.615 42h-21.23z" fill-rule="evenodd" clip-rule="evenodd" fill="#ccc"/></svg>