<svg xmlns="http://www.w3.org/2000/svg" width="60" height="59.999"><path d="M58 55.999c-1 0-1.641-1.066-2-1.999L46 27.999c-.793-2.062-1.791-4-4-4s-3.207 1.938-4 4L28 54c-.359.933-1 1.999-2 1.999a2 2 0 000 4h8a2 2 0 000-4c-2 0-2.359-1.066-2-1.999l.77-2.001h14.46L48 54c.359.933 0 1.999-2 1.999a2 2 0 000 4h12a2 2 0 000-4zm-23.692-8L40 33.199l5.692 14.8H34.308z" fill-rule="evenodd" clip-rule="evenodd" fill="#88c057"/><path d="M16 6L2 19.999c-1.512 1.513-2 4.074-2 6C0 28.889 11.111 40 14 40c1.926 0 4.488-.488 6-2l14-14.001L16 6z" fill="#ccc"/><path d="M35 21c-.898-1.445-4.203-5.001-6-5.001h-3L31 21c1.367 1.367-1 8.759-1 12a3 3 0 006 0s-.102-10.557-1-12z" fill-rule="evenodd" clip-rule="evenodd" fill="#88c057"/><path d="M18 0c-4.419 0-8 3.581-8 7.999V12l4-4v-.001a4 4 0 018 0v10a2 2 0 004 0v-10A8 8 0 0018 0z" fill-rule="evenodd" clip-rule="evenodd" fill="#999"/></svg>