<svg xmlns="http://www.w3.org/2000/svg" width="64" height="63.999"><path d="M59.611 51.531l-9.879-25.113c-.623-1.587-2.523-6.419-7.732-6.419-3.305 0-5.274 1.943-6.435 3.77-.14-1.327-.323-2.38-.565-2.77-.898-1.444-4.203-5-6-5h-3l5 5c1.367 1.368-1 8.76-1 12.001 0 .814.327 1.551.854 2.092l-6.467 16.439c-2.65.823-4.387 3.588-4.387 6.113 0 3.006 2.464 6.355 6 6.355h8c3.536 0 6-3.35 6-6.355a5.93 5.93 0 00-.183-1.466h.399A6.078 6.078 0 0040 57.767c0 3.009 2.411 6.232 6 6.232h12c3.535 0 6-3.35 6-6.355 0-2.525-1.738-5.29-4.389-6.113z" fill-rule="evenodd" clip-rule="evenodd" fill="#fc6"/><path d="M58 55.999c-1 0-1.641-1.066-2-2l-10-26c-.793-2.062-1.791-4-4-4s-3.207 1.938-4 4l-10 26c-.359.934-1 2-2 2a2 2 0 000 4h8a2 2 0 000-4c-2 0-2.359-1.066-2-2l.77-2h14.46l.77 2c.358.934 0 2-2 2a2 2 0 000 4h12a2 2 0 000-4zm-23.692-8L40 33.199l5.692 14.8H34.308z" fill-rule="evenodd" clip-rule="evenodd" fill="#fff"/><path d="M16 6L2 19.999c-1.513 1.513-2 4.074-2 6C0 28.889 11.111 40 14 40c1.926 0 4.488-.488 6-2.001l14-14L16 6z" fill="#ccc"/><path d="M18 0c-4.419 0-8 3.581-8 7.999V12l4-4v-.001a4 4 0 018 0v10a2 2 0 004 0v-10A8 8 0 0018 0z" fill-rule="evenodd" clip-rule="evenodd" fill="#999"/></svg>