<svg xmlns="http://www.w3.org/2000/svg" width="64" height="64"><path d="M60 0H4a4 4 0 00-4 3.999V60a4 4 0 004 4h56a4 4 0 004-4V3.999A4 4 0 0060 0z" fill="#ccc"/><path d="M58 3.999H6A2 2 0 004 6v51.999A2 2 0 006 60h52a2 2 0 002-2.001V6a2 2 0 00-2-2.001z" fill="#fff"/><path d="M60 16v-4h-8V3.999h-4V12h-8V3.999h-4V12h-8V3.999h-4V12h-8V3.999h-4V12H4v4h8v7.999H4v4h8V36H4v4h8v8H4v4h8v8h4v-8h8v8h4v-8h8v8h4v-8h8v8h4v-8h8v-4h-8v-8h8v-4h-8v-8.001h8v-4h-8V16h8zm-24 0v7.999h-8V16h8zm0 11.999V36h-8v-8.001h8zM16 16h8v7.999h-8V16zm0 11.999h8V36h-8v-8.001zM16 48v-8h8v8h-8zm12 0v-8h8v8h-8zm20 0h-8v-8h8v8zm0-12h-8v-8.001h8V36zm0-12.001h-8V16h8v7.999z" fill-rule="evenodd" clip-rule="evenodd" fill="#ccc"/></svg>