<svg xmlns="http://www.w3.org/2000/svg" width="64.001" height="63.999"><path d="M24 0H4.001A4 4 0 000 3.999v20a4 4 0 004.001 4H24a4 4 0 004.001-4v-20A4 4 0 0024 0zm36 0H40.001A4 4 0 0036 3.999v20a4 4 0 004.001 4H60a4 4 0 004.001-4v-20A4 4 0 0060 0zM24 35.999H4.001A4 4 0 000 39.998v20.001a4 4 0 004.001 4H24a4 4 0 004.001-4V39.998A4 4 0 0024 35.999zm36 0H40.001A4 4 0 0036 39.998v20.001a4 4 0 004.001 4H60a4 4 0 004.001-4V39.998A4 4 0 0060 35.999z" fill-rule="evenodd" clip-rule="evenodd" fill="#9b7cab"/></svg>