<svg xmlns="http://www.w3.org/2000/svg" width="64" height="64"><path d="M60 0H4a4 4 0 00-4 3.999V60a4 4 0 004 4h56a4 4 0 004-4V3.999A4 4 0 0060 0z" fill="#ccc"/><path d="M58 3.999H6A2 2 0 004 6v51.999A2 2 0 006 60h52a2 2 0 002-2.001V6a2 2 0 00-2-2.001z" fill="#fff"/><path d="M12 10a2 2 0 100 4 2 2 0 000-4zm8 0a2 2 0 100 4 2 2 0 000-4zm8 0a2 2 0 100 4 2 2 0 000-4zm8 0a2 2 0 100 4 2 2 0 000-4zm8 0a2 2 0 100 4 2 2 0 000-4zm8 4a2 2 0 10-.001-4.001A2 2 0 0052 14zm-40 4a2 2 0 100 4 2 2 0 000-4zm8 0a2 2 0 100 4 2 2 0 000-4zm8 0a2 2 0 100 4 2 2 0 000-4zm8 0a2 2 0 100 4 2 2 0 000-4zm8 0a2 2 0 100 4 2 2 0 000-4zm8 0a2 2 0 100 4 2 2 0 000-4zm-40 8a2 2 0 10.001 4.001A2 2 0 0012 26zm8 0a2 2 0 10.001 4.001A2 2 0 0020 26zm8 0a2 2 0 10.001 4.001A2 2 0 0028 26zm8 0a2 2 0 10.001 4.001A2 2 0 0036 26zm8 0a2 2 0 10.001 4.001A2 2 0 0044 26zm8 0a2 2 0 10.001 4.001A2 2 0 0052 26zm-40 8a2 2 0 100 4 2 2 0 000-4zm8 0a2 2 0 100 4 2 2 0 000-4zm8 0a2 2 0 100 4 2 2 0 000-4zm8 0a2 2 0 100 4 2 2 0 000-4zm8 0a2 2 0 100 4 2 2 0 000-4zm8 0a2 2 0 100 4 2 2 0 000-4zm-40 8a2 2 0 100 4 2 2 0 000-4zm8 0a2 2 0 100 4 2 2 0 000-4zm8 0a2 2 0 100 4 2 2 0 000-4zm8 0a2 2 0 100 4 2 2 0 000-4zm8 0a2 2 0 100 4 2 2 0 000-4zm8 0a2 2 0 100 4 2 2 0 000-4zm-40 8a2 2 0 100 4 2 2 0 000-4zm8 0a2 2 0 100 4 2 2 0 000-4zm8 0a2 2 0 100 4 2 2 0 000-4zm8 0a2 2 0 100 4 2 2 0 000-4zm8 0a2 2 0 100 4 2 2 0 000-4zm8 0a2 2 0 100 4 2 2 0 000-4z" fill-rule="evenodd" clip-rule="evenodd" fill="#ccc"/></svg>