<svg xmlns="http://www.w3.org/2000/svg" width="63.999" height="64"><path d="M60 0h-8a4 4 0 00-4 4.001v8a4 4 0 004 4h8a4 4 0 003.999-4v-8A4 4 0 0060 0zM36 0h-8.001A4 4 0 0024 4.001v8a4 4 0 003.999 4H36a4 4 0 003.999-4v-8A4 4 0 0036 0zM12 0H3.999A4 4 0 000 4.001v8a4 4 0 003.999 4H12a4 4 0 004-4v-8A4 4 0 0012 0zm48 24.001h-8c-2.21 0-4 1.79-4 3.999v8a4 4 0 004 4.001h8A4 4 0 0063.999 36v-8A3.998 3.998 0 0060 24.001zm-24 0h-8.001A3.998 3.998 0 0024 28v8a4 4 0 003.999 4.001H36A4 4 0 0039.999 36v-8A3.998 3.998 0 0036 24.001zm-24 0H3.999A3.998 3.998 0 000 28v8a4 4 0 003.999 4.001H12c2.209 0 4-1.792 4-4.001v-8a4 4 0 00-4-3.999zM60 48h-8a4 4 0 00-4 4.001v8A3.999 3.999 0 0052 64h8a3.998 3.998 0 003.999-3.999v-8A4 4 0 0060 48zm-24 0h-8.001A4 4 0 0024 52.001v8A3.998 3.998 0 0027.999 64H36a3.998 3.998 0 003.999-3.999v-8A4 4 0 0036 48zm-24 0H3.999A4 4 0 000 52.001v8A3.998 3.998 0 003.999 64H12a4 4 0 004-3.999v-8A4 4 0 0012 48z" fill-rule="evenodd" clip-rule="evenodd" fill="#88c057"/></svg>