<svg xmlns="http://www.w3.org/2000/svg" width="64" height="64"><path d="M60 0H4a4 4 0 00-4 3.999V60a4 4 0 004 4h56a4 4 0 004-4V3.999A4 4 0 0060 0z" fill="#ccc"/><path d="M58 3.999H6A2 2 0 004 6v51.999A2 2 0 006 60h52a2 2 0 002-2.001V6a2 2 0 00-2-2.001z" fill="#fff"/><path d="M38 54a2 2 0 000 3.999A2 2 0 0038 54zm0-6a2 2 0 100 4 2 2 0 000-4zm0-6a2 2 0 100 4 2 2 0 000-4zm0-6a2 2 0 100 4 2 2 0 000-4zm0-6a2 2 0 100 4 2 2 0 000-4zm0-6.001a2 2 0 10.002 4.002A2 2 0 0038 23.999zM38 12a2 2 0 10.001 4.001A2 2 0 0038 12zm0-6a2 2 0 100 4 2 2 0 000-4zM20 54a2 2 0 000 3.999A2 2 0 0020 54zm0-6a2 2 0 100 4 2 2 0 000-4zm0-6a2 2 0 100 4 2 2 0 000-4zm0-12a2 2 0 100 4 2 2 0 000-4zm0-6.001a2 2 0 10.002 4.002A2 2 0 0020 23.999zM20 18a2 2 0 100 4 2 2 0 000-4zm0-6a2 2 0 10.001 4.001A2 2 0 0020 12zm0-6a2 2 0 100 4 2 2 0 000-4zm36 16a2 2 0 10-.001-4.001A2 2 0 0056 22zm-6-4a2 2 0 100 4 2 2 0 000-4zm-6 0a2 2 0 100 4 2 2 0 000-4zm-6 0a2 2 0 100 4 2 2 0 000-4zm-6 0a2 2 0 100 4 2 2 0 000-4zm-6 0a2 2 0 100 4 2 2 0 000-4zm-12 0a2 2 0 100 4 2 2 0 000-4zm42 18a2 2 0 100 4 2 2 0 000-4zm-6 0a2 2 0 100 4 2 2 0 000-4zm-6 0a2 2 0 100 4 2 2 0 000-4zm-12 0a2 2 0 100 4 2 2 0 000-4zm-6 0a2 2 0 100 4 2 2 0 000-4zm-6 0a2 2 0 100 4 2 2 0 000-4zm-6 0a2 2 0 100 4 2 2 0 000-4zM8 18a2 2 0 100 4 2 2 0 000-4zm0 18a2 2 0 100 4 2 2 0 000-4z" fill-rule="evenodd" clip-rule="evenodd" fill="#ccc"/><path d="M36 18H22a4 4 0 00-4 4v14a4 4 0 004 4h14a4 4 0 004-4V22a4 4 0 00-4-4zm0 16a2 2 0 01-2 2H24a2 2 0 01-2-2V23.999A2 2 0 0124 22h10a2 2 0 012 1.999V34z" fill-rule="evenodd" clip-rule="evenodd" fill="#88c057"/></svg>