<svg xmlns="http://www.w3.org/2000/svg" width="64" height="59.999"><path d="M60.471 45.958a5.97 5.97 0 001.503-3.966c0-3.31-2.675-5.993-5.974-5.993s-5.974 2.684-5.974 5.993c0 1.523.57 2.909 1.503 3.966C49.4 47.961 48 51.144 48 53.866c0 4.354 3.582 6.133 8 6.133s8-1.778 8-6.133c0-2.722-1.4-5.905-3.529-7.908zM56 39.995c1.1 0 1.991.896 1.991 1.999S57.1 43.992 56 43.992s-1.992-.895-1.992-1.998.892-1.999 1.992-1.999zm0 15.999c-2.213 0-4.006-.238-4.006-3.004 0-2.758 1.784-4.993 3.989-5.005l.017.001.017-.001c2.205.012 3.989 2.247 3.989 5.005 0 2.766-1.793 3.004-4.006 3.004z" fill-rule="evenodd" clip-rule="evenodd" fill="#ed7161"/><path fill-rule="evenodd" clip-rule="evenodd" fill="#ccc" d="M32 0v25.999H12V0H0v55.999h12V34h20v21.999h12V0z"/></svg>