<svg xmlns="http://www.w3.org/2000/svg" width="64" height="60.017"><path d="M63.955 38.293c.014-.07.026-.141.032-.212.002-.027.013-.054.013-.081s-.007-.053-.008-.08A1.923 1.923 0 0063 36.242 2.033 2.033 0 0061.782 36H50a2 2 0 000 4h9.058l-6.79 17.107c-.552.928-.225 2.113.732 2.649.957.535 2.18.217 2.732-.71l8-20.154c.086-.145.144-.297.188-.451.017-.048.023-.098.035-.148z" fill-rule="evenodd" clip-rule="evenodd" fill="#ed7161"/><path fill-rule="evenodd" clip-rule="evenodd" fill="#ccc" d="M32 0v25.999H12V0H0v55.999h12V34h20v21.999h12V0z"/></svg>