<svg xmlns="http://www.w3.org/2000/svg" width="64" height="60"><path d="M62 56h-7.111l5.911-5.601-.005-.007A7.978 7.978 0 0064 43.999 8 8 0 0056 36a8 8 0 00-8 7.999 2 2 0 104 0 4 4 0 018 0c0 1.078-.738 2.409-1.846 3.231l.006.009-9.597 9.468a1.91 1.91 0 00-.556 1.285l-.007.007c0 .011.003.021.003.032a1.914 1.914 0 001.567 1.92c.138.03.282.049.43.049h12a2 2 0 000-4z" fill-rule="evenodd" clip-rule="evenodd" fill="#ed7161"/><path fill-rule="evenodd" clip-rule="evenodd" fill="#ccc" d="M32 0v25.999H12V0H0v55.999h12V34h20v21.999h12V0z"/></svg>