<svg xmlns="http://www.w3.org/2000/svg" width="64" height="60"><path d="M64 38c0-.011-.003-.021-.003-.031a1.907 1.907 0 00-1.569-1.92A2.012 2.012 0 0062 36H50a2 2 0 000 4h7.299l-4.723 4.723a1.92 1.92 0 000 2.716c.393.392.912.573 1.427.556L54 48h2a4 4 0 110 8 4 4 0 01-4-4.001 2 2 0 00-4 0 8 8 0 1010.373-7.642l4.642-4.644c.588-.348.985-.981.985-1.713z" fill-rule="evenodd" clip-rule="evenodd" fill="#ed7161"/><path fill-rule="evenodd" clip-rule="evenodd" fill="#ccc" d="M32 0v25.999H12V0H0v55.999h12V34h20v21.999h12V0z"/></svg>