<svg xmlns="http://www.w3.org/2000/svg" width="64" height="60"><path d="M56 43.999h-4.007V40H60a2 2 0 000-4H50a2 2 0 00-2 2c0 .07.014.138.021.206-.009.076-.023.151-.023.229v7.613c0 .052.019.098.022.147a2.037 2.037 0 00.129.552c.018.044.041.084.062.126.072.146.158.28.265.403.053.063.105.124.166.181.049.044.098.086.151.125.124.096.257.18.401.243-.036.06-.08.112-.115.173H56a4 4 0 11-4 4.001 2 2 0 00-4 0 8 8 0 108-8z" fill-rule="evenodd" clip-rule="evenodd" fill="#ed7161"/><path fill-rule="evenodd" clip-rule="evenodd" fill="#ccc" d="M32 0v25.999H12V0H0v55.999h12V34h20v21.999h12V0z"/></svg>