<svg xmlns="http://www.w3.org/2000/svg" width="64" height="60"><path d="M62 49.999V48a2 2 0 00-4 0v1.999h-4.558l6.29-10.969A2.023 2.023 0 0059 36.278a1.993 1.993 0 00-2.732.737l-8 13.953a2.008 2.008 0 00-.214.587c-.005.022-.011.045-.015.068a1.959 1.959 0 00-.028.273c-.003.036-.011.069-.011.103 0 .021.005.039.006.06.002.057.01.112.017.169.01.087.022.172.042.255.004.018.011.033.016.051a1.987 1.987 0 001.675 1.442c.081.009.161.024.244.024h8v3.999a2 2 0 104 0V54a2 2 0 000-4.001z" fill-rule="evenodd" clip-rule="evenodd" fill="#ed7161"/><path fill-rule="evenodd" clip-rule="evenodd" fill="#ccc" d="M32 0v25.999H12V0H0v55.999h12V34h20v21.999h12V0z"/></svg>