<svg xmlns="http://www.w3.org/2000/svg" width="64" height="60"><path fill-rule="evenodd" clip-rule="evenodd" fill="#88c057" d="M52 36V24h6.535l-6.928-12H40V4.019H24V12H12.394L5.465 24H12v12H5.464l6.928 12H24v7.98h16V48h11.607l6.929-12z"/><path fill="#fff" d="M44.691 8.017H19.31L6.615 30l12.692 21.985h25.386l12.692-21.984z"/><path d="M52 0H40v12h12V0zm-4 8h-4V4h4v4zM12 24H0v12h12V24zm-4 8H4v-4h4v4zm44-8v12h12V24H52zm8 8h-4v-4h4v4zM12 60h12V48H12v12zm4-8h4v4h-4v-4zm-4-40h12V0H12v12zm4-8h4v4h-4V4zm24 56h12V48H40v12zm4-8h4v4h-4v-4z" fill-rule="evenodd" clip-rule="evenodd" fill="#999"/></svg>