<svg xmlns="http://www.w3.org/2000/svg" width="64" height="64.001"><path d="M40 4.002h8V0h-8v4.002zm0 59.999h8v-4h-8v4zm-40-40h4v-8H0v8zM16 4.002h8V0h-8v4.002zm12 0h8V0h-8v4.002zm32 31.999h4v-8h-4v8zm0-12h4v-8h-4v8zm0 24.001h4v-8h-4v8zM60 0h-8v4.002h6a2 2 0 012 1.999v6.001h4v-8A4.001 4.001 0 0060 0zm0 58.001a2 2 0 01-2 2h-6v4h8a4 4 0 004-4v-8h-4v6zM0 4.002v8h4V6.001a2 2 0 012-1.999h6V0H4C1.791 0 0 1.792 0 4.002z" fill-rule="evenodd" clip-rule="evenodd" fill="#ccc"/><path d="M52.32 10.033a2.175 2.175 0 00-.919-.032H44a2 2 0 000 4.001h2.863l-8.266 8.266a2.17 2.17 0 003.068 3.068L50 17.001v3.001a2 2 0 004 0v-8c0-.996-.729-1.814-1.68-1.969z" fill-rule="evenodd" clip-rule="evenodd" fill="#ed7161"/><path d="M32 28.001H4a4 4 0 00-4 4v28a4 4 0 004 4h28a4 4 0 004-4v-28a4 4 0 00-4-4z" fill="#ed7161"/></svg>