<svg xmlns="http://www.w3.org/2000/svg" width="63.999" height="59.999"><path d="M26 27.999h24A2 2 0 0050 24H26a2 2 0 100 3.999zm0 16h24A2 2 0 1050 40H26a2 2 0 100 3.999zm8-32h16A2 2 0 0050 8H34a2 2 0 100 3.999zM50 56H26a2 2 0 100 3.999h24A2 2 0 0050 56zM26 19.999h36a2 2 0 000-4H26a2 2 0 000 4zm36 12H26A2 2 0 0026 36h36a2 2 0 000-4.001zm0 16H26A2 2 0 0026 52h36a2 2 0 000-4.001z" fill-rule="evenodd" clip-rule="evenodd" fill="#ccc"/><path d="M19.414 8.586l-8-8a2 2 0 00-2.828 2.829l4.603 4.603H2c-1.105 0-2 .888-2 1.982s.895 1.981 2 1.981h11.19l-4.604 4.604a2 2 0 002.828 2.829l8-7.999c.362-.362.586-.862.586-1.415 0-.552-.224-1.052-.586-1.414z" fill-rule="evenodd" clip-rule="evenodd" fill="#48a0dc"/></svg>