<svg xmlns="http://www.w3.org/2000/svg" width="64" height="64"><path d="M34 29.999h16A2 2 0 1050 26H34a2 2 0 100 3.999zm0 16h16A2 2 0 1050 42H34a2 2 0 000 3.999zm0-32h16A2 2 0 1050 10H34a2 2 0 000 3.999zM50 58H34a2 2 0 000 3.999h16A2 2 0 1050 58zm12-40.001H34a2 2 0 000 4h28a2 2 0 000-4zm-28-12h28a2 2 0 100-4H34a2 2 0 000 4zm28 28H34A2 2 0 0034 38h28a2 2 0 000-4.001zm0 16H34A2 2 0 0034 54h28a2 2 0 000-4.001z" fill-rule="evenodd" clip-rule="evenodd" fill="#ccc"/><path d="M11.414 22.586a2 2 0 00-2.828 2.829l4.604 4.604H2c-1.105 0-2 .887-2 1.981s.895 1.981 2 1.981h11.19l-4.604 4.604a2 2 0 002.828 2.83l8-8c.362-.362.586-.862.586-1.415 0-.552-.224-1.052-.586-1.414l-8-8zM26 0a2 2 0 00-2 2v60a2 2 0 004 0V2a2 2 0 00-2-2z" fill-rule="evenodd" clip-rule="evenodd" fill="#48a0dc"/></svg>