<svg xmlns="http://www.w3.org/2000/svg" width="64" height="64"><path d="M30 26H14a2 2 0 100 3.999h16A2 2 0 0030 26zm0 16H14a2 2 0 000 3.999h16A2 2 0 1030 42zm0-32H14a2 2 0 000 3.999h16A2 2 0 0030 10zm0 48H14a2 2 0 000 3.999h16A2 2 0 0030 58zm0-40.001H2a2 2 0 000 4h28a2 2 0 000-4zm-28-12h28a2 2 0 100-4H2a2 2 0 100 4zm28 28H2A2 2 0 002 38h28a2 2 0 000-4.001zm0 16H2A2 2 0 002 54h28a2 2 0 000-4.001z" fill-rule="evenodd" clip-rule="evenodd" fill="#ccc"/><path d="M62 30.019H50.81l4.604-4.604a2 2 0 00-2.829-2.829l-7.999 8A1.994 1.994 0 0044 32c0 .553.224 1.053.586 1.415l7.999 8a2 2 0 002.829-2.829l-4.604-4.604H62c1.104 0 2-.887 2-1.981s-.896-1.982-2-1.982zM38 0a2 2 0 00-2 2v60a2 2 0 004 0V2a2 2 0 00-2-2z" fill-rule="evenodd" clip-rule="evenodd" fill="#48a0dc"/></svg>