<svg xmlns="http://www.w3.org/2000/svg" width="64" height="60"><path d="M62.001 48.019H30.81l4.604-4.604a2 2 0 00-2.828-2.829l-8 8A1.994 1.994 0 0024 50c0 .553.224 1.053.586 1.415l8 8a2 2 0 002.828-2.829l-4.604-4.604h31.191C63.104 51.981 64 51.095 64 50s-.896-1.981-1.999-1.981zM62 32.001c-1-.001-1.641-1.067-2-2l-10-26C49.207 1.938 48.209 0 46 0s-3.207 1.938-4 4.001l-10 26c-.359.933-1 1.999-2 1.999v.001A2 2 0 1030 36h8a2 2 0 000-3.999V32c-2 0-2.359-1.066-2-1.999L36.77 28h14.46l.77 2.001c.359.933 0 1.999-2 1.999v.001A2 2 0 1050 36h12a2 2 0 000-3.999zM38.308 24L44 9.201 49.691 24H38.308z" fill-rule="evenodd" clip-rule="evenodd" fill="#48a0dc"/><path d="M34 0h-8a2 2 0 000 4.001c2 0 2.358 1.066 2 2l-8 20.8-8-20.8c-.359-.934 0-2 2-2A2 2 0 0014 0H2a2 2 0 000 4.001c1 0 1.641 1.066 2 2l10 26C14.793 34.063 15.791 36 18 36s3.207-1.938 4-3.999l10-26c.359-.934 1-2 2-2A2 2 0 0034 0z" fill-rule="evenodd" clip-rule="evenodd" fill="#ccc"/></svg>