<svg xmlns="http://www.w3.org/2000/svg" width="64.001" height="64"><path d="M55.459 43.355l-10.198-5.1c-.703-.352-1.845-.352-2.549 0l-10.198 5.1c-.704.353-.704.923 0 1.275l10.198 5.099c.704.352 1.846.352 2.549 0l10.198-5.099c.704-.352.704-.922 0-1.275z" fill="#ccc"/><path d="M34.002 30h8v-4.001h-8V30zm12 0h8v-4.001h-8V30zm-12 32h8v-4h-8v4zm12 0h8v-4h-8v4zm-20-20h4v-8.001h-4V42zm32-8.001V42h4v-8.001h-4zM26.002 54h4v-8.001h-4V54zm32 0h4v-8.001h-4V54z" fill-rule="evenodd" clip-rule="evenodd" fill="#ccc"/><path d="M24 64h8v-8h-8v8zm32.001-40v8h8v-8h-8zm0 40h8v-8h-8v8z" fill-rule="evenodd" clip-rule="evenodd" fill="#666"/><path d="M10.002 6h8V1.999h-8V6zm12 0h8V1.999h-8V6zm-12 31.999h8V34h-8v3.999zm12 0h8V34h-8v3.999zm-20-20h4v-8h-4v8zm32-8V18h4V9.999h-4zM2.002 30h4v-8.001h-4V30zm32 0h4v-8.001h-4V30z" fill-rule="evenodd" clip-rule="evenodd" fill="#ccc"/><path d="M0 40h8v-8H0v8zM0 8h8V0H0v8zm32-8v8h8.001V0H32zm0 40h8.001v-8H32v8z" fill-rule="evenodd" clip-rule="evenodd" fill="#666"/><path d="M31.459 19.355l-10.198-5.1c-.704-.352-1.845-.352-2.549 0l-10.198 5.1c-.704.352-.704.923 0 1.275l10.198 5.099c.704.353 1.845.353 2.549 0l10.198-5.099c.705-.352.705-.923 0-1.275z" fill="#88c057"/></svg>