<svg xmlns="http://www.w3.org/2000/svg" width="64.006" height="44.004"><path d="M62.598 26.302L35.402 12.705c-1.877-.939-4.921-.939-6.799 0L1.408 26.302c-1.877.938-1.877 2.461 0 3.399L28.604 43.3c1.878.938 4.921.938 6.799 0l27.196-13.599c1.876-.938 1.876-2.461-.001-3.399z" fill="#ccc"/><path d="M62.598 14.303L35.402.704c-1.877-.938-4.921-.938-6.799 0L1.408 14.303c-1.877.938-1.877 2.46 0 3.399L28.604 31.3c1.878.938 4.921.938 6.799 0l27.196-13.598c1.876-.939 1.876-2.461-.001-3.399z" fill="#88c057"/></svg>