<svg xmlns="http://www.w3.org/2000/svg" width="64" height="64.001"><path d="M10 6.002h8V2.001h-8v4.001zm12 0h8V2.001h-8v4.001zm12 0h8V2.001h-8v4.001zm12 0h8V2.001h-8v4.001zm-36 56h8v-4h-8v4zm12 0h8v-4h-8v4zm12 0h8v-4h-8v4zm12 0h8v-4h-8v4zM2 54.001h4v-8H2v8zm0-11.999h4v-8.001H2v8.001zm0-12h4v-8.001H2v8.001zm0-12.001h4v-7.999H2v7.999zm56 36.001h4v-8.001h-4v8.001zm0-12.001h4v-7.999h-4v7.999zm0-11.999h4v-8.001h-4v8.001zm0-20.001v8.001h4v-8.001h-4z" fill-rule="evenodd" clip-rule="evenodd" fill="#ccc"/><path d="M0 8h8V0H0v8zm56-8v8h8V0h-8zm0 64.001h8V56h-8v8.001zm-56 0h8V56H0v8.001z" fill-rule="evenodd" clip-rule="evenodd" fill="#666"/><path d="M53.006 35.821l-18.697-9.349c-1.291-.646-3.383-.646-4.674 0l-18.697 9.349c-1.291.646-1.291 1.691 0 2.337l18.697 9.349c1.291.645 3.383.645 4.674 0l18.697-9.349c1.29-.645 1.29-1.691 0-2.337z" fill="#ccc"/><path d="M53.006 25.82l-18.697-9.348c-1.291-.646-3.383-.646-4.674 0L10.938 25.82c-1.291.646-1.291 1.693 0 2.338l18.697 9.348c1.291.646 3.383.646 4.674 0l18.697-9.348c1.29-.644 1.29-1.691 0-2.338z" fill="#88c057"/></svg>