<svg xmlns="http://www.w3.org/2000/svg" width="64.006" height="56.004"><path d="M62.598 38.302L35.403 24.704c-1.878-.938-4.922-.938-6.799 0L1.408 38.302c-1.877.938-1.877 2.461 0 3.399L28.604 55.3c1.877.938 4.921.938 6.799 0l27.194-13.599c1.879-.938 1.879-2.461.001-3.399z" fill="#48a0dc"/><path d="M62.598 26.303L35.403 12.705c-1.878-.939-4.922-.939-6.799 0L1.408 26.303c-1.877.938-1.877 2.46 0 3.399L28.604 43.3c1.877.938 4.921.938 6.799 0l27.194-13.598c1.879-.939 1.879-2.461.001-3.399z" fill="#b3b3b3"/><path d="M62.598 14.302L35.403.704c-1.878-.938-4.922-.938-6.799 0L1.408 14.302c-1.877.938-1.877 2.462 0 3.4l27.196 13.597c1.877.939 4.921.939 6.799 0l27.194-13.597c1.879-.938 1.879-2.462.001-3.4z" fill="#ccc"/></svg>