<svg xmlns="http://www.w3.org/2000/svg" width="64.006" height="44.004"><path d="M62.598 26.302L35.403 12.705c-1.878-.939-4.922-.939-6.799 0L1.408 26.302c-1.877.938-1.877 2.461 0 3.399L28.604 43.3c1.877.938 4.921.938 6.799 0l27.195-13.599c1.877-.938 1.877-2.461 0-3.399z" fill="#ccc"/><path d="M62.598 14.303L35.403.704c-1.878-.938-4.922-.938-6.799 0L1.408 14.303c-1.877.938-1.877 2.46 0 3.399L28.604 31.3c1.877.938 4.921.938 6.799 0l27.195-13.598c1.877-.939 1.877-2.461 0-3.399z" fill="#88c057"/><path d="M28.604 12.705l-18.596 9.297L28.604 31.3c1.877.938 4.921.938 6.799 0l18.595-9.298-18.595-9.297c-1.878-.939-4.922-.939-6.799 0z" fill-rule="evenodd" clip-rule="evenodd" fill="#638c3f"/></svg>