<svg xmlns="http://www.w3.org/2000/svg" width="64.007" height="44.004"><path d="M62.599 26.302L35.403 12.705c-1.878-.939-4.922-.939-6.799 0L1.408 26.302c-1.877.938-1.877 2.461 0 3.399L28.604 43.3c1.877.938 4.921.938 6.799 0l27.195-13.599c1.878-.938 1.878-2.461.001-3.399z" fill="#ccc"/><path d="M62.599 14.303L35.403.704c-1.878-.938-4.922-.938-6.799 0L1.408 14.303c-1.877.938-1.877 2.46 0 3.399L28.604 31.3c1.877.938 4.921.938 6.799 0l27.195-13.598c1.878-.939 1.878-2.461.001-3.399zM32.045 24.02c-7.732 0-14-3.582-14-8 0-4.419 6.268-8.001 14-8.001 7.731 0 14 3.582 14 8.001 0 4.418-6.269 8-14 8z" fill-rule="evenodd" clip-rule="evenodd" fill="#ed7161"/></svg>