<svg xmlns="http://www.w3.org/2000/svg" width="68.012" height="58.019"><path d="M42.05 38.56c-.01-.18-.025-.358-.025-.541 0-6.628 5.37-12 11.994-12a11.95 11.95 0 018.604 3.649c1.815-.94 1.802-2.438-.054-3.366L35.386 12.705c-1.876-.939-4.919-.939-6.796 0L1.408 26.302c-1.877.938-1.877 2.461 0 3.399L28.59 43.3c1.877.938 4.92.938 6.796 0l4.821-2.412a3.977 3.977 0 011.843-2.328z" fill-rule="evenodd" clip-rule="evenodd" fill="#b3b3b3"/><path d="M62.568 14.303L35.386.704c-1.876-.938-4.919-.938-6.796 0L1.408 14.303c-1.877.938-1.877 2.46 0 3.399L28.59 31.3c1.877.938 4.92.938 6.796 0l27.183-13.598c1.875-.939 1.875-2.462-.001-3.399z" fill="#ccc"/><path d="M62.015 42.017v-3.999a7.997 7.997 0 10-15.992 0v3.999a2 2 0 00-1.999 2.001v7.999a2 2 0 001.999 2.001h15.992a2 2 0 001.999-2.001v-7.999a2 2 0 00-1.999-2.001zm-7.996 8.001a2 2 0 11.002-4 2 2 0 01-.002 4zm3.998-8.001h-7.996v-3.999a4 4 0 117.996 0v3.999z" fill-rule="evenodd" clip-rule="evenodd" fill="#ed7261"/></svg>