<svg xmlns="http://www.w3.org/2000/svg" width="56" height="64"><path d="M30 60s-2 .449-2-2V48c0-1.398.742-12-10-12-12.545 0-14 5.251-14 8 0 2.813 2.362 4 6 4 1.813 0 4-1.579 4-4 0-2.608-2-2.25-2-3.999C12 39.188 14.063 38 16 38c1.913 0 4 1.456 4 4.001v4C10.531 50.919 4 53.449 4 58c0 3.348 1.798 6 6 6 4.203 0 7.68-1.679 10-4 0 3.498 2.593 4 6 4 3.453 0 6-2 6-2l-2-2zm-10-2s-2.063 2-4 2c-2.563 0-4-1.437-4-4 0-2.562 2.844-4.974 8-8v10z" fill="#ccc"/><path d="M54 52c-.553 0-1.053.225-1.414.586l-4.604 4.604V6.811l4.604 4.604a2 2 0 002.828-2.829l-8-7.999A1.99 1.99 0 0046 0c-.553 0-1.053.224-1.414.587l-8 7.999a2 2 0 002.828 2.829l4.604-4.604V30l-.019-.002H2a2 2 0 000 4.001h41.999l.019-.002v23.191l-4.604-4.604a2 2 0 00-2.828 2.83l8 8A1.99 1.99 0 0046 64c.552 0 1.052-.224 1.414-.586l8-8A2 2 0 0054 52z" fill-rule="evenodd" clip-rule="evenodd" fill="#48a0dc"/><path d="M30 24s-2 .449-2-2v-9.999c0-1.399.742-12-10-12-12.545 0-14 5.249-14 8 0 2.812 2.362 4 6 4 1.813 0 4-1.58 4-4C14 5.392 12 5.75 12 4c0-.813 2.063-2 4-2 1.913 0 4 1.456 4 4.001V10c-9.469 4.92-16 7.449-16 12 0 3.348 1.798 6 6 6 4.203 0 7.68-1.679 10-4 0 3.498 2.593 4 6 4 3.453 0 6-2 6-2l-2-2zm-10-2s-2.063 2-4 2c-2.563 0-4-1.437-4-4 0-2.563 2.844-4.974 8-7.999V22z" fill="#ccc"/></svg>