<svg xmlns="http://www.w3.org/2000/svg" width="64.009" height="64.008"><path d="M60.267 3.742c-4.99-4.99-13.081-4.99-18.072 0l-8.438 8.438c-4.99 4.99-4.99 13.081 0 18.071 4.99 4.991 13.081 4.991 18.072 0l8.438-8.438c4.99-4.991 4.99-13.081 0-18.071zm-5.833 13.649l-7.028 7.027a5.484 5.484 0 01-7.758 0 5.484 5.484 0 010-7.758l7.028-7.028a5.484 5.484 0 017.758 0 5.488 5.488 0 010 7.759zM12.18 33.756l-8.438 8.438c-4.99 4.99-4.99 13.081 0 18.071s13.081 4.99 18.072 0l8.438-8.438c4.99-4.99 4.99-13.082 0-18.072s-13.082-4.989-18.072.001zm12.239 13.648l-7.028 7.028a5.484 5.484 0 01-7.758 0 5.484 5.484 0 010-7.758l7.027-7.028a5.486 5.486 0 117.759 7.758z" fill-rule="evenodd" clip-rule="evenodd" fill="#48a0dc"/><path d="M44.69 19.311a4.61 4.61 0 00-6.517 0L19.312 38.173a4.608 4.608 0 106.517 6.517L44.69 25.827c1.8-1.8 1.8-4.717 0-6.516z" fill="#387ba8"/></svg>