<svg xmlns="http://www.w3.org/2000/svg" width="64" height="63.998"><path d="M12 0H4C1.79 0 0 1.79 0 3.999v8a4 4 0 004 4h8a4 4 0 004-4v-8A4 4 0 0012 0zm48 0H28c-2.21 0-4 1.79-4 3.999v8a4 4 0 004 4h32a4 4 0 004-4v-8A4 4 0 0060 0zM12 24H4a4 4 0 00-4 3.999v8a3.999 3.999 0 004 3.999h8a4 4 0 004-3.999v-8A4 4 0 0012 24zm48 0H28a4 4 0 00-4 3.999v8a3.999 3.999 0 004 3.999h32a4 4 0 004-3.999v-8A4 4 0 0060 24zM12 48H4c-2.21 0-4 1.79-4 3.999v8a3.999 3.999 0 004 3.999h8a4 4 0 004-3.999v-8A4 4 0 0012 48zm48 0H28c-2.21 0-4 1.79-4 3.999v8a3.999 3.999 0 004 3.999h32a4 4 0 004-3.999v-8A4 4 0 0060 48z" fill-rule="evenodd" clip-rule="evenodd" fill="#fc6"/></svg>