<svg xmlns="http://www.w3.org/2000/svg" width="64.002" height="64.001"><path d="M22.001.001h-4a2 2 0 000 3.999h4a2 2 0 100-3.999zm12 0h-4a2 2 0 000 3.999h4a2 2 0 100-3.999zm12 0h-4a2 2 0 000 3.999h4a2 2 0 100-3.999zm-24 60h-4a2 2 0 000 4h4a2 2 0 000-4zm12 0h-4a2 2 0 000 4h4a2 2 0 000-4zm12 0h-4a2 2 0 000 4h4a2 2 0 000-4zm16-44a2 2 0 00-2 2v4a2 2 0 004 0v-4a2 2 0 00-2-2zm0 11.999a2 2 0 00-2 2.001v4a2 2 0 004 0v-4a2 2 0 00-2-2.001zm0 12.001a2 2 0 00-2 2v4a2 2 0 004 0v-4a2 2 0 00-2-2zm-60-24a2 2 0 00-2 2v4a2 2 0 004 0v-4a2 2 0 00-2-2zm0 11.999a2 2 0 00-2 2.001v4a2 2 0 004 0v-4a2 2 0 00-2-2.001zm0 12.001a2 2 0 00-2 2v4a2 2 0 004 0v-4a2 2 0 00-2-2z" fill-rule="evenodd" clip-rule="evenodd" fill="#ccc"/><path d="M54.001 4h4a2 2 0 012 2.001v4a2 2 0 004 0V4a4 4 0 00-4-4l-6 .001a2 2 0 000 3.999zm-44 56.001h-4a2 2 0 01-2-2.001v-3.999a2 2 0 00-4 0V60a4 4 0 004 4.001h6a2 2 0 000-4zm54-6a2 2 0 00-4 0V58a2 2 0 01-2 2.001h-4a2 2 0 000 4l6-.001a4 4 0 004.001-3.999l-.001-6zm-54-54h-6A4 4 0 000 4l.001 6.001a2 2 0 004 0v-4a2 2 0 012-2.001h4a2 2 0 100-3.999z" fill-rule="evenodd" clip-rule="evenodd" fill="#666"/></svg>