<svg xmlns="http://www.w3.org/2000/svg" width="63.971" height="63.97"><path d="M13.963 30.078h-7.03l2.462-2.469a2.082 2.082 0 000-2.938 2.064 2.064 0 00-2.928 0L.606 30.548a2.082 2.082 0 00-.444 2.272c.058.146.133.283.222.41.079.125.17.244.278.353l5.832 5.847a2.048 2.048 0 002.904 0 2.065 2.065 0 000-2.915L6.97 34.078h6.993a1.996 1.996 0 001.993-1.999 1.998 1.998 0 00-1.993-2.001zm49.844 1.161a2.026 2.026 0 00-.224-.412 1.98 1.98 0 00-.279-.352l-5.855-5.871a2.055 2.055 0 00-2.916 0 2.077 2.077 0 000 2.928l2.438 2.444h-7.02c-1.104 0-2 .899-2 2.007 0 1.11.896 2.009 2 2.009h7.059l-2.473 2.479a2.09 2.09 0 000 2.949 2.072 2.072 0 002.939 0l5.885-5.899a2.088 2.088 0 00.446-2.282zM27.505 9.399l2.426-2.429v6.991a1.992 1.992 0 103.984 0v-7.03l2.46 2.463a2.068 2.068 0 002.927 0 2.068 2.068 0 000-2.927L33.448.605a2.065 2.065 0 00-1.924-.549c-.01.002-.02.007-.029.009a2.041 2.041 0 00-.72.32c-.124.079-.242.17-.35.278l-5.824 5.832a2.053 2.053 0 102.904 2.904zm8.946 45.134l-2.435 2.438v-7.019a2 2 0 00-4 0v7.059l-2.47-2.473a2.077 2.077 0 10-2.938 2.938l5.877 5.885a2.076 2.076 0 002.273.445 2.01 2.01 0 00.41-.224 2.01 2.01 0 00.351-.279l5.848-5.855a2.061 2.061 0 10-2.916-2.915z" fill-rule="evenodd" clip-rule="evenodd" fill="#ed7161"/><path d="M45.954 14.017h-28a4 4 0 00-4 3.999v28.001a4 4 0 004 4h28a4 4 0 004-4V18.016a4 4 0 00-4-3.999z" fill="#ed7161"/></svg>