<svg xmlns="http://www.w3.org/2000/svg" width="67.988" height="67.988"><path d="M4.025 48.023h35.588l-3.999-3.999H4.025a2 2 0 100 3.999zm60-19.999H36.437l3.999 3.999h23.59a2 2 0 10-.001-3.999zm0 7.999h-19.59l4.001 4.001h15.589a2 2 0 000-4.001zm-60-4h19.587l-3.999-3.999H4.025a2 2 0 100 3.999zm0 8.001h27.588l-4-4.001H4.025a2 2 0 000 4.001zm0-16.001h11.587l-4-4H4.025a2 2 0 000 4zm60 20.001H52.437l3.999 3.999h7.59a2 2 0 10-.001-3.999zm0-36.001a2 2 0 100-4h-51.59l4 4h47.59zm-60 52a2 2 0 000 4h51.588l-4-4H4.025zm60-8h-3.59l3.963 3.963a2 2 0 00-.373-3.963zm-60-36h3.587l-3.961-3.961a1.999 1.999 0 00.374 3.961zm60-3.999H20.437l3.999 3.999h39.59a2 2 0 10-.001-3.999zm0 7.999h-35.59l4 4h31.59a2 2 0 100-4zm-60 36h43.588l-4-4H4.025a2 2 0 000 4z" fill-rule="evenodd" clip-rule="evenodd" fill="#ccc"/><path d="M65.408 62.606L5.382 2.58A1.98 1.98 0 102.58 5.381l60.026 60.026c.774.773 2.028.773 2.802 0s.774-2.027 0-2.801z" fill="#ed7161"/></svg>