<svg xmlns="http://www.w3.org/2000/svg" width="67.988" height="67.99"><path d="M34.025 12.026a15.925 15.925 0 00-10.039 3.55l22.489 22.489a15.925 15.925 0 003.55-10.039c0-8.837-7.164-16-16-16zm-16 16c0 8.837 7.163 15.999 16 15.999.51 0 1.013-.029 1.511-.076L18.102 26.515a16.055 16.055 0 00-.077 1.511z" fill-rule="evenodd" clip-rule="evenodd" fill="#ccc"/><path d="M34.025 50.025c-13.177 0-23.979-14.249-23.979-16 0-.906 2.665-4.856 6.96-8.605l-4.72-4.721C5.978 25.854 2.025 31.804 2.025 34.025c0 4.029 14.326 22.001 32 22.001 3.953 0 7.736-.908 11.231-2.356L40.5 48.913c-2.063.693-4.233 1.112-6.475 1.112zm0-37.999c-3.963 0-7.755.897-11.257 2.331l4.777 4.777c2.064-.69 4.236-1.108 6.48-1.108 13.176 0 23.978 14.182 23.978 15.999 0 .87-2.671 4.83-6.976 8.592l4.677 4.677c6.344-5.209 10.321-11.2 10.321-13.269 0-4.014-14.327-21.999-32-21.999z" fill-rule="evenodd" clip-rule="evenodd" fill="#ccc"/><path d="M65.408 62.607L5.382 2.582a1.98 1.98 0 00-2.802 0 1.98 1.98 0 000 2.801l60.026 60.026a1.98 1.98 0 102.802-2.802z" fill="#ed7161"/></svg>