<svg xmlns="http://www.w3.org/2000/svg" width="64" height="64.001"><path d="M22 46h28a2 2 0 100-3.999H22A2 2 0 1022 46zm0-32h28a2 2 0 000-3.999H22A2 2 0 1022 14zm40 4H22a2 2 0 000 4h40a2 2 0 000-4zM22 6h40a2 2 0 100-4H22a2 2 0 000 4zm40 28H22a2 2 0 000 4.001h40A2 2 0 0062 34zm0 16H22a2 2 0 000 4.001h40A2 2 0 0062 50zM22 30h28a2 2 0 000-3.999H22A2 2 0 1022 30zm28 28.001H22A2 2 0 1022 62h28a2 2 0 000-3.999z" fill-rule="evenodd" clip-rule="evenodd" fill="#ccc"/><path d="M9.107 52.876l2.307-3.46A1.999 1.999 0 0010 46.002H2a2 2 0 100 3.999h4.31l-1.724 2.585A2 2 0 006 56.001a2 2 0 11-2 2 2 2 0 00-4 0 6 6 0 1012 0 5.986 5.986 0 00-2.893-5.125zM10 36.001H6.665l3.573-3.753A6 6 0 100 28.001a2 2 0 004 0 2 2 0 112 2v.9L.591 36.583A2 2 0 002 40.001h8a2 2 0 000-4zm-2-22v-12A2 2 0 006 0l-.02.002H4a2 2 0 100 4v9.999a2 2 0 000 4h4a2 2 0 000-4z" fill-rule="evenodd" clip-rule="evenodd" fill="#48a0dc"/></svg>