<svg xmlns="http://www.w3.org/2000/svg" width="60" height="64"><path d="M26 10L4 32c-3.141 3.141-4 6-4 10 0 6 16 22 22 22 4 0 6.859-.859 10-4l22-22-28-28z" fill="#ccc"/><path d="M40 30.555V14c0-7.731-6.269-14-14-14-7.732 0-14 6.269-14 14v10.001L16 20v-6c0-5.522 4.477-10 10-10 5.522 0 10 4.478 10 10v16.555c-1.19.693-2 1.969-2 3.445a4 4 0 008 0c0-1.477-.81-2.752-2-3.445z" fill-rule="evenodd" clip-rule="evenodd" fill="#999"/><path d="M58 34c-1.797-2.888-8.406-9.999-12-9.999h-6L50 34c2.734 2.735-2 13.52-2 20a6 6 0 0012 0s-.203-17.112-2-20z" fill-rule="evenodd" clip-rule="evenodd" fill="#88c057"/></svg>