<svg xmlns="http://www.w3.org/2000/svg" width="74" height="72"><path fill="#6d5778" d="M46 0l-4 6 26 26 6-4z"/><path fill="#9b7cab" d="M14 34L42 6l26 26-28 28z"/><path d="M40 60s0-6-10-16-16-10-16-10v12s4.615-1.385 10 4 4 10 4 10h12z" fill-rule="evenodd" clip-rule="evenodd" fill="#e6e6e6"/><path d="M24 50c-5.385-5.385-10-4-10-4-2 2-4 2-4 6 0 4.001 8 12 12 12s4-2 6-4c0 0 1.385-4.615-4-10z" fill-rule="evenodd" clip-rule="evenodd" fill="#999"/><ellipse transform="rotate(-45.001 18.02 56.004)" cx="18.021" cy="56.004" rx="1.585" ry="5.441" fill="#e6e6e6"/><path fill="#ccc" d="M34 22.003l8-8 18 18-8 8z"/></svg>