<svg xmlns="http://www.w3.org/2000/svg" width="64" height="64"><path d="M32 36.001h-4A4 4 0 0024 40v20a4 4 0 004 4h4a4 4 0 004-4V40a4 4 0 00-4-3.999z" fill="#ed7161"/><path d="M60 8h-4v4h2a2 2 0 012 2v6a4 4 0 01-4 4H36a8 8 0 00-8 8v4.001h4V32a4 4 0 014-4h20a8 8 0 008-8v-8a4 4 0 00-4-4z" fill="#ccc"/><path d="M0 8v8.001A4 4 0 004 20h48a4 4 0 004-3.999V8H0z" fill="#e6e6e6"/><path d="M56 4a4 4 0 00-4-4H4a4 4 0 00-4 4v4h8v6a2 2 0 104 0V8h4a2 2 0 004 0h22v2a2 2 0 004 0V8h10V4z" fill-rule="evenodd" clip-rule="evenodd" fill="#88c057"/></svg>