<svg xmlns="http://www.w3.org/2000/svg" width="64" height="64"><path d="M44 4H4a4 4 0 00-4 4v44.001a4 4 0 004 4h40a4 4 0 004-4V8a4 4 0 00-4-4z" fill="#88c057"/><path d="M32 4h-4a4 4 0 00-8 0h-4a4 4 0 000 8h16a4 4 0 000-8z" fill-rule="evenodd" clip-rule="evenodd" fill="#666"/><path d="M60 16H28a4 4 0 00-4 4.001v40A4 4 0 0028 64h22l14-13.999v-30A4 4 0 0060 16z" fill="#ccc"/><path d="M58 20.001H30A2 2 0 0028 22v36a2 2 0 002 2.001h18l12-12V22a2 2 0 00-2-1.999z" fill="#fff"/><path d="M46 36h-8a2 2 0 000 4h8a2 2 0 000-4zm4-8H38a2 2 0 000 4h12a2 2 0 000-4z" fill="#ccc"/><path d="M52 48.001a4 4 0 00-4 4V64l16-15.999H52z" fill="#999"/></svg>