<svg xmlns="http://www.w3.org/2000/svg" width="64.037" height="64.037"><path d="M62.823 43.338L20.639 1.153a3.937 3.937 0 00-5.567 0L1.154 15.07a3.936 3.936 0 000 5.566l42.185 42.185a3.935 3.935 0 005.567 0l13.917-13.917a3.936 3.936 0 000-5.566z" fill="#e6b85c"/><path d="M62.884 15.085L48.952 1.154a3.94 3.94 0 00-5.572 0L1.154 43.38a3.94 3.94 0 000 5.572l13.931 13.931a3.94 3.94 0 005.572 0l42.227-42.226a3.941 3.941 0 000-5.572z" fill="#fc6"/><path d="M32.02 22.019a2 2 0 100 4 2 2 0 000-4zm0 8a2 2 0 100 4 2 2 0 000-4zm0 8a2 2 0 100 4 2 2 0 000-4zm-8-8a2 2 0 100 4 2 2 0 000-4zm16 0a2 2 0 100 4 2 2 0 000-4z" fill-rule="evenodd" clip-rule="evenodd" fill="#fff"/></svg>