<svg xmlns="http://www.w3.org/2000/svg" width="64" height="64"><path fill-rule="evenodd" clip-rule="evenodd" fill="#88c057" d="M52 32.001V20h2.445L38 8.281V12H26V8.281L9.555 20H12v12.001H4.18L10.805 52H22v7.995h20V52h11.195l6.625-19.999z"/><path fill="#fff" d="M32 8.918L6.716 26.934l9.626 29.061h31.316l9.627-29.061z"/><path d="M12 20H0v12.001h12V20zm-4 8H4v-4h4v4zm34 36h12V52H42v12zm4-8h4v4h-4v-4zm-36 8h12V52H10v12zm4-8h4v4h-4v-4zm38-36v12.001h12V20H52zm8 8h-4v-4h4v4zM26 12h12V0H26v12zm4-8h4v4h-4V4z" fill-rule="evenodd" clip-rule="evenodd" fill="#999"/></svg>