<svg xmlns="http://www.w3.org/2000/svg" width="64" height="64"><path d="M60 0H4a4 4 0 00-4 3.999V60a4 4 0 004 4h56a4 4 0 004-4V3.999A4 4 0 0060 0z" fill="#ccc"/><path d="M26 8H10a2 2 0 00-2 2v16a2 2 0 002 2h16a2 2 0 002-2V10a2 2 0 00-2-2zm0 28H10a2 2 0 00-2 2v16a2 2 0 002 2h16a2 2 0 002-2V38a2 2 0 00-2-2zm12-20.001h16A2 2 0 0054 12H38a2 2 0 000 3.999zM54 40H38a2 2 0 000 4h16a2 2 0 000-4zM38 24h12a2 2 0 000-4.001H38A2 2 0 0038 24zm12 24H38a2 2 0 100 3.999h12A2 2 0 0050 48z" fill-rule="evenodd" clip-rule="evenodd" fill="#fff"/><path d="M25.393 12.564a2.015 2.015 0 00-2.854 0l-6.521 6.521-2.509-2.517c-.807-.809-2.114-.809-2.921 0s-.807 2.117 0 2.926l3.841 3.852c.208.208.45.36.707.461a2.01 2.01 0 002.269-.4l7.988-7.987a2.02 2.02 0 000-2.856z" fill-rule="evenodd" clip-rule="evenodd" fill="#88c057"/></svg>