<svg xmlns="http://www.w3.org/2000/svg" width="64" height="64"><path fill="#fc6" d="M0 8.001h50V56H0z"/><path d="M38 13.999H10a2 2 0 00-2 2V26a2 2 0 004 0v-2.001A6 6 0 0117.999 18H20v24a4 4 0 01-4 3.999A2 2 0 0016 50h16a2 2 0 000-4.001A4 4 0 0128 42h-.001V18H30a6 6 0 016 5.999V26a2 2 0 004 0V15.999c0-1.103-.896-2-2-2z" fill-rule="evenodd" clip-rule="evenodd" fill="#fff"/><path d="M62 60h-4a4 4 0 01-4-4V8.001A4 4 0 0158 4h4a2 2 0 000-4h-4a7.972 7.972 0 00-6 2.721A7.973 7.973 0 0046 0h-4a2 2 0 000 4h4a4 4 0 014 4.001V56a4 4 0 01-4 4h-4a2 2 0 000 4h4a7.973 7.973 0 006-2.721A7.972 7.972 0 0058 64h4a2 2 0 000-4z" fill-rule="evenodd" clip-rule="evenodd" fill="#666"/></svg>