<svg xmlns="http://www.w3.org/2000/svg" width="64.016" height="63.986"><path d="M4.504 37.619a28.619 28.619 0 01-.495-3.636c-.076-1.097-.971-2.001-2.129-1.911-1.099.069-1.939.958-1.877 2.058a31.077 31.077 0 00.576 4.287 1.998 1.998 0 002.362 1.564 2 2 0 001.563-2.362zM16.52 55.403a28.369 28.369 0 01-2.922-2.219 2 2 0 00-2.825.199 2.001 2.001 0 00.199 2.826 31.778 31.778 0 003.341 2.536 2 2 0 002.775-.567 2.002 2.002 0 00-.568-2.775zm10.123 4.142a27.79 27.79 0 01-3.544-.932 2.004 2.004 0 10-1.271 3.801c1.324.441 2.688.802 4.057 1.064a2.003 2.003 0 00.758-3.933zM6.888 44.539a2.004 2.004 0 10-3.585 1.793 32.5 32.5 0 002.118 3.62 2.003 2.003 0 103.318-2.247 28.11 28.11 0 01-1.851-3.166zm51.271 2.389a2.003 2.003 0 00-2.776.564c-.675 1.018-1.422 2-2.223 2.919a2.002 2.002 0 001.51 3.319c.56 0 1.116-.233 1.513-.688a32.244 32.244 0 002.539-3.335 2.005 2.005 0 00-.563-2.779zM37.588 59.527c-1.18.238-2.396.528-3.613.528h-.017c-1.044 0-1.871.903-1.871 1.965.001 1.107.897 1.966 2.004 1.966.054 0 .111-.001.169-.008a32.251 32.251 0 004.121-.557 2.006 2.006 0 001.568-2.362c-.219-1.083-1.266-1.755-2.361-1.532zm24.295-23.736a2 2 0 00-2.35 1.585 27.745 27.745 0 01-.934 3.544 2.002 2.002 0 001.9 2.642c.837 0 1.618-.528 1.899-1.366a32.077 32.077 0 001.07-4.057 2.003 2.003 0 00-1.585-2.348zM47.676 55.267a28.056 28.056 0 01-3.168 1.852 2.003 2.003 0 101.791 3.584 31.935 31.935 0 003.623-2.117 2.005 2.005 0 00-2.246-3.319z" fill="#ccc"/><path d="M53.041 7.804C46.573 2.22 38.284-.522 29.761.082c-7.719.544-14.568 3.82-19.77 8.762V5.999a2 2 0 00-4 0v8a2 2 0 002 2h8A2 2 0 0015.992 12h-3.593c4.593-4.49 10.734-7.454 17.646-7.942 7.487-.529 14.709 1.873 20.37 6.757 5.659 4.885 9.068 11.669 9.599 19.104.079 1.099 1.039 1.915 2.141 1.848a1.996 1.996 0 001.857-2.13c-.606-8.498-4.503-16.251-10.971-21.833z" fill="#ed7161"/><path d="M37.992 30h-4v-4.001a2 2 0 00-4 0V30h-4a2 2 0 000 3.999h4v4a2 2 0 004 0v-4h4a2 2 0 000-3.999z" fill-rule="evenodd" clip-rule="evenodd" fill="#ed7161"/></svg>