<svg xmlns="http://www.w3.org/2000/svg" width="64" height="64"><path d="M60 0H4a4 4 0 00-4 3.999V60a4 4 0 004 4h56a4 4 0 004-4V3.999A4 4 0 0060 0z" fill="#ccc"/><path d="M16 16v44h42a2 2 0 002-2.001V16H16z" fill="#fff"/><path d="M50 10a2 2 0 00-2 2v4h4v-4a2 2 0 00-2-2zm8 0a2 2 0 00-2 2v4h4v-4a2 2 0 00-2-2zM18 6a2 2 0 00-2 2v8h4V8a2 2 0 00-2-2zm8 4a2 2 0 00-2 2v4h4v-4a2 2 0 00-2-2zm8 0a2 2 0 00-2 2v4h4v-4a2 2 0 00-2-2zM10 50a2 2 0 002 2h4v-4h-4a2 2 0 00-2 2zm0 7.999A2 2 0 0012 60h4v-4h-4a2 2 0 00-2 1.999zM6 18a2 2 0 002 2h8v-4H8a2 2 0 00-2 2zm4 8a2 2 0 002 1.999h4v-4h-4A2 2 0 0010 26zm0 8a2 2 0 002 2h4v-4h-4a2 2 0 00-2 2zM42 6a2 2 0 00-2 2v8h4V8a2 2 0 00-2-2zM6 42a2 2 0 002 2h8v-4H8a2 2 0 00-2 2z" fill-rule="evenodd" clip-rule="evenodd" fill="#999"/></svg>