<svg xmlns="http://www.w3.org/2000/svg" width="60" height="64.002"><path d="M58 0H30a2 2 0 00-2 2v10.001a2 2 0 004 0V10a6 6 0 016-5.999h2v52A4 4 0 0136 60a2 2 0 000 4.001h16A2 2 0 0052 60a4 4 0 01-4-3.999v-52h2A6 6 0 0156 10v2.001a2 2 0 004 0V2a2 2 0 00-2-2z" fill-rule="evenodd" clip-rule="evenodd" fill="#ccc"/><path d="M18 52.001a1.99 1.99 0 00-1.414.586l-4.604 4.604V6.812l4.604 4.604a2 2 0 002.828-2.828l-8-8A1.99 1.99 0 0010 .002a1.99 1.99 0 00-1.414.585l-8 8a2 2 0 002.828 2.828l4.604-4.603V57.19l-4.604-4.604a2 2 0 00-2.828 2.83l8 8a1.998 1.998 0 002.828 0l8-8A2 2 0 0018 52.001z" fill-rule="evenodd" clip-rule="evenodd" fill="#48a0dc"/></svg>