<svg xmlns="http://www.w3.org/2000/svg" width="64" height="64.002"><path d="M63.414 52.588l-8-8a2 2 0 10-2.828 2.828l4.604 4.604H6.811l4.604-4.604a2 2 0 00-2.829-2.828l-8 8A1.99 1.99 0 000 54.002c0 .552.224 1.053.586 1.414l8 8a2 2 0 002.828-2.828L6.81 55.984h50.379l-4.604 4.604a2 2 0 002.829 2.828l8-8a1.996 1.996 0 000-2.828z" fill-rule="evenodd" clip-rule="evenodd" fill="#48a0dc"/><path d="M50 0H14a2 2 0 00-2 2v10.001a2 2 0 004 0V10a6 6 0 016-5.999h2V28a4 4 0 01-4 4 2 2 0 000 4.001h24A2 2 0 0044 32a4 4 0 01-4-4V4.001h2A6 6 0 0148 10v2.001a2 2 0 004 0V2a2 2 0 00-2-2z" fill-rule="evenodd" clip-rule="evenodd" fill="#ccc"/></svg>