<svg xmlns="http://www.w3.org/2000/svg" width="64" height="36.001"><path d="M62 32.001s-2 .448-2-2v-10C60 18.602 60.742 8 50 8c-12.545 0-14 5.251-14 8.001 0 2.813 2.362 4 6 4 1.813 0 4-1.58 4-4 0-2.609-2-2.25-2-4 0-.813 2.063-2 4-2 1.913 0 4 1.455 4 4v4c-9.469 4.919-16 7.447-16 12 0 3.346 1.798 6 6 6 4.203 0 7.68-1.68 10-4 0 3.497 2.593 4 6 4 3.453 0 6-2 6-2l-2-2zm-10-2s-2.063 2-4 2c-2.563 0-4-1.438-4-4s2.844-4.975 8-8v10z" fill="#ccc"/><path d="M34 32.001c-1 0-1.642-1.067-2-2l-10-26C21.207 1.938 20.209 0 18 0s-3.207 1.938-4 4.001l-10 26c-.359.933-1 2-2 2a2 2 0 000 4h8a2 2 0 000-4c-2 0-2.359-1.067-2-2l.769-2h14.462l.769 2c.359.933 0 2-2 2a2 2 0 000 4h12a2 2 0 000-4zm-23.692-8L16 9.2l5.692 14.801H10.308z" fill-rule="evenodd" clip-rule="evenodd" fill="#ed7161"/></svg>