<svg xmlns="http://www.w3.org/2000/svg" width="64" height="64"><path d="M40 0c-8 0-12.857 2.856-18 8L6 23.999 18 36l16-16c2-2 6.725-3.275 10 0L58 6c-4.23-4.23-10-6-18-6z" fill-rule="evenodd" clip-rule="evenodd" fill="#ed7161"/><path d="M58 6L44 20c3.275 3.274 2 7.999 0 10L28 46l12 11.999L56 42c5.143-5.144 8-10 8-18.001C64 16 62.23 10.23 58 6z" fill-rule="evenodd" clip-rule="evenodd" fill="#48a0dc"/><path d="M28 46l-4 4c-1.922 1.916-2 2.768-2 4s.078 2.083 2 3.999l4 4C29.916 63.921 30.768 64 32 64s2.084-.079 4-2.001l4-4L28 46zM2 27.999C.078 29.916 0 30.767 0 32c0 1.232.078 2.083 2 4l4 4c1.916 1.921 2.768 2 4 2s2.084-.079 4-2l4-4L6 23.999l-4 4z" fill-rule="evenodd" clip-rule="evenodd" fill="#ccc"/></svg>