<svg xmlns="http://www.w3.org/2000/svg" width="64" height="60.001"><path d="M50 24.001H2A2 2 0 102 28h48a2 2 0 000-3.999zM2 12h48a2 2 0 000-3.999H2A2 2 0 102 12zm60 4H2a2 2 0 000 4h60a2 2 0 000-4zM2 4h60a2 2 0 100-4H2a2 2 0 000 4z" fill-rule="evenodd" clip-rule="evenodd" fill="#ccc"/><path d="M33.414 40.587c-.361-.362-.861-.586-1.414-.586s-1.053.224-1.414.586l-8 8a2 2 0 002.828 2.829l4.604-4.604v11.19c0 1.104.888 1.999 1.982 1.999a1.99 1.99 0 001.981-1.999V46.813l4.604 4.604a2 2 0 002.828-2.829l-7.999-8.001zM62 32.001H2a2 2 0 000 4.001h60a2 2 0 000-4.001z" fill-rule="evenodd" clip-rule="evenodd" fill="#48a0dc"/></svg>