<svg xmlns="http://www.w3.org/2000/svg" width="64" height="60"><path d="M2 36h48a2 2 0 000-4H2a2 2 0 000 4zm0 16h48a2 2 0 100-4H2a2 2 0 000 4zm0-7.999h60a2 2 0 000-4H2a2 2 0 100 4zM62 56H2a2 2 0 000 4h60a2 2 0 000-4z" fill-rule="evenodd" clip-rule="evenodd" fill="#ccc"/><path d="M30.586 19.414c.361.361.861.585 1.414.585.552 0 1.052-.224 1.414-.585l8-8a2 2 0 00-2.828-2.829l-4.604 4.604V2c0-1.105-.888-2-1.982-2s-1.981.895-1.981 2v11.188l-4.604-4.604a2 2 0 00-2.829 2.83l8 8zM62 24H2a2 2 0 000 3.999h60A2 2 0 0062 24z" fill-rule="evenodd" clip-rule="evenodd" fill="#48a0dc"/></svg>