<svg xmlns="http://www.w3.org/2000/svg" width="68" height="64.001"><path d="M62 40.001a2 2 0 002-2V32a2 2 0 00-4 0v.593a16.862 16.862 0 00-9-2.592c-9.389 0-17 7.61-17 16.999s7.611 17.001 17 17.001c5.218 0 9.882-2.356 13-6.058V54.18C61.851 57.687 58.176 60 54 60c-6.628 0-12-5.819-12-13 0-7.18 5.372-12.999 12-12.999 2.189 0 4.234.647 6 1.758v2.242c0 1.103.896 2 2 2z" fill-rule="evenodd" clip-rule="evenodd" fill="#ccc"/><path d="M48.278 16.274A8.973 8.973 0 0052 8.998c0-4.632-3.501-8.441-8-8.939V.001h-.98L43 0l-.02.001H28a2 2 0 000 4 2 2 0 012 2v24a2 2 0 01-2 2 2 2 0 000 4h18V36c5.522 0 10-4.477 10-9.998 0-4.737-3.299-8.695-7.722-9.728zM38 15.656V4.001h2.193A6 6 0 0146 9.998a6 6 0 01-5.942 6.003H38v-.345zm4 16.343v.002h-4V20h4.223a6 6 0 015.769 5.994A6.003 6.003 0 0142 31.999z" fill-rule="evenodd" clip-rule="evenodd" fill="#ccc"/><path d="M34 36.001c-1 0-1.641-1.067-2-2L22 8c-.793-2.062-1.791-3.999-4-3.999S14.793 5.938 14 8L4 34.001c-.359.933-1 2-2 2a2 2 0 000 4h8a2 2 0 000-4c-2 0-2.359-1.067-2-2l.77-2h14.46l.77 2c.359.933 0 2-2 2a2 2 0 000 4h12a2 2 0 000-4zm-23.692-8L16 13.201l5.692 14.8H10.308z" fill-rule="evenodd" clip-rule="evenodd" fill="#ccc"/><path d="M28.846 45.142a3.89 3.89 0 00-5.504 0l-9.371 9.371-3.436-3.436a3.86 3.86 0 00-5.458 5.458l5.414 5.414c.175.319.379.627.649.897a3.876 3.876 0 002.841 1.131 3.836 3.836 0 002.881-1.115c.261-.261.46-.557.631-.864l11.353-11.354a3.891 3.891 0 000-5.502z" fill-rule="evenodd" clip-rule="evenodd" fill="#88c057"/></svg>