<svg xmlns="http://www.w3.org/2000/svg" width="56" height="63.999"><path d="M34 25.999C27.709 22.967 16 18.167 16 12c0-5.797 4.191-8 10-8 11.044 0 16 7.563 16 13.999a2 2 0 104 0v-16a2 2 0 00-4 0C42 7.642 35.55 0 26 0 13.967 0 6 7.67 6 17.999 6 28.781 18.009 35.178 24 38c11.18 5.274 16 8.509 16 13.999 0 4.665-4.964 8-12 8-9.173 0-18-5.365-18-18a2 2 0 00-4 0V62a2 2 0 004 0c0-5.023 9.213 1.999 18 1.999 13.37 0 22-8.69 22-17.999 0-6.235-1.266-12.934-16-20.001z" fill-rule="evenodd" clip-rule="evenodd" fill="#ccc"/><path d="M54 29.999H2a2 2 0 000 3.999h52a2 2 0 100-3.999z" fill="#ed7161"/></svg>