<svg xmlns="http://www.w3.org/2000/svg" width="64" height="64"><path d="M59.999 20h-12v22a6.002 6.002 0 01-6 6.001h-22V60a4 4 0 004 4h36A4 4 0 0064 60V24a4 4 0 00-4.001-4z" fill-rule="evenodd" clip-rule="evenodd" fill="#ccc"/><path d="M58.443 24H47.999v18a6.002 6.002 0 01-6 6.001H24v10.443c0 .86.696 1.556 1.555 1.556h32.889c.859 0 1.556-.696 1.556-1.556V25.556c0-.86-.697-1.556-1.557-1.556z" fill-rule="evenodd" clip-rule="evenodd" fill="#fff"/><path d="M40 0H4a4 4 0 00-4 4v36a4 4 0 004 4.001h36c2.209 0 4-1.792 4-4.001V4a4 4 0 00-4-4z" fill="#ccc"/><path d="M38.443 4H5.555C4.695 4 4 4.696 4 5.556v32.889C4 39.304 4.695 40 5.555 40h32.889c.859 0 1.556-.696 1.556-1.556V5.556C40 4.696 39.303 4 38.443 4z" fill="#fff"/><path fill="#48a0dc" d="M8 8h28v28.001H8z"/></svg>