<svg xmlns="http://www.w3.org/2000/svg" width="60" height="64"><path d="M56 52a2 2 0 00-2 2v2H38v-4.944c12.684-3.033 22-13.099 22-25.057C60 11.64 46.568 0 30 0 13.431 0 0 11.64 0 25.999c0 11.959 9.316 22.023 22 25.057V56H6v-2a2 2 0 00-4 0v5.999A4 4 0 006 64h16a4 4 0 004-4.001V49.422C17.984 47.097 12 37.944 12 27c0-12.703 8.059-23.001 18-23.001 9.94 0 18 10.298 18 23.001 0 9.375-4.398 17.42-10.694 21H34v11.999A4 4 0 0038 64h16a4 4 0 004-4.001V54a2 2 0 00-2-2z" fill-rule="evenodd" clip-rule="evenodd" fill="#48a0dc"/></svg>