<svg xmlns="http://www.w3.org/2000/svg" width="64" height="64"><path d="M10 6.002h8V2.001h-8v4.001zm12 0h8V2.001h-8v4.001zm12 0h8V2.001h-8v4.001zm18-4.001h-8v4.001h8V2.001zm-42 60h8v-3.999h-8v3.999zm12 0h8v-3.999h-8v3.999zm12 0h8v-3.999h-8v3.999zm12 0h8v-3.999h-8v3.999zm-44-8h4v-7.999H2v7.999zm0-11.999h4v-8.001H2v8.001zm0-12h4v-8.001H2v8.001zm0-12.001h4v-7.999H2v7.999zm56 36.001h4v-8h-4v8zm0-12.001h4v-7.999h-4v7.999zm0-11.999h4v-8.001h-4v8.001zm0-20v8h4v-8h-4z" fill-rule="evenodd" clip-rule="evenodd" fill="#ccc"/><path d="M0 8h8V0H0v8zm56-8v8h8V0h-8zm0 64h8v-8h-8v8zM0 64h8v-8H0v8z" fill-rule="evenodd" clip-rule="evenodd" fill="#666"/><path d="M46 14H18a2 2 0 00-2 2v10.001a2 2 0 004 0V24a6 6 0 016-5.999h2V42a4 4 0 01-4 4.001 2 2 0 000 4h16a2 2 0 000-4A4 4 0 0136 42V18.001h2A6 6 0 0144 24v2.001a2 2 0 004 0V16a2 2 0 00-2-2z" fill-rule="evenodd" clip-rule="evenodd" fill="#9b7cab"/></svg>