<svg xmlns="http://www.w3.org/2000/svg" width="64" height="64.001"><path d="M60 0H4a4 4 0 00-4 4.001V60a4 4 0 004 4.001h56A4 4 0 0064 60V4.001A4 4 0 0060 0z" fill="#ccc"/><path d="M58 4.001H6a2 2 0 00-2 2V58a2 2 0 002 2h52a2 2 0 002-2V6.001a2 2 0 00-2-2z" fill="#fff"/><path d="M48 8.001h-8v8h8v-8zm-40 0v8h8v-8H8zM40 24v-7.999h-8V24h8zm16 0v-7.999h-8V24h8zm-24 0h-8v8.001h8V24zm8 0v8.001h8V24h-8zm-16 8.001h-8v8h8v-8zm8 8h8v-8h-8v8zm24 0v-8h-8v8h8zm-32 0v8h8v-8h-8zm16 8h8v-8h-8v8zm-32-8v8h8v-8H8zm8 16h8v-8h-8v8zm16 0h8v-8h-8v8zM8 24v8.001h8V24H8zm48 32.001v-8h-8v8h8zm-32-40h-8V24h8v-7.999zm8-8h-8v8h8v-8z" fill-rule="evenodd" clip-rule="evenodd" fill="#ccc"/></svg>