<svg xmlns="http://www.w3.org/2000/svg" width="64" height="96.002"><path d="M63.967 52.033h-6.65C52.828 42.557 43.182 36.001 32 36.001S11.172 42.557 6.684 52.033H.032v11.936h3.969L4 64.002h4l.001-.033h3.966V52.033H11.2c4.146-7.189 11.905-12.032 20.8-12.032s16.654 4.843 20.8 12.032h-.768v11.936h3.967l.001.033h4l-.001-.033h3.968V52.033zM8.121 60.122H3.879V55.88h4.242v4.242zm51.875-.124h-3.993v-3.994h3.993v3.994z" fill-rule="evenodd" clip-rule="evenodd" fill="#88c057"/><path d="M46 0H18a2 2 0 00-2 2v10.001a2 2 0 004 0V9.98a6 6 0 016-5.979h2V28a4 4 0 01-4 4 2 2 0 000 4.001h16A2 2 0 0040 32c-2.21 0-4-1.79-4-4h-.001V4.001H38A6 6 0 0144 10v2.001a2 2 0 004 0V2a2 2 0 00-2-2z" fill-rule="evenodd" clip-rule="evenodd" fill="#666"/></svg>