<svg xmlns="http://www.w3.org/2000/svg" width="60" height="63.999"><path d="M58 .001H46a2 2 0 100 3.998v.002a4 4 0 014 4v22c0 7.731-6.269 13.998-14 13.998-7.732 0-14-6.267-14-13.998v-18A8 8 0 0130 4v-.001A2 2 0 1030 0H2a2 2 0 000 3.999V4a8 8 0 018 8.001v18c0 12.15 9.85 21.998 22 21.998 12.149 0 22-9.848 22-21.998v-22a4 4 0 014-4v-.002a2 2 0 100-3.998zm-38 4h-8v-.002h8v.002zm11.923 4h.154L32 7.999l-.077.002z" fill-rule="evenodd" clip-rule="evenodd" fill="#ccc"/><path d="M58 60H2a2 2 0 000 3.999h56A2 2 0 1058 60z" fill="#ed7161"/></svg>