<svg xmlns="http://www.w3.org/2000/svg" width="64.009" height="64.008"><path d="M30.054 38.057v-4.002h-4.002l-1.835-3.671c-4.183-1.007-8.772.107-12.037 3.372l-8.438 8.438c-4.99 4.99-4.99 13.081 0 18.071s13.081 4.99 18.072 0l8.438-8.438c3.25-3.25 4.369-7.813 3.386-11.979l-3.584-1.791zm-5.636 9.347l-7.027 7.028c-2.143 2.143-5.615 2.143-7.758 0s-2.143-5.616 0-7.758l7.027-7.028a5.484 5.484 0 017.758 0 5.484 5.484 0 010 7.758zM60.267 3.742c-4.99-4.99-13.082-4.99-18.072 0l-8.438 8.438c-3.582 3.581-4.578 8.756-3.019 13.239l1.316 2.633h4.002v4.003l2.198 1.099c4.558 1.729 9.903.769 13.574-2.902l8.438-8.438c4.991-4.992 4.991-13.082.001-18.072zm-5.833 13.649l-7.028 7.027c-2.143 2.143-5.615 2.143-7.758 0s-2.143-5.615 0-7.758l7.027-7.028a5.486 5.486 0 117.759 7.759z" fill-rule="evenodd" clip-rule="evenodd" fill="#ccc"/><path d="M30.054 34.055h-4.002l-.874-1.748-5.866 5.866a4.608 4.608 0 106.517 6.517l5.83-5.83-1.604-.803v-4.002zM44.69 19.311a4.61 4.61 0 00-6.517 0l-6.992 6.993.874 1.748h4.002v4.003l1.604.802 7.029-7.029a4.608 4.608 0 000-6.517z" fill-rule="evenodd" clip-rule="evenodd" fill="#999"/></svg>