<svg xmlns="http://www.w3.org/2000/svg" width="64" height="44"><path d="M32 0C14.327 0 0 17.768 0 21.999 0 26.028 14.327 44 32 44c17.673 0 32-18.073 32-22.001C64 17.984 49.673 0 32 0z" fill="#999"/><path d="M32 6C18.824 6 8.021 20.175 8.021 21.999c0 1.751 10.802 16 23.979 16s23.979-14.249 23.979-16C55.979 20.182 45.176 6 32 6z" fill="#fff"/><path d="M47.517 12.159C43.324 8.852 37.905 6 32 6s-11.323 2.85-15.516 6.156A15.974 15.974 0 0016 16c0 8.837 7.164 15.999 16 15.999S48 24.837 48 16a16 16 0 00-.483-3.841z" fill="#48a0dc"/><path d="M28.873 22.552c-.095-.355-.302-.637-.546-.879l.042-.042C26.916 20.19 26 18.212 26 16v-.001a2 2 0 00-4 0V16c0 3.144 1.266 5.942 3.249 8.07.446.752 1.324 1.169 2.21.931a2 2 0 001.414-2.449z" fill="#fff"/></svg>