<svg xmlns="http://www.w3.org/2000/svg" width="64" height="64.001"><path d="M32 0C14.327 0 0 14.327 0 32c0 17.674 14.327 32.001 32 32.001S64 49.674 64 32C64 14.327 49.673 0 32 0zm0 60C16.536 60 4 47.465 4 32 4 16.537 16.536 4.001 32 4.001S60 16.537 60 32c0 15.465-12.536 28-28 28z" fill-rule="evenodd" clip-rule="evenodd" fill="#ccc"/><path d="M45.999 33.989l.001-.011-.002-.023c-.02-9.829-6.279-15.976-13.998-15.976-7.732 0-14 6.268-14 14 0 7.731 6.268 14 14 14a2 2 0 000-4c-5.523 0-10-4.478-10-10 0-5.523 4.477-10 10-10 5.522 0 10 4.477 10 10v2a2 2 0 01-4 0v-6a2 2 0 00-3.418-1.41 5.97 5.97 0 00-2.582-.59 6 6 0 102.945 11.224A5.988 5.988 0 0040 39.979a5.995 5.995 0 005.979-5.594c.013-.112.021-.235.021-.383l-.001-.013zM32 33.979a2 2 0 11.001-4.001A2 2 0 0132 33.979z" fill-rule="evenodd" clip-rule="evenodd" fill="#88c057"/></svg>