<svg xmlns="http://www.w3.org/2000/svg" width="64" height="63.999"><path d="M32 0C14.327 0 0 14.326 0 31.999s14.327 32 32 32 32-14.327 32-32S49.673 0 32 0zm0 60C16.536 60 4 47.463 4 31.999s12.536-28 28-28 28 12.536 28 28S47.464 60 32 60z" fill-rule="evenodd" clip-rule="evenodd" fill="#ccc"/><path d="M43.656 20.344A7.956 7.956 0 0038 17.999a7.942 7.942 0 00-5.656 2.345l-12 11.999A7.951 7.951 0 0018 38c0 2.137.833 4.146 2.343 5.656A7.943 7.943 0 0026 46a2 2 0 000-4.001c-1.068 0-2.072-.415-2.828-1.171S22 39.068 22 38c0-1.069.416-2.072 1.172-2.828l12-12C35.928 22.415 36.932 22 38 22s2.072.415 2.828 1.172A3.968 3.968 0 0142 26a3.974 3.974 0 01-1.172 2.828l-8.859 8.859c-.19.189-.582.305-.859.303-.334 0-.639-.106-.815-.283a1 1 0 01-.001-1.414l6-6.001a1.998 1.998 0 10-2.828-2.827l-6 6a5.007 5.007 0 00-.001 7.07c.926.926 2.253 1.455 3.646 1.455h.032c1.394-.008 2.726-.545 3.654-1.476l8.859-8.858A7.942 7.942 0 0046 25.998a7.954 7.954 0 00-2.344-5.654z" fill="#ed7465"/></svg>