<svg xmlns="http://www.w3.org/2000/svg" width="64" height="64.001"><path d="M32 0C14.327 0 0 14.327 0 32.001c0 17.673 14.327 32 32 32s32-14.327 32-32C64 14.327 49.673 0 32 0zm0 60C16.536 60 4 47.464 4 32.001c0-15.465 12.536-28 28-28s28 12.535 28 28C60 47.464 47.464 60 32 60z" fill-rule="evenodd" clip-rule="evenodd" fill="#ccc"/><path d="M40 34.183V30c0-3.735-2.564-6.864-6.025-7.744.01-.085.025-.169.025-.256a2 2 0 00-4 0c0 .087.015.171.025.255C26.563 23.136 24 26.265 24 30v4.183a2.992 2.992 0 00-2 2.816 3 3 0 003 3h14a2.992 2.992 0 101-5.816zM36 36h-8v-6a4 4 0 018 0v6zm-4 8a2 2 0 002-2h-4a2 2 0 002 2z" fill-rule="evenodd" clip-rule="evenodd" fill="#ed7161"/></svg>