<svg xmlns="http://www.w3.org/2000/svg" width="64" height="63.999"><path d="M32 0C14.327 0 0 14.326 0 31.998c0 17.674 14.327 32.001 32 32.001s32-14.327 32-32.001C64 14.326 49.673 0 32 0zm0 60C16.536 60 4 47.463 4 31.998 4 16.535 16.536 3.999 32 3.999s28 12.536 28 27.999C60 47.463 47.464 60 32 60z" fill-rule="evenodd" clip-rule="evenodd" fill="#ccc"/><path d="M32 19.999c-6.627 0-12 5.372-12 11.999 0 6.629 5.373 12.001 12 12.001s12-5.372 12-12.001c0-6.627-5.373-11.999-12-11.999zm0 3.999c1.39 0 2.696.355 3.835.979L24.979 35.834A8.001 8.001 0 0132 23.998zm0 16a7.95 7.95 0 01-3.834-.978l10.856-10.855A8 8 0 0132 39.998z" fill-rule="evenodd" clip-rule="evenodd" fill="#ed7161"/></svg>