<svg xmlns="http://www.w3.org/2000/svg" width="64" height="64"><path d="M32 0C14.326 0 0 14.327 0 32.001 0 49.674 14.326 64 32 64c17.673 0 32-14.326 32-31.999C64 14.327 49.673 0 32 0zm0 60C16.536 60 4 47.465 4 32.001s12.536-28 28-28 28 12.536 28 28S47.464 60 32 60z" fill-rule="evenodd" clip-rule="evenodd" fill="#ccc"/><path d="M32 28.001a4 4 0 100 8 4 4 0 000-8zm0-1.999a2 2 0 002-2v-4.001a2 2 0 00-4 0v4.001c0 1.103.896 2 2 2zm0 11.999A2 2 0 0030 40v4.002a2 2 0 004 0V40a2 2 0 00-2-1.999zm12-8h-4a2 2 0 000 4.001h4a2 2 0 000-4.001zm-18 2a2 2 0 00-2-2h-4a2 2 0 000 4.001h4c1.104 0 2-.897 2-2.001zm13.07-4.242l2.829-2.829a2 2 0 10-2.829-2.828l-2.828 2.828a2 2 0 002.828 2.829zm-14.141 8.485l-2.828 2.828a2 2 0 102.828 2.828l2.828-2.828a2 2 0 10-2.828-2.828zm14.141 0a2 2 0 10-2.828 2.828L39.07 41.9a2 2 0 002.829-2.828l-2.829-2.828zm-14.141-8.485a2 2 0 002.828-2.829l-2.828-2.828a2 2 0 10-2.828 2.828l2.828 2.829z" fill-rule="evenodd" clip-rule="evenodd" fill="#fc6"/></svg>