<svg xmlns="http://www.w3.org/2000/svg" width="68" height="68.001"><path d="M37.817 59.391A28.082 28.082 0 0132 60C16.536 60 4 47.463 4 31.999s12.536-28 28-28 28 12.536 28 28c0 1.996-.213 3.942-.609 5.82a16.007 16.007 0 013.512 2.495A32.064 32.064 0 0064 31.999C64 14.326 49.673 0 32 0S0 14.326 0 31.999s14.327 32 32 32c2.876 0 5.66-.385 8.312-1.097a16.01 16.01 0 01-2.495-3.511z" fill-rule="evenodd" clip-rule="evenodd" fill="#ccc"/><path d="M45.965 23.828c-.005-.04-.016-.076-.022-.114-.145-.963-.939-1.715-1.942-1.715H24V20a2 2 0 00-2-2h-2a2 2 0 000 3.999v1.999c0 .304.078.584.198.841.006.012.016.021.022.033.122.248.295.458.505.636l2.345 8.75c-.628.337-1.07.978-1.07 1.741a2 2 0 002 2h18a2 2 0 002-2c0-.71-.393-1.306-.95-1.66l2.862-9.744c.025-.083.005-.165.018-.247.021-.118.07-.226.07-.35 0-.06-.029-.111-.035-.17zM38.5 33.998H27.143L24.999 26h15.852L38.5 33.998zM36 42.999c0 1.059.552 1.985 1.38 2.519a16.004 16.004 0 013.404-4.919A2.977 2.977 0 0039 39.998a3 3 0 00-3 3.001zm-9-3.001a3 3 0 10.001 6.001A3 3 0 0027 39.998z" fill-rule="evenodd" clip-rule="evenodd" fill="#48a0dc"/><circle cx="52" cy="52" r="12" fill="#88c057"/><path d="M56 50.001h-2V48a2 2 0 10-4 0v2.001h-2a2 2 0 000 3.998h2v2a2 2 0 104 0v-2h2a2 2 0 100-3.998z" fill="#fff"/></svg>