<svg xmlns="http://www.w3.org/2000/svg" width="64" height="63.999"><path d="M32 0C14.326 0 0 14.326 0 31.999s14.326 32 32 32c17.673 0 32-14.327 32-32S49.673 0 32 0zm0 60C16.536 60 4 47.463 4 31.999s12.536-28 28-28 28 12.536 28 28S47.464 60 32 60z" fill-rule="evenodd" clip-rule="evenodd" fill="#ccc"/><path d="M27 39.998a3 3 0 10.001 6.001A3 3 0 0027 39.998zm12 0a3 3 0 10.001 6.001A3 3 0 0039 39.998zm6.965-16.17c-.005-.04-.016-.076-.022-.114-.145-.963-.939-1.715-1.942-1.715H24V20a2 2 0 00-2-2h-2a2 2 0 000 3.999v1.999c0 .304.078.584.198.841.006.012.016.021.022.033.122.248.295.458.505.636l2.345 8.75c-.628.337-1.07.978-1.07 1.741a2 2 0 002 2h18a2 2 0 002-2c0-.71-.393-1.306-.951-1.66l2.863-9.744c.025-.083.005-.165.018-.247.021-.118.07-.226.07-.35 0-.06-.029-.111-.035-.17zM38.5 33.998H27.143L24.998 26H40.85l-2.35 7.998z" fill="#48a0dc"/></svg>