<svg xmlns="http://www.w3.org/2000/svg" width="64" height="63.999"><path d="M32 0C14.327 0 0 14.326 0 31.998c0 17.674 14.327 32.001 32 32.001s32-14.327 32-32.001C64 14.326 49.673 0 32 0zm0 60C16.536 60 4 47.463 4 31.998 4 16.535 16.536 3.999 32 3.999s28 12.536 28 27.999C60 47.463 47.464 60 32 60z" fill-rule="evenodd" clip-rule="evenodd" fill="#ccc"/><path d="M31.998 17.995c-6.624 0-11.994 4.741-11.994 10.589 0 .113.06 2.836 1.091 4.776 2.954 6.017 10.894 12.679 10.903 12.644.013.022 7.918-6.603 10.887-12.607.88-1.423 1.108-4.58 1.108-4.813 0-5.848-5.37-10.589-11.995-10.589zM32 33.998c-2.199 0-3.982-1.791-3.982-4 0-2.21 1.783-3.999 3.982-3.999s3.981 1.789 3.981 3.999c0 2.209-1.782 4-3.981 4z" fill-rule="evenodd" clip-rule="evenodd" fill="#48a0dc"/></svg>