<svg xmlns="http://www.w3.org/2000/svg" width="68" height="68.001"><path d="M37.817 59.391A28.082 28.082 0 0132 60C16.536 60 4 47.463 4 31.999s12.536-28 28-28 28 12.536 28 28c0 1.996-.212 3.942-.61 5.82a16.017 16.017 0 013.512 2.495A32.022 32.022 0 0064 31.999C64 14.326 49.673 0 32 0S0 14.326 0 31.999s14.327 32 32 32c2.876 0 5.661-.385 8.312-1.097a16.01 16.01 0 01-2.495-3.511z" fill-rule="evenodd" clip-rule="evenodd" fill="#ccc"/><circle cx="52" cy="52" r="12" fill="#ed7161"/><path d="M56 50h-8a2 2 0 100 3.999h8A2 2 0 0056 50z" fill="#fff"/><path d="M45.875 37.222a5.999 5.999 0 00-3.892-6.881c.005-.114.017-.226.017-.342a8 8 0 00-8-8 7.993 7.993 0 00-7.124 4.372A4.98 4.98 0 0025 26c-2.762 0-5 2.237-5 4.999 0 .168.033.328.05.492A5.98 5.98 0 0018 35.999 6.001 6.001 0 0024 42h15.521a16.028 16.028 0 016.354-4.778z" fill-rule="evenodd" clip-rule="evenodd" fill="#48a0dc"/></svg>