<svg xmlns="http://www.w3.org/2000/svg" width="64" height="63.999"><path d="M32 0C14.327 0 0 14.326 0 31.999s14.327 32 32 32c17.673 0 32-14.327 32-32S49.673 0 32 0zm0 60C16.536 60 4 47.463 4 31.999s12.536-28 28-28 28 12.536 28 28S47.464 60 32 60z" fill-rule="evenodd" clip-rule="evenodd" fill="#ccc"/><path d="M46 35.999a5.995 5.995 0 00-4.017-5.657c.004-.115.017-.227.017-.343a8 8 0 00-8-8 7.994 7.994 0 00-7.124 4.372A4.98 4.98 0 0025 26c-2.761 0-5 2.237-5 4.999 0 .168.033.328.05.492A5.975 5.975 0 0018 35.999 6 6 0 0024 42h16c3.313 0 6-2.687 6-6.001z" fill-rule="evenodd" clip-rule="evenodd" fill="#48a0dc"/></svg>