<svg xmlns="http://www.w3.org/2000/svg" width="64" height="63.999"><path d="M32 0C14.327 0 0 14.326 0 31.999c0 17.674 14.327 32 32 32s32-14.326 32-32C64 14.326 49.673 0 32 0zm0 60C16.536 60 4 47.463 4 31.999s12.536-28 28-28 28 12.536 28 28S47.464 60 32 60z" fill-rule="evenodd" clip-rule="evenodd" fill="#ccc"/><path d="M36 29.999h6A2 2 0 0042 26h-1.052l4.413-4.467a2.1 2.1 0 000-2.955 2.062 2.062 0 00-2.932 0L38 23.062V22a2 2 0 10-4 0v5.999a2 2 0 002 2zm-8 4h-6a2 2 0 000 3.999h1.051l-4.412 4.468a2.1 2.1 0 00-.001 2.955c.81.816 2.122.816 2.933 0L26 40.936v1.063a2 2 0 104 0v-6a2 2 0 00-2-2zm17.422 8.43l-4.475-4.43h1.057A1.998 1.998 0 0044 36c0-1.105-.894-2-1.996-2h-5.982a1.997 1.997 0 00-1.995 2v6c0 1.104.894 1.999 1.995 1.999A1.997 1.997 0 0038.017 42v-1.052l4.457 4.412c.814.81 2.135.81 2.948 0a2.062 2.062 0 000-2.931zm-17.381-22.43a1.997 1.997 0 00-1.996 2v1.051l-4.456-4.411a2.091 2.091 0 00-2.949-.002 2.065 2.065 0 000 2.932L23.115 26h-1.057a1.996 1.996 0 00-1.996 1.999c0 1.104.894 2 1.996 2h5.982a1.998 1.998 0 001.994-2v-6c.001-1.104-.892-2-1.993-2z" fill-rule="evenodd" clip-rule="evenodd" fill="#ed7161"/></svg>