<svg xmlns="http://www.w3.org/2000/svg" width="64" height="63.998"><path d="M32 0C14.327 0 0 14.326 0 31.998c0 17.673 14.327 32 32 32 17.673 0 32-14.327 32-32C64 14.326 49.673 0 32 0zm0 59.999c-15.464 0-28-12.536-28-28.001C4 16.534 16.536 3.999 32 3.999s28 12.535 28 27.999c0 15.465-12.536 28.001-28 28.001z" fill-rule="evenodd" clip-rule="evenodd" fill="#ccc"/><path d="M37.801 29.498A7.964 7.964 0 0040 24a8 8 0 00-16 0c0 2.132.839 4.063 2.199 5.498C22.504 31.543 20 35.477 20 39.999v2A2 2 0 0022 44h20a2 2 0 002-2.001v-2c0-4.522-2.504-8.456-6.199-10.501zM32 19.999a4 4 0 110 8 4 4 0 010-8zm-8 20a8 8 0 0116 0H24z" fill-rule="evenodd" clip-rule="evenodd" fill="#48a0dc"/></svg>