<svg xmlns="http://www.w3.org/2000/svg" width="66" height="67.999"><path d="M38 59.345a28.04 28.04 0 01-6 .654c-15.464 0-28-12.536-28-28.001C4 16.534 16.536 3.999 32 3.999s28 12.535 28 27.999a28.04 28.04 0 01-.756 6.451 12.043 12.043 0 013.147 3.566A31.935 31.935 0 0064 31.998C64 14.326 49.673 0 32 0S0 14.326 0 31.998c0 17.673 14.327 32 32 32 2.053 0 4.055-.208 6-.577v-4.076z" fill-rule="evenodd" clip-rule="evenodd" fill="#ccc"/><path d="M43.966 39.105a11.996 11.996 0 00-6.165-9.607A7.969 7.969 0 0040 24a8 8 0 00-16 0c0 2.132.839 4.063 2.199 5.498C22.504 31.543 20 35.478 20 39.999v2A2 2 0 0022 44h18.697a11.999 11.999 0 013.269-4.895zM32 19.999a4 4 0 110 8 4 4 0 010-8zm-8 20a8 8 0 1116 0H24z" fill-rule="evenodd" clip-rule="evenodd" fill="#48a0dc"/><path d="M60 51.997v-3.999a8 8 0 00-8-8 8 8 0 00-8 8v3.999a2 2 0 00-2 2.001v7.999c0 1.104.896 2.001 2 2.001h16a2 2 0 002-2.001v-7.999a2 2 0 00-2-2.001zm-8 8.001a2 2 0 11.001-4.001A2 2 0 0152 59.998zm4-8.001h-8v-3.999a4 4 0 018 0v3.999z" fill-rule="evenodd" clip-rule="evenodd" fill="#ed7261"/></svg>