<svg xmlns="http://www.w3.org/2000/svg" width="64.017" height="67.996"><path d="M32 59.999c-15.464 0-28-12.536-28-28.001C4 16.534 16.536 3.999 32 3.999s28 12.535 28 27.999c0 4.286-.966 8.346-2.688 11.978 1.366-.133 2.766.175 3.95.971A31.864 31.864 0 0064 31.998C64 14.326 49.673 0 32 0S0 14.326 0 31.998c0 17.673 14.327 32 32 32a32.09 32.09 0 007.979-1.003 6.042 6.042 0 01.958-4.462A27.936 27.936 0 0132 59.999z" fill-rule="evenodd" clip-rule="evenodd" fill="#ccc"/><path d="M37.801 29.498A7.969 7.969 0 0040 24a8 8 0 00-16 0c0 2.132.84 4.063 2.199 5.497C22.504 31.543 20 35.477 20 39.999v2A2 2 0 0022 44h20a2 2 0 002-2.001v-2c0-4.522-2.504-8.456-6.199-10.501zM32 19.999a4 4 0 110 8 4 4 0 010-8zm-8 20a8 8 0 0116 0H24z" fill-rule="evenodd" clip-rule="evenodd" fill="#48a0dc"/><path d="M59.43 60.726l-4.703-4.702 4.703-4.703a1.905 1.905 0 000-2.691 1.905 1.905 0 00-2.691 0l-4.703 4.703-4.762-4.762a1.91 1.91 0 10-2.701 2.701l4.763 4.762-4.705 4.705a1.902 1.902 0 102.69 2.69l4.705-4.705 4.703 4.702a1.908 1.908 0 002.701 0 1.908 1.908 0 000-2.7z" fill-rule="evenodd" clip-rule="evenodd" fill="#ed7161"/></svg>