<svg xmlns="http://www.w3.org/2000/svg" width="66" height="67.999"><path d="M32 3.999c15.464 0 28 12.535 28 27.999 0 3.347-.595 6.551-1.673 9.524a13.981 13.981 0 013.372 2.396A31.87 31.87 0 0064 31.998C64 14.326 49.673 0 32 0S0 14.326 0 31.998c0 17.673 14.327 32 32 32 3.14 0 6.167-.469 9.033-1.313a13.963 13.963 0 01-2.057-3.576c-2.231.574-4.566.89-6.977.89-15.464 0-28-12.536-28-28.001C4 16.534 16.536 3.999 32 3.999z" fill-rule="evenodd" clip-rule="evenodd" fill="#ccc"/><path d="M37.801 29.498A7.969 7.969 0 0040 24a8 8 0 00-16 0c0 2.132.84 4.063 2.199 5.498C22.504 31.543 20 35.478 20 39.999v2A2 2 0 0022 44h16.349A5.997 5.997 0 0144 39.999c0-4.522-2.504-8.456-6.199-10.501zM32 19.999a4 4 0 110 8 4 4 0 010-8zm-8 20a8 8 0 1116 0H24z" fill-rule="evenodd" clip-rule="evenodd" fill="#48a0dc"/><path d="M50 53.999a2.001 2.001 0 000-4.001h-2.443c1.097-1.221 2.673-2 4.443-2 1.775 0 3.365.775 4.464 2.001h4.698C59.619 46.468 56.1 43.998 52 43.998a9.927 9.927 0 00-6 2.012v-.012a2 2 0 00-4 0v5.999a2 2 0 002 2.002h6zm10.778.156a1.977 1.977 0 00-.778-.157h-6a2 2 0 000 4.001h2.442c-1.097 1.22-2.673 1.999-4.442 1.999a5.975 5.975 0 01-4.463-1.999l-4.699-.001c1.543 3.53 5.063 6 9.162 6a9.944 9.944 0 006-2.011v.011a2 2 0 004 0v-6.001c0-.827-.504-1.538-1.222-1.842z" fill-rule="evenodd" clip-rule="evenodd" fill="#88c057"/></svg>