<svg xmlns="http://www.w3.org/2000/svg" width="66" height="67.999"><path d="M38 59.34a27.906 27.906 0 01-6 .659c-15.464 0-28-12.536-28-28.001C4 16.534 16.536 3.999 32 3.999s28 12.535 28 27.999c0 1.607-.143 3.181-.403 4.715a12.03 12.03 0 013.181 4.037A31.994 31.994 0 0064 31.998C64 14.326 49.673 0 32 0 14.326 0 0 14.326 0 31.998c0 17.673 14.326 32 32 32 2.054 0 4.054-.216 6-.586V59.34z" fill-rule="evenodd" clip-rule="evenodd" fill="#ccc"/><path d="M43.7 37.347a12.018 12.018 0 00-5.899-7.849A7.964 7.964 0 0040 24a8 8 0 00-16 0 7.96 7.96 0 002.199 5.497C22.504 31.543 20 35.477 20 39.999v2A2 2 0 0022 44h18.18a11.96 11.96 0 013.52-6.653zM32 19.999a4 4 0 110 8 4 4 0 010-8zm0 12a8 8 0 018 8H24a8 8 0 018-8z" fill-rule="evenodd" clip-rule="evenodd" fill="#48a0dc"/><path d="M60 51.997v-5.999a8 8 0 00-8-8 8 8 0 00-8 8v2h4v-2a4 4 0 118 0v5.999H44a2 2 0 00-2 2.001v7.999a2 2 0 002 2.001h16a2 2 0 002-2.001v-7.999a2 2 0 00-2-2.001zm-8 8.001a2 2 0 110-4 2 2 0 010 4z" fill-rule="evenodd" clip-rule="evenodd" fill="#88c057"/></svg>