<svg xmlns="http://www.w3.org/2000/svg" width="65.951" height="68.059"><path d="M32 0C14.327 0 0 14.326 0 31.998c0 17.673 14.327 32 32 32 3.436 0 6.738-.555 9.839-1.559l-2.085-2.086a5.976 5.976 0 01-.913-1.209 27.938 27.938 0 01-6.841.854c-15.464 0-28-12.536-28-28.001C4 16.534 16.536 3.999 32 3.999s28 12.535 28 27.999c0 6.543-2.25 12.558-6.011 17.324l1.627-1.627c1.407-1.409 3.332-1.96 5.16-1.691A31.856 31.856 0 0064 31.998C64 14.326 49.673 0 32 0z" fill-rule="evenodd" clip-rule="evenodd" fill="#ccc"/><path d="M37.801 29.498A7.969 7.969 0 0040 24a8 8 0 00-16 0c0 2.132.84 4.063 2.199 5.497C22.504 31.543 20 35.477 20 39.999v2A2 2 0 0022 44h20a2 2 0 002-2.001v-2c0-4.522-2.504-8.456-6.199-10.501zM32 19.999a4 4 0 110 8 4 4 0 010-8zm-8 20a8 8 0 0116 0H24z" fill-rule="evenodd" clip-rule="evenodd" fill="#48a0dc"/><path d="M61.393 50.563a2.018 2.018 0 00-2.854 0l-8.521 8.521-4.509-4.516a2.06 2.06 0 00-2.921 0 2.07 2.07 0 000 2.926l5.841 5.851c.209.209.451.361.709.463a2.013 2.013 0 002.267-.402l9.988-9.987a2.02 2.02 0 000-2.856z" fill-rule="evenodd" clip-rule="evenodd" fill="#88c057"/></svg>