<svg xmlns="http://www.w3.org/2000/svg" width="64" height="64"><path d="M32 0C14.327 0 0 14.327 0 32.001 0 49.674 14.327 64 32 64s32-14.326 32-31.999C64 14.327 49.673 0 32 0zm0 60C16.536 60 4 47.465 4 32.001s12.536-28 28-28 28 12.536 28 28S47.464 60 32 60z" fill-rule="evenodd" clip-rule="evenodd" fill="#ccc"/><path d="M32 18.001c-7.732 0-14 6.269-14 14 0 7.732 6.268 14 14 14 7.731 0 14-6.268 14-14 0-7.731-6.269-14-14-14zM32 42V22.002c5.522 0 9.999 4.477 9.999 9.999S37.522 42 32 42z" fill-rule="evenodd" clip-rule="evenodd" fill="#9b7cab"/></svg>