<svg xmlns="http://www.w3.org/2000/svg" width="68" height="68"><path d="M37.817 59.39a28.082 28.082 0 01-5.817.609c-15.464 0-28-12.536-28-28.001C4 16.534 16.536 3.999 32 3.999s28 12.535 28 27.999a28.11 28.11 0 01-.61 5.82 16.074 16.074 0 013.512 2.495A32.022 32.022 0 0064 31.998C64 14.326 49.673 0 32 0S0 14.326 0 31.998c0 17.673 14.327 32 32 32 2.876 0 5.66-.386 8.312-1.097a16.01 16.01 0 01-2.495-3.511z" fill-rule="evenodd" clip-rule="evenodd" fill="#ccc"/><circle cx="52" cy="52" r="12" fill="#88c057"/><path d="M56 50h-2v-2a2 2 0 10-4 0v2h-2a2 2 0 000 3.998h2v2a2 2 0 104 0v-2h2A1.999 1.999 0 1056 50z" fill="#fff"/><path d="M43.869 38.237a12.004 12.004 0 00-6.068-8.739A7.964 7.964 0 0040 24a8 8 0 00-16 0 7.96 7.96 0 002.199 5.497C22.504 31.543 20 35.477 20 39.999v2A2 2 0 0022 44h16.158a16.06 16.06 0 015.711-5.763zM32 19.999a4 4 0 110 8 4 4 0 010-8zm0 12a8 8 0 018 8H24a8 8 0 018-8z" fill-rule="evenodd" clip-rule="evenodd" fill="#48a0dc"/></svg>