<svg xmlns="http://www.w3.org/2000/svg" width="64" height="64.001"><path d="M32 0C14.327 0 0 14.327 0 32c0 17.674 14.327 32.001 32 32.001S64 49.674 64 32C64 14.327 49.673 0 32 0zm0 60C16.536 60 4 47.464 4 32S16.536 4.001 32 4.001 60 16.536 60 32 47.464 60 32 60z" fill-rule="evenodd" clip-rule="evenodd" fill="#ccc"/><path d="M39.35 32.586a2.077 2.077 0 00-2.933 0L34 34.994V24c0-1.104-.896-2.001-2-2.001s-2 .897-2 2.001v11.09l-2.491-2.499a2.06 2.06 0 00-2.921 0 2.079 2.079 0 000 2.931l5.842 5.86c.325.326.731.51 1.153.573a1.99 1.99 0 001.846-.559c.018-.016.039-.025.056-.042l5.865-5.846a2.06 2.06 0 000-2.922z" fill-rule="evenodd" clip-rule="evenodd" fill="#ed7161"/></svg>