<svg xmlns="http://www.w3.org/2000/svg" width="64" height="64.001"><path d="M32 0C14.327 0 0 14.327 0 32.001c0 17.673 14.327 32 32 32s32-14.327 32-32C64 14.327 49.673 0 32 0zm0 60C16.536 60 4 47.464 4 32.001c0-15.465 12.536-28 28-28s28 12.535 28 28C60 47.464 47.464 60 32 60z" fill-rule="evenodd" clip-rule="evenodd" fill="#ccc"/><path d="M30.43 37.381c.324.325.729.509 1.15.573a1.992 1.992 0 001.851-.56c.017-.016.037-.024.054-.041l5.865-5.846a2.06 2.06 0 000-2.922 2.077 2.077 0 00-2.933 0L34 30.994V20a2 2 0 10-4 0v11.09l-2.491-2.499a2.058 2.058 0 00-2.921 0 2.077 2.077 0 000 2.93l5.842 5.86zM42 42H22a2 2 0 000 4h20a2 2 0 000-4z" fill-rule="evenodd" clip-rule="evenodd" fill="#88c057"/></svg>