<svg xmlns="http://www.w3.org/2000/svg" width="64" height="64.001"><path d="M32 0C14.327 0 0 14.328 0 32.001s14.327 32 32 32 32-14.327 32-32S49.673 0 32 0zm0 60.002c-15.464 0-28-12.537-28-28.001 0-15.465 12.536-28 28-28s28 12.535 28 28c0 15.464-12.536 28.001-28 28.001z" fill-rule="evenodd" clip-rule="evenodd" fill="#ccc"/><path d="M40 38.001H24a2 2 0 000 4.001h16a2.001 2.001 0 000-4.001zm-16.001-2H40a2 2 0 001.999-2c0-.372-.128-.7-.305-.998l-7.623-12.01c-.412-.648-1.168-.978-1.937-.965-.046-.006-.089-.005-.135-.008-.046.003-.09.002-.135.008-.769-.013-1.524.316-1.937.965L22.326 32.97c-.189.306-.328.646-.328 1.031 0 1.104.897 2 2.001 2z" fill-rule="evenodd" clip-rule="evenodd" fill="#48a0dc"/></svg>