<svg xmlns="http://www.w3.org/2000/svg" width="64" height="63.999"><path d="M32 0C14.327 0 0 14.326 0 31.999c0 17.674 14.327 32 32 32s32-14.326 32-32C64 14.326 49.673 0 32 0zm0 60C16.536 60 4 47.463 4 31.999s12.536-28 28-28 28 12.536 28 28S47.464 60 32 60z" fill-rule="evenodd" clip-rule="evenodd" fill="#ccc"/><path d="M44 27.999v-6a2 2 0 00-4 0v6a2 2 0 000 4v9.999a2 2 0 104 0v-9.999a2 2 0 000-4zM34 26v-4.001a2 2 0 00-4 0V26a2 2 0 100 3.999v11.999a2 2 0 104 0V29.999A2 2 0 0034 26zm-10 8V21.999a2 2 0 00-4 0V34a2 2 0 000 3.999v3.999a2 2 0 104 0v-3.999A2 2 0 0024 34z" fill-rule="evenodd" clip-rule="evenodd" fill="#88c057"/></svg>