<svg xmlns="http://www.w3.org/2000/svg" width="64" height="63.999"><path d="M32 0C14.326 0 0 14.326 0 31.999c0 17.674 14.326 32 32 32 17.673 0 32-14.326 32-32C64 14.326 49.673 0 32 0zm0 60C16.536 60 4 47.463 4 31.999s12.536-28 28-28 28 12.536 28 28S47.464 60 32 60z" fill-rule="evenodd" clip-rule="evenodd" fill="#ccc"/><path d="M44 17.998h-6a2 2 0 000 4h1.05l-4.412 4.467a2.1 2.1 0 00-.001 2.956c.81.816 2.122.816 2.933 0L42 24.936v1.063a2 2 0 004 0v-6.001c0-1.103-.896-2-2-2zm-17.526 16.64l-4.453 4.461v-1.057c0-1.1-.899-1.99-2.01-1.99S18 36.942 18 38.042v5.968a2 2 0 002.011 1.989h6.031a2 2 0 002.01-1.989c0-1.1-.899-1.988-2.01-1.988h-1.057l4.436-4.444a2.076 2.076 0 000-2.939 2.084 2.084 0 00-2.947-.001zM43.988 36a1.99 1.99 0 00-1.984 1.999v1.052l-4.434-4.412a2.074 2.074 0 10-2.934 2.931l4.45 4.429h-1.05c-1.097 0-1.985.896-1.985 2.001s.889 2 1.985 2h5.951a1.992 1.992 0 001.985-2v-6a1.99 1.99 0 00-1.984-2zM24.947 22.021h1.057c1.103 0 1.996-.9 1.996-2.011 0-1.11-.894-2.01-1.996-2.01h-5.982c-1.102 0-1.995.9-1.995 2.01v6.031c0 1.11.894 2.011 1.995 2.011 1.104 0 1.995-.9 1.995-2.011v-1.057l4.457 4.435a2.086 2.086 0 002.948.002 2.082 2.082 0 000-2.947l-4.475-4.453z" fill-rule="evenodd" clip-rule="evenodd" fill="#ed7161"/></svg>