<svg xmlns="http://www.w3.org/2000/svg" width="64" height="64.001"><path d="M32 0C14.327 0 0 14.328 0 32.001s14.327 32 32 32 32-14.327 32-32S49.673 0 32 0zm0 60.002c-15.464 0-28-12.537-28-28.001 0-15.465 12.536-28 28-28s28 12.535 28 28c0 15.464-12.536 28.001-28 28.001z" fill-rule="evenodd" clip-rule="evenodd" fill="#ccc"/><path d="M47.008 29.93l-12.031-7.637c-.948-.603-2.162-.244-2.71.799-.548 1.044-.223 2.378.726 2.979l9.341 5.93-9.341 5.928c-.948.603-1.273 1.938-.726 2.981.548 1.043 1.762 1.399 2.71.798l12.031-7.636c.688-.437 1.041-1.256.979-2.071.062-.815-.292-1.635-.979-2.071zm-11.036 2.206c.006-.046.005-.089.009-.135-.004-.046-.003-.09-.009-.135.013-.769-.315-1.525-.964-1.936L23.03 22.327c-.306-.189-.645-.328-1.03-.328A2 2 0 0020 24v16.001A2 2 0 0022 42c.371 0 .699-.129.998-.305l12.01-7.623c.648-.412.976-1.168.964-1.936z" fill-rule="evenodd" clip-rule="evenodd" fill="#88c057"/></svg>