<svg xmlns="http://www.w3.org/2000/svg" width="64" height="64.001"><path d="M32 0C14.327 0 0 14.327 0 32.001c0 17.673 14.327 32 32 32s32-14.327 32-32C64 14.327 49.673 0 32 0zm0 60C16.536 60 4 47.464 4 32.001c0-15.465 12.536-28 28-28s28 12.535 28 28C60 47.464 47.464 60 32 60z" fill-rule="evenodd" clip-rule="evenodd" fill="#ccc"/><path d="M32 20a8 8 0 00-8 8 2 2 0 004 0 4 4 0 118 0c0 4.146-6 2.875-6 10h4c0-3.813 6-3.331 6-10a8 8 0 00-8-8zm0 19.999a2 2 0 10.002 4.002A2 2 0 0032 39.999z" fill-rule="evenodd" clip-rule="evenodd" fill="#9b7cab"/></svg>