<svg xmlns="http://www.w3.org/2000/svg" width="64" height="64"><path d="M32 0C14.326 0 0 14.327 0 32.001 0 49.674 14.326 64 32 64c17.673 0 32-14.326 32-31.999C64 14.327 49.673 0 32 0zm0 60C16.536 60 4 47.465 4 32.001s12.536-28 28-28 28 12.536 28 28S47.464 60 32 60z" fill-rule="evenodd" clip-rule="evenodd" fill="#ccc"/><path d="M40 34.001a2 2 0 00-2 2v6H26v-6a2 2 0 00-4 0v8a2 2 0 002 2h16a2 2 0 002-2v-8a2 2 0 00-2-2zm5.421-3.6L33.6 18.58a2.08 2.08 0 00-1.6-.601 2.078 2.078 0 00-1.6.601L18.579 30.401a2.09 2.09 0 002.955 2.955L32 22.891l10.466 10.466a2.09 2.09 0 102.955-2.956z" fill-rule="evenodd" clip-rule="evenodd" fill="#48a0dc"/></svg>