<svg xmlns="http://www.w3.org/2000/svg" width="64" height="64"><path d="M32 0C14.327 0 0 14.327 0 32.001 0 49.674 14.327 64 32 64s32-14.326 32-31.999C64 14.327 49.673 0 32 0zm0 60C16.536 60 4 47.465 4 32.001s12.536-28 28-28 28 12.536 28 28S47.464 60 32 60z" fill-rule="evenodd" clip-rule="evenodd" fill="#ccc"/><path d="M37 18.001a9 9 0 00-9 9c0 .931.142 1.829.403 2.674l-9.224 9.224c-.868.869-1.179 3.103-1.179 3.103l4 4v-2h4v-4h4v-4l2.612-1.146A8.946 8.946 0 0037 36.002a9 9 0 009-9.001 9 9 0 00-9-9zm1 10.001a2 2 0 11.001-4.001A2 2 0 0138 28.002z" fill-rule="evenodd" clip-rule="evenodd" fill="#88c057"/></svg>