<svg xmlns="http://www.w3.org/2000/svg" width="64" height="64.001"><path d="M32 0C14.327 0 0 14.327 0 32c0 17.674 14.327 32.001 32 32.001S64 49.674 64 32C64 14.327 49.673 0 32 0zm0 60C16.536 60 4 47.464 4 32S16.536 4.001 32 4.001 60 16.536 60 32 47.464 60 32 60z" fill-rule="evenodd" clip-rule="evenodd" fill="#ccc"/><path d="M39.361 24.579a2.062 2.062 0 00-2.932 0L28 33.077v-5.076a2 2 0 10-4 0v10a2 2 0 002 2h10a2 2 0 000-4h-5.037l8.398-8.467a2.1 2.1 0 000-2.955z" fill-rule="evenodd" clip-rule="evenodd" fill="#48a0dc"/></svg>