<svg xmlns="http://www.w3.org/2000/svg" width="64" height="64.001"><path d="M32 0C14.327 0 0 14.327 0 32c0 17.674 14.327 32.001 32 32.001S64 49.674 64 32C64 14.327 49.673 0 32 0zm0 60C16.536 60 4 47.464 4 32S16.536 4.001 32 4.001 60 16.536 60 32 47.464 60 32 60z" fill-rule="evenodd" clip-rule="evenodd" fill="#ccc"/><path d="M39.422 36.431l-8.498-8.43H36A2 2 0 0036 24H26a2 2 0 00-2 2v10.001a2 2 0 004 0v-5.037l8.466 8.397c.817.81 2.14.81 2.956.002a2.062 2.062 0 000-2.932z" fill-rule="evenodd" clip-rule="evenodd" fill="#48a0dc"/></svg>