<svg xmlns="http://www.w3.org/2000/svg" width="64" height="64.001"><path d="M32 0C14.327 0 0 14.327 0 32c0 17.674 14.327 32.001 32 32.001 17.673 0 32-14.327 32-32.001C64 14.327 49.673 0 32 0zm0 60C16.536 60 4 47.464 4 32S16.536 4.001 32 4.001 60 16.536 60 32 47.464 60 32 60z" fill-rule="evenodd" clip-rule="evenodd" fill="#ccc"/><path d="M40 30.001H28.911l2.5-2.491a2.061 2.061 0 000-2.921 2.077 2.077 0 00-2.931 0l-5.86 5.841c-.326.325-.51.73-.573 1.151a1.995 1.995 0 00.558 1.85c.016.017.024.036.041.053l5.846 5.866a2.057 2.057 0 002.922 0 2.08 2.08 0 000-2.933L29.006 34H40a2 2 0 000-3.999z" fill-rule="evenodd" clip-rule="evenodd" fill="#48a0dc"/></svg>