<svg xmlns="http://www.w3.org/2000/svg" width="64" height="64"><path d="M32 0C14.327 0 0 14.327 0 32.001 0 49.674 14.327 64 32 64c17.673 0 32-14.326 32-31.999C64 14.327 49.673 0 32 0zm0 60C16.536 60 4 47.465 4 32.001s12.536-28 28-28 28 12.536 28 28S47.464 60 32 60z" fill-rule="evenodd" clip-rule="evenodd" fill="#ccc"/><path d="M41.789 22.186c-.296-.296-.723-.206-1.083-.084l-21.819 7.654a1.272 1.272 0 00-.897 1.21c0 .586.504.925.931 1.218l10.474 2.409 2.408 10.486c.292.427.631.933 1.217.933a1.273 1.273 0 001.208-.899l7.646-21.843c.122-.361.211-.788-.085-1.084z" fill="#88c057"/></svg>