<svg xmlns="http://www.w3.org/2000/svg" width="64" height="63.999"><path d="M32 0C14.327 0 0 14.327 0 31.999c0 17.674 14.327 32 32 32s32-14.326 32-32C64 14.327 49.673 0 32 0zm0 60C16.536 60 4 47.464 4 31.999 4 16.535 16.536 4 32 4s28 12.535 28 27.999C60 47.464 47.464 60 32 60z" fill-rule="evenodd" clip-rule="evenodd" fill="#ccc"/><path d="M40 31.999V28c0-4.419-3.582-8-8-8s-8 3.581-8 8v3.999A2 2 0 0022 34v7.999A2 2 0 0024 44h16a2 2 0 002-2.001V34a2 2 0 00-2-2.001zm-8 8a2 2 0 110-4 2 2 0 010 4zm4-8h-8V28a4 4 0 118 0v3.999z" fill-rule="evenodd" clip-rule="evenodd" fill="#ed7161"/></svg>