<svg xmlns="http://www.w3.org/2000/svg" width="64" height="64.001"><path d="M32 0C14.327 0 0 14.327 0 32.001c0 17.673 14.327 32 32 32s32-14.327 32-32C64 14.327 49.673 0 32 0zm0 60C16.536 60 4 47.464 4 32.001c0-15.465 12.536-28 28-28s28 12.535 28 28C60 47.464 47.464 60 32 60z" fill-rule="evenodd" clip-rule="evenodd" fill="#ccc"/><path d="M45.333 42.132l-5.408-5.407a11.94 11.94 0 002.066-6.73c0-6.625-5.371-11.996-11.996-11.996S18 23.37 18 29.995s5.37 11.996 11.995 11.996a11.94 11.94 0 006.73-2.066l5.407 5.407a2.262 2.262 0 103.201-3.2zm-15.338-4.134a8.003 8.003 0 01-8.004-8.003 8.004 8.004 0 118.004 8.003z" fill-rule="evenodd" clip-rule="evenodd" fill="#48a0dc"/></svg>