<svg xmlns="http://www.w3.org/2000/svg" width="64" height="64.001"><path d="M32 0C14.327 0 0 14.327 0 32c0 17.674 14.327 32.001 32 32.001S64 49.674 64 32C64 14.327 49.673 0 32 0zm0 60C16.536 60 4 47.465 4 32 4 16.537 16.536 4.001 32 4.001S60 16.537 60 32c0 15.465-12.536 28-28 28z" fill-rule="evenodd" clip-rule="evenodd" fill="#ccc"/><path d="M24.002 26.002h18a2 2 0 000-4h-18a2 2 0 000 4zm18 4h-18a2 2 0 100 4h18a2 2 0 000-4zm0 8h-18a2 2 0 000 4h18a2 2 0 000-4z" fill-rule="evenodd" clip-rule="evenodd" fill="#48a0dc"/></svg>