<svg xmlns="http://www.w3.org/2000/svg" width="64" height="64.001"><path d="M32 0C14.327 0 0 14.327 0 32c0 17.674 14.327 32.001 32 32.001S64 49.674 64 32C64 14.327 49.673 0 32 0zm0 60C16.536 60 4 47.465 4 32 4 16.537 16.536 4.001 32 4.001S60 16.537 60 32c0 15.465-12.536 28-28 28z" fill-rule="evenodd" clip-rule="evenodd" fill="#ccc"/><path d="M32 24.002a4 4 0 100-8 4 4 0 000 8zm0 4a4 4 0 100 8 4 4 0 000-8zm0 12a4 4 0 100 8 4 4 0 000-8z" fill-rule="evenodd" clip-rule="evenodd" fill="#9b7cab"/></svg>