<svg xmlns="http://www.w3.org/2000/svg" width="64" height="64.001"><path d="M32 0C14.327 0 0 14.327 0 32c0 17.674 14.327 32.001 32 32.001S64 49.674 64 32C64 14.327 49.673 0 32 0zm0 60C16.536 60 4 47.465 4 32 4 16.537 16.536 4.001 32 4.001S60 16.537 60 32c0 15.465-12.536 28-28 28z" fill-rule="evenodd" clip-rule="evenodd" fill="#ccc"/><path d="M42.199 20.618L27.8 18.025c-.994-.18-1.8.498-1.8 1.514v14.542A6.172 6.172 0 0025 34c-2.762 0-5 1.79-5 4 0 2.209 2.238 4 5 4 2.565 0 4.655-1.552 4.942-3.542.035-.147.058-.3.058-.458V25.777l10 1.802v10.502A6.172 6.172 0 0039 38c-2.762 0-5 1.791-5 4s2.238 4 5 4c2.564 0 4.655-1.552 4.942-3.542.035-.147.058-.3.058-.458V22.782c0-1.016-.806-1.984-1.801-2.164z" fill-rule="evenodd" clip-rule="evenodd" fill="#ed7161"/></svg>