<svg xmlns="http://www.w3.org/2000/svg" width="64" height="64.001"><path d="M32 0C14.326 0 0 14.327 0 32.001c0 17.673 14.326 32 32 32 17.673 0 32-14.327 32-32C64 14.327 49.673 0 32 0zm0 60C16.536 60 4 47.465 4 32.001s12.536-28 28-28 28 12.536 28 28S47.464 60 32 60z" fill-rule="evenodd" clip-rule="evenodd" fill="#ccc"/><path d="M38.023 23.276c-1.332-2.177-3.34-3.265-6.023-3.265s-4.691 1.088-6.023 3.265-1.999 5.083-1.999 8.719.667 6.542 1.999 8.719S29.317 43.98 32 43.98s4.691-1.089 6.023-3.266c1.333-2.177 1.999-5.083 1.999-8.719s-.666-6.542-1.999-8.719zm-2.981 14.51c-.65 1.467-1.664 2.2-3.042 2.2s-2.392-.733-3.041-2.2c-.649-1.466-.975-3.401-.975-5.807s.325-4.341.975-5.807 1.663-2.198 3.041-2.198 2.392.732 3.042 2.198c.649 1.466.974 3.401.974 5.807s-.325 4.341-.974 5.807z" fill="#88c057"/></svg>