<svg xmlns="http://www.w3.org/2000/svg" width="64" height="64.001"><path d="M32 0C14.327 0 0 14.327 0 32.001c0 17.673 14.327 32 32 32 17.673 0 32-14.327 32-32C64 14.327 49.673 0 32 0zm0 60C16.536 60 4 47.465 4 32.001s12.536-28 28-28 28 12.536 28 28S47.464 60 32 60z" fill-rule="evenodd" clip-rule="evenodd" fill="#ccc"/><path d="M34 20.002c-.022 0-.043.006-.065.007a2.056 2.056 0 00-1.205.3l-5.624 3.428c-1.036.632-1.39 2.029-.792 3.123.598 1.093 1.922 1.468 2.958.836L32 26.031v15.971a2 2 0 004 0v-20a2 2 0 00-2-2z" fill-rule="evenodd" clip-rule="evenodd" fill="#88c057"/></svg>