<svg xmlns="http://www.w3.org/2000/svg" width="64" height="64.001"><path d="M32 0C14.326 0 0 14.327 0 32.001c0 17.673 14.326 32 32 32 17.673 0 32-14.327 32-32C64 14.327 49.673 0 32 0zm0 60C16.536 60 4 47.465 4 32.001s12.536-28 28-28 28 12.536 28 28S47.464 60 32 60z" fill-rule="evenodd" clip-rule="evenodd" fill="#ccc"/><path d="M38 40.002h-7.111l5.911-5.601-.005-.007A7.977 7.977 0 0040 28.002a8 8 0 00-16 0 2 2 0 004 0 4 4 0 018 0c0 1.078-.738 2.408-1.846 3.231l.005.008-9.597 9.468a1.908 1.908 0 00-.556 1.286l-.006.007c0 .011.003.021.003.031a1.914 1.914 0 001.567 1.92c.139.03.282.049.431.049h12a2 2 0 00-.001-4z" fill-rule="evenodd" clip-rule="evenodd" fill="#88c057"/></svg>