<svg xmlns="http://www.w3.org/2000/svg" width="64" height="64.001"><path d="M32 0C14.327 0 0 14.327 0 32.001c0 17.673 14.327 32 32 32s32-14.327 32-32C64 14.327 49.673 0 32 0zm0 60C16.536 60 4 47.465 4 32.001s12.536-28 28-28 28 12.536 28 28S47.464 60 32 60z" fill-rule="evenodd" clip-rule="evenodd" fill="#ccc"/><path d="M40 22.002c0-.011-.003-.021-.003-.031a1.914 1.914 0 00-1.567-1.92 2.033 2.033 0 00-.431-.049H26a2 2 0 000 4h7.3l-4.724 4.724a1.92 1.92 0 000 2.715c.393.393.912.574 1.426.556l-.002.005h2a4 4 0 11-4 4 2 2 0 00-4 0 8 8 0 1010.373-7.642l4.645-4.646A1.99 1.99 0 0040 22.002z" fill-rule="evenodd" clip-rule="evenodd" fill="#88c057"/></svg>