<svg xmlns="http://www.w3.org/2000/svg" width="64" height="64.001"><path d="M32 0C14.326 0 0 14.327 0 32.001c0 17.673 14.326 32 32 32 17.673 0 32-14.327 32-32C64 14.327 49.673 0 32 0zm0 60C16.536 60 4 47.465 4 32.001s12.536-28 28-28 28 12.536 28 28S47.464 60 32 60z" fill-rule="evenodd" clip-rule="evenodd" fill="#ccc"/><path d="M36 34.002v-2a2 2 0 00-4 0v2h-4.557l6.29-10.97c.552-.964.225-2.194-.732-2.751s-2.18-.227-2.732.736l-8 13.954a2.035 2.035 0 00-.215.588l-.015.066a1.972 1.972 0 00-.028.275c-.003.036-.011.068-.011.102 0 .021.005.039.006.06.002.057.01.111.017.168.01.087.022.173.042.256.004.017.011.032.016.05a1.987 1.987 0 001.666 1.441l.017.002c.079.009.155.023.236.023h8v4a2 2 0 004 0v-4a2 2 0 000-4z" fill-rule="evenodd" clip-rule="evenodd" fill="#88c057"/></svg>