<svg xmlns="http://www.w3.org/2000/svg" width="64" height="64.001"><path d="M32 0C14.326 0 0 14.327 0 32.001c0 17.673 14.326 32 32 32 17.673 0 32-14.327 32-32C64 14.327 49.673 0 32 0zm0 60C16.536 60 4 47.465 4 32.001s12.536-28 28-28 28 12.536 28 28S47.464 60 32 60z" fill-rule="evenodd" clip-rule="evenodd" fill="#ccc"/><path d="M32 28.002h-4v-4h8a2 2 0 000-4H26a2 2 0 00-2 2v.407c0 .01-.003.019-.003.028v7.613c0 .801.498 1.486 1.208 1.785.244.105.512.166.795.166h6a4 4 0 11-4 4 2 2 0 00-4 0 8 8 0 108-7.999z" fill-rule="evenodd" clip-rule="evenodd" fill="#88c057"/></svg>