<svg xmlns="http://www.w3.org/2000/svg" width="64" height="64.001"><path d="M32 0C14.327 0 0 14.327 0 32.001c0 17.673 14.327 32 32 32s32-14.327 32-32C64 14.327 49.673 0 32 0zm0 60C16.536 60 4 47.465 4 32.001s12.536-28 28-28 28 12.536 28 28S47.464 60 32 60z" fill-rule="evenodd" clip-rule="evenodd" fill="#ccc"/><path d="M32 28.001a7.96 7.96 0 00-2.505.407c1.02-2.082 2.445-3.52 3.919-4.992a2 2 0 10-2.828-2.828C27.651 23.521 24 27.173 24 36.002c0 4.412 3.589 8 8 8 4.412 0 8-3.588 8-8s-3.588-8.001-8-8.001zm0 12.001c-2.206 0-4-1.796-4-4 0-2.207 1.794-4 4-4 2.205 0 4 1.793 4 4 0 2.204-1.795 4-4 4z" fill-rule="evenodd" clip-rule="evenodd" fill="#88c057"/></svg>