<svg xmlns="http://www.w3.org/2000/svg" width="64" height="64.001"><path d="M32 0C14.327 0 0 14.327 0 32.001c0 17.673 14.327 32 32 32s32-14.327 32-32C64 14.327 49.673 0 32 0zm0 60C16.536 60 4 47.465 4 32.001s12.536-28 28-28 28 12.536 28 28S47.464 60 32 60z" fill-rule="evenodd" clip-rule="evenodd" fill="#ccc"/><path d="M39.955 22.296c.014-.071.026-.142.032-.213.002-.027.013-.054.013-.081s-.007-.053-.008-.08A1.922 1.922 0 0039 20.245a2.035 2.035 0 00-1.216-.243H26a2 2 0 000 4h9.059l-6.791 17.107c-.552.928-.225 2.114.732 2.65.957.535 2.18.217 2.732-.711l8-20.154c.086-.146.144-.298.188-.451.017-.048.023-.098.035-.147z" fill-rule="evenodd" clip-rule="evenodd" fill="#88c057"/></svg>