<svg xmlns="http://www.w3.org/2000/svg" width="64" height="64.001"><path d="M32 0C14.326 0 0 14.327 0 32.001c0 17.673 14.326 32 32 32 17.673 0 32-14.327 32-32C64 14.327 49.673 0 32 0zm0 60C16.536 60 4 47.465 4 32.001s12.536-28 28-28 28 12.536 28 28S47.464 60 32 60z" fill-rule="evenodd" clip-rule="evenodd" fill="#ccc"/><path d="M36.471 29.961a5.978 5.978 0 001.503-3.966c0-3.31-2.675-5.993-5.974-5.993s-5.974 2.684-5.974 5.993a5.98 5.98 0 001.503 3.966C25.4 31.964 24 35.146 24 37.869c0 4.354 3.582 6.133 8 6.133s8-1.778 8-6.133c0-2.723-1.4-5.905-3.529-7.908zM32 23.998c1.1 0 1.991.895 1.991 1.998S33.1 27.995 32 27.995s-1.992-.896-1.992-1.999.892-1.998 1.992-1.998zm0 15.998c-2.213 0-4.006-.238-4.006-3.004 0-2.76 1.787-4.997 3.995-5.005l.011.001.011-.001c2.208.008 3.995 2.245 3.995 5.005 0 2.766-1.793 3.004-4.006 3.004z" fill-rule="evenodd" clip-rule="evenodd" fill="#88c057"/></svg>