<svg xmlns="http://www.w3.org/2000/svg" width="64" height="64.001"><path d="M32 0C14.327 0 0 14.327 0 32.001c0 17.673 14.327 32 32 32 17.673 0 32-14.327 32-32C64 14.327 49.673 0 32 0zm0 60C16.536 60 4 47.465 4 32.001s12.536-28 28-28 28 12.536 28 28S47.464 60 32 60z" fill-rule="evenodd" clip-rule="evenodd" fill="#ccc"/><path d="M32 20.002c-4.413 0-8 3.588-8 8 0 4.41 3.587 8 8 8 .875 0 1.716-.146 2.505-.408-1.02 2.083-2.446 3.521-3.919 4.994a2 2 0 102.828 2.828C36.348 40.481 40 36.83 40 28.002c0-4.412-3.59-8-8-8zm0 12c-2.205 0-4-1.795-4-4s1.795-4 4-4c2.207 0 4 1.795 4 4s-1.793 4-4 4z" fill-rule="evenodd" clip-rule="evenodd" fill="#88c057"/></svg>