<svg xmlns="http://www.w3.org/2000/svg" width="64" height="64"><path d="M32 0C14.327 0 0 14.327 0 32c0 17.672 14.327 32 32 32 17.673 0 32-14.328 32-32C64 14.327 49.673 0 32 0zm0 60C16.536 60 4 47.464 4 32 4 16.537 16.536 3.999 32 3.999S60 16.537 60 32c0 15.464-12.536 28-28 28z" fill-rule="evenodd" clip-rule="evenodd" fill="#ccc"/><path d="M41.393 26.566a2.016 2.016 0 00-2.854 0l-8.521 8.521-4.509-4.518a2.062 2.062 0 00-2.92 0 2.072 2.072 0 000 2.927l5.84 5.851c.209.209.452.362.71.463a2.01 2.01 0 002.265-.402l9.988-9.987a2.019 2.019 0 00.001-2.855z" fill-rule="evenodd" clip-rule="evenodd" fill="#88c057"/></svg>