<svg xmlns="http://www.w3.org/2000/svg" width="64" height="63.999"><path d="M32 0C14.327 0 0 14.326 0 31.999c0 17.674 14.327 32 32 32 17.673 0 32-14.326 32-32C64 14.326 49.673 0 32 0zm0 60C16.536 60 4 47.463 4 31.999s12.536-28 28-28 28 12.536 28 28S47.464 60 32 60z" fill-rule="evenodd" clip-rule="evenodd" fill="#ccc"/><path d="M36 20.696v4.382a7.99 7.99 0 014 6.921c0 4.419-3.582 8-8 8s-8-3.581-8-8a7.99 7.99 0 014-6.921v-4.382c-4.658 1.649-8 6.08-8 11.303 0 6.628 5.373 12 12 12s12-5.372 12-12c0-5.223-3.342-9.654-8-11.303zm-4 7.303A2 2 0 0034 26v-6.001a2 2 0 00-4 0V26a2 2 0 002 1.999z" fill-rule="evenodd" clip-rule="evenodd" fill="#88c057"/></svg>