<svg xmlns="http://www.w3.org/2000/svg" width="64" height="64.001"><path d="M32 0C14.327 0 0 14.328 0 32.001s14.327 32 32 32c17.673 0 32-14.327 32-32S49.673 0 32 0zm0 60.002c-15.464 0-28-12.537-28-28.001 0-15.465 12.536-28 28-28s28 12.535 28 28c0 15.464-12.536 28.001-28 28.001z" fill-rule="evenodd" clip-rule="evenodd" fill="#ccc"/><path d="M41.972 31.866c.013-.769-.315-1.525-.964-1.936L29.03 22.327c-.306-.189-.645-.328-1.03-.328A2 2 0 0026 24v16.001A2 2 0 0028 42c.371 0 .7-.129.998-.305l12.01-7.623c.649-.412.978-1.168.964-1.937.006-.046.005-.089.009-.135-.004-.045-.003-.089-.009-.134z" fill="#48a0dc"/></svg>