<svg xmlns="http://www.w3.org/2000/svg" width="64" height="63.999"><path d="M32 0C14.327 0 0 14.327 0 31.999c0 17.674 14.327 32 32 32s32-14.326 32-32C64 14.327 49.673 0 32 0zm0 60C16.536 60 4 47.463 4 31.999s12.536-28 28-28 28 12.536 28 28S47.464 60 32 60z" fill-rule="evenodd" clip-rule="evenodd" fill="#ccc"/><path d="M28 26h16a2 2 0 000-4H28a2 2 0 000 4zm-8-4a2 2 0 10.001 4.001A2 2 0 0020 22zm24 8.001H28A2 2 0 0028 34h16a2 2 0 000-3.999zm-24 0a2 2 0 10.001 4.001A2 2 0 0020 30.001zm24 8H28A2 2 0 1028 42h16a2 2 0 000-3.999zm-24 0a2 2 0 100 4 2 2 0 000-4z" fill-rule="evenodd" clip-rule="evenodd" fill="#ed7161"/></svg>