<svg xmlns="http://www.w3.org/2000/svg" width="64" height="64.001"><path d="M32 0C14.327 0 0 14.328 0 32.001s14.327 32 32 32 32-14.327 32-32S49.673 0 32 0zm0 60.002c-15.464 0-28-12.537-28-28.001 0-15.465 12.536-28 28-28s28 12.535 28 28c0 15.464-12.536 28.001-28 28.001z" fill-rule="evenodd" clip-rule="evenodd" fill="#ccc"/><path d="M24 22a2 2 0 00-2 2.001v16a2 2 0 004 0v-16A2 2 0 0024 22zm16-.001c-.386 0-.725.139-1.03.328l-11.978 7.604c-.648.41-.978 1.167-.964 1.936-.006.045-.005.089-.009.135.004.046.002.089.009.135-.014.769.315 1.524.964 1.937l12.01 7.623c.298.174.627.303.998.303a2 2 0 002-1.999V24a2 2 0 00-2-2.001z" fill-rule="evenodd" clip-rule="evenodd" fill="#9b7cab"/></svg>