<svg xmlns="http://www.w3.org/2000/svg" width="64" height="63.999"><path d="M32 0C14.327 0 0 14.327 0 31.999c0 17.674 14.327 32 32 32s32-14.326 32-32C64 14.327 49.673 0 32 0zm0 60C16.536 60 4 47.463 4 31.999s12.536-28 28-28 28 12.536 28 28S47.464 60 32 60z" fill-rule="evenodd" clip-rule="evenodd" fill="#ccc"/><path d="M20 30.001h8A2.001 2.001 0 0028 26h-3.989A9.97 9.97 0 0132 22c4.838 0 8.873 3.437 9.799 8.001h4.042C44.869 23.218 39.052 18 32 18c-3.924 0-7.462 1.62-10 4.222v-2.221a2 2 0 10-4 0v7.998c0 1.105.896 2.002 2 2.002zM44 34h-8a2 2 0 000 4.001h3.988A9.968 9.968 0 0132 42c-4.838 0-8.873-3.435-9.799-8h-4.042c.973 6.782 6.789 12.001 13.841 12.001a13.92 13.92 0 0010-4.224v2.222a2.001 2.001 0 104 0V36a2 2 0 00-2-2z" fill-rule="evenodd" clip-rule="evenodd" fill="#88c057"/></svg>