<svg xmlns="http://www.w3.org/2000/svg" width="64" height="63.999"><path d="M32 0C14.327 0 0 14.327 0 31.999c0 17.674 14.327 32 32 32s32-14.326 32-32C64 14.327 49.673 0 32 0zm0 60C16.536 60 4 47.463 4 31.999s12.536-28 28-28 28 12.536 28 28S47.464 60 32 60z" fill-rule="evenodd" clip-rule="evenodd" fill="#ccc"/><path d="M34 27.999c0 1.105.896 2.002 2 2.002h8c1.104 0 2-.896 2-2.002v-7.998a2 2 0 10-4 0v2.224A13.917 13.917 0 0032 18c-7.732 0-14 6.268-14 14 0 7.731 6.268 14.001 14 14.001 7.051 0 12.868-5.219 13.841-12.001h-4.042c-.926 4.564-4.961 8-9.799 8-5.523 0-10-4.477-10-10 0-5.522 4.477-10 10-10 3.264 0 6.144 1.579 7.967 4H36a2 2 0 00-2 1.999z" fill-rule="evenodd" clip-rule="evenodd" fill="#88c057"/></svg>