<svg xmlns="http://www.w3.org/2000/svg" width="64" height="64"><path d="M32 0C14.327 0 0 14.327 0 32c0 17.672 14.327 32 32 32s32-14.328 32-32C64 14.327 49.673 0 32 0zm0 60C16.536 60 4 47.464 4 32 4 16.537 16.536 3.999 32 3.999S60 16.537 60 32c0 15.464-12.536 28-28 28z" fill-rule="evenodd" clip-rule="evenodd" fill="#ccc"/><path d="M39.43 36.728l-4.703-4.702 4.703-4.702a1.903 1.903 0 00-2.691-2.691l-4.703 4.703-4.762-4.762a1.908 1.908 0 00-2.701 0 1.908 1.908 0 000 2.7l4.762 4.762-4.705 4.704a1.903 1.903 0 002.69 2.691l4.706-4.705 4.703 4.702a1.908 1.908 0 002.701 0 1.908 1.908 0 000-2.7z" fill-rule="evenodd" clip-rule="evenodd" fill="#ed7161"/></svg>