<svg xmlns="http://www.w3.org/2000/svg" width="64" height="63.999"><path d="M32 0C14.327 0 0 14.326 0 31.999c0 17.674 14.327 32 32 32s32-14.326 32-32C64 14.326 49.673 0 32 0zm0 60C16.536 60 4 47.463 4 31.999s12.536-28 28-28 28 12.536 28 28S47.464 60 32 60z" fill-rule="evenodd" clip-rule="evenodd" fill="#ccc"/><path d="M22 29.999A3.999 3.999 0 0126 26h11.078l-.49.49a2.067 2.067 0 002.921 2.921l3.841-3.842a2.062 2.062 0 00.434-2.274l.08-.08a2.024 2.024 0 00-.455-.747l-3.878-3.877a2.077 2.077 0 10-2.938 2.939l.469.469H26a8 8 0 00-8 8V34c0 .922.165 1.802.453 2.625L22 33.078v-3.079zm23.546-2.626L42 30.92V34a4 4 0 01-4 3.999H26.921l.429-.429a2.065 2.065 0 00-2.921-2.92l-3.841 3.84a2.065 2.065 0 00-.434 2.276l-.018.018c.099.27.237.529.455.746l3.877 3.879a2.08 2.08 0 002.939-2.939l-.471-.471H38c4.418 0 8-3.58 8-7.998V30c0-.923-.165-1.804-.454-2.627z" fill-rule="evenodd" clip-rule="evenodd" fill="#48a0dc"/></svg>