<svg xmlns="http://www.w3.org/2000/svg" width="64" height="64.001"><path d="M32 0C14.327 0 0 14.327 0 32c0 17.674 14.327 32.001 32 32.001S64 49.674 64 32C64 14.327 49.673 0 32 0zm0 60C16.536 60 4 47.464 4 32S16.536 4.001 32 4.001 60 16.536 60 32 47.464 60 32 60z" fill-rule="evenodd" clip-rule="evenodd" fill="#ccc"/><path d="M42 32a1.99 1.99 0 00-.606-1.43c-.016-.017-.024-.037-.041-.054l-5.846-5.865a2.059 2.059 0 00-2.922 0 2.077 2.077 0 000 2.933l2.409 2.417H24A2 2 0 1024 34h11.089l-2.5 2.491a2.06 2.06 0 000 2.921 2.077 2.077 0 002.931 0l5.86-5.841c.325-.324.51-.73.573-1.15.03-.136.047-.276.047-.421z" fill-rule="evenodd" clip-rule="evenodd" fill="#48a0dc"/></svg>