<svg xmlns="http://www.w3.org/2000/svg" width="64" height="64.001"><path d="M32 0C14.327 0 0 14.327 0 32c0 17.674 14.327 32.001 32 32.001S64 49.674 64 32C64 14.327 49.673 0 32 0zm0 60C16.536 60 4 47.464 4 32S16.536 4.001 32 4.001 60 16.536 60 32 47.464 60 32 60z" fill-rule="evenodd" clip-rule="evenodd" fill="#ccc"/><path d="M38 26a2 2 0 00-2 2.001v5.036l-8.466-8.397a2.1 2.1 0 00-2.956 0 2.062 2.062 0 000 2.932l8.499 8.43H28a2 2 0 000 4h10a2 2 0 002-2v-10A2.001 2.001 0 0038 26z" fill-rule="evenodd" clip-rule="evenodd" fill="#ed7161"/></svg>