<svg xmlns="http://www.w3.org/2000/svg" width="64" height="64.001"><path d="M32 0C14.326 0 0 14.327 0 32.001s14.326 32 32 32c17.673 0 32-14.326 32-32S49.673 0 32 0zm0 60C16.536 60 4 47.465 4 32.001s12.536-28 28-28 28 12.536 28 28S47.464 60 32 60z" fill-rule="evenodd" clip-rule="evenodd" fill="#ccc"/><path d="M44.25 29.374l-1.301-.426a11.35 11.35 0 00-1.048-2.536l.616-1.219a1.75 1.75 0 000-2.475l-1.237-1.237a1.75 1.75 0 00-2.475 0l-1.217.617a11.388 11.388 0 00-2.537-1.049l-.427-1.301a1.75 1.75 0 00-1.75-1.75h-1.75a1.75 1.75 0 00-1.75 1.75l-.424 1.302c-.893.248-1.74.597-2.529 1.042l-1.228-.61a1.75 1.75 0 00-2.475 0l-1.237 1.237a1.75 1.75 0 000 2.475l.611 1.228a11.31 11.31 0 00-1.039 2.516l-1.304.438a1.75 1.75 0 00-1.75 1.75v1.75c0 .968.783 1.75 1.75 1.75l1.305.438a11.3 11.3 0 001.038 2.516l-.611 1.228a1.75 1.75 0 000 2.475l1.237 1.237a1.75 1.75 0 002.475 0l1.229-.61a11.24 11.24 0 002.516 1.038l.438 1.305c0 .967.783 1.75 1.75 1.75h1.75a1.75 1.75 0 001.75-1.75l.438-1.305c.89-.248 1.736-.599 2.523-1.044l1.22.616a1.75 1.75 0 002.475 0l1.237-1.237a1.75 1.75 0 000-2.475l-.619-1.219c.447-.792.798-1.642 1.048-2.537l1.302-.428a1.75 1.75 0 001.75-1.75v-1.75a1.75 1.75 0 00-1.75-1.75zM32 38a6 6 0 11.002-12.002A6 6 0 0132 38z" fill="#ed7161"/></svg>