<svg xmlns="http://www.w3.org/2000/svg" width="64" height="64"><path d="M32 0C14.326 0 0 14.327 0 32.001 0 49.674 14.326 64 32 64c17.673 0 32-14.326 32-31.999C64 14.327 49.673 0 32 0zm0 60C16.536 60 4 47.465 4 32.001s12.536-28 28-28 28 12.536 28 28S47.464 60 32 60z" fill-rule="evenodd" clip-rule="evenodd" fill="#ccc"/><path d="M40 34.002a5.979 5.979 0 00-4.095 1.622l-5.951-2.909c.027-.235.046-.472.046-.713s-.019-.479-.046-.713l5.952-2.909A5.972 5.972 0 0040 30.002a6.001 6.001 0 10-6-6.001c0 .248.02.491.049.73l-5.941 2.904A5.97 5.97 0 0024.001 26a6.001 6.001 0 000 12 5.967 5.967 0 004.106-1.634l5.942 2.905a6.088 6.088 0 00-.049.73 6.001 6.001 0 0012 0 6 6 0 00-6-5.999z" fill-rule="evenodd" clip-rule="evenodd" fill="#9b7cab"/></svg>