<svg xmlns="http://www.w3.org/2000/svg" width="64" height="63.999"><path d="M32 0C14.327 0 0 14.326 0 31.999c0 17.674 14.327 32 32 32s32-14.326 32-32C64 14.326 49.673 0 32 0zm0 60C16.536 60 4 47.463 4 31.999s12.536-28 28-28 28 12.536 28 28S47.464 60 32 60z" fill-rule="evenodd" clip-rule="evenodd" fill="#ccc"/><path d="M41.53 34.592a2.074 2.074 0 00-2.938 0 2.076 2.076 0 000 2.938l.378.378c-1.966-.328-3.396-1.578-4.569-3.201-.691 1.368-1.34 2.746-2.045 3.936 1.377 1.928 3.101 3.355 5.645 3.355h1.08l-.492.492a2.065 2.065 0 102.921 2.921l3.841-3.841c.223-.223.378-.485.478-.764a.615.615 0 00.028-.071c.034-.082.056-.166.078-.25.008-.03.021-.058.026-.088a2.075 2.075 0 00-.552-1.928l-3.879-3.877zM20 27.999h4c1.206 0 2.164.582 3 1.487.665-1.268 1.309-2.655 2.023-3.972-.842-.921-1.806-1.516-3.023-1.516h-6a2 2 0 000 4.001zm18.989-1.91l-.401.401a2.065 2.065 0 102.921 2.921l3.841-3.842c.223-.222.377-.484.477-.762.012-.024.021-.05.031-.075.029-.073.048-.148.069-.224.01-.039.025-.075.033-.114a2.073 2.073 0 00-.552-1.927L41.53 18.59a2.077 2.077 0 10-2.938 2.939l.469.469H38C30 21.999 30 36 24 36h-4a2 2 0 100 3.999h6c5.734 0 5.993-12.779 12.989-13.91z" fill-rule="evenodd" clip-rule="evenodd" fill="#48a0dc"/></svg>