<svg xmlns="http://www.w3.org/2000/svg" width="64" height="64"><path d="M32 0C14.327 0 0 14.327 0 32.001 0 49.674 14.327 64 32 64s32-14.326 32-31.999C64 14.327 49.673 0 32 0zm0 60C16.536 60 4 47.465 4 32.001s12.536-28 28-28 28 12.536 28 28S47.464 60 32 60z" fill-rule="evenodd" clip-rule="evenodd" fill="#ccc"/><path d="M44 30.002h-2.201A10.006 10.006 0 0034 22.209v-2.207a2 2 0 00-4 0v2.207a10.006 10.006 0 00-7.799 7.793H20a2 2 0 000 4h2.201A10.004 10.004 0 0030 41.793v2.209a2 2 0 004 0v-2.209a10.005 10.005 0 007.799-7.791H44a2 2 0 000-4zm-6.336 3.966a6.013 6.013 0 01-3.698 3.696c-.161-.942-.977-1.662-1.966-1.662s-1.805.72-1.966 1.662a6.016 6.016 0 01-3.698-3.696c.944-.16 1.664-.977 1.664-1.966s-.72-1.806-1.664-1.966a6.01 6.01 0 013.698-3.697c.161.943.977 1.663 1.966 1.663s1.805-.72 1.966-1.663a6.013 6.013 0 013.698 3.697c-.944.16-1.664.977-1.664 1.966s.72 1.806 1.664 1.966zM32 30.002a2 2 0 10.001 4.001A2 2 0 0032 30.002z" fill-rule="evenodd" clip-rule="evenodd" fill="#48a0dc"/></svg>