<svg xmlns="http://www.w3.org/2000/svg" width="64" height="64.001"><path d="M32 0C14.327 0 0 14.327 0 32c0 17.674 14.327 32.001 32 32.001S64 49.674 64 32C64 14.327 49.673 0 32 0zm0 60C16.536 60 4 47.464 4 32S16.536 4.001 32 4.001 60 16.536 60 32 47.464 60 32 60z" fill-rule="evenodd" clip-rule="evenodd" fill="#ccc"/><path d="M39.411 28.479l-5.841-5.86a2.034 2.034 0 00-1.153-.573 1.991 1.991 0 00-1.846.559c-.018.016-.039.025-.056.042l-5.865 5.846a2.06 2.06 0 000 2.923 2.08 2.08 0 002.933 0L30 29.007v10.994a2 2 0 004 0v-11.09l2.491 2.499c.806.81 2.114.81 2.92 0a2.077 2.077 0 000-2.931z" fill-rule="evenodd" clip-rule="evenodd" fill="#88c057"/></svg>