<svg xmlns="http://www.w3.org/2000/svg" width="64" height="64.001"><path d="M32 0C14.326 0 0 14.327 0 32.001c0 17.673 14.326 32 32 32 17.673 0 32-14.327 32-32C64 14.327 49.673 0 32 0zm0 60C16.536 60 4 47.464 4 32.001c0-15.465 12.536-28 28-28s28 12.535 28 28C60 47.464 47.464 60 32 60z" fill-rule="evenodd" clip-rule="evenodd" fill="#ccc"/><path d="M27.583 27.414L30 25.005V36a2 2 0 104 0V24.911l2.49 2.498a2.06 2.06 0 002.921 0 2.077 2.077 0 000-2.931l-5.841-5.859a2.039 2.039 0 00-1.15-.573 1.991 1.991 0 00-1.849.558c-.018.016-.039.025-.056.042l-5.866 5.847a2.06 2.06 0 000 2.922 2.08 2.08 0 002.934-.001zM42 42H22a2 2 0 000 4h20a2 2 0 000-4z" fill-rule="evenodd" clip-rule="evenodd" fill="#48a0dc"/></svg>