<svg xmlns="http://www.w3.org/2000/svg" width="64" height="63.999"><path d="M32 0C14.327 0 0 14.326 0 31.999s14.327 32 32 32 32-14.327 32-32S49.673 0 32 0zm0 60C16.536 60 4 47.463 4 31.999s12.536-28 28-28 28 12.536 28 28S47.464 60 32 60z" fill-rule="evenodd" clip-rule="evenodd" fill="#ccc"/><path d="M40 29.999a8 8 0 01-8 8 8 8 0 01-8-8h-4c0 5.944 4.327 10.867 10 11.821V44a2 2 0 004 0v-2.18c5.673-.954 10-5.877 10-11.821h-4zm-8 6a6 6 0 006-6v-6.001A6 6 0 0032 18a6 6 0 00-6 5.998v6.001a6 6 0 006 6zm-2-12.001a2 2 0 014 0v6.001a2 2 0 01-4 0v-6.001z" fill-rule="evenodd" clip-rule="evenodd" fill="#9b7cab"/></svg>