<svg xmlns="http://www.w3.org/2000/svg" width="64" height="63.999"><path d="M32 0C14.327 0 0 14.327 0 31.999c0 17.674 14.327 32 32 32 17.673 0 32-14.326 32-32C64 14.327 49.673 0 32 0zm0 60C16.536 60 4 47.463 4 31.999s12.536-28 28-28 28 12.536 28 28S47.464 60 32 60z" fill-rule="evenodd" clip-rule="evenodd" fill="#ccc"/><path d="M28 20c-1.104 0-7 4.895-7 5.999h-1A4 4 0 0016 30v3.999A4.001 4.001 0 0020 38h1c0 1.104 5.896 5.999 7 5.999s2-.895 2-2v-20A2 2 0 0028 20zm14.392 5.999a11.88 11.88 0 00-4.221-4.268c-.057-.041-.109-.087-.171-.123a2 2 0 10-2 3.463l-.003.006A7.93 7.93 0 0138.928 28a7.942 7.942 0 011.065 4 7.948 7.948 0 01-3.996 6.924l.003.005a2 2 0 002 3.463c.066-.039.123-.087.183-.132A11.87 11.87 0 0042.391 38a11.926 11.926 0 001.599-6.001 11.936 11.936 0 00-1.598-6zm-5.196 9.002c.547-.947.78-1.98.779-3.001.001-1.021-.232-2.054-.779-3a5.854 5.854 0 00-1.954-2.021c-.077-.062-.154-.124-.242-.175a2 2 0 10-2 3.464l-.002.004A1.953 1.953 0 0133.992 32c0 .341-.077.685-.26 1-.182.316-.439.56-.734.728l.002.004a2 2 0 002 3.463c.084-.048.157-.108.23-.166a5.856 5.856 0 001.966-2.028z" fill-rule="evenodd" clip-rule="evenodd" fill="#48a0dc"/></svg>