<svg xmlns="http://www.w3.org/2000/svg" width="64" height="63.999"><path d="M32 0C14.327 0 0 14.327 0 31.999c0 17.674 14.327 32 32 32s32-14.326 32-32C64 14.327 49.673 0 32 0zm0 60C16.536 60 4 47.463 4 31.999s12.536-28 28-28 28 12.536 28 28S47.464 60 32 60z" fill-rule="evenodd" clip-rule="evenodd" fill="#ccc"/><path d="M28 20c-1.104 0-7 4.895-7 5.999h-1A4 4 0 0016 30v3.999A4.001 4.001 0 0020 38h1c0 1.104 5.896 5.999 7 5.999s2-.895 2-2v-20A2 2 0 0028 20zm9.195 9a5.855 5.855 0 00-1.95-2.019 1.924 1.924 0 00-.246-.177 2 2 0 10-2 3.464l-.002.004A1.946 1.946 0 0133.991 32c0 .341-.077.685-.26 1-.183.316-.438.56-.734.728l.003.004a1.998 1.998 0 102 3.463c.085-.049.159-.109.234-.169A5.871 5.871 0 0037.195 35c.547-.947.78-1.98.779-3.001A5.92 5.92 0 0037.195 29z" fill-rule="evenodd" clip-rule="evenodd" fill="#48a0dc"/></svg>