<svg xmlns="http://www.w3.org/2000/svg" width="64" height="63.999"><path d="M32 0C14.327 0 0 14.327 0 31.999c0 17.674 14.327 32 32 32s32-14.326 32-32C64 14.327 49.673 0 32 0zm0 60C16.536 60 4 47.463 4 31.999s12.536-28 28-28 28 12.536 28 28S47.464 60 32 60z" fill-rule="evenodd" clip-rule="evenodd" fill="#ccc"/><path d="M28 20c-1.104 0-7 4.895-7 5.999h-1A4 4 0 0016 30v3.999A4.001 4.001 0 0020 38h1c0 1.104 5.896 5.999 7 5.999s2-.895 2-2v-20A2 2 0 0028 20z" fill-rule="evenodd" clip-rule="evenodd" fill="#48a0dc"/><path d="M44 30.001h-8A2 2 0 0036 34h8a2 2 0 000-3.999z" fill="#48a0dc"/></svg>