<svg xmlns="http://www.w3.org/2000/svg" width="64" height="63.999"><path d="M32 0C14.327 0 0 14.327 0 31.999c0 17.674 14.327 32 32 32s32-14.326 32-32C64 14.327 49.673 0 32 0zm0 60C16.536 60 4 47.463 4 31.999s12.536-28 28-28 28 12.536 28 28S47.464 60 32 60z" fill-rule="evenodd" clip-rule="evenodd" fill="#ccc"/><path d="M28 20c-1.104 0-7 4.895-7 5.999h-1A4 4 0 0016 30v3.999A4.001 4.001 0 0020 38h1c0 1.104 5.896 5.999 7 5.999s2-.895 2-2v-20A2 2 0 0028 20zm17.43 18.729l-2.703-2.703 2.703-2.703a1.905 1.905 0 000-2.691 1.905 1.905 0 00-2.691 0l-2.703 2.703-2.762-2.762a1.91 1.91 0 10-2.701 2.701l2.762 2.762-2.705 2.705a1.902 1.902 0 102.69 2.69l2.705-2.705 2.703 2.703a1.908 1.908 0 002.701 0 1.908 1.908 0 00.001-2.7z" fill-rule="evenodd" clip-rule="evenodd" fill="#48a0dc"/></svg>