<svg xmlns="http://www.w3.org/2000/svg" width="64" height="64"><path d="M64 32c0-5.523-4.478-10-10-10a9.919 9.919 0 00-4.198.951l-.028-.014-12.448 6.348a6.037 6.037 0 00-1.068-1.502L47.071 17.07A9.964 9.964 0 0050 10c0-5.523-4.478-10-10-10-3.287 0-6.178 1.606-8 4.055C30.177 1.606 27.286 0 24 0c-5.523 0-10 4.477-10 10a9.97 9.97 0 002.93 7.072l10.81 10.707a6.016 6.016 0 00-1.062 1.507l-12.452-6.349-.028.014A9.919 9.919 0 0010 22C4.478 22 0 26.477 0 32c0 3.879 2.232 7.205 5.461 8.863C4.553 42.369 4 44.113 4 46c0 5.521 4.477 10 10 10 4.008 0 7.439-2.373 9.035-5.777l.028.004 6.306-12.861c.205.102.413.193.631.271V52c0 6.438 1.938 10.428 2.268 11 .015 0 .022-.002.037-.004.347.59.962 1.004 1.695 1.004a2 2 0 002-2c0-.365-.124-.689-.295-.984l.027-.016C35.18 60.043 34 57.5 34 52V37.629c.217-.076.429-.158.633-.258l6.304 12.855.028-.004C42.56 53.627 45.991 56 50 56c5.522 0 10-4.479 10-10 0-1.887-.553-3.631-1.461-5.137C61.768 39.205 64 35.879 64 32z" fill-rule="evenodd" clip-rule="evenodd" fill="#88c057"/></svg>