<svg xmlns="http://www.w3.org/2000/svg" width="64" height="64"><path d="M54 32H37.994c0-.023.006-.045.006-.068a6.091 6.091 0 00-.108-.962l17.845-3.122.004-.023C60.43 26.998 64 22.928 64 18c0-5.523-4.478-10-10-10-.068 0-.132.019-.199.021C52.881 3.445 48.845 0 44 0c-5.214 0-9.447 4.005-9.909 9.1l-.053.027-1.508 16.927c-.2-.019-.394-.056-.599-.054-.158.002-.307.038-.462.052L29.962 9.127l-.053-.027C29.447 4.005 25.214 0 20 0c-4.845 0-8.881 3.445-9.801 8.021C10.132 8.019 10.068 8 10 8 4.477 8 0 12.477 0 18c0 4.928 3.569 8.998 8.26 9.824l.004.023 17.835 3.12c-.059.336-.093.68-.093 1.032H10C4.477 32 0 36.477 0 42c0 4.131 2.506 7.674 6.081 9.199-.022.27-.081.528-.081.801 0 5.521 4.477 10 10 10 4.619 0 8.469-3.15 9.617-7.406l.042-.006L30 39.125V52c0 6.438 1.938 10.428 2.268 11 .016 0 .022-.002.037-.004.347.59.962 1.004 1.695 1.004a2 2 0 002-2c0-.365-.124-.689-.295-.984l.027-.016C35.18 60.043 34 57.5 34 52V39.125l4.341 15.463.042.006C39.531 58.85 43.38 62 48 62c5.522 0 10-4.479 10-10 0-.273-.059-.531-.081-.801C61.493 49.674 64 46.131 64 42c0-5.523-4.478-10-10-10z" fill-rule="evenodd" clip-rule="evenodd" fill="#88c057"/></svg>