<svg xmlns="http://www.w3.org/2000/svg" width="64" height="64"><path d="M18 12C11.373 12 0 35.373 0 42c0 10 4 14 4 14s-2 3.1-2 4a2 2 0 002 2c.9 0 4-2 4-2s4 4 14 4c6.627 0 32-13.373 32-20 0-16-20-32-36-32z" fill="#d9a16a"/><path d="M64 6c0-2.209-3.791-6-6-6-1.986 0-.037 1.98-7.854 9.848C43.549 3.973 35.484 0 28 0c-4 0-12 6-12 10s4.751 2.75 20 18c15.249 15.248 14 20 18 20s10-8 10-12c0-7.484-3.973-15.549-9.849-22.146C62.02 6.039 64 8.07 64 6z" fill-rule="evenodd" clip-rule="evenodd" fill="#8c6845"/></svg>