<svg xmlns="http://www.w3.org/2000/svg" width="64.001" height="64"><path d="M20.001 40s-5.334 6.455-10 10C.804 56.984.269 61 .269 61a1.996 1.996 0 00.732 2.73c.957.555 2.18.227 2.732-.73 0 0 2.041-4.652 10.268-11 3.826-2.953 10-8 10-8l-4-4z" fill-rule="evenodd" clip-rule="evenodd" fill="#a67c52"/><path d="M34.001 20s-3.838-20-8-20c-1.664 0-4 8.795-4 14s2 12 2 12c-7.043-7.043-17.52-10-22-10-1.645 0-2 .271-2 2 0 5.838 14 16 14 16-2.41 0-10 2.75-10 4s18 4 18 4l32-32c-8.377 0-20 10-20 10z" fill="#fc6"/><path d="M44.001 30s10-11.623 10-20l-32 32s2.75 18 4 18 4-7.59 4-10c0 0 10.16 14 16 14 1.729 0 2-.355 2-2 0-4.48-2.957-14.957-10-22 0 0 6.795 2 12 2s14-2.336 14-4c0-4.162-20-8-20-8z" fill="#e6b85c"/></svg>