<svg xmlns="http://www.w3.org/2000/svg" width="64.001" height="64"><path d="M18.001 42s-3.334 4.455-8 8C.804 56.984.269 61 .269 61a1.996 1.996 0 00.732 2.73c.957.555 2.18.227 2.732-.73 0 0 2.041-4.652 10.268-11 3.826-2.953 8-6 8-6l-4-4z" fill-rule="evenodd" clip-rule="evenodd" fill="#a67c52"/><path d="M64.001 40c-5.588-5.588-16-5.734-16-8 0-3.928 7.168-4.412 12-10 0 0-6-2.641-6-4 0-4.078 6-14 6-14l-40 40c2.068 2.068 0 4.496 0 8 0 5.547 7.086 12 14 12 0 0-2-2.285-2-6 0-2.572 1.447-4 4-4 7.428 0 16 4 16 4s-2-5.207-2-8c0-2.795 5.617-1.617 14-10z" fill="#e67a2e"/><path d="M46.001 10c-1.359 0-4-6-4-6-5.588 4.832-6.074 12-10 12-2.266 0-2.412-10.412-8-16-8.383 8.381-7.207 14-10 14-2.795 0-8-2-8-2s4 8.572 4 16c0 2.553-1.43 4-4 4-3.715 0-6-2-6-2 0 6.914 6.453 14 12 14 3.504 0 5.932-2.068 8 0l40-40s-9.922 6-14 6z" fill="#f83"/></svg>