<svg xmlns="http://www.w3.org/2000/svg" width="56" height="63.998"><path d="M34.699 52.053c-.917-.225-1.854.256-2.095 1.076l-2.603 8.908c-.24.82.31 1.666 1.227 1.893.917.225 1.855-.256 2.095-1.076l2.604-8.908c.239-.821-.311-1.669-1.228-1.893z" fill="#ccc"/><path d="M45.177 12.588c-7.834-2.199-15.573 1.447-18.302 12.111-2.729 10.666.998 22.705 8.832 24.902C43.54 51.8 52.516 43.326 55.244 32.66c2.73-10.664-2.232-17.875-10.067-20.072z" fill="#48a0dc"/><path d="M36.301 48.113c-2.836-.811-5.945 2.545-6.244 3.736s.462 1.973 1.219 2.189l6.601 1.889c.756.215 1.782-.055 2.082-1.246.298-1.191-.822-5.755-3.658-6.568z" fill="#387ba8"/><path d="M17.989 47.998a2 2 0 00-1.999 2v12a2 2 0 103.998 0v-12a2 2 0 00-1.999-2z" fill="#ccc"/><path d="M17.989 0C8.054 0 0 6.744 0 20c0 13.254 8.054 26 17.989 26s17.989-12.746 17.989-26c.001-13.256-8.053-20-17.989-20z" fill="#ed7161"/><path d="M17.989 43.998c-3.436 0-5.996 4.613-5.996 6 0 1.389 1.082 2.002 1.999 2.002h7.995c.915 0 1.998-.613 1.998-2.002 0-1.387-2.56-6-5.996-6z" fill="#d46557"/></svg>