<svg xmlns="http://www.w3.org/2000/svg" width="64.001" height="59.984"><path d="M55.963 38.354c.008-.124.037-.239.037-.362a6.01 6.01 0 00-.139-1.266l5.377-9.781c1.23-2.236.908-4.947-.59-6.814l3.084-5.139-.027-.016c.17-.294.295-.619.295-.984a2 2 0 00-2-2c-.738 0-1.357.42-1.705 1.016l-.027-.016-3.055 5.092c-2.26-.381-4.607.688-5.82 2.893l-6.055 11.016H30.662l-4.801-8.736c.088-.409.139-.831.139-1.265 0-.123-.029-.238-.037-.361l7.232-12.586c1.659-2.885.674-6.57-2.195-8.236a5.984 5.984 0 00-8.195 2.207L15.35 15.992H8c-2.813 0-5.154 1.941-5.805 4.551A13.4 13.4 0 000 20v3.984a13.4 13.4 0 002.195-.543c.653 2.61 2.993 4.551 5.805 4.551h7.338l4.801 8.734A6.018 6.018 0 0020 37.992c0 .123.029.238.037.361l-7.232 12.586c-1.658 2.883-.674 6.57 2.195 8.236a5.984 5.984 0 008.195-2.207l7.455-12.977h14.7l7.455 12.977A5.984 5.984 0 0061 59.175c2.869-1.666 3.854-5.354 2.195-8.236l-7.232-12.585z" fill-rule="evenodd" clip-rule="evenodd" fill="#48a0dc"/><path d="M31.238 33.039l-.576-1.047H26a5.996 5.996 0 00-5.861 4.736l.406.738-.508.885c.189 3.143 2.771 5.641 5.963 5.641h4.65l.545-.947c.91-1.584 1-3.4.441-5.002.552-1.596.475-3.418-.398-5.004zm24.217 4.428l.406-.738A5.996 5.996 0 0050 31.993h-4.662l-.576 1.047c-.873 1.586-.949 3.408-.398 5.004-.559 1.602-.469 3.418.441 5.002l.545.947H50c3.191 0 5.773-2.498 5.963-5.641l-.508-.885zM25.861 23.256l-.406-.738.508-.885c-.189-3.145-2.771-5.641-5.963-5.641h-4.65l-.545.947c-.91 1.584-1 3.4-.441 5-.551 1.598-.475 3.42.398 5.006l.576 1.047H20a6 6 0 005.861-4.736z" fill-rule="evenodd" clip-rule="evenodd" fill="#387ba8"/></svg>