<svg xmlns="http://www.w3.org/2000/svg" width="64" height="60"><path d="M18 46h-4a2 2 0 00-2 2v10a2 2 0 002 2h4a2 2 0 002-2V48a2 2 0 00-2-2zm32 0h-4a2 2 0 00-2 2v10a2 2 0 002 2h4a2 2 0 002-2V48a2 2 0 00-2-2z" fill-rule="evenodd" clip-rule="evenodd" fill="#666"/><path d="M32 4C14 4 4 10 4 10v40s10 6 28 6 28-6 28-6V10S50 4 32 4z" fill="#bf8e5e"/><path d="M32 0a2 2 0 00-2 2v4a2 2 0 004 0V2a2 2 0 00-2-2z" fill="#a67b51"/><path d="M4 38v4s10 4 28 4 28-4 28-4v-4s-10 4-28 4-28-4-28-4zm28-24c-18 0-28 4-28 4v4s10-4 28-4 28 4 28 4v-4s-10-4-28-4zM4 32h56v-4H4v4z" fill-rule="evenodd" clip-rule="evenodd" fill="#a67b51"/><path d="M0 12v36a2 2 0 002 2h2V10H2a2 2 0 00-2 2zm62-2h-2v40h2a2 2 0 002-2V12a2 2 0 00-2-2zM46 54.693a64.074 64.074 0 004-.91V6.217a64.019 64.019 0 00-4-.912v49.388zm-32-.91c1.229.322 2.557.629 4 .91V5.305c-1.443.281-2.771.59-4 .912v47.566z" fill-rule="evenodd" clip-rule="evenodd" fill="#666"/></svg>