<svg xmlns="http://www.w3.org/2000/svg" width="64" height="64"><path d="M54.007 31.997c-3.97 3.969-8.001 6-10.001 6s-4 0-6-2L28.003 25.995c-2-1.999-2-3.999-2-5.999s2.032-6.034 6.001-10.001C22.013.004 12.638 0 10.487 0c-.672 0-1.279.246-1.72.645-.951.859-.951 2.252 0 3.112 1.762 1.592 3.235 5.594 3.235 8.239 0 2.643-1.207 6.759-3.155 8.401-1.049.885-1.049 2.322 0 3.207 1.948 1.643 3.155 5.749 3.155 8.394 0 2.443-1.358 6.161-2.892 8.001H2a2 2 0 100 4h8.001C10.001 49.521 14.479 54 20.002 54v8a2 2 0 004 0v-7.113c1.842-1.532 5.559-2.888 8.001-2.888 2.643 0 6.751 1.207 8.392 3.152.887 1.051 2.323 1.051 3.209 0 1.643-1.947 5.758-3.152 8.401-3.152s6.646 1.473 8.239 3.234c.859.949 2.252.949 3.112 0a2.563 2.563 0 00.643-1.721c.001-2.15-.001-11.524-9.992-21.515z" fill-rule="evenodd" clip-rule="evenodd" fill="#4d4d4d"/><path d="M44.005 23.996c-2 0-4 1.999-4 1.999h-2v-1.999s2-2 2-4 0-2-2-2-6.001 2-8.001 4c-2 2-4.001 5.897-4.001 10.001 0 2.061 2 4 2 4s1.938 2 4 2c4.104 0 8.001-2 10.001-4s4.001-6 4.001-8.002c.001-1.999.001-1.999-2-1.999z" fill="#333"/></svg>