<svg xmlns="http://www.w3.org/2000/svg" width="44" height="64"><circle cx="22" cy="58" r="6" fill="#cca352"/><path d="M40 46s-2-.041-2-2c0-18-10-24-14-24 0-5.283 4-14 4-14a6 6 0 00-12 0s4 8.717 4 14c-4 0-14 6-14 24 0 1.959-2 2-2 2-2.209 0-4 1.789-4 4v4a4 4 0 004 4h36a4 4 0 004-4v-4c0-2.211-1.791-4-4-4z" fill-rule="evenodd" clip-rule="evenodd" fill="#fc6"/><path d="M4 12v12c0 3.873 2 4 4 4 4 0 12-8 12-8v-4S12 8 8 8c-2 0-4 0-4 4zm32-4c-4 0-12 8-12 8v4s8 8 12 8c2 0 4-.127 4-4V12c0-4-2-4-4-4z" fill-rule="evenodd" clip-rule="evenodd" fill="#ed7161"/><path d="M24 14h-4a2 2 0 00-2 2v4a2 2 0 002 2h4a2 2 0 002-2v-4a2 2 0 00-2-2z" fill="#ba594c"/></svg>