<svg xmlns="http://www.w3.org/2000/svg" width="52" height="64.002"><path d="M48 0H4v64h44a4 4 0 004-4V4.002A4 4 0 0048 0z" fill="#8c6845"/><path d="M48.01.002H46a2 2 0 100 4h2v2a2 2 0 004 .002V4.002a4 4 0 00-3.99-4zm1.99 56a2 2 0 00-2 2v2h-2a2 2 0 100 4h2.01a4 4 0 003.99-4v-2.004a2 2 0 00-2-1.996zm-16-30h-4v-4a2 2 0 10-4 0v4h-4a2 2 0 100 4h4v12a2 2 0 004 0v-12h4a2 2 0 100-4z" fill-rule="evenodd" clip-rule="evenodd" fill="#fc6"/><path d="M2 .002a2 2 0 00-2 2v60a2 2 0 002 2h2v-64H2z" fill="#a67c52"/></svg>