<svg xmlns="http://www.w3.org/2000/svg" width="28" height="68"><path d="M14 0c0 10.063-6 8.248-6 14a6 6 0 0012 0c0-3.314-.5-8.5-6-14z" fill="#fc6"/><path d="M14 15.998A2 2 0 0012 18v8a2 2 0 004 0v-8a2.002 2.002 0 00-2-2.002z" fill="#666"/><path d="M22 26H6a4 4 0 00-4 4v30a4 4 0 004 4h16a4 4 0 004-4V30a4 4 0 00-4-4z" fill="#f06eaa"/><path d="M6 26a4 4 0 00-4 4v2l14.4-6H6zm0 38h5.6L26 58v-6L2.453 61.811C3.115 63.105 4.447 64 6 64zm19.547-35.811L2 38v6l24-10v-4c0-.656-.172-1.266-.453-1.811zM2 56l24-10v-6L2 50v6z" fill-rule="evenodd" clip-rule="evenodd" fill="#9b7cab"/><path d="M24 22c-2.443 0-3.443 2-6 2-3.078 0-5.438-2-10-2-3.414 0-4.273 2-6 2-1.137 0-2 1.238-2 4 0 2.76.738 6 2 6 2.293 0 .346-6 10-6 1.246 0 2.359.314 3.381.813C14.793 31.52 14 35.305 14 36a2 2 0 004 0c0-.627-.641-3.75-1.197-6.342C20.775 32.498 23.156 38 26 38c1.637 0 2-7.24 2-10 0-2.762-1.238-6-4-6zM2 46a2 2 0 002-2c0-1.105-2-10-2-10s-2 8.895-2 10a2 2 0 002 2z" fill-rule="evenodd" clip-rule="evenodd" fill="#bd5786"/></svg>