<svg xmlns="http://www.w3.org/2000/svg" width="64" height="64"><path d="M62.604 24.963l-28-24A3.987 3.987 0 0032 0c-.926 0-1.854.32-2.604.963l-28 24A4 4 0 000 28v32a4 4 0 004 4h56a4 4 0 004-4V28a4 4 0 00-1.396-3.037z" fill="#638c3f"/><path d="M50 8H14a4 4 0 00-4 4v48a4 4 0 004 4h36a4 4 0 004-4V12a4 4 0 00-4-4z" fill="#fc6"/><path d="M36 28H24a1.999 1.999 0 100 4h12a2.001 2.001 0 000-4zm4-8.002H24A2 2 0 0024 24h16a2 2 0 000-4.002z" fill="#cca352"/><path d="M61.6 26.332a4.002 4.002 0 00-4.323.736L32 50 6.721 27.068A3.995 3.995 0 003.998 26 4 4 0 000 30v30a4 4 0 004 4h56a4 4 0 004-4V30a4.003 4.003 0 00-2.4-3.668z" fill="#88c057"/></svg>