<svg xmlns="http://www.w3.org/2000/svg" width="64.001" height="63.999"><path d="M63.4.6c-.8-.8-2.099-.8-2.899 0L24.554 36.548l2.898 2.899L63.4 3.499A2.05 2.05 0 0063.4.6z" fill="#a67c52"/><path d="M29.975 33.997s-1.998-2-5.995-2c-3.996 0-7.993 2-11.989 6C7.993 41.998 0 43.998 0 45.998c0 4.001 15.986 18.001 17.984 18.001 1.999 0 3.997-8 7.993-12 3.997-4.001 5.995-8.001 5.995-12.001.001-4.001-1.997-6.001-1.997-6.001z" fill="#fc6"/><path d="M33.971 29.997s-1.998-2-3.996-2-5.995 4-5.995 4l7.993 8.001s4.023-4.001 4.023-6.001-2.025-4-2.025-4z" fill="#e6b85c"/></svg>