<svg xmlns="http://www.w3.org/2000/svg" width="52" height="64"><path d="M24 0c-1.977 0-3.355 2.566-4 4-2.086 4.641-6 14-6 14h10s1.969-6.67 2-12c.016-2.766.131-6-2-6z" fill="#ccc"/><path d="M46 38c-7.014-7.016-11.904-5.904-14-8s-4-5.689-4-10c0-2.619 12-8.779 12-18 0-1.6-1.396-2-4-2-6.914 0-17.965 10.203-22 16-3.996 0-14 9.734-14 14 0 7.418 10 7.609 10 12v2c0 2.012-1.396 6.012-2 8-2.475 8.145-4 7.137-4 10 0 1.803 3.096 2 4 2 4.578 0 5.188-10 8-10 1.875 0 2.023 3.049 2 4-.043 1.758-2 .742-2 4 0 1.219 1.182 2 10 2 8.059 0 20-1.148 20-6 0 0 4 0 4-8 0-1.662-.244-8.244-4-12z" fill="#e6e6e6"/><path d="M38 4c-5.195 0-14 9.883-14 12 0 .934 1.969 2.012 4.428 2.992 1.813-2.604 9.096-7.254 11.072-13.746C39.15 4.469 38.639 4 38 4z" fill="#ffcce4"/><path d="M52 52a2 2 0 00-2-2 2 2 0 10-4 0c0 .371.129.701.307 1-.178.299-.307.627-.307 1a2 2 0 00-2 2c0 .371.129.701.307 1-.178.299-.307.627-.307 1a2 2 0 002 2c.373 0 .701-.129 1-.307.299.178.627.307 1 .307a2 2 0 002-2 2 2 0 002-2c0-.373-.129-.701-.307-1 .178-.299.307-.629.307-1z" fill-rule="evenodd" clip-rule="evenodd" fill="#ccc"/><circle cx="10" cy="26" r="2" fill="#666"/></svg>