<svg xmlns="http://www.w3.org/2000/svg" width="64" height="48"><path d="M24 0a2 2 0 000 4c1.104 0 2 1.791 2 4v20h4V8c0-4.418-2.687-8-6-8zm16 0c-3.313 0-6 3.582-6 8v20h4V8c0-2.209.896-4 2-4a2 2 0 000-4z" fill-rule="evenodd" clip-rule="evenodd" fill="#999"/><path d="M64 14c0-8-2-10-10-10-12 0-20 12-20 12v20s2 12 10 12c1.923 0 8-2 8-10 0-2.383-1.613-4.402-3.855-6.076.616.045 1.235.076 1.855.076 8 0 14-10 14-18zM10 4C2 4 0 6 0 14s6 18 14 18c.62 0 1.239-.031 1.855-.076C13.613 33.598 12 35.617 12 38c0 8 6.077 10 8 10 8 0 10-12 10-12V16S22 4 10 4z" fill-rule="evenodd" clip-rule="evenodd" fill="#666"/><path d="M34 30s4 14 10 14c1.923 0 4-2 4-6s-14-8-14-8zm-18 8c0 4 2.077 6 4 6 6 0 10-14 10-14s-14 4-14 8zM8 16c0 8 2 12 6 12 8 0 16-4 16-4v-4s-10-8-18-8c-2 0-4 2-4 4zm44-4c-8 0-18 8-18 8v4s8 4 16 4c4 0 6-4 6-12 0-2-2-4-4-4z" fill-rule="evenodd" clip-rule="evenodd" fill="#f83"/><ellipse cx="32" cy="28" rx="4" ry="18" fill="#666"/></svg>