<svg xmlns="http://www.w3.org/2000/svg" width="64" height="56"><path d="M0 48a8 8 0 008 8h48a8 8 0 008-8H0z" fill="#ccc"/><path d="M54 16H10a6 6 0 00-6 6v26h56V22a6 6 0 00-6-6z" fill="#a67c52"/><path d="M57.415 24.588C57.054 24.225 56.553 24 56 24s-1.054.225-1.415.588L52 27.172l-2.585-2.584C49.054 24.225 48.553 24 48 24s-1.054.225-1.415.588L44 27.172l-2.585-2.584C41.054 24.225 40.553 24 40 24s-1.054.225-1.415.588L36 27.172l-2.585-2.584C33.054 24.225 32.553 24 32 24s-1.054.225-1.415.588L28 27.172l-2.585-2.584C25.054 24.225 24.553 24 24 24s-1.054.225-1.415.588L20 27.172l-2.585-2.584C17.054 24.225 16.553 24 16 24s-1.054.225-1.415.588L12 27.172l-2.585-2.584C9.054 24.225 8.553 24 8 24s-1.054.225-1.415.588L4 27.172V32c.552 0 1.052-.225 1.414-.586L8 28.828l2.586 2.586a1.998 1.998 0 002.828 0L16 28.828l2.586 2.586a1.998 1.998 0 002.828 0L24 28.828l2.586 2.586a1.998 1.998 0 002.828 0L32 28.828l2.586 2.586a1.998 1.998 0 002.828 0L40 28.828l2.586 2.586a1.998 1.998 0 002.828 0L48 28.828l2.586 2.586a1.998 1.998 0 002.828 0L56 28.828l2.586 2.586c.362.361.862.586 1.414.586v-4.828l-2.585-2.584zM4 40h56v-4H4v4z" fill-rule="evenodd" clip-rule="evenodd" fill="#fff"/><path d="M19.999 8a2 2 0 00-2 2v5.998H22V10a2 2 0 00-2.001-2zm12 0a2 2 0 00-2 2v5.998h4V10a2 2 0 00-2-2zm12 0a2 2 0 00-2 2v5.998h4V10a2 2 0 00-2-2z" fill-rule="evenodd" clip-rule="evenodd" fill="#f06eaa"/><path d="M18 4.199C18 5.193 18.896 6 20 6s2-.807 2-1.801S21.834 1.65 20 0c0 3.02-2 2.475-2 4.199zm12 0C30 5.193 30.896 6 32 6s2-.807 2-1.801S33.834 1.65 32 0c0 3.02-2 2.475-2 4.199zM44 0c0 3.02-2 2.475-2 4.199C42 5.193 42.896 6 44 6s2-.807 2-1.801S45.834 1.65 44 0z" fill-rule="evenodd" clip-rule="evenodd" fill="#fc6"/></svg>