<svg xmlns="http://www.w3.org/2000/svg" width="64" height="64.011"><path d="M0 60c0 4.418 3.582 4 8 4h48c4.418 0 8 .418 8-4H0z" fill="#ccc"/><path d="M58 40h-2V28a4 4 0 00-4-4h-2V12a4 4 0 00-4-4H18a4 4 0 00-4 4v12h-2a4 4 0 00-4 4v12H6a4 4 0 00-4 4v16h60V44a4 4 0 00-4-4z" fill-rule="evenodd" clip-rule="evenodd" fill="#e6e6e6"/><path d="M60 44a2 2 0 01-2-2 2 2 0 00-4 0 2 2 0 01-4 0 2 2 0 00-4 0 2 2 0 01-4 0 2 2 0 00-4 0 2 2 0 01-4 0 2 2 0 00-4 0 2 2 0 01-4 0 2 2 0 00-4 0 2 2 0 01-4 0 2 2 0 00-4 0 2 2 0 01-4 0 2 2 0 00-4 0 2 2 0 01-2 2H2v4h2c1.544 0 2.937-.6 4-1.559C9.063 47.4 10.456 48 12 48s2.937-.6 4-1.559C17.063 47.4 18.456 48 20 48s2.937-.6 4-1.559C25.063 47.4 26.456 48 28 48s2.937-.6 4-1.559C33.063 47.4 34.456 48 36 48s2.937-.6 4-1.559C41.063 47.4 42.456 48 44 48s2.937-.6 4-1.559C49.063 47.4 50.456 48 52 48s2.937-.6 4-1.559C57.063 47.4 58.456 48 60 48h2v-4h-2zM16 32c1.544 0 2.937-.6 4-1.559C21.063 31.4 22.456 32 24 32s2.937-.6 4-1.559C29.063 31.4 30.456 32 32 32s2.937-.6 4-1.559C37.063 31.4 38.456 32 40 32s2.937-.6 4-1.559C45.063 31.4 46.456 32 48 32s2.937-.6 4-1.559C53.063 31.4 54.456 32 56 32v-4a2 2 0 01-2-2 2 2 0 00-4 0 2 2 0 01-4 0 2 2 0 00-4 0 2 2 0 01-4 0 2 2 0 00-4 0 2 2 0 01-4 0 2 2 0 00-4 0 2 2 0 01-4 0 2 2 0 00-4 0 2 2 0 01-4 0 2 2 0 00-4 0 2 2 0 01-2 2v4c1.544 0 2.937-.6 4-1.559C13.063 31.4 14.456 32 16 32zm4-17.557C21.063 15.4 22.456 16 24 16s2.937-.6 4-1.557C29.063 15.4 30.456 16 32 16s2.937-.6 4-1.557C37.063 15.4 38.456 16 40 16s2.937-.6 4-1.557C45.063 15.4 46.456 16 48 16h2v-4h-2a2 2 0 01-2-2 2 2 0 00-4 0 2 2 0 01-4 0 2 2 0 00-4 0 2 2 0 01-4 0 2 2 0 00-4 0 2 2 0 01-4 0 2 2 0 00-4 0 2 2 0 01-2 2h-2v4h2c1.544 0 2.937-.6 4-1.557z" fill-rule="evenodd" clip-rule="evenodd" fill="#f06eaa"/><circle cx="32" cy="4" r="4" fill="#88c057"/></svg>