<svg xmlns="http://www.w3.org/2000/svg" width="64" height="64"><path d="M0 20v40c0 2.211 1.79 4 4 4h56c2.209 0 4-1.789 4-4V20H0z" fill="#ccc"/><path d="M4 20.002v38a2 2 0 002 2h52a2 2 0 002-2v-38H4z" fill="#fff"/><path d="M38 42v-1.998a2 2 0 00-4 0V42h-4.558l6.29-10.969a2.02 2.02 0 00-.732-2.75 1.991 1.991 0 00-2.732.736l-8 13.953c-.032.056-.032.118-.059.175-.042.088-.063.182-.092.276a1.923 1.923 0 00-.092.456c-.003.044-.025.081-.025.125 0 .09.039.166.051.253.018.123.033.241.073.359.049.149.118.28.199.412.051.083.098.162.16.237.112.135.243.243.388.345.048.034.077.084.129.114.025.015.056.014.082.027.152.081.315.126.488.165.092.021.18.048.273.056.054.004.101.031.156.031h8V50a2.001 2.001 0 004 0v-3.998A2 2 0 0038 42z" fill-rule="evenodd" clip-rule="evenodd" fill="#48a0dc"/><path d="M60 0H4a4 4 0 00-4 4.002V20h64V4.002A4 4 0 0060 0zM24 12.002a2 2 0 11.001-4.001A2 2 0 0124 12.002zm16 0A2.001 2.001 0 1140.002 8 2.001 2.001 0 0140 12.002z" fill-rule="evenodd" clip-rule="evenodd" fill="#ed7261"/></svg>