<svg xmlns="http://www.w3.org/2000/svg" width="64" height="64"><path d="M60 12v-2a6 6 0 00-6-6h-2a4 4 0 00-8 0v8a8 8 0 008 8h8a4 4 0 000-8zM12 44H4a4 4 0 000 8v2a6 6 0 006 6h2a4 4 0 008 0v-8a8 8 0 00-8-8z" fill-rule="evenodd" clip-rule="evenodd" fill="#88c057"/><path d="M50 20l-6-6c-2-2-4-4-8-4s-6 2-8 4L14 28c-2 2-4 4-4 8s2 6 4 8l6 6c2 2 4 4 8 4s6-2 8-4l14-14c2-2 4-4 4-8s-2-6-4-8z" fill="#ed7161"/><path d="M38 42h-4v-4a2 2 0 00-2-2h-4v-4a2 2 0 00-2-2h-4v-4a2 2 0 00-2-2h-2l-4 4h4v4a2 2 0 002 2h4v4a2 2 0 002 2h4v4a2 2 0 002 2h4v4l4-4v-2a2 2 0 00-2-2zm10-10h-4v-4a2 2 0 00-2-2h-4v-4a2 2 0 00-2-2h-4v-4a2 2 0 00-2-2h-2l-4 4h4v4a2 2 0 002 2h4v4a2 2 0 002 2h4v4a2 2 0 002 2h4v4l4-4v-2a2 2 0 00-2-2z" fill-rule="evenodd" clip-rule="evenodd" fill="#fff"/></svg>