<svg xmlns="http://www.w3.org/2000/svg" width="52" height="64"><path d="M26 0c0 10.063-6 8.248-6 14a6 6 0 0012 0c0-3.314-.498-8.5-6-14z" fill="#fc6"/><path d="M26 16a2 2 0 00-2 2v8a2 2 0 004 0v-8a2 2 0 00-2-2z" fill="#666"/><path d="M36 24c-14.246 0-17.758-4-22-4-1.564 0-2 2.061-2 4 0 2.607 2 6.984 2 10v30h24V36c0-2.701 2-5.393 2-8 0-2.314-1.373-4-4-4z" fill="#ed7161"/><path d="M12 52a2 2 0 004 0c0-1.105-2-8-2-10 0 2-2 8.895-2 10zm26-16c0 2-2 8.895-2 10a2 2 0 004 0c0-1.105-2-8-2-10zm-18 0a2 2 0 004 0c0-1.105-2-8-2-10 0 2-2 8.895-2 10z" fill-rule="evenodd" clip-rule="evenodd" fill="#ba594c"/><path d="M50 58H2a2 2 0 00-2 2c0 1.104 8.895 4 10 4h32c1.105 0 10-2.896 10-4a2 2 0 00-2-2z" fill="#666"/></svg>