<svg xmlns="http://www.w3.org/2000/svg" width="64" height="64"><path d="M60 12v-2a6 6 0 00-6-6h-2a4 4 0 00-8 0v8a8 8 0 008 8h8a4 4 0 000-8zM12 44H4a4 4 0 000 8v2a6 6 0 006 6h2a4 4 0 008 0v-8a8 8 0 00-8-8z" fill-rule="evenodd" clip-rule="evenodd" fill="#ccc"/><circle cx="32" cy="32" r="24" fill="#ed7161"/><path d="M11.873 45.049a24.133 24.133 0 006.336 6.574C19.23 43.355 25.33 36.203 32 32c-9.006 0-16.719 5.295-20.127 13.049zM8.529 27A24.136 24.136 0 008 32c0 1.408.145 2.779.379 4.119C14.945 30.998 24.313 30.256 32 32c-6.371-6.371-15.576-8.08-23.471-5zm36.518 25.125a24.083 24.083 0 006.576-6.336C43.355 44.77 36.203 38.67 32 32c0 9.006 5.295 16.719 13.047 20.125zM27 55.471c1.613.342 3.283.529 5 .529 1.408 0 2.779-.146 4.121-.379C31 49.053 30.256 39.686 32 32c-6.371 6.371-8.08 15.576-5 23.471zm-8.049-43.598a24.076 24.076 0 00-6.574 6.336C20.645 19.23 27.797 25.33 32 32c0-9.006-5.297-16.719-13.049-20.127zM55.471 37c.342-1.613.529-3.285.529-5 0-1.408-.146-2.779-.379-4.121C49.055 33 39.686 33.744 32 32c6.371 6.371 15.576 8.078 23.471 5zm-3.346-18.049a24.111 24.111 0 00-6.336-6.576C44.77 20.645 38.67 27.797 32 32c9.006 0 16.719-5.297 20.125-13.049zM37 8.529A24.15 24.15 0 0032 8c-1.408 0-2.779.145-4.121.377C33 14.945 33.744 24.313 32 32c6.371-6.371 8.08-15.576 5-23.471z" fill="#e6e6e6"/></svg>