<svg xmlns="http://www.w3.org/2000/svg" width="64" height="64"><path d="M54.017 2.682C44.47-2.839 32.263.437 26.75 9.997L.803 55.004a6 6 0 002.191 8.19A5.982 5.982 0 0011.174 61l25.948-45.006a7.977 7.977 0 0110.906-2.926c3.818 2.207 5.127 7.097 2.922 10.921l-3.992 6.924a6.003 6.003 0 002.192 8.192 5.985 5.985 0 008.179-2.196l3.993-6.924c5.512-9.56 2.241-21.785-7.305-27.303z" fill-rule="evenodd" clip-rule="evenodd" fill="#ed7161"/><path d="M5.913 46.142l7.257 11.397 3.111-5.395-7.257-11.397-3.111 5.395zm44.928-30.265l9.62-7.211a19.859 19.859 0 00-5.109-5.12l-7.208 9.604a7.92 7.92 0 012.697 2.727zm-30.068 4.489l7.257 11.397 3.11-5.394-7.257-11.399-3.11 5.396zm-7.431 12.887L20.6 44.652l3.11-5.395-7.257-11.397-3.111 5.393zm50.39-16.488l-11.763 3.92a7.918 7.918 0 01-1.019 3.305l-.01.018h12.64c.494-2.414.542-4.865.152-7.243zM28.311 7.716l7.068 11.302 1.743-3.023c.041-.07.097-.125.139-.193l-4.17-12.504a19.742 19.742 0 00-4.78 4.418zm19.097 22.418l10.167 6.352 3.203-5.557-11.6-3.865-1.77 3.07zM39.999.438v12.696a7.982 7.982 0 013.323-1.094L47.244.28a19.941 19.941 0 00-7.245.158z" fill="#fff"/></svg>