<svg xmlns="http://www.w3.org/2000/svg" width="63.999" height="56"><path d="M57.989 0c-1.736 1.004-1.51 3.188-2.469 3.743L4.202 31.088c-.91.526-1.299 1.753-1.348 3.096l-1.119.646a2.006 2.006 0 00-.734 2.739c-.957.555-1.285 1.781-.732 2.74s1.777 1.289 2.734.734a2.004 2.004 0 002.738.734l1.121-.646c1.186.628 2.441.904 3.35.379l49.316-30.819c.959-.555 2.736.734 4.471-.27L57.989 0z" fill-rule="evenodd" clip-rule="evenodd" fill="#666"/><path d="M34.009 32.004H14.013L5.015 50.001H2.017a2 2 0 00-2 2V54a2 2 0 002 2h7.998l7.998-15.997h15.996a2 2 0 002-2v-3.999c0-1.106-.895-2-2-2z" fill-rule="evenodd" clip-rule="evenodd" fill="#d9a16a"/><path d="M32.009 16.007c-11.045 0-19.996 8.951-19.996 19.996C12.013 47.047 20.964 56 32.009 56c11.043 0 19.996-8.953 19.996-19.997 0-11.045-8.953-19.996-19.996-19.996zm15.857 17.997H36.835l7.773-7.774c1.715 2.209 2.893 4.857 3.258 7.774zM34.009 20.145c2.916.365 5.564 1.542 7.771 3.257l-7.771 7.772V20.145zm-4 11.031l-7.773-7.773c2.209-1.716 4.855-2.893 7.773-3.258v11.031zm-10.6-4.947l7.773 7.774H16.151c.366-2.916 1.541-5.564 3.258-7.774zm-3.258 11.774H27.18l-7.773 7.772c-1.715-2.209-2.89-4.856-3.256-7.772zm13.858 13.859c-2.918-.365-5.566-1.542-7.773-3.259l7.773-7.774v11.033zm4-11.032l7.773 7.774c-2.209 1.716-4.855 2.894-7.773 3.258V40.83zm10.599 4.945l-7.771-7.772h11.029c-.365 2.916-1.543 5.563-3.258 7.772z" fill-rule="evenodd" clip-rule="evenodd" fill="#d9a16a"/><circle cx="32.009" cy="36.003" r="4" fill="#666"/></svg>