<svg xmlns="http://www.w3.org/2000/svg" width="52" height="64"><path d="M26 0a2 2 0 00-2 2v10a2 2 0 104 0V2a2 2 0 00-2-2z" fill="#999"/><path d="M50 60h-2V48a2 2 0 000-4h-2v-8c0-1.105-2.895-4-4-4 0-7.452-5.104-15.115-12-17.34V12a4 4 0 00-8 0v2.66C15.104 16.885 10 24.548 10 32c-1.105 0-4 2.895-4 4v8H4a2 2 0 100 4v12H2a2 2 0 100 4h48a2 2 0 000-4z" fill-rule="evenodd" clip-rule="evenodd" fill="#ccc"/><path d="M10 48a2 2 0 00-2 2v8a2 2 0 004 0v-8a2 2 0 00-2-2zm8 0a2 2 0 00-2 2v8a2 2 0 004 0v-8a2 2 0 00-2-2zm16 0a2 2 0 00-2 2v8a2 2 0 004 0v-8a2 2 0 00-2-2zm8 0a2 2 0 00-2 2v8a2 2 0 004 0v-8a2 2 0 00-2-2zM16 38a2 2 0 00-4 0v4a2 2 0 004 0v-4zm8 0a2 2 0 10-4 0v4a2 2 0 004 0v-4zm8 0a2 2 0 10-4 0v4a2 2 0 004 0v-4zm8 0a2 2 0 10-4 0v4a2 2 0 004 0v-4zM26 48a2 2 0 00-2 2v8a2 2 0 004 0v-8a2 2 0 00-2-2z" fill-rule="evenodd" clip-rule="evenodd" fill="#fff"/></svg>