<svg xmlns="http://www.w3.org/2000/svg" width="64" height="64"><path d="M64 14c0-8.553-6.412-14-12-14a2 2 0 000 4s8 .258 8 10c0 7.793-4.829 10-6 10-1.172 0-2.272-18-18-18-19.591 0-16.544 18-20 18-3.457 0-4 6.27-4 10s4 7.717 4 12c0 4.281-4 13.014-4 14 0 .984.584 2 2 2 1.367 0 6-8.658 6-10 0-1.344 1.266-4 2-4s2 3.871 2 6-2 7.1-2 8c0 .898.666 2 2 2 2.271 0 6-10.914 6-12 0-2.729-2-4.639-2-6v-8c0-2.186 1.296-8 4-8 6.055 0 4.577 7.48 6 10 1.423 2.518 6 5.102 6 8 0 2.896-4 8.826-4 10s.867 2 2 2 5.686-7.684 6-10c0 0 2 2.246 2 4s-2 7.168-2 8c0 .83.837 2 2 2 1.324 0 6-7.65 6-10 0-2.352-2.914-5.58-4-8-1.087-2.422-2-4.656-2-6 0-1.346-.164-4.018 4-8 4.163-3.982 10-9.447 10-18z" fill-rule="evenodd" clip-rule="evenodd" fill="#4d4d4d"/><path d="M22 18c-1.631-1.725-2-6.105-2-10.002-2.182 0-6 8.002-6 8.002s-2-3.98-2-6c-1.978 0-4 6-4 6s-6 5.584-6 8c0 1.586-2 3.547-2 6 0 3.27 5.045 6 12 6 1.772 0 12 1.678 12-10 0-3.9-.608-6.529-2-8z" fill="#4d4d4d"/><path d="M12 22c-1.104 0-4 4-4 4h2c1.104 0 4-.896 4-2a2 2 0 00-2-2z" fill="#fff"/></svg>