<svg xmlns="http://www.w3.org/2000/svg" width="64" height="64.005"><path d="M40 4a2 2 0 10-.001 3.999A2 2 0 0040 4zM30 4a4 4 0 100 8 4 4 0 000-8zm-9 6a3 3 0 100 6 3 3 0 000-6zm-1-7a3 3 0 10-6 0 3 3 0 006 0z" fill-rule="evenodd" clip-rule="evenodd" fill="#88c057"/><path d="M59 .279a1.991 1.991 0 00-2.732.736l-8 13.953A2.022 2.022 0 0049 17.72c.957.555 2.18.225 2.732-.738l8-13.953A2.02 2.02 0 0059 .279z" fill="#a67c52"/><path d="M55.803 22H8.197C8.197 26 0 32 0 40c0 13.254 14.326 22 32 22s32-8.746 32-22c0-8-8.197-14-8.197-18z" fill="#4d4d4d"/><path d="M14 54c-2.209 0-4 5.791-4 8s-.209 2 2 2 8-3.791 8-6-3.791-4-6-4zm39.816 8c0-2.209-1.758-8-3.928-8C47.721 54 44 55.791 44 58s5.684 6 7.852 6c2.169 0 1.964.209 1.964-2z" fill-rule="evenodd" clip-rule="evenodd" fill="#333"/><path d="M56 14H8a4 4 0 000 8h48a4 4 0 000-8z" fill="#333"/></svg>