<svg xmlns="http://www.w3.org/2000/svg" width="64" height="64"><path d="M30 20s-8.535 4.533-12 8L4 42c-2 2-4 4-4 6s2 4 4 6l6 6c2 2 4 4 6 4s4-2 6-4l16-16c3.109-3.109 6-10 6-10L30 20z" fill="#88c057"/><path d="M58 0c-2 0-6 4-6 6-4.533 4.533-10.684 8.023-18 12l12 12c3.729-7.215 7.109-13.109 12-18 2 0 6-4 6-6s-4-6-6-6z" fill="#666"/><path d="M22 32c-2 0-10 8-10 10s8 10 10 10 10-8 10-10-8-10-10-10z" fill="#e6e6e6"/><path d="M46 30l-3.309-3.309C43.463 25.723 44 24.729 44 24c0-2-2-4-4-4-.729 0-1.723.537-2.691 1.309L34 18l-4 2 4.51 4.51c-.303.545-.51 1.066-.51 1.49 0 2 2 4 4 4 .424 0 .945-.207 1.49-.51L44 34l2-4z" fill-rule="evenodd" clip-rule="evenodd" fill="#fc6"/></svg>