<svg xmlns="http://www.w3.org/2000/svg" width="60" height="64.002"><path d="M33.998 6a2 2 0 10-.001 3.999A2 2 0 0033.998 6zm19.186 28h-15.93c.359 1.965.637 3.467.742 4 .811 4.123 3.012 8 7.994 8 3.852 0 7.996-3.063 7.996-8 0-.725-.32-2.184-.802-4zM6.014 22c0 4.938 4.145 8 7.996 8 4.982 0 7.184-3.877 7.994-8 .105-.533.383-2.035.742-4H6.816c-.482 1.816-.802 3.277-.802 4zM42.992 6a3 3 0 000-6 3 3 0 000 6zm-1.998 14a3 3 0 000-6 3 3 0 000 6z" fill-rule="evenodd" clip-rule="evenodd" fill="#fc6"/><path d="M2.016 22c0 4.895 2.857 9.002 6.949 10.887l-.815 3.029c-.586 2.186-2.275 5.754-5.564 4.877A2.055 2.055 0 00.07 42.24a2.05 2.05 0 001.451 2.51l11.91 3.182a2.048 2.048 0 101.063-3.957c-3.287-.879-2.963-4.813-2.375-6.998l.814-3.029c.356.031.713.052 1.077.052 4.285 0 10.908-2.467 11.992-12 .445-3.91 2-18 2-18l-17.99-4S2.016 15.352 2.016 22zM24.693 7.264C23.631 13.141 22.27 20.646 22.004 22c-.811 4.123-3.012 8-7.994 8-3.852 0-7.996-3.063-7.996-8 0-2.223 2.83-11 5.123-17.75l13.556 3.014zM59.93 58.242a2.055 2.055 0 00-2.516-1.449c-3.289.877-4.979-2.691-5.564-4.877l-.814-3.029A11.917 11.917 0 0057.985 38c0-6.648-7.996-22-7.996-22l-17.99 4s1.555 14.09 2 18c1.084 9.533 7.707 12 11.992 12 .363 0 .721-.021 1.076-.053l.814 3.029c.586 2.186.912 6.119-2.377 6.998a2.05 2.05 0 00-1.451 2.51 2.055 2.055 0 002.516 1.447l11.91-3.182a2.048 2.048 0 001.451-2.507zM45.99 46c-4.982 0-7.184-3.877-7.994-8-.268-1.354-1.627-8.859-2.689-14.736l13.555-3.014C51.156 27 53.986 35.777 53.986 38c0 4.938-4.144 8-7.996 8z" fill-rule="evenodd" clip-rule="evenodd" fill="#48a0dc"/></svg>