<svg xmlns="http://www.w3.org/2000/svg" width="60" height="64"><path d="M18 4s0-2-2-2c0 0 0-2-2-2-5.934 0-8 6-8 6l12 2c0-2 2-2 2-2s0-2-2-2zM4 12s2 .316 2 2v2c0 1.254 1.301 2 2 2 2 0 2-2 2-2v-6H6l-2 2z" fill-rule="evenodd" clip-rule="evenodd" fill="#ed7161"/><path d="M34 60h-2v-6a2 2 0 00-4 0v6h-4a2 2 0 100 4h10a2 2 0 000-4z" fill-rule="evenodd" clip-rule="evenodd" fill="#fc6"/><path fill="#fc6" d="M4 8l-4 4h10V8z"/><path d="M50 14c-2.199 0-4.676 12-14 12-6.393 0-10.846-6.609-14-12S17.309 4 10 4C6.691 4 4 8 4 8s6 4.205 6 8c0 6.359-4 9.844-4 16 0 9.209 5.811 12.889 8 14 11.123 5.648 12.504 10 14 10h4c2.207 0 6.232-4.67 10-8 3.523-3.115 18-4.094 18-18 0-8.561-7.797-16-10-16z" fill="#ccc"/><path d="M50 14c-1.844 0-3.898 8.406-10 11.135V28c0 1.42 1.996 4 4 4 2.762 0 6 1.137 6 4 0 2.609-2 5.158-2 8 0 .137-.008.57-.018 1.141C53.363 42.902 60 39.42 60 30c0-8.561-7.797-16-10-16z" fill="#999"/><path d="M44 26l2-4s-6.277 4-10 4c-4.121 0-7.459-6-14-6-5.963 0-10 5.488-10 12 0 7.592 8.613 12 14 12 22.035 0 22-20 22-20l-4 2z" fill="#b3b3b3"/></svg>