<svg xmlns="http://www.w3.org/2000/svg" width="64" height="60"><path d="M42 56h-4V46a2 2 0 00-4 0v10h-6a2 2 0 100 4h14a2 2 0 000-4z" fill-rule="evenodd" clip-rule="evenodd" fill="#f83"/><path fill="#f83" d="M8 10l-8 8 12 2V10z"/><path d="M54 24c-3.83-3.867-13.777-7.777-18-12-3.572-3.572-3.697-12-14-12C14.35 0 8 6.531 8 10c0 0 4 3.539 4 8 0 2.439-2 4.178-2 12 0 15.211 20.891 22 26 22 4.416 0 9.287-6 12-6 5.949 0 16-3.162 16-6s-5.17-11.123-10-16z" fill="#fc6"/><circle cx="18" cy="10" r="2" fill="#a67c52"/></svg>