<svg xmlns="http://www.w3.org/2000/svg" width="52" height="64"><path d="M50 50c0-.98-.266-8.223-4-12-5.514-5.578-9.84-4.859-14-8-3.521-2.658-4-4.188-4-6s16-5.709 16-14c0-1.607-.754-2-2-2-2.217 0-3.055.943-4 0-1.375-1.375 2-2.48 2-6 0-1.725-1.646-2-4-2-5.227 0-17.965 10.203-22 16-7.434 0-14 9.734-14 14 0 7.418 8 5.307 8 10 0 1.686-2 2.104-2 6 0 2.402 2 3.922 2 6s-2 3.465-2 6c0 3.48 4 4 4 4 0 1.6 7.184 2 16 2 8.059 0 18.553-4.555 20-6 1.721 0 6-.133 6-4 0-2.225-2-2.523-2-4z" fill="#a67c52"/></svg>