<svg xmlns="http://www.w3.org/2000/svg" width="64" height="56"><path d="M38 10.018c-6.602 0-12.102 4.586-13.578 10.736-2.565-2.883-6.26-4.734-10.422-4.734-7.732 0-14 6.268-14 14.002 0 5.225 2.895 9.729 7.135 12.135l22.838 12.705c.972.49 2.013 1.138 3.162 1.138a2.8 2.8 0 00.754-.098c1.455-.381 2.121-1.492 2.861-2.818l12.641-20.967C50.645 29.951 52 27.045 52 24.02c0-7.735-6.268-14.002-14-14.002z" fill="#ba594c"/><path d="M38 14.018c-4.621 0-8.604 3.17-9.689 7.707a4.009 4.009 0 01-3.889 3.084c-1.127 0-2.22-.48-2.988-1.35-1.946-2.199-4.587-3.41-7.434-3.41-5.514 0-10 4.51-10 10.053 0 3.568 1.957 6.9 5.107 8.695l22.76 12.727.395.203c.172.09.391.207.586.301.15-.244.318-.545.41-.709l.066-.117L45.965 30.13C47.322 27.773 48 25.771 48 24.07c0-5.543-4.486-10.052-10-10.052z" fill="#e6e6e6"/><path d="M16 26.008h-4a2 2 0 00-2 2v4c0 1.105.896 2.002 2 2.002h4c1.104 0 2-.896 2-2.002v-4a2 2 0 00-2-2zm10 6h-4a2 2 0 00-2 2.002v4c0 1.104.896 2.002 2 2.002h4c1.104 0 2-.898 2-2.002v-4a2 2 0 00-2-2.002z" fill-rule="evenodd" clip-rule="evenodd" fill="#a67c52"/><path d="M50 6.002c-4.162 0-7.858 1.852-10.422 4.736C38.101 4.586 32.602 0 26 0c-7.732 0-14 6.27-14 14.004 0 3.025 1.355 5.932 2.609 8.094l12.642 20.969c.74 1.328 1.406 2.439 2.859 2.82 1.454.383 2.735-.445 3.917-1.041l22.838-12.705C61.105 29.732 64 25.23 64 20.006c0-7.735-6.269-14.004-14-14.004z" fill="#ed7161"/></svg>