<svg xmlns="http://www.w3.org/2000/svg" width="52" height="64"><path d="M28 49.998h-4c-1.104 0-2 .896-2 2.002v10a2 2 0 002 2h4a2 2 0 002-2V52a2.002 2.002 0 00-2-2.002z" fill="#a67c52"/><path d="M38 46a38.156 38.156 0 01-2.931-3.588C40.359 43.648 46 44.594 46 43c0-3-4.286-5-10-11-1.31-1.375-2.387-2.855-3.315-4.32C36.287 28.467 40 29.03 40 28c0-2-2-4-6-8s-6-10-8-10c-1.938 0-4 6-8 10s-6 6-6 8c0 1.031 3.722.466 7.327-.322C18.393 29.143 17.311 30.624 16 32c-5.715 6-10 8-10 11 0 1.594 5.646.647 10.938-.59A38.477 38.477 0 0114 46C6.571 54 0 54 0 58s26-2 26-2 26 6 26 2-6.571-4-14-12z" fill-rule="evenodd" clip-rule="evenodd" fill="#88c057"/><path d="M26 30s16 4 16 2c0-1.061-1.142-2.132-2.797-3.492C36.268 28.93 26 26 26 26s-10.268 2.93-13.203 2.508C11.142 29.868 10 30.939 10 32c0 2 16-2 16-2zm19.497 13.621C42.396 44.919 26 40 26 40S9.603 44.919 6.503 43.621C4.979 44.795 4 45.821 4 47c0 2.998 22-3 22-3s22 5.998 22 3c0-1.179-.979-2.205-2.503-3.379z" fill-rule="evenodd" clip-rule="evenodd" fill="#638c3f"/><path fill="#ed7161" d="M32 4h-4l-2-4-2 4h-4l2.939 3.451L22 12l4-2 4 2-.939-4.549z"/><path d="M21 38a3 3 0 10-.002 5.998A3 3 0 0021 38zm10-22a3 3 0 10-.002 5.998A3 3 0 0031 16zm12 36a3 3 0 10-.002 5.998A3 3 0 0043 52z" fill-rule="evenodd" clip-rule="evenodd" fill="#ed7161"/><path d="M19 20a3 3 0 10-.002 5.998A3 3 0 0019 20zm-2 10a3 3 0 10-.002 5.998A3 3 0 0017 30zm20 6a3 3 0 10-.002 5.998A3 3 0 0037 36zM25 48a3 3 0 10-.002 5.998A3 3 0 0025 48z" fill-rule="evenodd" clip-rule="evenodd" fill="#fc6"/><path d="M29 28a3 3 0 10-.002 5.998A3 3 0 0029 28zm6 16a3 3 0 10-.002 5.998A3 3 0 0035 44zm-24 4a3 3 0 10-.002 5.998A3 3 0 0011 48z" fill-rule="evenodd" clip-rule="evenodd" fill="#48a0dc"/></svg>