<svg xmlns="http://www.w3.org/2000/svg" width="63.998" height="64"><path d="M61.998 36.021c-18.789 0-34.02-15.231-34.02-34.02a2 2 0 10-4.001.001C23.977 23 41 40.024 61.998 40.024a2.002 2.002 0 000-4.003z" fill-rule="evenodd" clip-rule="evenodd" fill="#ccc"/><path d="M27.979 30.019s-4.627.619-6.004 2.001c-1.16 1.165-6.004 10.006-6.004 14.009 0 2.001 0 2.001 2.002 2.001 4.002 0 12.848-4.839 14.008-6.004 1.375-1.382 2.002-6.004 2.002-6.004l-6.004-6.003z" fill="#ed7161"/><path d="M35.34 28.613c-1.98-1.985-7.361 1.405-7.361 1.405l6.004 6.003c-.001 0 3.335-5.42 1.357-7.408z" fill="#666"/><path d="M18.898 9.338s-4.275-1.792-6.143-1.28C11.184 8.492 2.652 13.774.67 17.271c-.99 1.749-.99 1.749.727 2.76 3.432 2.019 13.416 2.253 14.99 1.821 1.863-.515 4.688-4.237 4.688-4.237l-2.177-8.277z" fill="#fc6"/><path d="M25.906 11.826c-.713-2.734-7.008-2.488-7.008-2.488l2.176 8.276s5.547-3.054 4.832-5.788z" fill="#666"/><path d="M54.604 45.102l-8.238-2.177s-3.715 2.823-4.217 4.69c-.426 1.574-.197 11.556 1.811 14.989 1.008 1.716 1.008 1.716 2.748.725 3.48-1.981 8.746-10.512 9.17-12.087.503-1.866-1.274-6.14-1.274-6.14z" fill="#88c057"/><path d="M52.064 38.076c-2.721-.724-5.699 4.849-5.699 4.849l8.238 2.177c.001 0 .18-6.303-2.539-7.026z" fill="#666"/></svg>