<svg xmlns="http://www.w3.org/2000/svg" width="64" height="64"><path d="M62 32c0-1.66-.676-3.163-1.766-4.249a3.974 3.974 0 00.742-3.517 3.989 3.989 0 00-3.219-2.904A3.99 3.99 0 0057.98 17a3.986 3.986 0 00-3.01-1.963c.002-1.538-.584-3.078-1.758-4.252S50.5 9.027 48.961 9.029A3.984 3.984 0 0047 6.018a3.995 3.995 0 00-4.33.223 3.996 3.996 0 00-2.906-3.219 3.98 3.98 0 00-3.516.742C35.162 2.675 33.66 2 32 2s-3.162.675-4.248 1.764a3.982 3.982 0 00-3.518-.742 3.997 3.997 0 00-2.904 3.219A3.996 3.996 0 0017 6.018a3.98 3.98 0 00-1.961 3.012c-1.539-.002-3.078.582-4.252 1.756s-1.76 2.714-1.758 4.252A3.977 3.977 0 006.02 17a3.992 3.992 0 00.221 4.33 3.995 3.995 0 00-3.219 2.904 3.98 3.98 0 00.742 3.517C2.674 28.838 2 30.34 2 32s.676 3.162 1.764 4.248a3.98 3.98 0 00-.742 3.516 3.995 3.995 0 003.219 2.905A3.993 3.993 0 006.02 47a3.98 3.98 0 003.01 1.961c-.002 1.539.584 3.078 1.758 4.252s2.713 1.758 4.252 1.756a3.98 3.98 0 001.961 3.012 3.992 3.992 0 004.33-.223 3.993 3.993 0 002.904 3.219 3.983 3.983 0 003.518-.741C28.838 61.324 30.34 62 32 62s3.162-.676 4.248-1.766a3.977 3.977 0 003.516.742 3.992 3.992 0 002.906-3.219 3.993 3.993 0 004.33.223 3.986 3.986 0 001.961-3.012 5.985 5.985 0 004.252-1.756 5.985 5.985 0 001.758-4.252 3.986 3.986 0 003.01-1.961 3.99 3.99 0 00-.223-4.331 3.99 3.99 0 003.219-2.905 3.98 3.98 0 00-.742-3.516A5.978 5.978 0 0062 32zM27.953 51.595c-.621-1.272-1.869-2.493-3.561-3.282-1.213-.564-2.447-.809-3.561-.783-.254-1.025-.76-2.002-1.561-2.803s-1.777-1.307-2.803-1.56c.025-1.112-.219-2.349-.783-3.562-.789-1.691-2.01-2.938-3.283-3.559A5.95 5.95 0 0014 32c0-1.566-.615-2.98-1.598-4.049 1.273-.621 2.494-1.867 3.283-3.559.564-1.212.809-2.447.783-3.561 1.025-.253 2.002-.76 2.803-1.561s1.307-1.777 1.561-2.803c1.113.025 2.348-.219 3.561-.783 1.691-.789 2.939-2.01 3.561-3.282C29.021 13.386 30.434 14 32 14s2.979-.614 4.047-1.598c.621 1.273 1.869 2.494 3.561 3.283 1.213.565 2.447.809 3.561.783.254 1.025.76 2.002 1.561 2.803s1.775 1.307 2.801 1.561c-.025 1.112.219 2.349.783 3.561.789 1.691 2.012 2.938 3.285 3.559A5.945 5.945 0 0050 32c0 1.565.613 2.979 1.596 4.047-1.271.621-2.494 1.868-3.283 3.559-.564 1.213-.809 2.449-.783 3.562-1.025.253-2 .759-2.801 1.56s-1.307 1.777-1.561 2.803c-1.113-.025-2.348.218-3.561.783-1.691.789-2.939 2.01-3.561 3.283-1.068-.983-2.48-1.598-4.047-1.598s-2.978.613-4.046 1.596z" fill-rule="evenodd" clip-rule="evenodd" fill="#88c057"/><path d="M34 49.998h-4A2 2 0 0028 52v10a2 2 0 002 2h4a2 2 0 002-2V52a2.002 2.002 0 00-2-2.002zm14.277-7.43a2.018 2.018 0 00-2.855 0l-2.854 2.854a2.02 2.02 0 000 2.854l7.135 7.135a2.016 2.016 0 002.854 0l2.855-2.854a2.02 2.02 0 000-2.854l-7.135-7.135zm-29.699 0a2.018 2.018 0 00-2.855 0l-7.135 7.135a2.02 2.02 0 000 2.854l2.854 2.854a2.018 2.018 0 002.855 0l7.135-7.135a2.02 2.02 0 000-2.854l-2.854-2.854zM0 32c0 1.871 1.063 6 2 6 2.5 0 12-10 12-10 1.645-1.645 3.984-7.986 10-14 0 0-20.822 11.178-22 12-1.018.709-2 3.883-2 6zm62-6c-1.178-.822-22-12-22-12 6.016 6.014 8.355 12.355 10 14 0 0 9.5 10 12 10 .938 0 2-4.129 2-6 0-2.117-.982-5.291-2-6z" fill-rule="evenodd" clip-rule="evenodd" fill="#ed7161"/><path d="M46 0c-4 0-10.088 6-14 6S22 0 18 0s-4 4-4 6c0 1.033 2 8.732 2 10 0 2 0 6 4 6 3.963 0 8-8 12-8s8.037 8 12 8c4 0 4-4 4-6 0-1.268 2-8.967 2-10 0-2 0-6-4-6z" fill-rule="evenodd" clip-rule="evenodd" fill="#ed7161"/><path d="M34 6h-4a2 2 0 00-2 2v4a2 2 0 002 2h4a2 2 0 002-2V8a2 2 0 00-2-2z" fill="#ba594c"/></svg>