<svg xmlns="http://www.w3.org/2000/svg" width="48" height="64"><path d="M28 4h-2V2a2 2 0 00-4 0v2h-2a2 2 0 000 4h2v6a2 2 0 004 0V8h2a2 2 0 000-4z" fill-rule="evenodd" clip-rule="evenodd" fill="#e6b85c"/><path fill-rule="evenodd" clip-rule="evenodd" fill="#ccc" d="M34 40V26L24 16 14 26v14L4 50v14h40V50z"/><path d="M36 30a2 2 0 001.412-3.416L25.415 14.588C25.054 14.225 24.553 14 24 14s-1.054.225-1.415.588L10.588 26.584a2 2 0 102.826 2.83L24 18.828l10.586 10.586c.362.361.862.586 1.414.586zm-22 8a1.99 1.99 0 00-1.415.588L.588 50.584a2 2 0 102.826 2.83l12-12A2 2 0 0014 38zm33.412 12.584L35.415 38.588a2 2 0 10-2.829 2.826l12 12a2 2 0 002.826-2.83z" fill-rule="evenodd" clip-rule="evenodd" fill="#ed7161"/><path d="M24 36a4 4 0 100-8 4 4 0 000 8zm0 12a6 6 0 00-6 6v10h12V54a6 6 0 00-6-6z" fill-rule="evenodd" clip-rule="evenodd" fill="#999"/></svg>