<svg xmlns="http://www.w3.org/2000/svg" width="64" height="50"><path d="M12 32C10.023 33.975 0 42 0 44c0 1.938 2 4 4 4s10-10 12-12l-4-4z" fill="#48a0dc"/><path d="M42 0c-4 0-8.146 10.145-30 32l4 4c.92-.922 1.98-2 4-2 2 0 14 16 14 16l30-30S46 0 42 0z" fill="#ccc"/><path d="M62 22h-4c-2.438 0-5.055 4-10 4s-4.766 8.766-6 10c-1.234 1.232-6.246 2.246-8 4-.996.996-2.141 4.781-2.951 6.152A293.227 293.227 0 0134 50l10.791-10.791C44.37 41.174 44 43.141 44 44a2 2 0 004 0c0-1.155-.667-4.309-1.23-6.77l5.523-5.523C52.117 32.688 52 33.52 52 34a2 2 0 004 0c0-.91-.414-3.06-.865-5.135L62 22z" fill-rule="evenodd" clip-rule="evenodd" fill="#ed7161"/><circle cx="42" cy="8" r="2" fill="#fff"/></svg>