<svg xmlns="http://www.w3.org/2000/svg" width="64" height="64"><path d="M60 48c-1.881-1.881-18-10-18-10H22S5.879 46.119 4 48C.238 51.76 0 64 0 64h64s-.24-12.24-4-16z" fill="#48a0dc"/><path d="M10.656 43.936L14 64h8l-3.992-23.957a362.847 362.847 0 00-7.352 3.893zm35.336-3.893L42 64h8l3.344-20.063a358.145 358.145 0 00-7.352-3.894z" fill-rule="evenodd" clip-rule="evenodd" fill="#666"/><path d="M22 38s-3.156 1.59-6.836 3.523C16.256 43.018 18.008 44 20 44a6 6 0 0012 0 6 6 0 0012 0c1.992 0 3.744-.982 4.836-2.477A522.805 522.805 0 0042 38l-2-2H24l-2 2z" fill-rule="evenodd" clip-rule="evenodd" fill="#fc6"/><path d="M38 29.998H26l-2 6c0 1.105 4.895 4 6 4h4c1.104 0 6-2.895 6-4l-2-6z" fill="#dbb59a"/><path d="M54 10a4 4 0 00-4-4c-.18 0-.352.029-.525.053C48.789 4.834 47.498 4 46 4s-2.789.834-3.475 2.053C42.352 6.029 42.18 6 42 6a4 4 0 000 8c0 1.746 1.125 3.215 2.686 3.762-.063.09-.105.195-.16.291C44.352 18.029 44.18 18 44 18a4 4 0 000 8c1.498 0 2.789-.834 3.475-2.053.173.024.345.053.525.053a4 4 0 004-4c0-.18-.029-.352-.053-.525C53.166 18.789 54 17.498 54 16a3.974 3.974 0 00-1.379-3A3.974 3.974 0 0054 10zM22 6c-.18 0-.352.029-.525.053C20.789 4.834 19.498 4 18 4s-2.789.834-3.475 2.053C14.352 6.029 14.18 6 14 6a4 4 0 00-4 4c0 1.201.541 2.268 1.379 3A3.974 3.974 0 0010 16c0 1.498.834 2.789 2.053 3.475-.024.173-.053.345-.053.525a4 4 0 004 4c.18 0 .352-.029.525-.053C17.211 25.166 18.502 26 20 26a4 4 0 000-8c-.18 0-.352.029-.525.053-.055-.096-.098-.201-.16-.291A3.99 3.99 0 0022 14a4 4 0 000-8z" fill-rule="evenodd" clip-rule="evenodd" fill="#ed7161"/><path d="M32 0c-7.732 0-14 5.998-14 13.998 0 6 2 10 4 14 2 4.002 6.08 8 10 8 3.918 0 8-3.998 10-8 2-4 4-8 4-14C46 5.998 39.73 0 32 0z" fill="#f5caab"/><circle cx="32" cy="22" r="4" fill="#ed7161"/></svg>