<svg xmlns="http://www.w3.org/2000/svg" width="63.999" height="64"><path d="M63.353 17.067L46.934.646c-.596-.595-1.468-.802-2.228-.526L25.802 6.975a1.922 1.922 0 00-1.002.822L.28 49.384c-.483.805-.331 1.868.365 2.563l11.407 11.406c.696.698 1.759.849 2.565.365L56.2 39.199c.383-.229.672-.581.826-1.001l6.854-18.905c.272-.76.067-1.632-.527-2.226z" fill="#8c6845"/><path fill="#a67c52" d="M44.591 5.927l-15.136 5.719-23.42 37.736 8.568 8.577 37.7-23.443 5.711-15.153z"/><path d="M41.794 24.845l1.607-1.617c.75-.755.75-1.976 0-2.73a1.91 1.91 0 00-2.714 0l-1.606 1.615-1.563-1.574a2.051 2.051 0 00-2.917 0 2.089 2.089 0 000 2.941l1.56 1.571-3.617 3.638a1.939 1.939 0 000 2.731c.75.755 1.966.755 2.716 0l3.613-3.636 1.564 1.576a2.053 2.053 0 002.919 0 2.089 2.089 0 000-2.941l-1.562-1.574z" fill-rule="evenodd" clip-rule="evenodd" fill="#fc6"/></svg>