<svg xmlns="http://www.w3.org/2000/svg" width="44" height="64"><path d="M43.857 61.258l-20-50.002a2.001 2.001 0 00-3.714 0l-20 50.002A2.002 2.002 0 002 64h40a2.002 2.002 0 001.857-2.742z" fill="#f06eaa"/><path d="M26.141 16.965l-9.201 2.301-2.666 6.666 14.049-3.514-2.182-5.453zm4.363 10.908l-18.896 4.725-2.668 6.666 23.746-5.936-2.182-5.455zm8.726 21.818L.939 59.264l-.797 1.994A2.002 2.002 0 002 64h4l35.414-8.854-2.184-5.455zm-4.363-10.908L6.273 45.932l-2.666 6.666 33.441-8.359-2.181-5.456z" fill="#ccc"/><path d="M29.408 2.592a2.076 2.076 0 00-2.939 0L24 5.061V2a2 2 0 10-4 0v3.018l-2.43-2.43c-.807-.807-2.113-.807-2.92 0s-.807 2.113 0 2.92l5.84 5.84c.027.027.063.035.092.061.19.191.422.34.677.441a2.078 2.078 0 002.272-.441l5.877-5.879a2.078 2.078 0 000-2.938z" fill-rule="evenodd" clip-rule="evenodd" fill="#88c057"/></svg>