<svg xmlns="http://www.w3.org/2000/svg" width="63.999" height="64"><path d="M48.011 22.01c-1.998-2.002-7.994-4.002-9.992-6.004-1.999-2-1.999-4-1.999-4V24.01s0 2.002 1.999 4.002c1.998 2.002 7.994 4.002 9.992 6.002 1.999 2.002 1.999 4.002 1.999 4.002V26.012s0-2.002-1.999-4.002z" fill="#ba594c"/><path d="M48.011 2c-1.998 2.002-7.994 4.002-9.992 6.004-1.999 2-1.999 4.002-1.999 4.002V24.01s0-2 1.999-4.002c1.998-2 7.994-4.002 9.992-6.002 1.999-2 1.999-4.002 1.999-4.002V2s0-2-1.999 0zm-9.992 34.016c-1.999 2-1.999 4.002-1.999 4.002v8.004s0 2 1.999 0c1.998-2.002 7.994-4.002 9.992-6.004 1.999-2 1.999-4.002 1.999-4.002V26.012s0 2-1.999 4.002c-1.998 2-7.994 4-9.992 6.002z" fill-rule="evenodd" clip-rule="evenodd" fill="#ed7161"/><path d="M26.026 36.016c-1.998-2.002-7.994-4.002-9.992-6.002-1.999-2.002-1.999-4.002-1.999-4.002v12.004s0 2.002 1.999 4.002c1.998 2.002 7.994 4.002 9.992 6.004 1.999 2 1.999 4.002 1.999 4.002V40.018s0-2.002-1.999-4.002z" fill="#638c3f"/><path d="M26.026 16.006c-1.998 2.002-7.994 4.002-9.992 6.004-1.999 2-1.999 4.002-1.999 4.002v12.004s0-2 1.999-4.002c1.998-2 7.994-4 9.992-6.002 1.999-2 1.999-4.002 1.999-4.002v-8.004s0-2-1.999 0zm-9.992 34.015c-1.999 2.002-1.999 4.002-1.999 4.002v8.004s0 2 1.999 0c1.998-2.002 7.994-4.002 9.992-6.002 1.999-2.002 1.999-4.002 1.999-4.002V40.018s0 2-1.999 4.002c-1.998 2-7.994 4.001-9.992 6.001zm33.976 2.002a3.999 3.999 0 00-3.997 4.002c0 2.209 1.789 4 3.997 4a3.999 3.999 0 003.997-4 4 4 0 00-3.997-4.002zM10.038 10.004a4 4 0 00-3.997 4.002 4 4 0 003.997 4.002c2.208 0 3.997-1.791 3.997-4.002s-1.789-4.002-3.997-4.002zm53.242 13.99l-3.294-3.297a2.327 2.327 0 00-3.293 0 2.334 2.334 0 000 3.297l3.293 3.297c.909.91 2.384.91 3.294 0a2.334 2.334 0 000-3.297z" fill-rule="evenodd" clip-rule="evenodd" fill="#88c057"/><path d="M22.029 0a4 4 0 00-3.997 4.002 4 4 0 003.997 4.002 4 4 0 003.997-4.002A3.999 3.999 0 0022.029 0zm37.973 36.016a4 4 0 00-3.997 4.002 4 4 0 003.997 4.002 4 4 0 003.997-4.002 4 4 0 00-3.997-4.002zM4.006 38.658a2.344 2.344 0 00-3.319 0 2.351 2.351 0 000 3.322l3.319 3.324a2.347 2.347 0 003.318 0 2.35 2.35 0 000-3.324l-3.318-3.322zm32.05 18.01l-3.319 3.32a2.348 2.348 0 103.319 3.324l3.32-3.324a2.349 2.349 0 000-3.32 2.342 2.342 0 00-3.32 0z" fill-rule="evenodd" clip-rule="evenodd" fill="#ed7161"/></svg>