<svg xmlns="http://www.w3.org/2000/svg" width="64" height="64"><path d="M28 30C28 0 8 0 8 0l4 6v43.898C5.904 54.734 4 60 4 60c2.475 2.475 6.146 4 12 4 16 0 27.195-10 34-10 4.254 0 6 2 6 2 0 4.75-2 8-2 8s6 0 6-12c0-16-32-22-32-22z" fill-rule="evenodd" clip-rule="evenodd" fill="#ccbea3"/><path d="M54 0C36 0 2 44 2 44l18 18s44-34 44-52c0-8-2-10-10-10z" fill="#fc6"/><path d="M8 0s2 4 2 8C10 32 0 32 0 48c0 5.852 1.525 9.523 4 12 0 0 16-6.479 16-34C20 0 8 0 8 0z" fill="#88c057"/><path d="M38 42C10.479 42 4 60 4 60c2.475 2.475 6.146 4 12 4 16 0 27.195-10 34-10 4.254 0 6 2 6 2s0-14-18-14z" fill="#75a64b"/></svg>