<svg xmlns="http://www.w3.org/2000/svg" width="64" height="48"><path d="M56 44H8a2 2 0 100 4h48a2 2 0 000-4z" fill="#e6b85c"/><path d="M54 26c-1.428 0-2.855-9.152-4.283-14.4A3.992 3.992 0 0052 8c0-2.211-1.791-4-4-4s-4 1.789-4 4a3.98 3.98 0 001.277 2.916C42.092 15.527 37.457 24 36 24c-2 0-2-18-4-18s-2 18-4 18c-1.457 0-6.092-8.473-9.277-13.084A3.98 3.98 0 0020 8c0-2.211-1.791-4-4-4s-4 1.789-4 4c0 1.592.938 2.955 2.283 3.6C12.855 16.848 11.428 26 10 26c-2 0-6-16-6-16l6 34h44l6-34s-4 16-6 16z" fill-rule="evenodd" clip-rule="evenodd" fill="#cca352"/><path d="M62 8c-2 0-14 16-16 16S34 4 32 4 20 24 18 24 4 8 2 8s6 36 6 36h48s8-36 6-36z" fill="#fc6"/><path d="M32 0a4 4 0 100 8 4 4 0 000-8zM2 4C.895 4 0 5.789 0 8c0 2.209.895 4 2 4 1.104 0 2-1.791 2-4 0-2.211-.896-4-2-4zm60 0c-1.105 0-2 1.789-2 4 0 2.209.895 4 2 4s2-1.791 2-4c0-2.211-.895-4-2-4z" fill-rule="evenodd" clip-rule="evenodd" fill="#ed7161"/><path d="M34 34V23.998a2 2 0 00-2-2h-2A2 2 0 0030 26v8a1.999 1.999 0 100 3.998h4A2 2 0 0034 34z" fill-rule="evenodd" clip-rule="evenodd" fill="#fff"/></svg>