<svg xmlns="http://www.w3.org/2000/svg" width="56" height="64.002"><ellipse cx="28" cy="32.002" rx="24" ry="10" fill="#e6e6e6"/><path d="M44 32.002c-8 0-8 2-16 2s-8-2-16-2-12 2-12 6 2.049 4 2.049 4l1.951 2h48l2-2s2 0 2-4-4-6-12-6z" fill="#fc6"/><path d="M53.623 40.832c-.377-.521-.896-.83-1.623-.83-4 0-4 4-8 4s-4-4-8-4-4 4-7.999 4c-4.001 0-4.001-4-8.002-4-3.999 0-3.999 4-7.998 4-4.001 0-4.001-4-8.001-4a2 2 0 00-1.897 2.633l8 20A2 2 0 0012 64.002h32c.861 0 1.625-.551 1.896-1.367l8-20a1.996 1.996 0 00-.273-1.803z" fill="#48a0dc"/><path d="M26 43.539v20.463h4V43.539a4.405 4.405 0 01-1.999.463A4.414 4.414 0 0126 43.539zM6.18 40.543L14 64.002h4l-6.697-20.09c-2.484-.348-3.285-2.377-5.123-3.369zm13.819-.541c-1.812 0-2.798.826-3.712 1.725L20 64.002h4l-4.001-24zm24.698 3.91L38 64.002h4l7.82-23.459c-1.839.992-2.639 3.021-5.123 3.369zM36 40.002l-4 24h4l3.713-22.275c-.914-.899-1.9-1.725-3.713-1.725z" fill-rule="evenodd" clip-rule="evenodd" fill="#408ec2"/><path d="M30 12.002h-4a2 2 0 00-2 2v8h8v-8a2 2 0 00-2-2z" fill="#f06eaa"/><path d="M28 0c0 6.039-4.001 4.951-4.001 8.4 0 1.988 1.791 3.602 4.001 3.602 2.209 0 3.999-1.613 3.999-3.602S31.667 3.301 28 0z" fill="#fc6"/></svg>