<svg xmlns="http://www.w3.org/2000/svg" width="64" height="64.001"><path d="M60.512 52.167l-38.05-10.078c-.175-.047-.347-.033-.519-.031.001-.174.014-.346-.032-.52L11.833 3.489c-.277-1.053-1.345-1.674-2.384-1.393S7.795 3.458 8.073 4.509L18.15 42.558c.231.875 1.014 1.418 1.867 1.424.007.854.551 1.637 1.426 1.869l38.049 10.076a1.97 1.97 0 002.412-1.377 1.942 1.942 0 00-1.392-2.383z" fill-rule="evenodd" clip-rule="evenodd" fill="#ccc"/><path d="M63.887 1.526c-.004-.016.001-.029-.003-.043-.007-.025-.026-.043-.034-.068a1.991 1.991 0 00-.485-.778 1.952 1.952 0 00-.774-.485c-.027-.008-.046-.029-.073-.037-.016-.004-.03 0-.046-.002-.348-.102-.714-.145-1.09-.045l-7.887 2.07c-1.09.285-1.735 1.379-1.443 2.447.291 1.064 1.411 1.697 2.5 1.412l.726-.189-32.205 32.207h-3.084a1.996 1.996 0 10-.761 3.844l-.153.154h-3.084a1.999 1.999 0 100 3.998h1.999v1.998a2 2 0 103.998 0v-3.211l.132-.133c.273.779.995 1.346 1.867 1.346a1.999 1.999 0 001.998-2v-3.209L58.236 8.55l-.235.898c-.286 1.088.347 2.209 1.413 2.5 1.066.293 2.162-.355 2.448-1.443l2.069-7.889c.099-.375.055-.742-.044-1.09z" fill-rule="evenodd" clip-rule="evenodd" fill="#666"/><path d="M57.968 56.005c0-7.996 5.997-13.992 5.997-23.986 0-7.729-6.266-13.992-13.992-13.992-.166 0-.321.039-.486.045a14.049 14.049 0 00-3.557-3.557c.006-.166.045-.32.045-.486C45.975 6.3 39.71.037 31.983.037c-9.994 0-15.991 5.996-23.986 5.996a3.997 3.997 0 00-3.998-3.996 3.997 3.997 0 10-.001 7.993c9.994 0 15.991-3.998 23.986-3.998 5.52 0 9.995 4.475 9.995 9.994 5.519 0 9.994 4.475 9.994 9.996 5.52 0 9.994 4.473 9.994 9.994 0 7.994-3.997 13.992-3.997 23.986a3.998 3.998 0 107.995 0c0-2.207-1.686-3.997-3.997-3.997z" fill="#ed7161"/></svg>