<svg xmlns="http://www.w3.org/2000/svg" width="64.008" height="64"><path d="M30.008 12c-11.565 0-20.697 2.898-28 8l4 14c6.953-7.676 17.304-12 32-12 12.227 0 26 4 26 4s-6.693-14-34-14z" fill="#ccc"/><path d="M60.008 47.998c-1.403-1.402-11.842-7.39-17.054-10.34 1.64-4.757 3.054-12.614 3.054-17.658 0-8-6.269-20-14-20-7.732 0-14 12-14 20 0 5.044 1.414 12.901 3.054 17.657-5.213 2.951-15.652 8.939-17.054 10.341C.247 51.76.008 64 .008 64h64s-.24-12.24-4-16.002z" fill-rule="evenodd" clip-rule="evenodd" fill="#666"/><path d="M32.008 8c-3.963 0-8 6-8 14 0 12 4 28 8 28s8-16 8-28c0-8-4.037-14-8-14z" fill="#333"/><path d="M4.093 19.465c-.298-1.055-1.438-1.682-2.55-1.398-1.109.283-1.769 1.367-1.472 2.422L12.008 64h4L4.093 19.465z" fill="#a67c52"/></svg>