<svg xmlns="http://www.w3.org/2000/svg" width="64" height="64"><path d="M60 48c-1.881-1.881-20-10-20-10l-2-6H26l-2 6S5.879 46.119 4 48C.24 51.76 0 64 0 64h64s-.24-12.24-4-16z" fill-rule="evenodd" clip-rule="evenodd" fill="#ed7161"/><path d="M54 34a2 2 0 00-2 2v28h4V36a2 2 0 00-2-2z" fill="#a67c52"/><path d="M62 14a2 2 0 00-2 2v12a2 2 0 01-4 0V12a2 2 0 10-4 0v16a2 2 0 01-4 0V16a2 2 0 10-4 0v14a4 4 0 004 4h4v2a2 2 0 004 0v-2h4a4 4 0 004-4V16a2 2 0 00-2-2z" fill-rule="evenodd" clip-rule="evenodd" fill="#ccc"/><path d="M48 0l-7.799 3.899C37.895 2.641 35.066 2 32 2s-5.895.641-8.201 1.899L16 0l3.332 8.328C18.486 9.921 18 11.804 18 14c0 6 2 9.998 4 14 2 3.998 6.082 7.998 10 7.998s8-4 10-7.998c2-4.002 4-8 4-14 0-2.196-.486-4.079-1.332-5.672L48 0z" fill-rule="evenodd" clip-rule="evenodd" fill="#ed7161"/><path d="M32 34c-2.801 0-6-2-6-2s2.777 12 6 12 6-12 6-12-2.824 2-6 2zm0-34c-7.732 0-14 4.268-14 12v2.004c0 1.346.113 2.578.291 3.746C19.15 14.131 21.826 10 25 10c3.865 0 7 2.133 7 6 0-3.867 3.135-6 7-6 3.172 0 5.848 4.129 6.707 7.748A24.38 24.38 0 0046 14v-2c0-7.732-6.268-12-14-12z" fill="#333"/></svg>