<svg xmlns="http://www.w3.org/2000/svg" width="63.999" height="64"><path d="M60 47.998C58.12 46.119 44.005 36.002 44 36c.003-.004 6-8.896 6-10a2 2 0 00-2-2H16a2 2 0 00-2 2c0 1.104 5.995 9.994 6 10-.002 0-14.12 10.119-16 11.998C.239 51.76 0 64 0 64h63.999S63.76 51.76 60 47.998z" fill="#4d4d4d"/><path fill="#fff" d="M40 35.998H24L22 38l4 26h12l4-26z"/><path fill="#999" d="M32 48L22 38v4l10 9.943L42 42v-4z"/><path d="M42 38l-8 26h18c0-12-10-26-10-26zM12 64h18l-8-26S12 52 12 64z" fill="#ed7161"/><path d="M38 30H26l-2 5.998c0 1.105 4.895 4 6 4h4c1.104 0 6-2.895 6-4L38 30z" fill="#dbb59a"/><path d="M45.95 15.164c.018-.387.049-.76.049-1.164 0-8-6.268-12-13.999-12-7.732 0-14 4-14 12 0 .404.031.777.049 1.163C16.528 13.577 14.584 12 14 12c0 1.186 2 4.936 2 6 0 .64 1.767 2.68 3.418 4.206.729 2.063 1.651 3.932 2.582 5.794 2 3.998 6.081 7.998 10 7.998 3.918 0 8-4 10-7.998.931-1.862 1.853-3.731 2.581-5.794C46.233 20.681 48 18.64 48 18c0-1.064 2-4.814 2-6-.584 0-2.529 1.578-4.05 3.164z" fill-rule="evenodd" clip-rule="evenodd" fill="#f6cbad"/><path d="M32 0c-7.732 0-14 4.268-14 12v2.004c0 1.346.113 2.578.292 3.746C19.15 14.131 21.827 10 25 10c3.865 0 7 2.133 7 6 0-3.867 3.134-6 7-6 3.172 0 5.849 4.129 6.708 7.748.179-1.168.291-2.402.291-3.748l.001-.006V12c0-7.732-6.269-12-14-12z" fill="#333"/></svg>