<svg xmlns="http://www.w3.org/2000/svg" width="52" height="64"><path d="M26 0C12.745 0 2 20.326 2 38c0 17.672 10.745 26 24 26s24-8.328 24-26C50 20.326 39.255 0 26 0z" fill="#fc6"/><path d="M42 50c-4 0-3.09-4-8-4-4.911 0-4 4-8 4s-3.09-4-8.001-4C13.089 46 14 50 10 50c-3.719 0-3.252-3.418-7.105-3.904C5.704 58.213 14.972 64 26 64s20.296-5.787 23.105-17.904C45.252 46.582 45.719 50 42 50zM18 14c4 0 3.089 4 8 4 4.91 0 4-4 8-4s3.089 4 8 4h3.805C41.48 7.834 34.227 0 26 0S10.52 7.834 6.195 18H10c4.91 0 4-4 8-4zM4 32a4 4 0 108 0 4 4 0 00-8 0zm12 0a4 4 0 108 0 4 4 0 00-8 0zM2 38c0 1.398.09 2.719.221 4H49.78c.13-1.281.22-2.602.22-4H2zm26-6a4 4 0 108 0 4 4 0 00-8 0zm19.315-10H4.685a53.622 53.622 0 00-1.16 4h44.951a53.629 53.629 0 00-1.161-4zM40 32a4 4 0 108 0 4 4 0 00-8 0z" fill-rule="evenodd" clip-rule="evenodd" fill="#88c057"/></svg>