<svg xmlns="http://www.w3.org/2000/svg" width="52" height="64"><path d="M26 0C12.745 0 2 20.326 2 38c0 17.672 10.745 26 24 26s24-8.328 24-26C50 20.326 39.255 0 26 0z" fill="#ed7161"/><path d="M39.936 8H12.064a37.364 37.364 0 00-2.804 4h33.479a37.358 37.358 0 00-2.803-4zm8.999 20H3.065a50.487 50.487 0 00-1.016 8h47.9a50.367 50.367 0 00-1.014-8zM7.559 56h36.883a21.833 21.833 0 002.584-4H4.975a21.833 21.833 0 002.584 4z" fill-rule="evenodd" clip-rule="evenodd" fill="#fc6"/><path d="M48 43.172l-2.585-2.584C45.054 40.225 44.553 40 44 40s-1.054.225-1.415.588L40 43.172l-2.585-2.584C37.054 40.225 36.553 40 36 40s-1.054.225-1.415.588L32 43.172l-2.585-2.584C29.054 40.225 28.553 40 28 40s-1.054.225-1.415.588L24 43.172l-2.585-2.584C21.054 40.225 20.553 40 20 40s-1.054.225-1.415.588L16 43.172l-2.585-2.584C13.054 40.225 12.553 40 12 40s-1.054.225-1.415.588L8 43.172 5.418 40.59a1.999 1.999 0 00-2.836 0l-.464.465c.132 1.744.397 3.367.747 4.908L4 44.828l2.586 2.586a1.998 1.998 0 002.828 0L12 44.828l2.586 2.586a1.998 1.998 0 002.828 0L20 44.828l2.586 2.586a1.998 1.998 0 002.828 0L28 44.828l2.586 2.586a1.998 1.998 0 002.828 0L36 44.828l2.586 2.586a1.998 1.998 0 002.828 0L44 44.828l2.586 2.586c.362.361.862.586 1.414.586.225 0 .432-.061.634-.129.602-2 1.033-4.174 1.229-6.563L48 43.172zM8 24c.552 0 1.052-.225 1.414-.586L12 20.828l2.586 2.586a1.998 1.998 0 002.828 0L20 20.828l2.586 2.586a1.998 1.998 0 002.828 0L28 20.828l2.586 2.586a1.998 1.998 0 002.828 0L36 20.828l2.586 2.586a1.998 1.998 0 002.828 0L44 20.828l2.586 2.586c.347.346.823.553 1.346.572a52.494 52.494 0 00-2.858-7.631C44.759 16.15 44.404 16 44 16a1.99 1.99 0 00-1.415.588L40 19.172l-2.585-2.584C37.054 16.225 36.553 16 36 16s-1.054.225-1.415.588L32 19.172l-2.585-2.584C29.054 16.225 28.553 16 28 16s-1.054.225-1.415.588L24 19.172l-2.585-2.584C21.054 16.225 20.553 16 20 16s-1.054.225-1.415.588L16 19.172l-2.585-2.584C13.054 16.225 12.553 16 12 16s-1.054.225-1.415.588L8 19.172l-1.614-1.615a52.12 52.12 0 00-1.58 4.076l1.78 1.781c.362.361.862.586 1.414.586z" fill-rule="evenodd" clip-rule="evenodd" fill="#fff"/></svg>