<svg xmlns="http://www.w3.org/2000/svg" width="92" height="64"><path d="M44 22c-6.627 0-12 10.164-12 19s5.373 13 12 13 12-4.164 12-13-5.373-19-12-19z" fill="#fc6"/><path d="M60 20c-6.627 0-12 10.162-12 19 0 8.836 5.373 13 12 13s12-4.164 12-13c0-8.838-5.373-19-12-19z" fill="#ed7161"/><path d="M32 22c-6.627 0-12 10.164-12 19s5.373 13 12 13 12-4.164 12-13-5.373-19-12-19z" fill="#48a0dc"/><path d="M16 40c0 13.254 10.744 24 24 24h12c13.254 0 24-10.746 24-24H16z" fill="#d9b693"/><path d="M53 59l4 4-.574.574c9.701-1.811 17.338-9.447 19.148-19.148L74 46l-4-4 2-2H62l2 2-4 4-4-4 2-2H48l2 2-4 4-4-4 2-2H34l2 2-4 4-4-4 2-2H20l2 2-4 4-1.576-1.576c1.811 9.703 9.449 17.34 19.152 19.152L35 63l4-4 4 4-1 1h8l-1-1 4-4zm14-14l4 4-4 4-4-4 4-4zm-3 11l-4 4-4-4 4-4 4 4zM53 45l4 4-4 4-4-4 4-4zm-32 4l4-4 4 4-4 4-4-4zm11 11l-4-4 4-4 4 4-4 4zm3-11l4-4 4 4-4 4-4-4zm11 11l-4-4 4-4 4 4-4 4z" fill-rule="evenodd" clip-rule="evenodd" fill="#bfa182"/><path d="M76 36H16a2 2 0 100 4h60a2 2 0 000-4z" fill="#a67c52"/><path d="M46 2C29.432 2 16 15.432 16 32v4h4v-4C20 17.641 31.641 6 46 6s26 11.641 26 26v4h4v-4C76 15.432 62.568 2 46 2z" fill-rule="evenodd" clip-rule="evenodd" fill="#d9b693"/><path d="M54 0c-3.088 0-6.25 4-8 4s-4.912-4-8-4c-1.688 0-2 2.375-2 4v4c0 2 .563 4 4 4 2.063 0 2.838-4 6-4s3.938 4 6 4c3.438 0 4-2 4-4V4c0-1.625-.312-4-2-4z" fill-rule="evenodd" clip-rule="evenodd" fill="#ed7161"/><path d="M46 2a2 2 0 00-2 2v2a2 2 0 004 0V4a2 2 0 00-2-2z" fill="#ba594c"/></svg>