<svg xmlns="http://www.w3.org/2000/svg" width="64" height="64"><path d="M60 47.999c-1.881-1.881-18-9.998-18-9.998H22S5.879 46.118 4 47.999C.24 51.758 0 64 0 64h64s-.24-12.242-4-16.001z" fill="#88c057"/><path d="M32 52a2.001 2.001 0 10-.002-4.002A2.001 2.001 0 0032 52zm0 4a2 2 0 10-.001 3.999A2 2 0 0032 56z" fill-rule="evenodd" clip-rule="evenodd" fill="#fff"/><path d="M40 35.999H24l-2 2.002v4a4 4 0 004 4c2.299 0 4.613-4 6-4 1.385 0 3.701 4 6 4a4 4 0 004-4v-4l-2-2.002z" fill="#ed7161"/><path d="M38 29.999H26l-2 6c0 1.105 4.895 4 6 4h4c1.104 0 6-2.895 6-4l-2-6z" fill="#dbb59a"/><path d="M45.973 17.143c.017-.366.027-.745.027-1.143 0-8-6.27-11.998-14-11.998C24.268 4.002 18 8 18 16c0 .399.01.778.027 1.143-1.517-1.579-3.446-3.141-4.027-3.141 0 1.188 2 4.938 2 6 0 .773 2.578 3.592 4.418 5.073.501.908 1.041 1.843 1.582 2.925 2 4 6.082 8 10 8s8-4 10-8c.541-1.082 1.081-2.017 1.582-2.925 1.84-1.48 4.418-4.3 4.418-5.073 0-1.063 2-4.813 2-6-.581-.001-2.511 1.562-4.027 3.141z" fill-rule="evenodd" clip-rule="evenodd" fill="#f5caab"/><path d="M32 2c-4.684 0-10 1.732-10 4.002-2.957 0-4 6.617-4 11.998 0 .9.08 1.844.205 2.805.514-2.646 2.105-6.803 5.795-6.803h8c3.063 0 8-1.498 8-4.002 2.596-.035 6 3.662 6 8 0-7.864-1.285-16-14-16z" fill="#8c6845"/><path d="M32 0c-7.732 0-14 4.002-14 14.001 0 .217.064.391.082.596.426-3.674 6.461-6.595 13.918-6.595 7.455 0 13.492 2.921 13.918 6.595.016-.205.082-.379.082-.596 0-4.189 1.215-5.216 4-8C47.625 3.627 43.295 0 32 0z" fill-rule="evenodd" clip-rule="evenodd" fill="#88c057"/><path d="M32 10.001c7.16 0 13.054 1.723 13.889 8.329.068-.746.111-1.517.111-2.33 0-8-6.268-9.998-14-9.998S18 8 18 16c0 .814.043 1.585.111 2.331.835-6.606 6.729-8.33 13.889-8.33z" fill-rule="evenodd" clip-rule="evenodd" fill="#ed7161"/><circle cx="49" cy="5.002" r="3" fill="#ed7161"/></svg>