<svg xmlns="http://www.w3.org/2000/svg" width="64" height="52.002"><path d="M54 46.002c0-3.469 10-5.246 10-16 0-4.637-5.402-8-8-8-4.838 0-8-6-8-6V36s1.967-3.998 4-3.998c2.221 0 4 .461 4 1.998 0 2.391-8 6.262-8 12.002 0 3.814 1.941 6 6 6 4.617 0 10-2.002 10-2.002s-10-.48-10-3.998z" fill="#f06eaa"/><circle cx="26" cy="26.001" r="26.001" fill="#ccc"/><circle cx="26" cy="26.001" r="22.001" fill="#e6e6e6"/><circle cx="26" cy="26.002" r="14" fill="#48a0dc"/><circle cx="26" cy="26.001" r="7.999" fill="#4d4d4d"/><circle cx="32" cy="20.001" r="3.999" fill="#fff"/></svg>