<svg xmlns="http://www.w3.org/2000/svg" width="64" height="64"><path d="M30 42c-4.23-7.301-4-18-4-18s-10.924 9.67-14 16c-1.574 5.182-5.561 17.561-10 22 0 0 13.195-4 22-4 8.043 0 18-10 18-10-6.801 0-12-6-12-6z" fill="#a67c52"/><path d="M44 26c-4.23-7.301-4-16-4-16s-6.924 3.67-10 10c-1.574 5.182-4 24-4 24h18c9.688-3.275 14-16 14-16-4.504 2-14-2-14-2z" fill="#999"/><path d="M44 8c-2.523 2.523-4 22-4 22s20.555-5.088 22-10c.934-3.174 2-12.355 2-20 0 0-17.137 5.137-20 8z" fill="#48a0dc"/><path d="M1 60.268l.016.027C.42 60.641 0 61.26 0 62a2 2 0 002 2c.365 0 .689-.125.984-.297L3 63.73S48.139 34.263 64 0C41.873 33.064 1 60.268 1 60.268z" fill-rule="evenodd" clip-rule="evenodd" fill="#666"/></svg>