<svg xmlns="http://www.w3.org/2000/svg" width="63.999" height="63.998"><path d="M53.996 5.996c-3.241 11.261-9.65 4.872-14.004 13.99l2 3.997c5.696-9.452 10.311-3.825 14.005-13.992l-2.001-3.995z" fill="#999"/><path d="M63.999 7.994c0-.72-1.54-1.346-3.828-1.697 1.443-1.944 2.134-3.548 1.605-4.076-.529-.528-2.135.161-4.08 1.603C57.344 1.537 56.718 0 55.997 0c-.722 0-1.348 1.537-1.7 3.823-1.945-1.441-3.551-2.131-4.079-1.603s.162 2.132 1.604 4.076c-2.288.352-3.828.978-3.828 1.697s1.54 1.346 3.828 1.696c-1.442 1.945-2.133 3.549-1.604 4.077s2.133-.161 4.079-1.603c.353 2.286.979 3.824 1.7 3.824s1.347-1.538 1.699-3.824c1.945 1.441 3.551 2.131 4.08 1.603.528-.528-.162-2.132-1.605-4.077 2.288-.349 3.828-.975 3.828-1.695z" fill-rule="evenodd" clip-rule="evenodd" fill="#fc6"/><path d="M47.451 26.713L37.322 16.595a1.997 1.997 0 00-2.826 0L.585 50.473a1.995 1.995 0 000 2.823l10.129 10.118a2 2 0 002.825 0l33.912-33.878a1.997 1.997 0 000-2.823z" fill="#ed7161"/><path d="M.585 50.473a1.991 1.991 0 00-.439 2.157l18.496 5.688 6.12-6.113-19.814-6.093-4.363 4.361zm10.483-10.474l19.813 6.09 6.12-6.113-19.813-6.09-6.12 6.113zm36.788-12.677l-18.43-5.663-6.119 6.113 19.813 6.09 4.331-4.326c.599-.599.728-1.48.405-2.214z" fill="#fff"/></svg>