<svg xmlns="http://www.w3.org/2000/svg" width="64" height="64.001"><path d="M14.242 42.236A6 6 0 014 37.994c0-6.269 6-6.466 6-13.998v-3.999H6v3.999c0 5.394-6 5.97-6 13.998 0 5.521 4.478 9.999 10 9.999a9.962 9.962 0 007.071-2.93l-2.829-2.827z" fill="#999"/><path d="M16 21.996c0-.722-1.539-1.347-3.826-1.698 1.442-1.945 2.132-3.55 1.604-4.078-.528-.529-2.133.161-4.078 1.603-.353-2.288-.979-3.826-1.7-3.826s-1.347 1.538-1.699 3.825c-1.945-1.441-3.55-2.132-4.078-1.603-.528.528.162 2.133 1.604 4.078C1.539 20.649 0 21.274 0 21.996c0 .72 1.539 1.347 3.826 1.699-1.442 1.944-2.132 3.549-1.604 4.077s2.133-.161 4.078-1.604c.353 2.288.979 3.827 1.7 3.827s1.347-1.539 1.699-3.826c1.945 1.442 3.55 2.132 4.078 1.604s-.161-2.132-1.604-4.077c2.288-.353 3.827-.98 3.827-1.7z" fill-rule="evenodd" clip-rule="evenodd" fill="#fc6"/><path d="M53.435 20.561a1.966 1.966 0 00-2.776 0L10.565 60.649a1.96 1.96 0 000 2.775 1.96 1.96 0 002.776 0l40.093-40.087a1.963 1.963 0 00.001-2.776z" fill="#4d4d4d"/><path d="M51.395 22.664L41.269 12.54a2 2 0 00-2.825 0l-25.9 25.897a2 2 0 000 2.826L22.67 51.387c.78.779 2.045.779 2.824 0l25.901-25.899a1.998 1.998 0 000-2.824z" fill="#ed7161"/><path d="M12.543 38.438a2 2 0 000 2.826l2.748 2.745 14.917 2.664 5.091-5.091-21.977-3.924-.779.78zm38.852-15.774l-2.686-2.685-15.023-2.682-5.09 5.091 21.976 3.924.823-.824a1.998 1.998 0 000-2.824zm-32.982 9.905l21.977 3.923 5.091-5.091-21.977-3.924-5.091 5.092z" fill="#fff"/><path d="M63.414.585a2.008 2.008 0 00-1.898-.527l-24 5.999a2 2 0 00-.929 3.353l17.999 17.997a1.998 1.998 0 003.353-.926l6-23.997a1.996 1.996 0 00-.525-1.899z" fill="#48a0dc"/></svg>