<svg xmlns="http://www.w3.org/2000/svg" width="64" height="56"><path d="M42 32s-1.35-8.939-2.844-13.535C44.996 14.402 50 12 50 12l-2-4s-5.17 2.545-11.375 6.963C32.637 12.495 24 10 24 10s5.672 4.399 9.271 7.468a79.534 79.534 0 00-2.67 2.2C26.066 17.799 18 16 18 16s6.316 3.766 9.799 6.197a87.13 87.13 0 00-2.563 2.56C20.602 23.344 12 22 12 22s8.035 3.366 10.967 5.185c-.725.802-1.43 1.604-2.115 2.404C17.27 28.669 8 28 8 28s6.729 3.043 10.139 4.862a158.56 158.56 0 00-1.846 2.35C12.729 34.122 6 34 6 34l7.727 4.636C11.404 41.825 10 44 10 44l4 2s1.121-1.8 3.082-4.557L22 48s-1.039-6.142-2.582-9.741a135.83 135.83 0 012.008-2.583C23.785 38.57 28 44 28 44s-2.119-7.181-4.135-11.3c.584-.692 1.193-1.394 1.82-2.1C28.055 34.176 32 40 32 40s-1.592-8.943-3.258-12.709c.414-.432.83-.863 1.258-1.291.229-.229.467-.446.699-.67C32.34 28.542 36 36 36 36s-.941-9.876-2.094-13.543a72.2 72.2 0 012.461-1.965C38.963 24.085 42 32 42 32z" fill-rule="evenodd" clip-rule="evenodd" fill="#b3b3b3"/><path d="M0 46c0 1.355.477 2 2 2 11.576 0 11.662 8 14 8 1.275 0 2-.381 2-2 0-3.609-4-12-4-12S0 43.883 0 46zM42 0c-2.918 0-10 1.068-10 4 0 4.654 7.244 5.227 10 10 2.279 3.949 4.273 14 8 14 2.863 0 14-16.906 14-20 0-6.119-14.25-8-22-8z" fill-rule="evenodd" clip-rule="evenodd" fill="#48a0dc"/><circle cx="47" cy="7" r="3" fill="#fff"/></svg>