<svg xmlns="http://www.w3.org/2000/svg" width="44" height="64"><path d="M36 34c0-1.197-.694-2-2-2H10c-1.306 0-2 .803-2 2 0 4 10 16 10 20s-2 4-2 8c0 1.164.707 2 2 2h8c1.293 0 2-.836 2-2 0-4-2-4-2-8s10-16 10-20z" fill="#88c057"/><path d="M26 52h-8a2 2 0 000 4h8a2 2 0 000-4z" fill="#fc6"/><path d="M42.62 19A3.972 3.972 0 0044 16c0-1.746-1.126-3.215-2.686-3.762A3.97 3.97 0 0042 10c0-1.498-.834-2.789-2.053-3.475C39.97 6.352 40 6.18 40 6a4 4 0 00-8 0c0 .201.03.395.06.588A3.968 3.968 0 0030 6c-.18 0-.353.029-.526.053C28.789 4.834 27.498 4 26 4c-.756 0-1.456.223-2.06.588.03-.193.06-.387.06-.588a4 4 0 00-8 0c0 .201.03.395.06.588A3.968 3.968 0 0014 4a3.974 3.974 0 00-3 1.379A3.976 3.976 0 008 4a4 4 0 00-4 4 4 4 0 00-4 4c0 1.201.541 2.268 1.38 3A3.972 3.972 0 000 18c0 1.746 1.126 3.215 2.686 3.762A4 4 0 006 28c.201 0 .394-.031.587-.059A3.973 3.973 0 006 30a4 4 0 006.239 3.314C12.785 34.875 14.254 36 16 36s3.215-1.125 3.761-2.686C20.4 33.746 21.17 34 22 34s1.6-.254 2.239-.686A3.987 3.987 0 0028 36a4 4 0 004-4c0-.094-.021-.182-.027-.273l.057-.02c-.008.1-.03.193-.03.293a4 4 0 107.314-2.238C40.874 29.215 42 27.746 42 26c0-.18-.03-.352-.053-.525C43.166 24.789 44 23.498 44 22a3.972 3.972 0 00-1.38-3zM21.85 7.527c.07-.037.142-.074.21-.115-.012.076-.017.152-.023.229-.063-.037-.124-.078-.187-.114z" fill-rule="evenodd" clip-rule="evenodd" fill="#f06eaa"/><path d="M34 10a4 4 0 100 8 4 4 0 000-8zM12 22a4 4 0 100 8 4 4 0 000-8zm20 2a4 4 0 100 8 4 4 0 000-8zM14 14a4 4 0 10-8 0 4 4 0 008 0zm10-4a4 4 0 10-8 0 4 4 0 008 0zm0 6a4 4 0 100 8 4 4 0 000-8z" fill-rule="evenodd" clip-rule="evenodd" fill="#bd5786"/></svg>