<svg xmlns="http://www.w3.org/2000/svg" width="64" height="64"><path d="M44 32H20a2 2 0 000 4h24a2 2 0 000-4z" fill="#b3b3b3"/><path d="M4 43.998C.239 47.76 0 64 0 64h28l-6-26.002s-16.12 4.119-18 6zm56 0c-1.881-1.881-18-6-18-6L36 64h28s-.24-16.24-4-20.002z" fill="#4d4d4d"/><path fill="gray" d="M40 35.998H24L22 38l6 26h8l6-26z"/><path d="M14 44l4 2-8 3.998L22 64h6l-6-26.002L14 44zm32 2l4-2-8-6.002L36 64h6l12-14.002L46 46z" fill="#333"/><path d="M38 30H26l-2 5.998c0 1.105 4.896 4 6 4h4c1.104 0 6-2.895 6-4L38 30z" fill="#517334"/><path d="M32 2c-7.732 0-14 0-14 7.998 0 6.002 0 10 2 14.002 2 3.998-.586 11.998 12 11.998s10-8 12-11.998c2-4.002 2-8 2-14.002C46 2 39.731 2 32 2z" fill="#88c057"/><path d="M46 9.998C46 2 39.731 2 32 2c-7.732 0-14 0-14 7.998 0 3.912.854 8.654 2 12.604V20c0-8 1.739-8 12-8s12 0 12 8v2.602c1.146-3.948 2-8.692 2-12.604z" fill="#90cc5c"/><path d="M32 0c-7.732 0-14 2-14 9.998C18 7.25 21.063 5.813 22 6c1.563.938.066 3.168 2 4-1.048-1.047.897-6.104 2-6 .271 2.061 1.32 3.32 2 4 0-1.539.943-4.943 2-6 1.262-.027 4 2.311 4 4 .875-.875 2.726-2.055 4-2 1.251 1.25.875 2.875 2 4 0-.873 1-1 2-2 1.566 0 4 2.996 4 3.998C46 2 39.731 0 32 0z" fill="#666"/></svg>