<svg xmlns="http://www.w3.org/2000/svg" width="64" height="64"><path d="M58 20c-1.511-2.666-2.792-8-8-8-6.229 0-8.324 6-12 6-1.509 0-2-.998-2-2 0-2.234 2-4.213 2-8 0-1.701-1.495-8-8-8-5.29 0-8 3.787-8 8 0 3.805-.337 10-2 10-4.174 0-3.979-10-8-10-3.329 0-8 6.387-8 10 0 2.549-4 1.984-4 6 0 4.246 6 4 6 4s-2 1.404-2 6c1.923 0 4 2.461 4 4s1.098 4 4 4c3.34 0 6.278 1.037 8 4 1.579 2.717 2.045 8 6 8s6.271 2.291 8 4 7.568 6 10 6c1.369 0 2-1.02 2-2s-4-4.16-4-6 2-3.508 2-6c0-2.494-2-3.844-2-6 0-2.158 4.906-3.18 8-4 3.093-.822 1.272-3.758 6-4 0-1.557 1.898-4 4-4 2.811 0 4-1.713 4-4 0-2.937-4.24-4.893-6-8z" fill="#ccc"/><path d="M28 14c-1.604 0-2 .229-2 2 0 2.209 1.271 6 2 6 .604 0 2-2.291 2-4 0-1.646-.208-4-2-4z" fill="#4d4d4d"/></svg>