<svg xmlns="http://www.w3.org/2000/svg" width="64" height="64"><path d="M2 26v33.998A4 4 0 006 64h52a4 4 0 004-4.002V26H2z" fill="#fc6"/><path d="M60 14H4a4 4 0 00-4 4v12h64V18a4 4 0 00-4-4z" fill="#e6b85c"/><path fill="#ed7161" d="M26 30h12v34H26z"/><path fill="#ba594c" d="M26 14h12v16H26z"/><circle cx="32" cy="14" r="4" fill="#ba594c"/><path d="M20 0c-4 0-8 4-8 8 0 6 16 6 16 6S26 0 20 0zm-2 8c0-1.195.688-4 2-4 2 0 4 8 4 8s-6-2.125-6-4zm26-8c-6 0-8 14-8 14s16 0 16-6c0-4-4-8-8-8zm-4 12s2-8 4-8c1.313 0 2 2.805 2 4 0 1.875-6 4-6 4z" fill-rule="evenodd" clip-rule="evenodd" fill="#ed7261"/></svg>