<svg xmlns="http://www.w3.org/2000/svg" width="64" height="64"><path d="M62.828 23.172l-21.998-22a4.004 4.004 0 00-5.658 0l-34 34a4 4 0 000 5.656l22 22a4 4 0 005.658 0l33.998-34a3.997 3.997 0 000-5.656z" fill="#fc6"/><path fill="#ed7161" d="M53.828 14.172l-4-4L28 32 16.172 20.172l-4 4L24 36 10.172 49.828l4 4L28 40l11.828 11.828 4-4L32 36z"/><path d="M40 30c-3.287 0-10.178 2.531-12 4-1.822-1.469-8.713-4-12-4-6 0-6 4-6 6s0 6 6 6c3.287 0 10.178-2.531 12-4 1.822 1.469 8.713 4 12 4 6 0 6-4 6-6s0-6-6-6zm-24 8c-2 0-2-2-2-2s0-2 2-2c3.313 0 8 2 8 2s-4.687 2-8 2zm24 0c-3.314 0-8-2-8-2s4.686-2 8-2c2 0 2 2 2 2s0 2-2 2z" fill="#ed7161"/><path d="M30 32h-4a2 2 0 00-2 2v4a2 2 0 002 2h4a2 2 0 002-2v-4a2 2 0 00-2-2z" fill="#ba594c"/></svg>