<svg xmlns="http://www.w3.org/2000/svg" width="52" height="64"><path d="M38 36c3.868 0 3.053 4 8 4 3.571 0 6-3.08 6-6 0-2.734-2.329-6-6-6-2.796 0-10-2.207-10-4 0-1.795 4-2.922 4-10 0-8.723-7.21-14-14-14S12 5.277 12 14c0 7.078 4 8.205 4 10 0 1.793-7.204 4-10 4-3.671 0-6 3.266-6 6 0 2.92 2.428 6 6 6 4.946 0 4.132-4 8-4 1.431 0 2 1.172 2 4 0 4.516-8.19 9.998-10 9.998-2.061 0-4 1.607-4 4.002 0 3.33 6.069 10 10 10 5.181 0 8.688-12 14-12s8.819 12 14 12c3.931 0 10-6.67 10-10 0-2.395-1.94-4.002-4-4.002-1.811 0-10-5.482-10-9.998 0-2.828.569-4 2-4z" fill="#bf9871"/><path d="M13 35.758c.956-.6 1.284-1.928.732-2.965l-2-3.758c-.552-1.037-1.775-1.392-2.732-.793-.957.598-1.284 1.926-.732 2.963l2 3.758c.552 1.037 1.775 1.392 2.732.795zm32-7.459c-.957-.59-2.18-.24-2.732.783l-2 3.699c-.552 1.021-.225 2.328.732 2.918.956.59 2.18.24 2.732-.781l2-3.701c.552-1.022.225-2.328-.732-2.918zM12.973 50.48a1.761 1.761 0 00-2.491 2.49l4.491 4.492a1.761 1.761 0 002.491-2.49l-4.491-4.492zm26.054 0l-4.491 4.492a1.76 1.76 0 102.491 2.49l4.491-4.492a1.76 1.76 0 10-2.491-2.49z" fill-rule="evenodd" clip-rule="evenodd" fill="#fc6"/><path d="M26 34a2 2 0 10-.001-4.001A2 2 0 0026 34zm0 4a2 2 0 100 4 2 2 0 000-4zm-4-26a2 2 0 10-.001-4.001A2 2 0 0022 12zm8 0a2 2 0 10-.001-4.001A2 2 0 0030 12zm0 4c-1.75 0-2.138 2-4 2s-2.25-2-4-2c-1.25 0-2 1.125-2 2 0 1.75 2.75 4 6 4s6-2.25 6-4c0-.875-.75-2-2-2z" fill-rule="evenodd" clip-rule="evenodd" fill="#fff"/></svg>