<svg xmlns="http://www.w3.org/2000/svg" width="52" height="64"><path d="M26 0a8 8 0 100 16 8 8 0 000-16zm0 12a4 4 0 110-8 4 4 0 010 8z" fill-rule="evenodd" clip-rule="evenodd" fill="#ccc"/><path d="M32 8H20a4 4 0 00-4 4v2a4 4 0 004 4h12a4 4 0 004-4v-2a4 4 0 00-4-4z" fill="#387ba8"/><path d="M26 12C15.186 12 5.918 18.605 1.998 28h48.004C46.082 18.605 36.814 12 26 12zm0 52c10.814 0 20.082-6.605 24-16H2c3.918 9.395 13.186 16 24 16z" fill-rule="evenodd" clip-rule="evenodd" fill="#48a0dc"/><path d="M1.998 28C.715 31.079 0 34.455 0 38s.715 6.921 2 10h48c1.285-3.079 2-6.455 2-10s-.715-6.921-1.998-10H1.998z" fill-rule="evenodd" clip-rule="evenodd" fill="#f06eaa"/><path d="M50.584 34.588L48 37.172l-2.584-2.584C45.055 34.225 44.555 34 44 34s-1.055.225-1.416.588L40 37.172l-2.584-2.584C37.055 34.225 36.555 34 36 34s-1.055.225-1.416.588L32 37.172l-2.584-2.584C29.055 34.225 28.555 34 28 34s-1.055.225-1.416.588L24 37.172l-2.584-2.584C21.055 34.225 20.555 34 20 34s-1.055.225-1.416.588L16 37.172l-2.586-2.586A1.994 1.994 0 0012 34c-.555 0-1.055.225-1.416.588L8 37.172l-2.584-2.584a2.033 2.033 0 00-.516-.35c-.043-.021-.076-.062-.121-.08a1.993 1.993 0 00-1.558 0c-.055.022-.092.068-.143.096a1.98 1.98 0 00-.494.334l-2.539 2.54C.035 37.42 0 37.705 0 38c0 1.341.133 2.647.328 3.934.416-.072.801-.234 1.086-.521L4 38.828l2.586 2.585c.361.362.861.587 1.414.587s1.053-.225 1.414-.587L12 38.828l2.586 2.585c.361.362.861.587 1.414.587s1.053-.225 1.414-.587L20 38.828l2.586 2.585c.361.362.861.587 1.414.587s1.053-.225 1.414-.587L28 38.828l2.586 2.585c.361.362.861.587 1.414.587s1.053-.225 1.414-.587L36 38.828l2.586 2.585c.361.362.861.587 1.414.587s1.053-.225 1.414-.587L44 38.828l2.586 2.585a2.001 2.001 0 002.828.001l2.541-2.542c.01-.292.045-.577.045-.872 0-1.341-.133-2.647-.328-3.934-.418.073-.803.235-1.088.522z" fill-rule="evenodd" clip-rule="evenodd" fill="#fff"/></svg>