<svg xmlns="http://www.w3.org/2000/svg" width="60" height="64"><path d="M30 0a8 8 0 100 16 8 8 0 000-16zm0 12a4 4 0 110-8 4 4 0 010 8z" fill-rule="evenodd" clip-rule="evenodd" fill="#ccc"/><path d="M36 8H24a4 4 0 00-4 4v2a4 4 0 004 4h12a4 4 0 004-4v-2a4 4 0 00-4-4z" fill="#638c3f"/><path d="M30 12C19.186 12 9.918 18.605 5.998 28h48.004C50.082 18.605 40.814 12 30 12zm0 52c10.814 0 20.082-6.605 24-16H6c3.918 9.395 13.186 16 24 16z" fill-rule="evenodd" clip-rule="evenodd" fill="#88c057"/><path d="M5.998 28C4.715 31.079 4 34.455 4 38s.715 6.921 2 10h48c1.285-3.079 2-6.455 2-10s-.715-6.921-1.998-10H5.998z" fill-rule="evenodd" clip-rule="evenodd" fill="#fc6"/><path d="M54 32a6 6 0 00-6 6 2 2 0 01-4 0 6 6 0 00-12 0 2 2 0 01-4 0 6 6 0 00-12 0 2 2 0 01-4 0 6 6 0 00-6-6c-.453 0-.891.06-1.316.155A25.941 25.941 0 004 38a2 2 0 114 0 6 6 0 0012 0 2 2 0 114 0 6 6 0 0012 0 2 2 0 114 0 6 6 0 0012 0 2 2 0 114 0c0-2.013-.25-3.963-.684-5.845A6.013 6.013 0 0054 32z" fill-rule="evenodd" clip-rule="evenodd" fill="#fff"/></svg>