<svg xmlns="http://www.w3.org/2000/svg" width="64" height="56.001"><path d="M56.026 15.998c0-2 1.999-5.998 1.999-5.998H6.039s1.999 3.998 1.999 5.998c0 4-5.998 8-5.998 16 0 13.252 12.323 21.998 29.992 21.998 17.668 0 29.992-8.746 29.992-21.998 0-8-5.998-12-5.998-16z" fill="#4d4d4d"/><path d="M8.981 19.732l-5.693-3.43c-1.048-.631-2.389-.256-2.994.838-.604 1.094-.245 2.49.803 3.123l5.692 3.428c1.049.631 2.389.256 2.993-.836.605-1.093.247-2.492-.801-3.123zm54.728-2.591c-.597-1.094-1.921-1.469-2.956-.838l-5.622 3.43c-1.035.631-1.39 2.029-.792 3.123.598 1.092 1.921 1.467 2.956.836l5.623-3.428c1.036-.633 1.39-2.03.791-3.123zM14.037 45.996c-2.209 0-3.999 5.789-3.999 8 0 2.209-.209 2 1.999 2 2.209 0 7.998-3.793 7.998-6 0-2.209-3.79-4-5.998-4zm39.804 8c0-2.211-1.757-8-3.925-8s-5.888 1.791-5.888 4c0 2.207 5.683 6 7.851 6 2.167 0 1.962.209 1.962-2z" fill-rule="evenodd" clip-rule="evenodd" fill="#333"/><path d="M51.027 8c-.364 0-.704.059-1.028.139.003-.049.028-.09.028-.139a2 2 0 00-1.999-2 2 2 0 00-2-2c-.459 0-.861.18-1.199.441a3.482 3.482 0 00-.826-.311c.002-.046.026-.083.026-.13a2 2 0 00-2-2c-.459 0-.861.182-1.199.441A3.93 3.93 0 0039.03 2a3.93 3.93 0 00-1.8.441C36.893 2.182 36.49 2 36.031 2a2 2 0 00-1.999-2c-.51 0-.962.205-1.314.518a2.99 2.99 0 00-4.57 1.701A2.974 2.974 0 0027.033 2c-.37 0-.715.084-1.041.207.008-.072.042-.133.042-.207a2 2 0 00-2-2c-.516 0-.977.207-1.331.529A2.942 2.942 0 0021.035 0a2.987 2.987 0 00-2.826 2.035c-.061-.006-.112-.035-.173-.035a2 2 0 00-2 2v.141c-1.159.277-1.999.992-1.999 1.859 0 .059.035.111.044.17-.26.088-.508.197-.729.348A1.976 1.976 0 0012.037 6a2 2 0 00-1.999 2c0 .047.023.086.026.131-1.173.271-2.026.994-2.026 1.869h5.999a2 2 0 001.999 2c.516 0 .974-.209 1.328-.527a2.947 2.947 0 001.671.527c.771 0 1.468-.301 2-.779a2.978 2.978 0 001.999.779c.367 0 .715-.076 1.039-.197-.007.068-.039.127-.039.197a2 2 0 002 1.998c.509 0 .961-.205 1.314-.52.479.328 1.06.52 1.685.52a2.991 2.991 0 002.826-2.033c.059.006.111.035.173.035.509 0 .962-.205 1.314-.52a2.978 2.978 0 003.97-.558A3.97 3.97 0 0040.03 12c.18 0 .352-.031.525-.055.686 1.219 1.976 2.053 3.474 2.053 1.518 0 2.821-.855 3.499-2.1.164.043.322.102.5.102a2 2 0 001.999-2h3.999c0-1.105-1.343-2-2.999-2z" fill="#fc6"/></svg>