<svg xmlns="http://www.w3.org/2000/svg" width="60" height="64"><path d="M52 16h-4.847c.444-2.777.847-4 .847-4v-2a2 2 0 00-2-2H6a2 2 0 00-2 2v2s2 6 2 22-2 20-2 26c0 2 2 4 4 4h36c2 0 4-2 4-4 0-2.652-.391-4.918-.827-8H52a8 8 0 008-8V24a8 8 0 00-8-8zm2 26a4 4 0 01-4 4h-3.527C46.199 42.9 46 39.051 46 34c0-4.904.188-8.859.449-12H50c2.209 0 4 1.789 4 4v16z" fill-rule="evenodd" clip-rule="evenodd" fill="#88c057"/><path d="M40 34c0-9.963 1.35-16.348 2-20H10c.65 3.652 2 10.037 2 20 0 10.355-.818 16.002-1.416 20.123-.215 1.484-.393 2.709-.494 3.877h31.82c-.102-1.168-.279-2.393-.494-3.877C40.818 50.002 40 44.355 40 34z" fill="#75a64b"/><path d="M46 8c0-.277-.045-.541-.082-.807C45.521 4.266 43.037 2 40 2c-.602 0-1.17.115-1.717.279C36.563.875 34.395 0 32 0c-3.148 0-5.924 1.484-7.756 3.758A5.982 5.982 0 0020 2c-2.42 0-4.492 1.439-5.441 3.504C13.121 3.402 10.74 2 8 2a8 8 0 00-8 8c0 5.305 4 11.02 4 18 0 3.6 1.729 6 4 6 1.908 0 2-3.791 2-6 0-13.965 8.188-14 10-14 2.188 0 2.207 2 4 2 3.369 0 2.762-1.842 6-2 1.098 1.201 2.244 2 4 2a5.985 5.985 0 003.352-1.023A3.973 3.973 0 0040 16a4 4 0 004-4c0-.18-.029-.352-.053-.527C45.166 10.789 46 9.498 46 8z" fill="#e6e6e6"/></svg>