<svg xmlns="http://www.w3.org/2000/svg" width="64" height="64"><path d="M38 12c-2.069 0-4.071 1.543-6 2-1.93-.457-3.932-2-6-2C11.641 12 0 23.641 0 38s11.641 26 26 26c2.068 0 4.07-1.545 6-2 1.929.455 3.931 2 6 2 14.359 0 26-11.641 26-26S52.359 12 38 12z" fill="#4d4d4d"/><path d="M16 38c0-12.436 5.376-22.817 12.556-25.38-.23-.095-.462-.181-.694-.26C15.474 14.347 6 25.053 6 38s9.474 23.652 21.86 25.64c.232-.079.464-.165.694-.26C21.376 60.816 16 50.436 16 38zm17.874-24.688c-.632.282-1.257.542-1.874.688-.617-.146-1.242-.406-1.874-.688C27.73 16.725 26 26.479 26 38c0 11.52 1.73 21.274 4.126 24.688.632-.283 1.257-.542 1.874-.688.617.146 1.242.405 1.874.688C36.27 59.275 38 49.521 38 38c0-11.521-1.731-21.276-4.126-24.688zm2.265-.952c-.232.079-.464.165-.694.26C42.623 15.183 48 25.564 48 38s-5.377 22.816-12.555 25.38c.23.095.462.181.694.26C48.526 61.653 58 50.947 58 38s-9.474-23.653-21.861-25.64z" fill-rule="evenodd" clip-rule="evenodd" fill="#666"/><path d="M34 0a6 6 0 00-6 6c0 3.313 2.125 5.875 0 8 0 1.105 1.791 2 4 2s4-.895 4-2c-1.125-1.125-4-6.896-4-8a2 2 0 014 0 2 2 0 004 0 6 6 0 00-6-6z" fill-rule="evenodd" clip-rule="evenodd" fill="#638c3f"/><path d="M52 40c-.553 0-1.053.225-1.414.586L48 43.172l-2.586-2.586a1.998 1.998 0 00-2.828 0L39 44.172l-1.586-1.586A1.99 1.99 0 0036 42c-.553 0-1.053.223-1.414.586L32 45.172l-2.586-2.586A1.99 1.99 0 0028 42c-.553 0-1.053.223-1.414.586L25 44.172l-3.586-3.586a1.998 1.998 0 00-2.828 0L16 43.172l-2.586-2.586a2 2 0 00-2.828 2.828l4 4 4 4a1.998 1.998 0 002.828 0L25 47.828l5.586 5.586a1.998 1.998 0 002.828 0L39 47.828l3.586 3.586a1.998 1.998 0 002.828 0l4-4 4-4A2 2 0 0052 40zm-14-4c1.16 0 5.945-2 10-2 1.242 0 2-1.033 2-2s-3.993-8-6-8c-2.008 0-8 7.211-8 10 0 .967.84 2 2 2zm-22-2c4.054 0 8.84 2 10 2s2-1.033 2-2c0-2.789-5.992-10-8-10s-6 7.033-6 8 .757 2 2 2z" fill-rule="evenodd" clip-rule="evenodd" fill="#f83"/></svg>