<svg xmlns="http://www.w3.org/2000/svg" width="64" height="64"><path d="M38 12c-2.068 0-4.071 1.543-6 2-1.93-.457-3.932-2-6-2C11.641 12 0 23.641 0 38s11.641 26 26 26c2.068 0 4.07-1.545 6-2 1.929.455 3.932 2 6 2 14.359 0 26-11.641 26-26S52.359 12 38 12z" fill="#e67a2e"/><path d="M16 38c0-12.436 5.376-22.817 12.556-25.38-.23-.095-.462-.181-.694-.26C15.474 14.347 6 25.053 6 38s9.474 23.652 21.86 25.64c.232-.079.464-.165.694-.26C21.376 60.816 16 50.436 16 38zm17.874-24.688c-.632.282-1.257.542-1.874.688-.617-.146-1.242-.406-1.874-.688C27.73 16.725 26 26.479 26 38c0 11.52 1.73 21.274 4.126 24.688.632-.283 1.257-.542 1.874-.688.617.146 1.242.406 1.874.688C36.27 59.275 38 49.521 38 38s-1.731-21.276-4.126-24.688zm2.265-.952c-.232.079-.464.165-.694.26C42.623 15.183 48 25.564 48 38s-5.376 22.816-12.555 25.38c.23.095.462.181.694.26C48.526 61.652 58 50.947 58 38s-9.474-23.653-21.861-25.64z" fill-rule="evenodd" clip-rule="evenodd" fill="#f83"/><path d="M34 0a6 6 0 00-6 5.998c0 3.314 2.125 5.877 0 8.002 0 1.104 1.791 1.998 4 1.998s4-.895 4-1.998c-1.125-1.125-4-6.896-4-8.002a2 2 0 014 0 2.001 2.001 0 104 0A6 6 0 0034 0z" fill-rule="evenodd" clip-rule="evenodd" fill="#88c057"/><path d="M50 42c-1.257 0-3.287.438-6 .903V46a2 2 0 01-2 2h-4a2 2 0 01-2-2v-2.138c-1.268.08-2.584.138-4 .138s-2.732-.058-4-.138V46a2 2 0 01-2 2h-4a2 2 0 01-2-2v-3.097c-2.713-.465-4.743-.903-6-.903-.94 0-2 .797-2 2 0 2.813 8 8 20 8s20-5.188 20-8c0-1.203-1.06-2-2-2zm-12-6c1.16 0 5.945-2 10-2 1.243 0 2-1.033 2-2s-1.992-6-4-6-10 5.209-10 8c0 .965.84 2 2 2zm-22-2c4.054 0 8.84 2 10 2s2-1.035 2-2c0-2.791-7.993-8-10-8-2.008 0-4 5.033-4 6s.757 2 2 2z" fill-rule="evenodd" clip-rule="evenodd" fill="#542823"/></svg>