<svg xmlns="http://www.w3.org/2000/svg" width="48" height="64"><path d="M19 9.998a1 1 0 00-1 1V53a1 1 0 002 0V10.998c0-.551-.449-1-1-1zm4 0a1 1 0 00-1 1V53a1 1 0 002 0V10.998c0-.551-.449-1-1-1zM27 10c-.553 0-1 .447-1 .998v28a1 1 0 102 0v-28A.999.999 0 0027 10zm4 0c-.553 0-1 .447-1 .998v28a1 1 0 102 0v-28A.999.999 0 0031 10zm4-.002a1 1 0 00-1 1V27a1 1 0 102 0V10.998c0-.551-.449-1-1-1zm4 0a1 1 0 00-1 1V25a1 1 0 002 0V10.998a1 1 0 00-1-1z" fill-rule="evenodd" clip-rule="evenodd" fill="#ccc"/><path d="M42 6c-3.063 0-5.188 4-8 4-4.625 0-5.875-10-14-10C20 0 0 8.473 0 32s16 32 16 32V54s-8-5.529-8-22c0-12.537 12-20 12-20 6.625 0 5.625 4 10 4 5.75 0 7.875-4 10-4 2.313 0 2 2.625 2 6h4v-8c0-1.687-.937-4-4-4z" fill-rule="evenodd" clip-rule="evenodd" fill="#fc6"/><path d="M44 14c-2.363 0-3.402 1.705-6 6S16 54 16 54v10h14s18-45.084 18-48c0-1.85-.951-2-4-2z" fill="#e6b85c"/></svg>