<svg xmlns="http://www.w3.org/2000/svg" width="52" height="64"><path d="M26 0C14.953 0 6 8.955 6 20v10h2.697c3.46 5.971 9.904 9.998 17.303 9.998 7.397 0 13.842-4.027 17.302-9.998H46V20C46 8.955 37.045 0 26 0zm12 30h-5.375c-1.898 1.26-4.175 1.998-6.625 1.998S21.273 31.26 19.375 30H14V20c0-6.625 5.373-12 12-12s12 5.375 12 12v10z" fill-rule="evenodd" clip-rule="evenodd" fill="#ccc"/><path d="M52 33.992C52 26.266 45.73 20 38 20c-5.103 0-9.554 2.736-12 6.813C23.553 22.736 19.102 20 14 20 6.268 20 0 26.266 0 33.992c0 3.865 1.568 7.365 4.104 9.898l-.01.004 18.451 18.098h.006C23.242 63.188 24.521 64 26 64s2.758-.813 3.449-2.008h.006l18.451-18.098-.01-.004A13.946 13.946 0 0052 33.992z" fill-rule="evenodd" clip-rule="evenodd" fill="#ed7161"/><path d="M32 37.998a6 6 0 00-12 0c0 2.607 1.675 4.807 4 5.633v4.371a2 2 0 104 0v-4.371c2.324-.828 4-3.026 4-5.633z" fill-rule="evenodd" clip-rule="evenodd" fill="#fff"/></svg>