<svg xmlns="http://www.w3.org/2000/svg" width="64" height="64.001"><path d="M63.887 1.526c-.004-.014.001-.029-.003-.043-.007-.025-.027-.043-.035-.068a1.958 1.958 0 00-.484-.78 2 2 0 00-.774-.483c-.027-.008-.046-.029-.073-.037-.016-.004-.03 0-.046-.002-.348-.102-.714-.145-1.09-.045l-7.887 2.07c-1.09.283-1.735 1.379-1.443 2.447.291 1.066 1.41 1.697 2.499 1.414l.725-.189-16.732 16.734a2.015 2.015 0 002.85 2.85L58.237 8.55l-.236.9c-.286 1.086.347 2.207 1.413 2.498 1.066.293 2.162-.355 2.448-1.443l2.069-7.887c.099-.377.056-.744-.044-1.092z" fill-rule="evenodd" clip-rule="evenodd" fill="#666"/><path d="M59.967 26.575c0-8.033-6.656-14.547-14.867-14.547-5.682 0-10.615 3.121-13.117 7.705-2.503-4.584-7.437-7.705-13.119-7.705-8.21 0-14.865 6.514-14.865 14.547 0 4.457 2.053 8.439 5.279 11.109l-.032.014s18.897 19.779 20.263 21.189a3.42 3.42 0 004.948 0c1.365-1.41 20.263-21.189 20.263-21.189l-.031-.014c3.224-2.669 5.278-6.652 5.278-11.109z" fill-rule="evenodd" clip-rule="evenodd" fill="#ed7161"/><path d="M27.356 36.581a2.015 2.015 0 00-2.85 0L9.081 52.007H5.997a1.996 1.996 0 10-.761 3.844l-.153.154H1.999a1.999 1.999 0 100 3.998h1.999v1.998a2 2 0 103.998 0V58.79l.132-.133c.273.779.995 1.346 1.867 1.346a1.999 1.999 0 001.998-2v-3.209l15.363-15.363a2.015 2.015 0 000-2.85z" fill-rule="evenodd" clip-rule="evenodd" fill="#666"/><path d="M21.988 32.019a1.999 1.999 0 100 3.998 5.995 5.995 0 015.996 5.996 2 2 0 003.998 0c0-5.52-4.474-9.994-9.994-9.994z" fill-rule="evenodd" clip-rule="evenodd" fill="#ba594c"/></svg>