<svg xmlns="http://www.w3.org/2000/svg" width="64" height="48"><path d="M64 14.572C64 6.525 57.34 0 49.125 0c-5.549 0-10.357 2.988-12.904 7.4l1.193 1.197c.363.362.586.864.586 1.417 0 .551-.223 1.055-.586 1.416l-4.586 4.59 4.586 4.592c.363.361.586.863.586 1.415 0 .551-.223 1.053-.586 1.416l-4.586 4.59 4.586 4.592c.363.361.586.861.586 1.416 0 .553-.223 1.053-.586 1.414l-4.586 4.592 4.586 4.592c.363.361.586.861.586 1.416 0 .553-.238 1.039-.605 1.395l.02.02-.244.246c.473-.162.928-.387 1.305-.773 1.367-1.414 20.275-21.227 20.275-21.227l-.094-.043C61.896 22.998 64 19.047 64 14.572zM26 40.047c0-.553.225-1.053.586-1.416l4.586-4.59-4.586-4.592A1.996 1.996 0 0126 28.033c0-.553.225-1.053.586-1.414l4.586-4.592-4.586-4.592a1.999 1.999 0 010-2.829l4.586-4.592-2.783-2.787c-.125.212-.274.41-.389.625A14.852 14.852 0 0014.875 0C6.66 0 0 6.525 0 14.572c0 4.475 2.104 8.426 5.342 11.1l-.092.043s18.908 19.813 20.275 21.227a3.42 3.42 0 004.949 0l.775-.809-4.664-4.67A2.006 2.006 0 0126 40.047z" fill-rule="evenodd" clip-rule="evenodd" fill="#ed7161"/></svg>