<svg xmlns="http://www.w3.org/2000/svg" width="64" height="64"><path d="M50.007 14.008C50.007 8.004 46.01 0 36.015 0c-7.996 0-13.993 6.004-13.993 14.008 0 8.336.707 15.941 1.28 20.752L.612 57.473a2.092 2.092 0 000 2.957l2.953 2.955a2.083 2.083 0 002.953 0l2.131-2.133 2.111 2.113a2.17 2.17 0 003.066 0l1.533-1.535a2.172 2.172 0 000-3.07l-2.11-2.111 15.908-15.924c4.797.576 12.452 1.295 20.849 1.295C58.003 42.02 64 36.018 64 28.014c0-10.004-7.996-14.006-13.993-14.006zm0 20.008c-11.993 0-17.99-2-17.99-2s-1.999-6.002-1.999-18.008c0-4.002 3.998-6.004 5.997-6.004s5.997 2.002 5.997 6.004v8.004h7.995c3.998 0 5.997 4.002 5.997 6.002 0 2.002-1.999 6.002-5.997 6.002z" fill-rule="evenodd" clip-rule="evenodd" fill="#fc6"/><path d="M29.459 38.799l-4.218-4.223a1.882 1.882 0 00-2.661 2.662l4.219 4.223a1.882 1.882 0 002.66-2.662z" fill="#cca352"/></svg>