<svg xmlns="http://www.w3.org/2000/svg" width="64" height="48"><path d="M62 40a2 2 0 00-4 0l-16-2-6 10 22-2a2 2 0 004 0c1.656 0 2-1.344 2-3 0-1.658-.344-3-2-3z" fill="#88c057"/><path d="M4 24C4 12.953 12.954 4 24 4c8.836 0 16 7.162 16 16 0 8.836-7.164 16-16 16-6.628 0-12-5.373-12-12 0-6.629 5.372-12 12-12a8 8 0 010 16 4 4 0 010-8 2 2 0 000-4 8 8 0 000 16c6.627 0 12-5.373 12-12 0-6.629-5.373-12-12-12-8.837 0-16 7.164-16 16s7.163 16 16 16c11.046 0 20-8.955 20-20C44 8.953 35.046 0 24 0 10.745 0 0 10.744 0 24c0 13.254 10.745 24 24 24h12l6-10c-4 0-10 6-18 6-11.046 0-20-8.955-20-20z" fill-rule="evenodd" clip-rule="evenodd" fill="#48a0dc"/></svg>