<svg xmlns="http://www.w3.org/2000/svg" width="60" height="64"><path d="M54 54s6-6 6-22C60 16.535 46.568 2 30 2S0 16.535 0 32c0 16 6 22 6 22s-4 1.971-4 4c0 2 2.186 6 4 6 1.967 0 12-4 12-6s-8-2-8-24c0-11.047 8.953-20 20-20 11.045 0 20 8.953 20 20 0 22-8 22-8 24s9.975 6 12 6c2 0 4-3.947 4-6 0-1.977-4-4-4-4z" fill="#ccc"/><path d="M30 0c-3.344 0-8.213.725-8 2 2 12 2 12 8 12s6 0 8-12c.213-1.275-4.656-2-8-2zm0 10c-3.438 0-4-2-4-4 0-1.293.656-2 4-2s4 .707 4 2c0 2-.562 4-4 4z" fill-rule="evenodd" clip-rule="evenodd" fill="#999"/></svg>