<svg xmlns="http://www.w3.org/2000/svg" width="64" height="64"><path d="M60 41.998c-2 0-4 2.002-10 2.002H14c-6 0-8-2.002-10-2.002C1.998 41.998 0 44 0 46c0 4.018 11.977 18 32 18 20.021 0 32-14.002 32-18 0-2-2-4.002-4-4.002z" fill="#638c3f"/><path d="M32 0C20.953 0 10 1.789 10 4c0 0 4 16 4 28v16c0 2 12 4 18 4s18-2 18-4V32c0-12 4-28 4-28 0-2.211-10.955-4-22-4z" fill-rule="evenodd" clip-rule="evenodd" fill="#88c057"/><path d="M32 46c-6 0-18-2-18-4v6c0 2 12 4 18 4s18-2 18-4v-6c0 2-12 4-18 4z" fill="#333"/><path d="M36 42h-8a2 2 0 00-2 2v8a2 2 0 002 2h8a2 2 0 002-2v-8a2 2 0 00-2-2zm-2 8h-4v-4h4v4z" fill-rule="evenodd" clip-rule="evenodd" fill="#fc6"/></svg>