<svg xmlns="http://www.w3.org/2000/svg" width="48" height="64"><path d="M0 56h10l6 8 6-18-12-6L0 56zm38-16l-12 6 6 18 6-8h10L38 40z" fill-rule="evenodd" clip-rule="evenodd" fill="#638c3f"/><path d="M48 24a5.995 5.995 0 00-3.566-5.475A5.995 5.995 0 0044.786 12a5.995 5.995 0 00-5.826-2.959c.24-2.285-.842-4.604-2.959-5.826s-4.666-.998-6.525.352C28.539 1.467 26.445 0 24 0s-4.541 1.467-5.475 3.566C16.666 2.217 14.117 1.992 12 3.215S8.801 6.756 9.041 9.041A5.991 5.991 0 003.215 12a5.993 5.993 0 00.352 6.525C1.467 19.459 0 21.555 0 24s1.467 4.539 3.566 5.475A5.995 5.995 0 003.215 36a5.993 5.993 0 005.826 2.957A5.994 5.994 0 0012 44.783a5.99 5.99 0 006.525-.35C19.459 46.531 21.555 48 24 48s4.541-1.469 5.475-3.566a5.991 5.991 0 006.525.35 5.995 5.995 0 002.959-5.826 5.996 5.996 0 005.826-2.957 5.993 5.993 0 00-.352-6.525C46.531 28.539 48 26.445 48 24z" fill-rule="evenodd" clip-rule="evenodd" fill="#f83"/><circle cx="24" cy="24" r="16" fill="#fff"/><circle cx="24" cy="24" r="12" fill="#88c057"/></svg>