<svg xmlns="http://www.w3.org/2000/svg" width="60" height="64"><path d="M42 13.285v36.012C50.041 48.721 60 48 60 48V12l-18 1.285z" fill-rule="evenodd" clip-rule="evenodd" fill="#f83"/><path d="M42 13.285L32 14c-2.209 0-4 .895-4 2v32c0 1.105 1.791 2 4 2 .15 0 4.652-.32 10-.703V13.285z" fill-rule="evenodd" clip-rule="evenodd" fill="#ccc"/><path d="M28 36v12c0-1.105 1.791-2 4-2s4-.895 4-2v-8h-8z" fill="#b3b3b3"/><path d="M32 6c-.15 0-1.758.154-4 .377v36c2.242-.223 3.85-.377 4-.377 2.209 0 4 .895 4 2V8c0-1.105-1.791-2-4-2z" fill-rule="evenodd" clip-rule="evenodd" fill="#e6e6e6"/><path d="M28 6.377C22.158 6.955 12 8 12 8v36s10.158-1.045 16-1.623v-36z" fill-rule="evenodd" clip-rule="evenodd" fill="#88c057"/><path d="M18 60h-6V7.445c1.191-.693 2-1.968 2-3.445a4 4 0 00-8 0c0 1.477.809 2.752 2 3.445V60H2a2 2 0 100 4h16a2 2 0 100-4z" fill-rule="evenodd" clip-rule="evenodd" fill="#ccc"/></svg>