<svg xmlns="http://www.w3.org/2000/svg" width="64" height="64"><path d="M48 60H16a2 2 0 100 4h32a2 2 0 100-4z" fill="#cc6d29"/><path d="M48 12H16C10.668 18.555 6 25.768 6 36s4.668 17.445 10 24h32c5.33-6.555 10-13.768 10-24s-4.67-17.445-10-24z" fill="#f83"/><path d="M50 10H14C3.979 15.498 0 17.441 0 20s4.471 4 8 4 5.941-4 10-4 8.029 2 12 2 4.059-4 6-4 4.029 8 8 8 6.146-8 8-8c1.852 0 2.412 4 4 4s8-.471 8-4-14-8-14-8z" fill="#e6e6e6"/><path d="M46 0H18a4 4 0 00-4 4v4h36V4a4 4 0 00-4-4z" fill="#ccc"/><path fill="#999" d="M14 6h36v4H14z"/><path d="M20 34a2 2 0 10-.001 3.999A2 2 0 0020 34zm6-2a2 2 0 10-.001-4.001A2 2 0 0026 32zm2 8a2 2 0 10-.001 3.999A2 2 0 0028 40zm8-10a2 2 0 10-.001 3.999A2 2 0 0036 30zm6 8a2 2 0 10-.001 3.999A2 2 0 0042 38zm6-6a2 2 0 10-.001 3.999A2 2 0 0048 32zM18 44a2 2 0 10-.001 3.999A2 2 0 0018 44zm8 6a2 2 0 10-.001 3.999A2 2 0 0026 50zm10 2a2 2 0 10-.001 3.999A2 2 0 0036 52zm0-8a2 2 0 10-.001 3.999A2 2 0 0036 44zm10 2a2 2 0 10-.001 3.999A2 2 0 0046 46zM18 28a2 2 0 10-4 0 2 2 0 004 0z" fill-rule="evenodd" clip-rule="evenodd" fill="#e67a2e"/></svg>