<svg xmlns="http://www.w3.org/2000/svg" width="60" height="64"><path d="M20 36l24-12h7.936C48.201 11.086 39.788 0 30 0 17.242 0 6.814 18.828 6.05 36H20z" fill-rule="evenodd" clip-rule="evenodd" fill="#a67c52"/><path d="M30 4c-6.845 0-16 12.404-16 16 0 1.264.462 2 2 2 1.938 0 1.688-2 4-2 1.188 0 3 4 4 4s2.813-4 4-4c1.625 0 2-4.813 2-6s4-2.625 4-4 2-.688 2-2-3.437-4-6-4z" fill="#ffe6b2"/><path d="M44 24L20 36H6.05c-.03.67-.05 1.336-.05 2 0 17.672 10.745 26 24 26s24-8.328 24-26c0-4.623-.741-9.426-2.064-14H44z" fill-rule="evenodd" clip-rule="evenodd" fill="#e6e6e6"/><path d="M46 50c-4 0-3.09-4-8-4-4.911 0-4 4-8 4s-3.09-4-8-4c-4.911 0-4 4-8 4-3.719 0-3.252-3.418-7.105-3.904C9.704 58.213 18.972 64 30 64s20.296-5.787 23.105-17.904C49.252 46.582 49.719 50 46 50z" fill="#ed7161"/><path d="M52 20h-8c-2.253 0-11.946 8-14 8s-6.741 2-8 2-3.416 4-6 4-7.88-2-10-2c-3.112 0-6 5.746-6 8 0 1.523.84 2 2 2 1.06 0 2.939-4 4-4 1.126 0 2.675 2 4 2s2.012-2 4-2c1.987 0 3.35 6 6 6s5.813-8 8-8 6.211 4 8 4 1.88-12 4-12 5.15 2 8 2 3.35-2 6-2c1.735 0 2.209-2 4-2 1.739 0 2-1.43 2-2 0-1.656-5.549-4-8-4z" fill="#b3b3b3"/><path d="M48 22c-2.585 0-8.26.26-10 2-1.193 1.191-4.404.404-6 2-1.5 1.5-2.813 2-4 2-4.438 0-5.25 4-8 4-2.119 0-1.803-2-4-2-2.786 0-3.099 2-6 2-1.938 0-4 .188-4 2 0 .688 2.563 2 4 2 2.188 0 2.5-2 4-2s4.375 4 6 4 2.813-4 4-4c4.438 0 3.5-2 6-2 2.563 0 .875 4 4 4 2.813 0 .688-8 4-8 1.313 0 1.563-2 8-2 2.063 0 8-.625 8-2 0-1.174-3.759-2-6-2z" fill="#ccc"/></svg>