<svg xmlns="http://www.w3.org/2000/svg" width="64" height="46"><path d="M4 26v10l2 10h14l2-8v-.484C29.59 41.057 36.412 46 46 46c9.914 0 18-6 18-20H4z" fill-rule="evenodd" clip-rule="evenodd" fill="#a67c52"/><path d="M54 10s2 3.465 2 6-2.373 8-8 8c-5.629 0-12-4.59-12-14 0-7.086 6-10 6-10-10.314 0-14.318 6-22 6C13.201 6 6.734 2 4 2S0 4 0 4s6 .191 6 6-4 9.133-4 16c0 2.756 2 4 2 4s0-2 4-2c14.863 0 23.074 12 38 12 9.914 0 18-5.111 18-16 0-10.891-10-14-10-14z" fill="#88c057"/><path d="M36.049 10.578C31.406 11.99 20 15.693 20 18c0 1.756 1.977 6 4 6 1.504 0 9.611-4.42 13.672-6.689-.94-1.856-1.543-4.082-1.623-6.733z" fill="#a67c52"/><path d="M37.207 16.334C35.83 16.902 33.043 18 32 18c-1.408 0-2-1.947-2-4 0-1.121 3.822-1.643 6.18-1.861C36.1 11.441 36 10.762 36 10c0-.713.098-1.352.207-1.982C31.182 8.109 26 8.604 26 10c0 6.063 2.965 14 6 14 2.652 0 6.561-2.881 7.672-3.742-1-1.07-1.832-2.393-2.465-3.924z" fill="#fc6"/></svg>