<svg xmlns="http://www.w3.org/2000/svg" width="64" height="64"><path fill="#666" d="M40 36H24l-2 2v26h20V38z"/><path fill="#fff" d="M40 36H24l-2 2 10 26 10-26z"/><path d="M4 48C.24 51.76 0 64 0 64h24l-2-26S5.879 46.119 4 48zm56 0c-1.881-1.881-18-10-18-10l-2 26h24s-.24-12.24-4-16z" fill="#88c057"/><path d="M14 44l4 2-4 3.998L22 64h2l-2-26-8 6zm36 0l-8-6-2 26h2l8-14.002L46 46l4-2z" fill="#75a64b"/><circle cx="32" cy="50" r="2" fill="#666"/><path d="M32 4c-7.732 0-14 3.998-14 12 0 6 2 7.998 4 11.998 2 4.002 6.08 8 10 8 3.918 0 8-3.998 10-8 2-4 4-5.998 4-11.998 0-8.002-6.27-12-14-12z" fill="#f5caab"/><path d="M42 27.998c-1.66 3.32-4.756 6.604-8 7.639V34a2 2 0 00-4 0v1.637c-3.244-1.035-6.34-4.318-8-7.639C20 24 18.002 21.992 18 16v10c0 6 2 7.998 4 12 2 4 6.08 7.998 10 7.998 3.918 0 8-3.998 10-7.998 2-4.002 4-6 4-12V16c0 6-2 8-4 11.998z" fill="#f83"/><path d="M50 10H14a2 2 0 00-2 2c0 2.008 2.596 6 20 6s20-4 20-6a2 2 0 00-2-2z" fill="#638c3f"/><path d="M38 0H26a8 8 0 00-8 8v2a2 2 0 002 2h24a2 2 0 002-2V8a8 8 0 00-8-8z" fill="#88c057"/></svg>