<svg xmlns="http://www.w3.org/2000/svg" width="64.001" height="64.017"><path d="M63.952 28.017c.008-.922-.381-1.844-1.184-2.545L54 17.802v-5.785a4 4 0 00-4-4h-7.186L34.843 1.04c-1.586-1.387-4.158-1.387-5.746 0l-7.973 6.977h-7.123a4 4 0 00-4 4v5.73l-8.828 7.725c-.818.715-1.197 1.605-1.172 2.545v32a4 4 0 004 4h56a4 4 0 004-4l-.049-32z" fill="#ccc"/><path d="M48.001 12.017h-32a2 2 0 00-2 2v19.838l18 15.459 18-15.459V14.017c0-1.106-.895-2-2-2z" fill="#fff"/><path d="M33.417 53.55c-.354.295-.779.418-1.207.443-.07.012-.137.02-.209.021a1.608 1.608 0 01-.209-.021c-.428-.025-.854-.148-1.209-.443L4.001 30.718v27.299a2 2 0 002 2h52a2 2 0 002-2V30.718L33.417 53.55z" fill="#fff"/><path d="M44.001 24.366c0-3.523-2.893-6.379-6.461-6.379a6.447 6.447 0 00-5.539 3.141 6.452 6.452 0 00-5.539-3.141c-3.568 0-6.461 2.855-6.461 6.379 0 1.762.723 3.357 1.895 4.512l-.006.002 8.518 8.25h.027c.322.537.889.916 1.566.916s1.244-.379 1.566-.916h.027l8.516-8.25-.004-.002a6.32 6.32 0 001.895-4.512z" fill="#ed7161"/></svg>