<svg xmlns="http://www.w3.org/2000/svg" width="56" height="64"><path d="M28 0C13.641 0 2 10.535 2 26c0 15.463 8.707 38 26 38s26-22.537 26-38C54 10.535 42.359 0 28 0z" fill="#f2cba5"/><path d="M18 26c-5.15 0-6 2.238-6 5 0 2.285 3.367 5 6 5 3.313 0 6-2.238 6-5 0-4.529-.375-5-6-5zm20 0c-5.625 0-6 .471-6 5 0 2.762 2.686 5 6 5 2.633 0 6-2.715 6-5 0-2.762-.85-5-6-5z" fill-rule="evenodd" clip-rule="evenodd" fill="#333"/><path d="M28 38a2 2 0 10-.001 3.999A2 2 0 0028 38zm-8 6a2 2 0 10-.001 3.999A2 2 0 0020 44zm14 0a2 2 0 10-.001 3.999A2 2 0 0034 44zm-14 8a2 2 0 10-.001 3.999A2 2 0 0020 52zm14 0a2 2 0 10-.001 3.999A2 2 0 0034 52zM8 38a2 2 0 10-.001 3.999A2 2 0 008 38zm38 0a2 2 0 10-.001 3.999A2 2 0 0046 38zM14 10a2 2 0 10-.001 3.999A2 2 0 0014 10zm26 0a2 2 0 10-.001 3.999A2 2 0 0040 10zm-18 8a2 2 0 10-.001 3.999A2 2 0 0022 18zm12 2a2 2 0 10-4 0 2 2 0 004 0zm6-2a2 2 0 10-.001 3.999A2 2 0 0040 18zm-26 0a2 2 0 10-.001 3.999A2 2 0 0014 18zM2 26c-1.105 0-2 1.791-2 4s.895 4 2 4c1.104 0 2-1.791 2-4s-.896-4-2-4zM24 2a2 2 0 002 2h4a2 2 0 002-2V0h-8v2zm30 24c-1.105 0-2 1.791-2 4s.895 4 2 4c1.104 0 2-1.791 2-4s-.896-4-2-4z" fill-rule="evenodd" clip-rule="evenodd" fill="#666"/></svg>