<svg xmlns="http://www.w3.org/2000/svg" width="64" height="52"><path d="M44 22c.286-1.211 2-3.582 2-6 0-1.123-3.499-1.02-4-2-.389-.762 2-3.977 2-6 0-1.158-3.45-.924-4-2-.583-1.141-.219-6-2-6-2.644 0-4.991 3.34-6 4-.953.621-2.838 0-4 0-1.213 0-1.327 5.561-2 6-.868.566-6-1.123-6 0 0 2.418 2.286 4.789 2 6-.262 1.102-2 .76-2 2 0 .955 2.3 2.734 2 4-.391 1.648-2.39 3.236-2 4 .474.928 5.499 3.02 6 4 .613 1.201 1.242 5.77 2 6 .758.229 3.596-3.42 4.658-4.113.868-.567 4.521.648 5.342.113.675-.441 1.609-2.352 2-4 .3-1.266 3.779-1.07 4-2 .22-.928-.262-2.898 0-4z" fill="#75a64b"/><path d="M26 32c-.882-.51-1.165-3.52-2-4-.687-.396-2.517-.398-4 0-1.138.305-2.163-2-4-2-.863 0-1.009 1.734-2 2-1.088.291-3.324-2-6-2-1.017 0 .51 3.117 0 4-.396.684-3.157 1.156-4 2-1.536 1.535 0 4.344 0 6 0 1.184-4 4.266-4 6 0 1.795 4.974 1.406 6 2 .969.559 1.072 3.465 2 4 1.032.596 4.195-1.031 4.88-.637.883.51 2.103 2.637 3.12 2.637 2.176 0 2.912-3.709 4-4 .99-.266 1.166 2.223 2 2 .837-.225.862-3.695 2-4 1.483-.398 3.604-1.314 4-2 .481-.836-.51-5.119 0-6 .623-1.08 4.206-3.23 4-4-.207-.771-4.92-1.377-6-2zm34 0c0-1.656 1.535-4.465 0-6-.844-.844-3.604-1.316-4-2-.51-.883 1.017-4 0-4-2.676 0-4.912 2.291-6 2-.991-.266-1.137-2-2-2-1.837 0-2.863 2.305-4 2-1.483-.398-3.313-.396-4 0-.835.48-1.118 3.49-2 4-1.08.623-5.794 1.229-6 2-.207.77 3.376 2.918 4 4 .509.881-.482 5.164 0 6 .396.686 2.517 1.602 4 2 1.137.305 1.163 3.775 2 4 .833.223 1.009-2.266 2-2 1.088.291 1.824 4 4 4 1.017 0 2.237-2.127 3.12-2.637.685-.396 3.847 1.233 4.88.637.928-.535 1.031-3.441 2-4 1.026-.594 6-.205 6-2 0-1.734-4-4.816-4-6z" fill-rule="evenodd" clip-rule="evenodd" fill="#88c057"/><circle cx="31" cy="29" r="7" fill="#ba594c"/><path d="M35 32a7 7 0 10.001 13.999A7 7 0 0035 32zm-14-4a7 7 0 10.001 13.999A7 7 0 0021 28z" fill-rule="evenodd" clip-rule="evenodd" fill="#ed7161"/></svg>