<svg xmlns="http://www.w3.org/2000/svg" width="64" height="64"><path d="M60 47.998c-1.881-1.879-18-10-18-10L38 32c1.289-1.328 3.215-4.434 4-6 2-4.002 4-8 4-14 0-8.002-6.268-12-14-12S18 3.998 18 12c0 6 2 9.998 4 14 .783 1.566 2.711 4.672 4 6l-4 5.998s-16.121 8.121-18 10C.24 51.76 0 64 0 64h64s-.24-12.24-4-16.002z" fill="#e6e6e6"/><path d="M34 34l2-4H24.424c.553.795 1.107 1.516 1.576 2l-1.334 2H34zm-6-16l-4-4-5.676 2c.334 2.035.902 3.838 1.586 5.521L28 18zm14-4l-10-4-4 2 10 4 4-2zm2.115 25.076C42.838 38.422 42 37.998 42 37.998l-2.461-2.461L26 44l4 2 14.115-6.924zm-.263-34.002L38 8l8 4c0-2.812-.809-5.102-2.148-6.926zM43.885 22H32l-4 2 14.117 1.764c.613-1.229 1.219-2.469 1.768-3.764zM2 52c-.51 1.391-.891 2.451-1.176 4H16l-8-6-6 2zm34-4l14 6 4-2-14-6-4 2zm26 6l-6 2 7.717 3.857C63.545 58.184 62.445 55.906 62 54zm-26 4l4 2 10-2-8-2-6 2zM22 46l-6 6h6l4-4-4-2zm4 8l4 4 4-4-2-4-6 4zm-2-14h-4c-1.139.58-2.172 1.043-4 2l4 2 4-4z" fill-rule="evenodd" clip-rule="evenodd" fill="#999"/></svg>