<svg xmlns="http://www.w3.org/2000/svg" width="64" height="64"><path fill="#8c6845" d="M32 2L16 20v24h32V20z"/><path d="M60 47.998C58.119 46.119 42 38 42 38H22S5.879 46.119 4 47.998c-3.76 3.762-4 16-4 16h64s-.24-12.238-4-16z" fill="#e68845"/><path fill="#88c057" d="M26 42h12v22H26z"/><path fill="#fc6" d="M30 42h4v22h-4z"/><path d="M42 36H22c-2.063 0-4 2.563-4 4s2 8 14 8 14-6 14-8-2-4-4-4z" fill="#48a0dc"/><path d="M38 30H26c0 4-4 8-4 10s4 4 10 4 10-2 10-4-4-6-4-10z" fill="#dbb59a"/><path d="M32 2c-7.732 0-14 4-14 12 0 6 2 10 4 14 2 3.998 6.082 8 10 8s8-4.002 10-8c2-4 4-8 4-14 0-8-6.268-12-14-12z" fill="#f6cbad"/><path d="M18 0c-2 0-2 0-2 2s6 14 8 14 2 0 2-2-6-14-8-14z" fill="#88c057"/><path d="M32 0C21.072 0 16 8 16 12v8c6 0 16-14 16-14s10 14 16 14v-8c0-4-5.109-12-16-12z" fill="#8c6845"/><path fill="#ed7161" d="M16 12h32v4H16z"/></svg>