<svg xmlns="http://www.w3.org/2000/svg" width="64" height="64"><path d="M28 0c0 10.063-6 8.248-6 14a6 6 0 0012 0c0-3.314-.499-8.5-6-14z" fill="#fc6"/><path d="M28 16a2 2 0 00-2 2v8a2 2 0 004 0v-8a2 2 0 00-2-2z" fill="#666"/><path fill="#ccc" d="M14 26h28v30H14z"/><path d="M40 24c-2.443 0-3.443 2-6 2-3.078 0-9.437-2-14-2-3.414 0-4.273 2-6 2-1.137 0-2 1.238-2 4 0 2.76.738 6 2 6 2.292 0 2.346-6 12-6 1.191 0 2.317.293 3.394.753C28.805 33.464 28 37.299 28 38a2 2 0 004 0c0-.645-.68-3.933-1.246-6.566C35.48 34.194 39.078 40 42 40c1.637 0 2-7.24 2-10 0-2.762-1.238-6-4-6zM14 48a2 2 0 002-2c0-1.105-2-10-2-10s-2 8.895-2 10a2 2 0 002 2z" fill-rule="evenodd" clip-rule="evenodd" fill="#b3b3b3"/><path d="M56 46a8 8 0 00-8 8s-9.599 2-22 2c-11.569 0-22-2-22-2-1.104 0-4 .895-4 2 0 1.104 10.896 8 12 8h30c.813 0 4.749-4.318 6.779-6.608C50.059 60.107 52.799 62 56 62a8 8 0 000-16zm0 12a4 4 0 110-8 4 4 0 010 8z" fill-rule="evenodd" clip-rule="evenodd" fill="#666"/></svg>