<svg xmlns="http://www.w3.org/2000/svg" width="64" height="64"><path d="M52 34c0-10.811-5.997-15.998-6-16H18c-.004.002-6 5.189-6 16 0 14.25 12 15.563 12 20 0 5-6 5.188-6 10 0 0 5-2 8-2 1.938 0 2.125 2 6 2s4.063-2 6-2c3 0 8 2 8 2 0-4.813-6-5-6-10 0-4.437 12-5.75 12-20z" fill="#735538"/><path d="M60 46H4a4 4 0 000 8h56a4 4 0 000-8z" fill="#4d4d4d"/><path d="M28 44a2 2 0 00-2 2 2 2 0 00-4 0v4a2 2 0 004 0 2 2 0 004 0v-4a2 2 0 00-2-2zm12 0a2 2 0 00-2 2 2 2 0 00-4 0v4a2 2 0 004 0 2 2 0 004 0v-4a2 2 0 00-2-2z" fill-rule="evenodd" clip-rule="evenodd" fill="#bf8d5e"/><path d="M47.138 8.369C47.588 5.736 48 2.617 48 0c-2.253 0-5.139 3.697-6.756 6.064A11.94 11.94 0 0032 9.073a11.94 11.94 0 00-9.244-3.009C21.139 3.697 18.253 0 16 0c0 2.616.412 5.736.862 8.369C13.917 10.556 12 14.049 12 18c0 6.627 5.372 12 12 12a11.94 11.94 0 008-3.074A11.94 11.94 0 0040 30c6.627 0 12-5.373 12-12 0-3.951-1.917-7.444-4.862-9.631z" fill-rule="evenodd" clip-rule="evenodd" fill="#a67a51"/><path d="M40 10a8 8 0 00-8 8 8 8 0 10-8 8c1.936 0 3.687-.715 5.07-1.859L32 30l2.93-5.859C36.313 25.285 38.064 26 40 26a8 8 0 000-16z" fill-rule="evenodd" clip-rule="evenodd" fill="#e6e6e6"/><path d="M24 14a4 4 0 100 8 4 4 0 000-8zm16 0a4 4 0 100 8 4 4 0 000-8z" fill-rule="evenodd" clip-rule="evenodd" fill="#4d4d4d"/></svg>