<svg xmlns="http://www.w3.org/2000/svg" width="64" height="64"><path d="M56 32v-2C56 14.535 43.463 2 28 2h-4v4h4c13.254 0 24 10.744 24 24v2c-4 4-8 10.26-8 16 0 7.732 4.477 12 10 12s10-4.268 10-12c0-5.65-4-12-8-16z" fill-rule="evenodd" clip-rule="evenodd" fill="#999"/><path d="M56 28h-4a2 2 0 100 4h4a2 2 0 000-4z" fill="#333"/><path d="M22 0h-4a2 2 0 00-2 2v8a2 2 0 002 2h4a2 2 0 002-2V2a2 2 0 00-2-2z" fill="#999"/><path d="M24 8h-8a2 2 0 00-2 2v12a2 2 0 002 2h8a2 2 0 002-2V10a2 2 0 00-2-2z" fill="#666"/><path d="M40 38c0-12-8.955-20-20-20C8.953 18 0 26 0 38s10 16 10 18c0 2.359-4 4-4 6s1.791 2 4 2h20c2.209 0 4 0 4-2s-4-3.641-4-6c0-2 10-6 10-18z" fill="#f06eaa"/></svg>