<svg xmlns="http://www.w3.org/2000/svg" width="64" height="56"><path d="M32 38C0 38 0 42.666 0 48c0 4.018 11.977 8 32 8 20.021 0 32-4 32-8 0-5.334 0-10-32-10z" fill="#353535"/><path d="M46 2c0-1.105-6.268-2-14-2S18 .895 18 2l-4 44h36L46 2z" fill-rule="evenodd" clip-rule="evenodd" fill="#4d4d4d"/><path fill-rule="evenodd" clip-rule="evenodd" fill="#a67c52" d="M14.727 38L14 46h36l-.727-8z"/><path d="M36 36h-8a2 2 0 00-2 2v8a2 2 0 002 2h8a2 2 0 002-2v-8a2 2 0 00-2-2zm-2 8h-4v-4h4v4z" fill-rule="evenodd" clip-rule="evenodd" fill="#fc6"/></svg>