<svg xmlns="http://www.w3.org/2000/svg" width="64" height="64.001"><path d="M60 47.999c-1.881-1.879-10-5.998-10-5.998H14S5.879 46.12 4 47.999c-3.762 3.76-4 16.002-4 16.002h64s-.24-12.242-4-16.002z" fill="#666"/><path d="M32 54.001A2 2 0 1031.999 50 2 2 0 0032 54zm0 4a1.999 1.999 0 100 4 2.001 2.001 0 000-4z" fill-rule="evenodd" clip-rule="evenodd" fill="#999"/><path d="M42 38.001l-2-2H24l-2 2-8 4c0 4 12 8 12 8l6-8 6 8s12-4 12-8l-8-4z" fill="#e6e6e6"/><path d="M38 30.001H26l-2 6c0 1.104 4.895 4 6 4h4c1.104 0 6-2.896 6-4l-2-6z" fill="#dbb59a"/><path d="M40 2.001c-.777-2.121-4-2-8-2s-7.223-.121-8 2c-.732 2-2 8-2 8h20s-1.268-6-2-8z" fill="#666"/><path d="M32 8.001c-9.941 0-20 4.477-20 10 0 5.521 10.059 14 20 14s20-8.479 20-14c0-5.523-10.059-10-20-10z" fill="#4d4d4d"/><path d="M32 14.001c-7.004 0-14 2-14 4 .549 3.84 2.371 6.744 4 9.998 2 4 6.08 8.002 10 8.002 3.918 0 8-4.002 10-8.002 1.627-3.254 3.449-6.158 4-9.998 0-2-6.996-4-14-4z" fill="#f5caab"/></svg>