<svg xmlns="http://www.w3.org/2000/svg" width="56" height="64"><path d="M52 48c-1.881-1.881-8-4-8-4H12s-6.121 2.119-8 4C.24 51.76 0 64 0 64h56s-.24-12.24-4-16z" fill="#666"/><path d="M28 56a2 2 0 10-.001-4.001A2 2 0 0028 56zm0 4a2 2 0 10-.001 3.999A2 2 0 0028 60z" fill-rule="evenodd" clip-rule="evenodd" fill="#999"/><path d="M36 40l-2-2H22l-2 2-8 4c0 4 12 6 12 6l4-6 4 6s12-2 12-6l-8-4z" fill="#e6e6e6"/><ellipse cx="28" cy="10" rx="12" ry="10" fill="#b3b3b3"/><path d="M28 4c-8 0-16 4-16 14 0 9.973 4 18 4 18s2-2 4-2h16c2 0 4 2 4 2s4-8 4-18S36 4 28 4z" fill="#e6e6e6"/><path d="M32 30h-8l-2 8s2.023 2 6 2 6-2 6-2l-2-8z" fill="#dbb59a"/><path d="M28 12c-7.732 0-12 2-12 6 0 2 0 6 2 10 2 3.998 6.082 8 10 8s8-4.002 10-8c2-4 2-8 2-10 0-4-4.268-6-12-6z" fill="#f6cbad"/><path d="M28 8c-8 0-12 4-12 10 6 0 12-6 12-6s6 6 12 6c0-6-4-10-12-10z" fill="#8c6845"/></svg>