<svg xmlns="http://www.w3.org/2000/svg" width="48" height="64"><path d="M32 17.395V16a2 2 0 002-2v-2a2 2 0 00-2-2V8a2 2 0 00-2-2H18a2 2 0 00-2 2v2a2 2 0 00-2 2v2a2 2 0 002 2v1.395C6.685 20.692 0 29.554 0 40c0 13.254 10.744 24 24 24 13.254 0 24-10.746 24-24 0-10.446-6.686-19.307-16-22.605z" fill-rule="evenodd" clip-rule="evenodd" fill="#ccc"/><path d="M28 20.401V12a2 2 0 00-2-2h-4a2 2 0 00-2 2v8.401C10.871 22.254 4 30.323 4 40c0 11.045 8.953 20 20 20 11.045 0 20-8.955 20-20 0-9.677-6.872-17.745-16-19.599z" fill-rule="evenodd" clip-rule="evenodd" fill="#fff"/><path d="M35.975 41.751C35.844 39.66 34.124 38 32 38c-2.033 0-3.694 1.523-3.948 3.488-2.036-.46-4.083-1.146-6.117-1.812C21.775 38.732 20.989 38 20 38c-.585 0-1.099.26-1.465.66-1.533-.392-3.05-.66-4.535-.66-.063 0-.119.007-.182.008A2.991 2.991 0 0011 36a2.99 2.99 0 00-2.971 2.709C5.565 39.284 4 40 4 40c0 11.045 8.953 20 20 20 11.045 0 20-8.955 20-20 0 0-3.51 1.217-8.025 1.751z" fill-rule="evenodd" clip-rule="evenodd" fill="#88c057"/><path d="M20 48a2 2 0 10-.001 3.999A2 2 0 0020 48zm11-4a3.001 3.001 0 000 6 3.001 3.001 0 000-6zm-3 8a2 2 0 10-.001 3.999A2 2 0 0028 52zM16 42a2 2 0 10-.001 3.999A2 2 0 0016 42z" fill-rule="evenodd" clip-rule="evenodd" fill="#fc6"/><path d="M28 0h-8a2 2 0 00-2 2v4h12V2a2 2 0 00-2-2zm-2 10h-4a2 2 0 00-2 2v2a2 2 0 002 2h4a2 2 0 002-2v-2a2 2 0 00-2-2z" fill-rule="evenodd" clip-rule="evenodd" fill="#a67c52"/></svg>