<svg xmlns="http://www.w3.org/2000/svg" width="64" height="64"><path d="M60 48c-1.881-1.881-18-10-18-10H22S5.879 46.119 4 48C.24 51.76 0 64 0 64h64s-.24-12.24-4-16z" fill="#666"/><path d="M40 35.998H24L22 38s3.373 6 10 6 10-6 10-6l-2-2.002z" fill="#333"/><path d="M34 40h-4a2 2 0 100 4h4a2 2 0 000-4z" fill="#fff"/><path d="M38 30H26l-2 5.998C24 37.104 28.895 40 30 40h4c1.104 0 6-2.896 6-4.002L38 30z" fill="#dbb59a"/><path d="M32 2c-7.732 0-14 4-14 12 0 5.998 2 9.998 4 14 2 4 6.082 7.998 10 7.998S40 32 42 28c2-4.002 4-8.002 4-14 0-8-6.268-12-14-12z" fill="#f6cbad"/><path d="M32 0c-4.684 0-10 1.73-10 4-2.957 0-4 6.617-4 12 0 .896.08 1.842.205 2.803C18.719 16.156 20.311 12 24 12h8c3.063 0 8-1.498 8-4 2.596-.035 6 3.66 6 8 0-7.865-1.285-16-14-16z" fill="#8c6845"/><path d="M33.43 59.43c.127-.127.201-.281.285-.43l16.662-16.662a473.579 473.579 0 00-3.563-1.869L32 55.283 17.186 40.469a457.871 457.871 0 00-3.564 1.869l16.66 16.658c.084.15.16.305.287.434.395.395.916.568 1.432.549a1.903 1.903 0 001.429-.549z" fill-rule="evenodd" clip-rule="evenodd" fill="#cca352"/><path d="M36 56h-2v-2a2 2 0 00-4 0v2h-2a2 2 0 100 4h2v4h4v-4h2a2 2 0 000-4z" fill-rule="evenodd" clip-rule="evenodd" fill="#fc6"/></svg>