<svg xmlns="http://www.w3.org/2000/svg" width="64" height="64"><path d="M38 11.998c-2.068 0-4.071 1.545-6 2.002-1.93-.457-3.932-2.002-6-2.002C11.641 11.998 0 23.641 0 38s11.641 26 26 26c2.068 0 4.07-1.545 6-2 1.929.455 3.932 2 6 2 14.359 0 26-11.641 26-26S52.359 11.998 38 11.998z" fill="#e67a2e"/><path d="M33.875 13.311c-.633.283-1.258.543-1.875.689-.617-.146-1.243-.406-1.875-.689C27.73 16.725 26 26.48 26 38s1.73 21.275 4.126 24.688c.632-.282 1.257-.543 1.874-.688.617.146 1.242.406 1.874.688C36.27 59.275 38 49.52 38 38s-1.73-21.275-4.125-24.689zM16 38c0-12.436 5.376-22.818 12.555-25.381a10.43 10.43 0 00-.694-.26C15.474 14.346 6 25.053 6 38s9.474 23.652 21.86 25.641c.232-.08.464-.166.694-.262C21.376 60.816 16 50.436 16 38zm20.14-25.641a10.43 10.43 0 00-.694.26C42.624 15.182 48 25.564 48 38s-5.376 22.816-12.555 25.379c.23.096.462.182.694.262C48.526 61.652 58 50.947 58 38s-9.474-23.654-21.86-25.641z" fill-rule="evenodd" clip-rule="evenodd" fill="#f83"/><path d="M34 0a6 6 0 00-6 5.998c0 3.314 2.125 5.877 0 8.002 0 1.104 1.791 1.998 4 1.998s4-.895 4-1.998c-1.125-1.125-4-6.896-4-8.002a2 2 0 014 0 2.001 2.001 0 104 0A6 6 0 0034 0z" fill-rule="evenodd" clip-rule="evenodd" fill="#a67c52"/></svg>