<svg xmlns="http://www.w3.org/2000/svg" width="64" height="56.001"><path d="M50.856 41.202c.022-.039.052-.063.077-.098L28 27.999l22.93-13.105c-.024-.035-.055-.059-.077-.098-.293-.512-.175-1.02-.078-1.275a2.799 2.799 0 00-2.909-3.779c-.451 0-.857-.064-1.205-.41-.419-.42-.435-.934-.406-1.203a2.795 2.795 0 00-1.076-2.51 2.795 2.795 0 00-2.704-.398c-.436.164-.896.139-1.28-.084-.513-.297-.662-.793-.706-1.063a2.805 2.805 0 00-1.694-2.145 2.81 2.81 0 00-2.714.322c-.246.178-.741.383-1.249.248-.575-.152-.847-.594-.958-.842A2.8 2.8 0 0031.682.022a2.818 2.818 0 00-2.541 1.014c-.171.211-.546.565-1.141.565s-.971-.354-1.141-.564a2.798 2.798 0 00-4.732.621c-.111.248-.383.689-.958.842-.508.135-1.003-.07-1.25-.248a2.808 2.808 0 00-2.713-.322 2.804 2.804 0 00-1.694 2.145c-.044.27-.193.766-.707 1.063-.384.223-.845.248-1.279.084a2.797 2.797 0 00-2.704.398 2.785 2.785 0 00-1.077 2.508c.028.27.013.783-.407 1.203-.347.346-.753.41-1.204.41a2.799 2.799 0 00-2.909 3.779c.097.256.215.764-.078 1.275-.303.52-.798.668-1.067.713a2.799 2.799 0 00-1.823 4.408c.158.219.402.672.249 1.25-.154.574-.597.848-.846.959a2.797 2.797 0 00-.625 4.728c.212.174.566.551.566 1.146 0 .594-.355.973-.567 1.145a2.798 2.798 0 00.619 4.724c.202.092.689.367.85.963.155.58-.091 1.037-.25 1.256a2.802 2.802 0 001.827 4.408c.27.041.766.191 1.064.705.217.375.247.838.082 1.27-.348.904-.116 1.924.474 2.695s1.617 1.17 2.586 1.082c.289 0 .706.074 1.057.422.418.416.433.93.403 1.199a2.801 2.801 0 003.776 2.914c.438-.166.92-.133 1.281.074.519.301.667.797.71 1.063a2.801 2.801 0 004.408 1.83 1.53 1.53 0 011.247-.256c.577.156.85.596.96.844a2.804 2.804 0 002.19 1.637 2.774 2.774 0 002.541-1.012c.168-.209.54-.557 1.141-.557s.973.348 1.14.557a2.777 2.777 0 002.542 1.012 2.803 2.803 0 002.19-1.637c.11-.248.382-.688.96-.844a1.523 1.523 0 011.247.256 2.801 2.801 0 004.408-1.83c.043-.266.191-.762.71-1.063.361-.207.843-.24 1.28-.074a2.799 2.799 0 003.777-2.914c-.029-.27-.015-.783.402-1.199a1.477 1.477 0 011.057-.422c.969.088 1.997-.311 2.587-1.082s.821-1.791.474-2.695a1.47 1.47 0 01.082-1.268z" fill-rule="evenodd" clip-rule="evenodd" fill="#ffd2b2"/><path d="M28 27.999l19.089-10.91C43.296 10.468 36.176 5.997 28 5.997c-12.15 0-22 9.85-22 22.002s9.85 22.002 22 22.002c8.177 0 15.297-4.471 19.089-11.092L28 27.999z" fill-rule="evenodd" clip-rule="evenodd" fill="#ff974c"/><path d="M58.933 41.104c.301-.426.738-.57.986-.607a2.8 2.8 0 001.828-4.408 1.474 1.474 0 01-.25-1.256c.159-.596.647-.871.85-.963a2.803 2.803 0 00.619-4.724c-.212-.172-.567-.551-.567-1.145 0-.596.354-.973.566-1.146a2.802 2.802 0 001.011-2.539 2.801 2.801 0 00-1.636-2.189c-.25-.111-.691-.385-.846-.959-.154-.578.091-1.031.249-1.25a2.797 2.797 0 00-1.824-4.408 1.525 1.525 0 01-.989-.615L36 27.999l22.933 13.105z" fill-rule="evenodd" clip-rule="evenodd" fill="#ffd2b2"/><path d="M55.088 38.909C56.931 35.69 58 31.974 58 27.999s-1.068-7.691-2.911-10.91L36 27.999l19.088 10.91z" fill-rule="evenodd" clip-rule="evenodd" fill="#ff974c"/><path d="M22 27.999c0-1.105-1.791-2-4-2s-4 .895-4 2c0 1.104 1.791 2 4 2s4-.896 4-2zm24-2c-2.209 0-4 .895-4 2 0 1.104 1.791 2 4 2s4-.896 4-2c0-1.105-1.792-2-4-2zM35.285 14.224c-1.093-.609-3.002.609-4.265 2.719-1.263 2.111-1.399 4.318-.307 4.928 1.094.611 3.003-.607 4.266-2.721 1.263-2.112 1.399-4.317.306-4.926zm-10 19.902c-1.093-.609-3.002.607-4.265 2.721-1.263 2.111-1.399 4.316-.307 4.926 1.094.609 3.003-.607 4.266-2.719 1.263-2.114 1.399-4.319.306-4.928zm-4.572-19.904c-1.093.605-.956 2.791.307 4.885 1.263 2.096 3.172 3.301 4.265 2.697 1.094-.605.957-2.793-.306-4.885-1.263-2.094-3.172-3.301-4.266-2.697zm10 19.972c-1.093.604-.956 2.789.307 4.885 1.263 2.094 3.172 3.301 4.265 2.695 1.094-.604.957-2.789-.306-4.885-1.263-2.093-3.172-3.3-4.266-2.695z" fill-rule="evenodd" clip-rule="evenodd" fill="#cc793d"/></svg>