<svg xmlns="http://www.w3.org/2000/svg" width="64" height="48"><path d="M32 12c-7.732 0-14 6.268-14 14h4.015c0-5.516 4.471-9.986 9.985-9.986s9.985 4.471 9.985 9.986H46c0-7.732-6.269-14-14-14z" fill="#387aa7"/><path d="M32 8c-9.941 0-18 8.059-18 18h4.008c0-7.729 6.265-13.992 13.992-13.992S45.991 18.271 45.991 26H50c0-9.941-8.059-18-18-18z" fill="#88c057"/><path d="M32 4c-12.15 0-22 9.85-22 22h4c0-9.941 8.059-18 18-18s18 8.059 18 18h4c0-12.15-9.851-22-22-22z" fill="#fc6"/><path d="M32 0C17.641 0 6 11.641 6 26h4c0-12.15 9.85-22.002 22-22.002S54 13.85 54 26h4C58 11.641 46.359 0 32 0z" fill="#ed7161"/><path d="M59.905 19.059C59.45 16.195 56.991 14 54 14c-2.77 0-5.078 1.887-5.769 4.439A5.978 5.978 0 0046 18a6 6 0 00-6 6c0 .18.037.35.053.525C38.834 25.211 38 26.502 38 28a4 4 0 004 4 3.98 3.98 0 002.767-1.121C45.789 32.73 47.736 34 50 34c.999 0 1.927-.268 2.756-.699A7.968 7.968 0 0056 34a8 8 0 008-8c0-2.992-1.662-5.57-4.095-6.941z" fill-rule="evenodd" clip-rule="evenodd" fill="#e6e6e6"/><path d="M48 28c-.94 0-1.829.191-2.667.49C43.908 24.705 40.282 22 36 22c-1.805 0-3.474.516-4.935 1.352C29.249 19.033 24.979 16 20 16c-5.274 0-9.743 3.406-11.353 8.137C3.771 24.803 0 28.939 0 34c0 5.523 4.477 10 10 10 1.258 0 2.45-.258 3.56-.682C15.331 46.123 18.437 48 22 48c3.286 0 6.177-1.607 8-4.055C31.822 46.393 34.713 48 38 48c3.371 0 6.338-1.68 8.149-4.236A7.96 7.96 0 0048 44a8 8 0 000-16z" fill-rule="evenodd" clip-rule="evenodd" fill="#ccc"/></svg>