<svg xmlns="http://www.w3.org/2000/svg" width="64" height="56"><path d="M18.574 39.143C11.433 39.752 2 40 2 40s-2 1.695-2 4 2 4 2 4c23.254 0 34.874 4 38 4s4-6 4-6c-13.878 0-21.378-3.008-25.426-6.857z" fill="#a67c52"/><path d="M64 46s-6.371-4.297-12-12c-1.704-2.332-3.004-5.613-4-8-1.118-2.682-7.761-13.066-10-16-2.146-2.814-6.195-4-8-4 0-2.588-3.133-6-8-6s-8 2-8 2h-4C3.051 2 0 8 0 8s2.977 2 10 2c3.354 0 6 2.607 6 4 0 4.076-2 4.648-2 10 0 4.916-3.1 22 30 22 3.382 0 6.528 2.18 8 4 .762.941 6 6 6 6l6-4s-2.968-1.662-6-4c2.166 0 6-2 6-2z" fill="#4d4d4d"/><circle cx="20" cy="6" r="2" fill="#fff"/></svg>