<svg xmlns="http://www.w3.org/2000/svg" width="64" height="64"><path d="M6 56h8l4 8 14-36-6-4L6 56zm32-32l-6 4 14 36 4-8h8L38 24z" fill-rule="evenodd" clip-rule="evenodd" fill="#ed7161"/><path d="M64 8c0-4.418-4-8-10-8-8 0-22 16-22 16S18 0 10 0C4 0 0 3.582 0 8c0 0 2 6.309 2 12 0 6.279-2 12-2 12 0 4.418 4 6 10 6 8 0 22-10 22-10s14 10 22 10c6 0 10-1.582 10-6 0 0-2-5.721-2-12 0-5.691 2-12 2-12z" fill-rule="evenodd" clip-rule="evenodd" fill="#ed7161"/><path d="M6 30c0 3.682 1.5 4 6.75 4 7 0 19.25-8.334 19.25-8.334S23 24 16 24c-5.25 0-10 2.318-10 6zm42-6c-7 0-16 1.666-16 1.666S44.25 34 51.25 34c5.25 0 6.75-.318 6.75-4s-4.75-6-10-6z" fill-rule="evenodd" clip-rule="evenodd" fill="#ba594c"/><path d="M34 12h-4a4 4 0 00-4 4v8a4 4 0 004 4h4a4 4 0 004-4v-8a4 4 0 00-4-4z" fill="#ba594c"/></svg>