<svg xmlns="http://www.w3.org/2000/svg" width="48" height="64"><path d="M24 16C10.744 16 0 26.744 0 40c0 13.254 10.744 24 24 24 13.254 0 24-10.746 24-24 0-13.256-10.746-24-24-24zm0 42c-9.941 0-18-8.059-18-18s8.059-18 18-18 18 8.059 18 18-8.059 18-18 18z" fill-rule="evenodd" clip-rule="evenodd" fill="#fc6"/><path d="M18 6l-8.012-.004L24 20h.004l.004-.008-.006.006L18 6zm12 0l-5.992 13.992 14.01-13.996L30 6z" fill-rule="evenodd" clip-rule="evenodd" fill="#b3b3b3"/><path d="M10 6l7.984-.004L16.002.004 10 6zM32.002.004l-1.98 5.992L38 6 32.002.004zM24 20l6.01-14.004H17.996L24 20z" fill-rule="evenodd" clip-rule="evenodd" fill="#ccc"/><path fill="#e6e6e6" d="M16 0l2 6h12l2-6z"/></svg>