<svg xmlns="http://www.w3.org/2000/svg" width="64" height="64"><path d="M56 0H8a4 4 0 00-4 4v48a4 4 0 004 4h48a4 4 0 004-4V4a4 4 0 00-4-4z" fill="#666"/><path d="M54 4H10a2 2 0 00-2 2v44a2 2 0 002 2h44a2 2 0 002-2V6a2 2 0 00-2-2z" fill="#fff"/><path d="M32 20c-6.627 0-12 5.373-12 12s5.373 12 12 12 12-5.373 12-12-5.373-12-12-12zm0 20a8 8 0 110-16 8 8 0 010 16z" fill-rule="evenodd" clip-rule="evenodd" fill="#fc6"/><circle cx="32" cy="18" r="4" fill="#ccc"/><path d="M32 32c-12.15 0-26 1.371-26 8v8h52v-8c0-6.629-13.85-8-26-8z" fill="#ed7161"/><path d="M62 40H2a2 2 0 00-2 2v10a2 2 0 002 2h60a2 2 0 002-2V42a2 2 0 00-2-2z" fill="#999"/><path d="M0 44v16a4 4 0 004 4h56a4 4 0 004-4V44H0z" fill="#666"/></svg>