<svg xmlns="http://www.w3.org/2000/svg" width="60" height="64"><path d="M58 52H2a2 2 0 00-2 2v8a2 2 0 002 2h56a2 2 0 002-2v-8a2 2 0 00-2-2z" fill="#999"/><path d="M52 8h-4.146C43.459 3.101 37.1 0 30 0S16.541 3.101 12.146 8H8a4 4 0 00-4 4v40h52V12a4 4 0 00-4-4z" fill-rule="evenodd" clip-rule="evenodd" fill="#ccc"/><path d="M24 34c0-2.609-1.674-4.807-4-5.633V28h-6a2 2 0 00-2 2v12a2 2 0 004 0v-2h1.285l3.43 3.43a1.92 1.92 0 102.715-2.715l-1.896-1.897C23.025 37.731 24 35.986 24 34zm-6 2h-2v-4h2a2 2 0 010 4zm26-7.633V28h-6a2 2 0 00-2 2v12a2 2 0 004 0v-2h4v-.367c2.326-.827 4-3.025 4-5.633 0-2.609-1.674-4.807-4-5.633zM42 36h-2v-4h2a2 2 0 110 4zm-12-8a2 2 0 00-2 2v12a2 2 0 004 0V30a2 2 0 00-2-2zm4-16h-2v-2a2 2 0 10-4 0v2h-2a2 2 0 100 4h2v6a2 2 0 004 0v-6h2a2 2 0 000-4z" fill-rule="evenodd" clip-rule="evenodd" fill="#999"/></svg>