<svg xmlns="http://www.w3.org/2000/svg" width="64" height="56"><path d="M0 48v4a4 4 0 004 4h56a4 4 0 004-4v-4H0z" fill="#ccc"/><path d="M52 26c-7.957 0-10.301-12-28-12C5.689 14 0 30.799 0 38c0 8 6 10 6 10h42c4 0 12-8 12-14s-4-8-8-8z" fill="#e68845"/><path d="M61 4a2.98 2.98 0 00-1.316.316C59.88 3.918 60 3.475 60 3a3 3 0 10-5.121 2.121L50 10l4 4 4.879-4.879A3.001 3.001 0 1061 4z" fill-rule="evenodd" clip-rule="evenodd" fill="#ccc"/><path d="M54 10c-2-2-4-2-6 0-6 6-20 4-20 16 0 6 4 10 10 10 12 0 10-14 16-20 2-2 2-4 0-6z" fill="#b36a36"/><path d="M18 30s6-7.656 6-10c0-1.348-.371-2-2-2-1.594 0-14 9.328-14 14 0 2.031 2 4 2 4s-4 2-4 6c0 6 4 6 4 6h20c2 0 4-2 4-4 0-6-16-14-16-14z" fill="#b36a36"/></svg>