<svg xmlns="http://www.w3.org/2000/svg" width="52" height="68"><path d="M50 2a2 2 0 10-4 0c0 2.052-.311 4.03-.885 5.895A3.997 3.997 0 0142 4a2 2 0 10-4 0c0 3.561 2.342 6.543 5.557 7.58a20.053 20.053 0 01-3.086 4.199C37.902 15.1 36 12.781 36 10a2 2 0 00-4 0c0 3.721 2.057 6.929 5.07 8.651C33.9 20.764 30.096 22 26 22s-7.9-1.236-11.07-3.349C17.943 16.929 20 13.721 20 10a2 2 0 10-4 0c0 2.781-1.902 5.1-4.471 5.779a20.053 20.053 0 01-3.086-4.199C11.658 10.543 14 7.561 14 4a2 2 0 10-4 0 3.997 3.997 0 01-3.115 3.895A20.002 20.002 0 016 2a2 2 0 10-4 0c0 7.099 3.102 13.459 8 17.853V20c.051 0 .096-.014.146-.015C14.377 23.717 19.914 26 26 26c6.084 0 11.623-2.283 15.854-6.015.05.001.095.015.146.015v-.148C46.898 15.458 50 9.099 50 2z" fill-rule="evenodd" clip-rule="evenodd" fill="#ccc"/><path d="M38 22c-3.314 0-12 2.686-12 6 0 3.313 8.686 6 12 6 3.313 0 14-2.688 14-6 0-3.314-10.687-6-14-6zm-24 0c-3.314 0-14 2.686-14 6 0 3.313 10.686 6 14 6s12-2.688 12-6c0-3.314-8.686-6-12-6z" fill-rule="evenodd" clip-rule="evenodd" fill="#735538"/><path d="M26 18C18.035 18 8 33.963 8 46c0 12.035 10.557 18 18 18s18-5.965 18-18c0-12.037-10.037-28-18-28z" fill="#a67c52"/><path d="M10.039 54.375C13.467 60.796 20.557 64 26 64s12.533-3.204 15.961-9.625C41.557 47.488 34.576 42 26 42s-15.557 5.488-15.961 12.375z" fill-rule="evenodd" clip-rule="evenodd" fill="#f2cda7"/><circle cx="26" cy="48" r="6" fill="#ed7161"/><path d="M20 32a2 2 0 10-.001 3.999A2 2 0 0020 32zm12 0a2 2 0 10-.001 3.999A2 2 0 0032 32z" fill-rule="evenodd" clip-rule="evenodd"/></svg>