<svg xmlns="http://www.w3.org/2000/svg" width="64" height="64"><path d="M60 43.999c-1.881-1.879-18-10-18-10l-2-2H24l-2 2.002S5.879 42.12 4 43.999C.24 47.76 0 64 0 64h64s-.24-16.24-4-20.001z" fill="#ed7161"/><path fill="#fff" d="M28 44h8v20h-8z"/><path d="M36 58h-8a2 2 0 00-2 2v4h4v-2h4v2h4v-4a2 2 0 00-2-2z" fill="#fc6"/><path d="M50 16.001C50 7.164 42.836 0 34 0S18 7.164 18 16.001h18c0 6.938 6.035 16 20 16v-2c-3.939 0-6-6.508-6-14z" fill-rule="evenodd" clip-rule="evenodd" fill="#ed7161"/><path fill="#f5caab" d="M20 16.001h24v16H20z"/><path d="M44 26.001s-2.867 2-6 2H26c-3.135 0-6-2-6-2-2 0-2 4-2 6 0 8.889 2 3.938 2 12 0 3.559 7.939 4.061 4 8 1.447 0 3.436-1.535 5.305-3.322.887.561 1.785 1.02 2.695 1.32.91-.301 1.807-.76 2.695-1.32C36.564 50.465 38.551 52 40 52c-3.939-3.939 4-4.441 4-8 0-8.062 2-3.111 2-12 0-1.999 0-5.999-2-5.999z" fill="#e6e6e6"/><path d="M40 30.001c-2.563 0-3.375-4-8-4s-5.438 4-8 4c-4 0-4-2-4-2s0 6 6 6c4 0 6-2 6-2s2 2 6 2c6 0 6-6 6-6s0 2-4 2z" fill="#fff"/><path d="M32 10c-6.766 0-14 2.002-14 6v2.002s0 4 2 4c0-4 5.234-4 12-4s12 0 12 4c2 0 2-4 2-4V16c0-3.999-7.234-6-14-6z" fill="#e6e6e6"/><circle cx="55" cy="31.001" r="5" fill="#e6e6e6"/></svg>