<svg xmlns="http://www.w3.org/2000/svg" width="64" height="64"><path d="M60 47.998c-1.041-1.04-7.057-4.604-12.221-7.581.072-.139.162-.3.221-.419 2-4 2-13.998 2-19.998 0-8-4.188-20-18-20S14 12 14 20c0 6 0 15.998 2 19.998.059.118.148.28.221.419C11.055 43.394 5.041 46.958 4 47.998.24 51.76 0 64 0 64h64s-.24-12.24-4-16.002z" fill-rule="evenodd" clip-rule="evenodd" fill="#333"/><path d="M44 20c0-8-5.188-14-12-14s-12 6-12 14c0 2-2 2-2 6 0 2 4 6 6 6 0 16 1.617 26 8 26s8-10 8-26c2 0 6-4 6-6 0-4-2-3.992-2-6z" fill="#fff"/><path d="M32 34c-3.641 0-4 1.791-4 4s1.791 14 4 14 4-11.791 4-14-.359-4-4-4z" fill="#333"/><path d="M32 26c-1.75 0-2 4-2 4h4s-.25-4-2-4z" fill="#666"/><path d="M38 20c-1.207-1.207-.855-4-2-4-1 0-2 .748-2 2 0 2.9 1.637 6 4 6 1.336 0 2-1.104 2-2 0-.713-1.201-1.201-2-2zm-10-4c-1.145 0-.795 2.793-2 4-1.238 1.236-2 1.287-2 2 0 .896.664 2 2 2 2.363 0 4-3.1 4-6 0-1.252-1-2-2-2z" fill-rule="evenodd" clip-rule="evenodd" fill="#666"/></svg>