<svg xmlns="http://www.w3.org/2000/svg" width="64" height="64"><path d="M60 16H4a4 4 0 00-4 4v40a4 4 0 004 4h56a4 4 0 004-4V20a4 4 0 00-4-4z" fill="#e6e6e6"/><path d="M44 38.348c0-3.521-2.893-6.377-6.461-6.377A6.45 6.45 0 0032 35.11a6.455 6.455 0 00-5.539-3.139c-3.568 0-6.461 2.855-6.461 6.377 0 1.764.723 3.359 1.895 4.514l-.006.002 8.518 8.25h.027c.322.537.889.914 1.566.914s1.244-.377 1.566-.914h.027l8.516-8.25-.004-.004A6.316 6.316 0 0044 38.348z" fill="#ed7161"/><path d="M32 0c-8.836 0-16 7.164-16 16v6a2 2 0 104 0v-6c0-6.627 5.373-12 12-12s12 5.373 12 12v6a2 2 0 104 0v-6c0-8.836-7.164-16-16-16z" fill-rule="evenodd" clip-rule="evenodd" fill="#ed7161"/></svg>