<svg xmlns="http://www.w3.org/2000/svg" width="52" height="64"><path d="M26 0C11.641 0 0 6.535 0 22c0 14.725 4 17.813 4 22 0 2.402 8 2 8 6 0 6-.762 14 14 14s14-8 14-14c0-4 8-3.598 8-6 0-4.188 4-7.275 4-22C52 6.535 40.359 0 26 0z" fill="#e6e6e6"/><path d="M34 20c-4.418 0-6 3.582-6 8s3.582 6 8 6 8-1.582 8-6-5.582-8-10-8zm-16 0c-4.418 0-10 3.582-10 8s3.582 6 8 6 8-1.582 8-6-1.582-8-6-8z" fill-rule="evenodd" clip-rule="evenodd" fill="#333"/><path d="M26 36c-1.105 0-4 4.895-4 6 0 1.104 2.895 2 4 2s4-.896 4-2c0-1.105-2.895-6-4-6z" fill="#333"/><path d="M14 48a2 2 0 00-2 2v2a2 2 0 004 0v-2a2 2 0 00-2-2zm8 0a2 2 0 00-2 2v2a2 2 0 004 0v-2a2 2 0 00-2-2zm8 0a2 2 0 00-2 2v2a2 2 0 004 0v-2a2 2 0 00-2-2zm8 0a2 2 0 00-2 2v2a2 2 0 004 0v-2a2 2 0 00-2-2zm-20 2a2 2 0 00-2 2v2a2 2 0 004 0v-2a2 2 0 00-2-2zm8 0a2 2 0 00-2 2v2a2 2 0 004 0v-2a2 2 0 00-2-2zm8 0a2 2 0 00-2 2v2a2 2 0 004 0v-2a2 2 0 00-2-2z" fill-rule="evenodd" clip-rule="evenodd" fill="#b3b3b3"/></svg>