<svg xmlns="http://www.w3.org/2000/svg" width="64" height="48"><path d="M62 44H50v-4h-4v4H26v-4h-4v4H10a6 6 0 010-12 2 2 0 000-4v-.002C4.477 27.998 0 32.477 0 38c0 5.521 4.477 10 10 10h52a2 2 0 000-4z" fill-rule="evenodd" clip-rule="evenodd" fill="#fc6"/><path d="M34.717 24H52V4C41.896 4 38.088 18.986 34.717 24z" fill="#a67c52"/><path d="M64 2c0-1.301-.795-2-2-2-17.348 0-18.246 24-24 24h-8c-8 0-6-12-14-12-3.484 0-6 2.527-6 6 0 4.834 6 11.072 6 18 0 2.377 1.244 4 4 4h32c6.684 0 12-5.371 12-12 0-6.568-6-13.82-6-18 0-5.5 6-6 6-8z" fill="#ed7161"/><path d="M52 20a2 2 0 00-2 2c0 5.521-4.477 10-10 10H28a2 2 0 100 4h24a8 8 0 000-16z" fill="#ba594c"/></svg>