<svg xmlns="http://www.w3.org/2000/svg" width="56.018" height="64"><path d="M37.807 30.912A11.925 11.925 0 0040.009 24c0-6.627-5.373-12-12-12-6.628 0-12 5.373-12 12 0 2.576.819 4.957 2.201 6.912-4.933 3.211-8.201 8.764-8.201 15.088 0 9.941 8.059 18 18 18s18-8.059 18-18c0-6.324-3.268-11.877-8.202-15.088z" fill-rule="evenodd" clip-rule="evenodd" fill="#e6e6e6"/><path d="M28.009 48a2 2 0 10-.001 3.999A2 2 0 0028.009 48zm0-4a2 2 0 10-.001-4.001A2 2 0 0028.009 44zm-4-24a2 2 0 100 4 2 2 0 000-4zm8 0a2 2 0 100 4 2 2 0 000-4z" fill-rule="evenodd" clip-rule="evenodd" fill="#666"/><path d="M27.991 25.979c-1.094-.006-1.976.928-1.971 2.086.006 1.158.915 5.936 2.009 5.941s1.958-4.762 1.952-5.92-.897-2.102-1.99-2.107z" fill="#ed7161"/><path d="M38.009 12h-4V2a2 2 0 00-2-2h-8a2 2 0 00-2 2v10h-4a2 2 0 000 4h20a2 2 0 000-4z" fill-rule="evenodd" clip-rule="evenodd" fill="#666"/><path d="M55.436 24.572a1.989 1.989 0 00-2.81 0l-2.617 2.617V26a2 2 0 00-4 0v5.189l-5.427 5.428a1.986 1.986 0 102.809 2.809l5.97-5.97a1.7 1.7 0 00.104-.104l5.971-5.971a1.988 1.988 0 000-2.809zM10.009 31.19V26a2 2 0 00-4 0v1.19l-2.618-2.618a1.988 1.988 0 00-2.809 2.809l5.972 5.972c.033.036.066.069.102.103l5.971 5.971a1.988 1.988 0 002.81-2.809l-5.428-5.428z" fill-rule="evenodd" clip-rule="evenodd" fill="#a67c52"/></svg>