<svg xmlns="http://www.w3.org/2000/svg" width="64" height="64"><circle cx="32" cy="32" r="32" fill="#e6e6e6"/><path fill="#ccc" d="M31.984 29.982L22 40v12h20V40z"/><path d="M34 40h-4a2 2 0 00-2 2v10h8V42a2 2 0 00-2-2z" fill="#a67c52"/><path d="M24.984 28.016h-2c-.553 0-1 .445-1 .998v6a1 1 0 001 1h2a1 1 0 001-1v-6a.997.997 0 00-1-.998z" fill="#4d4d4d"/><path d="M47.41 40.639L33.517 26.745c-.041-.05-.059-.11-.104-.157a1.91 1.91 0 00-.7-.439 1.95 1.95 0 00-2.153.41c-.102.102-.154.229-.229.344L16.588 40.645a1.958 1.958 0 002.768 2.768L32 30.769l12.64 12.642a1.96 1.96 0 002.77-2.772z" fill-rule="evenodd" clip-rule="evenodd" fill="#ed7161"/><path d="M42 46c-4.891 0-9.09 1.953-10.959 4.75C28.841 49.068 25.61 48 22 48c-6.627 0-12 3.582-12 8s5.373 8 12 8c4.891 0 9.09-1.953 10.959-4.751C35.159 60.932 38.39 62 42 62c6.627 0 12-3.582 12-8 0-4.42-5.373-8-12-8z" fill-rule="evenodd" clip-rule="evenodd" fill="#fff"/><path d="M56 52H8c-2 0-4 6-4 8s1.791 4 4 4h48c2.209 0 4-2 4-4s-2-8-4-8z" fill="#48a0dc"/><path d="M22 8a2 2 0 10-.001 3.999A2 2 0 0022 8zm6 10a2 2 0 10-.001 3.999A2 2 0 0028 18zm4-6a2 2 0 10-.001 3.999A2 2 0 0032 12zm8-4a2 2 0 10-.001 3.999A2 2 0 0040 8zM18 18a2 2 0 10-.001 3.999A2 2 0 0018 18zm-6 10a2 2 0 10-.001 3.999A2 2 0 0012 28zm26-8a2 2 0 10-.001 3.999A2 2 0 0038 20zm12 6a2 2 0 10-.001 3.999A2 2 0 0050 26zm0-8a2 2 0 10-3.999-.001A2 2 0 0050 18zM38 28a2 2 0 10-.001 3.999A2 2 0 0038 28zm-20 6a2 2 0 10-.001 3.999A2 2 0 0018 34z" fill-rule="evenodd" clip-rule="evenodd" fill="#fff"/></svg>