<svg xmlns="http://www.w3.org/2000/svg" width="36" height="64"><path d="M12 0c-1.438 0-2 1.998-2 4 0 5.521 2 10 2 10s2-4.479 2-10c0-2.002-.562-4-2-4z" fill="#999"/><path d="M30 40c-2.668-2.67-4-4.209-4-6 0-1.23 1.957-3.889 3.938-6.668-.566-6.662-16.861-12.141-21.002-13.15C4.805 21.279 0 32.627 0 38c0 7.16 8.936 16.936 14 21.998 2.521 2.523 4.695 3.992 8 4.002 7.082.02 14-4.547 14-12 0-5.404-3.527-9.529-6-12z" fill="#e6e6e6"/><path d="M33.826 44.744A10.086 10.086 0 0030 44c-7.18 0-16 6.82-16 14 0 .758.078 1.482.203 2.184C16.639 62.58 18.785 63.99 22 64c7.082.02 14-4.547 14-12 0-2.775-.936-5.207-2.174-7.256zM2.594 27.629C1.063 31.689 0 35.498 0 38c0 3.486 2.125 7.592 4.883 11.471C7.637 46.752 10 42.766 10 39c0-4.725-3.508-9.016-7.406-11.371z" fill="#ccc"/><path d="M14 8c-1.025.033-2.959 2.566-5.064 6.182 4.141 1.01 20.436 6.488 21.002 13.15C31.891 24.588 34 21.73 34 20c0-7.715-18.801-12.041-20-12z" fill="#48a0dc"/></svg>