<svg xmlns="http://www.w3.org/2000/svg" width="36" height="64"><path d="M12 0c-1.438 0-2 2-2 4 0 5.521 2 10 2 10s2-4.479 2-10c0-2-.562-4-2-4z" fill="#999"/><path d="M30 40c-2.669-2.67-4-4.207-4-6 0-1.23 1.957-3.889 3.937-6.668-.564-6.66-16.859-12.141-21-13.15C4.806 21.279 0 32.627 0 38c0 7.16 8.937 16.936 14 22 2.521 2.521 4.694 3.99 8 4 7.081.02 14-4.547 14-12 0-5.404-3.528-9.527-6-12z" fill="#ed7161"/><path d="M2.594 27.629C1.063 31.689 0 35.498 0 38c0 3.486 2.124 7.592 4.883 11.473C7.636 46.752 10 42.766 10 39c0-4.725-3.508-9.016-7.406-11.371z" fill="#d46557"/><path d="M14 8c-1.026.033-2.959 2.566-5.063 6.182 4.141 1.01 20.436 6.49 21 13.15C31.891 24.59 34 21.732 34 20c0-7.715-18.801-12.041-20-12z" fill="#e6e6e6"/></svg>