<svg xmlns="http://www.w3.org/2000/svg" width="60" height="63.999"><path d="M59.414 44.585l-6-5.998a1.993 1.993 0 00-.889-.518l-12.678-3.456 4.436-.634a1.997 1.997 0 001.381-.871l8-12a2 2 0 00.125-2.002l-2-4a1.999 1.999 0 00-2.684-.896 2.002 2.002 0 00-.895 2.686l1.48 2.961-6.859 10.291-8.336 1.19L43.6 19.2a2 2 0 00.273-1.902l-6-16A2.005 2.005 0 0035.297.126a2.004 2.004 0 00-1.17 2.576l5.615 14.975L30 30.667l-9.742-12.99 5.615-14.975A2.003 2.003 0 0024.701.126a2.004 2.004 0 00-2.574 1.172l-6 16A1.998 1.998 0 0016.4 19.2l9.104 12.138-8.336-1.19-6.861-10.291 1.482-2.961a2.001 2.001 0 00-3.579-1.79l-2 4a2 2 0 00.125 2.002l8 12a1.99 1.99 0 001.381.871l4.434.634-12.677 3.456c-.336.092-.641.27-.887.518l-6 5.998a2 2 0 102.828 2.828l5.625-5.625 10.703-2.919-4.904 3.503a1.995 1.995 0 00-.736.994l-4 12c-.145.436-.135.906.025 1.338l2.25 6a2 2 0 003.746-1.408l-2.002-5.334 3.57-10.711L30 36.458l12.309 8.793 3.57 10.711-2.002 5.334a2.004 2.004 0 001.17 2.578c.232.084.469.125.703.125.809 0 1.572-.494 1.873-1.295l2.25-6c.16-.432.17-.902.023-1.338l-4-12a2.003 2.003 0 00-.734-.994L40.26 38.87l10.701 2.918 5.625 5.625c.391.391.902.586 1.414.586s1.023-.195 1.414-.586a2 2 0 000-2.828z" fill-rule="evenodd" clip-rule="evenodd" fill="gray"/><path d="M33.764 32.612c.142-.822.236-1.691.236-2.611 0-4.418-1.791-8-4-8s-4 3.582-4 8c0 .92.094 1.789.236 2.611C21.455 34.191 18 38.688 18 44.001c0 6.627 5.373 12 12 12s12-5.373 12-12c0-5.313-3.455-9.81-8.236-11.389z" fill-rule="evenodd" clip-rule="evenodd" fill="#4d4d4d"/><path d="M34 38.001a2 2 0 00-2-2h-4a2 2 0 00-2 2c0 1.104 2.895 4 4 4s4-2.897 4-4zm-4 4c-1.105 0-4 2.895-4 4a2 2 0 002 2h4a2 2 0 002-2c0-1.105-2.895-4-4-4z" fill-rule="evenodd" clip-rule="evenodd" fill="#ed7161"/></svg>