<svg xmlns="http://www.w3.org/2000/svg" width="55.994" height="63.996"><path d="M27.998 0a6 6 0 100 12 6 6 0 000-12zm0 8a2 2 0 110-4 2 2 0 010 4z" fill-rule="evenodd" clip-rule="evenodd" fill="#ccc"/><path d="M55.844 30.398a3.128 3.128 0 00-2.381-2.145L37.998 26l-7.287-14.375a3.1 3.1 0 00-2.713-1.627 3.106 3.106 0 00-2.717 1.627L17.998 26 2.533 28.254C1.414 28.469.5 29.291.15 30.398s-.078 2.32.705 3.164L11.998 44 9.531 60.42a3.195 3.195 0 001.248 2.963 3.065 3.065 0 003.143.32L27.998 56l14.072 7.703a3.058 3.058 0 003.145-.32 3.203 3.203 0 001.248-2.963L43.998 44l11.141-10.438a3.23 3.23 0 00.705-3.164z" fill="#ed7161"/><path fill="#fff" d="M39.221 42.084l1.465-1.369 9.332-8.699-13.006-1.887-1.965-.285-.897-1.762-6.152-12.08-6.152 12.08-.899 1.762-1.963.285-13.007 1.887 9.332 8.699 1.466 1.369-.298 1.975-2.104 13.937 11.789-6.42 1.836-1 1.836 1.002 11.787 6.42-2.101-13.939z"/></svg>