<svg xmlns="http://www.w3.org/2000/svg" width="48.001" height="64"><path d="M47.834 47.211c-.975-1.678-8.214-1.998-14.74 1.75-3.16 1.814-5.555 4.248-7.093 6.469V38a2 2 0 00-4 0v17.43c-1.538-2.221-3.933-4.654-7.093-6.469-6.526-3.748-13.766-3.428-14.741-1.75-.975 1.68 2.367 8.078 8.894 11.828 4.893 2.811 10.187 3.334 12.94 2.711V62a2 2 0 004 0v-.25c2.754.623 8.048.1 12.94-2.711 6.527-3.75 9.869-10.148 8.893-11.828z" fill-rule="evenodd" clip-rule="evenodd" fill="#88c057"/><path d="M34.941 24.961A21.693 21.693 0 0033.042 24c.636-.287 1.271-.6 1.899-.961 6.526-3.75 9.868-10.148 8.894-11.828-.934-1.605-7.596-1.957-13.886 1.293C29.484 5.477 25.87 0 24.001 0s-5.483 5.477-5.948 12.504C11.763 9.254 5.1 9.605 4.167 11.211c-.975 1.68 2.367 8.078 8.894 11.828.627.361 1.263.674 1.899.961-.636.287-1.271.6-1.899.961-6.526 3.75-9.868 10.146-8.894 11.826.933 1.607 7.596 1.959 13.886-1.291C18.518 42.523 22.132 48 24.001 48s5.483-5.477 5.948-12.504c6.29 3.25 12.952 2.898 13.886 1.291.975-1.68-2.367-8.076-8.894-11.826z" fill-rule="evenodd" clip-rule="evenodd" fill="#fb3"/><path d="M48.001 24c0-1.869-5.477-5.484-12.506-5.949 3.253-6.289 2.9-12.953 1.294-13.885-1.68-.975-8.078 2.367-11.827 8.893a22.398 22.398 0 00-.961 1.898c-.288-.635-.6-1.27-.961-1.898-3.749-6.525-10.147-9.867-11.827-8.893-1.606.932-1.959 7.596 1.293 13.885C5.478 18.516.001 22.131.001 24s5.477 5.484 12.505 5.949c-3.252 6.289-2.899 12.953-1.293 13.885 1.68.975 8.078-2.367 11.827-8.893.361-.629.673-1.264.961-1.898.288.635.6 1.27.961 1.898 3.749 6.525 10.147 9.867 11.827 8.893 1.606-.932 1.959-7.596-1.294-13.885 7.029-.465 12.506-4.08 12.506-5.949z" fill-rule="evenodd" clip-rule="evenodd" fill="#fc6"/><circle cx="24.001" cy="24" r="10" fill="#f83"/></svg>