<svg xmlns="http://www.w3.org/2000/svg" width="64" height="64"><path d="M60 12c-5.519-1.104-11.616-2.688-16-4-.105-4.424-5.537-8-12-8-6.366 0-11.74 3.67-12 8-4.773 1.334-11.363 2.84-16 4-1.94.484-4 1.791-4 4v44a4 4 0 004 4h56a4 4 0 004-4V16c0-2.209-2.039-3.609-4-4z" fill="#ed7161"/><path d="M2 44a2 2 0 002-2 2 2 0 000-4 2 2 0 00-4 0v4a2 2 0 002 2zm10-2a2 2 0 004 0 2 2 0 000-4 2 2 0 00-4 0 2 2 0 000 4zm14 2a2 2 0 002-2 2 2 0 000-4 2 2 0 00-4 0 2 2 0 000 4 2 2 0 002 2zm10-2a2 2 0 004 0 2 2 0 000-4 2 2 0 00-4 0 2 2 0 000 4zm14 2a2 2 0 002-2 2 2 0 000-4 2 2 0 00-4 0 2 2 0 000 4 2 2 0 002 2zm12-8a2 2 0 00-2 2 2 2 0 000 4 2 2 0 004 0v-4a2 2 0 00-2-2zm.585-9.412L60 29.172l-2.585-2.584C57.054 26.225 56.553 26 56 26s-1.054.225-1.415.588L52 29.172l-2.585-2.584C49.054 26.225 48.553 26 48 26s-1.054.225-1.415.588L44 29.172l-2.585-2.584C41.054 26.225 40.553 26 40 26s-1.054.225-1.415.588L36 29.172l-2.585-2.584C33.054 26.225 32.553 26 32 26s-1.054.225-1.415.588L28 29.172l-2.585-2.584C25.054 26.225 24.553 26 24 26s-1.054.225-1.415.588L20 29.172l-2.585-2.584C17.054 26.225 16.553 26 16 26s-1.054.225-1.415.588L12 29.172l-2.585-2.584C9.054 26.225 8.553 26 8 26s-1.054.225-1.415.588L4 29.172l-2.585-2.584A1.99 1.99 0 000 26v4.828l2.586 2.586a1.998 1.998 0 002.828 0L8 30.828l2.586 2.586a1.998 1.998 0 002.828 0L16 30.828l2.586 2.586a1.998 1.998 0 002.828 0L24 30.828l2.586 2.586a1.998 1.998 0 002.828 0L32 30.828l2.586 2.586a1.998 1.998 0 002.828 0L40 30.828l2.586 2.586a1.998 1.998 0 002.828 0L48 30.828l2.586 2.586a1.998 1.998 0 002.828 0L56 30.828l2.586 2.586a1.998 1.998 0 002.828 0L64 30.828V26a1.99 1.99 0 00-1.415.588zM60 46a1.99 1.99 0 00-1.415.588L56 49.172l-2.585-2.584C53.054 46.225 52.553 46 52 46s-1.054.225-1.415.588L48 49.172l-2.585-2.584C45.054 46.225 44.553 46 44 46s-1.054.225-1.415.588L40 49.172l-2.585-2.584C37.054 46.225 36.553 46 36 46s-1.054.225-1.415.588L32 49.172l-2.585-2.584C29.054 46.225 28.553 46 28 46s-1.054.225-1.415.588L24 49.172l-2.585-2.584C21.054 46.225 20.553 46 20 46s-1.054.225-1.415.588L16 49.172l-2.585-2.584C13.054 46.225 12.553 46 12 46s-1.054.225-1.415.588L8 49.172l-2.585-2.584C5.054 46.225 4.553 46 4 46s-1.054.225-1.415.588L0 49.172V54c.552 0 1.052-.225 1.414-.586L4 50.828l2.586 2.586a1.998 1.998 0 002.828 0L12 50.828l2.586 2.586a1.998 1.998 0 002.828 0L20 50.828l2.586 2.586a1.998 1.998 0 002.828 0L28 50.828l2.586 2.586a1.998 1.998 0 002.828 0L36 50.828l2.586 2.586a1.998 1.998 0 002.828 0L44 50.828l2.586 2.586a1.998 1.998 0 002.828 0L52 50.828l2.586 2.586a1.998 1.998 0 002.828 0L60 50.828l2.586 2.586c.362.361.862.586 1.414.586v-4.828l-2.585-2.584A1.99 1.99 0 0060 46z" fill-rule="evenodd" clip-rule="evenodd" fill="#fff"/><path d="M32 4c-6.526 0-8-.488-8 4 0 4.486 4.793 12 8 12s8-7.514 8-12c0-4.488-1.474-4-8-4z" fill="#ba594c"/></svg>