<svg xmlns="http://www.w3.org/2000/svg" width="64" height="64"><path d="M46 12H36V2a2 2 0 00-2-2h-4a2 2 0 00-2 2v10H18a2 2 0 00-2 2v4a2 2 0 002 2h10v26a2 2 0 002 2h4a2 2 0 002-2V20h10a2 2 0 002-2v-4a2 2 0 00-2-2z" fill-rule="evenodd" clip-rule="evenodd" fill="#a67c52"/><path d="M18 30h-4v-4a2 2 0 10-4 0v4H6a2 2 0 100 4h4v16a2 2 0 004 0V34h4a2 2 0 000-4zm40 0h-4v-4a2 2 0 00-4 0v4h-4a2 2 0 100 4h4v16a2 2 0 004 0V34h4a2 2 0 000-4z" fill-rule="evenodd" clip-rule="evenodd" fill="#735538"/><path d="M32 46C0 46 0 64 0 64h64s0-18-32-18z" fill="#88c057"/></svg>