<svg xmlns="http://www.w3.org/2000/svg" width="64" height="64"><path d="M32 12.004c-14.356 0-25.995 11.639-25.995 25.998C6.005 52.359 17.644 64 32 64s25.995-11.641 25.995-25.998c0-14.359-11.639-25.998-25.995-25.998zM32 60c-12.148 0-21.996-9.85-21.996-21.998 0-12.15 9.848-22 21.996-22s21.996 9.85 21.996 22C53.996 50.15 44.148 60 32 60z" fill="#8c6845"/><path d="M32.006 26.01h-.012C15.305 26.016 1.324 38.639 0 54.863c1.273.602 2.568.695 3.927 1.129C4.759 41.486 16.99 30.012 32 30.01c15.011.002 27.239 11.477 28.071 25.982 1.358-.434 2.655-.527 3.929-1.129-1.324-16.224-15.308-28.847-31.994-28.853z" fill="#a67c52"/><path d="M63.326 50.771a28.234 28.234 0 01-13.204 3.262c-15.524 0-28.108-12.439-28.108-27.787 0-8.506 3.887-16.09 9.98-21.184V0c-8.48 5.717-13.997 15.33-13.997 26.246 0 17.541 14.382 31.758 32.125 31.758 4.978 0 9.674-1.152 13.878-3.15a31.21 31.21 0 00-.674-4.083z" fill="#8c6845"/><path d="M32.006 0v5.063c6.095 5.094 9.98 12.678 9.98 21.184 0 15.348-12.584 27.787-28.108 27.787A28.234 28.234 0 01.674 50.772 31.168 31.168 0 000 54.854a32.236 32.236 0 0013.878 3.15c17.743 0 32.125-14.217 32.125-31.758C46.003 15.33 40.486 5.717 32.006 0z" fill="#bf8e5e"/></svg>