<svg xmlns="http://www.w3.org/2000/svg" width="44" height="64"><path d="M34 30c-5.099 5.098-10 8-10 12V18a2 2 0 00-4 0v30c0-4-4.901-6.902-10-12C4 30 0 20 0 20s0 16 8 24c4.786 4.785 12 8 12 12v6a2 2 0 004 0V50c0-4 7.214-7.215 12-12 8-8 8-24 8-24s-4 10-10 16z" fill-rule="evenodd" clip-rule="evenodd" fill="#88c057"/><path d="M22 0s-6 13.373-6 20 3.791 12 6 12 6-5.373 6-12-6-20-6-20z" fill="#d46557"/><path d="M28 0s-6 13.373-6 20c0-6.627-6-20-6-20s-6 13.373-6 20 7.791 12 10 12c1.695 0 1.966-3.168 2-7.635.034 4.467.305 7.635 2 7.635 2.209 0 10-5.373 10-12S28 0 28 0z" fill-rule="evenodd" clip-rule="evenodd" fill="#ed7261"/></svg>