<svg xmlns="http://www.w3.org/2000/svg" width="64" height="64"><path d="M30 60h-2v-6a2 2 0 00-4 0v6h-4a2 2 0 000 4h10a2 2 0 000-4z" fill-rule="evenodd" clip-rule="evenodd" fill="#fc6"/><path d="M14 0C9.222 0 8 4 8 4l2 8c0 4.514-6 11.576-6 20h10v-8c0-4.389 6-10.811 6-18 0-3.469-2.88-6-6-6z" fill="#ba594c"/><path d="M64 24c0-1.758-1.141-3.234-2.716-3.771A3.89 3.89 0 0062 18c0-1.506-.843-2.803-2.072-3.484.023-.172.072-.336.072-.516a4 4 0 00-4-4 4 4 0 00-4-4c-.181 0-.353.029-.526.053C50.789 4.832 49.498 4 48 4c-.83 0-1.601.252-2.239.686C45.215 3.125 43.895 2 42 2c-3.131 0-8 6.576-8 14-8.796 0-18.988 2.527-22 8-2.254 4.094-8 2.512-8 10 0 15.547 12 20 20 20 3.771 3.771 16 6 16 6l-2-4 6 2s1.47-3.656 1.886-6.617A3.965 3.965 0 0048 52a4 4 0 004-4 4 4 0 004-4 4 4 0 004-4c0-.193-.03-.379-.057-.564C61.155 38.75 62 37.492 62 36c0-.83-.253-1.6-.686-2.24A3.986 3.986 0 0064 30a3.974 3.974 0 00-1.417-3.031C63.43 26.24 64 25.207 64 24z" fill="#666"/><path d="M0 10c2.422-2.422 8 0 8 0V4s-8 1.602-8 6z" fill="#fc6"/><path d="M8 4c-.75 0-2 2.059-2 4 0 3.066-2 5.141-2 8 0 2 .875 4 2 4 1.813 0 4-2.063 4-8 0-3.625-1.312-8-2-8z" fill="#ed7161"/></svg>