<svg xmlns="http://www.w3.org/2000/svg" width="48" height="64"><path d="M0 56h10l6 8 6-18-12-6L0 56zm38-16l-12 6 6 18 6-8h10L38 40z" fill-rule="evenodd" clip-rule="evenodd" fill="#387ba8"/><path d="M48 24a5.997 5.997 0 00-3.566-5.476A5.994 5.994 0 0044.786 12a5.995 5.995 0 00-5.826-2.959 5.996 5.996 0 00-2.959-5.826 5.992 5.992 0 00-6.525.352C28.541 1.468 26.445 0 24 0s-4.541 1.468-5.475 3.566A5.993 5.993 0 0012 3.215a5.996 5.996 0 00-2.959 5.826A5.991 5.991 0 003.215 12a5.992 5.992 0 00.352 6.524A5.993 5.993 0 000 24a5.994 5.994 0 003.566 5.475A5.995 5.995 0 003.215 36a5.993 5.993 0 005.826 2.957A5.994 5.994 0 0012 44.783a5.99 5.99 0 006.525-.351C19.459 46.531 21.555 48 24 48s4.541-1.469 5.475-3.567a5.991 5.991 0 006.525.351 5.995 5.995 0 002.959-5.826 5.996 5.996 0 005.826-2.957 5.993 5.993 0 00-.352-6.525A5.999 5.999 0 0048 24z" fill-rule="evenodd" clip-rule="evenodd" fill="#ed7161"/><circle cx="24" cy="24" r="16" fill="#fff"/><circle cx="24" cy="24" r="12" fill="#48a0dc"/></svg>