<svg xmlns="http://www.w3.org/2000/svg" width="64" height="63.998"><path d="M60 41.998c-2 0-4 2.002-10 2.002H14c-6 0-8-2.002-10-2.002-2.002 0-4 2.002-4 4 0 4.02 11.977 18 32 18 20.021 0 32-14 32-18 0-1.998-2-4-4-4z" fill="#48a0dc"/><path d="M32 0C20.953 0 10 1.791 10 4c0 0 4 16 4 28h36c0-12 4-28 4-28 0-2.209-10.955-4-22-4z" fill="#ed7161"/><path d="M14 32v16c0 2 12 4 18 4s18-2 18-4V32H14z" fill="#387ba8"/><path d="M46 40h-4l-2-4-2 4h-4l2.939 3.451L36 48l4-2 4 2-.939-4.549L46 40zm-20 0l-2-4-2 4h-4l2.939 3.451L20 48l4-2 4 2-.939-4.549L30 40h-4zM36 .078V32h6L43.957.702A95.632 95.632 0 0036 .078zM22 32h6V.078a95.205 95.205 0 00-7.957.624L22 32z" fill-rule="evenodd" clip-rule="evenodd" fill="#fff"/></svg>