<svg xmlns="http://www.w3.org/2000/svg" width="60" height="64"><path d="M32 14c-2.209 0-4 .895-4 2v32c0 1.105 1.791 2 4 2 .377 0 28-2 28-2V12l-28 2z" fill="#d46557"/><path d="M28 44c0 1.105 1.791 2 4 2 .377 0 28-2 28-2v-4l-28 2c-2.209 0-4 .895-4 2zm0-8c0 1.105 1.791 2 4 2 .377 0 28-2 28-2v-4l-28 2c-2.209 0-4 .895-4 2zm0-8c0 1.105 1.791 2 4 2 .377 0 28-2 28-2v-4l-28 2c-2.209 0-4 .895-4 2zm4-10c-2.209 0-4 .895-4 2s1.791 2 4 2c.377 0 28-2 28-2v-4l-28 2z" fill-rule="evenodd" clip-rule="evenodd" fill="#e6e6e6"/><path d="M28 36v12c0-1.105 1.791-2 4-2s4-.895 4-2v-8h-8z" fill="#874137"/><path d="M32 26c-.543 0-20 2-20 2v16s19.457-2 20-2c2.209 0 4 .895 4 2V28c0-1.105-1.791-2-4-2z" fill="#ed7161"/><path d="M32 34c-.543 0-20 2-20 2v4s19.457-2 20-2c2.209 0 4 .895 4 2v-4c0-1.105-1.791-2-4-2zm0-8c-.543 0-20 2-20 2v4s19.457-2 20-2c2.209 0 4 .895 4 2v-4c0-1.105-1.791-2-4-2z" fill-rule="evenodd" clip-rule="evenodd" fill="#fff"/><path d="M32 6c-.543 0-20 2-20 2v20s19.457-2 20-2c2.209 0 4 .895 4 2V8c0-1.105-1.791-2-4-2z" fill="#48a0dc"/><path d="M18 60h-6V7.445c1.191-.693 2-1.968 2-3.445a4 4 0 00-8 0c0 1.477.809 2.752 2 3.445V60H2a2 2 0 100 4h16a2 2 0 000-4z" fill-rule="evenodd" clip-rule="evenodd" fill="#ccc"/></svg>