<svg xmlns="http://www.w3.org/2000/svg" width="64" height="64"><path d="M63.195 42.396a78.597 78.597 0 00-3.105-2.192c-.023-.026-.035-.059-.061-.083-11.773-11.772-10.311-24.453-9.963-26.586 4.102-3.692 7.014-5.847 7.113-5.92a2 2 0 10-2.357-3.233c-.424.309-3.521 2.596-7.754 6.4-13.563-.397-25.41-7.945-25.529-8.023-.092-.06-.195-.095-.293-.139A40.577 40.577 0 0019.42.589a2.001 2.001 0 00-2.842 2.818c.029.029.744.769 1.801 2.042C17.703 16.71 6.143 27.492 4 29.393c-1.506.354-2.418.64-2.617.705a2 2 0 001.231 3.805c.041-.013.627-.192 1.654-.438C17.855 47.395 18.266 56.83 18.27 57.014c0 .076.025.146.035.222A40.141 40.141 0 0018 62a2 2 0 104 0c0-1.385.105-2.76.264-4.129 13.377-13 28.047-14.443 33.793-14.443.742 0 1.324.024 1.723.049a72.271 72.271 0 013.025 2.127c.359.267.777.396 1.193.396a2 2 0 001.197-3.604zm-12.267-7.46a73.895 73.895 0 00-3.658-1.653c-4.691-4.873-3.814-12.175-3.59-13.593.73-.754 1.455-1.487 2.16-2.18.074 4.238 1.041 10.64 5.088 17.426zM30.873 19.161c1.895.475 4.225 1.007 6.434 1.382a108.688 108.688 0 00-4.75 5.666 37.636 37.636 0 00-1.684-7.048zm-2.09 9.152a72.52 72.52 0 00-6.535-.547c1.75-1.837 3.695-4.061 5.154-6.229.68 2.16 1.178 4.428 1.381 6.776zm-.652 4.064a77.984 77.984 0 00-3.32 5.508c-.711-1.869-1.711-4.008-3.051-6.021a71.36 71.36 0 016.371.513zm4.437.703c1.58.305 3.193.671 4.834 1.112-2.246.688-4.846 1.743-7.682 3.301a81.662 81.662 0 012.848-4.413zm2.649-3.633a106.67 106.67 0 014.295-5.244c.129 2.047.549 4.43 1.559 6.803a71.553 71.553 0 00-5.854-1.559zm7.892-14.953c-.805.785-1.625 1.604-2.461 2.466-3.693-.3-9.584-1.857-11.689-2.439a51.85 51.85 0 00-2.535-4.702c4.267 1.893 10.14 3.923 16.685 4.675zM21.734 9.962a50.359 50.359 0 013.791 6.74c-.617 2.161-4.816 7.135-8.93 11.06-2.07.08-3.975.238-5.686.44 3.866-4.179 8.972-10.808 10.825-18.24zM8.943 32.568a69.428 69.428 0 017.742-.705c3.467 3.656 5.1 9.318 5.57 11.233a56.1 56.1 0 00-2.158 5.799c-1.8-4.173-5.109-9.766-11.154-16.327zm14.598 18.819c.643-2.279 1.475-4.518 2.441-6.707 9.555-7.238 17.158-7.835 19.309-7.838a68.474 68.474 0 016.104 2.844c-6.825.717-17.452 3.307-27.854 11.701z" fill-rule="evenodd" clip-rule="evenodd" fill="#ccc"/></svg>