<svg xmlns="http://www.w3.org/2000/svg" width="64" height="64"><path d="M47.002 15.998c1.656 0 3-3.135 3-7s-3-6.998-3-6.998-3 3.133-3 6.998 1.343 7 3 7zm4.999-6c1.104 0 2-2.238 2-4.998 0-2.762-2-5-2-5s-1.999 2.238-1.999 5c0 2.76.896 4.998 1.999 4.998zM26.392 37.609c.977-2.188 1.612-5.674 1.612-9.613 0-6.625-3.999-11.998-3.999-11.998s-3.999 5.373-3.999 11.998c0 6.627 1.79 12 3.999 12 0 2.207 5.372 3.998 11.999 3.998 6.626 0 11.998-3.998 11.998-3.998s-5.372-4-11.998-4c-3.939 0-7.424.637-9.612 1.613zm8.179-8.179c.876-2.018 1.434-5.045 1.434-8.432 0-6.076-4-11-4-11s-4 4.924-4 11c0 6.072 1.791 10.998 4 10.998 0 2.209 4.924 4 10.999 4 6.074 0 10.998-4 10.998-4s-4.924-4-10.998-4c-3.388 0-6.416.559-8.433 1.434zm8.166-8.166c.775-1.822 1.266-4.393 1.266-7.266-.001-5.523-4-9.998-4-9.998s-3.999 4.475-3.999 9.998 1.79 9.998 3.999 9.998c0 2.209 4.477 4 9.999 4 5.521 0 9.998-4 9.998-4s-4.477-3.998-9.998-3.998c-2.872 0-5.442.49-7.265 1.266zm5.265-4.266c0 1.656 3.134 3 6.999 3 3.866 0 6.999-3 6.999-3s-3.133-3-6.999-3c-3.865 0-6.999 1.344-6.999 3zm5.999-5c0 1.104 2.238 2 5 2 2.761 0 4.999-2 4.999-2s-2.238-2-4.999-2c-2.761 0-5 .895-5 2zm7.232-4.768C63.7 4.766 64 0 64 0s-4.766.301-7.232 2.768c-2.466 2.467-3.466 5.463-2.232 6.695 1.233 1.234 4.232.234 6.697-2.233zm-42.84 38.377c.978-2.188 1.613-5.674 1.613-9.611 0-6.629-4-12-4-12s-3.999 5.371-3.999 12c0 6.625 1.79 11.998 3.999 11.998 0 2.209 5.371 4 11.998 4s11.999-4 11.999-4-5.372-4-11.999-4c-3.939 0-7.423.635-9.611 1.613zm-7.652 7.653c.775-1.822 1.267-4.395 1.267-7.266 0-5.521-4-9.998-4-9.998s-3.999 4.477-3.999 9.998c0 5.523 1.79 10 3.999 10 0 2.209 4.478 3.998 9.999 3.998s9.998-3.998 9.998-3.998-4.477-4-9.998-4c-2.872 0-5.442.49-7.266 1.266z" fill-rule="evenodd" clip-rule="evenodd" fill="#fc6"/><path d="M57.428 6.57a1.989 1.989 0 00-2.81 0L.582 60.609a1.988 1.988 0 002.809 2.809L57.428 9.379a1.986 1.986 0 000-2.809z" fill="#cca352"/></svg>