<svg xmlns="http://www.w3.org/2000/svg" width="64" height="64"><path d="M60 48H4a4 4 0 00-4 4c0 4.018 11.978 12 32 12s32-8 32-12a4 4 0 00-4-4z" fill="#846a91"/><path d="M46 44c0-6.041-1.127-14.389-2-18-1.013-4.189-10-9.377-10-12 0-1.771 2.031-6.445 2-10-.016-1.711-.684-4-2-4-1.977 0-12 13.443-12 16 0 4.385 6 6.467 6 10s-6 14-8 18h26z" fill="#9b7cab"/><path d="M20 44c-.988 1.977-2 4.895-2 6a2 2 0 002 2h24a2 2 0 002-2v-6H20z" fill="#333"/><path d="M36 42h-8a2 2 0 00-2 2v8a2 2 0 002 2h8a2 2 0 002-2v-8a2 2 0 00-2-2zm-2 8h-4v-4h4v4z" fill-rule="evenodd" clip-rule="evenodd" fill="#fc6"/></svg>