<svg xmlns="http://www.w3.org/2000/svg" width="52" height="66"><path d="M23.832 7.952c.1-.301.168-.617.168-.952a3.001 3.001 0 00-4.684-2.481A1.973 1.973 0 0018 4a2 2 0 00-2 2 2 2 0 00-2 2c0 .031.016.058.018.089-.189.193-.35.412-.516.626C13.135 8.286 12.609 8 12 8a2 2 0 00-2 2c0 .178.059.336.102.5-.184.1-.355.208-.52.333C9.217 10.341 8.66 10 8 10a2 2 0 00-2 2c0 .178.059.336.102.5C4.855 13.178 4 14.482 4 16a4 4 0 004 4c1.498 0 2.789-.834 3.475-2.053.173.023.345.053.525.053.629 0 1.217-.158 1.748-.418C15.031 19.052 16.896 20 19 20c3.865 0 7-3.135 7-7a6.97 6.97 0 00-2.168-5.048z" fill-rule="evenodd" clip-rule="evenodd" fill="#f09ec4"/><path d="M26 2c-.842 0-1.672.043-2.492.114.303.565.492 1.2.492 1.886a4 4 0 01-4 4 2 2 0 01-2 2c0 1.518-.855 2.822-2.102 3.5.043.164.102.322.102.5a2 2 0 01-2 2c-.66 0-1.217-.341-1.582-.834A3.953 3.953 0 0110 16c-.18 0-.352-.03-.525-.053C8.789 17.166 7.498 18 6 18a3.988 3.988 0 01-3.375-1.871C.945 19.601 0 23.6 0 28c0 14.725 4 17.813 4 22 0 2.402 6 2 6 6s7.813 10 16 10 16-6 16-10 6-3.598 6-6c0-4.188 4-7.275 4-22C52 12.535 40.359 2 26 2z" fill-rule="evenodd" clip-rule="evenodd" fill="#88c057"/><path d="M26 50c-5.877 0-12 2.582-12 4 0 1.09.775 2 2 2 2.766 0 2.785-2 10-2s7.234 2 10 2c1.225 0 2-.91 2-2 0-1.418-6.123-4-12-4z" fill="#333"/><path d="M36 30c3.199 0 6.014.611 7.844 1.546A8.121 8.121 0 0044 30a8 8 0 00-16 0c0 .529.059 1.045.156 1.546C29.986 30.611 32.801 30 36 30z" fill-rule="evenodd" clip-rule="evenodd" fill="#638c3f"/><path d="M36 30c-3.199 0-6.014.611-7.844 1.546C28.877 35.224 32.111 38 36 38s7.123-2.776 7.844-6.454C42.014 30.611 39.199 30 36 30zm-20-8a8 8 0 100 16 8 8 0 000-16z" fill-rule="evenodd" clip-rule="evenodd" fill="#ffd57f"/><circle cx="16" cy="30" r="2" fill="#333"/><path d="M22 40a2 2 0 10-.001 3.999A2 2 0 0022 40zm8 0a2 2 0 10-.001 3.999A2 2 0 0030 40z" fill-rule="evenodd" clip-rule="evenodd" fill="#333"/><path d="M20 48a2 2 0 00-2 2v2a2 2 0 004 0v-2a2 2 0 00-2-2zm6 2a2 2 0 00-2 2v2a2 2 0 004 0v-2a2 2 0 00-2-2zm8-2a2 2 0 00-2 2v2a2 2 0 004 0v-2a2 2 0 00-2-2z" fill-rule="evenodd" clip-rule="evenodd" fill="#ffd57f"/></svg>