<svg xmlns="http://www.w3.org/2000/svg" width="63.998" height="64.002"><path d="M52 36a2 2 0 10-.001 3.999A2 2 0 0052 36zm-10 6a2 2 0 10-.001 3.999A2 2 0 0042 42zm-30-2a2 2 0 100-4 2 2 0 000 4zm3 2a3 3 0 100 6 3 3 0 000-6zm-5 10a2 2 0 10-.001 3.999A2 2 0 0010 52z" fill-rule="evenodd" clip-rule="evenodd" fill="#a67c52"/><path d="M54 24c-1.221 0-2.852 1.998-4 1.998h-6s3.34-3.34 4-3.998c1.125-1.125 4-7.875 4-10 0-1.092-2.148-2-4-2-1.5 0-2.25 6.25-4 8-.688.688-6.697 4.023-6.697 4.023S42 14.254 42 12c0-1.629-4.877-12-6-12-1.379 0-4 .137-4 2 0 1.861 4 8.137 4 10 0 1.361-6 6-6 6s2-4.424 2-6c0-1.578-4.82-10-6-10s-4 2.611-4 3.998c0 1.389 4 3.891 4 6.002 0 2.109-4.344 12-6 12s-2-2-2-2v-2c0-1.863.426-4-2-4-3.613 0-4 4.762-4 8 0 4.736 3.127 9.285 6 12s4 10.559 4 14-2 14-2 14h16l-2-18s2 .039 2-2-1.311-4.689 0-6c1.25-1.25 6.625-6 8-6h6c1.699 0 6-3.283 6-4 0-2.217-.779-4-2-4z" fill="#88c057"/><path d="M56 56c-2.791 0-1.951-2-4-2-5.195 0-4.135-4-8-4-4.535 0-8 4-8 4s-3.219-2-8-2c-4.432 0-6 4-6 4s-2.209-2-6-2c-3.029 0-4 4-4 4s-2.141-2-4-2-4 4-4 4-4-.777-4 2c0 .926.777 2.002 1.746 2.002h62.252S59.826 56 56 56z" fill="#a67c52"/></svg>