<svg xmlns="http://www.w3.org/2000/svg" width="64.006" height="64.046"><path d="M60.307.002L60.296 0H3.71L3.7.002C1.656.008 0 1.615 0 3.597v56.737a3.713 3.713 0 003.71 3.713h56.586a3.712 3.712 0 003.71-3.713V3.597c0-1.982-1.655-3.589-3.699-3.595z" fill="#9b7cab"/><path d="M58.006 12.019h-52a2 2 0 00-2 2v44c0 1.104.896 2.001 2 2.001h52a2 2 0 002-2.001v-44a2 2 0 00-2-2z" fill="#fff"/><path d="M6.006 3.998a2.002 2.002 0 000 4.004 2.002 2.002 0 100-4.004zm6 0a2.002 2.002 0 000 4.004 2.002 2.002 0 100-4.004zm6 .021a2 2 0 10.002 4.002 2 2 0 00-.002-4.002z" fill-rule="evenodd" clip-rule="evenodd" fill="#fff"/></svg>