<svg xmlns="http://www.w3.org/2000/svg" width="64" height="64"><path d="M60 34.001H4A4 4 0 000 38v22.001A4 4 0 004 64h56a4 4 0 004-3.999V38a4 4 0 00-4-3.999zM60 0H4a4 4 0 00-4 4v22.001a4 4 0 004 4h56a4 4 0 004-4V4a4 4 0 00-4-4z" fill-rule="evenodd" clip-rule="evenodd" fill="#88c057"/><path d="M58 46H6a2 2 0 00-2 2.001V58c0 1.104.896 2.001 2 2.001h52A2 2 0 0060 58v-9.999A2 2 0 0058 46zm0-34H6a2 2 0 00-2 2v10c0 1.104.896 2.001 2 2.001h52A2 2 0 0060 24V14a2 2 0 00-2-2zM6 37.979a2.002 2.002 0 100 4.005 2.002 2.002 0 000-4.005zm6 0a2.002 2.002 0 100 4.005 2.002 2.002 0 000-4.005zm6 0a2.002 2.002 0 100 4.005 2.002 2.002 0 000-4.005zm-12-34a2.001 2.001 0 000 4.004 2 2 0 000-4.004zm6 0a2.001 2.001 0 000 4.004 2 2 0 000-4.004zm6 4.004a2 2 0 10-.002-4.002A2 2 0 0018 7.983z" fill-rule="evenodd" clip-rule="evenodd" fill="#fff"/></svg>