<svg xmlns="http://www.w3.org/2000/svg" width="64.006" height="64.046"><path d="M60.307.002L60.296 0H3.71l-.011.002C1.655.008 0 1.615 0 3.597v56.737a3.712 3.712 0 003.71 3.713h56.586a3.712 3.712 0 003.71-3.713V3.597c0-1.982-1.655-3.589-3.699-3.595z" fill="#ccc"/><path d="M58.006 12.019h-52a2 2 0 00-2 2v44c0 1.104.896 2.001 2 2.001h52a2 2 0 002-2.001v-44a2 2 0 00-2-2z" fill="#fff"/><path d="M6.006 3.998a2.002 2.002 0 000 4.004 2.002 2.002 0 000-4.004zm6 0a2 2 0 00-2 2.004 2 2 0 004 0 2.002 2.002 0 00-2-2.004zm6 .021a2 2 0 10.002 4.002 2 2 0 00-.002-4.002z" fill-rule="evenodd" clip-rule="evenodd" fill="#fff"/><path d="M48.307 20.002L48.296 20H15.71l-.011.002C13.655 20.008 12 21.614 12 23.598v20.735a3.711 3.711 0 003.71 3.713h32.586a3.711 3.711 0 003.71-3.713V23.598c0-1.984-1.655-3.59-3.699-3.596z" fill="#9b7cab"/><path d="M46.006 32.019h-28a2 2 0 00-2 2.001v8a2 2 0 002 2h28a2 2 0 002-2v-8a2 2 0 00-2-2.001z" fill="#fff"/><path d="M18.006 23.998a2.002 2.002 0 100 4.005 2.002 2.002 0 000-4.005zm6 0a2.002 2.002 0 100 4.005 2.002 2.002 0 000-4.005zm6 .021a2 2 0 10.002 4.002 2 2 0 00-.002-4.002z" fill-rule="evenodd" clip-rule="evenodd" fill="#fff"/></svg>