<svg xmlns="http://www.w3.org/2000/svg" width="64.006" height="64.046"><path d="M60.307.002L60.296 0H3.71l-.011.002C1.655.008 0 1.615 0 3.597v56.737a3.712 3.712 0 003.71 3.713h56.586a3.712 3.712 0 003.71-3.713V3.597c0-1.982-1.655-3.589-3.699-3.595z" fill="#fc6"/><path d="M58.006 38.019h-22a2 2 0 00-2 2.001v17.999c0 1.104.896 2.001 2 2.001h22a2 2 0 002-2.001V40.02a2 2 0 00-2-2.001zm-30 0h-22a2 2 0 00-2 2.001v17.999c0 1.104.896 2.001 2 2.001h22a2 2 0 002-2.001V40.02a2 2 0 00-2-2.001zm30-26h-22a2 2 0 00-2 2v18c0 1.104.896 2.001 2 2.001h22a2 2 0 002-2.001v-18a2 2 0 00-2-2zm-30 0h-22a2 2 0 00-2 2v18c0 1.104.896 2.001 2 2.001h22a2 2 0 002-2.001v-18a2 2 0 00-2-2zm-22-8.021a2.002 2.002 0 000 4.004 2.002 2.002 0 000-4.004zm6 0a2 2 0 00-2 2.004 2 2 0 004 0 2.002 2.002 0 00-2-2.004zm6 .021a2 2 0 10.002 4.002 2 2 0 00-.002-4.002z" fill-rule="evenodd" clip-rule="evenodd" fill="#fff"/></svg>