<svg xmlns="http://www.w3.org/2000/svg" width="64.006" height="64.046"><path d="M26.307 34.001L26.296 34H3.71l-.011.001C1.655 34.008 0 35.614 0 37.598v22.735a3.712 3.712 0 003.71 3.713h22.586a3.712 3.712 0 003.71-3.713V37.598c0-1.984-1.655-3.59-3.699-3.597zm0-33.999L26.296 0H3.71l-.011.002C1.655.008 0 1.615 0 3.597v22.735a3.711 3.711 0 003.71 3.713h22.586a3.711 3.711 0 003.71-3.713V3.597c0-1.982-1.655-3.589-3.699-3.595zm34 33.999L60.295 34H37.71l-.011.001C35.655 34.008 34 35.614 34 37.598v22.735a3.712 3.712 0 003.71 3.713h22.585a3.712 3.712 0 003.711-3.713V37.598c0-1.984-1.655-3.59-3.699-3.597zm0-33.999L60.295 0H37.71l-.011.002C35.655.008 34 1.615 34 3.597v22.735a3.711 3.711 0 003.71 3.713h22.585a3.711 3.711 0 003.711-3.713V3.597c0-1.982-1.655-3.589-3.699-3.595z" fill-rule="evenodd" clip-rule="evenodd" fill="#88c057"/><path d="M24.006 46.019h-18a2 2 0 00-2 2.001v9.999c0 1.104.896 2.001 2 2.001h18a2 2 0 002-2.001V48.02a2 2 0 00-2-2.001zm0-34h-18a2 2 0 00-2 2v10c0 1.104.896 2.001 2 2.001h18a2 2 0 002-2.001v-10a2 2 0 00-2-2zm34 34h-18a2 2 0 00-2 2.001v9.999c0 1.104.896 2.001 2 2.001h18a2 2 0 002-2.001V48.02a2 2 0 00-2-2.001zm0-34h-18a2 2 0 00-2 2v10c0 1.104.896 2.001 2 2.001h18a2 2 0 002-2.001v-10a2 2 0 00-2-2zm-52 26a2 2 0 10.002 4.002 2 2 0 00-.002-4.002zm6 0a2 2 0 10.002 4.002 2 2 0 00-.002-4.002zm6 0a2 2 0 10.002 4.002 2 2 0 00-.002-4.002zm-12-34a2 2 0 10.002 4.002 2 2 0 00-.002-4.002zm6 0a2 2 0 10.002 4.002 2 2 0 00-.002-4.002zm6 0a2 2 0 10.002 4.002 2 2 0 00-.002-4.002zm22 34a2 2 0 10.002 4.002 2 2 0 00-.002-4.002zm6 0a2 2 0 10.002 4.002 2 2 0 00-.002-4.002zm6 0a2 2 0 10.002 4.002 2 2 0 00-.002-4.002zm-12-34a2 2 0 10.002 4.002 2 2 0 00-.002-4.002zm6 0a2 2 0 10.002 4.002 2 2 0 00-.002-4.002zm6 4.001a2 2 0 10-.001-4.001 2 2 0 00.001 4.001z" fill-rule="evenodd" clip-rule="evenodd" fill="#fff"/></svg>