<svg xmlns="http://www.w3.org/2000/svg" width="64.006" height="64.046"><path d="M60.307.002L60.295 0H37.71l-.011.002C35.655.008 34 1.615 34 3.597v56.737a3.712 3.712 0 003.71 3.713h22.585a3.712 3.712 0 003.711-3.713V3.597c0-1.982-1.655-3.589-3.699-3.595zm-34 0L26.296 0H3.71l-.011.002C1.655.008 0 1.615 0 3.597v56.737a3.712 3.712 0 003.71 3.713h22.586a3.712 3.712 0 003.71-3.713V3.597c0-1.982-1.655-3.589-3.699-3.595z" fill-rule="evenodd" clip-rule="evenodd" fill="#88c057"/><path d="M58.006 12.019h-18a2 2 0 00-2 2v44c0 1.104.896 2.001 2 2.001h18a2 2 0 002-2.001v-44a2 2 0 00-2-2zm-34 0h-18a2 2 0 00-2 2v44c0 1.104.896 2.001 2 2.001h18a2 2 0 002-2.001v-44a2 2 0 00-2-2zm16-8a2 2 0 10.002 4.002 2 2 0 00-.002-4.002zm6 0a2 2 0 10.002 4.002 2 2 0 00-.002-4.002zm6 0a2 2 0 10.002 4.002 2 2 0 00-.002-4.002zm-46 0a2 2 0 10.002 4.002 2 2 0 00-.002-4.002zm6 0a2 2 0 10.002 4.002 2 2 0 00-.002-4.002zm6 0a2 2 0 10.002 4.002 2 2 0 00-.002-4.002z" fill-rule="evenodd" clip-rule="evenodd" fill="#fff"/></svg>