<svg xmlns="http://www.w3.org/2000/svg" width="68" height="60"><path d="M36 44c0-8.837 7.163-16 16-16 4.786 0 9.068 2.112 12 5.441V4a4 4 0 00-4-4H4a4 4 0 00-4 4v52l8-8h28.524A15.99 15.99 0 0136 44z" fill-rule="evenodd" clip-rule="evenodd" fill="#ccc"/><path d="M52 28c2.918 0 5.645.793 8 2.158V6a2 2 0 00-2-2H6a2 2 0 00-2 2v42l4-4h28c0-8.837 7.163-16 16-16z" fill-rule="evenodd" clip-rule="evenodd" fill="#fff"/><path d="M20 20a4 4 0 100 8 4 4 0 000-8zm12 0a4 4 0 100 8 4 4 0 000-8zm12 0a4 4 0 100 8 4 4 0 000-8z" fill-rule="evenodd" clip-rule="evenodd" fill="#999"/><circle cx="52" cy="44" r="12" fill="#ed7161"/><path d="M56 41.999h-8a2 2 0 000 4h8a2 2 0 000-4z" fill="#fff"/></svg>