<svg xmlns="http://www.w3.org/2000/svg" width="68" height="64.001"><path d="M52 32.001c4.785 0 9.068 2.112 12 5.441V4.001A4 4 0 0060 0H4a4 4 0 00-4 4.001v52l7.999-8H36c0-8.837 7.163-16 16-16z" fill-rule="evenodd" clip-rule="evenodd" fill="#fc6"/><path d="M44 12H16a2 2 0 000 4.001h28A2 2 0 0044 12zm-6 16.001H16A2 2 0 1016 32h22a2 2 0 000-3.999zm-22-4h16A2 2 0 0032 20H16a2 2 0 000 4.001z" fill="#fff"/><circle cx="52" cy="48.001" r="11.999" fill="#ed7161"/><path d="M56 46.001h-8a1.999 1.999 0 100 3.998h8a1.999 1.999 0 000-3.998z" fill="#fff"/></svg>