<svg xmlns="http://www.w3.org/2000/svg" width="64" height="59.999"><path d="M32 0C14.327 0 0 11.639 0 25.996c0 10.146 7.161 18.929 17.598 23.211L14 59.999l18-8-.033-.01.033.001c17.673 0 32-11.638 32-25.994C64 11.639 49.673 0 32 0z" fill-rule="evenodd" clip-rule="evenodd" fill="#88c057"/><path d="M42 23.457c0-3.015-2.379-5.458-5.313-5.458-2.031 0-3.794 1.171-4.688 2.891-.895-1.72-2.657-2.891-4.688-2.891-2.935 0-5.313 2.443-5.313 5.458a5.5 5.5 0 001.887 4.168l-.012.005s6.753 7.422 7.241 7.951c.487.529 1.279.529 1.768 0s7.241-7.951 7.241-7.951l-.012-.006A5.495 5.495 0 0042 23.457z" fill-rule="evenodd" clip-rule="evenodd" fill="#fff"/></svg>