<svg xmlns="http://www.w3.org/2000/svg" width="68" height="64.001"><path d="M52 32.001c4.785 0 9.068 2.112 12 5.441V4.001A4 4 0 0060 0H4a4 4 0 00-4 4.001v52l7.999-8H36c0-8.837 7.163-16 16-16z" fill-rule="evenodd" clip-rule="evenodd" fill="#fc6"/><path d="M18 26h16a2 2 0 000-4H18a2 2 0 000 4zm22 4.001H18A2 2 0 1018 34h22a2 2 0 000-3.999zM46 14H18a2 2 0 000 4.001h28A2 2 0 0046 14z" fill="#fff"/><circle cx="52" cy="48.001" r="11.999" fill="#88c057"/><path d="M55.999 46.002h-2V44A1.999 1.999 0 0050 44v2.002h-2.001a1.998 1.998 0 100 3.997H50v2a2 2 0 103.999 0v-2h2a1.999 1.999 0 100-3.997z" fill="#fff"/></svg>