<svg xmlns="http://www.w3.org/2000/svg" width="64" height="63.999"><path d="M60 0H4a4 4 0 00-4 4v56a4 4 0 004 3.999h56A4 4 0 0064 60V4a4 4 0 00-4-4z" fill="#999"/><path d="M44.25 29.372l-1.301-.425c-.25-.895-.6-1.745-1.048-2.537l.616-1.218a1.75 1.75 0 000-2.475L41.28 21.48a1.75 1.75 0 00-2.475 0l-1.217.617a11.34 11.34 0 00-2.537-1.049l-.427-1.301a1.75 1.75 0 00-1.75-1.751h-1.75a1.75 1.75 0 00-1.75 1.751l-.425 1.301a11.24 11.24 0 00-2.529 1.042l-1.228-.61a1.75 1.75 0 00-2.475 0l-1.237 1.237a1.75 1.75 0 000 2.475l.611 1.227a11.27 11.27 0 00-1.039 2.517l-1.304.437a1.75 1.75 0 00-1.75 1.751v1.75c0 .967.783 1.749 1.75 1.749l1.305.438c.247.888.595 1.732 1.038 2.518l-.611 1.228a1.75 1.75 0 000 2.475l1.237 1.237a1.75 1.75 0 002.475 0l1.229-.61c.785.442 1.628.79 2.516 1.038l.438 1.305a1.75 1.75 0 001.75 1.749h1.75a1.75 1.75 0 001.75-1.749l.438-1.305c.89-.249 1.736-.599 2.523-1.044l1.22.616a1.75 1.75 0 002.475 0l1.237-1.237a1.75 1.75 0 000-2.475l-.618-1.218c.448-.791.8-1.641 1.049-2.536l1.302-.429a1.75 1.75 0 001.75-1.749v-1.75a1.753 1.753 0 00-1.751-1.753zM32 40.014a8.017 8.017 0 11.002-16.032A8.017 8.017 0 0132 40.014zm0-12.015a4 4 0 100 8 4 4 0 000-8z" fill-rule="evenodd" clip-rule="evenodd" fill="#fff"/></svg>