<svg xmlns="http://www.w3.org/2000/svg" width="64" height="44"><path d="M60 16c-.019-.024-12.017-12.013-12-12-2-2-4-4-6-4H4a4 4 0 00-4 4v36a4 4 0 004 4h38c2 0 4-2 6-4l12-12c2-2 4-4 4-6s-2-3.999-4-6z" fill="#88c057"/><path d="M41.224 20.945A5.96 5.96 0 0042 18.001 6.001 6.001 0 0036 12h-4a2 2 0 00-2 2.001V30c0 1.104.896 2.001 2 2.001h6c3.313 0 6-2.688 6-6.001a5.99 5.99 0 00-2.776-5.055zM34 16h2a2 2 0 010 4h-2v-4zm4 12h-4v-4h4a2 2 0 010 4zM22.098 13.421C21.7 12.335 20.813 12 20 12s-1.701.274-2.098 1.366l-5.761 15.826a2.105 2.105 0 103.956 1.441l.231-.633h7.36l.213.58a2.109 2.109 0 002.698 1.251 2.091 2.091 0 001.259-2.683l-5.76-15.727zM17.784 26l2.213-6.081L22.224 26h-4.44z" fill-rule="evenodd" clip-rule="evenodd" fill="#fff"/></svg>