<svg xmlns="http://www.w3.org/2000/svg" width="64" height="44"><path d="M42 0H22C9.85 0 0 9.85 0 22s9.85 22 22 22h20c12.15 0 22-9.85 22-22S54.15 0 42 0z" fill="#ed7161"/><path d="M45.224 20.945A5.96 5.96 0 0046 18.001 6.001 6.001 0 0040 12h-4a2 2 0 00-2 2.001V30c0 1.104.896 2.001 2 2.001h6c3.313 0 6-2.688 6-6.001a5.99 5.99 0 00-2.776-5.055zM38 16h2a2 2 0 010 4h-2v-4zm4 12h-4v-4h4a2 2 0 010 4zM26.098 13.421C25.7 12.335 24.813 12 24 12s-1.701.274-2.099 1.366l-5.76 15.826a2.105 2.105 0 103.956 1.441l.231-.633h7.36l.213.58a2.109 2.109 0 002.698 1.251 2.091 2.091 0 001.259-2.683l-5.76-15.727zM21.784 26l2.213-6.081L26.224 26h-4.44z" fill-rule="evenodd" clip-rule="evenodd" fill="#fff"/></svg>