<svg xmlns="http://www.w3.org/2000/svg" width="64" height="63.999"><path d="M60 0H4a4 4 0 00-4 4v56a4 4 0 004 3.999h56A4 4 0 0064 60V4a4 4 0 00-4-4z" fill="#ed7161"/><path d="M28 38.001a4 4 0 008 0C36 35.791 32 28 32 28s-4 7.791-4 10.001zm17.897-13.91c-.015-.03-.024-.061-.041-.09-.026-.046-.061-.083-.091-.126-2.785-4.708-7.899-7.876-13.766-7.876-5.87 0-10.988 3.171-13.771 7.885-.027.04-.06.075-.084.117-.016.027-.023.056-.038.083A15.91 15.91 0 0016 32a15.95 15.95 0 004.683 11.31l.004.005a2 2 0 002.829-2.829A11.96 11.96 0 0120 32c0-1.473.267-2.882.753-4.185l1.587.917a2 2 0 102-3.463l-1.577-.911A11.997 11.997 0 0130 20.18V22a2 2 0 104 0v-1.82a12 12 0 017.237 4.178l-1.577.91a1.999 1.999 0 102 3.463l1.586-.917C43.732 29.118 44 30.527 44 32c0 3.314-1.343 6.313-3.514 8.485a2 2 0 002.828 2.829l.008-.01A15.948 15.948 0 0048 32c0-2.88-.771-5.575-2.103-7.909z" fill-rule="evenodd" clip-rule="evenodd" fill="#fff"/></svg>