<svg xmlns="http://www.w3.org/2000/svg" width="64" height="63.999"><path d="M60 0H4a4 4 0 00-4 4v56a4 4 0 004 3.999h56A4 4 0 0064 60V4a4 4 0 00-4-4z" fill="#88c057"/><path d="M36 18.587v4.26c3.524 1.543 5.988 5.058 5.988 9.15 0 5.518-4.472 9.989-9.988 9.989s-9.989-4.472-9.989-9.989c0-4.093 2.465-7.607 5.989-9.15v-4.26c-5.782 1.721-10 7.069-10 13.411 0 7.732 6.268 14 14 14 7.731 0 13.999-6.268 13.999-14 0-6.341-4.218-11.689-9.999-13.411zM32 28a2 2 0 002-2v-8a2 2 0 00-4 0v8a2 2 0 002 2z" fill-rule="evenodd" clip-rule="evenodd" fill="#fff"/></svg>