<svg xmlns="http://www.w3.org/2000/svg" width="64" height="44"><path d="M60 0H4a4 4 0 00-4 4v36a4 4 0 004 4h56a4 4 0 004-4V4a4 4 0 00-4-4z" fill="#ccc"/><path d="M58 4H32v36h26a2 2 0 002-1.999V6a2 2 0 00-2-2z" fill="#fff"/><path d="M23.858 29.148L18.097 13.42C17.7 12.335 16.813 12 16 12s-1.7.274-2.099 1.366l-5.76 15.826a2.105 2.105 0 103.956 1.441l.231-.633h7.361l.212.58a2.109 2.109 0 002.698 1.251 2.09 2.09 0 001.259-2.683zM13.784 26l2.214-6.081L18.225 26h-4.441z" fill-rule="evenodd" clip-rule="evenodd" fill="#fff"/><path d="M51.224 20.945A5.96 5.96 0 0052 18.001 6.001 6.001 0 0046 12h-4a2 2 0 00-2 2.001V30c0 1.104.896 2.001 2 2.001h6c3.313 0 6-2.688 6-6.001a5.99 5.99 0 00-2.776-5.055zM44 16h2a2 2 0 010 4h-2v-4zm4 12h-4v-4h4a2 2 0 010 4z" fill-rule="evenodd" clip-rule="evenodd" fill="#ccc"/></svg>