<svg xmlns="http://www.w3.org/2000/svg" width="56" height="63.999"><path d="M53.224 48.944A5.96 5.96 0 0054 46a6.001 6.001 0 00-6-6.001h-4a2 2 0 00-2 1.999v16.001A2 2 0 0044 60h6c3.313 0 6-2.688 6-6.001a5.99 5.99 0 00-2.776-5.055zM46 44h2a2 2 0 010 3.999h-2V44zm4 12h-4v-4.001h4A2 2 0 0150 56z" fill-rule="evenodd" clip-rule="evenodd" fill="#999"/><path d="M55.858 19.147L50.098 3.42C49.7 2.334 48.813 1.999 48 1.999s-1.7.274-2.099 1.367l-5.76 15.826a2.105 2.105 0 003.956 1.44l.23-.634h7.361l.212.58a2.109 2.109 0 002.699 1.25 2.087 2.087 0 001.259-2.681zM45.784 16l2.213-6.081L50.224 16h-4.44z" fill-rule="evenodd" clip-rule="evenodd" fill="#ccc"/><path d="M24 36H4a4 4 0 00-4 3.999V60a4 4 0 004 3.999h20A4 4 0 0028 60V39.999A4 4 0 0024 36z" fill="#ccc"/><path d="M22 39.999H6a2 2 0 00-2 1.999v16.001A2 2 0 006 60h16a2 2 0 002-2.001V41.998a2 2 0 00-2-1.999z" fill="#fff"/><path d="M24 0H4a4 4 0 00-4 4v19.999a4 4 0 004 4h20a4 4 0 004-4V4a4 4 0 00-4-4z" fill="#ccc"/><path d="M21.393 8.563a2.015 2.015 0 00-2.854 0l-6.521 6.521-2.509-2.516a2.061 2.061 0 00-2.921 0 2.07 2.07 0 000 2.926l3.841 3.851c.208.209.451.361.709.463a2.011 2.011 0 002.266-.402l7.988-7.987a2.02 2.02 0 00.001-2.856z" fill-rule="evenodd" clip-rule="evenodd" fill="#fff"/></svg>