<svg xmlns="http://www.w3.org/2000/svg" width="64" height="64"><path d="M60 0H4a4 4 0 00-4 4.001V60a4 4 0 004 4h56a4 4 0 004-4V4.001A4 4 0 0060 0z" fill="#ccc"/><path d="M58 4.001H6A2 2 0 004 6v52a2 2 0 002 2h32a2 2 0 002-2V44a2 2 0 012-2h16a2 2 0 002-1.999V6a2 2 0 00-2-1.999z" fill="#fff"/><path d="M36 42a4 4 0 014-3.999h16V8H8v48h28V42z" fill-rule="evenodd" clip-rule="evenodd" fill="#88c057"/><path d="M56 48c-.553 0-1.053.224-1.415.585L52 51.171l-2.586-2.586a2 2 0 00-2.829 2.829l4.001 4A1.99 1.99 0 0052 56c.552 0 1.052-.224 1.414-.586l4-4A2 2 0 0056 48z" fill="#fff"/></svg>