<svg xmlns="http://www.w3.org/2000/svg" width="64" height="64"><path d="M60 0H4a4 4 0 00-4 4.001V60a4 4 0 004 4h56a4 4 0 004-4V4.001A4 4 0 0060 0z" fill="#ccc"/><path d="M58 4.001H6A2 2 0 004 6v52a2 2 0 002 2h32a2 2 0 002-2V44a2 2 0 012-2h16a2 2 0 002-1.999V6a2 2 0 00-2-1.999z" fill="#fff"/><path d="M48 8h-8v8.001h8V8zM8 8v8.001h8V8H8zm0 32.001V48h8v-7.999H8zM16 56h8v-8h-8v8zM8 24v8h8v-8H8zm48 14v-6h-8v6h8zM32 8h-8v8.001h8V8zm24 16v-7.999h-8V24h8zM24 48h8v-7.999h-8V48zm0-31.999h-8V24h8v-7.999zM24 32h8v-8h-8v8zm12 24v-8h-4v8h4zM24 32h-8v8.001h8V32zm8 8.001h4.555C37.247 38.81 38.522 38 40 38v-6h-8v8.001zM40 24v-7.999h-8V24h8zm0 0v8h8v-8h-8z" fill-rule="evenodd" clip-rule="evenodd" fill="#ccc"/><path d="M56 48c-.553 0-1.053.224-1.415.585L52 51.171l-2.586-2.586a2 2 0 00-2.828 2.829l3.999 3.999a1.995 1.995 0 002.829 0l4-3.999A1.999 1.999 0 0056 48z" fill="#fff"/></svg>