<svg xmlns="http://www.w3.org/2000/svg" width="64" height="64"><path d="M50 36c-.083 0-.163.013-.246.014A2.382 2.382 0 0049.5 36H44v-8h2.999c.337 0 .655-.068.957-.17.669.1 1.347.17 2.044.17 7.731 0 14-6.268 14-14.001C64 6.269 57.731 0 50 0c-7.732 0-14 6.269-14 13.999 0 .225.023.444.033.667-.012.111-.033.22-.033.334v5h-8v-5c0-.114-.021-.223-.033-.334.01-.223.033-.442.033-.667C28 6.269 21.731 0 14 0 6.268 0 0 6.269 0 13.999 0 21.732 6.268 28 14 28c.215 0 .424-.027.637-.037.12.015.238.037.363.037h5v8h-6.5c-.155 0-.28.023-.405.046C5.786 36.515 0 42.573 0 50c0 7.732 6.268 14 14 14 7.731 0 14-6.268 14-14 0-.225-.023-.444-.033-.667.012-.111.033-.22.033-.334V44h8v4.999c0 .114.021.223.033.334-.01.223-.033.442-.033.667 0 7.732 6.268 14 14 14 7.731 0 14-6.268 14-14s-6.269-14-14-14zm-6-21.5h.029a5.938 5.938 0 01-.025-.501A5.995 5.995 0 0150 8.005a5.996 5.996 0 010 11.991V20h-6v-5.5zM14 20v-.004a5.996 5.996 0 115.995-5.997c0 .169-.012.335-.025.501H20V20h-6zm6 28.833l-.121-.007A5.996 5.996 0 1114 44.004V44h6v4.833zM28 36v-8h8v8h-8zm22 19.996A5.996 5.996 0 0144.004 50H44v-6h6v.005a5.995 5.995 0 110 11.991z" fill-rule="evenodd" clip-rule="evenodd" fill="#ccc"/></svg>