<svg xmlns="http://www.w3.org/2000/svg" width="64" height="64"><circle cx="32" cy="32" r="32" fill="#88c057"/><circle cx="32" cy="32" r="28" fill="#fff"/><path d="M36.849 27.151a6.856 6.856 0 00-9.697 0C24.473 29.829 16 48.001 16 48.001s18.171-8.475 20.849-11.152 2.677-7.02 0-9.698zM32 36a4 4 0 110-8 4 4 0 010 8z" fill-rule="evenodd" clip-rule="evenodd" fill="#999"/><path d="M27.151 27.151a6.855 6.855 0 000 9.697c2.678 2.678 7.02 2.678 9.697 0S48 16 48 16s-18.171 8.474-20.849 11.151zm6.263 6.263a2 2 0 11-2.828-2.828 2 2 0 012.828 2.828z" fill-rule="evenodd" clip-rule="evenodd" fill="#ed7161"/></svg>