<svg xmlns="http://www.w3.org/2000/svg" width="64" height="64"><circle cx="32" cy="32" r="32" fill="#fff"/><path d="M32 0C14.327 0 0 14.326 0 32c0 17.673 14.327 32 32 32 17.673 0 32-14.327 32-32C64 14.326 49.673 0 32 0zm0 60C16.536 60 4 47.464 4 32S16.536 3.999 32 3.999 60 16.536 60 32 47.464 60 32 60z" fill-rule="evenodd" clip-rule="evenodd" fill="#ccc"/><path d="M29 16c9.051 0 16.429 7.08 16.95 16H54c0-12.15-9.85-22-22-22s-22 9.85-22 22h2.05c.521-8.92 7.899-16 16.95-16z" fill-rule="evenodd" clip-rule="evenodd" fill="#ed7161"/><path d="M32 24s-6 14.687-6 18a6.001 6.001 0 0012 0c0-3.313-6-18-6-18z" fill="#999"/></svg>