<svg xmlns="http://www.w3.org/2000/svg" width="64" height="44.001"><path d="M60 0H4C1.791 0 0 1.792 0 4.001v36a4 4 0 004 4h56a4 4 0 004-4v-36A4.001 4.001 0 0060 0z" fill="#ccc"/><path d="M6 4.001a2 2 0 00-2 2.001v31.999a2 2 0 002 2h30v-36H6z" fill="#e6e6e6"/><path d="M27.858 29.15l-5.761-15.729c-.397-1.086-1.285-1.42-2.098-1.42s-1.7.273-2.098 1.366L12.14 29.193a2.105 2.105 0 103.956 1.44l.23-.634h7.361l.212.58a2.11 2.11 0 002.698 1.251 2.086 2.086 0 001.261-2.68zm-10.074-3.149l2.214-6.081 2.227 6.081h-4.441z" fill-rule="evenodd" clip-rule="evenodd" fill="#999"/><path d="M54 18.001c-.553 0-1.053.224-1.415.585L50 21.172l-2.586-2.586a2 2 0 00-2.828 2.829l4 3.999c.361.363.861.587 1.414.587a1.99 1.99 0 001.414-.587l4-3.999A1.999 1.999 0 0054 18.001z" fill="#fff"/></svg>