<svg xmlns="http://www.w3.org/2000/svg" width="63.993" height="59.999"><path d="M63.821 22.668a3.543 3.543 0 00-2.723-2.384l-17.434-3.279-8.565-15.197C34.472.692 33.284 0 31.997 0s-2.475.692-3.104 1.808l-8.564 15.197-17.435 3.279c-1.279.24-2.323 1.153-2.722 2.384s-.09 2.579.806 3.515l12.11 12.651-2.197 17.19a3.52 3.52 0 001.426 3.294 3.579 3.579 0 003.593.355l16.086-7.384 16.083 7.384a3.574 3.574 0 003.594-.355 3.525 3.525 0 001.427-3.294l-2.196-17.19 12.111-12.651a3.511 3.511 0 00.806-3.515z" fill="#fc6"/></svg>