<svg xmlns="http://www.w3.org/2000/svg" width="64" height="60.001"><path d="M63.824 22.668a3.543 3.543 0 00-2.723-2.384l-17.434-3.279-8.565-15.197A3.557 3.557 0 0032 0l-.015.001H32v52.288l16.083 7.384a3.577 3.577 0 003.594-.355 3.52 3.52 0 001.427-3.294l-2.196-17.19 12.111-12.651a3.513 3.513 0 00.805-3.515z" fill-rule="evenodd" clip-rule="evenodd" fill="#ccc"/><path d="M32 .001h.015H32a3.559 3.559 0 00-3.104 1.807l-8.564 15.197-17.435 3.279c-1.279.24-2.323 1.153-2.723 2.384s-.09 2.579.807 3.515l12.11 12.651-2.197 17.19a3.52 3.52 0 001.427 3.294 3.576 3.576 0 003.593.355L32 52.289V.001z" fill-rule="evenodd" clip-rule="evenodd" fill="#fc6"/></svg>