<svg xmlns="http://www.w3.org/2000/svg" width="64" height="64.001"><path d="M60 0H4a4 4 0 00-4 4v56a4 4 0 004 4.001h56A4 4 0 0064 60V4a4 4 0 00-4-4z" fill="#ccc"/><path d="M19.999 4.001H6A2 2 0 004 6v12.001A2 2 0 006 20h13.999A2 2 0 0022 18.001V6a2 2 0 00-2.001-1.999zm22.001 0H28A2 2 0 0026 6v12.001A2 2 0 0028 20h14a2 2 0 002-1.999V6a2 2 0 00-2-1.999zM42 24H28a2 2 0 00-2 2v12a2 2 0 002 2.001h14A2 2 0 0044 38V26a2 2 0 00-2-2zM19.999 44.001H6A2 2 0 004 46v12a2 2 0 002 2.001h13.999A2.001 2.001 0 0022 58V46a2 2 0 00-2.001-1.999zm22.001 0H28A2 2 0 0026 46v12a2 2 0 002 2.001h14A2 2 0 0044 58V46a2 2 0 00-2-1.999z" fill-rule="evenodd" clip-rule="evenodd" fill="#fff"/><path d="M20 24H6a2 2 0 00-2 2v12a2 2 0 002 2h14a2 2 0 002-2V26a2 2 0 00-2-2z" fill="#e6e6e6"/><path d="M58 4h-8a2 2 0 00-2 2v52a2 2 0 002 2h8a2 2 0 002-2V6a2 2 0 00-2-2z" fill="#fff"/><path d="M54 52.001a2 2 0 100 4 2 2 0 000-4zm0-40A2 2 0 1053.999 8 2 2 0 0054 12zM54 16a2 2 0 00-2 2.001V34a2 2 0 004 0V18.001A2 2 0 0054 16z" fill-rule="evenodd" clip-rule="evenodd" fill="#999"/></svg>