<svg xmlns="http://www.w3.org/2000/svg" width="64" height="64.001"><path d="M60 0H4a4 4 0 00-4 4v56a4 4 0 004 4.001h56A4 4 0 0064 60V4a4 4 0 00-4-4z" fill="#ccc"/><path d="M18 4.001H6A2 2 0 004 6v12.001A2 2 0 006 20h12a2 2 0 002-1.999V6a2 2 0 00-2-1.999zm20 0H26A2 2 0 0024 6v12.001A2 2 0 0026 20h12a2 2 0 002-1.999V6a2 2 0 00-2-1.999zm20 0H46A2 2 0 0044 6v12.001A2 2 0 0046 20h12a2 2 0 002-1.999V6a2 2 0 00-2-1.999zM58 24H46a2 2 0 00-2 2v12a2 2 0 002 2.001h12A2 2 0 0060 38V26a2 2 0 00-2-2zm-20 0H26a2 2 0 00-2 2v12c0 1.104.896 2.001 2 2.001h12A2 2 0 0040 38V26a2 2 0 00-2-2zM18 44.001H6A2 2 0 004 46v12a2 2 0 002 2.001h12A2 2 0 0020 58V46a2 2 0 00-2-1.999zm20 0H26A2 2 0 0024 46v12a2 2 0 002 2.001h12A2 2 0 0040 58V46a2 2 0 00-2-1.999zm20 0H46A2 2 0 0044 46v12a2 2 0 002 2.001h12A2 2 0 0060 58V46a2 2 0 00-2-1.999z" fill-rule="evenodd" clip-rule="evenodd" fill="#fff"/><path d="M18 24H6a2 2 0 00-2 2v12a2 2 0 002 2h12a2 2 0 002-2V26a2 2 0 00-2-2z" fill="#e6e6e6"/></svg>