<svg xmlns="http://www.w3.org/2000/svg" width="64" height="56"><path d="M47 0l-.028.001h.047L47 0zM17 0C7.61 0 0 7.604 0 16.98c0 5.204 2.348 9.854 6.037 12.969L6 29.966s21.609 23.09 23.171 24.736A3.888 3.888 0 0032 55.937V8.995C29.139 3.644 23.497 0 17 0z" fill-rule="evenodd" clip-rule="evenodd" fill="#ed7161"/><path d="M16.98.001h.047L17 0l-.02.001zM64 16.98C64 7.604 56.389 0 47 0c-6.497 0-12.139 3.644-15 8.995v46.942a3.887 3.887 0 002.828-1.235C36.39 53.056 58 29.966 58 29.966l-.037-.017C61.652 26.834 64 22.184 64 16.98z" fill-rule="evenodd" clip-rule="evenodd" fill="#ccc"/></svg>