<svg xmlns="http://www.w3.org/2000/svg" width="64" height="64"><path d="M32 0C14.326 0 0 14.326 0 32c0 17.673 14.326 32 32 32 17.673 0 32-14.327 32-32C64 14.326 49.673 0 32 0zm0 48c-8.837 0-16-7.164-16-16 0-8.837 7.163-15.999 16-15.999 8.836 0 16 7.162 16 15.999 0 8.836-7.164 16-16 16z" fill-rule="evenodd" clip-rule="evenodd" fill="#ccc"/><path d="M32 4C16.536 4 4 16.535 4 32c0 15.464 12.536 28 28 28s28-12.536 28-28C60 16.535 47.464 4 32 4zm0 44c-8.837 0-16-7.164-16-16 0-8.837 7.163-15.999 16-15.999 8.836 0 16 7.162 16 15.999 0 8.836-7.164 16-16 16z" fill-rule="evenodd" clip-rule="evenodd" fill="#fff"/><path d="M32 12c-11.046 0-20 8.954-20 20s8.954 20.001 20 20.001c11.045 0 20-8.955 20-20.001s-8.955-20-20-20zm0 36c-8.837 0-16-7.164-16-16 0-8.837 7.163-15.999 16-15.999 8.836 0 16 7.162 16 15.999 0 8.836-7.164 16-16 16z" fill-rule="evenodd" clip-rule="evenodd" fill="#ccc"/><path d="M17.701 39.149l-14.299 7.15a32.103 32.103 0 0012.916 13.579l7.841-13.938a16.058 16.058 0 01-6.458-6.791zm21.448 7.15l7.149 14.298a32.09 32.09 0 0013.578-12.916l-13.938-7.84a16.042 16.042 0 01-6.789 6.458zm7.15-21.448l14.298-7.149A32.098 32.098 0 0047.681 4.123L39.84 18.061a16.064 16.064 0 016.459 6.79zM4.122 16.319l13.938 7.84a16.056 16.056 0 016.79-6.458L17.701 3.403A32.104 32.104 0 004.122 16.319z" fill="#ed7161"/></svg>