<svg xmlns="http://www.w3.org/2000/svg" width="64" height="63.999"><path d="M60 0H4a4 4 0 00-4 4v55.999a4 4 0 004 4h56c2.21 0 4-1.79 4-4V4c0-2.21-1.79-4-4-4z" fill="#ed7161"/><path d="M44.001 17.998h-6a2 2 0 000 4h1.05l-4.411 4.467a2.1 2.1 0 00-.001 2.955c.81.817 2.122.817 2.933 0l4.43-4.485v1.063a2 2 0 104 0v-6a2.002 2.002 0 00-2.001-2zM26.475 34.637l-4.453 4.461v-1.057a2 2 0 00-2.011-1.99 2 2 0 00-2.01 1.99v5.969a2 2 0 002.01 1.989h6.032a2 2 0 002.01-1.989c0-1.1-.899-1.989-2.01-1.989h-1.057l4.436-4.443c.813-.812.813-2.129 0-2.94s-2.133-.813-2.947-.001zm17.514 1.362a1.992 1.992 0 00-1.984 2v1.051l-4.434-4.411a2.073 2.073 0 10-2.934 2.93l4.451 4.43h-1.051A1.993 1.993 0 0036.052 44c0 1.104.889 2 1.985 2h5.951a1.993 1.993 0 001.985-2v-6a1.991 1.991 0 00-1.984-2.001zM24.948 22.02h1.057c1.103 0 1.996-.899 1.996-2.01s-.894-2.011-1.996-2.011h-5.982c-1.102 0-1.995.9-1.995 2.011v6.03c0 1.111.894 2.011 1.995 2.011a2 2 0 001.995-2.011v-1.057l4.457 4.436a2.085 2.085 0 002.948-2.946l-4.475-4.453z" fill-rule="evenodd" clip-rule="evenodd" fill="#fff"/></svg>