<svg xmlns="http://www.w3.org/2000/svg" width="64" height="64.001"><path d="M60 0H4a4 4 0 00-4 4v56.001a4 4 0 004 4h56a4 4 0 004-4V4a4 4 0 00-4-4z" fill="#ed7161"/><path d="M18 24H6a2 2 0 00-2 2v32.001a2 2 0 002 2h12a2 2 0 002-2V26a2 2 0 00-2-2zm40 0H26a2 2 0 00-2 2v32.001a2 2 0 002 2h32a2 2 0 002-2V26a2 2 0 00-2-2zm0-12H6a2 2 0 00-2 2v4a2 2 0 002 2h52a2 2 0 002-2v-4a2 2 0 00-2-2zM6 4a2 2 0 10.002 4.002A2 2 0 006 4zm6 0a2 2 0 10.002 4.002A2 2 0 0012 4zm6 0a2 2 0 10.002 4.002A2 2 0 0018 4z" fill-rule="evenodd" clip-rule="evenodd" fill="#fff"/></svg>