<svg xmlns="http://www.w3.org/2000/svg" width="64" height="64.001"><path d="M60 0H4a4 4 0 00-4 4v56.001a4 4 0 004 4h56a4 4 0 004-4V4a4 4 0 00-4-4z" fill="#9b7cab"/><path d="M58 12H6a2 2 0 00-2 2v4a2 2 0 002 2h52a2 2 0 002-2v-4a2 2 0 00-2-2zm0 12H6a2 2 0 00-2 2v12c0 1.104.896 2.001 2 2.001h52A2 2 0 0060 38V26a2 2 0 00-2-2zM28 44H6a2 2 0 00-2 2v12.001a2 2 0 002 2h22a2 2 0 002-2V46a2 2 0 00-2-2zm30 0H36a2 2 0 00-2 2v12.001a2 2 0 002 2h22a2 2 0 002-2V46a2 2 0 00-2-2zM6 4a2 2 0 10.002 4.002A2 2 0 006 4zm6 0a2 2 0 10.002 4.002A2 2 0 0012 4zm6 0a2 2 0 10.002 4.002A2 2 0 0018 4z" fill-rule="evenodd" clip-rule="evenodd" fill="#fff"/></svg>