<svg xmlns="http://www.w3.org/2000/svg" width="64" height="64.001"><path d="M60 0H4a4 4 0 00-4 4v56a4 4 0 004 4.001h56A4 4 0 0064 60V4a4 4 0 00-4-4z" fill="#ccc"/><path d="M58 52.001H6a2 2 0 00-2 2V58a2 2 0 002 2.001h52A2 2 0 0060 58v-3.999a2 2 0 00-2-2zm0-48H6A2 2 0 004 6v4.001a2 2 0 002 2h52a2 2 0 002-2V6a2 2 0 00-2-1.999zm0 36H6A2 2 0 004 42v4.001a2 2 0 002 2h52a2 2 0 002-2V42a2 2 0 00-2-1.999zm0-12H6A2 2 0 004 30v4.001a2 2 0 002 2h52a2 2 0 002-2V30a2 2 0 00-2-1.999z" fill-rule="evenodd" clip-rule="evenodd" fill="#fff"/><path d="M58 16H6a2 2 0 00-2 2.001v4A2 2 0 006 24h52a2 2 0 002-1.999v-4A2 2 0 0058 16z" fill="#e6e6e6"/></svg>