<svg xmlns="http://www.w3.org/2000/svg" width="64" height="64.001"><path d="M8 32a4 4 0 10-8 0 4 4 0 008 0zm3.215 12.001a3.999 3.999 0 10-6.928 4 4 4 0 006.928-4z" fill-rule="evenodd" clip-rule="evenodd" fill="#ccc"/><path d="M32 0a4 4 0 100 8 4 4 0 000-8zm16 4.287a4.001 4.001 0 10-4 6.932 4.001 4.001 0 004-6.932z" fill-rule="evenodd" clip-rule="evenodd" fill="#999"/><path d="M9.751 14.536a4 4 0 10-3.999 6.929 4 4 0 003.999-6.929zm11.713-8.784a4 4 0 10-6.929 3.999 4 4 0 006.929-3.999z" fill-rule="evenodd" clip-rule="evenodd" fill="#b3b3b3"/><path d="M32 56a4 4 0 100 8 4 4 0 000-8zm-12-3.216a4.001 4.001 0 10-3.998 6.931A4.001 4.001 0 0020 52.784z" fill-rule="evenodd" clip-rule="evenodd" fill="#e6e6e6"/><path d="M59.713 16.001A4.001 4.001 0 0052.784 20a4 4 0 006.929-3.999zM60 28a4 4 0 100 8 4 4 0 000-8z" fill-rule="evenodd" clip-rule="evenodd" fill="gray"/></svg>