<svg xmlns="http://www.w3.org/2000/svg" width="64" height="64.001"><path d="M32 48.001A4 4 0 0028 52v8a4 4 0 108 0v-8a4 4 0 00-4-3.999zm26.249-5.465l-6.929-4a4 4 0 00-4 6.928l6.928 4a4.001 4.001 0 004.001-6.928zM24 45.856a4 4 0 00-5.464 1.465l-4 6.928a4 4 0 006.928 4l4-6.928A4.002 4.002 0 0024 45.856zm21.464 1.465a4 4 0 10-6.928 4l3.999 6.928a4 4 0 006.929-4l-4-6.928z" fill-rule="evenodd" clip-rule="evenodd" fill="#e6e6e6"/><path d="M12 36.001A4 4 0 0012 28H4a4 4 0 000 8.001h8zm6.144 4a4 4 0 00-5.464-1.465l-6.929 4a4 4 0 004 6.928l6.929-4a4 4 0 001.464-5.463z" fill-rule="evenodd" clip-rule="evenodd" fill="#ccc"/><path d="M16.68 18.536l-6.929-4a4 4 0 00-4 6.928l6.929 4a4 4 0 104-6.928zm8.784-5.856l-4-6.928a4.001 4.001 0 00-6.928 4l4 6.928a4 4 0 006.928-4z" fill-rule="evenodd" clip-rule="evenodd" fill="#b3b3b3"/><path d="M32 0a4 4 0 00-4 4.001v8a4 4 0 008 0v-8A4 4 0 0032 0zm16 4.287a4.002 4.002 0 00-5.465 1.465l-3.999 6.928a4 4 0 006.928 4l4-6.928A4.002 4.002 0 0048 4.287z" fill-rule="evenodd" clip-rule="evenodd" fill="#999"/><path d="M60 28h-8a4 4 0 000 8.001h8A4 4 0 0060 28zm-8.68-2.536l6.929-4a4 4 0 10-4.001-6.928l-6.928 4a4 4 0 004 6.928z" fill-rule="evenodd" clip-rule="evenodd" fill="gray"/></svg>