<svg xmlns="http://www.w3.org/2000/svg" width="64" height="64.001"><path d="M60 0H4a4 4 0 00-4 4v56a4 4 0 004 4.001h56A4 4 0 0064 60V4a4 4 0 00-4-4z" fill="#ccc"/><path d="M58 44.001H6A2 2 0 004 46v12a2 2 0 002 2.001h52A2 2 0 0060 58V46a2 2 0 00-2-1.999zm0-40H6A2 2 0 004 6v12.001A2 2 0 006 20h52a2 2 0 002-1.999V6a2 2 0 00-2-1.999z" fill-rule="evenodd" clip-rule="evenodd" fill="#fff"/><path d="M58 24H6a2 2 0 00-2 2v12a2 2 0 002 2h52a2 2 0 002-2V26a2 2 0 00-2-2z" fill="#48a0dc"/><circle cx="10" cy="32.001" r="2" fill="#fff"/><path d="M10 50a2 2 0 10.001 4.001A2 2 0 0010 50zm0-35.999A2 2 0 109.999 10 2 2 0 0010 14z" fill-rule="evenodd" clip-rule="evenodd" fill="#999"/></svg>