<svg xmlns="http://www.w3.org/2000/svg" width="64" height="60"><path d="M60 0H12a4 4 0 00-4 4h48a4 4 0 014 4v36a4 4 0 004-4V4a4 4 0 00-4-4z" fill-rule="evenodd" clip-rule="evenodd" fill="#ccc"/><path d="M52 8H4a4 4 0 00-4 4v48l8-8h44a4 4 0 004-4V12a4 4 0 00-4-4z" fill-rule="evenodd" clip-rule="evenodd" fill="#ccc"/><path d="M50 12H6a2 2 0 00-2 1.999V52l4-4h42a2 2 0 002-2V13.999A2 2 0 0050 12z" fill-rule="evenodd" clip-rule="evenodd" fill="#fff"/><path d="M16 26a4 4 0 100 8 4 4 0 000-8zm12 0a4 4 0 100 8 4 4 0 000-8zm12 0a4 4 0 100 8 4 4 0 000-8z" fill-rule="evenodd" clip-rule="evenodd" fill="#999"/></svg>