<svg xmlns="http://www.w3.org/2000/svg" width="64" height="63.996"><path d="M60 26.013H32c-2.209 0-4 1.789-4 3.997v23.977a3.998 3.998 0 004 3.995h12.058c-.056.581-.011 5.998.005 6.014.281.094 5.726-5.211 6.581-6.014H60c2.209 0 4-1.789 4-3.995V30.01a3.998 3.998 0 00-4-3.997z" fill="#ccc"/><path d="M38 .039h-2.938C34.932.031 34.81 0 34.678 0H7.308c-.132 0-.255.031-.385.039H4c-2.209 0-4 1.788-4 3.996v27.973a3.998 3.998 0 004 3.995h11.251c.208.163 6.386 6.238 6.686 6.139.017-.016.066-6.049-.002-6.139H38c2.209 0 4-1.789 4-3.995V4.035a3.997 3.997 0 00-4-3.996z" fill="#9b7cab"/><path d="M31 16.023a3 3 0 00-3 2.998 2.998 2.998 0 003 2.996c1.656 0 3-1.342 3-2.996a3 3 0 00-3-2.998zm-10 0a3 3 0 00-3 2.998 2.998 2.998 0 003 2.996c1.656 0 3-1.342 3-2.996a3 3 0 00-3-2.998zm-10 0a3 3 0 00-3 2.998 2.998 2.998 0 003 2.996c1.656 0 3-1.342 3-2.996a3 3 0 00-3-2.998z" fill-rule="evenodd" clip-rule="evenodd" fill="#fff"/></svg>