<svg xmlns="http://www.w3.org/2000/svg" width="64" height="60"><path d="M60 8.001v36a4 4 0 01-3.994 4L52 48l.001.001H9.999l-1.64 1.64A3.995 3.995 0 0012 52.001h44.001L64 60V12.001a4 4 0 00-4-4z" fill-rule="evenodd" clip-rule="evenodd" fill="#ccc"/><path d="M52 0H4a4 4 0 00-4 4v48l8-8h44a4 4 0 004-4V4a4 4 0 00-4-4z" fill-rule="evenodd" clip-rule="evenodd" fill="#ccc"/><path d="M50 4H6a2 2 0 00-2 1.999V44l4-4h42a2 2 0 002-2V5.999A2 2 0 0050 4z" fill-rule="evenodd" clip-rule="evenodd" fill="#fff"/><path d="M16 18a4 4 0 100 8 4 4 0 000-8zm12 0a4 4 0 100 8 4 4 0 000-8zm12 0a4 4 0 100 8 4 4 0 000-8z" fill-rule="evenodd" clip-rule="evenodd" fill="#999"/></svg>