<svg xmlns="http://www.w3.org/2000/svg" width="62" height="67.999"><path d="M26 59.999V58h-9.162c1.543 3.53 5.063 5.999 9.162 5.999.353 0 .699-.024 1.042-.061A7.954 7.954 0 0126 59.999z" fill-rule="evenodd" clip-rule="evenodd" fill="#cca352"/><path d="M26 39.999a8 8 0 018-8h9.958c-.362-9.072-3.313-16.68-11.606-19.149A7.954 7.954 0 0034 8a8 8 0 00-8-8 8 8 0 00-8 8c0 1.826.618 3.503 1.648 4.85C10.751 15.499 8 24.06 8 34c0 11.999-4 16-4 16a4 4 0 100 8h22V39.999zM26 4a4 4 0 110 8 4 4 0 010-8z" fill-rule="evenodd" clip-rule="evenodd" fill="#fc6"/><path d="M54 35.999H34a4 4 0 00-4 4v20a4 4 0 004 4h20a4 4 0 004-4v-20a4 4 0 00-4-4z" fill="#ed7161"/><path d="M48 53.999h-3.335l3.577-3.757A6 6 0 1038 45.999a2 2 0 004 0 2 2 0 112 2v.9l-5.414 5.685A2 2 0 0040 57.999h8a2 2 0 000-4z" fill-rule="evenodd" clip-rule="evenodd" fill="#fff"/></svg>