<svg xmlns="http://www.w3.org/2000/svg" width="52" height="63.999"><path d="M16.838 58c1.543 3.53 5.063 5.999 9.162 5.999S33.618 61.53 35.162 58H16.838z" fill-rule="evenodd" clip-rule="evenodd" fill="#cca352"/><path d="M48 50s-4-4.001-4-16c0-9.94-2.751-18.501-11.648-21.15A7.954 7.954 0 0034 8c0-4.419-3.582-8-8-8s-8 3.581-8 8c0 1.826.618 3.503 1.648 4.85C10.751 15.499 8 24.06 8 34c0 11.999-4 16-4 16a4 4 0 100 8h44a4 4 0 000-8zM22 8a4 4 0 118 0 4 4 0 01-8 0z" fill-rule="evenodd" clip-rule="evenodd" fill="#fc6"/></svg>