<svg xmlns="http://www.w3.org/2000/svg" width="64" height="44.001"><path d="M4 .001a4 4 0 00-4 4v36a4 4 0 004 4h32v-44H4z" fill-rule="evenodd" clip-rule="evenodd" fill="#ccc"/><path d="M36 4.001H6a2 2 0 00-2 2v32a2 2 0 002 2h30v-36z" fill-rule="evenodd" clip-rule="evenodd" fill="#fff"/><path d="M24 28.001h-4.044l4.286-5.757A6 6 0 1014 18.001a2 2 0 004 0 2 2 0 113.414 1.414L20 21.314l-5.414 7.272v-.001A2 2 0 0016 32.001h8a2 2 0 000-4z" fill-rule="evenodd" clip-rule="evenodd" fill="#999"/><path d="M60 0H36v44.001h24a4 4 0 004-4v-36A4.001 4.001 0 0060 0z" fill="#48a0dc"/><path d="M54 26.001c-.553 0-1.053.224-1.415.585L50 29.173l-2.586-2.587a2 2 0 00-2.828 2.828l3.999 4.001c.362.362.862.586 1.415.586.552 0 1.052-.224 1.414-.586l4-4.001A2 2 0 0054 26.001zm-8-7.999c.552 0 1.053-.225 1.414-.586L50 14.83l2.586 2.586a2 2 0 002.828-2.828l-4-4.001A1.993 1.993 0 0050 10.002a1.99 1.99 0 00-1.414.585l-4 4.001A2.001 2.001 0 0046 18.002z" fill-rule="evenodd" clip-rule="evenodd" fill="#fff"/></svg>