<svg xmlns="http://www.w3.org/2000/svg" width="64" height="44.001"><path d="M60 0H4C1.791 0 0 1.792 0 4.001v36a4 4 0 004 4h56a4 4 0 004-4v-36A4.001 4.001 0 0060 0z" fill="#ccc"/><path d="M6 4.001a2 2 0 00-2 2.001v31.999a2 2 0 002 2h30v-36H6z" fill="#e6e6e6"/><path d="M24 28.001h-4.044l4.286-5.757A6 6 0 1014 18.001a2 2 0 004 0 2 2 0 113.414 1.414L20 21.314l-5.412 7.27-.002.002v.001A2 2 0 0016 32.001h8a2 2 0 000-4z" fill-rule="evenodd" clip-rule="evenodd" fill="#999"/><path d="M54 26.001c-.553 0-1.053.224-1.414.585L50 29.173l-2.586-2.587a2 2 0 00-2.828 2.828l4 4.001a1.99 1.99 0 001.414.586c.552 0 1.052-.224 1.414-.586l4-4.001A2 2 0 0054 26.001zm-8-7.999c.553 0 1.053-.225 1.414-.586L50 14.83l2.586 2.586a2 2 0 002.828-2.828l-4-4.001c-.361-.362-.861-.585-1.414-.585s-1.053.223-1.414.585l-4 4.001A2.001 2.001 0 0046 18.002z" fill-rule="evenodd" clip-rule="evenodd" fill="#fff"/></svg>