<svg xmlns="http://www.w3.org/2000/svg" width="64" height="63.998"><path d="M32 0C14.327 0 0 14.322 0 31.999c0 17.669 14.327 31.999 32 31.999s32-14.33 32-31.999C64 14.322 49.673 0 32 0z" fill="#88c057"/><path d="M45.428 22.571a1.989 1.989 0 00-2.81 0L28.001 37.189l-6.618-6.618a1.988 1.988 0 00-2.809 2.81l7.803 7.803c.061.083.122.166.197.241.394.394.911.586 1.427.58a1.98 1.98 0 001.427-.58c.076-.076.139-.161.2-.245l15.8-15.8a1.988 1.988 0 000-2.809z" fill-rule="evenodd" clip-rule="evenodd" fill="#fff"/></svg>