<svg xmlns="http://www.w3.org/2000/svg" width="60.003" height="63.976"><path d="M45.022 8.035c-.008-.004-.013-.011-.021-.015a4 4 0 00-4 6.929l-.013.021c10.51 6.07 14.108 19.508 8.04 30.018-4.065 7.042-11.441 10.962-19.027 10.97-7.586-.008-14.962-3.928-19.028-10.97-6.067-10.51-2.469-23.947 8.04-30.018l-.012-.021a4.002 4.002 0 00-4-6.929c-.008.004-.014.011-.021.015C.651 16.328-4.255 34.66 4.024 49c5.55 9.613 15.62 14.965 25.978 14.976C40.358 63.965 50.428 58.613 55.979 49c8.279-14.34 3.373-32.672-10.957-40.965zM30.001 26.017c2.199 0 3.982-1.792 3.982-4.003V4.002C33.983 1.792 32.2 0 30.001 0s-3.982 1.792-3.982 4.002v18.012c0 2.211 1.783 4.003 3.982 4.003z" fill-rule="evenodd" clip-rule="evenodd" fill="#88c057"/></svg>