<svg xmlns="http://www.w3.org/2000/svg" width="64" height="64"><path d="M60 10H4a4 4 0 00-4 4v36a4.001 4.001 0 004 4.001h56c2.209 0 4-1.792 4-4.001V14a4 4 0 00-4-4z" fill="#ccc"/><path d="M58 14H6a2 2 0 00-2 2v32.001A2 2 0 006 50h52a2 2 0 002-1.999V16a2 2 0 00-2-2z" fill="#fff"/><path fill="#9b7cab" d="M8 18h40v28H8z"/><path d="M36 26a6.001 6.001 0 000 12 6 6 0 000-12zm-16 0a6.001 6.001 0 000 12 6 6 0 000-12z" fill-rule="evenodd" clip-rule="evenodd" fill="#fff"/><path d="M60 60h-4a4 4 0 01-4-4V8.001A4 4 0 0156 4h4a2 2 0 000-4h-4a7.972 7.972 0 00-6 2.721A7.973 7.973 0 0044 0h-4a2 2 0 000 4h4a4 4 0 014 4.001V56a4 4 0 01-4 4h-4a2 2 0 000 4h4a7.973 7.973 0 006-2.721A7.972 7.972 0 0056 64h4a2 2 0 000-4z" fill-rule="evenodd" clip-rule="evenodd" fill="#666"/></svg>