<svg xmlns="http://www.w3.org/2000/svg" width="68" height="67.999"><path d="M20.318 14.303l-4.016-6.956a32.189 32.189 0 00-8.952 8.958l6.949 4.012a24.138 24.138 0 016.019-6.014zm3.462-2.006A23.81 23.81 0 0132 10.089V2.067a31.792 31.792 0 00-12.231 3.282l4.011 6.948zm34.124 19.702h8.027a31.775 31.775 0 00-3.282-12.23l-6.951 4.013a23.819 23.819 0 012.206 8.217zM48.233 5.346A31.809 31.809 0 0036 2.067v8.021a23.856 23.856 0 018.225 2.2l4.008-6.942zm5.461 14.973l6.957-4.017a32.175 32.175 0 00-8.957-8.953l-4.011 6.946a24.13 24.13 0 016.011 6.024zm-41.4 3.458l-6.947-4.012a31.813 31.813 0 00-3.278 12.233h8.027a23.866 23.866 0 012.198-8.221zm35.387 29.919l4.015 6.955a32.185 32.185 0 008.952-8.957L53.7 47.683a24.134 24.134 0 01-6.019 6.013zM36 57.91v8.021a31.792 31.792 0 0012.23-3.282l-4.01-6.947A23.815 23.815 0 0136 57.91zM10.096 35.999H2.069A31.757 31.757 0 005.351 48.23l6.951-4.014a23.813 23.813 0 01-2.206-8.217zm45.61 8.223l6.947 4.011A31.795 31.795 0 0065.931 36h-8.027a23.877 23.877 0 01-2.198 8.222zm-35.939 18.43A31.777 31.777 0 0032 65.93v-8.02a23.856 23.856 0 01-8.225-2.2l-4.008 6.942zM14.306 47.68l-6.957 4.017a32.168 32.168 0 008.956 8.952l4.01-6.946a24.168 24.168 0 01-6.009-6.023z" fill-rule="evenodd" clip-rule="evenodd" fill="#e6e6e6"/><path d="M36 2.063v8.027c2.921.242 5.696 1 8.227 2.194l4.009-6.944A31.844 31.844 0 0036 2.063zm26.651 17.705l-6.941 4.007A23.836 23.836 0 0157.907 32h8.027a31.78 31.78 0 00-3.283-12.232zM51.7 7.341l-4.012 6.948a24.178 24.178 0 016.022 6.021l6.937-4.005A32.192 32.192 0 0051.7 7.341zM26 23.999a6 6 0 00-6 5.999 2 2 0 004 0 2 2 0 113.413 1.415l.001.001-6.828 9.171v-.001A2 2 0 0022 43.998h8a2 2 0 100-4h-4.043l4.285-5.756A6 6 0 0026 23.999zm16 6h-2v-2h6a2 2 0 000-4h-8a2 2 0 00-2 2v6a2 2 0 002 1.999v.001h4a2 2 0 012 1.999h4a6 6 0 00-6-5.999zM44 38a2 2 0 01-4 0v-.001a2 2 0 00-4 0V38a6 6 0 0012 0v-2.001h-4V38z" fill-rule="evenodd" clip-rule="evenodd" fill="#48a0dc"/></svg>