<svg xmlns="http://www.w3.org/2000/svg" width="64" height="64"><path d="M32 0C14.327 0 0 14.327 0 32s14.327 32 32 32c17.673 0 32-14.327 32-32S49.673 0 32 0zm0 56.001C18.745 56.001 8 45.255 8 32S18.745 8 32 8s24 10.745 24 24-10.745 24.001-24 24.001z" fill-rule="evenodd" clip-rule="evenodd" fill="#e6e6e6"/><path d="M32 0a4.001 4.001 0 000 8.001L32.008 8C45.259 8.004 56 18.748 56 32a4 4 0 108 0C64 14.327 49.673 0 32 0z" fill-rule="evenodd" clip-rule="evenodd" fill="#48a0dc"/><path d="M24 22a6 6 0 00-6 5.999 2 2 0 104 0 2 2 0 113.414 1.415l.001.001-6.829 9.171A2 2 0 0020 41.999h8a2 2 0 100-4h-4.042l4.285-5.756A6 6 0 0024 22zm18 14.001a2 2 0 01-4 0V36a2 2 0 10-4 0v.001a6 6 0 0012 0V34h-4v2.001zM40 28h-2v-2h6a2 2 0 000-4h-8a2 2 0 00-2 2v6a2 2 0 002 1.999V32h4a2 2 0 012 1.999h4A6 6 0 0040 28z" fill-rule="evenodd" clip-rule="evenodd" fill="#48a0dc"/></svg>