<svg xmlns="http://www.w3.org/2000/svg" width="56" height="63.999"><path d="M44.098 20.633l.23-.634h7.361l.212.58a2.108 2.108 0 002.698 1.25 2.09 2.09 0 001.259-2.682L50.098 3.42C49.7 2.334 48.813 1.999 48 1.999s-1.7.274-2.099 1.367l-5.76 15.826a2.105 2.105 0 103.957 1.441zm3.9-10.714L50.225 16h-4.44l2.213-6.081zm5.226 39.025A5.96 5.96 0 0054 46a6.001 6.001 0 00-6-6.001h-4a2 2 0 00-2 1.999v16.001A2 2 0 0044 60h6c3.313 0 6-2.688 6-6.001a5.99 5.99 0 00-2.776-5.055zM46 44h2a2 2 0 010 3.999h-2V44zm4 12h-4v-4.001h4A2 2 0 0150 56z" fill-rule="evenodd" clip-rule="evenodd" fill="#999"/><circle cx="14" cy="50" r="14" fill="#ccc"/><circle cx="14" cy="50" r="10" fill="#fff"/><circle cx="14" cy="14" r="14" fill="#48a0dc"/><circle cx="14" cy="13.999" r="4" fill="#fff"/></svg>