<svg xmlns="http://www.w3.org/2000/svg" width="60" height="60.001"><path d="M54 36H38a4 4 0 000 8.002h8.953C42.919 48.883 36.828 52 30 52c-10.07 0-18.554-6.768-21.166-16.001H.602C3.38 49.692 15.486 60.001 30 60.001c7.69 0 14.692-2.906 20-7.666V56a4 4 0 108 0V40a4 4 0 00-4-4zM6 24.001h16a4 4 0 000-8.002h-8.953C17.081 11.117 23.173 8 30 8c10.069 0 18.552 6.767 21.165 16.001h8.233c-2.78-13.693-14.885-24-29.398-24-7.69 0-14.693 2.906-20 7.666V4.001a4 4 0 10-8 0v15.998a4 4 0 004 4.002z" fill-rule="evenodd" clip-rule="evenodd" fill="#88c057"/></svg>