<svg xmlns="http://www.w3.org/2000/svg" width="64" height="63.998"><path d="M32 0C14.326 0 0 14.322 0 31.999c0 17.669 14.326 31.999 32 31.999 17.672 0 32-14.33 32-31.999C64 14.322 49.672 0 32 0z" fill="#ed7161"/><path d="M34.809 31.998l6.618-6.618a1.988 1.988 0 00-2.81-2.809L32 29.189l-6.618-6.618a1.988 1.988 0 00-2.809 2.809l6.618 6.618-6.618 6.618a1.986 1.986 0 102.809 2.809L32 34.807l6.617 6.618a1.987 1.987 0 002.81-2.809l-6.618-6.618z" fill-rule="evenodd" clip-rule="evenodd" fill="#fff"/></svg>