<svg xmlns="http://www.w3.org/2000/svg" width="64" height="63.999"><path d="M60 0H4a4 4 0 00-4 4v55.999a4 4 0 004 4h56c2.21 0 4-1.79 4-4V4c0-2.21-1.79-4-4-4z" fill="#48a0dc"/><path d="M22.001 29.999a4 4 0 014-4h11.078l-.49.49a2.067 2.067 0 002.921 2.922l3.841-3.842a2.063 2.063 0 00.434-2.275l.08-.08a2.024 2.024 0 00-.455-.747l-3.878-3.877a2.078 2.078 0 00-2.938 2.939l.469.469H26.001a8 8 0 00-8 8v4c0 .922.165 1.803.453 2.625l3.547-3.546v-3.078zm23.546-2.626l-3.546 3.546v3.08a4 4 0 01-4 4H26.922l.429-.429a2.067 2.067 0 00-2.921-2.921l-3.841 3.841a2.063 2.063 0 00-.434 2.275l-.019.018c.1.27.238.529.456.746l3.877 3.878a2.078 2.078 0 002.939-2.938l-.471-.471H38c4.418 0 8-3.58 8-7.999v-4a7.877 7.877 0 00-.453-2.626z" fill-rule="evenodd" clip-rule="evenodd" fill="#fff"/></svg>