<svg xmlns="http://www.w3.org/2000/svg" width="64" height="64.001"><path d="M60 0H4a4 4 0 00-4 4v56a4 4 0 004 4.001h56A4 4 0 0064 60V4a4 4 0 00-4-4z" fill="#ccc"/><path d="M42 4.001H6a2 2 0 00-2 2V42a2 2 0 002 2.001h36A2 2 0 0044 42V6.001a2 2 0 00-2-2z" fill="#fff"/><path d="M58 4.001h-8A2 2 0 0048 6v42H6a2 2 0 00-2 2v8c0 1.104.896 2.001 2 2.001h52A2 2 0 0060 58V6a2 2 0 00-2-1.999z" fill="#fff"/><path d="M48 16v32h12V16H48zM16 60.001h32V48H16v12.001z" fill-rule="evenodd" clip-rule="evenodd" fill="#e6e6e6"/><path d="M54 52.001a2 2 0 100 4 2 2 0 000-4zm0-40A2 2 0 1053.999 8 2 2 0 0054 12zM10 52a2 2 0 10.001 4.001A2 2 0 0010 52z" fill-rule="evenodd" clip-rule="evenodd" fill="#999"/></svg>