<svg xmlns="http://www.w3.org/2000/svg" viewBox="0 0 56.968 56.968"><path d="M55.506 48.055L44.313 36.863l-1.427 1.426-4.849-4.683C40.52 30.157 42 25.941 42 21.377c0-11.579-9.421-21-21-21s-21 9.421-21 21 9.421 21 21 21c4.854 0 9.317-1.671 12.878-4.448l4.767 4.603-1.401 1.401 11.192 11.192c.944.944 2.199 1.464 3.535 1.464s2.591-.52 3.535-1.464a5.005 5.005 0 000-7.07zM2 21.377c0-10.477 8.523-19 19-19s19 8.523 19 19c0 4.461-1.556 8.56-4.139 11.805-.305.384-.63.748-.961 1.106-.1.108-.194.221-.297.326a18.55 18.55 0 01-.981.925c-.172.154-.334.318-.512.465l-.049.041A18.914 18.914 0 0121 40.376c-10.477.001-19-8.522-19-18.999zm52.092 32.335c-1.133 1.133-3.109 1.133-4.242 0l-9.778-9.778 1.427-1.427-6.084-5.875c.061-.058.115-.125.176-.183.293-.284.57-.582.846-.882.118-.129.247-.246.362-.378l6.114 5.904 1.401-1.402 9.778 9.778a3.003 3.003 0 010 4.243z"/><path d="M38 21.377c0-9.374-7.626-17-17-17s-17 7.626-17 17 7.626 17 17 17 17-7.626 17-17zm-17 15c-8.271 0-15-6.729-15-15s6.729-15 15-15 15 6.729 15 15-6.729 15-15 15z"/></svg>