<svg xmlns="http://www.w3.org/2000/svg" width="63.999" height="64.002"><path d="M60 26l-2.974-.972a25.862 25.862 0 00-2.394-5.8l1.407-2.785a3.996 3.996 0 000-5.655l-2.827-2.829a3.999 3.999 0 00-5.657 0l-2.78 1.412a25.96 25.96 0 00-5.799-2.398L37.999 4A4 4 0 0034 0h-4a4 4 0 00-4 4l-.971 2.973a25.748 25.748 0 00-5.78 2.382l-2.806-1.396a3.999 3.999 0 00-5.657 0l-2.827 2.829a3.996 3.996 0 000 5.655l1.396 2.806A25.796 25.796 0 006.98 25L4 26a4 4 0 00-4 4v4a3.998 3.998 0 004 3.999L6.981 39a25.773 25.773 0 002.374 5.751l-1.396 2.807a3.999 3.999 0 000 5.657l2.827 2.827a3.999 3.999 0 005.657 0l2.808-1.396A25.73 25.73 0 0025 57.02l1 2.981a4 4 0 004 4h4a4 4 0 003.999-4L39 57.021a25.816 25.816 0 005.77-2.387l2.786 1.408a3.999 3.999 0 005.657 0l2.827-2.827a3.999 3.999 0 000-5.657l-1.411-2.782a25.907 25.907 0 002.396-5.798L60 37.999A3.997 3.997 0 0063.999 34v-4A4 4 0 0060 26z" fill="#f06eaa"/><circle cx="31.999" cy="32" r="18.036" fill="#fff"/><circle cx="32" cy="32.003" r="8" fill="#9b7cab"/></svg>