<svg xmlns="http://www.w3.org/2000/svg" width="60" height="64.001"><path d="M50.038 48.537L21.816 32l28.221-16.537c1.885-1.104 2.53-3.55 1.442-5.464-1.089-1.912-3.499-2.568-5.384-1.463l-34.132 20c-.066.039-.118.091-.181.132a4.028 4.028 0 00-.346.253c-.099.083-.189.17-.278.261-.09.091-.177.183-.259.284-.091.112-.171.23-.25.352-.041.063-.092.116-.129.183-.022.039-.033.081-.053.12a3.884 3.884 0 00-.173.39c-.046.116-.094.23-.128.349-.036.123-.059.247-.083.373-.025.129-.052.257-.064.387-.012.127-.01.253-.01.381s-.002.254.01.381c.012.13.039.258.064.387.024.126.047.25.083.373.035.118.082.233.128.349.052.133.106.263.173.39.021.039.031.081.053.12.038.066.089.119.129.183.078.121.158.239.25.352.082.101.169.193.259.285.089.09.179.178.277.26.111.093.228.175.348.254.062.042.114.093.179.131l34.133 20c1.885 1.104 4.295.448 5.384-1.464 1.089-1.915.443-4.361-1.441-5.465z" fill-rule="evenodd" clip-rule="evenodd" fill="#ccc"/><path d="M12 20C5.373 20 0 25.374 0 32.001S5.373 44 12 44s12-5.372 12-11.999S18.627 20 12 20zm36 4c6.627 0 12-5.372 12-12S54.627 0 48 0 36 5.372 36 12s5.373 12 12 12zm0 16.001c-6.627 0-12 5.372-12 11.999 0 6.628 5.373 12.001 12 12.001S60 58.628 60 52c0-6.627-5.373-11.999-12-11.999z" fill-rule="evenodd" clip-rule="evenodd" fill="#9b7cab"/></svg>