<svg xmlns="http://www.w3.org/2000/svg" width="64" height="63.999"><path d="M60 0H4a4 4 0 00-4 4v55.999a4 4 0 004 4h56c2.21 0 4-1.79 4-4V4c0-2.21-1.79-4-4-4z" fill="#48a0dc"/><path d="M41.531 34.592a2.074 2.074 0 00-2.938 0 2.076 2.076 0 000 2.938l.379.379c-1.967-.327-3.397-1.577-4.57-3.201-.691 1.367-1.34 2.746-2.045 3.936 1.377 1.928 3.101 3.355 5.645 3.355h1.079l-.491.491a2.067 2.067 0 002.921 2.922l3.841-3.842c.223-.223.378-.485.478-.764.011-.023.02-.047.029-.071.033-.081.054-.165.077-.249.007-.031.021-.059.026-.09a2.075 2.075 0 00-.552-1.928l-3.879-3.876zm-21.53-6.593h4c1.206 0 2.164.582 3 1.487.665-1.268 1.309-2.655 2.023-3.973-.841-.92-1.806-1.516-3.023-1.516h-6a2 2 0 000 4.002zm18.989-1.911l-.401.401a2.067 2.067 0 002.921 2.922l3.841-3.842c.223-.223.378-.485.478-.764a.772.772 0 00.029-.072c.033-.08.054-.164.076-.247.008-.031.021-.06.027-.092a2.075 2.075 0 00-.552-1.928l-3.878-3.877a2.078 2.078 0 00-2.938 2.939l.469.469h-1.061c-8 0-8 14-14 14h-4a2 2 0 000 3.999h6c5.734.002 5.993-12.777 12.989-13.908z" fill-rule="evenodd" clip-rule="evenodd" fill="#fff"/></svg>