<svg xmlns="http://www.w3.org/2000/svg" width="64" height="63.999"><path d="M60 0H4a4 4 0 00-4 4v55.999a4 4 0 004 4h56c2.21 0 4-1.79 4-4V4c0-2.21-1.79-4-4-4z" fill="#ed7161"/><path d="M36.001 29.999h6a2 2 0 000-4H40.95l4.412-4.466a2.1 2.1 0 000-2.955 2.062 2.062 0 00-2.932 0L38 23.061V22a2 2 0 10-4 0v5.999a2 2 0 002.001 2zm-8 3.999h-6a2 2 0 000 4h1.051l-4.412 4.467a2.1 2.1 0 00-.001 2.955c.81.817 2.122.817 2.933 0l4.43-4.485v1.063a2 2 0 104 0v-6a2.002 2.002 0 00-2.001-2zm17.422 8.431l-4.475-4.43h1.057a1.998 1.998 0 001.996-2c0-1.105-.894-2-1.996-2h-5.982a1.997 1.997 0 00-1.995 2V42c0 1.104.894 1.999 1.995 1.999A1.997 1.997 0 0038.018 42v-1.052l4.457 4.412c.814.81 2.135.81 2.948 0a2.062 2.062 0 000-2.931zm-17.381-22.43a1.997 1.997 0 00-1.996 2v1.051l-4.457-4.412a2.091 2.091 0 00-2.948-.001 2.065 2.065 0 000 2.932L23.116 26H22.06a1.997 1.997 0 00-1.996 2c0 1.104.893 2 1.996 2h5.982a1.997 1.997 0 001.994-2v-6a1.997 1.997 0 00-1.994-2.001z" fill-rule="evenodd" clip-rule="evenodd" fill="#fff"/></svg>