<svg xmlns="http://www.w3.org/2000/svg" width="64" height="64.001"><path d="M60 0H4a4 4 0 00-4 4v56a4 4 0 004 4.001h56A4 4 0 0064 60V4a4 4 0 00-4-4z" fill="#ccc"/><path d="M58 4.001H6A2 2 0 004 6v52a2 2 0 002 2.001h52A2 2 0 0060 58V6a2 2 0 00-2-1.999z" fill="#fff"/><path d="M50 43.999H14a2 2 0 000 4h36a2 2 0 000-4zM14 40h28a2 2 0 000-4H14a2 2 0 100 4zm36-12H14a2 2 0 100 3.999h36A2 2 0 0050 28zm-36-4.001h28A2 2 0 0042 20H14a2 2 0 100 3.999zM14 16h36a2 2 0 000-4H14a2 2 0 000 4z" fill-rule="evenodd" clip-rule="evenodd" fill="#ccc"/></svg>