<svg xmlns="http://www.w3.org/2000/svg" width="64" height="64.001"><path d="M60 0H4a4 4 0 00-4 4v56a4 4 0 004 4.001h56A4 4 0 0064 60V4a4 4 0 00-4-4z" fill="#ccc"/><path d="M42 4.001H6A2 2 0 004 6v52a2 2 0 002 2.001h36A2 2 0 0044 58V6a2 2 0 00-2-1.999z" fill="#fff"/><path d="M14 16h20a2 2 0 000-4H14a2 2 0 000 4zm0 7.999h12A2 2 0 0026 20H14a2 2 0 100 3.999zM14 40h12a2 2 0 000-4H14a2 2 0 100 4zm20-12H14a2 2 0 100 3.999h20A2 2 0 0034 28zm0 15.999H14a2 2 0 000 4h20a2 2 0 000-4zm0 8H14a2 2 0 000 4h20a2 2 0 000-4z" fill-rule="evenodd" clip-rule="evenodd" fill="#ccc"/><path d="M58 4h-8a2 2 0 00-2 2v52a2 2 0 002 2h8a2 2 0 002-2V6a2 2 0 00-2-2z" fill="#fff"/><path fill="#e6e6e6" d="M48 16h12v32H48z"/><path d="M54 52.001a2 2 0 100 4 2 2 0 000-4zm0-40A2 2 0 1053.999 8 2 2 0 0054 12zM48 16v8h12v-8H48z" fill-rule="evenodd" clip-rule="evenodd" fill="#999"/></svg>