<svg xmlns="http://www.w3.org/2000/svg" width="64" height="64"><path d="M60 10H4a4 4 0 00-4 4v36a4.001 4.001 0 004 4.001h56c2.209 0 4-1.792 4-4.001V14a4 4 0 00-4-4z" fill="#ccc"/><path d="M58 14H6a2 2 0 00-2 2v32.001A2 2 0 006 50h52a2 2 0 002-1.999V16a2 2 0 00-2-2z" fill="#fff"/><path fill="#9b7cab" d="M8 18h40v28H8z"/><path d="M41.224 30.945c.492-.87.776-1.874.776-2.945a6 6 0 00-6-6h-4a2 2 0 00-2 2v16a2 2 0 002 2h6a6 6 0 006-6 5.992 5.992 0 00-2.776-5.055zM34 26h2a2 2 0 010 4h-2v-4zm4 12h-4v-4h4a2 2 0 010 4zM22.098 23.421C21.7 22.335 20.813 22 20 22s-1.701.274-2.099 1.367l-5.76 15.826a2.105 2.105 0 103.956 1.44l.231-.633h7.361l.212.579a2.109 2.109 0 002.698 1.251 2.09 2.09 0 001.259-2.682l-5.76-15.727zM17.785 36l2.213-6.08L22.225 36h-4.44z" fill-rule="evenodd" clip-rule="evenodd" fill="#fff"/><path d="M60 60h-4a4 4 0 01-4-4V8.001A4 4 0 0156 4h4a2 2 0 000-4h-4a7.972 7.972 0 00-6 2.721A7.972 7.972 0 0044 0h-4a2 2 0 000 4h4a4 4 0 014 4.001V56a4 4 0 01-4 4h-4a2 2 0 000 4h4a7.972 7.972 0 006-2.721A7.972 7.972 0 0056 64h4a2 2 0 000-4z" fill-rule="evenodd" clip-rule="evenodd" fill="#666"/></svg>