<svg xmlns="http://www.w3.org/2000/svg" width="64" height="44.001"><path d="M60 0H4a4 4 0 00-4 4v36a4 4 0 004 4.001h56c2.209 0 4-1.792 4-4.001V4a4 4 0 00-4-4z" fill="#ed7161"/><path d="M58 4H6a2 2 0 00-2 2v32.001A2 2 0 006 40h52a2 2 0 002-1.999V6a2 2 0 00-2-2z" fill="#fff"/><path d="M41.224 20.945c.492-.87.776-1.874.776-2.945a6 6 0 00-6-6h-4a2 2 0 00-2 2v16a2 2 0 002 2h6a6 6 0 006-6 5.992 5.992 0 00-2.776-5.055zM34 16h2a2 2 0 010 4h-2v-4zm4 12h-4v-4h4a2 2 0 010 4zM22.098 13.421C21.7 12.335 20.813 12 20 12s-1.7.274-2.099 1.367l-5.76 15.826a2.105 2.105 0 103.956 1.44l.231-.633h7.361l.212.579a2.11 2.11 0 002.698 1.251 2.09 2.09 0 001.259-2.682l-5.76-15.727zM17.785 26l2.213-6.08L22.225 26h-4.44z" fill-rule="evenodd" clip-rule="evenodd" fill="#999"/></svg>