<svg xmlns="http://www.w3.org/2000/svg" width="64" height="44"><path d="M60 0H4a4 4 0 00-4 4v36a4 4 0 004 4h56a4 4 0 004-4V4a4 4 0 00-4-4z" fill="#fc6"/><path d="M58 4H6a2 2 0 00-2 2.001V38a2 2 0 002 2h52a2 2 0 002-2V6.001A2 2 0 0058 4z" fill="#fec"/><path d="M22.098 13.421c-.397-1.086-1.285-1.42-2.098-1.42s-1.701.273-2.098 1.366l-5.761 15.826a2.105 2.105 0 103.956 1.44l.231-.633h7.361l.212.58a2.11 2.11 0 002.698 1.251 2.09 2.09 0 001.259-2.682l-5.76-15.728zM17.784 26l2.213-6.081L22.224 26h-4.44zm23.44-5.055A5.96 5.96 0 0042 18.001a6 6 0 00-6-6h-4A2 2 0 0030 14v16a2 2 0 002 2h6a6 6 0 006-6 5.99 5.99 0 00-2.776-5.055zM34 16.001h2A2 2 0 0136 20h-2v-3.999zM38 28h-4v-4h4a2 2 0 010 4z" fill-rule="evenodd" clip-rule="evenodd" fill="#999"/></svg>