<svg xmlns="http://www.w3.org/2000/svg" width="64" height="44"><path d="M60 0H4a4 4 0 00-4 4v36a4 4 0 004 4h56a4 4 0 004-4V4a4 4 0 00-4-4z" fill="#ccc"/><path d="M58 4H6a2 2 0 00-2 2v32a2 2 0 002 2h52a2 2 0 002-2V6a2 2 0 00-2-2z" fill="#fff"/><path d="M45.325 22l6.024-6.023a2.351 2.351 0 00-3.325-3.325L42 18.675l-6.024-6.023a2.35 2.35 0 10-3.324 3.325L38.675 22l-5.95 5.95a2.351 2.351 0 003.324 3.325L42 25.325l5.951 5.95a2.351 2.351 0 003.325-3.325L45.325 22z" fill-rule="evenodd" clip-rule="evenodd" fill="#ed7161"/></svg>