<svg xmlns="http://www.w3.org/2000/svg" width="64" height="44"><path d="M60 0H4a4 4 0 00-4 4v36a4 4 0 004 4h56a4 4 0 004-4V4a4 4 0 00-4-4z" fill="#ccc"/><path d="M58 4H6a2 2 0 00-2 2v32a2 2 0 002 2h52a2 2 0 002-2V6a2 2 0 00-2-2z" fill="#fff"/><path d="M53.333 30.132l-4.859-4.859a9.927 9.927 0 001.518-5.277c0-5.521-4.476-9.997-9.996-9.997S30 14.475 30 19.995s4.476 9.997 9.996 9.997c1.94 0 3.746-.563 5.279-1.52l4.858 4.858a2.262 2.262 0 003.2-3.198zm-13.337-4.134a6.003 6.003 0 110-12.007 6.003 6.003 0 010 12.007z" fill-rule="evenodd" clip-rule="evenodd" fill="#ccc"/></svg>