<svg xmlns="http://www.w3.org/2000/svg" width="64" height="52"><path d="M18 21.999H3.999A4 4 0 000 26l3.999 22a4 4 0 004 4H18a4 4 0 003.999-4V26A4 4 0 0018 21.999z" fill="#48a0dc"/><circle cx="14" cy="46" r="2" fill="#fff"/><path d="M60 28a4 4 0 000-8l-17.12 1.557A26.532 26.532 0 0044 14.001C44 5.75 41.563 0 38 0s-4 4.001-4 4.001V12c0 2.812-2.153 8.526-4 9.999C27.954 23.632 21.999 24 21.999 24v22C23.563 50.063 30 50 30 50h4l20 2a4 4 0 000-8.001h3.999a4 4 0 100-8H60A4 4 0 1060 28z" fill-rule="evenodd" clip-rule="evenodd" fill="#ccc"/></svg>