<svg xmlns="http://www.w3.org/2000/svg" width="48" height="64.001"><path d="M44 24.001a4 4 0 00-4 4C40 36.838 32.836 44 24 44c-8.837 0-16-7.162-16-15.999a4 4 0 00-8 0c0 11.89 8.65 21.756 20 23.662v4.338a4 4 0 000 8h8.002a4 4 0 000-8H28v-4.338C39.344 49.758 47.989 39.9 47.998 28.019l.002-.018a4 4 0 00-4-4zm-20 16c6.627 0 12-5.373 12-12V11.998C36 5.371 30.627 0 24 0c-6.628 0-12.001 5.371-12.001 11.998v16.003c0 6.627 5.373 12 12.001 12zm-4-28.003a4 4 0 018 0v16.003a4 4 0 01-8 0V11.998z" fill-rule="evenodd" clip-rule="evenodd" fill="#9b7cab"/></svg>