<svg xmlns="http://www.w3.org/2000/svg" width="55.98" height="47.997"><path d="M23.999 0C21.791 0 8 11.997 8 11.997v.005H4a4 4 0 00-4 3.999v16a4 4 0 004 4h4.002c.048.042 13.792 11.996 15.997 11.996A3.999 3.999 0 0028 43.998V3.999A3.998 3.998 0 0023.999 0z" fill-rule="evenodd" clip-rule="evenodd" fill="#48a0dc"/><path d="M52.783 11.999a23.784 23.784 0 00-8.587-8.642c-.067-.045-.125-.1-.196-.141a4 4 0 00-4 6.927l-.006.011a15.869 15.869 0 015.861 5.847 15.892 15.892 0 012.131 8 15.89 15.89 0 01-2.131 8 15.883 15.883 0 01-5.861 5.847l.006.008a4 4 0 104 6.929c.074-.043.133-.1.203-.146A23.847 23.847 0 0055.98 24a23.844 23.844 0 00-3.197-12.001zM42.392 30.001c1.094-1.895 1.56-3.961 1.558-6.001.002-2.04-.464-4.106-1.558-6.001a11.706 11.706 0 00-3.907-4.042c-.154-.123-.308-.248-.484-.349a4 4 0 00-4 6.929l-.005.008c.59.335 1.104.823 1.468 1.454.365.632.521 1.321.52 2.002a3.939 3.939 0 01-.52 2 3.906 3.906 0 01-1.468 1.454l.004.009a4 4 0 104 6.929c.173-.1.325-.223.477-.344a11.746 11.746 0 003.915-4.048z" fill-rule="evenodd" clip-rule="evenodd" fill="#88c057"/></svg>