<svg xmlns="http://www.w3.org/2000/svg" width="54.008" height="47.997"><path d="M24 0C21.791 0 8 11.997 8 11.997v.005H4a4 4 0 00-4 3.999v16a4 4 0 004 4h4.002c.049.042 13.793 11.996 15.998 11.996 2.209 0 4-1.789 4-3.999V3.999A3.998 3.998 0 0024 0z" fill-rule="evenodd" clip-rule="evenodd" fill="#48a0dc"/><path d="M46.809 24.001l6.618-6.617a1.989 1.989 0 000-2.81 1.989 1.989 0 00-2.81 0L44 21.192l-6.618-6.618a1.988 1.988 0 00-2.809 2.81l6.617 6.617-6.617 6.618a1.986 1.986 0 102.809 2.809L44 26.811l6.617 6.617a1.988 1.988 0 002.81-2.809l-6.618-6.618z" fill-rule="evenodd" clip-rule="evenodd" fill="#ed7161"/></svg>