<svg xmlns="http://www.w3.org/2000/svg" width="63.99" height="63.991"><path d="M62.476 55.162l-12.82-12.818-7.313 7.313 12.819 12.818a5.168 5.168 0 007.313 0 5.17 5.17 0 00.001-7.313z" fill="#48a0dc"/><circle cx="27.99" cy="27.99" r="27.99" fill="#ccc"/><circle cx="27.986" cy="27.986" r="24.013" fill="#fff"/><path d="M20 32.002V20.001a2 2 0 00-2-1.999h-2a2 2 0 100 4v10a2 2 0 000 4h4a2 2 0 000-4zm20 0V20.001a2 2 0 00-2-1.999h-2a2 2 0 000 4v10a2 2 0 000 4h4a2 2 0 000-4zm-12-12a2 2 0 10.001 4.001A2 2 0 0028 20.002zm0 8a2 2 0 10.001 4.001A2 2 0 0028 28.002z" fill-rule="evenodd" clip-rule="evenodd" fill="#48a0dc"/></svg>