<svg xmlns="http://www.w3.org/2000/svg" width="63.99" height="63.991"><path d="M62.476 55.162L49.657 42.344l-7.314 7.313 12.819 12.818a5.168 5.168 0 007.313 0 5.17 5.17 0 00.001-7.313z" fill="#48a0dc"/><circle cx="27.99" cy="27.99" r="27.99" fill="#ccc"/><circle cx="27.986" cy="27.986" r="24.013" fill="#fff"/><path d="M22 14.002h-6c-.69 0-1.299.35-1.658.883-.006.008-.01.018-.015.026a2.011 2.011 0 00-.17.313l-.001.002c-.1.239-.156.501-.156.776v5.999a2 2 0 104 0v-4h4a2 2 0 100-3.999zm19.414.586A1.994 1.994 0 0040 14.002h-6a2.001 2.001 0 000 4h4v4a2 2 0 104 0v-5.999c0-.553-.225-1.053-.586-1.415zM40 32.001a2 2 0 00-2 2.001v4.001h-4a2 2 0 100 3.999h6c.552 0 1.052-.224 1.414-.586.03-.031.054-.067.082-.1.056-.063.114-.125.161-.196.216-.319.342-.704.342-1.118v-6A1.999 1.999 0 0040 32.001zm-18 6.001h-4.001v-4a2 2 0 10-3.999 0v6c0 .263.054.512.146.741.005.012.007.025.012.037a2.002 2.002 0 001.843 1.222h6a2 2 0 10-.001-4z" fill-rule="evenodd" clip-rule="evenodd" fill="#48a0dc"/></svg>