<svg xmlns="http://www.w3.org/2000/svg" width="52" height="63.999"><path d="M8 56a2 2 0 00-2 2v4a2 2 0 004 0v-4a2 2 0 00-2-2z" fill="#999"/><path d="M50 44.001h-6a2 2 0 00-2 2V52a2 2 0 002 2h6a2 2 0 002-2v-5.999a2 2 0 00-2-2z" fill="#88c057"/><path d="M50 24.001h-6a2 2 0 00-2 2v6A2 2 0 0044 34h6a2 2 0 002-1.999v-6a2 2 0 00-2-2z" fill="#48a0dc"/><path d="M50 34h-6a2 2 0 00-2 2v6.001a2 2 0 002 2h6a2 2 0 002-2V36a2 2 0 00-2-2z" fill="#ccc"/><path d="M50 14.001h-6a2 2 0 00-2 2v6a2 2 0 002 2h6a2 2 0 002-2v-6a2 2 0 00-2-2z" fill="#fc6"/><path d="M50 4.001h-6A2 2 0 0042 6v6.001a2 2 0 002 2h6a2 2 0 002-2V6a2 2 0 00-2-1.999z" fill="#ed7161"/><path d="M43.999 0H0v60h43.999a4 4 0 004-4V4a4 4 0 00-4-4z" fill="#666"/><path d="M38 48.001H26A2 2 0 0026 52h12a2 2 0 100-3.999z" fill="#999"/></svg>