<svg xmlns="http://www.w3.org/2000/svg" width="51.98" height="56.079"><path d="M34.716 16.698l.2-.193a1.991 1.991 0 00-.106-2.783c-.829-.802-2.166-.809-2.986-.016-.019.019-.032.04-.049.059L14.071 30.894c-.054.05-.112.093-.166.145-3.297 3.188-3.293 8.364.007 11.559 3.301 3.192 8.648 3.195 11.945.008l.001.001 22.398-21.672-2.987-2.89-17.234 16.676-5.155 4.987-.001.001-.001.001-.006.006c-1.65 1.589-4.318 1.589-5.963-.003s-1.646-4.173-.003-5.77l-.005-.005 5.169-5.001 12.646-12.235c-.002-.002-.001-.003 0-.004zm13.533 10.01c-.021.021-.036.045-.056.066L33.736 40.763l-7.877 7.622-.001-.001c-4.95 4.771-12.953 4.769-17.891-.011-4.937-4.775-4.938-12.519-.01-17.308l-.017-.017 16.48-15.946 2.251-2.178 6.586-6.373c.021-.021.038-.043.059-.063 3.293-3.186 8.642-3.178 11.945.017 3.302 3.196 3.311 8.366.022 11.554l2.971 2.875.009-.008c4.951-4.792 4.956-12.554.011-17.339-4.945-4.784-12.968-4.78-17.918.011l-.009.01-.009-.009L4.953 28.158l.013.012a.106.106 0 01-.011.009c-6.601 6.387-6.607 16.739-.014 23.118 6.594 6.38 17.291 6.374 23.892-.014l.011-.011.001.001 22.294-21.57c.037-.031.078-.055.113-.089a1.998 1.998 0 00-.017-2.89c-.829-.801-2.166-.807-2.986-.016z" fill-rule="evenodd" clip-rule="evenodd" fill="#ed7261"/></svg>