<svg xmlns="http://www.w3.org/2000/svg" width="64" height="48.001"><path d="M60 4.001H4a4 4 0 00-4 4v36a4 4 0 004 4h56a4 4 0 004-4v-36a4 4 0 00-4-4z" fill="#ccc"/><path d="M58 8H6a2 2 0 00-2 2v32a2 2 0 002 2h52a2 2 0 002-2V10a2 2 0 00-2-2z" fill="#fff"/><path fill="#999" d="M20 0h24v8H20z"/><path d="M50 20H38a2 2 0 000 4h12a2 2 0 000-4zm-4 7.999h-8A2 2 0 0038 32h8a2 2 0 000-4.001z" fill-rule="evenodd" clip-rule="evenodd" fill="#ccc"/><path d="M24 30v-1.023c1.207-.912 2-2.347 2-3.978v-4C26 18.238 23.762 16 21 16s-5 2.238-5 4.999v4c0 1.631.792 3.065 2 3.978V30c0 1-6 1-6 4v2h18v-2c0-3-6-3-6-4z" fill="#48a0dc"/></svg>