<svg xmlns="http://www.w3.org/2000/svg" width="64" height="64"><path d="M4 60h56v-8H4v8zm54-38H10v6h48v-6zM4 36.001V44h56v-7.999H4zM56 4H10v10.001h46V4z" fill-rule="evenodd" clip-rule="evenodd" fill="#e6e6e6"/><path d="M6 52h58v-4H4a4 4 0 00-4 4v8a4 4 0 004 4h60v-4H6a2 2 0 01-2-2v-4a2 2 0 012-2z" fill="#666"/><path d="M6 36.001h58V32H4a4 4 0 00-4 4.001V44a4 4 0 004 4h60v-4H6a2 2 0 01-2-2v-4a2 2 0 012-1.999z" fill="#88c057"/><path d="M58 18H6v4h50a2 2 0 012 2v2a2 2 0 01-2 2H6v4h52a4 4 0 004-4v-6a4 4 0 00-4-4z" fill="#48a0dc"/><path d="M12 4h46V0H10a4 4 0 00-4 4v10.001A4 4 0 0010 18h48v-3.999H12A2 2 0 0110 12V6a2 2 0 012-2zm30 20v18l4-4 4 4V24z" fill="#ed7161"/></svg>