<svg xmlns="http://www.w3.org/2000/svg" width="64" height="64"><path d="M16 12.001H2a2 2 0 00-2 2V62a2 2 0 002 2h14a2 2 0 002-2V14.001a2 2 0 00-2-2z" fill="#ed7161"/><path d="M2 58h14v-3.999H2V58zm0-7.999h14v-24H2v24zM2 18v4h14v-4H2z" fill-rule="evenodd" clip-rule="evenodd" fill="#a14d42"/><path d="M32 0H20a2 2 0 00-2 2v60a2 2 0 002 2h12a2 2 0 002-2V2a2 2 0 00-2-2z" fill="#88c057"/><path d="M20 58h12v-3.999H20V58zm0-7.999h12v-36H20v36zm0-44v4h12v-4H20z" fill-rule="evenodd" clip-rule="evenodd" fill="#638c3f"/><path d="M63.929 58.297L50.036 7.466c-.295-1.079-1.428-1.72-2.528-1.431L35.542 9.179c-1.102.289-1.755 1.398-1.46 2.479l13.894 50.831c.295 1.079 1.427 1.72 2.528 1.431l11.965-3.144c1.101-.29 1.755-1.399 1.46-2.479z" fill="#666"/><path d="M59.797 51.001l-11.965 3.144 1.068 3.909 11.966-3.143-1.069-3.91zm-8.549-31.28l-11.965 3.143 7.48 27.371 11.965-3.144-7.48-27.37zm-2.138-7.82l-11.965 3.143 1.068 3.909 11.965-3.143-1.068-3.909z" fill-rule="evenodd" clip-rule="evenodd" fill="#a1a1a1"/></svg>