<svg xmlns="http://www.w3.org/2000/svg" width="64" height="64.001"><path fill="#fc6" d="M52 20H12L0 36h64z"/><path fill="#cca352" d="M50 24H14L4 38v22h56V38z"/><path d="M50 0H14a4 4 0 00-4 4.001v60h44v-60A4 4 0 0050 0z" fill="#ccc"/><path d="M48 4.001H16A2 2 0 0014 6v54h36V6a2 2 0 00-2-1.999z" fill="#fff"/><path d="M36 20H24a2 2 0 000 4h12a2 2 0 000-4zm4-8H24a2 2 0 000 4h16a2 2 0 000-4z" fill="#ccc"/><path d="M44 36a2 2 0 00-2 2v4.001A2 2 0 0140 44H24a2 2 0 01-2-1.999V38a2 2 0 00-2-2H0v24a4 4 0 004 4h56a4 4 0 004-4V36H44z" fill="#fc6"/></svg>