<svg xmlns="http://www.w3.org/2000/svg" width="64" height="64.022"><path fill-rule="evenodd" clip-rule="evenodd" fill="#fc6" d="M14 24.042h36l8.571 11.994H64L52 20.044H12L0 36.036h5.429z"/><path d="M42.855 9.422l-7.314-7.311a3.857 3.857 0 00-.688-.97A3.877 3.877 0 0031.146.134a3.867 3.867 0 00-2.003 1.064 3.79 3.79 0 00-.535.681l-7.521 7.517a3.892 3.892 0 005.506 5.503L28 13.492V28.04a4 4 0 008 0V13.535l1.37 1.37a3.877 3.877 0 105.485-5.483z" fill-rule="evenodd" clip-rule="evenodd" fill="#48a0dc"/><path d="M44 36.036a2 2 0 00-2 1.999v3.998a2 2 0 01-2 1.999H24a2 2 0 01-2-1.999v-3.998a2 2 0 00-2-1.999H0v23.988a4 4 0 004 3.998h56a4 4 0 004-3.998V36.036H44z" fill="#fc6"/></svg>