<svg xmlns="http://www.w3.org/2000/svg" width="64" height="64"><path fill-rule="evenodd" clip-rule="evenodd" fill="#fc6" d="M14 24h36l8.571 12H64L52 20H12L0 36h5.429z"/><path d="M42.854 17.114a3.88 3.88 0 00-5.492 0l-1.403 1.404V3.992C35.958 1.788 34.172 0 31.969 0S27.98 1.788 27.98 3.992v14.486l-1.367-1.368a3.866 3.866 0 00-5.471 0 3.873 3.873 0 000 5.475l7.294 7.298c.179.347.396.68.687.971a3.867 3.867 0 003.697 1.004 3.85 3.85 0 001.999-1.063c.208-.209.382-.438.533-.678l7.502-7.507a3.89 3.89 0 000-5.496z" fill-rule="evenodd" clip-rule="evenodd" fill="#88c057"/><path d="M44 36a2 2 0 00-2 2v4.001A2 2 0 0140 44H24a2 2 0 01-2-1.999V38a2 2 0 00-2-2H0v24a4 4 0 004 4h56a4 4 0 004-4V36H44z" fill="#fc6"/></svg>