<svg xmlns="http://www.w3.org/2000/svg" width="64" height="64"><path d="M10 56a2 2 0 00-2 2v4a2 2 0 004 0v-4a2 2 0 00-2-2zm44 0a2 2 0 00-2 2v4a2 2 0 004 0v-4a2 2 0 00-2-2z" fill-rule="evenodd" clip-rule="evenodd" fill="#666"/><path d="M60 0H4a4 4 0 00-4 4.001V56a4 4 0 004 4h56a4 4 0 004-4V4.001A4 4 0 0060 0z" fill="#999"/><path d="M58 4.001H6a2 2 0 00-2 2v20a2 2 0 002 2h52a2 2 0 002-2v-20a2 2 0 00-2-2zm0 28H6A2 2 0 004 34v20a2 2 0 002 2h52a2 2 0 002-2V34a2 2 0 00-2-1.999z" fill="#ccc"/><path d="M38 36.001H26A2 2 0 1026 40h12a2 2 0 000-3.999zM38 8H26a2 2 0 000 4h12a2 2 0 000-4z" fill="#fff"/><circle cx="54" cy="10" r="2" fill="#999"/></svg>