<svg xmlns="http://www.w3.org/2000/svg" width="56" height="64.01"><path d="M28 4c-7.732 0-14 6.268-14 14 0 7.731 6.268 34 14 34 7.731 0 14-26.269 14-34 0-7.732-6.269-14-14-14z" fill="#87bf56"/><path d="M44 16h-4a2 2 0 000 4h4a2 2 0 000-4zm-28 4a2 2 0 000-4h-4a2 2 0 000 4h4zm26 6h-4a2 2 0 000 4h4a2 2 0 000-4zM30 6V2a2 2 0 00-4 0v4a2 2 0 004 0zm9.027 3.463l2.491-2.49a1.761 1.761 0 10-2.491-2.491l-2.491 2.491a1.76 1.76 0 102.491 2.49zm-22.054 0a1.76 1.76 0 102.49-2.49l-2.49-2.491a1.761 1.761 0 10-2.491 2.491l2.491 2.49zM32 12a2 2 0 10.001 4.001A2 2 0 0032 12zm-8 8a2 2 0 10.001 4.001A2 2 0 0024 20zm6 6a2 2 0 10.001 4.001A2 2 0 0030 26zm-12 0h-4a2 2 0 000 4h4a2 2 0 000-4z" fill-rule="evenodd" clip-rule="evenodd" fill="#5a8039"/><path d="M0 34v4c0 6.711 2.943 20 10 20h36c7.057 0 10-13.289 10-20v-4H0z" fill="#e6e6e6"/><path d="M0 54v4.992c0 2.771 2.238 5.018 5 5.018h46c2.762 0 5-2.246 5-5.018V54H0z" fill="#ccc"/></svg>