<svg xmlns="http://www.w3.org/2000/svg" width="64" height="64"><path d="M60 20v38a2 2 0 01-2 2H6a2 2 0 01-2-2V20H0v40a4 4 0 004 4h56a4 4 0 004-4V20h-4zM12 52h8a2 2 0 002-2v-6a2 2 0 00-2-2h-8a2 2 0 00-2 2v6a2 2 0 002 2zm0-14h8a2 2 0 002-2v-6a2 2 0 00-2-2h-8a2 2 0 00-2 2v6a2 2 0 002 2zm16 14h8a2 2 0 002-2v-6a2 2 0 00-2-2h-8a2 2 0 00-2 2v6a2 2 0 002 2zm0-14h8a2 2 0 002-2v-6a2 2 0 00-2-2h-8a2 2 0 00-2 2v6a2 2 0 002 2zm16 14h8a2 2 0 002-2v-6a2 2 0 00-2-2h-8a2 2 0 00-2 2v6a2 2 0 002 2zm0-14h8a2 2 0 002-2v-6a2 2 0 00-2-2h-8a2 2 0 00-2 2v6a2 2 0 002 2z" fill-rule="evenodd" clip-rule="evenodd" fill="#ccc"/><path d="M60 0H4a4 4 0 00-4 4v16h64V4a4 4 0 00-4-4zM24 12.001a2 2 0 11.002-4.002A2 2 0 0124 12.001zm16 0a2 2 0 11.002-4.002A2 2 0 0140 12.001z" fill-rule="evenodd" clip-rule="evenodd" fill="#ed7261"/></svg>