<svg xmlns="http://www.w3.org/2000/svg" width="64" height="64"><path d="M60 20v38a2 2 0 01-2 2H6a2 2 0 01-2-2V20H0v40a4 4 0 004 4h56a4 4 0 004-4V20h-4zM14 44a2 2 0 000 4h4v4a2 2 0 004 0v-4h8v4a2 2 0 004 0v-4h8v4a2 2 0 004 0v-4h4a2 2 0 000-4h-4v-8h4a2 2 0 000-4.001h-4V28a2 2 0 00-4 0v3.999h-8V28a2 2 0 00-4 0v3.999h-8V28a2 2 0 00-4 0v3.999h-4A2 2 0 0014 36h4v8h-4zm20-8h8v8h-8v-8zm-12 0h8v8h-8v-8z" fill-rule="evenodd" clip-rule="evenodd" fill="#ccc"/><path d="M60 0H4a4 4 0 00-4 4v16h64V4a4 4 0 00-4-4zM24 12.001a2 2 0 11.002-4.002A2 2 0 0124 12.001zm16 0a2 2 0 11.002-4.002A2 2 0 0140 12.001z" fill-rule="evenodd" clip-rule="evenodd" fill="#ed7261"/></svg>