<svg xmlns="http://www.w3.org/2000/svg" width="68" height="68.001"><path d="M60 20v18.159a16.096 16.096 0 014 3.283V20h-4zM50 31.999h-4V28a2 2 0 00-4 0v3.999h-8V28a2 2 0 00-4 0v3.999h-8V28a2 2 0 00-4 0v3.999h-4A2 2 0 0014 36h4v8h-4a2 2 0 000 4h4v4a2 2 0 004 0v-4h8v4a2 2 0 004 0v-4h2.524a15.893 15.893 0 011.634-4H34v-8h8v3.521a15.945 15.945 0 014-2.347V36h4a2 2 0 000-4.001zM30 44h-8v-8h8v8zm8.158 16H6a2 2 0 01-2-2V20H0v40a4 4 0 004 4h37.441a16.074 16.074 0 01-3.283-4z" fill-rule="evenodd" clip-rule="evenodd" fill="#ccc"/><circle cx="52" cy="52" r="12" fill="#ed7161"/><path d="M56 50h-8a1.999 1.999 0 100 3.999h8A2 2 0 0056 50z" fill="#fff"/><path d="M60 0H4a4 4 0 00-4 4v16h64V4a4 4 0 00-4-4zM24 12.001a2 2 0 11.002-4.002A2 2 0 0124 12.001zm16 0a2 2 0 11.002-4.002A2 2 0 0140 12.001z" fill-rule="evenodd" clip-rule="evenodd" fill="#ed7261"/></svg>