<svg xmlns="http://www.w3.org/2000/svg" width="64" height="64"><path d="M60 0H4a4 4 0 00-4 4.001V60a4 4 0 004 4h56a4 4 0 004-4V4.001A4 4 0 0060 0z" fill="#ed7261"/><path d="M58 4.001H6A2 2 0 004 6v52a2 2 0 002 2h52a2 2 0 002-2V6a2 2 0 00-2-1.999z" fill-rule="evenodd" clip-rule="evenodd" fill="#e6e6e6"/><path d="M60 32H4L2 54a2 2 0 002 2h56a2 2 0 002-2l-2-22z" fill="#fff"/><path d="M18 24h2v20h4V20h-6v4zm28 4a8 8 0 00-16 0h4a4 4 0 118 0c0 3.834-12 2.813-12 12v4h16v-4H34c0-6.126 12-4.457 12-12z" fill-rule="evenodd" clip-rule="evenodd" fill="#666"/></svg>