<svg xmlns="http://www.w3.org/2000/svg" width="44" height="64"><path d="M38 54c-.064 0-.124.016-.187.019C35.287 51.162 31 49.057 26 48.308V42h-8v6.308c-5 .749-9.287 2.854-11.813 5.711C6.124 54.016 6.064 54 6 54a4 4 0 104 4c0-.608-.146-1.18-.39-1.695 2.478-2.299 5.697-3.879 10.39-4.227V56a2 2 0 00-2 2v4a2 2 0 002 2h4a2 2 0 002-2v-4a2 2 0 00-2-2v-3.922c4.692.348 7.912 1.928 10.39 4.227A3.95 3.95 0 0034 58a4 4 0 104-4zM2 22a2 2 0 00-2 2v12a2 2 0 004 0V24a2 2 0 00-2-2zm40 0a2 2 0 00-2 2v12a2 2 0 004 0V24a2 2 0 00-2-2z" fill-rule="evenodd" clip-rule="evenodd" fill="#666"/><path d="M38 32H6a4 4 0 00-4 4v1.999A4 4 0 006 42h32a4 4 0 004-4.001V36a4 4 0 00-4-4z" fill="#387ba8"/><path d="M32 0H12a4 4 0 00-4 4v28h28V4a4 4 0 00-4-4z" fill="#48a0dc"/></svg>