<svg xmlns="http://www.w3.org/2000/svg" width="56" height="64"><path d="M52 4H4a4 4 0 00-4 4v52a4 4 0 004 4h48a4 4 0 004-4V8a4 4 0 00-4-4z" fill="#88c057"/><path d="M50 8H6a2 2 0 00-2 2v48a2 2 0 002 2h44a2 2 0 002-2V10a2 2 0 00-2-2z" fill="#fff"/><path d="M14 24h28a2 2 0 000-4H14a2 2 0 000 4zm28 12H14a2 2 0 000 4h28a2 2 0 000-4zm-28-4h16a2 2 0 000-4H14a2 2 0 000 4zm16 12H14a2 2 0 000 4h16a2 2 0 000-4z" fill="#ccc"/><path d="M36 4h-4a4 4 0 00-8 0h-4a4 4 0 000 8h16a4 4 0 000-8z" fill-rule="evenodd" clip-rule="evenodd" fill="#666"/></svg>