<svg xmlns="http://www.w3.org/2000/svg" width="64" height="64"><path d="M32 0C14.326 0 0 14.327 0 32c0 17.674 14.326 32 32 32 17.673 0 32-14.326 32-32C64 14.327 49.673 0 32 0zm0 60C16.536 60 4 47.464 4 32S16.536 4 32 4s28 12.536 28 28-12.536 28-28 28z" fill-rule="evenodd" clip-rule="evenodd" fill="#ed7161"/><path d="M47.395 44.503L35.866 32.976c.079-.314.134-.638.134-.976 0-1.477-.81-2.752-2-3.445V17.999a2 2 0 00-4 0v10.556c-1.19.693-2 1.969-2 3.445a4 4 0 004 4c.338 0 .661-.055.975-.134l11.528 11.529a2.046 2.046 0 002.892-2.892z" fill-rule="evenodd" clip-rule="evenodd" fill="#999"/></svg>