<svg xmlns="http://www.w3.org/2000/svg" width="52" height="64.001"><path d="M51.732 61.007C46.446 46.2 43.396 38.058 35.233 16.546c1.038 2.712.932 5.834-.634 8.545-.909 1.575-4.231 5.832-8.6 11.211 6.531 8.044 15.426 18.621 22.274 26.701a1.998 1.998 0 002.728.73 1.994 1.994 0 00.731-2.726z" fill="#6d5778"/><path d="M30.946 11.461a10.24 10.24 0 00-.946-.48V4a4 4 0 00-8 0v6.65c-2.101.767-3.853 2.254-4.69 4.463C8.725 37.734 5.672 45.868.268 61.007a1.995 1.995 0 103.458 1.997C15.155 49.52 32.331 29.023 34.6 25.091c2.756-4.773 1.121-10.874-3.654-13.63zM26 24a4 4 0 110-8 4 4 0 010 8z" fill-rule="evenodd" clip-rule="evenodd" fill="#9b7cab"/></svg>