<svg xmlns="http://www.w3.org/2000/svg" width="60" height="64.001"><path fill="#d9d9d9" d="M38 6L0 44.001v20L48 16z"/><path d="M44 0l-.031.001h.05L44 0zm2 14.001l-32 32h12L36 36c2-1.999 6-3.999 8-3.999 5.44 0 10.239-2.721 13.129-6.87L46 14.001zM34.51 2.511C32.009 4.01 29.996 6.005 28 8.001l-20 20v18-6l32-32-5.49-5.49z" fill-rule="evenodd" clip-rule="evenodd" fill="#fc6"/><path d="M44.001.001h-.002c-3.973 0-6.977 1.005-9.488 2.511L57.13 25.13A15.91 15.91 0 0060 16.002v-.003C59.999 7.163 52.836.001 44.001.001z" fill="#666"/><path fill="#999" d="M26.001 22l10.002-10 6 6.001-10.001 10z"/></svg>