<svg xmlns="http://www.w3.org/2000/svg" width="64" height="64.001"><path d="M34 36.001H3.999V62A2 2 0 008 62V40.001h26v20a4 4 0 004 4h18a4 4 0 004-4v-24H34z" fill-rule="evenodd" clip-rule="evenodd" fill="#a67c52"/><path d="M54 40.001H40a2 2 0 00-2 2v4a2 2 0 002 2h14a2 2 0 002-2v-4a2 2 0 00-2-2zm0 12H40a2 2 0 00-2 2v4a2 2 0 002 2h14a2 2 0 002-2v-4a2 2 0 00-2-2z" fill-rule="evenodd" clip-rule="evenodd" fill="#e6ab70"/><path d="M47 44a1 1 0 100-2 1 1 0 000 2zm0 10a1 1 0 100 2 1 1 0 000-2z" fill-rule="evenodd" clip-rule="evenodd" fill="#735538"/><path d="M62 32H2a2 2 0 000 4h60a2 2 0 000-4z" fill="#e6ab70"/><path d="M45.999 0H18a2 2 0 00-2 2v20h32V2a2 2 0 00-2.001-2z" fill="#666"/><path d="M16 22.002v3.999a2 2 0 002 2.001h9.999L26 32.001h12l-1.999-3.999H46a2 2 0 002-2.001v-3.999H16z" fill-rule="evenodd" clip-rule="evenodd" fill="#ccc"/></svg>