<svg xmlns="http://www.w3.org/2000/svg" width="64" height="64"><path fill="#999" d="M52 20H12L0 36.001h64z"/><path fill="#666" d="M50 24H14L4 38v22h56V38z"/><path d="M50 0H14a4 4 0 00-4 4.001V64h44V4.001A4 4 0 0050 0z" fill="#ccc"/><path d="M48 4.001H16A2 2 0 0014 6v54h36V6a2 2 0 00-2-1.999z" fill="#fff"/><path d="M36 20H24a2 2 0 000 4h12a2 2 0 000-4zm4-8H24a2 2 0 000 4h16a2 2 0 000-4z" fill="#ccc"/><path d="M0 36.001V60a4 4 0 004 4h56a4 4 0 004-4V36.001H0zM40 44H24a2 2 0 010-4h16a2 2 0 010 4z" fill-rule="evenodd" clip-rule="evenodd" fill="#ccc"/></svg>