<svg xmlns="http://www.w3.org/2000/svg" width="68" height="48.001"><path d="M36 32.001a4 4 0 014-4h24V4a4 4 0 00-4-4H4a4 4 0 00-4 4v36a4 4 0 004 4h32V32.001z" fill-rule="evenodd" clip-rule="evenodd" fill="#ccc"/><path d="M33.417 31.534c-.383.32-.848.469-1.311.474-.036.003-.071 0-.106.001-.036-.001-.071.002-.106-.001a2.057 2.057 0 01-1.311-.474L4 8.451V38a2 2 0 002 2h30v-7.999a4 4 0 014-4h20V8.45L33.417 31.534zM58.673 4.125A1.98 1.98 0 0058 4H6a1.98 1.98 0 00-.673.125L32 27.286 58.673 4.125z" fill-rule="evenodd" clip-rule="evenodd" fill="#fff"/><path d="M64 32h-4.102c.048.33.102.658.102 1.001a7 7 0 01-7 7c-2.785 0-5.15-1.643-6.271-4H50a2 2 0 000-4h-8a2 2 0 00-2 2v8a2 2 0 004 0v-2.702c1.989 2.837 5.271 4.702 9 4.702 6.075 0 11-4.924 11-11 0-.229-.037-.447-.067-.667.019-.113.067-.216.067-.334z" fill="#88c057"/></svg>