<svg xmlns="http://www.w3.org/2000/svg" width="68.003" height="50.017"><path d="M60 0H4a4 4 0 00-4 4v36a4 4 0 004 4h36V26.001h20v5.737l4 4V4a4 4 0 00-4-4z" fill-rule="evenodd" clip-rule="evenodd" fill="#ccc"/><path d="M58.673 4.125A1.98 1.98 0 0058 4H6a1.98 1.98 0 00-.673.125L32 27.286 58.673 4.125zM33.417 31.534c-.383.32-.848.469-1.312.474-.035.003-.07 0-.105.001-.035-.001-.071.002-.106-.001a2.057 2.057 0 01-1.311-.474L4 8.451V38a2 2 0 002 2h34a4 4 0 014-3.999h4.264c-.55-1.426-.292-3.062.814-4.168l2.754-2.754c1.521-1.521 4.05-1.459 5.647.139L60 31.738V8.45L33.417 31.534z" fill-rule="evenodd" clip-rule="evenodd" fill="#fff"/><path d="M64.002 41.969c0-.564-.233-1.072-.605-1.437-.016-.017-.024-.037-.041-.054L57.51 34.59a2.055 2.055 0 00-2.922 0 2.09 2.09 0 000 2.944l2.409 2.427H46.002a2.004 2.004 0 00-2.001 2.008c0 1.108.896 2.008 2.001 2.008h11.089l-2.499 2.501a2.074 2.074 0 002.932 2.932l5.859-5.864c.325-.325.51-.732.573-1.154.029-.138.046-.278.046-.423z" fill-rule="evenodd" clip-rule="evenodd" fill="#48a0dc"/></svg>