<svg xmlns="http://www.w3.org/2000/svg" width="68" height="52"><path d="M64 4a4 4 0 00-4-4H4a4 4 0 00-4 4v36a4 4 0 004 4h37.365a13.97 13.97 0 01-1.327-5.341A6.236 6.236 0 0140 38v-8a6 6 0 016-5.999c1.148 0 2.218.328 3.13.888a13.948 13.948 0 014.87-.888 13.95 13.95 0 0110 4.211V4z" fill-rule="evenodd" clip-rule="evenodd" fill="#ccc"/><path d="M58.673 4.125A1.98 1.98 0 0058 4H6a1.98 1.98 0 00-.673.125L32 27.286 58.673 4.125zM33.417 31.534c-.383.32-.848.469-1.312.474-.035.003-.07 0-.105.001-.035-.001-.071.002-.106-.001a2.057 2.057 0 01-1.311-.474L4 8.451V38a2 2 0 002 2h34.159A14.028 14.028 0 0140 38v-8a6 6 0 016-5.999c1.148 0 2.218.328 3.13.888a13.948 13.948 0 014.87-.888c2.15 0 4.18.499 6 1.365V8.45L33.417 31.534z" fill-rule="evenodd" clip-rule="evenodd" fill="#fff"/><path d="M52 38a2 2 0 000-4.001h-2.442A5.95 5.95 0 0154 32a5.98 5.98 0 014.463 2h4.699C61.619 30.469 58.1 27.999 54 27.999a9.927 9.927 0 00-6 2.012V30a2 2 0 10-4 0v5.999A2 2 0 0046 38h6zm10.778.156a1.977 1.977 0 00-.778-.157h-6A2 2 0 0056 42h2.442c-1.096 1.22-2.672 1.999-4.442 1.999A5.979 5.979 0 0149.537 42h-4.699c1.543 3.53 5.063 6 9.162 6a9.944 9.944 0 006-2.011v.01a2 2 0 104 0v-6a2 2 0 00-1.222-1.843z" fill-rule="evenodd" clip-rule="evenodd" fill="#88c057"/></svg>