<svg xmlns="http://www.w3.org/2000/svg" width="68" height="52.001"><path d="M36 36.001a4 4 0 014-4h24V12a4 4 0 00-4-4H12a4 4 0 00-4 4v32a4 4 0 004 4h24V36.001z" fill-rule="evenodd" clip-rule="evenodd" fill="#ccc" opacity=".988"/><path d="M36 36.001a4 4 0 014-4h20v-18A2 2 0 0058 12H14a2 2 0 00-2 2.001V42a2 2 0 002 2h22v-7.999z" fill-rule="evenodd" clip-rule="evenodd" fill="#fff" opacity=".988"/><path d="M36 36.001a4 4 0 014-4h16V4a4 4 0 00-4-4H4a4 4 0 00-4 4v32a4 4 0 004 4h32v-3.999z" fill-rule="evenodd" clip-rule="evenodd" fill="#ccc"/><path d="M50.64 4.114A1.97 1.97 0 0050 4H6c-.225 0-.437.045-.64.114L28 23.313 50.64 4.114zm-21.223 23.42c-.383.32-.848.469-1.311.474-.036.003-.071 0-.106.001-.036-.001-.071.002-.106-.001a2.057 2.057 0 01-1.311-.474L4 8.384v25.617A2 2 0 006 36h30a4 4 0 014-3.999h12V8.384l-22.583 19.15z" fill-rule="evenodd" clip-rule="evenodd" fill="#fff"/><path d="M64 36h-4.102c.048.329.102.658.102 1.001a7 7 0 01-7 7c-2.785 0-5.15-1.643-6.271-4H50A2 2 0 0050 36h-8c-1.104 0-2 .896-2 2.002V46a2.001 2.001 0 004 0v-2.702c1.989 2.838 5.271 4.703 9 4.703 6.075 0 11-4.925 11-11 0-.229-.037-.447-.067-.668.019-.112.067-.214.067-.333z" fill="#88c057"/></svg>