<svg xmlns="http://www.w3.org/2000/svg" width="64.001" height="64.018"><path d="M63.951 28.017c.009-.92-.381-1.843-1.184-2.545L34.844 1.042c-1.587-1.389-4.16-1.389-5.747 0L1.173 25.472c-.818.717-1.197 1.607-1.172 2.545v32a4 4 0 004 4h56a4 4 0 004-4l-.05-32z" fill="#ccc"/><path d="M32.001 49.315l22-18.879V12.018a4 4 0 00-4-4h-36a4 4 0 00-4 4v18.418l22 18.879z" fill-rule="evenodd" clip-rule="evenodd" fill="#ccc"/><path d="M33.418 53.552c-.354.295-.779.417-1.208.442-.07.011-.138.02-.209.021a1.844 1.844 0 01-.21-.021c-.428-.025-.854-.147-1.207-.442L4.001 30.719v27.298c0 1.104.896 2.001 2 2.001h52a2 2 0 002-2.001V30.719L33.418 53.552z" fill="#fff"/><path d="M48.001 12.017h-32a2 2 0 00-2 2v19.838l18 15.461 18-15.461V14.017a2 2 0 00-2-2z" fill="#fff"/><path d="M36.001 28.017h-12a2 2 0 000 4h12a2 2 0 000-4zm4-8h-16a2 2 0 000 4h16a2 2 0 000-4z" fill="#ccc"/></svg>