<svg xmlns="http://www.w3.org/2000/svg" width="52" height="64.001"><path d="M40 56.001H12a4 4 0 00-4 4v4h36v-4a4 4 0 00-4-4z" fill="#48a0dc"/><path fill="#999" d="M16 46.001h20v10H16z"/><circle cx="26" cy="26" r="26" fill="#ccc"/><circle cx="26" cy="26" r="22" fill="#fff"/><path d="M39.129 26.336c-1.479-.924-4.609-1.949-7.446-2.249a5.991 5.991 0 00-1.604-2.478C31.258 18.944 32 15.738 32 14.001a6 6 0 00-12 0c0 1.737.742 4.943 1.922 7.608a5.982 5.982 0 00-1.604 2.478c-2.837.3-5.968 1.324-7.447 2.249-2.762 1.727-3.708 5.549-2.113 8.539s5.126 4.015 7.888 2.288c1.414-.884 3.66-3.139 5.305-5.529.641.233 1.329.367 2.051.367s1.41-.134 2.051-.367c1.645 2.39 3.89 4.645 5.305 5.529 2.762 1.727 6.293.702 7.888-2.288s.645-6.812-2.117-8.539z" fill-rule="evenodd" clip-rule="evenodd" fill="#ccc"/><circle cx="26" cy="26.001" r="2" fill="#fff"/></svg>