<svg xmlns="http://www.w3.org/2000/svg" width="40" height="63.999"><ellipse cx="20" cy="62" rx="18" ry="2" fill="#b3b3b3"/><path d="M20 10c-1.104 0-2 1.088-2 2.43v29.163c0 1.343.896 2.431 2 2.431s2-1.088 2-2.431V12.43c0-1.342-.896-2.43-2-2.43z" fill="#6c9945"/><path d="M33.52 8.136c-1.222-2.086-4.413-2.656-7.915-1.683C24.745 2.684 22.563 0 20 0s-4.745 2.684-5.604 6.453c-3.502-.974-6.694-.403-7.916 1.683-1.471 2.513.426 6.363 4.271 9.059-2.856 3.548-3.622 7.643-1.613 9.65 2.241 2.239 7.084 1.032 10.862-2.688 3.778 3.72 8.621 4.927 10.863 2.688 2.008-2.008 1.242-6.103-1.614-9.65 3.845-2.696 5.741-6.547 4.271-9.059z" fill-rule="evenodd" clip-rule="evenodd" fill="#ed7261"/><circle cx="20" cy="16" r="4" fill="#fc6"/><path d="M2 39.697v4.86c0 6.711 8.276 17.441 15.333 17.441h5.333C29.724 61.999 38 51.269 38 44.558v-4.86H2z" fill="#e6e6e6"/><path d="M35 33.976H5c-2.762 0-5 2.246-5 5.017 0 2.771 2.238 5.018 5 5.018h30c2.762 0 5-2.246 5-5.018 0-2.771-2.238-5.017-5-5.017z" fill="#ccc"/></svg>