<svg xmlns="http://www.w3.org/2000/svg" width="56" height="64"><path d="M36 0L0 35.999v24A4.001 4.001 0 004 64h48c2.209 0 4-1.792 4-4.001V0H36zM15.381 55.38a2.039 2.039 0 01-2.883 0l-3.942-3.942a2.038 2.038 0 112.883-2.882l3.942 3.941a2.04 2.04 0 010 2.883zm16 0a2.039 2.039 0 01-2.883 0L12.556 39.438a2.039 2.039 0 012.882-2.883l15.943 15.942a2.04 2.04 0 010 2.883zm15.999 0a2.038 2.038 0 01-2.882 0L20.556 31.438a2.038 2.038 0 112.883-2.882L47.38 52.497a2.039 2.039 0 010 2.883zm0-16a2.038 2.038 0 01-2.882 0L28.556 23.438a2.038 2.038 0 112.882-2.882L47.38 36.498a2.038 2.038 0 010 2.882zm0-16a2.038 2.038 0 01-2.882 0l-7.942-7.942a2.038 2.038 0 112.883-2.882l7.941 7.941a2.039 2.039 0 010 2.883z" fill-rule="evenodd" clip-rule="evenodd" fill="#9b7cab"/></svg>