<svg xmlns="http://www.w3.org/2000/svg" width="52.003" height="64"><path d="M42 60H32v-6a2 2 0 00-4 0v6H18a2 2 0 000 4h24a2 2 0 000-4z" fill-rule="evenodd" clip-rule="evenodd" fill="#999"/><path d="M41 45.053c-.784.453-1.588.834-2.401 1.181l2.013 3.486A25.878 25.878 0 0130 52C15.641 52 4 40.359 4 26 4 17.336 8.254 9.684 14.77 4.959l2.007 3.477A22.071 22.071 0 0119 6.947c.232-.134.473-.237.708-.362L15.906 0h-.77C6.107 5.166 0 14.851 0 26c0 16.568 13.432 30 30 30 5.752 0 11.092-1.667 15.652-4.478l-3.984-6.901c-.226.141-.436.298-.668.432z" fill-rule="evenodd" clip-rule="evenodd" fill="#999"/><circle cx="30" cy="26" r="22" fill="#48a0dc"/><path d="M20.705 18.461c.332-.229.649-.569.815-.932.591-1.294 1.88-1.796 2.866-2.64.113-.097.307-.107.467-.138.346-.066.83-.003 1.006-.209.179-.209.055-.678.065-1.032.021-.738.317-1.042 1.036-1.055.312-.006.624-.005.935.006.672.024.81.215.7.874a.49.49 0 00.154.4c.084.062.267-.014.406-.028l-.08-.446c-.059-.325-.174-.652-.163-.975.013-.375-.046-.657-.329-.935a2.344 2.344 0 01-.543-.857c-.11-.303-.266-.426-.561-.383-.516.074-.849-.146-1.026-.619-.137-.367-.414-.461-.777-.483-.631-.038-.895.453-.983.866-.221 1.041-1.074 1.593-1.636 2.361-.355.486-1.029.342-1.131-.242-.087-.501-.341-.725-.769-.881-.273-.1-.53-.249-.786-.393-.699-.393-.84-1.168-.242-1.686.878-.76 1.852-1.296 3.104-1.051.239.046.696-.126.774-.313.31-.746 1.011-1.048 1.552-1.52.402-.352 1.098-.26 1.474.08.458.412.355.811.041 1.259-.103.148-.156.499-.074.569.19.161.569.357.707.271.485-.3.906-.706 1.333-1.093.04-.036-.042-.226-.089-.334-.308-.7-.892-1.012-1.599-1.209-.789-.22-.948-.855-.272-1.31.134-.091.277-.169.422-.243a21.82 21.82 0 00-2.269.378c-.667.144-.881.632-.603 1.238.164.357.221.733-.14.994-.364.264-.728.087-.98-.191-.167-.185-.209-.48-.315-.724-.076-.177-.165-.348-.248-.521-.213.114-.581.194-.613.347-.171.804-.868.931-1.437 1.224-.096.05-.306.058-.346.001a.53.53 0 01-.055-.395c.031-.124.065-.248.1-.375-.536.255-1.071.529-1.596.831A21.925 21.925 0 008.868 19.901c.543.878 1.284 1.633 1.883 2.48.251.354.354.815.529 1.226.097.229.146.515.314.668a3.768 3.768 0 002.166.971c.315.034.649.128.919.289.857.508 1.688 1.06 2.521 1.589.316-.692.251-.864-.474-1.195-.482-.22-.658-.611-.561-1.129l.138-.724c-.277.229-.423.354-.575.473-.943.746-1.949.438-2.345-.691-.378-1.077.021-1.994.62-2.815.939-1.288 2.454-.881 3.74-1.131.173-.033.389.089.568.174.208.099.397.237.667.403.104-1.135.976-1.511 1.727-2.028zm-2.085-4.585c.015-.151.354-.382.544-.382.348.002.786.095.778.561-.002.157-.339.309-.523.464-.427-.156-.846-.169-.799-.643zm19.314-1.988c.341.085.8-.167.892.405.102.645.417 1.178.819 1.702.563.734.205 1.476-.708 1.642a4.256 4.256 0 01-.435.062c-.764.057-.794.102-.892.867-.067.524.225.803.595 1.083.341.259.616.057.847-.109.238-.172.436-.43.585-.688.422-.729.907-1.436 1.725-1.686.706-.216 1.492-.51 2.173.032.301-.169.663-.387.918-.299.565.197 1.036.56 1.335 1.151.189.372.584.64.829.894.348-.322.559-.674.839-.742.499-.124 1.043-.115 1.563-.079.186.013.445.238.505.422.058.175-.085.427-.17.633-.037.089-.15.146-.309.288.455.069.794.131 1.136.169.063.008.116.018.172.026-.371-.902-.8-1.792-1.301-2.66a22.071 22.071 0 00-3.045-4.09c-.245.322-.61.571-1.062.666-.551.116-1.006.003-1.484-.18-.342-.13-.571-.039-.879.194-.497.377-1.095.628-1.67.887-.132.061-.396-.004-.512-.107a15.393 15.393 0 01-1.092-1.12c-.126-.14-.204-.322-.323-.518l-1.051 1.155zm4.531-1.977c.405.061.694.161.851.558.159.406.409.309.622.062.3-.347.45-.751.417-1.202a21.815 21.815 0 00-1.536-1.206c-.234.214-.482.412-.728.622-.18.153-.41.528-.346.631.152.241.45.495.72.535zm9.481 14.506l-.054-.091c-.34-.578-.574-1.218-.847-1.835-.08-.183-.18-.376-.184-.567-.005-.199.067-.553.155-.569.154-.028.337-.003.5.056a22.221 22.221 0 00-.445-1.727c-.164.225-.408.382-.737.455a4.652 4.652 0 01-2.75-.207c-.42-.163-.801-.208-1.184.098-.419.336-.885.301-1.345.081-.214-.103-.406-.279-.629-.333-.753-.18-1.229-.583-1.368-1.384-.024-.14-.337-.343-.498-.327-1.106.109-2.206.367-3.31.386-1.146.019-1.608.798-1.99 1.593a4.11 4.11 0 01-1.038 1.371c-.841.738-1.283 1.653-1.188 2.811.035.428-.076.866-.089 1.301-.012.376-.118.844.059 1.114.575.88 1.251 1.694 1.91 2.518.103.128.32.249.473.236.812-.066 1.644-.088 2.424-.295.803-.214 1.524-.407 2.188.277.095.098.252.145.389.193 1.002.354 1.09.444 1.054 1.497-.022.659.121 1.207.464 1.804.732 1.27 1.198 2.617.497 4.122-.182.39-.188 1.01-.002 1.393.457.945.608 1.939.817 2.941.032.151.075.3.118.448 4.699-4.56 7.067-10.962 6.61-17.36zm-15.24-17.43c.627-.239 1.26-.462 1.884-.708.209-.082.435-.153.642-.244a22.108 22.108 0 00-8.724-2.032c.244.06.499.077.766.076 1.203-.001 1.571.524 1.369 1.71-.128.751-.14 1.529-.142 2.295-.001.457.281.787.735.925.418.127.627-.16.858-.435.549-.653 1.148-1.235 2.059-1.354.191-.025.365-.162.553-.233zm-4.978 25.995c-.851-.163-1.567-.584-2.348-.875-.697-.261-1.202-.672-1.377-1.435-.137-.593-.557-.882-1.122-1.085a5.944 5.944 0 01-1.522-.812c-.621-.46-1.168-.992-2.048-.833-.222.041-.542-.059-.711-.21-.557-.501-1.167-.549-1.685-.093-.486.43-1.465.637-.998 1.7.102.23-.043.609-.157.886-.139.334-.354.641-.557.945-.637.957-.523 1.956-.086 2.92.361.799.814 1.559 1.275 2.305.192.312.465.622.777.8 1.095.622 1.682 1.487 1.559 2.783a6.135 6.135 0 000 1.101c.076.889.2 1.773.26 2.663.029.432-.04.87-.072 1.306-.011.144-.083.29-.064.427.065.468.136.936.221 1.4a22.16 22.16 0 002.401.65c.208-.765.642-1.497 1.217-1.937.168-.13.31-.366.351-.576.093-.475.331-.789.76-1.003.188-.094.396-.245.483-.424.329-.685.743-1.366.879-2.095.171-.922.717-1.369 1.484-1.658.91-.344 1.265-.703 1.214-1.646-.065-1.189.281-2.187 1.035-3.089.272-.326.473-.794.132-1.157-.37-.39-.821-.866-1.301-.958z" fill="#fc6"/></svg>