<svg xmlns="http://www.w3.org/2000/svg" width="63.997" height="64"><path d="M58.999 19.979c-.992 0-1.912.298-2.69.798L31.156 6.239a1.997 1.997 0 00-2.73.732 2.002 2.002 0 00.731 2.734l24.932 14.408c-.049.283-.087.57-.087.867 0 .963.285 1.854.756 2.617L40.276 53.003a2.039 2.039 0 00.731 2.766c.956.56 2.179.229 2.731-.74l14.33-25.139c.302.057.611.094.93.094a5 5 0 004.998-5.002 4.998 4.998 0 00-4.997-5.003zm0 6.038A1 1 0 1159 24.018a1 1 0 01-.001 1.999z" fill-rule="evenodd" clip-rule="evenodd" fill="#ccc"/><path d="M38.01 51.994c-7.83 0-14.474 5.016-16.945 12.006h33.891c-2.474-6.99-9.116-12.006-16.946-12.006z" fill="#48a0dc"/><ellipse cx="18.02" cy="19.979" rx="5.997" ry="6.003" fill="#fc6"/><path d="M32.032 11.394c.872-4.91-2.24-9.745-7.297-11.06-5.146-1.337-10.42 1.461-12.103 6.29C7.236 8.027 2.577 11.526 0 16.403l37.968 9.588c.361-5.521-1.89-10.828-5.936-14.597z" fill-rule="evenodd" clip-rule="evenodd" fill="#48a0dc"/></svg>