<svg xmlns="http://www.w3.org/2000/svg" width="56" height="64"><path d="M23 4c0-2.924-1-4-1-4s.039 4.636-4.063 6C13.837 7.365 8 10.49 8 16h4.969c0-2.063 2.136-4.972 4.969-5.999C21.16 8.83 23 6.211 23 4zm2.199 2s-.072 3.337-3.999 5.455C19.519 12.361 18 14.384 18 16h4c0-1.172 1.199-2.405 2.399-3.636C25.831 10.896 26 9.983 26 8.728 26 7.066 25.199 6 25.199 6z" fill-rule="evenodd" clip-rule="evenodd" fill="#ccc"/><path d="M36 16H4a4 4 0 00-4 4v40a4 4 0 004 4h32a4 4 0 004-4V20a4 4 0 00-4-4z" fill="#48a0dc"/><path d="M44 22h-4v6a2 2 0 012-2 8 8 0 018 8v8a8 8 0 01-8 8 2 2 0 01-2-2v6h4c6.627 0 12-5.372 12-12v-8c0-6.628-5.373-12-12-12z" fill="#387ba8"/><path fill-rule="evenodd" clip-rule="evenodd" fill="#fc6" d="M28 30V16h-2v14l-4 4v10h10V34z"/></svg>