<svg xmlns="http://www.w3.org/2000/svg" width="68.001" height="68.001"><path d="M36.001 52.001c0-8.838 7.163-16 16-16 4.785 0 9.068 2.111 12 5.441V4a4 4 0 00-4-4h-56A4 4 0 000 4v56a4 4 0 004.001 4h37.441c-3.33-2.932-5.441-7.215-5.441-11.999z" fill-rule="evenodd" clip-rule="evenodd" fill="#fc6"/><circle cx="52.001" cy="52.001" r="12" fill="#ed7161"/><path d="M56.001 50h-8a2 2 0 100 3.999h8a2 2 0 000-3.999z" fill="#fff"/><path d="M29.083 13.114c-1.118-.801-3.026-1.567-5.769-.697-1.948.62-3.183 1.823-3.935 3.139a5.988 5.988 0 00-.258-.165c-.887-.53-2.377-1.044-4.441-.48-2.605.712-4.342 2.563-4.643 4.949-.372 2.948 1.486 6.022 4.733 7.832l4.419 2.463a1.808 1.808 0 001.571 1.813c.243.031.482.012.706-.049a1.841 1.841 0 001.336-1.532c.143-1.068 1.302-1.768 3.182-2.82 2.585-1.45 6.126-3.435 6.01-8.266-.062-2.613-1.151-4.926-2.911-6.187zm-4.846 11.261c-1.217.683-2.525 1.415-3.51 2.447l-4.181-2.33c-2.219-1.236-3.06-2.999-2.908-4.197.143-1.132 1.149-1.636 1.969-1.859.677-.185 1.21-.154 1.63.092.702.411 1.078 1.385 1.161 1.709a1.793 1.793 0 002.028 1.37 1.853 1.853 0 001.549-1.938c-.018-.301-.104-2.968 2.412-3.77 1.059-.338 1.924-.271 2.577.196.829.595 1.366 1.866 1.401 3.319.062 2.485-1.528 3.505-4.128 4.961z" fill="#997a3d"/></svg>