<svg xmlns="http://www.w3.org/2000/svg" width="56" height="64"><path d="M52 4H4a4 4 0 00-4 4.001V60a4 4 0 004 4h48a4 4 0 004-4V8.001A4 4 0 0052 4z" fill="#48a0dc"/><path d="M50 8.001H6A2 2 0 004 10v47.999A2 2 0 006 60h44a2 2 0 002-2.001V10a2 2 0 00-2-1.999z" fill="#fff"/><path d="M42 35.999H14a2 2 0 000 4h28a1.999 1.999 0 000-4zM14 24h28a2 2 0 000-4H14a2 2 0 000 4zm0 7.999h15.999a2 2 0 100-3.999H14a2 2 0 000 3.999zm16 12H14A2 2 0 0014 48h16a2 2 0 000-4.001z" fill="#ccc"/><path d="M12 0a2 2 0 00-2 2v8a2 2 0 004 0V2a2 2 0 00-2-2zm8 0a2 2 0 00-2 2v8a2 2 0 004 0V2a2 2 0 00-2-2zm8 0a2 2 0 00-2 2v8a2 2 0 004 0V2a2 2 0 00-2-2zm8 0a2 2 0 00-2 2v8a2 2 0 004 0V2a2 2 0 00-2-2zm8 0a2 2 0 00-2 2v8a2 2 0 104 0V2a2 2 0 00-2-2z" fill-rule="evenodd" clip-rule="evenodd" fill="#387ba8"/></svg>