<svg xmlns="http://www.w3.org/2000/svg" width="64" height="68"><path d="M32 52.001c0-8.838 7.163-16 16-16 2.918 0 5.645.793 8 2.158V8.001A4 4 0 0052 4H4a4 4 0 00-4 4.001V60c0 2.21 1.79 4 4 4h33.441C34.111 61.068 32 56.786 32 52.001z" fill-rule="evenodd" clip-rule="evenodd" fill="#48a0dc"/><path d="M50 8.001H5.999A1.999 1.999 0 004 10v47.999A2 2 0 005.999 60H50a2 2 0 002-2.001V10a2 2 0 00-2-1.999z" fill="#fff"/><path d="M14 24h27.999a2 2 0 000-4H14a2 2 0 000 4zm27.999 11.999H14a2 2 0 000 4h27.999a2 2 0 100-4zm-27.999-4h15.999a2 2 0 100-3.999H14a2 2 0 000 3.999zm16 12H14A2 2 0 0014 48h16a2 2 0 000-4.001z" fill="#ccc"/><circle cx="48" cy="52" r="12" fill="#88c057"/><path d="M52 50.001h-2V48a2 2 0 00-4 0v2.001h-2a2 2 0 000 3.998h2v2a2 2 0 104 0v-2h2a2 2 0 100-3.998z" fill="#fff"/><path d="M12 0a2 2 0 00-2 2v8a2 2 0 004 0V2a2 2 0 00-2-2zm8 0a2 2 0 00-2 2v8a2 2 0 104 0V2a2 2 0 00-2-2zm8 0a2 2 0 00-2 2v8a2 2 0 004 0V2a2 2 0 00-2-2zm8 0a2 2 0 00-2 2v8a2 2 0 004 0V2a2 2 0 00-2-2zm8 0a2 2 0 00-2 2v8a2 2 0 104 0V2a2 2 0 00-2-2z" fill-rule="evenodd" clip-rule="evenodd" fill="#387ba8"/></svg>