<svg xmlns="http://www.w3.org/2000/svg" width="64.001" height="64"><path d="M60.001 0H4a4 4 0 00-4 4v56a4 4 0 004 4h42.001l18-18V4a4 4 0 00-4-4z" fill="#fc6"/><path d="M50.001 46c-2.21 0-4 1.79-4 4v14l18-18h-14z" fill="#cca352"/><path d="M29.083 13.114c-1.118-.801-3.026-1.567-5.769-.697-1.948.62-3.183 1.823-3.935 3.139a5.464 5.464 0 00-.259-.165c-.886-.53-2.376-1.044-4.44-.48-2.605.712-4.342 2.563-4.643 4.949-.372 2.948 1.485 6.022 4.733 7.832l4.419 2.463a1.808 1.808 0 001.571 1.813c.243.031.482.012.706-.049a1.841 1.841 0 001.336-1.532c.143-1.068 1.302-1.768 3.182-2.82 2.585-1.45 6.126-3.435 6.009-8.266-.061-2.613-1.15-4.926-2.91-6.187zm-4.847 11.261c-1.217.683-2.524 1.415-3.509 2.447l-4.181-2.33c-2.219-1.236-3.06-2.999-2.908-4.197.143-1.132 1.149-1.636 1.969-1.859.677-.185 1.21-.154 1.63.092.702.411 1.078 1.385 1.161 1.709a1.793 1.793 0 002.028 1.37 1.853 1.853 0 001.549-1.938c-.018-.301-.104-2.968 2.412-3.77 1.058-.338 1.924-.271 2.577.196.829.595 1.366 1.866 1.401 3.319.062 2.485-1.528 3.505-4.129 4.961z" fill="#997a3d"/></svg>