<svg xmlns="http://www.w3.org/2000/svg" width="60" height="64"><path d="M56 0H8a4 4 0 00-4 4v56a4 4 0 004 4h48a4 4 0 004-4V4a4 4 0 00-4-4z" fill="#9b7cab"/><path d="M54 4H10a2 2 0 00-2 2v51.999A2 2 0 0010 60h44a2 2 0 002-2.001V6a2 2 0 00-2-2z" fill="#fff"/><path d="M46 33.999H22a2 2 0 000 4h24a2 2 0 100-4zM22 30h15.999a2 2 0 000-4H22a2 2 0 000 4zm0-8h24a2 2 0 000-4H22a2 2 0 000 4zm16 19.999H22A2 2 0 0022 46h16a2 2 0 000-4.001z" fill="#ccc"/><path d="M10 14.001H2.001a2 2 0 000 3.999H10a2 2 0 100-3.999zm0 8H2.001a2 2 0 100 4H10a2 2 0 100-4zm0 8H2.001a2 2 0 100 4H10a2 2 0 100-4zm0 8H2.001a2 2 0 100 4H10a2 2 0 100-4zM10 46H2.001a2.001 2.001 0 000 4.001H10A2 2 0 1010 46zM2.001 10.001H10a2 2 0 100-4H2.001a2 2 0 100 4zm7.999 44H2.001a2 2 0 100 4H10a2 2 0 100-4z" fill-rule="evenodd" clip-rule="evenodd" fill="#6d5778"/></svg>