<svg xmlns="http://www.w3.org/2000/svg" width="56.022" height="59.997"><path d="M52.021 32.014H4.002A4 4 0 000 36.015l2 18.008.011 5.975h52.001l.011-5.975 2-18.008a4.003 4.003 0 00-4.002-4.001z" fill="#666"/><path d="M54.012 55.997H2.011a2 2 0 000 4h52.001a2 2 0 000-4z" fill="#333"/><path d="M41.993 55.681l-7.68-37.944c2.249-1.832 3.702-4.604 3.702-7.731C38.016 4.479 33.536 0 28.012 0c-5.525 0-10.005 4.479-10.005 10.005 0 3.128 1.453 5.899 3.702 7.731l-7.68 37.944c-.198 1.105.552 2.16 1.675 2.354 1.124.195 2.194-.543 2.393-1.648l7.891-39.036c.165-.925-.337-1.806-1.161-2.187 0 0-2.817-1.041-2.817-5.159a6.003 6.003 0 0112.005 0c0 4.118-2.817 5.159-2.817 5.159-.824.381-1.326 1.262-1.161 2.187l7.891 39.036c.198 1.105 1.27 1.844 2.393 1.648 1.12-.193 1.87-1.248 1.672-2.353z" fill="#ccc"/></svg>