<svg xmlns="http://www.w3.org/2000/svg" width="63.971" height="64.033"><path d="M26 28.033l-14 1.999-12 32L16.373 45.66a3.965 3.965 0 01-.357-1.633 3.99 3.99 0 113.99 3.989 3.98 3.98 0 01-1.633-.356L2 64.033l32-12 2-14.001-10-9.999z" fill-rule="evenodd" clip-rule="evenodd" fill="#999"/><path fill="#333" d="M24 26.03l3.999-4 14 14-4 4z"/><path d="M63.384 17.585L46.385.587a2.004 2.004 0 00-2.833 0L26.553 19.585a2.004 2.004 0 000 2.833l14.999 14.998a2.002 2.002 0 002.833 0l18.999-16.998a2.004 2.004 0 000-2.833z" fill="#666"/></svg>