<svg xmlns="http://www.w3.org/2000/svg" width="64.02" height="63.989"><path fill="#e6e6e6" d="M27.986 12.04L7.996 32.02 0 63.989l31.984-7.992 19.991-19.981z"/><path d="M3.383 50.462L0 63.989l13.533-3.383a13.945 13.945 0 00-10.15-10.144z" fill="#666"/><path d="M32.527 55.455l-.542.542c-.001 0 .274-.195.542-.542zm17.449-29.429L37.981 14.037l-5.997-5.993L8.539 31.477c.668-.516 1.906-1.005 3.455.543 2.354 2.354 1.999 5.995 1.999 5.995s5.642 1.643 7.996 3.996c2.354 2.353 3.998 7.991 3.998 7.991s3.643-.354 5.997 1.999c1.549 1.549 1.059 2.786.542 3.454L55.973 32.02l-5.997-5.994zM7.996 32.02l.543-.543a2.9 2.9 0 00-.543.543z" fill-rule="evenodd" clip-rule="evenodd" fill="#fc6"/><path d="M58.992 5.025c-6.637-6.633-17.534-6.769-24.03 0-.979 1.021-2.978 3.019-2.978 3.019L55.973 32.02s1.999-1.997 3.02-2.976c6.772-6.493 6.634-17.386-.001-24.019z" fill="#ed7161"/><path d="M57.528 29.921L34.084 6.488a2.002 2.002 0 00-2.827 0l-.828.827a1.999 1.999 0 000 2.826l23.444 23.433c.78.781 2.047.781 2.827 0l.828-.827a1.997 1.997 0 000-2.826z" fill="#e6e6e6"/></svg>