<svg xmlns="http://www.w3.org/2000/svg" width="64" height="51.999"><path d="M60 28C60 12.535 47.464 0 32 0S4 12.535 4 28a4 4 0 00-4 4v16a4 4 0 004 3.999h56A4 4 0 0064 48V32a4 4 0 00-4-4zm-40 0c0-6.628 5.372-12 12-12 6.627 0 12 5.372 12 12H20z" fill="#fc6"/><path d="M32 40a2 2 0 00-2 1.999v10h4v-10A2 2 0 0032 40zM8 40a2 2 0 00-2 1.999v10h4v-10A2 2 0 008 40zm8 4a2 2 0 00-2 1.999v6h4v-6A2 2 0 0016 44zm8 0a2 2 0 00-2 1.999v6h4v-6A2 2 0 0024 44zm32-4a2 2 0 00-2 1.999v10h4v-10A2 2 0 0056 40zm-8 4a2 2 0 00-2 1.999v6h4v-6A2 2 0 0048 44zm-8 0a2 2 0 00-2 1.999v6h4v-6A2 2 0 0040 44z" fill="#cca352"/></svg>