<svg xmlns="http://www.w3.org/2000/svg" width="64.015" height="64.015"><path d="M62.827 18.695L45.32 1.187a4.057 4.057 0 00-5.734 0L1.188 39.586a4.053 4.053 0 000 5.734l17.507 17.507a4.052 4.052 0 005.733 0l38.399-38.398a4.055 4.055 0 000-5.734zm-16.811 3.321a4 4 0 110-8 4 4 0 010 8z" fill-rule="evenodd" clip-rule="evenodd" fill="#fc6"/><path d="M6.744 34.029l-2.715 2.716 6.701 6.701a1.92 1.92 0 002.716-2.715l-6.702-6.702zm12-12l-2.715 2.716 2.701 2.701a1.92 1.92 0 002.716-2.715l-2.702-2.702zm-6 6l-2.715 2.716 2.701 2.701a1.92 1.92 0 102.715-2.715l-2.701-2.702zm12-12l-2.715 2.716 6.701 6.702a1.92 1.92 0 002.716-2.716l-6.702-6.702zm14.702-9.298l-2.702-2.702-2.715 2.716 2.701 2.701a1.92 1.92 0 002.716-2.715zm-8.702 3.298l-2.715 2.716 2.701 2.701a1.92 1.92 0 102.715-2.715l-2.701-2.702z" fill="#cca352"/></svg>