<svg xmlns="http://www.w3.org/2000/svg" width="63.982" height="56"><path d="M56.916.939C54.428 1.999 26.12 13.566 2.995 22.963 1.118 23.727 0 25.31 0 26.969c0 1.658 1.418 2.768 2.995 3.002 1.259.188 15.081 2.002 15.081 2.002L22 52.001l11.94-10.014S44.302 52.38 44.933 52.996c1.1 1.075 2.87 3.004 3.994 3.004 1.654 0 3.188-1.982 3.994-5.005.723-2.711 5.178-22.244 10.984-48.054C64.511.256 61.473-1 56.916.939zM26 34.001L25 48l-4-18 28-18-23 22.001z" fill-rule="evenodd" clip-rule="evenodd" fill="#ccc"/><path fill="#999" d="M26 34.001l-4 18.001 12-10.001z"/></svg>