<svg xmlns="http://www.w3.org/2000/svg" width="64.015" height="64.016"><path d="M62.827 22.695L41.32 1.188a4.055 4.055 0 00-5.734 0L25.9 10.874c.031.384.115.752.115 1.144 0 7.731-6.269 13.999-14 13.999-.392 0-.76-.083-1.144-.114l-9.685 9.685a4.053 4.053 0 000 5.734l21.507 21.507a4.053 4.053 0 005.734 0l9.699-9.699c-.03-.373-.112-.73-.112-1.111 0-7.732 6.268-14 14-14 .381 0 .738.082 1.112.111l9.699-9.699a4.056 4.056 0 00.002-5.736z" fill="#ed7161"/><path d="M47.087 16.945c-3.905-3.904-10.237-3.904-14.143 0L6.879 43.012l14.142 14.143 26.066-26.066c3.905-3.906 3.905-10.237 0-14.144z" fill="#a14d42"/><path d="M47.087 16.945c-3.905-3.904-10.237-3.904-14.143 0L4.878 45.013l9.071 9.071 34.815-34.815c-.449-.828-.978-1.623-1.677-2.324z" fill="#e6e6e6"/><path d="M47.087 16.945L11.949 52.083l2 2.001 34.815-34.815c-.449-.828-.978-1.623-1.677-2.324z" fill="#fff"/><circle cx="26.016" cy="32.018" r="2" fill="#999"/></svg>