<svg xmlns="http://www.w3.org/2000/svg" width="64" height="64"><path d="M60 36H28V4.001A4.001 4.001 0 0024 0H4C1.791 0 0 1.792 0 4.001v56A4 4 0 004 64h56a4 4 0 004-3.999V40a4 4 0 00-4-4z" fill="#fc6"/><path d="M6 56.001H0v4h4V64h4v-6a2 2 0 00-2-1.999zM6 48H0v4.001h6A2 2 0 006 48zm2-13.999A2 2 0 006 32H0v4h6a2 2 0 002-1.999zM8 26a2 2 0 00-2-1.999H0V28h6a2 2 0 002-2zm0-16a2 2 0 00-2-1.999H0v4h6A2 2 0 008 10zm2 30H0v4h10a2 2 0 100-4zm2-22a2 2 0 00-2-1.999H0v4h10A2 2 0 0012 18zm34 34.001A2 2 0 0044 54v10h4V54a2 2 0 00-2-1.999zm-8 4A2 2 0 0036 58v6h4v-6a2 2 0 00-2-1.999zm16 0A2 2 0 0052 58v6h4v-6a2 2 0 00-2-1.999zm-24 0A2 2 0 0028 58v6h4v-6a2 2 0 00-2-1.999zm-8-4A2 2 0 0020 54v10h4V54a2 2 0 00-2-1.999zm-8 4A2 2 0 0012 58v6h4v-6a2 2 0 00-2-1.999z" fill="#cca352"/></svg>