<svg xmlns="http://www.w3.org/2000/svg" width="52" height="64"><path d="M26 0C11.641 0 0 3.134 0 7v34.999a2 2 0 104 0h44a2 2 0 104 0V7c0-3.866-11.641-7-26-7z" fill-rule="evenodd" clip-rule="evenodd" fill="#48a0dc"/><path d="M4 60v2a2 2 0 002 2h40a2 2 0 002-2v-2H4z" fill-rule="evenodd" clip-rule="evenodd" fill="#ccc"/><path d="M46 30H6a2 2 0 00-2 2v28h44V32a2 2 0 00-2-2z" fill="#e6e6e6"/><path d="M42 34H10a2 2 0 00-2 2v4a2 2 0 002 2h32a2 2 0 002-2v-4a2 2 0 00-2-2z" fill="#666"/><path d="M26 0C11.641 0 0 3.134 0 7v3.999C0 7.134 11.641 6 26 6s26 1.134 26 4.999V7c0-3.866-11.641-7-26-7z" fill="#387ba8"/></svg>