<svg xmlns="http://www.w3.org/2000/svg" width="64" height="56"><path d="M14 4c-2.388 0-5.686 3.287-7.332 6.134C3.9 14.917 4 17.208 4 20c2.214-3.826 8.166-4.209 12-2 0 0 12.375 7 14 8s4 2.238 4 5c0 2.174-1.396 4.004-3.333 4.693A.812.812 0 0130 36H12a8 8 0 01-8-8c-2.209 0-4 4.477-4 10 0 3.286.643 6.177 1.622 8H60l4-14L14 4z" fill="#ccc"/><path d="M2 48l8 8h8l6-6h32l2-8H6l-4 6zm32-36l-2-8-8-4-10 2v8l46 26 2-8-28-16z" fill-rule="evenodd" clip-rule="evenodd" fill="#88c057"/><circle cx="44" cy="34" r="2" fill="#999"/></svg>