<svg xmlns="http://www.w3.org/2000/svg" width="64" height="56.003"><path d="M48.826 1.998A4.003 4.003 0 0043.362.536l-32.909 18.98c-1.913 1.103-2.568 3.546-1.464 5.457S18.087 29.138 20 28.034L47.362 7.457a3.994 3.994 0 001.464-5.459z" fill="#ccc"/><path d="M52 24.039H26l-12-7.991H4c-2.209 0-4 1.789-4 3.996v31.964a3.997 3.997 0 004 3.995h56c2.209 0 4-1.788 4-3.995V36.026c0-6.621-5.373-11.987-12-11.987zm-2 17.98H28c-2.209 0-4-1.788-4-3.995s1.791-3.995 4-3.995h22c2.209 0 4 1.788 4 3.995s-1.791 3.995-4 3.995z" fill-rule="evenodd" clip-rule="evenodd" fill="#999"/><path d="M0 52.008a4.001 4.001 0 004 3.995h56c2.209 0 4-1.788 4-3.995H0z" fill="#666"/><path d="M8 28.034c1.104 0 2-.894 2-1.997a2 2 0 00-4 0c0 1.103.896 1.997 2 1.997zm0 11.987z" fill-rule="evenodd" clip-rule="evenodd" fill="#fff"/></svg>