<svg xmlns="http://www.w3.org/2000/svg" width="63.948" height="48.001"><path d="M23.965 0C14.038 0 5.991 8.06 5.991 18c0 9.941 8.047 18 17.974 18 9.926 0 17.974-8.059 17.974-18-.001-9.94-8.048-18-17.974-18zm0 28c-5.515 0-9.985-4.478-9.985-10s4.47-10 9.985-10 9.985 4.478 9.985 10-4.471 10-9.985 10z" fill-rule="evenodd" clip-rule="evenodd" fill="#fc6"/><path d="M63.284 13.93L27.272.066c-.522-.202-1.102.083-1.292.638-.19.553.079 1.165.603 1.366l36.012 13.864c.523.201 1.102-.084 1.292-.639.19-.552-.079-1.164-.603-1.365z" fill="#fc6"/><path d="M59.912 14s-3.298 12-13.979 12C35.25 26 20.028 10 9.984 10-.059 10 0 23.209 0 28s5.991 20.001 5.991 20.001h39.941C63.906 48.001 63.906 16 63.906 16l-3.994-2z" fill="#ed7261"/><path d="M33.318 21.397C31.926 25.239 28.282 28 23.965 28c-5.515 0-9.986-4.478-9.986-10 0-2.453.917-4.671 2.382-6.411C14.088 10.615 11.937 10 9.984 10c-.818 0-1.548.116-2.238.28A17.93 17.93 0 005.991 18c0 9.941 8.047 18 17.974 18 7.485 0 13.897-4.585 16.601-11.102-2.328-.833-4.763-2.067-7.248-3.501z" fill="#a14d42"/></svg>