<svg xmlns="http://www.w3.org/2000/svg" width="56" height="64.005"><path d="M42.928 24.646l4.125 1.893 1.161-8.986-2.592.313 1.121-9.837-4.238 4.077-9.134 10.508 2.924 4.347-.952.195 1.442 2.953.2 2.474 1.57 1.866.849 4.685-1.388.616-1.113 9.355 6.133-3.985-.889-3.108 2.017.178 1.43-7.7-2.84-3.599-.02-1.568-3.035-2.642 3.114-2.782.115.747zm-1.74-18.174L38.39 1.406 34.693 4.77l.876 10.262 5.619-8.56zm-7.698 4.369l-6.376 5.404-.433 2.827-.978-.124.74 1.677-.257 1.679 1.337 1.72-.354 1.323 2.669.994 1.74-6.648-.499-.063 1.935-4.375.476-4.414zm-4.763-5.327l-7.025-2.035-3.062 7.593 8.215 6.697 1.872-12.255zm3.846 42L27.34 51.17l2.811-13.13-2.262-1.398 1.586-1 .616-2.322.892.188-.539-1.52.394-1.484-1.135-1.721.458-1.237-2.567-1.229-2.013 6.048.462.098-1.913 3.5-.507 3.368.148-.094-1.325 3.288-.606-6.591-3.534 4.491-.118-1.605-2.033 1.819-1.102-2.385.716-.573 8.204-8.104-2.08-3.297.126-.039-1.929-2.912-.646-2.688-4.542-4.396-.448.134 1.257-9.187-2.585 4.452-.928-6.771-6.454 3.699 1.44 1.572H6.006l1.44 9.865 6.5 5.736 2.254.541-1.385 1.158-.215-.874-4.375-2.301.093 8.357 2.238-.046-.109 5.343h-1.979l1.067 7.43 3.998 3.13-1.131 1.564 1.132 1.551-.398.098 1.436 5.311 3.339 1.854 3.175-.818-1.588-2.013-.52-1.85-3.719-3.005-.371.091.277-1.535 3.54.745-1.971-4.264-.166-2.258 1.01 1.481 2.301-1.498-1.503 3.731 6.741 4.544.172-.804-.316 1.695-.809-.085.61 1.149-.215 1.153 1.107 1.186-.294.915 2.221.688 1.433-4.581-.413-.043 1.587-2.986.373-2.985zm-20.24-34.498l-.205-.49.614-.214-.409.704zM43.42 45.62l-3.431 2.746-7.472 7.169 3.429 4.202 5.655-4.243 1.989.754.823-6.182-1.543.154.55-4.6z" fill-rule="evenodd" clip-rule="evenodd" fill="#48a0dc"/><path d="M46.968 18.628l-.32-.026 3.36-5.474-5.005-2.217.211-6.142-7.832-.246 2.363 9.919-2.052 4.537-.026-4.059-3.409 4.02-.035-.025L38.08 0 26.607 8.165l.049 1.888-1.68-2.979-1.816-4.66-2.242 2.232 3.273 15.512-.979.139-1.38-2.421-5.178-5.988.398-.03 2.252-5.006-7.103-1.979.997 7.279 1.368-.104-.746 4.197 6.953 8.889-1.087.429.162 6.045-3.979-2.713-.054-.151 3.341.479-.91-5.102-2.878-.595-.966-5.436L9.71 9.795l-2.578.35 5.656 13.525-3.608.49 2.044 7.811.36.061-2.104 3.941 4.155 1.867.28 4.923 4.602.516.368 5.011 3.175-.388.728-2.517 2.119 8.464-.81.095-1.131-1.656-5.614-5.4-.989 4.288 6.659 7.142 3.112-.339 2.242.747 1.103-1.461 2.005 2.741 4.685-1.895-.138-7.836-2.792 2.74-.019-.012 1.012-3.29.071.637.909-1.152 2.392 1.321-1.228-.084 1.85 5.097-1.563-.067.671 3.532 2.965.271.931-2.59 1.562-.293-1.044-5.583-1.448-.099.381-.55 1.286.047.048-1.966 2.746-3.954-6.878-2.549-.13.255.266-2.237-.73.028.243-.791 1.771 2.412 2.058-4.679-5.579-9.43 1.96-.948-.044-6.986 3.886 2.553.226.781-3.44-.179.759 5.107 3.274.358-1.005.636-.213 6.563 2.482 6.693 2.226-.057-2.539-14.013 4.737-1.063-1.123-8.106zM25.59 44.98l-1.469-3.11-.412.333.241-.834-4.894-2.167-.832-2.763 1.653-3.741.084 3.155 3.105-3.065.791.617.273 2.557 3.763-6.886 1.496 3.639.609-.024-1.088 1.815-.628 3.769 1.297 2.431-1.646 7.694-2.343-3.42zm1.666-18.204l.738.295-.344.463-.394-.758zm2.093-1.091l.357-.567.664 1.094-1.021-.527zm-.165 30.487l-1.543-2.643-.535.063.688-1.272 3.171.5-1.781 3.352zm.169-32.635l-1.861-3.845-.646.091.831-1.858 3.836.73-2.16 4.882zm3.578 13.302l-.426-4.247.926-.036.98 2.181.815 1.11-2.295.992zm9.828-9.091l.266-.852.167.577-.433.275zm-29.702 19.06l-2.12.236 5.521 11.34 1.364-.961-.998-4.988-3.767-5.627z" fill-rule="evenodd" clip-rule="evenodd" fill="#999"/><path d="M34 38.005l5.555 6.011 1.854-5.373-7.256-11.547L34 38.005zm-17.852.198l-.751 5.387 8.161 8.859-3.277-13.092-4.133-1.154zm21.229 6.455l-6.324 7.186 1.465 3.691 7.472-7.169-.734-2.746-1.879-.962zM20.918 4.646l-5.077-1.732-.827 8.043 9.975 12.981-4.071-19.292zm21.587 7.458l-.847-4.077-2.278-1.435-7.759 10.635 1.75 5.386 9.134-10.509zm-12.53 17.473l-8.203 8.104.928 3.079 1.961 1.175 6.791-7.472-1.477-4.886zM24.6 27.338l.797-2.573-6.28-4.742-4.749 3.085 6.514 6.104 3.718-1.874z" fill-rule="evenodd" clip-rule="evenodd" fill="#fff"/><path d="M52 12.005H2l8 48h36l8-48h-2zM18 40.006a2 2 0 11.002-4.002A2 2 0 0118 40.006zm2 5.999a2 2 0 11-4.001-.001 2 2 0 014.001.001zm22-13.999a2 2 0 11.002-4.002A2 2 0 0142 32.006zm2 5.999a2 2 0 11-3.998 0 2 2 0 013.998 0zm-6-9.999a2 2 0 11.002-4.002A2 2 0 0138 28.006zm0 4a2 2 0 110 4 2 2 0 010-4zm-4 0a2 2 0 11.002-4.002A2 2 0 0134 32.006zm-4-4a2 2 0 11.002-4.002A2 2 0 0130 28.006zm0 4a2 2 0 110 4 2 2 0 010-4zm-4 0a2 2 0 11.002-4.002A2 2 0 0126 32.006zm-4-4a2 2 0 11.002-4.002A2 2 0 0122 28.006zm0 4a2 2 0 110 4 2 2 0 010-4zm-4 0a2 2 0 11.002-4.002A2 2 0 0118 32.006zm-4-4a2 2 0 11.002-4.002A2 2 0 0114 28.006zm0 4a2 2 0 110 4 2 2 0 010-4zm8 8a2 2 0 110 4 2 2 0 010-4zm4 3.999a2 2 0 11-.001 4.001A2 2 0 0126 44.005zm0-3.999a2 2 0 11.002-4.002A2 2 0 0126 40.006zm4 0a2 2 0 110 4 2 2 0 010-4zm4 3.999a2 2 0 11-.001 4.001A2 2 0 0134 44.005zm0-3.999a2 2 0 11.002-4.002A2 2 0 0134 40.006zm4 0a2 2 0 110 4 2 2 0 010-4zm4 3.999a2 2 0 11-.001 4.001A2 2 0 0142 44.005zm2-2c0-.861.548-1.589 1.312-1.87l-.569 3.414A1.988 1.988 0 0144 42.005zm0-7.999a2 2 0 012-2c.228 0 .443.046.647.116L46 36.005a2 2 0 01-2-1.999zm3.435-6.611a1.99 1.99 0 01-1.435.611 2 2 0 010-4.001c.802 0 1.488.475 1.807 1.156l-.372 2.234zm.757-4.546a1.982 1.982 0 01-.192-.843c0-.541.216-1.029.565-1.39l-.373 2.233zM46 16.005a2 2 0 11-.002 4.002A2 2 0 0146 16.005zm-4 4a2 2 0 11-.002 4.002A2 2 0 0142 20.005zm-4-4a2 2 0 11-.002 4.002A2 2 0 0138 16.005zm-4 4a2 2 0 11-.002 4.002A2 2 0 0134 20.005zm-4-4a2 2 0 11-.002 4.002A2 2 0 0130 16.005zm-4 4a2 2 0 11-.002 4.002A2 2 0 0126 20.005zm-4-4a2 2 0 11-.002 4.002A2 2 0 0122 16.005zm-4 4a2 2 0 11-.002 4.002A2 2 0 0118 20.005zm-4-4a2 2 0 11-.002 4.002A2 2 0 0114 16.005zm-7.312.129A1.996 1.996 0 018 18.006c0 .625-.293 1.177-.743 1.543l-.569-3.415zM8 22.006a2 2 0 114.002 0 2 2 0 01-4.002 0zm1.312 9.871l-.569-3.415c.345-.28.778-.456 1.257-.456a2 2 0 010 4c-.243 0-.473-.05-.688-.129zm1.335 8.013L10 36.005a2 2 0 012 2c0 .877-.568 1.614-1.353 1.885zm1.16 6.959l-.372-2.232a1.972 1.972 0 01.372 2.232zM14 40.006a2 2 0 110 4 2 2 0 010-4zm0 11.999a1.988 1.988 0 01-1.435-.611l-.372-2.232A1.994 1.994 0 0114 48.006a2 2 0 010 3.999zm4 4a2 2 0 110-4 2 2 0 010 4zm4-4a2 2 0 11.001-4.001A2 2 0 0122 52.005zm4 4a2 2 0 110-4 2 2 0 010 4zm4-4a2 2 0 11.001-4.001A2 2 0 0130 52.005zm4 4a2 2 0 110-4 2 2 0 010 4zm4-4a2 2 0 11.001-4.001A2 2 0 0138 52.005zm4 4a2 2 0 010-4c.479 0 .913.176 1.257.456l-.569 3.415a1.988 1.988 0 01-.688.129z" fill-rule="evenodd" clip-rule="evenodd" fill="#ccc"/><path d="M52 8.005H4a4 4 0 000 7.999h48a4 4 0 100-7.999zm-8 48H12a4 4 0 100 8h32a4 4 0 000-8z" fill-rule="evenodd" clip-rule="evenodd" fill="#999"/></svg>