<svg xmlns="http://www.w3.org/2000/svg" width="56" height="56"><path d="M52 4H2l8 48h36l8-48h-2zM18 32.001a2 2 0 11.002-4.002A2 2 0 0118 32.001zM20 38a2 2 0 11-4.001-.001A2 2 0 0120 38zm22-13.999a2 2 0 11.002-4.002A2 2 0 0142 24.001zM44 30c0 1.104-.896 2.001-2 2.001s-2-.897-2-2.001.896-2 2-2 2 .896 2 2zm-6-9.999a2 2 0 11.002-4.002A2 2 0 0138 20.001zm0 4a2 2 0 110 4 2 2 0 010-4zm-4 0a2 2 0 11.002-4.002A2 2 0 0134 24.001zm-4-4a2 2 0 11.002-4.002A2 2 0 0130 20.001zm0 4a2 2 0 110 4 2 2 0 010-4zm-4 0a2 2 0 11.002-4.002A2 2 0 0126 24.001zm-4-4a2 2 0 11.002-4.002A2 2 0 0122 20.001zm0 4a2 2 0 110 4 2 2 0 010-4zm-4 0a2 2 0 11.002-4.002A2 2 0 0118 24.001zm-4-4a2 2 0 11.002-4.002A2 2 0 0114 20.001zm0 4a2 2 0 110 4 2 2 0 010-4zm8 8a2 2 0 110 4 2 2 0 010-4zM26 36a2 2 0 11-.001 4.001A2 2 0 0126 36zm0-3.999a2 2 0 11.002-4.002A2 2 0 0126 32.001zm4 0a2 2 0 110 4 2 2 0 010-4zM34 36a2 2 0 11-.001 4.001A2 2 0 0134 36zm0-3.999a2 2 0 11.002-4.002A2 2 0 0134 32.001zm4 0a2 2 0 110 4 2 2 0 010-4zM42 36a2 2 0 11-.001 4.001A2 2 0 0142 36zm2-2c0-.861.548-1.589 1.312-1.87l-.569 3.414A1.988 1.988 0 0144 34zm0-7.999a2 2 0 012-2c.228 0 .443.046.647.116L46 28a2 2 0 01-2-1.999zm3.435-6.611a1.99 1.99 0 01-1.435.611A2 2 0 0146 16c.802 0 1.488.475 1.807 1.156l-.372 2.234zm.757-4.546a1.982 1.982 0 01-.192-.843c0-.541.216-1.029.565-1.39l-.373 2.233zM46 8a2 2 0 11-.001 4.001A2 2 0 0146 8zm-4 4a2 2 0 11-.002 4.002A2 2 0 0142 12zm-4-4a2 2 0 11-.001 4.001A2 2 0 0138 8zm-4 4a2 2 0 11-.002 4.002A2 2 0 0134 12zm-4-4a2 2 0 11-.001 4.001A2 2 0 0130 8zm-4 4a2 2 0 11-.002 4.002A2 2 0 0126 12zm-4-4a2 2 0 11-.001 4.001A2 2 0 0122 8zm-4 4a2 2 0 11-.002 4.002A2 2 0 0118 12zm-4-4a2 2 0 11-.001 4.001A2 2 0 0114 8zm-7.312.129A1.995 1.995 0 018 10c0 .626-.293 1.178-.743 1.544l-.569-3.415zM8 14.001a2 2 0 114.002 0A2 2 0 018 14zm1.312 9.871l-.569-3.415c.345-.28.778-.456 1.257-.456a2 2 0 010 4c-.243 0-.473-.05-.688-.129zm1.335 8.013L10 28a2 2 0 012 2c0 .877-.568 1.614-1.353 1.885zm1.16 6.959l-.372-2.232a1.972 1.972 0 01.372 2.232zM14 32.001a2 2 0 110 4 2 2 0 010-4zm0 12a1.99 1.99 0 01-1.435-.611l-.372-2.233a1.995 1.995 0 013.807.844c0 1.103-.896 2-2 2zM18 48a2 2 0 110-4 2 2 0 010 4zm4-3.999A2 2 0 1122.001 40 2 2 0 0122 44zM26 48a2 2 0 110-4 2 2 0 010 4zm4-3.999A2 2 0 1130.001 40 2 2 0 0130 44zM34 48a2 2 0 110-4 2 2 0 010 4zm4-3.999A2 2 0 1138.001 40 2 2 0 0138 44zM42 48a2 2 0 110-3.999c.479 0 .913.175 1.257.456l-.569 3.414A1.988 1.988 0 0142 48z" fill-rule="evenodd" clip-rule="evenodd" fill="#ccc"/><path d="M52 0H4a4 4 0 100 7.999h48A4 4 0 1052 0zm-8 48H12a4 4 0 100 8h32a4 4 0 000-8z" fill-rule="evenodd" clip-rule="evenodd" fill="#999"/></svg>