<svg xmlns="http://www.w3.org/2000/svg" width="64" height="52"><path d="M0 48a4 4 0 004 4h4v-8H0v4zM0 4v4h8V0H4a4 4 0 00-4 4zm60-4h-4v8h8V4a4 4 0 00-4-4zm-4 52h4a4 4 0 004-4v-4h-8v8z" fill="#999"/><path d="M0 8v36h8V8H0zm56 0v36h8V8h-8zm0-8H8v8h48V0zM8 52h48v-8H8v8z" fill-rule="evenodd" clip-rule="evenodd" fill="#ccc"/><path fill="#fff" d="M8 8h48v36H8z"/><path d="M27.355 35.445l-8.866-8.866a2.09 2.09 0 00-2.955 0l-2.955 2.955a2.09 2.09 0 000 2.956l8.866 8.865a2.09 2.09 0 002.955 0l2.955-2.955a2.088 2.088 0 000-2.955z" fill="#48a0dc"/></svg>