<svg xmlns="http://www.w3.org/2000/svg" width="64.006" height="63.984"><path d="M60.307.003C60.303.003 60.3 0 60.296 0H3.71c-.003 0-.006.003-.01.003C1.656.009 0 1.613 0 3.594v56.681a3.71 3.71 0 003.71 3.71h56.585a3.71 3.71 0 003.71-3.71V3.593c.001-1.98-1.654-3.584-3.698-3.59z" fill="#ccc"/><path d="M58.006 11.993h-54v46a2 2 0 002 2.001h52a2 2 0 002-2.001v-46h-2z" fill="#fff"/><path d="M24.006 19.994h-12a2 2 0 00-2 1.999v30.001a2 2 0 002 1.999h12a2 2 0 002-1.999V21.993a2 2 0 00-2-1.999zm12 7.999h14a2 2 0 000-4h-14a2 2 0 000 4zm14 4h-14a2 2 0 000 4h14a2 2 0 000-4zm0 8h-14a2 2 0 000 4h14a2 2 0 000-4z" fill-rule="evenodd" clip-rule="evenodd" fill="#48a0dc"/><path d="M46.005 3.993l-.02.002H6.006a2 2 0 000 4h40a2 2 0 00-.001-4.002zm6.001 0a2 2 0 10.001 4.001 2 2 0 00-.001-4.001zm6 0a2.001 2.001 0 10.002 4.002 2.001 2.001 0 00-.002-4.002z" fill-rule="evenodd" clip-rule="evenodd" fill="#fff"/></svg>