<svg xmlns="http://www.w3.org/2000/svg" width="64.006" height="63.983"><path d="M60.307.001L60.296 0H3.71l-.011.001C1.655.008 0 1.612 0 3.594v56.68a3.71 3.71 0 003.71 3.71h56.585a3.71 3.71 0 003.71-3.71V3.594c.001-1.982-1.654-3.586-3.698-3.593z" fill="#ccc"/><path d="M58.006 11.993h-54v45.999a2 2 0 002 2.001h52a2 2 0 002-2.001V11.993h-2z" fill="#fff"/><path d="M27.588 31.408l2.417-2.409v10.994a2 2 0 104 0V28.904l2.491 2.499c.807.81 2.114.81 2.92 0a2.077 2.077 0 000-2.931l-5.841-5.86a2.034 2.034 0 00-1.153-.573 1.992 1.992 0 00-1.847.559c-.017.016-.038.024-.054.041l-5.866 5.846a2.062 2.062 0 000 2.923 2.08 2.08 0 002.933 0zm14.418 14.586h-20a2 2 0 100 3.999h20a2 2 0 000-3.999z" fill-rule="evenodd" clip-rule="evenodd" fill="#48a0dc"/><path d="M46.005 3.994l-.01.001H6.006a2 2 0 000 4h40a2 2 0 00-.001-4.001zm6.001 0a2 2 0 100 4 2 2 0 000-4zm6 0a2 2 0 10.002 4.002 2 2 0 00-.002-4.002z" fill-rule="evenodd" clip-rule="evenodd" fill="#fff"/></svg>