<svg xmlns="http://www.w3.org/2000/svg" width="68.042" height="64.046"><path d="M62.322.002L62.312 0H5.726l-.011.002C3.671.008 2.016 1.615 2.016 3.598v56.736a3.712 3.712 0 003.71 3.713h56.586a3.712 3.712 0 003.71-3.713V3.598c-.001-1.983-1.656-3.59-3.7-3.596z" fill="#ccc"/><path d="M60.021 12.006h-54V58.05c0 1.106.896 2.003 2 2.003h52c1.104 0 2-.896 2-2.003V12.006h-2z" fill="#fff"/><path d="M22.021 32.02a2 2 0 00-2 2v16a2 2 0 004 0v-16c0-1.106-.895-2-2-2zm24 0a2 2 0 00-2 2v16a2 2 0 004 0v-16c0-1.106-.895-2-2-2z" fill="#ccc"/><path fill="#ccc" d="M20.021 42.02h28v4h-28z"/><path d="M50.021 24.02h-32a2 2 0 00-2 2v6a2 2 0 002 2h32a2 2 0 002-2v-6c0-1.106-.895-2-2-2z" fill="#4d4d4d"/><path d="M16.021 29.676v2.344a2 2 0 002 2h4.342l10-10H21.678l-5.657 5.656zm34-5.656h-6.344l-10 10h10.687l7.657-7.657v-.343c0-1.106-.895-2-2-2z" fill-rule="evenodd" clip-rule="evenodd" fill="#fc6"/><path d="M48.021 3.998c-.073 0-.142.014-.213.021H8.021a2 2 0 000 4h40a2 2 0 002-2l-.001-.009.001-.009a2.001 2.001 0 00-2-2.003zm6 0a2.002 2.002 0 000 4.005 2 2 0 002-2.001 2.002 2.002 0 00-2-2.004zm6 0a2.002 2.002 0 000 4.005 2 2 0 002-2.001 2.002 2.002 0 00-2-2.004z" fill-rule="evenodd" clip-rule="evenodd" fill="#fff"/></svg>