<svg xmlns="http://www.w3.org/2000/svg" width="64.006" height="63.996"><path d="M52.307.002L52.296 0H3.71l-.011.002C1.655.009 0 1.612 0 3.595v48.68a3.71 3.71 0 003.71 3.709h48.586a3.71 3.71 0 003.71-3.709V3.595c0-1.983-1.655-3.586-3.699-3.593z" fill="#ccc"/><path d="M50.006 11.993h-46v38c0 1.104.896 2.001 2 2.001h44a2 2 0 002-2.001v-38h-2z" fill="#fff"/><path d="M38.006 3.993c-.01 0-.019.003-.029.003H6.006a2 2 0 000 4h32a2 2 0 002-2v-.002a2.002 2.002 0 00-2-2.001zm6 0a2 2 0 10.002 4.002 2 2 0 00-.002-4.002zm6 0a2 2 0 10.002 4.002 2 2 0 00-.002-4.002z" fill-rule="evenodd" clip-rule="evenodd" fill="#fff"/><path d="M60.005 7.995H28.006a4.002 4.002 0 00-4.001 4.001v48c0 2.208 1.792 4 4.001 4h31.999a4.001 4.001 0 004.001-4v-48a4.001 4.001 0 00-4.001-4.001z" fill="#9b7cab"/><path d="M28.006 15.996v40h31.999v-40H28.006zm16 42a2 2 0 100 4 2 2 0 000-4z" fill-rule="evenodd" clip-rule="evenodd" fill="#fff"/></svg>