<svg xmlns="http://www.w3.org/2000/svg" width="64.006" height="63.984"><path d="M60.307.003C60.303.003 60.3 0 60.296 0H3.71c-.003 0-.007.003-.011.003C1.655.008 0 1.613 0 3.595v56.68a3.71 3.71 0 003.71 3.71h56.585a3.71 3.71 0 003.71-3.71V3.594c.001-1.981-1.654-3.586-3.698-3.591z" fill="#ccc"/><path d="M58.006 11.994h-54v45.999a2 2 0 002 2.001h52a2 2 0 002-2.001V11.994h-2z" fill="#fff"/><path d="M42.206 24.613l-14.4-2.594c-.994-.179-1.8.499-1.8 1.514v14.543a6.287 6.287 0 00-1-.081c-2.762 0-5 1.79-5 3.999 0 2.21 2.238 4.001 5 4.001 2.565 0 4.655-1.552 4.942-3.543.035-.147.058-.3.058-.458V29.771l10 1.802v10.501a6.287 6.287 0 00-1-.081c-2.762 0-5 1.791-5 4.001 0 2.208 2.238 3.999 5 3.999 2.565 0 4.655-1.551 4.942-3.541.035-.147.058-.3.058-.458V26.776c0-1.015-.806-1.984-1.8-2.163z" fill-rule="evenodd" clip-rule="evenodd" fill="#9b7cab"/><path d="M46.005 3.995l-.01.001H6.006a2 2 0 000 4h40a2 2 0 00-.001-4.001zm6.001 0a2 2 0 100 4 2 2 0 000-4zm6 0a2 2 0 10.002 4.002 2 2 0 00-.002-4.002z" fill-rule="evenodd" clip-rule="evenodd" fill="#fff"/></svg>