<svg xmlns="http://www.w3.org/2000/svg" width="64.006" height="64.046"><path d="M60.307.002L60.296 0H3.71l-.011.002C1.655.008 0 1.615 0 3.598v56.736a3.712 3.712 0 003.71 3.713h56.585a3.712 3.712 0 003.71-3.713V3.598c.001-1.983-1.654-3.59-3.698-3.596z" fill="#ccc"/><path d="M58.006 12.006h-54V58.05c0 1.106.895 2.003 2 2.003h52c1.104 0 2-.896 2-2.003V12.006h-2z" fill="#fff"/><path d="M38.005 12.006h-34V58.05c0 1.106.895 2.003 2 2.003h32c.113 0 .221-.016.329-.033h1.672V12.006h-2.001z" fill-rule="evenodd" clip-rule="evenodd" fill="#48a0dc"/><path d="M40.004 34.044h-11.09l2.5-2.501a2.074 2.074 0 00-2.931-2.933l-5.86 5.864c-.326.326-.51.733-.573 1.156a2.007 2.007 0 00.561 1.858c.015.017.024.036.04.053l5.846 5.889a2.053 2.053 0 002.922 0 2.091 2.091 0 000-2.943L29.01 38.06h10.995c1.105 0 2-.899 2-2.008a2.005 2.005 0 00-2.001-2.008zm6.001-30.045c-.07 0-.135.014-.203.021H6.006a2 2 0 000 4h40a2 2 0 002-2l-.001-.009.001-.009a2.002 2.002 0 00-2.001-2.003zm6.001 0a2 2 0 00-2 2.003 2 2 0 102-2.003zm6 0a2.001 2.001 0 000 4.004 2.001 2.001 0 100-4.004z" fill-rule="evenodd" clip-rule="evenodd" fill="#fff"/></svg>