<svg xmlns="http://www.w3.org/2000/svg" width="64.006" height="64.046"><path d="M60.307.002L60.296 0H3.71l-.011.002C1.655.008 0 1.615 0 3.598v56.736a3.712 3.712 0 003.71 3.713h56.586a3.712 3.712 0 003.71-3.713V3.598c0-1.983-1.655-3.59-3.699-3.596z" fill="#ccc"/><path d="M58.006 12.006h-54V58.05c0 1.106.895 2.003 2 2.003h52c1.104 0 2-.896 2-2.003V12.006h-2z" fill="#fff"/><path d="M49.426 33.768l-6.015-5.255c-.782-.685-2.052-.685-2.835 0-.783.684-.783 1.793 0 2.477l4.597 4.017-4.597 4.016c-.783.684-.783 1.793 0 2.477.392.342.904.514 1.418.514.513 0 1.026-.172 1.417-.514l6.015-5.254c.782-.685.782-1.795 0-2.478zm-28.015-5.255c-.784-.685-2.053-.685-2.835 0l-6.014 5.255c-.783.684-.783 1.793 0 2.477l6.014 5.254c.391.342.904.514 1.417.514s1.026-.172 1.418-.514c.782-.684.782-1.793 0-2.477l-4.597-4.016 4.597-4.017c.782-.683.782-1.793 0-2.476zm13.263-4.373c-1.05-.352-2.21.146-2.592 1.112l-5.914 20.26c-.382.967.159 2.035 1.208 2.387 1.05.352 2.209-.146 2.591-1.113l5.915-20.259c.382-.967-.159-2.036-1.208-2.387z" fill-rule="evenodd" clip-rule="evenodd" fill="#88c057"/><path d="M46.006 3.999c-.069 0-.136.014-.203.021H6.006a2 2 0 000 4h40a2 2 0 002-2l-.001-.009.001-.009a2.001 2.001 0 00-2-2.003zm6 0a2.001 2.001 0 000 4.004 2.001 2.001 0 100-4.004zm6 0a2.001 2.001 0 000 4.004 2.001 2.001 0 100-4.004z" fill-rule="evenodd" clip-rule="evenodd" fill="#fff"/></svg>