<svg xmlns="http://www.w3.org/2000/svg" width="64.007" height="63.983"><path d="M60.307.003C60.303.003 60.3 0 60.296 0H3.71c-.004 0-.007.003-.011.003C1.655.008 0 1.613 0 3.594v56.681a3.71 3.71 0 003.71 3.709h56.586a3.71 3.71 0 003.711-3.709V3.593c0-1.98-1.656-3.585-3.7-3.59z" fill="#ccc"/><path d="M58.006 11.993h-54v46a2 2 0 002 2h52a2 2 0 002-2v-46h-2z" fill="#fff"/><path d="M40.006 41.994h-16a2 2 0 000 3.999h16a2 2 0 000-3.999z" fill="#536a79"/><ellipse cx="19.006" cy="29.994" rx="3" ry="4" fill="#536a79"/><ellipse cx="45.006" cy="29.994" rx="3" ry="4" fill="#536a79"/><path d="M46.006 3.993l-.02.002H6.006a2 2 0 000 4h40a2 2 0 002-2v-.001a2 2 0 00-2-2.001zm6 0a2 2 0 10.002 4.002 2 2 0 00-.002-4.002zm6 0a2 2 0 10.002 4.002 2 2 0 00-.002-4.002z" fill-rule="evenodd" clip-rule="evenodd" fill="#fff"/></svg>