<svg xmlns="http://www.w3.org/2000/svg" width="64.006" height="64.046"><path d="M60.307.002L60.296 0H3.71l-.011.002C1.655.008 0 1.615 0 3.598v56.736a3.712 3.712 0 003.71 3.713h56.586a3.712 3.712 0 003.71-3.713V3.598c0-1.983-1.655-3.59-3.699-3.596z" fill="#ccc"/><path d="M58.006 12.006h-54V58.05c0 1.106.896 2.003 2 2.003h52c1.104 0 2-.896 2-2.003V12.006h-2z" fill="#fff"/><path fill="#48a0dc" d="M4.006 12.02h56v36h-56z"/><path d="M39.436 36.496l-5.856-5.859a2.043 2.043 0 00-1.154-.573 1.999 1.999 0 00-1.853.558c-.018.017-.039.025-.055.042l-5.881 5.846a2.056 2.056 0 000 2.923 2.088 2.088 0 002.94 0L30 37.025v10.994c0 1.105.898 2 2.006 2s2.005-.895 2.005-2v-11.09l2.498 2.499c.809.81 2.119.81 2.928 0a2.077 2.077 0 00-.001-2.932zm6.57-32.497c-.07 0-.136.014-.203.021H6.006a2 2 0 000 4h40a2 2 0 002-2l-.001-.009.001-.009a2.001 2.001 0 00-2-2.003zm6 0a2.001 2.001 0 000 4.004 2.001 2.001 0 100-4.004zm6 0a2.001 2.001 0 000 4.004 2.001 2.001 0 100-4.004z" fill-rule="evenodd" clip-rule="evenodd" fill="#fff"/></svg>