<svg xmlns="http://www.w3.org/2000/svg" width="64.006" height="64.046"><path d="M60.307.002L60.296 0H3.71l-.011.002C1.655.008 0 1.615 0 3.598v56.736a3.712 3.712 0 003.71 3.713h56.586a3.712 3.712 0 003.71-3.713V3.598c0-1.983-1.655-3.59-3.699-3.596z" fill="#ccc"/><path d="M58.006 12.006h-54V58.05c0 1.106.896 2.003 2 2.003h52c1.104 0 2-.896 2-2.003V12.006h-2z" fill="#fff"/><path d="M54.006 36.006h-46V54.05c0 1.106.896 2.003 2 2.003h44c1.104 0 2-.896 2-2.003V36.006h-2z" fill="#e6e6e6"/><path d="M18.006 28.019h2v20h4v-24h-6v4zm28 4a8 8 0 00-16 0h4a4 4 0 118 0c0 3.834-12 2.813-12 12v4h16v-4h-12c0-6.126 12-4.457 12-12z" fill-rule="evenodd" clip-rule="evenodd" fill="#666"/><path d="M46.006 3.998c-.073 0-.142.014-.213.021H6.006a2 2 0 000 4h40a2 2 0 002-2l-.001-.009.001-.009a2.002 2.002 0 00-2-2.003zm6 0a2.002 2.002 0 000 4.005 2.002 2.002 0 100-4.005zm6 0a2.002 2.002 0 000 4.005 2.002 2.002 0 100-4.005z" fill-rule="evenodd" clip-rule="evenodd" fill="#fff"/></svg>