<svg xmlns="http://www.w3.org/2000/svg" width="64.006" height="64.046"><path d="M60.307.002L60.296 0H3.71l-.011.002C1.655.008 0 1.615 0 3.598v56.736a3.712 3.712 0 003.71 3.713h56.586a3.712 3.712 0 003.71-3.713V3.598c0-1.983-1.655-3.59-3.699-3.596z" fill="#ccc"/><path d="M58.006 12.006h-54V58.05c0 1.106.896 2.003 2 2.003h52c1.104 0 2-.896 2-2.003V12.006h-2z" fill="#fff"/><path d="M22.658 32.032l-.687-7.976H14.63l.644 8.038h-.011l.605 5.981h23.285l-.799 9.521-6.357 2.006v-.063l-8.453-2.234-.518-5.242h-7.061l.952 9.63v.397l15.079 3.986 12.643-3.986h.158l.004-.052.025-.007v-.294l1.146-13.663h.027l-.019-6.044H22.658zm-8.723-13.951l.696 5.975h33.4l.634-5.975h-34.73z" fill="#ed7161"/><path d="M46.006 3.998c-.073 0-.142.014-.213.021H6.006a2 2 0 000 4h40a2 2 0 002-2l-.001-.009.001-.009a2.002 2.002 0 00-2-2.003zm6 0a2.002 2.002 0 000 4.005 2.002 2.002 0 100-4.005zm6 0a2.002 2.002 0 000 4.005 2.002 2.002 0 100-4.005z" fill-rule="evenodd" clip-rule="evenodd" fill="#fff"/></svg>