<svg xmlns="http://www.w3.org/2000/svg" width="64.007" height="64.046"><path d="M60.308.002L60.296 0H3.711L3.7.002c-.061 0-.115.015-.175.018h6.476v8h-10V3.588L0 3.598v56.736a3.713 3.713 0 003.711 3.713h56.585a3.712 3.712 0 003.711-3.713V3.598c0-1.983-1.655-3.59-3.699-3.596z" fill-rule="evenodd" clip-rule="evenodd" fill="#48a0dc"/><path d="M58.001 12.006h-54V58.05c0 1.106.896 2.003 2 2.003h52c1.104 0 2-.896 2-2.003V12.006h-2z" fill="#fff"/><path d="M56.001.02h-12a4 4 0 00-4 4v4a4 4 0 004 4h12a4 4 0 004-4v-4a4 4 0 00-4-4z" fill="#48a0dc"/><path d="M58.001 4.02h-12a2 2 0 00-2 2v6h16v-6a2 2 0 00-2-2z" fill-rule="evenodd" clip-rule="evenodd" fill="#fff"/><path d="M40.001.02h-36a4 4 0 00-4 4v4h40v-4a4 4 0 014-4h-4z" fill-rule="evenodd" clip-rule="evenodd" fill="#ccc"/><path d="M38.001 4.02h-12a2 2 0 00-2 2v2h16v-2a2 2 0 00-2-2zm-20 0h-12a2 2 0 00-2 2v2h16v-2a2 2 0 00-2-2z" fill-rule="evenodd" clip-rule="evenodd" fill="#fff"/></svg>