<svg xmlns="http://www.w3.org/2000/svg" width="64.006" height="63.982"><path d="M60.307.001L60.296 0H3.71l-.011.001C1.655.008 0 1.611 0 3.593v56.68a3.71 3.71 0 003.71 3.71h56.586a3.71 3.71 0 003.71-3.71V3.593c0-1.982-1.655-3.585-3.699-3.592z" fill="#ccc"/><path d="M58.006 11.992h-54v46.001a2 2 0 002 1.999h52a2 2 0 002-1.999V11.992h-2z" fill="#fff"/><path d="M26.032 35.993a5.974 5.974 0 1011.948 0 5.974 5.974 0 00-11.948 0zm-1.991 0c0-7.819 7.965-7.969 7.965-7.969h11.492c-2.528-3.639-6.726-6.031-11.492-6.031-6.129 0-11.281 3.964-13.178 9.446l5.284 5.255c-.021-.234-.071-.461-.071-.701zm20.578-5.976h-7.4c1.673 1.46 2.751 3.582 2.751 5.977 0 3.471-1.97 5.402-1.97 5.402l-8.317 8.364c.76.127 1.527.233 2.323.233 7.732 0 14-6.268 14-14 0-2.147-.523-4.158-1.387-5.976zM32.006 43.958c-3.533 0-5.402-1.97-5.402-1.97l-8.363-8.317c-.128.759-.234 1.526-.234 2.322 0 6.129 3.963 11.281 9.446 13.179l5.254-5.284c-.235.02-.461.07-.701.07z" fill="#88c057"/><path d="M46.006 3.992l-.02.002H6.006a2 2 0 000 4h40a2.001 2.001 0 000-4.002zm6 0a2 2 0 10.002 4.002 2 2 0 00-.002-4.002zm6 0a2 2 0 10.002 4.002 2 2 0 00-.002-4.002z" fill-rule="evenodd" clip-rule="evenodd" fill="#fff"/></svg>