<svg xmlns="http://www.w3.org/2000/svg" width="64.006" height="63.983"><path d="M60.307.001L60.296 0H3.71l-.011.001C1.655.008 0 1.612 0 3.594v56.68a3.71 3.71 0 003.71 3.71h56.586a3.71 3.71 0 003.71-3.71V3.594c0-1.982-1.655-3.586-3.699-3.593z" fill="#ccc"/><path d="M58.006 11.993h-54v45.999a2 2 0 002 2.001h52a2 2 0 002-2.001V11.993h-2z" fill="#fff"/><path d="M46.006 3.994l-.01.001H6.006a2 2 0 000 4h40a2 2 0 000-4.001zm6 0a2 2 0 10.002 4.002 2 2 0 00-.002-4.002zm6 0a2 2 0 10.002 4.002 2 2 0 00-.002-4.002z" fill-rule="evenodd" clip-rule="evenodd" fill="#fff"/><path d="M32.006 31.993a2 2 0 00-2 2v10a2 2 0 004 0v-10a2 2 0 00-2-2zm0-1.999a2 2 0 10-.001-4.001 2 2 0 00.001 4.001z" fill-rule="evenodd" clip-rule="evenodd" fill="#48a0dc"/></svg>