<svg xmlns="http://www.w3.org/2000/svg" width="64.006" height="63.988"><path d="M52.307 8.007l-.011-.002H3.71l-.011.002C1.655 8.014 0 9.618 0 11.6v48.68a3.71 3.71 0 003.71 3.709h48.585a3.71 3.71 0 003.71-3.709V11.6c.001-1.982-1.654-3.586-3.698-3.593z" fill="#ccc"/><path d="M50.005 19.998h-46v38a2 2 0 002 2.001h44a2 2 0 002-2.001v-38h-2z" fill="#fff"/><path d="M38.005 11.998c-.01 0-.019.003-.029.003H6.006a2 2 0 000 4h32a2 2 0 002-2v-.002a2.002 2.002 0 00-2.001-2.001zm6 0A2 2 0 1044.007 16a2 2 0 00-.002-4.002zm6 0A2 2 0 1050.007 16a2 2 0 00-.002-4.002z" fill-rule="evenodd" clip-rule="evenodd" fill="#fff"/><path d="M60.006 0h-24a4 4 0 00-4 4.001v48a4 4 0 004 4h24a4 4 0 004-4v-48a4 4 0 00-4-4.001z" fill="#88c057"/><path d="M36.006 8.001v40h24v-40h-24zm12 41.999a2 2 0 10.001 4.001A2 2 0 0048.006 50z" fill-rule="evenodd" clip-rule="evenodd" fill="#fff"/></svg>