<svg xmlns="http://www.w3.org/2000/svg" width="64.006" height="63.984"><path d="M60.307.003C60.303.003 60.3 0 60.296 0H3.71c-.004 0-.007.003-.011.003C1.655.009 0 1.613 0 3.594v56.681a3.71 3.71 0 003.71 3.71h56.586a3.71 3.71 0 003.71-3.71V3.593c0-1.98-1.655-3.584-3.699-3.59z" fill="#ccc"/><path d="M58.006 11.993h-54v46a2 2 0 002 2.001h52a2 2 0 002-2.001v-46h-2z" fill="#fff"/><path d="M44.256 33.368l-1.301-.425c-.25-.895-.6-1.746-1.048-2.537l.616-1.22a1.748 1.748 0 000-2.474l-1.237-1.237a1.75 1.75 0 00-2.475 0l-1.217.617a11.4 11.4 0 00-2.536-1.049l-.428-1.301a1.75 1.75 0 00-1.75-1.75h-1.75a1.75 1.75 0 00-1.75 1.75l-.425 1.301c-.892.248-1.739.597-2.528 1.042l-1.229-.61a1.75 1.75 0 00-2.475 0l-1.236 1.237a1.748 1.748 0 000 2.474l.61 1.229a11.31 11.31 0 00-1.039 2.516l-1.304.438a1.75 1.75 0 00-1.75 1.75v1.75c0 .968.783 1.75 1.75 1.75l1.305.438a11.3 11.3 0 001.038 2.516l-.61 1.229a1.748 1.748 0 000 2.474l1.236 1.237a1.747 1.747 0 002.475 0l1.229-.61a11.26 11.26 0 002.516 1.038l.438 1.305c0 .967.783 1.75 1.75 1.75h1.75a1.75 1.75 0 001.75-1.75l.438-1.305a11.273 11.273 0 002.524-1.044l1.219.616a1.747 1.747 0 002.475 0l1.237-1.237a1.748 1.748 0 000-2.474l-.617-1.218c.447-.792.799-1.643 1.048-2.537l1.302-.428c.967 0 1.75-.782 1.75-1.75v-1.75a1.752 1.752 0 00-1.751-1.751zm-12.25 8.626a6 6 0 110-12 6 6 0 010 12z" fill="#48a0dc"/><path d="M46.006 3.993l-.02.002H6.006a2 2 0 000 4h40a2 2 0 000-4.002zm6 0a2.001 2.001 0 10.002 4.002 2.001 2.001 0 00-.002-4.002zm6 0a2.001 2.001 0 10.002 4.002 2.001 2.001 0 00-.002-4.002z" fill-rule="evenodd" clip-rule="evenodd" fill="#fff"/></svg>