<svg xmlns="http://www.w3.org/2000/svg" width="64.007" height="63.983"><path d="M60.307.003C60.303.003 60.3 0 60.296 0H3.71c-.004 0-.007.003-.011.003C1.655.009 0 1.612 0 3.594v56.681a3.71 3.71 0 003.71 3.709h56.586a3.71 3.71 0 003.711-3.709V3.593c0-1.981-1.656-3.584-3.7-3.59z" fill="#ccc"/><path d="M58.006 11.994h-54v45.999a2 2 0 002 2h52a2 2 0 002-2V11.994h-2z" fill="#fff"/><path d="M39.355 38.579a2.08 2.08 0 00-2.933 0l-2.417 2.409V29.993a2 2 0 00-4 0v11.091l-2.491-2.499a2.058 2.058 0 00-2.921 0 2.077 2.077 0 000 2.93l5.842 5.861c.325.326.731.509 1.153.572a1.994 1.994 0 001.847-.559c.018-.016.038-.025.055-.042l5.865-5.845a2.06 2.06 0 000-2.923z" fill-rule="evenodd" clip-rule="evenodd" fill="#48a0dc"/><path d="M46.006 3.994l-.01.001H6.006a2 2 0 000 4h40a2.002 2.002 0 000-4.001zm6 0a2 2 0 10.002 4.002 2 2 0 00-.002-4.002zm6 0a2 2 0 10.002 4.002 2 2 0 00-.002-4.002z" fill-rule="evenodd" clip-rule="evenodd" fill="#fff"/></svg>