<svg xmlns="http://www.w3.org/2000/svg" width="64.006" height="63.984"><path d="M60.307.003C60.303.003 60.3 0 60.296 0H3.71c-.004 0-.007.003-.011.003C1.655.009 0 1.614 0 3.595v56.681a3.71 3.71 0 003.71 3.709h56.586a3.71 3.71 0 003.71-3.709V3.594c0-1.98-1.655-3.585-3.699-3.591z" fill="#ccc"/><path d="M58.006 11.994h-54v45.999a2 2 0 002 2.001h52a2 2 0 002-2.001V11.994h-2z" fill="#fff"/><path d="M44.006 21.993h-6a2 2 0 100 3.998h1.052l-4.413 4.468a2.1 2.1 0 00-.001 2.956c.81.816 2.122.816 2.933 0l4.43-4.485v1.063a2 2 0 004 0v-6.001a2.001 2.001 0 00-2.001-1.999zM26.479 38.632l-4.453 4.462v-1.058a2 2 0 00-2.011-1.991c-1.109 0-2.01.892-2.01 1.991v5.968a2 2 0 002.01 1.99h6.032c1.11 0 2.01-.892 2.01-1.99s-.899-1.988-2.01-1.988H24.99l4.436-4.444a2.076 2.076 0 000-2.939 2.084 2.084 0 00-2.947-.001zm17.515 1.362a1.99 1.99 0 00-1.984 1.999v1.051l-4.434-4.412a2.073 2.073 0 10-2.934 2.932l4.451 4.43h-1.051a1.992 1.992 0 00-1.985 2.001c0 1.104.889 2 1.985 2h5.951a1.993 1.993 0 001.985-2v-6.001c.001-1.105-.888-2-1.984-2zM24.953 26.015h1.057c1.103 0 1.996-.9 1.996-2.011 0-1.109-.894-2.01-1.996-2.01h-5.982c-1.102 0-1.995.9-1.995 2.01v6.031c0 1.109.894 2.01 1.995 2.01 1.104 0 1.995-.9 1.995-2.01v-1.057l4.457 4.435a2.084 2.084 0 102.948-2.945l-4.475-4.453z" fill-rule="evenodd" clip-rule="evenodd" fill="#48a0dc"/><path d="M46.006 3.994l-.02.002H6.006a2 2 0 000 4h40a2 2 0 002-2v-.001a2 2 0 00-2-2.001zm6 0a2 2 0 10.002 4.002 2 2 0 00-.002-4.002zm6 0a2 2 0 10.002 4.002 2 2 0 00-.002-4.002z" fill-rule="evenodd" clip-rule="evenodd" fill="#fff"/></svg>