<svg xmlns="http://www.w3.org/2000/svg" width="64.006" height="64.046"><path d="M60.307.002L60.296 0H3.71l-.011.002C1.655.008 0 1.615 0 3.598v56.736a3.712 3.712 0 003.71 3.713h56.586a3.712 3.712 0 003.71-3.713V3.598c0-1.983-1.655-3.59-3.699-3.596z" fill="#ccc"/><path d="M58.006 12.006h-54V58.05c0 1.106.896 2.003 2 2.003h52c1.104 0 2-.896 2-2.003V12.006h-2z" fill="#fff"/><circle cx="32.006" cy="36.02" r="20" fill="#48a0dc"/><path d="M38.102 18.734c.57-.216 1.146-.419 1.713-.643.189-.075.395-.14.584-.223a20.132 20.132 0 00-7.931-1.847c.222.054.453.069.696.069 1.094-.001 1.428.477 1.243 1.554-.116.684-.127 1.391-.128 2.087-.001.415.256.716.668.841.38.115.57-.146.78-.396.499-.594 1.044-1.123 1.872-1.23.173-.021.333-.147.503-.212zm1.117 4.455c.31.078.728-.151.811.369.093.586.379 1.07.745 1.547.511.668.186 1.342-.645 1.493a4.056 4.056 0 01-.396.056c-.693.051-.722.092-.811.788-.061.477.204.729.541.984.31.235.56.052.77-.099.217-.156.396-.392.532-.627.384-.662.825-1.305 1.568-1.532.642-.195 1.356-.463 1.976.03.273-.154.603-.353.835-.271.514.179.941.508 1.214 1.046.172.339.531.582.754.813.316-.293.508-.612.762-.675.454-.112.949-.105 1.422-.072.169.013.404.217.459.384.052.159-.078.389-.155.575-.033.081-.137.133-.28.263.413.063.722.118 1.032.153.057.007.105.016.156.023a20.064 20.064 0 00-1.183-2.418 20.043 20.043 0 00-2.769-3.718c-.222.293-.554.52-.964.605-.501.104-.915.002-1.35-.163-.312-.119-.52-.036-.799.176-.452.343-.996.57-1.52.807-.119.055-.359-.004-.465-.099a13.635 13.635 0 01-.993-1.018c-.114-.126-.185-.293-.293-.472-.34.379-.636.703-.954 1.052zm4.119-1.795c.368.055.631.146.772.507.146.369.372.28.566.056.272-.315.408-.683.379-1.093-.45-.388-.917-.754-1.396-1.097-.213.194-.438.375-.661.565-.163.141-.373.48-.314.574.137.22.408.45.654.488zm8.619 13.186l-.049-.082c-.309-.525-.522-1.107-.77-1.668-.073-.166-.163-.343-.167-.516-.004-.182.062-.504.141-.518a.907.907 0 01.454.05 19.96 19.96 0 00-.404-1.569c-.148.205-.371.348-.67.414a4.236 4.236 0 01-2.501-.188c-.381-.149-.727-.189-1.075.089-.381.305-.805.272-1.223.073-.195-.093-.369-.254-.572-.303-.685-.163-1.117-.53-1.243-1.258-.022-.126-.307-.312-.453-.297-1.005.099-2.005.333-3.009.351-1.041.017-1.462.725-1.809 1.448-.242.504-.538.89-.943 1.246-.766.671-1.167 1.503-1.08 2.555.031.389-.069.787-.081 1.183-.011.342-.106.768.054 1.013.521.8 1.137 1.541 1.735 2.289.094.116.291.227.43.215.738-.061 1.495-.08 2.204-.269.729-.193 1.386-.369 1.989.252.086.09.229.133.353.176.912.322.991.404.959 1.361-.021.6.11 1.098.422 1.641.666 1.153 1.089 2.378.452 3.746-.165.354-.171.919-.003 1.267.416.858.553 1.763.743 2.674.028.138.068.272.107.408 4.272-4.147 6.424-9.967 6.009-15.783zm-18.381 7.787c-.773-.148-1.424-.531-2.134-.796-.635-.236-1.093-.61-1.253-1.304-.124-.539-.506-.802-1.02-.986a5.436 5.436 0 01-1.384-.738c-.565-.418-1.063-.901-1.862-.756a.874.874 0 01-.646-.192c-.507-.455-1.062-.498-1.531-.083-.442.391-1.332.578-.907 1.545.092.21-.039.555-.144.805-.126.305-.322.583-.506.86-.579.87-.476 1.778-.079 2.654.328.726.741 1.416 1.159 2.095.175.283.423.566.707.727.995.566 1.529 1.353 1.417 2.53a5.672 5.672 0 000 1.001c.068.808.182 1.612.236 2.421.026.393-.036.792-.065 1.188-.01.13-.076.264-.059.388.06.426.123.851.201 1.272.716.238 1.444.437 2.184.592.188-.695.583-1.36 1.105-1.761a.939.939 0 00.319-.523c.084-.432.301-.717.69-.912.171-.085.36-.223.439-.385.299-.622.675-1.242.799-1.904.155-.838.652-1.245 1.35-1.508.827-.313 1.15-.64 1.104-1.496-.06-1.081.255-1.987.94-2.809.247-.296.431-.721.12-1.051-.333-.358-.742-.791-1.18-.874zm-10.02-13.202c.302-.207.59-.517.74-.847.538-1.176 1.71-1.632 2.605-2.399.103-.088.279-.098.425-.125.314-.06.754-.003.914-.189.163-.19.05-.616.059-.938.02-.672.289-.948.941-.959.283-.006.567-.005.851.005.61.021.736.195.636.795-.019.115.05.298.141.363.076.056.242-.012.369-.025l-.073-.405c-.054-.296-.158-.594-.148-.887.012-.341-.042-.597-.299-.849a2.135 2.135 0 01-.493-.78c-.101-.275-.242-.387-.51-.348-.469.067-.771-.133-.933-.563-.125-.333-.376-.419-.707-.438-.573-.035-.813.411-.893.787-.201.946-.977 1.447-1.487 2.146-.323.441-.937.311-1.029-.221-.079-.455-.31-.658-.698-.8-.249-.091-.482-.227-.714-.357-.636-.356-.764-1.062-.221-1.532.799-.691 1.684-1.178 2.822-.955.217.042.633-.114.704-.284.281-.678.919-.952 1.41-1.382.366-.319.998-.235 1.34.073.416.374.323.737.037 1.144-.093.133-.141.451-.066.516.173.146.518.324.643.246.441-.272.824-.643 1.212-.994.035-.032-.038-.205-.081-.304-.279-.636-.811-.919-1.453-1.099-.718-.199-.861-.777-.247-1.19.122-.082.252-.153.384-.221-.689.078-1.378.19-2.063.343-.606.131-.802.575-.548 1.127.148.324.201.666-.127.903-.331.24-.662.079-.892-.174-.151-.168-.19-.437-.286-.658-.069-.16-.149-.316-.225-.474-.193.104-.528.177-.558.315-.155.73-.789.846-1.306 1.112-.088.045-.277.052-.313 0-.063-.089-.079-.246-.051-.358s.059-.226.091-.341c-.49.231-.976.48-1.453.756a19.925 19.925 0 00-9.211 11.776c.494.798 1.167 1.483 1.712 2.254.229.323.322.741.481 1.115.088.207.133.468.286.606a3.423 3.423 0 001.969.883c.286.031.59.117.836.263.779.462 1.535.964 2.292 1.444.288-.629.229-.785-.431-1.086-.438-.2-.598-.556-.51-1.027l.125-.658c-.251.208-.385.322-.522.431-.857.679-1.771.397-2.132-.629-.344-.979.019-1.813.563-2.559.854-1.171 2.23-.802 3.399-1.028.157-.031.354.08.517.157.189.09.361.216.606.367.094-1.031.887-1.374 1.57-1.844zm-1.896-4.167c.014-.139.322-.348.494-.348.316.002.715.086.708.509-.002.144-.309.282-.476.422-.388-.141-.769-.153-.726-.583z" fill="#fc6"/><path d="M46.006 3.999c-.07 0-.136.014-.203.021H6.006a2 2 0 000 4h40a2 2 0 002-2l-.001-.009.001-.009a2.001 2.001 0 00-2-2.003zm6 0a2.001 2.001 0 000 4.004 2.001 2.001 0 100-4.004zm6 0a2.001 2.001 0 000 4.004 2.001 2.001 0 100-4.004z" fill-rule="evenodd" clip-rule="evenodd" fill="#fff"/></svg>