<svg xmlns="http://www.w3.org/2000/svg" width="64.006" height="63.983"><path d="M60.307.001L60.296 0H3.71l-.011.001C1.655.008 0 1.612 0 3.594v56.68a3.71 3.71 0 003.71 3.71h56.586a3.71 3.71 0 003.71-3.71V3.594c0-1.982-1.655-3.586-3.699-3.593z" fill="#ccc"/><path d="M58.006 11.993h-54v45.999a2 2 0 002 2.001h52a2 2 0 002-2.001V11.993h-2z" fill="#fff"/><path d="M46.006 3.994l-.01.001H6.006a2 2 0 000 4h40a2 2 0 000-4.001zm6 0a2 2 0 10.002 4.002 2 2 0 00-.002-4.002zm6 0a2 2 0 10.002 4.002 2 2 0 00-.002-4.002z" fill-rule="evenodd" clip-rule="evenodd" fill="#fff"/><path d="M22.444 35.497H19.5v2.451h-1.944l4.653-7.977h-3.338l-4.888 8.297v2.391H19.5v3.354h2.944v-3.354h1.551v-2.711h-1.551v-2.451zm9.573-5.532c-2.007 0-3.508.638-4.504 1.911-.997 1.273-1.495 2.975-1.495 5.1 0 2.127.498 3.828 1.495 5.102.996 1.273 2.497 1.91 4.504 1.91s3.508-.637 4.504-1.91c.997-1.273 1.495-2.975 1.495-5.102 0-2.125-.498-3.826-1.495-5.1-.997-1.273-2.498-1.911-4.504-1.911zm2.137 10.299c-.456.827-1.169 1.241-2.138 1.241s-1.682-.414-2.138-1.241c-.457-.828-.686-1.92-.686-3.277s.229-2.449.686-3.278c.456-.827 1.169-1.24 2.138-1.24s1.682.413 2.138 1.24c.457.829.686 1.921.686 3.278s-.229 2.449-.686 3.277zm14.287-2.316v-2.451h-2.944v2.451h-1.944l4.653-7.977h-3.338l-4.888 8.297v2.391h5.517v3.354h2.944v-3.354h1.551v-2.711h-1.551z" fill-rule="evenodd" clip-rule="evenodd" fill="#ed7161"/></svg>