<svg xmlns="http://www.w3.org/2000/svg" width="64.007" height="63.983"><path d="M60.307.002L60.296 0H3.71l-.011.002C1.655.009 0 1.613 0 3.594v56.681a3.71 3.71 0 003.71 3.709h56.586a3.71 3.71 0 003.711-3.709V3.593c0-1.98-1.656-3.584-3.7-3.591z" fill="#ccc"/><path d="M58.006 11.994h-54v45.999c0 1.104.896 2.001 2 2.001h52a2 2 0 002-2.001V11.994h-2z" fill="#fff"/><path d="M44.006 37.994h-8a2 2 0 000 4h3.984a9.96 9.96 0 01-7.984 4.001c-4.839 0-8.873-3.437-9.799-8.001h-4.042c.972 6.782 6.789 12 13.841 12 3.931 0 7.467-1.629 10-4.242v2.242a2 2 0 004 0v-8c0-1.103-.896-2-2-2zm-24-4h8a2 2 0 000-4h-3.984c1.823-2.426 4.716-4 7.984-4 4.837 0 8.872 3.436 9.799 8h4.042c-.974-6.782-6.79-12-13.841-12a13.875 13.875 0 00-10 4.242v-2.242a2 2 0 00-4 0v8a2 2 0 002 2z" fill-rule="evenodd" clip-rule="evenodd" fill="#88c057"/><path d="M46.006 3.995l-.01.001H6.006a2 2 0 000 4h40a2 2 0 000-4.001zm6 0a2 2 0 10.002 4.002 2 2 0 00-.002-4.002zm6 0a2 2 0 10.002 4.002 2 2 0 00-.002-4.002z" fill-rule="evenodd" clip-rule="evenodd" fill="#fff"/></svg>