<svg xmlns="http://www.w3.org/2000/svg" width="64.006" height="63.984"><path d="M60.307.003C60.303.003 60.3 0 60.296 0H3.71c-.004 0-.007.003-.011.003C1.655.009 0 1.613 0 3.594v56.681a3.71 3.71 0 003.71 3.71h56.586a3.71 3.71 0 003.71-3.71V3.593c0-1.98-1.655-3.584-3.699-3.59z" fill="#ccc"/><path d="M58.006 11.993h-54v46a2 2 0 002 2.001h52a2 2 0 002-2.001v-46h-2z" fill="#fff"/><path d="M43.357 44.565l-7.072-7.074 5.969-3.648c.412-.283.899-.611.899-1.176 0-.554-.366-1.008-.867-1.169l-21.065-7.391c-.348-.118-.759-.204-1.045.082-.285.286-.199.698-.082 1.047l7.382 21.09c.161.501.614.868 1.167.868.565 0 .893-.487 1.175-.9l3.645-5.977 7.065 7.082a2 2 0 002.83 0 2.004 2.004 0 00-.001-2.834z" fill="#9b7cab"/><path d="M46.006 3.993l-.02.002H6.006a2 2 0 000 4h40a2 2 0 000-4.002zm6 0a2.001 2.001 0 10.002 4.002 2.001 2.001 0 00-.002-4.002zm6 0a2.001 2.001 0 10.002 4.002 2.001 2.001 0 00-.002-4.002z" fill-rule="evenodd" clip-rule="evenodd" fill="#fff"/></svg>