<svg xmlns="http://www.w3.org/2000/svg" width="64.006" height="64.046"><path d="M60.307.002L60.296 0H3.71l-.011.002C1.655.008 0 1.615 0 3.598v56.736a3.712 3.712 0 003.71 3.713h56.586a3.712 3.712 0 003.71-3.713V3.598c0-1.983-1.655-3.59-3.699-3.596z" fill="#ccc"/><path d="M58.006 12.006h-54V58.05c0 1.106.895 2.003 2 2.003h52c1.104 0 2-.896 2-2.003V12.006h-2z" fill="#fff"/><path d="M16.003 35.961c0 6.329 3.68 11.806 9.018 14.395L17.389 29.45a15.916 15.916 0 00-1.386 6.511zm16.503 4.012l-4.5 11.5c1.433.421 2.424.486 3.997.486 1.861 0 3.649-.323 5.312-.91a1.358 1.358 0 01-.113-.218l-4.696-10.858zm13.533-11.688c.071.511.11 1.057.11 1.646 0 1.622-.305 3.446-1.218 5.729l-4.886 14.125c4.755-2.771 7.953-7.924 7.953-13.825a15.897 15.897 0 00-1.959-7.675zm-3.237 6.867c0-1.977-.712-3.347-1.319-4.411-.811-1.318-1.57-2.433-1.57-3.752 0-1.471 1.112-2.839 2.688-2.839.067 0 .137.01.205.014a15.943 15.943 0 00-10.802-4.2c-5.495 0-10.955 1.761-13.997 6.009 1.27.023 6 0 6 0 .909-.049.911 1.895 0 2 0 0-.98-.053-2 0l6 16 4-10-2-6c-.91-.051-2 0-2 0-.912-.051-.912-2.047 0-2l7.7.016c.908-.047 1.211 1.884.3 1.984 0 0-.98-.051-2 0l6 16 1.579-3.647c.809-2.08 1.216-3.803 1.216-5.174z" fill="#48a0dc"/><path d="M46.006 3.998c-.073 0-.142.014-.213.021H6.006a2 2 0 000 4h40a2 2 0 002-2l-.001-.009.001-.009a2.002 2.002 0 00-2-2.003zm6 0a2.002 2.002 0 000 4.005 2.002 2.002 0 100-4.005zm6 0a2.002 2.002 0 000 4.005 2.002 2.002 0 100-4.005z" fill-rule="evenodd" clip-rule="evenodd" fill="#fff"/></svg>