<svg xmlns="http://www.w3.org/2000/svg" width="64.006" height="64.046"><path d="M60.307.002L60.296 0H3.71l-.011.002C1.655.008 0 1.615 0 3.598v56.736a3.712 3.712 0 003.71 3.713h56.586a3.712 3.712 0 003.71-3.713V3.598c0-1.983-1.655-3.59-3.699-3.596z" fill="#ccc"/><path d="M58.006 12.006h-54V58.05c0 1.106.896 2.003 2 2.003h52c1.104 0 2-.896 2-2.003V12.006h-2z" fill="#fff"/><path fill="#ccc" d="M4.006 8.02h56v4h-56z"/><path d="M20.006.02h-12a4 4 0 00-4 4v4a4 4 0 004 4h12a4 4 0 004-4v-4a4 4 0 00-4-4z" fill="#ccc"/><path d="M18.006 4.02h-12a2 2 0 00-2 2v6h16v-6a2 2 0 00-2-2z" fill-rule="evenodd" clip-rule="evenodd" fill="#fff"/><path d="M38.006.02h-12a4 4 0 00-4 4v4a4 4 0 004 4h12a4 4 0 004-4v-4a4 4 0 00-4-4z" fill="#ccc"/><path d="M38.006 4.02h-12a2 2 0 00-2 2v2h16v-2a2 2 0 00-2-2zm20 0h-12a2 2 0 00-2 2v2h16v-2a2 2 0 00-2-2z" fill-rule="evenodd" clip-rule="evenodd" fill="#fff"/></svg>