<svg xmlns="http://www.w3.org/2000/svg" width="64.006" height="63.982"><path d="M60.307.001L60.296 0H23.71l-.011.001C21.655.008 20 1.611 20 3.593V20H3.71l-.011.002C1.655 20.007 0 21.611 0 23.592v36.681a3.71 3.71 0 003.71 3.71h36.586a3.71 3.71 0 003.71-3.71v-16.29h16.29a3.71 3.71 0 003.71-3.71V3.593c0-1.982-1.655-3.585-3.699-3.592z" fill-rule="evenodd" clip-rule="evenodd" fill="#ccc"/><path d="M20 40.273v-8.28H4.006v26a2 2 0 002 1.999h32a2 2 0 002-1.999v-14.01H23.71a3.71 3.71 0 01-3.71-3.71zm38.006-28.281h-34v26a2 2 0 002 2.001h32a2 2 0 002-2.001v-26h-2zm-12-8l-.02.002h-19.98a2 2 0 000 4h20a2.001 2.001 0 000-4.002zm6 0a2 2 0 10.002 4.002 2 2 0 00-.002-4.002zm6 0a2 2 0 10.002 4.002 2 2 0 00-.002-4.002zm-40 20.001l-.01.001h-5.98l-.01-.001-.01.001h-5.98l-.01-.001a2 2 0 000 4.001h14v-4h-1.99l-.01-.001z" fill-rule="evenodd" clip-rule="evenodd" fill="#fff"/></svg>