<svg xmlns="http://www.w3.org/2000/svg" width="64.006" height="63.983"><path d="M60.307.001L60.296 0H3.71l-.011.001C1.655.008 0 1.612 0 3.594v56.68a3.71 3.71 0 003.71 3.71h56.586a3.71 3.71 0 003.71-3.71V3.594c0-1.982-1.655-3.586-3.699-3.593z" fill="#ccc"/><path d="M58.006 11.993h-54v45.999a2 2 0 002 2.001h52a2 2 0 002-2.001V11.993h-2z" fill="#fff"/><path d="M32.006 39.993a6 6 0 006-6v-5.999a6 6 0 10-12 0v5.999a6 6 0 006 6zm-2-11.999a2 2 0 114 0v5.999a2 2 0 11-4 0v-5.999zm10 5.999c0 4.419-3.582 8-8 8s-8-3.581-8-8h-4c0 5.944 4.327 10.867 10 11.821v2.179a2 2 0 004 0v-2.179c5.673-.954 10-5.877 10-11.821h-4z" fill-rule="evenodd" clip-rule="evenodd" fill="#9b7cab"/><path d="M46.006 3.994l-.01.001H6.006a2 2 0 000 4h40a2 2 0 000-4.001zm6 0a2 2 0 10.002 4.002 2 2 0 00-.002-4.002zm6 0a2 2 0 10.002 4.002 2 2 0 00-.002-4.002z" fill-rule="evenodd" clip-rule="evenodd" fill="#fff"/></svg>