<svg xmlns="http://www.w3.org/2000/svg" width="64.007" height="63.984"><path d="M60.307.003C60.303.003 60.3 0 60.296 0H3.71c-.004 0-.007.003-.011.003C1.655.009 0 1.614 0 3.595v56.681a3.71 3.71 0 003.71 3.709h56.586a3.711 3.711 0 003.711-3.709V3.594c0-1.98-1.656-3.585-3.7-3.591z" fill="#ccc"/><path d="M58.006 11.994h-54v45.999a2 2 0 002 2.001h52a2 2 0 002-2.001V11.994h-2z" fill="#fff"/><path d="M33.005 21.991c-6.072 0-10.995 4.741-10.995 10.589 0 .113.055 2.836 1 4.776 2.708 6.017 9.985 12.679 9.995 12.643.011.023 7.258-6.602 9.979-12.606C43.792 35.97 44 32.813 44 32.58c-.001-5.848-4.923-10.589-10.995-10.589zm.001 14.004a3.072 3.072 0 01-3.08-3.063c0-1.692 1.379-3.062 3.08-3.062s3.08 1.369 3.08 3.062a3.072 3.072 0 01-3.08 3.063z" fill-rule="evenodd" clip-rule="evenodd" fill="#48a0dc"/><path d="M46.006 3.994l-.02.002H6.006a2 2 0 000 4h40a2 2 0 002-2v-.001a2 2 0 00-2-2.001zm6 0a2 2 0 10.002 4.002 2 2 0 00-.002-4.002zm6 0a2 2 0 10.002 4.002 2 2 0 00-.002-4.002z" fill-rule="evenodd" clip-rule="evenodd" fill="#fff"/></svg>