<svg xmlns="http://www.w3.org/2000/svg" width="68.022" height="67.992"><path d="M47.423 55.888l-1.645-1.646a6.04 6.04 0 018.54-8.539l1.646 1.646 1.658-1.658c1.727-1.73 4.234-2.182 6.384-1.384V3.593c0-1.98-1.655-3.585-3.699-3.591C60.303.003 60.3 0 60.296 0H3.71c-.004 0-.007.003-.011.003C1.655.009 0 1.613 0 3.594v56.681a3.71 3.71 0 003.71 3.71h40.548c-.769-2.137-.315-4.616 1.398-6.33l1.767-1.767z" fill-rule="evenodd" clip-rule="evenodd" fill="#ccc"/><path d="M58.006 11.994h-54v45.999a2 2 0 002 2.001h52a2 2 0 002-2.001V11.994h-2z" fill="#fff"/><path d="M46.006 3.994l-.02.002H6.006a2 2 0 000 4h40a2 2 0 002-2v-.002a2 2 0 00-2-2zm6 0a2 2 0 10.001 4.001 2 2 0 00-.001-4.001zm6 0a2 2 0 10.001 4.001 2 2 0 00-.001-4.001z" fill-rule="evenodd" clip-rule="evenodd" fill="#fff"/><path d="M63.436 60.721l-4.703-4.702 4.703-4.702a1.903 1.903 0 00-2.691-2.691l-4.703 4.703-4.762-4.762a1.906 1.906 0 00-2.701 0 1.908 1.908 0 000 2.7l4.763 4.762-4.705 4.706a1.902 1.902 0 102.69 2.69l4.706-4.705 4.703 4.702a1.91 1.91 0 002.7-2.701z" fill-rule="evenodd" clip-rule="evenodd" fill="#ed7161"/></svg>