<svg xmlns="http://www.w3.org/2000/svg" width="64.006" height="63.983"><path d="M60.307.002L60.296 0H3.71l-.011.002C1.655.009 0 1.613 0 3.594v56.681a3.71 3.71 0 003.71 3.709h56.586a3.71 3.71 0 003.71-3.709V3.593c0-1.98-1.655-3.584-3.699-3.591z" fill="#ccc"/><path d="M58.006 11.994h-54v45.999c0 1.104.896 2.001 2 2.001h52a2 2 0 002-2.001V11.994h-2z" fill="#fff"/><path d="M32.006 22.646a8.977 8.977 0 01-7 3.35 8.96 8.96 0 01-5-1.518V38.03c0 5.536 7.984 11.964 11.925 11.964 4.2 0 12.075-6.428 12.075-11.964V24.478a8.96 8.96 0 01-5 1.518 8.977 8.977 0 01-7-3.35z" fill-rule="evenodd" clip-rule="evenodd" fill="#ed7161"/><path d="M37.433 39.251l-2.715-2.267 2.715-2.266c.746-.623.746-1.633 0-2.258-.746-.622-1.956-.622-2.703 0l-2.715 2.268-2.774-2.315c-.749-.628-1.964-.628-2.713 0-.75.623-.75 1.638 0 2.265l2.774 2.315-2.718 2.27c-.746.623-.746 1.633 0 2.254.747.624 1.957.624 2.703 0l2.717-2.268 2.715 2.267c.749.627 1.964.627 2.713 0 .75-.625.75-1.64.001-2.265zm8.573-35.256l-.01.001H6.006a2 2 0 000 4h40a2 2 0 000-4.001zm6 0a2 2 0 10.002 4.002 2 2 0 00-.002-4.002zm6 0a2 2 0 10.002 4.002 2 2 0 00-.002-4.002z" fill-rule="evenodd" clip-rule="evenodd" fill="#fff"/></svg>