<svg xmlns="http://www.w3.org/2000/svg" width="64.006" height="64.046"><path d="M60.307.002L60.296 0H3.71l-.011.002C1.655.008 0 1.615 0 3.598v56.736a3.712 3.712 0 003.71 3.713h56.586a3.712 3.712 0 003.71-3.713V3.598c0-1.983-1.655-3.59-3.699-3.596z" fill="#ccc"/><path d="M58.006 12.006h-54V58.05c0 1.106.896 2.003 2 2.003h52c1.104 0 2-.896 2-2.003V12.006h-2z" fill="#fff"/><path d="M46.006 30.02h-28a4 4 0 00-4 4v6a4 4 0 004 4h28a4 4 0 004-4v-6a4 4 0 00-4-4z" fill="#b3b3b3"/><path fill="#999" d="M14.006 38.02h36v8h-36z"/><path fill="#666" d="M24.006 30.02h16v16h-16z"/><path fill="#ccc" d="M24.006 22.02h16v8h-16z"/><path fill="#e6e6e6" d="M24.006 42.02h16v8h-16z"/><path d="M46.006 3.998c-.073 0-.142.014-.213.021H6.006a2 2 0 000 4h40a2 2 0 002-2l-.001-.009.001-.009a2.002 2.002 0 00-2-2.003zm6 0a2.002 2.002 0 000 4.005 2.002 2.002 0 100-4.005zm6 0a2.002 2.002 0 000 4.005 2.002 2.002 0 100-4.005z" fill-rule="evenodd" clip-rule="evenodd" fill="#fff"/></svg>