<svg xmlns="http://www.w3.org/2000/svg" width="64.006" height="63.982"><path d="M60.307.001L60.296 0H3.71l-.011.001C1.655.008 0 1.611 0 3.593v56.68a3.71 3.71 0 003.71 3.71h56.586c2.05 0 3.71-1.66 3.71-3.71V3.593c0-1.982-1.655-3.585-3.699-3.592z" fill="#ccc"/><path d="M58.006 11.992h-54v46.001a2 2 0 002 1.999h52a2 2 0 002-1.999V11.992h-2z" fill="#fff"/><path d="M40.044 24.357c-2.212-1.52-4.947-2.358-8.034-2.358-2.823 0-5.352.701-7.457 1.981-4.052 2.445-6.546 7.017-6.546 12.875 0 7.927 5.599 15.144 13.998 15.144 8.401 0 13.999-7.217 13.999-15.144 0-5.569-2.255-9.977-5.96-12.498zm-7.98 24.802c-4.857 0-5.66-7.148-5.66-12.438 0-5.708 1.098-11.925 5.605-11.925 4.506 0 5.597 6.285 5.597 11.994 0 5.29-.683 12.369-5.542 12.369z" fill="#ed7161"/><path d="M46.006 3.992l-.02.002H6.006a2 2 0 000 4h40a2.001 2.001 0 000-4.002zm6 0a2 2 0 10.002 4.002 2 2 0 00-.002-4.002zm6 0a2 2 0 10.002 4.002 2 2 0 00-.002-4.002z" fill-rule="evenodd" clip-rule="evenodd" fill="#fff"/></svg>