<svg xmlns="http://www.w3.org/2000/svg" width="64.006" height="64.046"><path d="M26.307.002L26.295 0H3.71l-.011.002C1.655.008 0 1.615 0 3.598v22.737a3.712 3.712 0 003.71 3.712h22.585a3.713 3.713 0 003.711-3.712V3.598c0-1.983-1.655-3.59-3.699-3.596zm34 0L60.296 0H37.71l-.011.002C35.655.008 34 1.615 34 3.598v22.737a3.712 3.712 0 003.71 3.712h22.586a3.712 3.712 0 003.71-3.712V3.598c0-1.983-1.655-3.59-3.699-3.596zm-34 34L26.296 34H3.71l-.011.002C1.655 34.008 0 35.615 0 37.598v22.736a3.712 3.712 0 003.71 3.713h22.585a3.713 3.713 0 003.711-3.713V37.597c0-1.982-1.655-3.589-3.699-3.595zm34 0L60.296 34H37.71l-.011.002c-2.044.006-3.7 1.613-3.7 3.596v22.736a3.713 3.713 0 003.71 3.713h22.586a3.712 3.712 0 003.71-3.713V37.597c.001-1.982-1.654-3.589-3.698-3.595z" fill-rule="evenodd" clip-rule="evenodd" fill="#ccc"/><path d="M6.006 12.006h-2V24.05c0 1.106.895 2.003 2 2.003h18a2 2 0 002-2.003V12.006h-20zm52 0h-20V24.05c0 1.106.896 2.003 2 2.003h18c1.104 0 2-.896 2-2.003V12.006h-2zm-52 34h-2V58.05c0 1.106.895 2.003 2 2.003h18a2 2 0 002-2.003V46.006h-20zm34 0h-2V58.05c0 1.106.896 2.003 2 2.003h18c1.104 0 2-.896 2-2.003V46.006h-20zm-28-42.008c-.073 0-.142.014-.213.021H6.006a2 2 0 000 4h6a2 2 0 002-2l-.001-.009.001-.009a2.002 2.002 0 00-2-2.003zm6 0a2.002 2.002 0 000 4.005 2.002 2.002 0 100-4.005zm6 0a2.002 2.002 0 000 4.005 2.002 2.002 0 100-4.005zm21.999 0c-.073 0-.142.014-.212.021h-5.787a2 2 0 000 4h6a2 2 0 002-2l-.001-.009.001-.009a2.002 2.002 0 00-2.001-2.003zm6.001 0a2 2 0 00-2 2.004 2 2 0 104 0 2.002 2.002 0 00-2-2.004zm6 4.005a2.002 2.002 0 100-4.005c-1.104 0-2 .896-2 2.004a2 2 0 002 2.001zm-46 29.996c-.07 0-.136.014-.203.021H6.006a2 2 0 000 4h6a2 2 0 002-2l-.001-.009.001-.009a2.001 2.001 0 00-2-2.003zm6 0a2.001 2.001 0 000 4.004 2.001 2.001 0 100-4.004zm6 0a2.001 2.001 0 000 4.004 2.001 2.001 0 100-4.004zm21.999 0c-.07 0-.135.014-.203.021h-5.796a2 2 0 000 4h6a2 2 0 002-2l-.001-.009.001-.009a2.002 2.002 0 00-2.001-2.003zm6.001 0a2 2 0 00-2 2.003 2 2 0 102-2.003zm6 0a2.001 2.001 0 000 4.004 2.001 2.001 0 100-4.004z" fill-rule="evenodd" clip-rule="evenodd" fill="#fff"/></svg>