<svg xmlns="http://www.w3.org/2000/svg" width="64.006" height="64.046"><path d="M60.307.002L60.296 0H3.71l-.011.002C1.655.008 0 1.615 0 3.598v56.736a3.712 3.712 0 003.71 3.713h56.586a3.712 3.712 0 003.71-3.713V3.598c0-1.983-1.655-3.59-3.699-3.596z" fill="#ccc"/><path d="M58.006 12.006h-54V58.05c0 1.106.896 2.003 2 2.003h52c1.104 0 2-.896 2-2.003V12.006h-2z" fill="#fff"/><path d="M59.943 25.69v-1.67H4.006v34a2 2 0 001.986 1.999v.001h51.985a2 2 0 002-2v-32c0-.114-.016-.222-.034-.33z" fill-rule="evenodd" clip-rule="evenodd" fill="#48a0dc"/><path d="M39.376 32.607a2.086 2.086 0 00-2.94 0l-2.424 2.408V24.021c0-1.105-.897-2.001-2.005-2.001s-2.005.896-2.005 2.001v11.09l-2.498-2.5a2.073 2.073 0 00-2.928 2.932l5.856 5.859c.325.325.731.51 1.152.573a1.997 1.997 0 001.855-.558c.018-.017.038-.025.055-.042l5.881-5.846a2.056 2.056 0 00.001-2.922zm6.63-28.608c-.07 0-.136.014-.203.021H6.006a2 2 0 000 4h40a2 2 0 002-2l-.001-.009.001-.009a2.001 2.001 0 00-2-2.003zm6 0a2.001 2.001 0 000 4.004 2.001 2.001 0 100-4.004zm6 0a2.001 2.001 0 000 4.004 2.001 2.001 0 100-4.004z" fill-rule="evenodd" clip-rule="evenodd" fill="#fff"/></svg>