<svg xmlns="http://www.w3.org/2000/svg" width="64.006" height="63.983"><path d="M60.307.002L60.296 0H3.71l-.011.002C1.655.009 0 1.613 0 3.594v56.681a3.71 3.71 0 003.71 3.709h56.585a3.71 3.71 0 003.71-3.709V3.593c.001-1.98-1.654-3.584-3.698-3.591z" fill="#ccc"/><path d="M58.006 11.994h-54v45.999a2 2 0 002 2.001h52a2 2 0 002-2.001V11.994h-2z" fill="#fff"/><path d="M40.006 35.995h-16a2 2 0 00-2 1.999c0 5.523 4.477 10 10 10 5.522 0 10-4.477 10-10a2 2 0 00-2-1.999z" fill="#4d4d4d"/><ellipse cx="19.006" cy="29.994" rx="3" ry="4" fill="#4d4d4d"/><ellipse cx="45.006" cy="29.994" rx="3" ry="4" fill="#4d4d4d"/><path d="M46.005 3.995l-.01.001H6.006a2 2 0 000 4h40a2 2 0 00-.001-4.001zm6.001 0a2 2 0 100 4 2 2 0 000-4zm6 0a2 2 0 10.002 4.002 2 2 0 00-.002-4.002z" fill-rule="evenodd" clip-rule="evenodd" fill="#fff"/></svg>