<svg xmlns="http://www.w3.org/2000/svg" width="64.006" height="63.984"><path d="M60.307.003C60.303.003 60.3 0 60.296 0H3.71c-.004 0-.007.003-.011.003C1.655.009 0 1.613 0 3.594v56.681a3.71 3.71 0 003.71 3.71h56.586a3.71 3.71 0 003.71-3.71V3.593c0-1.98-1.655-3.584-3.699-3.59z" fill="#ccc"/><path d="M58.006 11.993h-54v46a2 2 0 002 2.001h52a2 2 0 002-2.001v-46h-2z" fill="#fff"/><path d="M45.929 32.572c-.175-.574-.631-1.001-1.19-1.113l-7.628-1.53-3.747-7.092c-.275-.521-.794-.844-1.357-.844s-1.083.323-1.357.844l-3.747 7.092-7.628 1.53a1.586 1.586 0 00-1.191 1.113 1.719 1.719 0 00.354 1.64l5.298 5.903-.961 8.022a1.691 1.691 0 00.624 1.537 1.493 1.493 0 001.572.166l7.037-3.445 7.036 3.445c.209.103.432.152.653.152.325 0 .647-.107.919-.318.456-.354.695-.943.624-1.537l-.961-8.022 5.299-5.903a1.72 1.72 0 00.351-1.64z" fill="#fc6"/><path d="M46.006 3.993l-.02.002H6.006a2 2 0 000 4h40a2 2 0 000-4.002zm6 0a2.001 2.001 0 10.002 4.002 2.001 2.001 0 00-.002-4.002zm6 0a2.001 2.001 0 10.002 4.002 2.001 2.001 0 00-.002-4.002z" fill-rule="evenodd" clip-rule="evenodd" fill="#fff"/></svg>