<svg xmlns="http://www.w3.org/2000/svg" width="64.006" height="63.983"><path d="M60.307.002L60.296 0H3.71l-.011.002C1.655.009 0 1.613 0 3.594v56.681a3.71 3.71 0 003.71 3.709h56.586a3.71 3.71 0 003.71-3.709V3.593c0-1.98-1.655-3.584-3.699-3.591z" fill="#ccc"/><path d="M58.006 11.994h-54v45.999c0 1.104.896 2.001 2 2.001h52a2 2 0 002-2.001V11.994h-2z" fill="#fff"/><path d="M41.988 34.337c.005-.114.018-.228.018-.343a8 8 0 00-8-8c-3.11 0-5.8 1.779-7.123 4.371a4.985 4.985 0 00-1.877-.371 5 5 0 00-5 5.001c0 .168.033.327.05.49a5.984 5.984 0 00-2.05 4.509 6 6 0 006 6.001h16a5.997 5.997 0 101.982-11.658z" fill-rule="evenodd" clip-rule="evenodd" fill="#48a0dc"/><path d="M46.006 3.995l-.01.001H6.006a2 2 0 000 4h40a2 2 0 000-4.001zm6 0a2 2 0 10.002 4.002 2 2 0 00-.002-4.002zm6 0a2 2 0 10.002 4.002 2 2 0 00-.002-4.002z" fill-rule="evenodd" clip-rule="evenodd" fill="#fff"/></svg>