<svg xmlns="http://www.w3.org/2000/svg" width="64.007" height="63.984"><path d="M60.307.003C60.303.003 60.3 0 60.296 0H3.71c-.004 0-.007.003-.011.003C1.655.009 0 1.614 0 3.595v56.681a3.71 3.71 0 003.71 3.709h56.586a3.71 3.71 0 003.711-3.709V3.594c0-1.98-1.656-3.585-3.7-3.591z" fill="#ccc"/><path d="M58.006 11.994h-54v45.999a2 2 0 002 2.001h52a2 2 0 002-2.001V11.994h-2z" fill="#fff"/><path d="M51.256 23.995h-38.5c-1.519 0-2.75 1.264-2.75 2.824v18.353c0 1.56 1.231 2.823 2.75 2.823h38.5c1.519 0 2.75-1.264 2.75-2.823V26.819c0-1.56-1.232-2.824-2.75-2.824z" fill="#ccc"/><path d="M26.006 34.003h-2v-1.994a1.997 1.997 0 00-2-1.993c-1.104 0-2 .893-2 1.993v1.994h-2c-1.104 0-2 .892-2 1.993s.896 1.993 2 1.993h2v1.991c0 1.101.896 1.993 2 1.993s2-.893 2-1.993v-1.991h2c1.104 0 2-.893 2-1.993a1.997 1.997 0 00-2-1.993z" fill="#536a79"/><ellipse cx="39.006" cy="38.994" rx="3" ry="2.979" fill="#ed7161"/><ellipse cx="47.006" cy="32.998" rx="3" ry="2.979" fill="#48a0dc"/><path d="M46.006 3.994l-.02.002H6.006a2 2 0 000 4h40a2 2 0 002-2v-.001a2 2 0 00-2-2.001zm6 0a2 2 0 10.002 4.002 2 2 0 00-.002-4.002zm6 0a2 2 0 10.002 4.002 2 2 0 00-.002-4.002z" fill-rule="evenodd" clip-rule="evenodd" fill="#fff"/></svg>