<svg xmlns="http://www.w3.org/2000/svg" width="64.006" height="63.983"><path d="M60.307.003C60.303.003 60.3 0 60.296 0H3.711l-.012.003C1.655.009 0 1.612 0 3.594v56.681a3.71 3.71 0 003.711 3.709h56.585a3.71 3.71 0 003.71-3.709V3.593c0-1.981-1.655-3.584-3.699-3.59z" fill="#ccc"/><path d="M58.006 11.994h-54v45.999a2 2 0 002 2h52a2 2 0 002-2V11.994h-2z" fill="#fff"/><path d="M39.417 34.473l-5.841-5.861a2.034 2.034 0 00-1.151-.572 1.991 1.991 0 00-1.848.558c-.018.016-.038.025-.056.042l-5.866 5.847a2.062 2.062 0 000 2.923 2.079 2.079 0 002.934 0L30.006 35v10.995a2 2 0 004 0v-11.09l2.49 2.499a2.061 2.061 0 002.921 0 2.077 2.077 0 000-2.931z" fill-rule="evenodd" clip-rule="evenodd" fill="#88c057"/><path d="M46.006 3.994l-.01.001H6.006a2 2 0 000 4h40a2.002 2.002 0 000-4.001zm6 0a2 2 0 10.002 4.002 2 2 0 00-.002-4.002zm6 0a2 2 0 10.002 4.002 2 2 0 00-.002-4.002z" fill-rule="evenodd" clip-rule="evenodd" fill="#fff"/></svg>