<svg xmlns="http://www.w3.org/2000/svg" width="64.006" height="64.046"><path d="M60.307.002L60.296 0H3.71l-.011.002C1.655.008 0 1.615 0 3.598v56.736a3.712 3.712 0 003.71 3.713h56.586a3.712 3.712 0 003.71-3.713V3.598c0-1.983-1.655-3.59-3.699-3.596z" fill="#ccc"/><path d="M58.006 12.006h-54V58.05c0 1.106.896 2.003 2 2.003h52c1.104 0 2-.896 2-2.003V12.006h-2z" fill="#fff"/><path d="M20.006 36.02a2 2 0 10-4.001.001 2 2 0 004.001-.001zm1.732 5a1.999 1.999 0 10-3.463 2 2 2 0 103.463-2z" fill-rule="evenodd" clip-rule="evenodd" fill="#ccc"/><path d="M32.006 20.02a2 2 0 100 4 2 2 0 000-4zm7 2.267a2 2 0 10-2 3.466 2 2 0 002-3.466z" fill-rule="evenodd" clip-rule="evenodd" fill="#999"/><path d="M21.007 28.287a1.999 1.999 0 00-2.732.732 2 2 0 102.732-.732zm6.73-5.267a2 2 0 10-3.463 2 2 2 0 003.463-2z" fill-rule="evenodd" clip-rule="evenodd" fill="#b3b3b3"/><path d="M32.006 48.02a2 2 0 10.001 4.001 2 2 0 00-.001-4.001zm-5-1.734a2 2 0 10-2 3.466 2 2 0 002-3.466z" fill-rule="evenodd" clip-rule="evenodd" fill="#e6e6e6"/><path d="M45.737 29.02a1.999 1.999 0 10-3.463 1.997 1.999 1.999 0 003.463-1.997zm.269 5a2 2 0 10.001 4.001 2 2 0 00-.001-4.001z" fill-rule="evenodd" clip-rule="evenodd" fill="gray"/><path d="M46.006 3.999c-.07 0-.136.014-.203.021H6.006a2 2 0 000 4h40a2 2 0 002-2l-.001-.009.001-.009a2.001 2.001 0 00-2-2.003zm6 0a2.001 2.001 0 000 4.004 2.001 2.001 0 100-4.004zm6 0a2.001 2.001 0 000 4.004 2.001 2.001 0 100-4.004z" fill-rule="evenodd" clip-rule="evenodd" fill="#fff"/></svg>