<svg xmlns="http://www.w3.org/2000/svg" width="64.006" height="64.046"><path d="M60.307.002L60.296 0H3.71l-.011.002C1.655.008 0 1.615 0 3.598v56.736a3.712 3.712 0 003.71 3.713h56.586a3.712 3.712 0 003.71-3.713V3.598c0-1.983-1.655-3.59-3.699-3.596z" fill="#ccc"/><path d="M58.006 12.006h-54V58.05c0 1.106.896 2.003 2 2.003h52c1.104 0 2-.896 2-2.003V12.006h-2z" fill="#fff"/><path d="M20.601 30.09c-1.028-.219-2.104.335-2.403 1.238L17.02 34.88l-1.031-3.315c-.013-.021-.026-.025-.039-.043a1.807 1.807 0 00-.956-1.254c-.952-.498-2.169-.202-2.719.662l-1.406 4.383-1.063-3.986c-.298-.902-1.374-1.455-2.403-1.234-1.028.221-1.621 1.132-1.322 2.035l2.158 6.539a1.98 1.98 0 002.222 1.313c.567-.036.996-.529 1.281-.978l2.246-3.534 2.268 3.59c.296.469.787.765 1.324.866l.016.002c.097.018.194.032.293.037.03.001.061.011.09.011.049-.001.084-.014.131-.017.088-.005.174-.017.261-.033.349-.054.63-.176.847-.378l.012-.013c.22-.209.394-.483.521-.868l2.169-6.541c.3-.904-.291-1.814-1.319-2.034zm18 0c-1.028-.219-2.104.335-2.403 1.238L35.02 34.88l-1.031-3.315c-.013-.021-.026-.025-.039-.043a1.807 1.807 0 00-.956-1.254c-.952-.498-2.169-.202-2.719.662l-1.406 4.383-1.063-3.986c-.298-.902-1.374-1.455-2.403-1.234-1.028.221-1.621 1.132-1.322 2.035l2.158 6.539a1.98 1.98 0 002.222 1.313c.567-.036.996-.529 1.281-.978l2.246-3.534 2.268 3.59c.296.469.787.765 1.324.866l.016.002c.097.018.194.032.293.037.03.001.061.011.09.011.049-.001.084-.014.131-.017.088-.005.174-.017.261-.033.349-.054.63-.176.847-.378l.012-.013c.22-.209.394-.483.521-.868l2.169-6.541c.3-.904-.291-1.814-1.319-2.034zm18 0c-1.028-.219-2.104.335-2.403 1.238L53.02 34.88l-1.031-3.315c-.013-.021-.026-.025-.039-.043a1.807 1.807 0 00-.956-1.254c-.952-.498-2.169-.202-2.719.662l-1.406 4.383-1.063-3.986c-.298-.902-1.374-1.455-2.403-1.234-1.028.221-1.621 1.132-1.322 2.035l2.158 6.539a1.98 1.98 0 002.222 1.313c.567-.036.996-.529 1.281-.978l2.246-3.534 2.268 3.59c.296.469.787.765 1.324.866l.016.002c.097.018.194.032.293.037.03.001.061.011.09.011.049-.001.084-.014.131-.017.088-.005.174-.017.261-.033.349-.054.63-.176.847-.378l.012-.013c.22-.209.394-.483.521-.868l2.169-6.541c.3-.904-.291-1.814-1.319-2.034z" fill-rule="evenodd" clip-rule="evenodd" fill="#9b7cab"/><path d="M46.006 3.999c-.07 0-.136.014-.203.021H6.006a2 2 0 000 4h40a2 2 0 002-2l-.001-.009.001-.009a2.001 2.001 0 00-2-2.003zm6 0a2.001 2.001 0 000 4.004 2.001 2.001 0 100-4.004zm6 0a2.001 2.001 0 000 4.004 2.001 2.001 0 100-4.004z" fill-rule="evenodd" clip-rule="evenodd" fill="#fff"/></svg>