<svg xmlns="http://www.w3.org/2000/svg" width="64.006" height="63.983"><path d="M60.307.003C60.303.003 60.3 0 60.296 0H3.71c-.003 0-.007.003-.011.003C1.655.009 0 1.612 0 3.594v56.681a3.71 3.71 0 003.71 3.709h56.586c2.05 0 3.71-1.66 3.71-3.709V3.593c0-1.981-1.655-3.584-3.699-3.59z" fill="#ccc"/><path d="M58.006 11.994h-54v45.999a2 2 0 002 2h52a2 2 0 002-2V11.994h-2z" fill="#fff"/><path d="M42.006 31.995a2 2 0 00-3.415-1.413l-8.585 8.585-4.585-4.585a2 2 0 10-2.828 2.828l5.998 5.998c.361.362.862.587 1.415.587s1.054-.225 1.415-.587l9.998-9.998c.362-.362.587-.862.587-1.415z" fill-rule="evenodd" clip-rule="evenodd" fill="#88c057"/><path d="M46.006 3.994l-.01.001H6.006a2 2 0 000 4h40a2.002 2.002 0 000-4.001zm6 0a2 2 0 10.002 4.002 2 2 0 00-.002-4.002zm6 0a2 2 0 10.002 4.002 2 2 0 00-.002-4.002z" fill-rule="evenodd" clip-rule="evenodd" fill="#fff"/></svg>