<svg xmlns="http://www.w3.org/2000/svg" width="64.007" height="63.983"><path d="M60.307.002L60.296 0H3.71l-.011.002C1.655.009 0 1.613 0 3.594v56.681a3.71 3.71 0 003.71 3.709h56.586a3.71 3.71 0 003.711-3.709V3.593c0-1.98-1.656-3.584-3.7-3.591z" fill="#ccc"/><path d="M58.006 11.994h-54v45.999c0 1.104.896 2.001 2 2.001h52a2 2 0 002-2.001V11.994h-2z" fill="#fff"/><path d="M32.006 22.646a8.977 8.977 0 01-7 3.35 8.96 8.96 0 01-5-1.518V38.03c0 5.536 7.984 11.964 11.925 11.964 4.2 0 12.075-6.428 12.075-11.964V24.478a8.96 8.96 0 01-5 1.518 8.977 8.977 0 01-7-3.35z" fill-rule="evenodd" clip-rule="evenodd" fill="#88c057"/><path d="M37.57 32.447c-.566-.632-1.484-.632-2.05 0l-5.238 5.638-1.82-2.033c-.579-.647-1.518-.647-2.097 0-.579.646-.579 1.694 0 2.34l2.758 3.082c.15.167.325.289.511.37.535.271 1.186.167 1.625-.322l6.312-6.789c.565-.632.565-1.655-.001-2.286zm8.436-28.452l-.01.001H6.006a2 2 0 000 4h40a2 2 0 000-4.001zm6 0a2 2 0 10.002 4.002 2 2 0 00-.002-4.002zm6 0a2 2 0 10.002 4.002 2 2 0 00-.002-4.002z" fill-rule="evenodd" clip-rule="evenodd" fill="#fff"/></svg>