<svg xmlns="http://www.w3.org/2000/svg" width="64.006" height="64.046"><path d="M60.307.002L60.296 0H3.71l-.011.002C1.655.008 0 1.615 0 3.598v56.736a3.712 3.712 0 003.71 3.713h56.586a3.712 3.712 0 003.71-3.713V3.598c0-1.983-1.655-3.59-3.699-3.596z" fill="#ccc"/><path d="M58.006 12.006h-54V58.05c0 1.106.896 2.003 2 2.003h52c1.104 0 2-.896 2-2.003V12.006h-2z" fill="#fff"/><path d="M20.463 38.012l-4.465 4.465a6.762 6.762 0 000 9.563 6.76 6.76 0 009.563 0l4.466-4.465a6.763 6.763 0 00-9.564-9.563zm6.476 7.222l-3.719 3.719a2.904 2.904 0 01-4.105-4.105l3.719-3.719a2.902 2.902 0 114.105 4.105zm21.087-25.222a6.762 6.762 0 00-9.563 0l-4.465 4.465c-2.641 2.641-2.641 6.922 0 9.563s6.923 2.641 9.563 0l4.466-4.465a6.763 6.763 0 00-.001-9.563zm-3.087 7.222l-3.719 3.719a2.904 2.904 0 01-4.105-4.105l3.719-3.719a2.902 2.902 0 114.105 4.105z" fill-rule="evenodd" clip-rule="evenodd" fill="#ed7161"/><path d="M30.006 34.724l-5.34 5.34a2.291 2.291 0 000 3.242 2.291 2.291 0 003.242 0l5.286-5.286h-3.188v-3.296zm9.286-6.044a2.291 2.291 0 00-3.242 0l-4.044 4.044v3.296h3.188l4.098-4.098a2.291 2.291 0 000-3.242z" fill-rule="evenodd" clip-rule="evenodd" fill="#ba594c"/><path d="M46.006 3.999c-.069 0-.136.014-.203.021H6.006a2 2 0 000 4h40a2 2 0 002-2l-.001-.009.001-.009a2.001 2.001 0 00-2-2.003zm6 0a2.001 2.001 0 000 4.004 2.001 2.001 0 100-4.004zm6 0a2.001 2.001 0 000 4.004 2.001 2.001 0 100-4.004z" fill-rule="evenodd" clip-rule="evenodd" fill="#fff"/></svg>