<svg xmlns="http://www.w3.org/2000/svg" width="64.006" height="64.046"><path d="M60.307.002L60.296 0H3.71l-.011.002C1.655.008 0 1.615 0 3.598v56.736a3.712 3.712 0 003.71 3.713h56.586a3.712 3.712 0 003.71-3.713V3.598c0-1.983-1.655-3.59-3.699-3.596z" fill="#ccc"/><path d="M58.006 12.006h-54V58.05c0 1.106.896 2.003 2 2.003h52c1.104 0 2-.896 2-2.003V12.006h-2z" fill="#fff"/><path d="M58.006 12.006h-34v47.951h1.671c.107.018.216.033.329.033h32a2 2 0 002-2V12.006h-2z" fill-rule="evenodd" clip-rule="evenodd" fill="#48a0dc"/><path d="M42.008 36.018c0-.563-.234-1.071-.607-1.436-.015-.017-.023-.036-.039-.052l-5.846-5.881a2.055 2.055 0 00-2.922 0 2.086 2.086 0 000 2.94l2.408 2.423H24.008a2.003 2.003 0 00-2.001 2.005c0 1.108.896 2.006 2.001 2.006h11.089l-2.499 2.498a2.068 2.068 0 000 2.928 2.073 2.073 0 002.931 0l5.86-5.856a2.04 2.04 0 00.573-1.153c.029-.136.046-.278.046-.422zm3.998-32.019c-.07 0-.136.014-.203.021H6.006a2 2 0 000 4h40a2 2 0 002-2l-.001-.009.001-.009a2.001 2.001 0 00-2-2.003zm6 0a2.001 2.001 0 000 4.004 2.001 2.001 0 100-4.004zm6 0a2.001 2.001 0 000 4.004 2.001 2.001 0 100-4.004z" fill-rule="evenodd" clip-rule="evenodd" fill="#fff"/></svg>