<svg xmlns="http://www.w3.org/2000/svg" width="64.006" height="63.982"><path d="M60.307.001L60.296 0H3.71l-.011.001C1.655.008 0 1.611 0 3.593v56.68a3.71 3.71 0 003.71 3.71h56.586a3.71 3.71 0 003.71-3.71V3.593c0-1.982-1.655-3.585-3.699-3.592z" fill="#ccc"/><path d="M58.006 11.992h-54v46.001a2 2 0 002 1.999h52a2 2 0 002-1.999V11.992h-2z" fill="#fff"/><path d="M33.006 21.993c-8.284 0-15 6.716-15 15 0 8.283 6.716 14.999 15 14.999s15-6.716 15-14.999c0-8.284-6.716-15-15-15zm0 27.187c-6.731 0-12.188-5.456-12.188-12.187s5.456-12.188 12.188-12.188c6.73 0 12.188 5.457 12.188 12.188S39.736 49.18 33.006 49.18zm-7.794-4.393l9.782-5.805 5.806-9.784-9.783 5.806-5.805 9.783z" fill-rule="evenodd" clip-rule="evenodd" fill="#4d4d4d"/><path d="M46.006 3.992l-.02.002H6.006a2 2 0 000 4h40a2.001 2.001 0 000-4.002zm6 0a2 2 0 10.002 4.002 2 2 0 00-.002-4.002zm6 0a2 2 0 10.002 4.002 2 2 0 00-.002-4.002z" fill-rule="evenodd" clip-rule="evenodd" fill="#fff"/></svg>