<svg xmlns="http://www.w3.org/2000/svg" width="64.006" height="63.982"><path d="M60.307.001L60.296 0H3.71l-.011.001C1.655.008 0 1.611 0 3.593v56.68a3.71 3.71 0 003.71 3.71h56.586a3.71 3.71 0 003.71-3.71V3.593c0-1.982-1.655-3.585-3.699-3.592z" fill="#ccc"/><path d="M58.006 11.992h-54v46.001a2 2 0 002 1.999h52a2 2 0 002-1.999V11.992h-2z" fill="#fff"/><path d="M45.868 36.719c.214-1.462.177-2.762-.117-3.896-.105.842-.22 1.351-.335 1.552-.001-.033-.017-.94-.3-2.204a14.347 14.347 0 00-.565-2.467c.067.37.104.679.122.954-1.08-3.016-3.745-6.752-10.382-6.664 0 0 2.324.253 3.418 1.959 0 0-.477-.099-1.034-.066l-.006.001c-.305.018-.626.064-.924.213.951.391 1.774.799 2.496 1.224.127.075.25.145.378.229.095.06.177.121.268.183 1.459 1.02 2.857 2.5 2.755 4.435-.304-.492-.706-.815-1.222-.977.636 2.57.699 4.69.184 6.364-.353-1.116-.678-1.784-.968-2.019.403 3.442-.142 5.988-1.631 7.647.282-1.014.396-1.843.331-2.496-1.75 2.724-3.741 4.132-5.973 4.221a7.984 7.984 0 01-2.5-.412c-1.15-.4-2.193-1.086-3.12-2.06 1.448.125 2.77-.133 3.933-.744l1.906-1.284-.007-.007a.851.851 0 01.706.021c.466-.065.628-.322.473-.756-.226-.322-.564-.615-1.002-.873-.954-.514-1.949-.434-2.987.25-.988.58-1.941.557-2.867-.061-.607-.432-1.193-1.012-1.758-1.738l-.227-.345v-.007c.028-.721.316-1.115.867-1.203-.128-.012-.221-.021-.323-.029l.325.029c.621.058 1.335.205 2.14.446.134-.8-.043-1.637-.529-2.495v-.015c.755-.728 1.426-1.255 1.998-1.592a.86.86 0 00.451-.64c.008-.008.015-.015.021-.015l.007-.007.028-.029c.148-.229.099-.411-.155-.573a6.133 6.133 0 01-1.589-.117l-.007.022c-.219-.066-.494-.265-.833-.602l-.869-.882-.261-.212v.027h-.007l.007-.035-.05-.053c.028-.014.05-.036.07-.05.12-.668.318-1.241.601-1.733l.063-.059c.283-.483.826-1.005 1.625-1.562-1.483.189-2.825.88-4.019 2.068-.988-.374-2.16-.293-3.509.243l-.163.125-.009.004.172-.129.006-.009c-.847-.402-1.418-1.555-1.693-3.441-1.081 1.102-1.604 3.068-1.568 5.908a13.53 13.53 0 00-.307.479c-.025.021-.058.036-.083.059-.008 0-.015.008-.015.016-.008 0-.008.009-.008.009a.036.036 0 00-.016.03c-.165.265-.39.663-.676 1.202a4.63 4.63 0 00-.574 1.934l-.018.023c0 .02.006.035.006.055-.002.033-.015.076-.016.11.008-.015.016-.023.023-.037.003.128.005.257.036.372l.876-.742a10.753 10.753 0 00-.636 2.643c-.016.15.005.299-.005.451l-.295-.347c0 3.321 1.028 6.393 2.762 8.911.012.018.019.036.031.056.025.034.054.063.08.098a15.198 15.198 0 004.646 4.311 13.78 13.78 0 004.233 1.699c.106.023.211.052.318.074.309.061.624.106.94.147.243.033.485.064.731.086.105.008.206.029.312.036.151.01.296-.002.445.003.167.005.331.025.5.025.133 0 .262-.017.394-.021a14.508 14.508 0 001.777-.158c.079-.013.158-.023.235-.038 7.138-1.188 12.595-7.545 12.595-15.229-.042.063-.086.115-.133.176zm-20.581 3.363c-.267-.962-.399-1.79-.407-2.488.008.698.141 1.525.407 2.488.019.043.044.081.063.125-.019-.044-.045-.081-.063-.125z" fill="#ed7161"/><path d="M46.006 3.992l-.02.002H6.006a2 2 0 000 4h40a2.001 2.001 0 000-4.002zm6 0a2 2 0 10.002 4.002 2 2 0 00-.002-4.002zm6 0a2 2 0 10.002 4.002 2 2 0 00-.002-4.002z" fill-rule="evenodd" clip-rule="evenodd" fill="#fff"/></svg>