<svg xmlns="http://www.w3.org/2000/svg" width="64.006" height="63.983"><path d="M60.307.003C60.303.003 60.3 0 60.296 0H3.711l-.012.003C1.655.009 0 1.612 0 3.593v56.682a3.71 3.71 0 003.711 3.709h56.585a3.71 3.71 0 003.71-3.709V3.592c0-1.98-1.655-3.583-3.699-3.589z" fill="#ccc"/><path d="M58.006 11.993h-54v46a2 2 0 002 2h52a2 2 0 002-2v-46h-2z" fill="#fff"/><path d="M52.006 17.993h-40a2 2 0 00-2 2.001v5.998a2 2 0 002 2.001h40a2 2 0 002-2.001v-5.998a2 2 0 00-2-2.001zm-36 13.999h-4a2 2 0 00-2 2.001v8c0 1.104.896 2.001 2 2.001h4a2 2 0 002-2.001v-8a2.002 2.002 0 00-2-2.001zm36 0h-28a2 2 0 000 4.001h28a2 2 0 000-4.001zm0 8.001h-28a2 2 0 000 4.001h28a2 2 0 000-4.001zm0 8h-8a2 2 0 000 4.001h8a2 2 0 000-4.001z" fill-rule="evenodd" clip-rule="evenodd" fill="#48a0dc"/><path d="M46.006 3.993a2.001 2.001 0 10.002 4.002 2.001 2.001 0 00-.002-4.002zm6 0a2.001 2.001 0 10.002 4.002 2.001 2.001 0 00-.002-4.002zm6 0a2.001 2.001 0 10.002 4.002 2.001 2.001 0 00-.002-4.002z" fill-rule="evenodd" clip-rule="evenodd" fill="#fff"/><path d="M46.006 3.995h-40a2 2 0 000 4h40a2 2 0 000-4z" fill="#fff"/></svg>