<svg xmlns="http://www.w3.org/2000/svg" width="64.006" height="63.984"><path d="M60.307.003C60.303.003 60.3 0 60.296 0H3.71c-.004 0-.007.003-.011.003C1.655.009 0 1.614 0 3.595v56.681a3.71 3.71 0 003.71 3.709h56.586a3.71 3.71 0 003.71-3.709V3.594c0-1.98-1.655-3.585-3.699-3.591z" fill="#ccc"/><path d="M58.006 11.994h-54v45.999a2 2 0 002 2.001h52a2 2 0 002-2.001V11.994h-2z" fill="#fff"/><path d="M27.006 43.993a3 3 0 100 6 3 3 0 000-6zm12 0a3 3 0 100 6 3 3 0 000-6zm6.965-16.171c-.005-.04-.016-.076-.022-.115-.145-.962-.939-1.714-1.942-1.714h-20v-1.999a2 2 0 00-2-2h-2a2 2 0 100 3.999v1.999c0 .304.078.584.198.841.006.012.016.021.022.032.122.25.295.459.505.638l2.345 8.749c-.628.338-1.07.979-1.07 1.742a2 2 0 002 1.999h18a2 2 0 002-1.999c0-.711-.393-1.306-.951-1.661l2.863-9.744c.024-.084.005-.165.018-.247.021-.118.07-.225.07-.35-.001-.058-.03-.111-.036-.17zm-7.465 10.17H27.147l-2.144-7.998h15.852l-2.349 7.998z" fill="#88c057"/><path d="M46.006 3.994l-.02.002H6.006a2 2 0 000 4h40a2 2 0 002-2v-.001a2 2 0 00-2-2.001zm6 0a2 2 0 10.002 4.002 2 2 0 00-.002-4.002zm6 0a2 2 0 10.002 4.002 2 2 0 00-.002-4.002z" fill-rule="evenodd" clip-rule="evenodd" fill="#fff"/></svg>