<svg xmlns="http://www.w3.org/2000/svg" width="64.008" height="64.046"><path d="M36.307.002L36.296 0H3.71l-.011.002C1.655.008 0 1.615 0 3.598v56.736a3.712 3.712 0 003.71 3.713h32.586a3.712 3.712 0 003.71-3.713V3.598c0-1.983-1.655-3.59-3.699-3.596z" fill="#88c057"/><path d="M34.006 12.006h-30V58.05c0 1.106.896 2.003 2 2.003h28c1.104 0 2-.896 2-2.003V12.006h-2z" fill="#fff"/><path d="M64.008 31.987c0-.564-.233-1.073-.607-1.438-.015-.016-.023-.036-.039-.052l-5.846-5.889a2.055 2.055 0 00-2.922 0 2.09 2.09 0 000 2.944l2.408 2.426H46.008a2.005 2.005 0 00-2.001 2.009c0 1.108.896 2.008 2.001 2.008h11.089l-2.499 2.501a2.074 2.074 0 002.932 2.932l5.859-5.864c.325-.325.51-.732.573-1.154a2.03 2.03 0 00.046-.423z" fill-rule="evenodd" clip-rule="evenodd" fill="#88c057"/><path d="M22.006 3.999c-.069 0-.136.014-.203.021H6.006a2 2 0 000 4h16a2 2 0 002-2l-.001-.009.001-.009a2.001 2.001 0 00-2-2.003zm6 0a2.001 2.001 0 000 4.004 2.001 2.001 0 100-4.004zm6 0a2.001 2.001 0 000 4.004 2.001 2.001 0 100-4.004z" fill-rule="evenodd" clip-rule="evenodd" fill="#fff"/></svg>