<svg xmlns="http://www.w3.org/2000/svg" width="64.006" height="64.046"><path d="M60.307.002L60.296 0H3.71l-.011.002C1.655.008 0 1.615 0 3.598v56.736a3.712 3.712 0 003.71 3.713h56.586a3.712 3.712 0 003.71-3.713V3.598c0-1.983-1.655-3.59-3.699-3.596z" fill="#ccc"/><path d="M58.006 12.006h-54V58.05c0 1.106.896 2.003 2 2.003h52c1.104 0 2-.896 2-2.003V12.006h-2z" fill="#fff"/><path d="M52.006 16.02h-40a4 4 0 00-4 4v32a4 4 0 004 3.999h40a4 4 0 004-3.999v-32a4 4 0 00-4-4zm0 34a2 2 0 01-2 2h-36a2 2 0 01-2-2v-28a2 2 0 012-2h36a2 2 0 012 2v28z" fill-rule="evenodd" clip-rule="evenodd" fill="#ccc"/><path d="M43.339 44.15l-4.859-4.858a9.932 9.932 0 001.519-5.278c0-5.521-4.476-9.996-9.996-9.996s-9.996 4.476-9.996 9.996c0 5.521 4.476 9.997 9.996 9.997 1.94 0 3.745-.562 5.278-1.519l4.858 4.857a2.262 2.262 0 103.2-3.199zm-13.337-4.132a6.003 6.003 0 110-12.007 6.003 6.003 0 010 12.007z" fill-rule="evenodd" clip-rule="evenodd" fill="#48a0dc"/><path d="M46.006 3.999c-.069 0-.136.014-.203.021H6.006a2 2 0 000 4h40a2 2 0 002-2l-.001-.009.001-.009a2.001 2.001 0 00-2-2.003zm6 0a2.001 2.001 0 000 4.004 2.001 2.001 0 100-4.004zm6 0a2.001 2.001 0 000 4.004 2.001 2.001 0 100-4.004z" fill-rule="evenodd" clip-rule="evenodd" fill="#fff"/></svg>