<svg xmlns="http://www.w3.org/2000/svg" width="64.006" height="63.984"><path d="M60.307.003C60.303.003 60.3 0 60.296 0H3.71c-.004 0-.007.003-.011.003C1.655.009 0 1.614 0 3.595v56.681a3.71 3.71 0 003.71 3.709h56.586a3.71 3.71 0 003.71-3.709V3.594c0-1.98-1.655-3.585-3.699-3.591z" fill="#ccc"/><path d="M58.006 11.994h-54v45.999a2 2 0 002 2.001h52a2 2 0 002-2.001V11.994h-2z" fill="#fff"/><path fill="#ccc" d="M41.867 40.004l-17.694.019-6.167 9.965h29.986z"/><path d="M33.003 21.993c-4.96 0-8.981 3.728-8.981 8.327 0 .183.17 2.666.83 3.783 2.223 4.725 8.142 9.935 8.151 9.917.008.026 5.952-5.213 8.165-9.943.771-1.527.816-3.667.816-3.757 0-4.599-4.021-8.327-8.981-8.327zm.025 12.019a3.01 3.01 0 01-3-3.02c0-1.669 1.343-3.021 3-3.021s3.001 1.352 3.001 3.021a3.01 3.01 0 01-3.001 3.02z" fill-rule="evenodd" clip-rule="evenodd" fill="#48a0dc"/><path d="M46.006 3.994l-.02.002H6.006a2 2 0 000 4h40a2 2 0 002-2v-.001a2 2 0 00-2-2.001zm6 0a2 2 0 10.002 4.002 2 2 0 00-.002-4.002zm6 0a2 2 0 10.002 4.002 2 2 0 00-.002-4.002z" fill-rule="evenodd" clip-rule="evenodd" fill="#fff"/></svg>