<svg xmlns="http://www.w3.org/2000/svg" width="64.006" height="63.983"><path d="M60.307.002L60.296 0H3.71l-.011.002C1.655.009 0 1.613 0 3.594v56.681a3.71 3.71 0 003.71 3.709h56.586a3.71 3.71 0 003.71-3.709V3.593c0-1.98-1.655-3.584-3.699-3.591z" fill="#ccc"/><path d="M58.006 11.994h-54v45.999c0 1.104.896 2.001 2 2.001h52a2 2 0 002-2.001V11.994h-2z" fill="#fff"/><path d="M34.006 31.994a2 2 0 002 2h8s2-.027 2-2v-8a2 2 0 00-4 0v2.348c-2.518-2.66-6.035-4.348-10-4.348-7.732 0-14 6.268-14 14.001 0 7.731 6.268 13.999 14 13.999 7.047 0 12.82-5.224 13.798-12h-4c-.927 4.564-4.96 8.001-9.798 8.001-5.523 0-10-4.479-10-10 0-5.523 4.477-10.001 10-10.001 3.262 0 6.132 1.582 7.957 4h-3.957a2 2 0 00-2 2z" fill="#48a0dc"/><path d="M46.006 3.995l-.01.001H6.006a2 2 0 000 4h40a2 2 0 000-4.001zm6 0a2 2 0 10.002 4.002 2 2 0 00-.002-4.002zm6 0a2 2 0 10.002 4.002 2 2 0 00-.002-4.002z" fill-rule="evenodd" clip-rule="evenodd" fill="#fff"/></svg>