<svg xmlns="http://www.w3.org/2000/svg" width="64.006" height="64.046"><path d="M60.307.002L60.296 0H3.71l-.011.002C1.655.008 0 1.615 0 3.598v56.736a3.712 3.712 0 003.71 3.713h56.585a3.712 3.712 0 003.71-3.713V3.598c.001-1.983-1.654-3.59-3.698-3.596z" fill="#ccc"/><path d="M58.006 12.006h-54V58.05c0 1.106.895 2.003 2 2.003h52c1.104 0 2-.896 2-2.003V12.006h-2z" fill="#fff"/><path d="M47.606 45.172c.424-.698.686-1.493.686-2.353 0-2.651-2.303-4.8-5.143-4.8H39.72c-.947 0-1.714.716-1.714 1.6v12.8c0 .884.767 1.601 1.714 1.601h5.143c2.84 0 5.143-2.149 5.143-4.801-.001-1.707-.962-3.197-2.4-4.047zm-6.172-3.953h1.714c.947 0 1.714.717 1.714 1.601s-.768 1.6-1.714 1.6h-1.714v-3.201zm3.429 9.6h-3.429v-3.2h3.429c.947 0 1.714.717 1.714 1.6 0 .884-.767 1.6-1.714 1.6zm-5.807-16.936c.819.317 1.725-.133 2.023-1.003l.284-.86h5.298l.271.816c.298.866 1.204 1.313 2.024.998.819-.315 1.242-1.273.943-2.139l-4.32-12.543c-.298-.866-.964-1.133-1.573-1.133-.61 0-1.275.219-1.574 1.09l-4.32 12.621c-.299.873.124 1.835.944 2.153zm4.95-9.863l1.991 6h-3.973l1.982-6z" fill-rule="evenodd" clip-rule="evenodd" fill="#999"/><path d="M24.005 38.02h-8a4 4 0 00-4 4v8a4 4 0 004 4h8a4 4 0 004-4v-8c0-2.21-1.79-4-4-4zm0 10a2 2 0 01-2 2h-4a2 2 0 01-2-2v-4a2 2 0 012-2h4a2 2 0 012 2v4z" fill-rule="evenodd" clip-rule="evenodd" fill="#ccc"/><path d="M24.005 18.02h-8a4 4 0 00-4 4v8a4 4 0 004 3.999h8a4 4 0 004-3.999v-8a4 4 0 00-4-4zm-.303 6.255l-3.994 5.27c-.305.402-.754.485-1.125.266a1.026 1.026 0 01-.363-.306l-1.92-2.541c-.403-.533-.403-1.397 0-1.931.403-.533 1.057-.533 1.46 0l1.255 1.66 3.26-4.302c.395-.521 1.033-.521 1.427 0s.394 1.364 0 1.884z" fill-rule="evenodd" clip-rule="evenodd" fill="#48a0dc"/><path d="M46.005 3.999c-.07 0-.135.014-.203.021H6.006a2 2 0 000 4h40a2 2 0 002-2l-.001-.009.001-.009a2.002 2.002 0 00-2.001-2.003zm6.001 0a2 2 0 00-2 2.003 2 2 0 102-2.003zm6 0a2.001 2.001 0 000 4.004 2.001 2.001 0 100-4.004z" fill-rule="evenodd" clip-rule="evenodd" fill="#fff"/></svg>