<svg xmlns="http://www.w3.org/2000/svg" width="64.002" height="64.046"><path d="M60.303.002L60.292 0H27.706l-.011.002c-2.044.006-3.699 1.613-3.699 3.596v56.736a3.712 3.712 0 003.71 3.713h32.586a3.712 3.712 0 003.71-3.713V3.598c0-1.983-1.655-3.59-3.699-3.596z" fill="#fc6"/><path d="M58.002 12.006h-30V58.05c0 1.106.895 2.003 2 2.003h28c1.104 0 2-.896 2-2.003V12.006h-2z" fill="#fff"/><path d="M18 30.044H6.91l2.499-2.501a2.073 2.073 0 10-2.931-2.932L.619 30.475c-.325.325-.51.732-.573 1.155a2.007 2.007 0 00.558 1.858c.016.017.024.037.041.054l5.847 5.889a2.055 2.055 0 002.922 0 2.091 2.091 0 000-2.943L7.006 34.06H18a2.005 2.005 0 002.001-2.008c0-1.11-.896-2.008-2.001-2.008z" fill-rule="evenodd" clip-rule="evenodd" fill="#fc6"/><path d="M46.002 3.999c-.069 0-.136.014-.203.021H30.002a2 2 0 000 4h16a2 2 0 002-2l-.001-.009.001-.009a2.001 2.001 0 00-2-2.003zm6 0a2.001 2.001 0 000 4.004 2.001 2.001 0 100-4.004zm6 0a2.001 2.001 0 000 4.004 2.001 2.001 0 100-4.004z" fill-rule="evenodd" clip-rule="evenodd" fill="#fff"/></svg>