<svg xmlns="http://www.w3.org/2000/svg" width="64.006" height="64.046"><path d="M60.307.002L60.296 0H3.71l-.011.002C1.655.008 0 1.615 0 3.598v26.736a3.712 3.712 0 003.71 3.713h56.586a3.712 3.712 0 003.71-3.713V3.598c0-1.983-1.655-3.59-3.699-3.596z" fill="#ccc"/><path d="M58.006 12.006h-54V28.05c0 1.106.896 2.003 2 2.003h52c1.104 0 2-.896 2-2.003V12.006h-2z" fill="#fff"/><path d="M46.006 3.999c-.069 0-.136.014-.203.021H6.006a2 2 0 000 4h40a2 2 0 002-2l-.001-.009.001-.009a2.001 2.001 0 00-2-2.003zm6 0a2.001 2.001 0 000 4.004 2.001 2.001 0 100-4.004zm6 0a2.001 2.001 0 000 4.004 2.001 2.001 0 100-4.004z" fill-rule="evenodd" clip-rule="evenodd" fill="#fff"/><path d="M60.307 30.002L60.296 30H3.71l-.011.002C1.655 30.008 0 31.615 0 33.598v26.736a3.712 3.712 0 003.71 3.713h56.586a3.712 3.712 0 003.71-3.713V33.597c0-1.982-1.655-3.589-3.699-3.595z" fill="#ccc"/><path d="M58.006 42.006h-54V58.05c0 1.106.896 2.003 2 2.003h52c1.104 0 2-.896 2-2.003V42.006h-2z" fill="#fff"/><path d="M46.006 33.998c-.073 0-.142.014-.213.021H6.006a2 2 0 000 4h40a2 2 0 002-2l-.001-.009.001-.009a2.002 2.002 0 00-2-2.003zm6 0a2.002 2.002 0 000 4.005 2.002 2.002 0 100-4.005zm6 0a2.002 2.002 0 000 4.005 2.002 2.002 0 100-4.005z" fill-rule="evenodd" clip-rule="evenodd" fill="#fff"/></svg>