<svg xmlns="http://www.w3.org/2000/svg" width="64.006" height="63.984"><path d="M60.307.003C60.303.003 60.3 0 60.296 0H3.71c-.004 0-.007.003-.011.003C1.655.009 0 1.613 0 3.594v56.681a3.71 3.71 0 003.71 3.71h56.586a3.71 3.71 0 003.71-3.71V3.593c0-1.98-1.655-3.584-3.699-3.59z" fill="#ccc"/><path d="M58.006 11.993h-54v46a2 2 0 002 2.001h52a2 2 0 002-2.001v-46h-2z" fill="#fff"/><path d="M20.006 21.993h-8a2 2 0 00-2 2v7.999c0 1.106.896 2.002 2 2.002h8c1.104 0 2-.896 2-2.002v-7.999a2 2 0 00-2-2zm0 9.999h-8v-7.999h8v7.999zm16-9.999h-8a2 2 0 00-2 2v7.999c0 1.106.896 2.002 2 2.002h8c1.104 0 2-.896 2-2.002v-7.999a2 2 0 00-2-2zm16 0h-8a2 2 0 00-2 2v7.999c0 1.106.896 2.002 2 2.002h8c1.104 0 2-.896 2-2.002v-7.999a2 2 0 00-2-2zm0 9.999h-8v-7.999h8v7.999zm-32 6.001h-8a2 2 0 00-2 2v8a2 2 0 002 2.001h8a2 2 0 002-2.001v-8c0-1.103-.896-2-2-2zm16 0h-8a2 2 0 00-2 2v8a2 2 0 002 2.001h8a2 2 0 002-2.001v-8c0-1.103-.896-2-2-2zm0 10h-8v-8h8v8zm16-10h-8a2 2 0 00-2 2v8a2 2 0 002 2.001h8a2 2 0 002-2.001v-8c0-1.103-.896-2-2-2z" fill-rule="evenodd" clip-rule="evenodd" fill="#48a0dc"/><path d="M46.006 3.993l-.02.002H6.006a2 2 0 000 4h40a2 2 0 000-4.002zm6 0a2.001 2.001 0 10.002 4.002 2.001 2.001 0 00-.002-4.002zm6 0a2.001 2.001 0 10.002 4.002 2.001 2.001 0 00-.002-4.002z" fill-rule="evenodd" clip-rule="evenodd" fill="#fff"/></svg>