<svg xmlns="http://www.w3.org/2000/svg" width="64.006" height="63.983"><path d="M60.307.003C60.303.003 60.3 0 60.296 0H3.71c-.003 0-.007.003-.011.003C1.655.008 0 1.613 0 3.594v56.681a3.71 3.71 0 003.71 3.709h56.585a3.71 3.71 0 003.71-3.709V3.593c.001-1.98-1.654-3.585-3.698-3.59z" fill="#ccc"/><path d="M58.006 11.993h-54v46a2 2 0 002 2h52a2 2 0 002-2v-46h-2z" fill="#fff"/><path d="M44.005 31.993v-6a2 2 0 00-4 0v6a2 2 0 000 3.999v10a2 2 0 104 0v-10a2 2 0 100-3.999zm-9.999-2v-4a2 2 0 00-4 0v4a2 2 0 100 4v11.999a2 2 0 104 0V33.993a2 2 0 000-4zm-10 8v-12a2 2 0 00-4 0v12a2 2 0 000 4v3.999a2 2 0 004 0v-3.999a2 2 0 000-4z" fill-rule="evenodd" clip-rule="evenodd" fill="#88c057"/><path d="M46.005 3.993l-.02.002H6.006a2 2 0 000 4h40a2 2 0 002-2v-.001a2.001 2.001 0 00-2.001-2.001zm6.001 0a2 2 0 100 4 2 2 0 000-4zm6 0a2 2 0 10.002 4.002 2 2 0 00-.002-4.002z" fill-rule="evenodd" clip-rule="evenodd" fill="#fff"/></svg>