<svg xmlns="http://www.w3.org/2000/svg" width="64.006" height="63.982"><path d="M60.307.001L60.296 0H3.71l-.011.001C1.655.008 0 1.611 0 3.593v56.68a3.71 3.71 0 003.71 3.71h56.585a3.71 3.71 0 003.71-3.71V3.593c.001-1.982-1.654-3.585-3.698-3.592z" fill="#ccc"/><path d="M58.006 11.991h-54v46.002a2 2 0 002 1.999h52a2 2 0 002-1.999V11.991h-2z" fill="#fff"/><path d="M39.978 35.857c.013-.768-.315-1.524-.964-1.936l-11.977-7.603a1.97 1.97 0 00-.627-.247c-.094-.022-.183-.048-.277-.055-.044-.004-.082-.025-.126-.025-.101 0-.187.043-.283.058-.116.018-.227.027-.337.068a1.848 1.848 0 00-.543.291c-.02.015-.042.024-.061.041a1.952 1.952 0 00-.754 1.435c-.001.01-.005.02-.006.028-.001.028-.016.051-.016.079v16c0 .028.015.052.016.079.001.013.005.021.006.032.034.585.319 1.085.75 1.43.025.021.054.032.08.053.162.116.33.215.522.28.117.042.234.054.356.071.092.014.174.055.27.055.043 0 .079-.021.121-.025.099-.007.192-.034.29-.057a1.94 1.94 0 00.591-.227l12.005-7.619c.649-.412.978-1.168.964-1.937.006-.046.005-.089.008-.136-.004-.043-.003-.086-.008-.133z" fill="#48a0dc"/><path d="M46.005 3.992l-.02.002H6.006a2 2 0 000 4h40a2.001 2.001 0 00-.001-4.002zm6.001 0a2 2 0 100 4 2 2 0 000-4zm6 0a2 2 0 10.002 4.002 2 2 0 00-.002-4.002z" fill-rule="evenodd" clip-rule="evenodd" fill="#fff"/></svg>