<svg xmlns="http://www.w3.org/2000/svg" width="70.75" height="69.111"><path d="M60.307.003c-.004 0-.008-.003-.011-.003H3.71c-.003 0-.007.003-.011.003C1.655.009 0 1.613 0 3.594v56.681a3.71 3.71 0 003.71 3.71h41.683l-3.634-3.636a6.028 6.028 0 010-8.537 6.039 6.039 0 018.538 0l1.601 1.601 5.723-5.721c1.727-1.73 4.234-2.182 6.384-1.384V3.593c.001-1.98-1.654-3.584-3.698-3.59z" fill-rule="evenodd" clip-rule="evenodd" fill="#ccc"/><path d="M58.006 11.994h-54v45.999a2 2 0 002 2.001h52a2 2 0 002-2.001V11.994h-2z" fill="#fff"/><path d="M46.005 3.994l-.02.002H6.006a2 2 0 000 4h40a2 2 0 002-2v-.002a2 2 0 00-2.001-2zm6.001 0a2 2 0 100 4 2 2 0 000-4zm6 0a2 2 0 10.001 4.001 2 2 0 00-.001-4.001z" fill-rule="evenodd" clip-rule="evenodd" fill="#fff"/><path d="M63.398 50.561a2.015 2.015 0 00-2.854 0l-8.522 8.521-4.508-4.518a2.063 2.063 0 00-2.921 0 2.074 2.074 0 000 2.927l5.841 5.851c.208.208.45.361.708.462a2.014 2.014 0 002.268-.4l9.988-9.988a2.018 2.018 0 000-2.855z" fill-rule="evenodd" clip-rule="evenodd" fill="#88c057"/></svg>