<svg xmlns="http://www.w3.org/2000/svg" width="64.006" height="63.983"><path d="M60.307.003C60.303.003 60.3 0 60.296 0H3.71c-.004 0-.007.003-.011.003C1.655.008 0 1.613 0 3.594v56.681a3.71 3.71 0 003.71 3.709h56.586a3.71 3.71 0 003.71-3.709V3.593c0-1.98-1.655-3.585-3.699-3.59z" fill="#ccc"/><path d="M58.006 11.993h-54v46a2 2 0 002 2h52a2 2 0 002-2v-46h-2z" fill="#fff"/><path d="M44.006 37.993h-24a2 2 0 000 4.001h12v3a7 7 0 0014 0v-7.001h-2zm-5 9.999c-1.657 0-3-1.341-3-2.998v-3h6v3a2.999 2.999 0 01-3 2.998zM21.574 27.028l1.864-1.864a1.837 1.837 0 000-2.603 1.838 1.838 0 00-2.603 0l-1.864 1.864-1.809-1.809a1.832 1.832 0 00-2.593 0 1.832 1.832 0 000 2.593l1.809 1.809-1.807 1.807a1.841 1.841 0 002.604 2.604l1.806-1.807 1.806 1.807a1.833 1.833 0 102.594-2.594l-1.807-1.807zm26 0l1.864-1.864a1.837 1.837 0 000-2.603 1.838 1.838 0 00-2.603 0l-1.864 1.864-1.809-1.809a1.832 1.832 0 00-2.593 0 1.832 1.832 0 000 2.593l1.809 1.809-1.807 1.807a1.841 1.841 0 002.604 2.604l1.806-1.807 1.806 1.807a1.833 1.833 0 102.594-2.594l-1.807-1.807z" fill-rule="evenodd" clip-rule="evenodd" fill="#ed7161"/><path d="M46.006 3.993l-.02.002H6.006a2 2 0 000 4h40a2 2 0 002-2v-.001a2 2 0 00-2-2.001zm6 0a2 2 0 10.002 4.002 2 2 0 00-.002-4.002zm6 0a2 2 0 10.002 4.002 2 2 0 00-.002-4.002z" fill-rule="evenodd" clip-rule="evenodd" fill="#fff"/></svg>