<svg xmlns="http://www.w3.org/2000/svg" width="64.006" height="63.984"><path d="M60.307.003C60.303.003 60.3 0 60.296 0H3.71c-.003 0-.007.003-.011.003C1.655.009 0 1.614 0 3.595v56.681a3.71 3.71 0 003.71 3.709h56.585a3.71 3.71 0 003.71-3.709V3.594c.001-1.98-1.654-3.585-3.698-3.591z" fill="#ccc"/><path d="M58.006 11.994h-54v45.999a2 2 0 002 2.001h52a2 2 0 002-2.001V11.994h-2z" fill="#fff"/><path d="M48.006 34.994c0-1.851-3.023-3.462-7.506-4.326 1.492-4.314 1.608-7.738.005-8.664-1.614-.932-4.551.911-7.564 4.409-2.917-3.345-5.746-5.096-7.31-4.192s-1.462 4.229-.025 8.428c-4.536.86-7.601 2.481-7.601 4.346 0 1.851 3.023 3.463 7.505 4.327-1.492 4.314-1.607 7.738-.005 8.664 1.614.932 4.552-.911 7.564-4.409 2.917 3.344 5.746 5.095 7.31 4.191s1.462-4.229.025-8.427c4.536-.861 7.602-2.483 7.602-4.347zm-9.5-9.526c.834.481.739 2.355-.079 4.869a40.505 40.505 0 00-2.692-.255 38.808 38.808 0 00-1.467-2.045c1.793-2.008 3.395-3.057 4.238-2.569zM37.46 37.271c.064.149.122.293.183.44l-.472.059c.055-.094.111-.183.166-.276.042-.074.08-.148.123-.223zm-1.856-.776c-.291.505-.589.988-.889 1.459-.558.024-1.126.04-1.709.04a42.01 42.01 0 01-1.647-.037c-.306-.479-.61-.974-.907-1.488s-.573-1.024-.835-1.529c.25-.478.51-.959.791-1.445.292-.505.589-.988.889-1.46.558-.024 1.126-.04 1.709-.04.562 0 1.108.015 1.647.037.306.479.61.974.907 1.488s.573 1.024.835 1.529c-.25.478-.511.96-.791 1.446zm-2.277 3.494c-.096.131-.191.255-.287.38-.097-.126-.193-.248-.29-.378.086 0 .169.004.255.004.109 0 .214-.005.322-.006zm-4.579-2.537c.064.112.132.218.197.328a28.191 28.191 0 01-.633-.076c.081-.194.163-.389.251-.587.062.112.121.223.185.335zm-.197-4.734c-.064-.149-.122-.294-.183-.441.157-.02.312-.04.473-.058l-.166.275c-.043.074-.081.149-.124.224zm4.132-2.717c.096-.131.192-.256.288-.382.097.127.194.249.291.38-.086 0-.169-.004-.256-.004-.109 0-.214.005-.323.006zm4.58 2.536c-.065-.112-.132-.219-.198-.329.216.023.426.049.634.076-.081.194-.164.389-.251.587-.062-.111-.12-.223-.185-.334zm-9.665-6.909c.811-.468 2.333.504 4.047 2.392a40.034 40.034 0 00-1.474 2.067c-.873.056-1.713.139-2.525.242-.778-2.429-.859-4.233-.048-4.701zm-5.592 9.366c0-.974 1.708-1.836 4.343-2.384a38.94 38.94 0 001.037 2.291 39.21 39.21 0 00-1.125 2.459c-2.586-.548-4.255-1.403-4.255-2.366zm5.5 9.527c-.834-.481-.739-2.354.078-4.867.863.111 1.762.198 2.693.255.482.721.973 1.399 1.466 2.043-1.793 2.007-3.394 3.056-4.237 2.569zm10.908-.161c-.811.469-2.333-.503-4.047-2.392.496-.651.988-1.338 1.473-2.065a40.032 40.032 0 002.526-.243c.778 2.429.858 4.233.048 4.7zm1.248-6.981a38.976 38.976 0 00-1.036-2.291c.416-.836.791-1.657 1.125-2.46 2.585.549 4.255 1.403 4.255 2.366 0 .974-1.709 1.837-4.344 2.385z" fill-rule="evenodd" clip-rule="evenodd" fill="#b3b3b3"/><circle cx="33.006" cy="34.995" r="1" fill="#465966"/><path d="M46.005 3.994l-.02.002H6.006a2 2 0 000 4h40a2 2 0 002-2v-.001a2.001 2.001 0 00-2.001-2.001zm6.001 0a2 2 0 100 4 2 2 0 000-4zm6 0a2 2 0 10.002 4.002 2 2 0 00-.002-4.002z" fill-rule="evenodd" clip-rule="evenodd" fill="#fff"/></svg>