<svg xmlns="http://www.w3.org/2000/svg" width="64.006" height="64.046"><path d="M60.307.002L60.296 0H3.71l-.011.002C1.655.008 0 1.615 0 3.598v56.736a3.712 3.712 0 003.71 3.713h56.586a3.712 3.712 0 003.71-3.713V3.598c0-1.983-1.655-3.59-3.699-3.596z" fill="#ccc"/><path d="M58.006 12.006h-54V58.05c0 1.106.896 2.003 2 2.003h52c1.104 0 2-.896 2-2.003V12.006h-2z" fill="#fff"/><circle cx="20.006" cy="24.02" r="4" fill="#ed7161"/><circle cx="32.006" cy="24.02" r="4" fill="#9b7cab"/><circle cx="44.006" cy="24.02" r="4" fill="#48a0dc"/><circle cx="20.006" cy="36.02" r="4" fill="#ccc"/><circle cx="32.006" cy="36.02" r="4" fill="#9b7cab"/><circle cx="44.006" cy="36.02" r="4" fill="#fc6"/><circle cx="20.006" cy="48.02" r="4" fill="#48a0dc"/><circle cx="32.006" cy="48.02" r="4" fill="#88c057"/><circle cx="44.006" cy="48.02" r="4" fill="#ed7161"/><path d="M46.006 3.999c-.07 0-.136.014-.203.021H6.006a2 2 0 000 4h40a2 2 0 002-2l-.001-.009.001-.009a2.001 2.001 0 00-2-2.003zm6 0a2.001 2.001 0 000 4.004 2.001 2.001 0 100-4.004zm6 0a2.001 2.001 0 000 4.004 2.001 2.001 0 100-4.004z" fill-rule="evenodd" clip-rule="evenodd" fill="#fff"/></svg>