<svg xmlns="http://www.w3.org/2000/svg" width="64.002" height="55.996"><path d="M60.303.002L60.292 0H11.706l-.011.002c-2.044.007-3.699 1.61-3.699 3.592v48.681a3.71 3.71 0 003.71 3.709h48.586a3.71 3.71 0 003.71-3.709V3.593c0-1.981-1.655-3.584-3.699-3.591z" fill="#ccc"/><path d="M58.002 11.993h-46v37.999a2 2 0 002 2.002h44c1.104 0 2-.896 2-2.002V11.993h-2z" fill="#fff"/><path d="M46.002 3.994c-.01 0-.019.003-.029.003H14.002a2 2 0 000 4h32a2 2 0 002-2v-.002a2 2 0 00-2-2.001zm6 0a2 2 0 10.001 4.001 2 2 0 00-.001-4.001zm6 0a2 2 0 10.001 4.001 2 2 0 00-.001-4.001z" fill-rule="evenodd" clip-rule="evenodd" fill="#fff"/><path d="M52 15.995H4a4 4 0 00-4 4v32a4.001 4.001 0 004 4.001h48a4.001 4.001 0 004.001-4.001v-32a4 4 0 00-4.001-4z" fill="#9b7cab"/><path d="M8 19.995v32h40v-32H8zM4.001 33.996a2 2 0 10-.002 3.998 2 2 0 00.002-3.998z" fill-rule="evenodd" clip-rule="evenodd" fill="#fff"/></svg>