<svg xmlns="http://www.w3.org/2000/svg" width="64.006" height="63.984"><path d="M60.307.003C60.303.003 60.3 0 60.296 0H3.71c-.004 0-.007.003-.011.003C1.655.009 0 1.614 0 3.595v56.681a3.71 3.71 0 003.71 3.709h56.586a3.71 3.71 0 003.71-3.709V3.594c0-1.98-1.655-3.585-3.699-3.591z" fill="#ccc"/><path d="M58.006 11.994h-54v45.999a2 2 0 002 2.001h52a2 2 0 002-2.001V11.994h-2z" fill="#fff"/><path d="M43.697 24.245a7.82 7.82 0 00-11.042 0L19.578 37.293l.654-.652a7.78 7.78 0 000 11.02c2.504 2.499 6.271 2.91 9.232 1.306-1.778 0-3.626-.601-5.459-2.97-1.265-1.637-2.43-5.432-.087-7.901-.073.065-.056.043.087-.099-.031.031-.056.066-.087.099.645-.578 8.736-8.34 8.736-8.34L35.416 27a3.91 3.91 0 015.521 0 3.892 3.892 0 010 5.51l-2.762 2.755-1.981 1.978-6.3 6.286-1.381-1.377 8.283-8.265a1.945 1.945 0 00-.001-2.755 1.957 1.957 0 00-2.761 0l-8.212 8.334a4.863 4.863 0 00.62 6.128 4.887 4.887 0 006.143.619s1.105-.964.759-.619h.001l10.352-10.329a7.78 7.78 0 000-11.02z" fill="#ed7161"/><path d="M46.006 3.994l-.02.002H6.006a2 2 0 000 4h40a2 2 0 002-2v-.001a2 2 0 00-2-2.001zm6 0a2 2 0 10.002 4.002 2 2 0 00-.002-4.002zm6 0a2 2 0 10.002 4.002 2 2 0 00-.002-4.002z" fill-rule="evenodd" clip-rule="evenodd" fill="#fff"/></svg>