<svg xmlns="http://www.w3.org/2000/svg" width="64.006" height="63.983"><path d="M60.307.003C60.303.003 60.3 0 60.296 0H3.711l-.012.003C1.655.009 0 1.612 0 3.594v56.681a3.71 3.71 0 003.711 3.709h56.585a3.71 3.71 0 003.71-3.709V3.593c0-1.981-1.655-3.584-3.699-3.59z" fill="#ccc"/><path d="M58.006 11.994h-54v45.999a2 2 0 002 2h52a2 2 0 002-2V11.994h-2z" fill="#fff"/><path d="M34.47 37.968l4.979-4.977a1.76 1.76 0 00-2.489-2.489l-4.979 4.978-4.978-4.978a1.76 1.76 0 00-2.489 2.489l4.979 4.977-4.979 4.979a1.76 1.76 0 102.489 2.489l4.978-4.978 4.979 4.978a1.759 1.759 0 102.489-2.489l-4.979-4.979z" fill="#ed7161"/><path d="M46.006 3.994l-.01.001H6.006a2 2 0 000 4h40a2.002 2.002 0 000-4.001zm6 0a2 2 0 10.002 4.002 2 2 0 00-.002-4.002zm6 0a2 2 0 10.002 4.002 2 2 0 00-.002-4.002z" fill-rule="evenodd" clip-rule="evenodd" fill="#fff"/></svg>