<svg xmlns="http://www.w3.org/2000/svg" width="64.006" height="63.984"><path d="M60.307.003C60.303.003 60.3 0 60.296 0H3.71c-.004 0-.007.003-.011.003C1.655.009 0 1.614 0 3.595v56.681a3.71 3.71 0 003.71 3.709h56.586a3.71 3.71 0 003.71-3.709V3.594c0-1.98-1.655-3.585-3.699-3.591z" fill="#ccc"/><path d="M58.006 11.994h-54v45.999a2 2 0 002 2.001h52a2 2 0 002-2.001V11.994h-2z" fill="#fff"/><path d="M36.006 33.994h6a2 2 0 000-4h-1.051l4.412-4.466a2.1 2.1 0 000-2.955 2.06 2.06 0 00-2.932 0l-4.43 4.483v-1.063a2 2 0 00-4 0v6a2.002 2.002 0 002.001 2.001zm-8 3.998h-6a2 2 0 000 4h1.051l-4.412 4.467a2.1 2.1 0 00-.001 2.955c.81.817 2.122.817 2.933 0l4.43-4.484v1.063a2 2 0 104 0v-6.001a2.003 2.003 0 00-2.001-2zm17.422 8.431l-4.475-4.43h1.057a1.998 1.998 0 001.996-1.999c0-1.105-.894-2-1.996-2h-5.982a1.997 1.997 0 00-1.995 2v6c0 1.104.894 2 1.995 2a1.997 1.997 0 001.995-2v-1.052l4.457 4.412c.814.81 2.135.81 2.948 0a2.062 2.062 0 000-2.931zM28.047 23.994a1.996 1.996 0 00-1.996 1.999v1.052l-4.457-4.412a2.09 2.09 0 00-2.948-.002 2.067 2.067 0 000 2.933l4.475 4.431h-1.056a1.997 1.997 0 00-1.996 2c0 1.104.893 2 1.996 2h5.982a1.997 1.997 0 001.994-2v-6.001c0-1.105-.893-2-1.994-2z" fill-rule="evenodd" clip-rule="evenodd" fill="#ed7161"/><path d="M46.006 3.994l-.02.002H6.006a2 2 0 000 4h40a2 2 0 002-2v-.001a2 2 0 00-2-2.001zm6 0a2 2 0 10.002 4.002 2 2 0 00-.002-4.002zm6 0a2 2 0 10.002 4.002 2 2 0 00-.002-4.002z" fill-rule="evenodd" clip-rule="evenodd" fill="#fff"/></svg>