<svg xmlns="http://www.w3.org/2000/svg" width="64.006" height="63.983"><path d="M60.307.002L60.296 0H3.71l-.011.002C1.655.008 0 1.613 0 3.594v56.681a3.71 3.71 0 003.71 3.709h56.585a3.71 3.71 0 003.71-3.709V3.594c.001-1.981-1.654-3.586-3.698-3.592z" fill="#ccc"/><path d="M58.006 11.994h-54v45.999a2 2 0 002 2.001h52a2 2 0 002-2.001V11.994h-2z" fill="#fff"/><path d="M46.005 38.007v-.011l-.002-.023c-.021-9.829-6.279-15.977-13.998-15.977-7.732 0-14 6.268-14 14 0 7.731 6.268 14 14 14a2 2 0 000-4c-5.523 0-10-4.478-10-10 0-5.523 4.477-10 10-10 5.522 0 10 4.477 10 10v2a2 2 0 01-4 0v-6a2 2 0 00-3.418-1.41 5.97 5.97 0 00-2.582-.59A6 6 0 1034.95 41.22a5.988 5.988 0 005.055 2.776 5.996 5.996 0 005.979-5.594c.012-.111.021-.234.021-.383v-.012zm-13.999-.011a2 2 0 110-4 2 2 0 010 4z" fill-rule="evenodd" clip-rule="evenodd" fill="#48a0dc"/><path d="M46.005 3.994c-.086 0-.168.015-.251.025H6.006a2 2 0 000 4h40a2 2 0 002-2l-.001-.012.001-.011a2.001 2.001 0 00-2.001-2.002zm6.001 0a2 2 0 10.001 4.001 2 2 0 00-.001-4.001zm6 0a2.001 2.001 0 10.002 4.002 2.001 2.001 0 00-.002-4.002z" fill-rule="evenodd" clip-rule="evenodd" fill="#fff"/></svg>