<svg xmlns="http://www.w3.org/2000/svg" width="64.007" height="63.984"><path d="M60.307.003C60.303.003 60.3 0 60.296 0H3.71c-.004 0-.007.003-.011.003C1.655.009 0 1.613 0 3.594v56.681a3.71 3.71 0 003.71 3.71h56.586a3.71 3.71 0 003.711-3.71V3.593c0-1.98-1.656-3.584-3.7-3.59z" fill="#ccc"/><path d="M58.006 11.993h-54v46a2 2 0 002 2.001h52a2 2 0 002-2.001v-46h-2z" fill="#fff"/><path d="M45.339 46.126l-4.979-4.979a12.185 12.185 0 002.138-6.908c0-6.763-5.482-12.246-12.246-12.246-6.763 0-12.245 5.483-12.245 12.246s5.482 12.245 12.245 12.245c2.564 0 4.942-.791 6.909-2.138l4.979 4.979a2.262 2.262 0 103.199-3.199zm-15.338-4.133a8.004 8.004 0 110-16.008 8.004 8.004 0 110 16.008z" fill-rule="evenodd" clip-rule="evenodd" fill="#88c057"/><path d="M46.006 3.993l-.02.002H6.006a2 2 0 000 4h40a2 2 0 000-4.002zm6 0a2.001 2.001 0 10.002 4.002 2.001 2.001 0 00-.002-4.002zm6 0a2.001 2.001 0 10.002 4.002 2.001 2.001 0 00-.002-4.002z" fill-rule="evenodd" clip-rule="evenodd" fill="#fff"/></svg>