<svg xmlns="http://www.w3.org/2000/svg" width="68" height="64.046"><path d="M62.301.002L62.29 0H5.704l-.011.002C3.649.008 1.994 1.615 1.994 3.598v56.736a3.712 3.712 0 003.71 3.713H62.29A3.712 3.712 0 0066 60.334V3.598c0-1.983-1.655-3.59-3.699-3.596z" fill="#ccc"/><path d="M5.704 64.046H62.29c.09 0 .174-.021.262-.026H5.442c.089.005.172.026.262.026zM62.301.002L62.29 0H5.704l-.011.002C3.649.008 1.994 1.615 1.994 3.598v56.736c0 .02.006.038.006.059V32.02h64V3.598c0-1.983-1.655-3.59-3.699-3.596z" fill-rule="evenodd" clip-rule="evenodd" fill="#48a0dc"/><path d="M60 12.006H6V58.05c0 1.106.895 2.003 2 2.003h52c1.104 0 2-.896 2-2.003V12.006h-2z" fill="#fff"/><path d="M18 30.02h-4a2 2 0 000 4h4a2 2 0 000-4zm12 0h-4a2 2 0 000 4h4a2 2 0 000-4zm-24 0H2v4h4a2 2 0 000-4zm56 0a2 2 0 000 4h4v-4h-4zm-20 0h-4a2 2 0 000 4h4a2 2 0 000-4zm12 0h-4a2 2 0 000 4h4a2 2 0 000-4z" fill-rule="evenodd" clip-rule="evenodd" fill="#999"/><path d="M48 3.999c-.069 0-.136.014-.203.021H8a2 2 0 000 4h40a2 2 0 002-2l-.001-.009.001-.009a2.001 2.001 0 00-2-2.003zm6 0a2.001 2.001 0 000 4.004 2.001 2.001 0 100-4.004zm6 0a2.001 2.001 0 000 4.004 2.001 2.001 0 100-4.004z" fill-rule="evenodd" clip-rule="evenodd" fill="#fff"/></svg>