<svg xmlns="http://www.w3.org/2000/svg" width="64.006" height="63.983"><path d="M60.307.001L60.296 0H3.71l-.011.001C1.655.008 0 1.612 0 3.594v56.68a3.71 3.71 0 003.71 3.71h56.586a3.71 3.71 0 003.71-3.71V3.594c0-1.982-1.655-3.586-3.699-3.593z" fill="#ccc"/><path d="M58.006 11.993h-54v45.999a2 2 0 002 2.001h52a2 2 0 002-2.001V11.993h-2z" fill="#fff"/><path d="M46.006 3.994l-.01.001H6.006a2 2 0 000 4h40a2 2 0 000-4.001zm6 0a2 2 0 10.002 4.002 2 2 0 00-.002-4.002zm6 0a2 2 0 10.002 4.002 2 2 0 00-.002-4.002z" fill-rule="evenodd" clip-rule="evenodd" fill="#fff"/><path d="M40.006 38.176v-4.183c0-3.735-2.564-6.864-6.026-7.744.011-.085.026-.168.026-.256a2 2 0 00-4 0c0 .087.015.171.026.255-3.462.88-6.026 4.009-6.026 7.745v4.183a2.992 2.992 0 00-2 2.817 3 3 0 003 3h14c1.656 0 3-1.344 3-3a2.993 2.993 0 00-2-2.817zm-8 9.817a2 2 0 002-1.999h-4c0 1.105.894 1.999 2 1.999z" fill-rule="evenodd" clip-rule="evenodd" fill="#ed7161"/></svg>