<svg xmlns="http://www.w3.org/2000/svg" width="64.006" height="63.983"><path d="M60.307.001L60.296 0H3.71l-.011.001C1.655.008 0 1.612 0 3.594v56.68a3.71 3.71 0 003.71 3.71h56.586a3.71 3.71 0 003.71-3.71V3.594c0-1.982-1.655-3.586-3.699-3.593z" fill="#ccc"/><path d="M58.006 11.993h-54v45.999a2 2 0 002 2.001h52a2 2 0 002-2.001V11.993h-2z" fill="#fff"/><path d="M30.461 41.374c.325.325.732.51 1.155.573a2.003 2.003 0 001.856-.558c.018-.016.039-.025.056-.042l5.889-5.847a2.055 2.055 0 000-2.922 2.093 2.093 0 00-2.944 0l-2.427 2.408V23.993a2.004 2.004 0 00-2.008-2.001 2.005 2.005 0 00-2.008 2.001v11.09l-2.501-2.499a2.073 2.073 0 10-2.932 2.931l5.864 5.859zm11.545 4.62h-20a2 2 0 100 3.999h20a2 2 0 000-3.999z" fill-rule="evenodd" clip-rule="evenodd" fill="#88c057"/><path d="M46.006 3.994l-.01.001H6.006a2 2 0 000 4h40a2 2 0 000-4.001zm6 0a2 2 0 10.002 4.002 2 2 0 00-.002-4.002zm6 0a2 2 0 10.002 4.002 2 2 0 00-.002-4.002z" fill-rule="evenodd" clip-rule="evenodd" fill="#fff"/></svg>