<svg xmlns="http://www.w3.org/2000/svg" width="68.006" height="67.995"><path d="M36.006 51.995c0-8.836 7.163-16 16-16 4.785 0 9.068 2.112 12 5.442V3.595c0-1.981-1.655-3.587-3.699-3.592-.004 0-.007-.003-.011-.003H3.71c-.004 0-.007.003-.011.003C1.655.008 0 1.613 0 3.595v56.68a3.71 3.71 0 003.71 3.709h37.725c-3.323-2.932-5.429-7.21-5.429-11.989z" fill-rule="evenodd" clip-rule="evenodd" fill="#ccc"/><path d="M58.006 11.994h-54v45.999c0 1.104.896 2.001 2 2.001h52a2 2 0 002-2.001V11.994h-2z" fill="#fff"/><path d="M46.006 3.993c-.01 0-.019.003-.029.003H6.006a2 2 0 000 4h40a2.001 2.001 0 100-4.003zm6 0a2.001 2.001 0 10.002 4.002 2.001 2.001 0 00-.002-4.002zm6 0a2.001 2.001 0 10.002 4.002 2.001 2.001 0 00-.002-4.002z" fill-rule="evenodd" clip-rule="evenodd" fill="#fff"/><circle cx="52.006" cy="51.995" r="12" fill="#ed7161"/><path d="M56.006 49.995h-8a1.999 1.999 0 100 3.998h8a2 2 0 000-3.998z" fill="#fff"/></svg>