<svg xmlns="http://www.w3.org/2000/svg" width="64.006" height="64.046"><path d="M60.307.002L60.296 0H3.71l-.011.002C1.655.008 0 1.615 0 3.598v56.736a3.712 3.712 0 003.71 3.713h56.586a3.712 3.712 0 003.71-3.713V3.598c0-1.983-1.655-3.59-3.699-3.596z" fill="#ccc"/><path d="M58.006 12.006h-54V58.05c0 1.106.896 2.003 2 2.003h52c1.104 0 2-.896 2-2.003V12.006h-2z" fill="#fff"/><path fill="#88c057" d="M47.335 24.623l.671-6.604h-34v6.001h18l.066.603-.918.381-15.732 6.523.521 6.455 15.211.049 8.153.026-.522 8.609-7.631 2.139v-.007l-.062.017-7.369-1.852.283-4.943h-8l1.28 9.917 13.868 4.083v-.009l.026.009 13.794-4.009 1.032-19.991h-14l-.89-.493.038-.017z"/><path d="M46.006 3.998c-.073 0-.142.014-.213.021H6.006a2 2 0 000 4h40a2 2 0 002-2l-.001-.009.001-.009a2.002 2.002 0 00-2-2.003zm6 0a2.002 2.002 0 000 4.005 2.002 2.002 0 100-4.005zm6 0a2.002 2.002 0 000 4.005 2.002 2.002 0 100-4.005z" fill-rule="evenodd" clip-rule="evenodd" fill="#fff"/></svg>