<svg xmlns="http://www.w3.org/2000/svg" width="64.007" height="63.983"><path d="M60.307.003C60.303.003 60.3 0 60.296 0H3.71c-.004 0-.007.003-.011.003C1.655.009 0 1.612 0 3.594v56.681a3.71 3.71 0 003.71 3.709h56.586a3.71 3.71 0 003.711-3.709V3.593c0-1.981-1.656-3.584-3.7-3.59z" fill="#ccc"/><path d="M58.006 11.994h-54v45.999a2 2 0 002 2h52a2 2 0 002-2V11.994h-2z" fill="#fff"/><path d="M40.006 33.993h-6v-6a2 2 0 00-4 0v6h-6a2 2 0 000 4.001h6v6a2 2 0 004 0v-6h6a2 2 0 000-4.001z" fill="#48a0dc"/><path d="M46.006 3.994l-.01.001H6.006a2 2 0 000 4h40a2.002 2.002 0 000-4.001zm6 0a2 2 0 10.002 4.002 2 2 0 00-.002-4.002zm6 0a2 2 0 10.002 4.002 2 2 0 00-.002-4.002z" fill-rule="evenodd" clip-rule="evenodd" fill="#fff"/></svg>