<svg xmlns="http://www.w3.org/2000/svg" width="64.006" height="63.982"><path d="M60.307.001L60.296 0H3.71l-.011.001C1.655.008 0 1.611 0 3.593v56.68a3.71 3.71 0 003.71 3.71h56.586a3.71 3.71 0 003.71-3.71V3.593c0-1.982-1.655-3.585-3.699-3.592z" fill="#ccc"/><path d="M58.006 11.992h-54v46.001a2 2 0 002 1.999h52a2 2 0 002-1.999V11.992h-2z" fill="#fff"/><path d="M27.279 44.214l-3.498-3.499-1.748 5.248 5.246-1.749zm13.989-17.499a2.472 2.472 0 00-3.497 0l-12.24 12.25 3.497 3.5 12.24-12.25a2.478 2.478 0 000-3.5zm-17.487 14l1.749-1.75-1.749 1.75z" fill="#9777a8"/><path d="M46.006 3.992l-.02.002H6.006a2 2 0 000 4h40a2.001 2.001 0 000-4.002zm6 0a2 2 0 10.002 4.002 2 2 0 00-.002-4.002zm6 0a2 2 0 10.002 4.002 2 2 0 00-.002-4.002z" fill-rule="evenodd" clip-rule="evenodd" fill="#fff"/></svg>