<svg xmlns="http://www.w3.org/2000/svg" width="64.006" height="63.983"><path d="M60.307.002L60.296 0H3.71l-.011.002C1.655.009 0 1.613 0 3.594v56.681a3.71 3.71 0 003.71 3.709h56.586a3.71 3.71 0 003.71-3.709V3.593c0-1.98-1.655-3.584-3.699-3.591z" fill="#ccc"/><path d="M58.006 11.994h-54v45.999c0 1.104.896 2.001 2 2.001h52a2 2 0 002-2.001V11.994h-2z" fill="#fff"/><path d="M40.006 37.993a2 2 0 00-2 2v6h-12v-6a2 2 0 00-4 0v8a2 2 0 002 2h16a2 2 0 002-2v-8a2 2 0 00-2-2zm5.421-3.599L33.605 22.571a2.083 2.083 0 00-1.6-.6 2.08 2.08 0 00-1.6.6l-11.82 11.823a2.09 2.09 0 002.955 2.955l10.466-10.466 10.466 10.466a2.09 2.09 0 002.955-2.955z" fill-rule="evenodd" clip-rule="evenodd" fill="#48a0dc"/><path d="M46.006 3.995l-.01.001H6.006a2 2 0 000 4h40a2 2 0 000-4.001zm6 0a2 2 0 10.002 4.002 2 2 0 00-.002-4.002zm6 0a2 2 0 10.002 4.002 2 2 0 00-.002-4.002z" fill-rule="evenodd" clip-rule="evenodd" fill="#fff"/></svg>