<svg xmlns="http://www.w3.org/2000/svg" width="64.006" height="63.982"><path d="M60.307.001L60.296 0H3.71l-.011.001C1.655.008 0 1.611 0 3.593v56.68a3.71 3.71 0 003.71 3.71h56.586a3.71 3.71 0 003.71-3.71V3.593c0-1.982-1.655-3.585-3.699-3.592z" fill="#ccc"/><path d="M58.006 11.992h-54v46.001a2 2 0 002 1.999h52a2 2 0 002-1.999V11.992h-2z" fill="#fff"/><path d="M38.006 37.992h8c.068-.538.022-.311-.007-.866a14.748 14.748 0 00-2.025-6.733c.019-.047 2.878-7.043-1.585-8.203-3.664-.952-9.08 1.694-9.08 1.694l.199.038a14.891 14.891 0 00-1.019-.038c-6.7 0-12.26 4.523-13.326 10.695.759-.848 3.479-3.975 6.543-5.933 0 0-5.218 4.446-6.728 8.099 0 0-1.936 3.27-2.571 5.715-.385 1.483-1.372 6.801 2.571 7.412 4.102.635 7.339-1.447 7.339-1.447l-.079-.043a13.76 13.76 0 006.251 1.49c5.977 0 11.734-4.655 13.517-9.88h-8c-1.054 2.065-3.337 3.897-5.544 3.897-2.928 0-5.898-2.49-6.456-5.898h12zm-12.601 9.933s-2.271 1.101-4.185 1.153c-5.853-.053-1.468-7.942-1.468-7.942l-.001-.011c1.038 2.851 3.06 5.249 5.67 6.809l-.016-.009zm11.951-23.247s9.401-4.07 6.229 5.087l.112.184c-1.599-2.485-3.932-4.411-6.737-5.349l.396.078zm-5.35 5.314c3.391 0 5.617 3.195 6 6h-12c.595-2.783 2.927-6 6-6z" fill="#48a0dc"/><path d="M46.006 3.992l-.02.002H6.006a2 2 0 000 4h40a2.001 2.001 0 000-4.002zm6 0a2 2 0 10.002 4.002 2 2 0 00-.002-4.002zm6 0a2 2 0 10.002 4.002 2 2 0 00-.002-4.002z" fill-rule="evenodd" clip-rule="evenodd" fill="#fff"/></svg>