<svg xmlns="http://www.w3.org/2000/svg" width="64" height="64"><path d="M60 0H4a4 4 0 00-4 4v39.999a4 4 0 004 4h18.44c-.101 1.37-.437 5.588-.688 6.037-.299.534-3.263.992-3.793 1.247-.229.11-.269.236-.215.337l-.002.021c0 .196.16.355.358.355h27.854c.198 0 .388-.141.388-.338a.36.36 0 00-.264-.354l-.039-.021c-.529-.255-3.494-.713-3.793-1.247-.251-.449-.586-4.667-.687-6.037H60a4 4 0 004-4V4a4 4 0 00-4-4zm0 38a2 2 0 01-2 1.999H6A2 2 0 014 38V6a2 2 0 012-2h52a2 2 0 012 2v32z" fill="#ccc"/><path d="M59.999 23.999h-48a4 4 0 00-4 4v32a4.001 4.001 0 004 4.001h48A4.002 4.002 0 0064 59.999v-32c0-2.209-1.792-4-4.001-4z" fill="#48a0dc"/><path d="M17.999 27.999v32h40v-32h-40zM14 42a2 2 0 100 4.002A2 2 0 0014 42z" fill-rule="evenodd" clip-rule="evenodd" fill="#fff"/></svg>