<svg xmlns="http://www.w3.org/2000/svg" width="64.001" height="64.001"><path d="M60.001 0h-56a4 4 0 00-4 4v39.999a4 4 0 004 4h18.44c-.101 1.37-.437 5.588-.688 6.037-.299.534-3.263.992-3.793 1.247-.229.11-.269.236-.215.337l-.002.021c0 .196.16.355.358.355h27.854c.198 0 .388-.141.388-.338a.36.36 0 00-.264-.354l-.039-.021c-.53-.255-3.494-.713-3.793-1.247-.251-.449-.586-4.667-.688-6.037h18.44a4 4 0 004-4V4c.002-2.21-1.789-4-3.998-4zm0 38a2 2 0 01-2 1.999h-52a2 2 0 01-2-1.999V6a2 2 0 012-2h52a2 2 0 012 2v32z" fill="#ccc"/><path d="M36 8H4.001A4.001 4.001 0 000 12.001v48c0 2.208 1.791 4 4.001 4H36a4.001 4.001 0 004.001-4v-48A4.001 4.001 0 0036 8z" fill="#48a0dc"/><path d="M4.001 14.002v39.999H36V14.002H4.001zm16 41.999a2 2 0 100 4 2 2 0 000-4z" fill-rule="evenodd" clip-rule="evenodd" fill="#fff"/></svg>