<svg xmlns="http://www.w3.org/2000/svg" width="68.017" height="63.997"><path d="M42.247 54.036c-.251-.449-.586-4.667-.687-6.037h2.811c-.756-2.127-.302-4.588 1.401-6.291 1.02-1.02 2.315-1.571 3.646-1.709H6A2 2 0 014 38V6a2 2 0 012-2h52a2 2 0 012 2v32a2 2 0 01-2 1.999h-7.334c1.33.138 2.627.689 3.646 1.709l1.646 1.646 1.658-1.658c1.728-1.73 4.234-2.182 6.384-1.384V4a4 4 0 00-4-4H4a4 4 0 00-4 4v39.999a4 4 0 004 4h18.44c-.101 1.37-.437 5.588-.688 6.037-.299.534-3.263.992-3.793 1.247-.229.11-.269.235-.215.338l-.002.02c0 .196.16.355.358.355h26.12c.126-.371.288-.728.488-1.073-1.027-.244-2.272-.55-2.461-.887z" fill-rule="evenodd" clip-rule="evenodd" fill="#ccc"/><path d="M63.43 56.726l-4.703-4.702 4.703-4.702a1.903 1.903 0 00-2.691-2.691l-4.703 4.703-4.762-4.762a1.906 1.906 0 00-2.701 0 1.908 1.908 0 000 2.7l4.763 4.762-4.705 4.706a1.902 1.902 0 102.69 2.69l4.705-4.705 4.703 4.702a1.91 1.91 0 102.701-2.701z" fill-rule="evenodd" clip-rule="evenodd" fill="#ed7161"/></svg>