<svg xmlns="http://www.w3.org/2000/svg" width="68" height="64"><path d="M36 48c0-2.918.794-5.646 2.158-8.001H6a2 2 0 01-2-2V6a2 2 0 012-2h52a2 2 0 012 2v28.158a16.06 16.06 0 014 3.284V4a4 4 0 00-4-4H4a4 4 0 00-4 4v39.999A4 4 0 004 48h18.44c-.101 1.369-.437 5.587-.688 6.036-.299.534-3.263.992-3.793 1.247-.229.11-.269.235-.215.337l-.002.021c0 .196.16.354.358.354h20.054A15.909 15.909 0 0136 48z" fill-rule="evenodd" clip-rule="evenodd" fill="#ccc"/><circle cx="52" cy="48" r="12" fill="#88c057"/><path d="M56 46h-2.001v-2.001a1.999 1.999 0 00-3.999 0V46h-2a2 2 0 100 3.998h2v2a2 2 0 103.999 0v-2H56A1.999 1.999 0 1056 46z" fill="#fff"/></svg>