<svg xmlns="http://www.w3.org/2000/svg" width="67.864" height="64.059"><path d="M60 0H4a4 4 0 00-4 4v39.999a4 4 0 004 4h18.44c-.101 1.37-.437 5.588-.688 6.037-.299.534-3.263.992-3.793 1.247-.229.11-.269.235-.215.338l-.002.02c0 .196.16.355.358.355h23.36a5.992 5.992 0 01.102-7.947l-.004-.05h.045c.054-.059.093-.126.149-.183a6.037 6.037 0 018.538 0l.183.183h2.838l4.304-4.303c1.728-1.73 4.234-2.182 6.384-1.384V4C64 1.79 62.209 0 60 0zm0 38a2 2 0 01-2 1.999H6A2 2 0 014 38V6a2 2 0 012-2h52a2 2 0 012 2v32z" fill-rule="evenodd" clip-rule="evenodd" fill="#ccc"/><path d="M63.393 46.565a2.015 2.015 0 00-2.854 0l-8.521 8.52-4.509-4.516c-.807-.809-2.114-.809-2.921 0s-.807 2.117 0 2.926l5.841 5.851c.207.208.448.36.705.461a2.014 2.014 0 002.271-.4l9.988-9.988a2.018 2.018 0 000-2.854z" fill-rule="evenodd" clip-rule="evenodd" fill="#88c057"/></svg>