<svg xmlns="http://www.w3.org/2000/svg" width="64.001" height="64.001"><path d="M60.001 0h-56a4 4 0 00-4 4.001V44a4 4 0 004 4.001h22.44c-.101 1.369-.437 5.587-.688 6.036-.299.534-3.263.992-3.793 1.247-.229.11-.269.236-.215.337l-.002.021c0 .196.16.355.358.355h19.854c.198 0 .388-.141.388-.338a.36.36 0 00-.264-.354l-.039-.021c-.529-.255-3.494-.713-3.793-1.247-.251-.449-.586-4.667-.688-6.036h22.44a4 4 0 004-4.001V4.001A3.997 3.997 0 0060.001 0zm0 38.001a2 2 0 01-2 1.999h-52a2 2 0 01-2-1.999v-32a2 2 0 012-2h52a2 2 0 012 2v32z" fill="#ccc"/><path d="M52 32.001H4a4 4 0 00-4 4v24a4 4 0 004 4h48a4 4 0 004.001-4v-24a4 4 0 00-4.001-4z" fill="#ed7161"/><path d="M10 36.001v24h39.999v-24H10zm-3.999 10A2 2 0 106 50.002a2 2 0 00.001-4.001z" fill-rule="evenodd" clip-rule="evenodd" fill="#fff"/></svg>