<svg xmlns="http://www.w3.org/2000/svg" width="64" height="64.001"><path d="M60 0H4a4 4 0 00-4 4.001V44a4 4 0 004 4.001h22.44c-.101 1.369-.437 5.587-.688 6.036-.299.534-3.263.992-3.793 1.247-.229.11-.269.236-.215.337l-.002.021c0 .196.16.355.358.355h19.854c.198 0 .388-.141.388-.338a.36.36 0 00-.264-.354l-.039-.021c-.529-.255-3.494-.713-3.793-1.247-.251-.449-.586-4.667-.688-6.036H60A4 4 0 0064 44V4.001A4 4 0 0060 0zm0 38.001A2 2 0 0158 40H6a2 2 0 01-2-1.999v-32a2 2 0 012-2h52a2 2 0 012 2v32z" fill="#ccc"/><path d="M60 8.001H36a4 4 0 00-4 4.001v48a4 4 0 004 3.999h24a4 4 0 004-3.999v-48a4 4 0 00-4-4.001zM48 60.002a2 2 0 11.001-4.001A2 2 0 0148 60.002z" fill-rule="evenodd" clip-rule="evenodd" fill="#ed7161"/><path fill="#fff" d="M36 14.003h24v39.999H36z"/></svg>