<svg xmlns="http://www.w3.org/2000/svg" width="54" height="68"><path d="M22 52c0-8.836 7.163-16 16-16 .679 0 1.343.056 2 .138V4.001A4.001 4.001 0 0036 0H4C1.791 0 0 1.792 0 4.001v56a4 4 0 004 4h23.442C24.112 61.069 22 56.786 22 52z" fill-rule="evenodd" clip-rule="evenodd" fill="#ccc"/><path d="M4 8.002v47.999h32V8.002H4zm14 49.999a2 2 0 10.001 4.001A2 2 0 0018 58.001z" fill-rule="evenodd" clip-rule="evenodd" fill="#fff"/><circle cx="38" cy="52" r="12" fill="#88c057"/><path d="M41.999 50h-2v-2.001a1.999 1.999 0 00-3.999 0V50h-2a2 2 0 000 3.998h2v2a2 2 0 103.999 0v-2h2a1.999 1.999 0 100-3.998z" fill="#fff"/></svg>