<svg xmlns="http://www.w3.org/2000/svg" width="48.017" height="67.997"><path d="M27.417 55.893l-1.645-1.646a6.04 6.04 0 018.54-8.539l1.646 1.646 1.658-1.658c.12-.12.257-.207.384-.314V4.001A4 4 0 0034 0H4a4 4 0 00-4 4.001v56a4 4 0 004 4h20.256c-.774-2.14-.321-4.625 1.395-6.342l1.766-1.766z" fill-rule="evenodd" clip-rule="evenodd" fill="#ccc"/><path d="M4 4.001V54h30V4.001H4zm15 52a3 3 0 100 6 3 3 0 000-6z" fill-rule="evenodd" clip-rule="evenodd" fill="#fff"/><path d="M43.43 60.726l-4.703-4.702 4.703-4.702a1.905 1.905 0 000-2.691 1.905 1.905 0 00-2.691 0l-4.703 4.703-4.762-4.762a1.906 1.906 0 00-2.701 0 1.908 1.908 0 000 2.7l4.763 4.762-4.705 4.706a1.902 1.902 0 102.69 2.69l4.706-4.705 4.703 4.702a1.91 1.91 0 002.7-2.701z" fill-rule="evenodd" clip-rule="evenodd" fill="#ed7161"/></svg>