<svg xmlns="http://www.w3.org/2000/svg" width="49.87" height="68.058"><path d="M23.76 60.352a6.028 6.028 0 010-8.537 6.04 6.04 0 018.539 0l1.602 1.602 4.1-4.098V4.001A4.002 4.002 0 0034 0H4a4 4 0 00-4 4.001v56a4 4 0 004 4h23.409l-3.649-3.649z" fill-rule="evenodd" clip-rule="evenodd" fill="#ccc"/><path d="M4 4.001V54h30V4.001H4zm15 52a3 3 0 100 6 3 3 0 000-6z" fill-rule="evenodd" clip-rule="evenodd" fill="#fff"/><path d="M45.393 50.565a2.015 2.015 0 00-2.854 0l-8.522 8.521-4.508-4.518a2.063 2.063 0 00-2.921 0 2.072 2.072 0 000 2.927l5.841 5.851c.208.208.45.361.708.462a2.014 2.014 0 002.268-.4l9.988-9.988a2.02 2.02 0 000-2.855z" fill-rule="evenodd" clip-rule="evenodd" fill="#88c057"/></svg>