<svg xmlns="http://www.w3.org/2000/svg" width="59.865" height="68.058"><path d="M33.755 60.353a6.03 6.03 0 010-8.537 6.039 6.039 0 018.538 0l1.602 1.602 2.106-2.106V4A4 4 0 0042 0H4.001A4 4 0 000 4v56a4 4 0 004.001 4H37.4l-3.645-3.647z" fill-rule="evenodd" clip-rule="evenodd" fill="#ccc"/><path d="M4.001 4v49.999H42V4H4.001zm19 52A3 3 0 1023 62.001 3 3 0 0023 56z" fill-rule="evenodd" clip-rule="evenodd" fill="#fff"/><path d="M55.394 50.564a2.015 2.015 0 00-2.854 0l-8.521 8.52-4.509-4.517a2.063 2.063 0 00-2.921 0 2.072 2.072 0 000 2.927l5.841 5.851c.208.208.45.361.707.462a2.016 2.016 0 002.269-.4l9.988-9.988a2.02 2.02 0 000-2.855z" fill-rule="evenodd" clip-rule="evenodd" fill="#88c057"/></svg>