<svg xmlns="http://www.w3.org/2000/svg" width="62.001" height="68"><path d="M30.001 52c0-8.836 7.163-16 16-16 .679 0 1.344.056 2 .138V4.001A4.001 4.001 0 0044 0H4.001A4.001 4.001 0 000 4.001v56a4 4 0 004.001 4h31.442c-3.33-2.932-5.442-7.215-5.442-12.001z" fill-rule="evenodd" clip-rule="evenodd" fill="#ccc"/><path d="M4.001 8.002v47.999H44V8.002H4.001zm20 49.999a2 2 0 100 4 2 2 0 000-4z" fill-rule="evenodd" clip-rule="evenodd" fill="#fff"/><circle cx="46.001" cy="52" r="12" fill="#88c057"/><path d="M50.001 50H48v-2.001a1.999 1.999 0 00-3.999 0V50h-2a2 2 0 000 3.998h2v2a2 2 0 103.999 0v-2h2.001a1.998 1.998 0 100-3.998z" fill="#fff"/></svg>