<svg xmlns="http://www.w3.org/2000/svg" width="56.018" height="67.996"><path d="M35.419 55.892l-1.646-1.646a6.04 6.04 0 018.54-8.539l1.646 1.646 1.658-1.658c.119-.12.257-.207.384-.314V4A4 4 0 0042 0H4.001A4 4 0 000 4v56a4 4 0 004.001 4h28.256c-.774-2.14-.321-4.625 1.395-6.342l1.767-1.766z" fill-rule="evenodd" clip-rule="evenodd" fill="#ccc"/><path d="M4.001 4v49.999H42V4H4.001zm19 52A3 3 0 1023 62.001 3 3 0 0023 56z" fill-rule="evenodd" clip-rule="evenodd" fill="#fff"/><path d="M51.431 60.725l-4.703-4.702 4.703-4.702a1.905 1.905 0 000-2.691 1.905 1.905 0 00-2.691 0l-4.702 4.703-4.763-4.762a1.906 1.906 0 00-2.701 0 1.908 1.908 0 000 2.7l4.763 4.762-4.705 4.706a1.902 1.902 0 102.69 2.69l4.705-4.705 4.703 4.702a1.91 1.91 0 102.701-2.701z" fill-rule="evenodd" clip-rule="evenodd" fill="#ed7161"/></svg>